<svg width="100" height="100" fill="none" xmlns="http://www.w3.org/2000/svg"><path d="M94.61 49.428V11.502a6.093 6.093 0 0 0-1.779-4.294 6.054 6.054 0 0 0-4.283-1.774H50.613a1.458 1.458 0 0 1-1.017-.419L45.033.438A1.46 1.46 0 0 0 43.983 0H6.069a6.038 6.038 0 0 0-4.285 1.77A6.076 6.076 0 0 0 0 6.062v37.925a1.417 1.417 0 0 0 .424 1.014l4.562 4.577a1.413 1.413 0 0 1 .424 1.014v37.926a6.092 6.092 0 0 0 1.778 4.293 6.052 6.052 0 0 0 4.284 1.775h37.935c.38.001.745.151 1.017.418l4.562 4.578c.272.267.637.417 1.017.418h37.929a6.033 6.033 0 0 0 4.285-1.77A6.077 6.077 0 0 0 100 93.938V56.013a1.427 1.427 0 0 0-.424-1.014l-4.562-4.577a1.42 1.42 0 0 1-.404-.994ZM73.556 74.635h-47.06a1.093 1.093 0 0 1-1.076-1.092v-47.04a1.1 1.1 0 0 1 1.089-1.093h47.047a1.093 1.093 0 0 1 1.089 1.092v47.041a1.1 1.1 0 0 1-1.089 1.092Z" fill="#000"/></svg>