<svg width="100" height="71" fill="none" xmlns="http://www.w3.org/2000/svg"><path d="M99.74 2.42c3.298 44.667-25.414 65.779-51.153 68.03C24.657 72.543 2.13 57.84.155 35.247c-1.63-18.665 9.906-26.61 18.97-27.403 9.321-.817 17.155 5.612 17.834 13.395.655 7.484-4.015 10.89-7.262 11.173-2.568.225-5.8-1.334-6.091-4.681-.25-2.877.842-3.269.575-6.325-.475-5.44-5.22-6.074-7.817-5.849-3.143.275-8.846 3.944-8.046 13.082.805 9.218 9.643 16.501 21.229 15.488C42.05 43.035 50.754 33.3 51.409 19.647a4.96 4.96 0 0 1 .446-2.097l.004-.017c.135-.286.292-.56.471-.821.267-.4.609-.842 1.05-1.326.005-.012.005-.012.013-.012.321-.363.71-.755 1.147-1.176C60 9.045 79.67-3.108 98.273.74a1.864 1.864 0 0 1 1.467 1.68" fill="url(#a)"/><defs><linearGradient id="a" x1="97.204" y1="1.975" x2="32.478" y2="93.593" gradientUnits="userSpaceOnUse"><stop stop-color="#11C4D1"/><stop offset="1" stop-color="#0062AD"/></linearGradient></defs></svg>