<svg width="102" height="94" fill="none" xmlns="http://www.w3.org/2000/svg"><path d="M96.054 1 56.99 29.905l7.265-17.035L96.054 1Z" fill="#E17726" stroke="#E17726" stroke-width=".25" stroke-linecap="round" stroke-linejoin="round"/><path d="m5.946 1 38.717 29.175-6.916-17.305L5.946 1ZM81.988 68.022 71.594 83.9l22.257 6.128 6.376-21.66-18.239-.346ZM1.811 68.369l6.337 21.66L30.366 83.9 20.011 68.022l-18.2.347Z" fill="#E27625" stroke="#E27625" stroke-width=".25" stroke-linecap="round" stroke-linejoin="round"/><path d="m29.168 41.198-6.182 9.327 22.024 1.002-.734-23.703-15.108 13.374ZM72.83 41.198 57.492 27.555l-.502 23.972 22.024-1.002-6.182-9.327ZM30.366 83.9l13.331-6.436-11.476-8.941L30.366 83.9ZM58.303 77.464 71.595 83.9l-1.816-15.377-11.476 8.941Z" fill="#E27625" stroke="#E27625" stroke-width=".25" stroke-linecap="round" stroke-linejoin="round"/><path d="m71.595 83.9-13.292-6.435 1.082 8.633-.116 3.661 12.326-5.858ZM30.366 83.9l12.365 5.86-.077-3.662 1.043-8.633-13.33 6.436Z" fill="#D5BFB2" stroke="#D5BFB2" stroke-width=".25" stroke-linecap="round" stroke-linejoin="round"/><path d="m42.963 62.819-11.051-3.237 7.805-3.585 3.246 6.822ZM59.037 62.819l3.246-6.822 7.844 3.585-11.09 3.237Z" fill="#233447" stroke="#233447" stroke-width=".25" stroke-linecap="round" stroke-linejoin="round"/><path d="m30.366 83.9 1.932-15.878-12.287.347L30.366 83.9ZM69.701 68.022 71.595 83.9 81.989 68.37 69.7 68.022ZM79.013 50.524 56.99 51.526l2.047 11.293 3.246-6.822 7.844 3.584 8.887-9.057ZM31.912 59.581l7.805-3.584 3.246 6.822 2.047-11.293-22.024-1.002 8.925 9.057Z" fill="#CC6228" stroke="#CC6228" stroke-width=".25" stroke-linecap="round" stroke-linejoin="round"/><path d="m22.986 50.524 9.235 17.999-.309-8.942-8.925-9.057ZM70.127 59.581l-.348 8.942 9.235-17.999-8.887 9.057ZM45.012 51.526 42.964 62.82l2.588 13.335.58-17.575-1.12-7.053ZM56.99 51.526l-1.083 7.015.541 17.613 2.59-13.335-2.049-11.293Z" fill="#E27525" stroke="#E27525" stroke-width=".25" stroke-linecap="round" stroke-linejoin="round"/><path d="m59.037 62.82-2.589 13.334 1.855 1.31 11.476-8.94.348-8.942-11.09 3.237ZM31.912 59.582l.309 8.941 11.476 8.942 1.854-1.311-2.588-13.335-11.051-3.237Z" fill="#F5841F" stroke="#F5841F" stroke-width=".25" stroke-linecap="round" stroke-linejoin="round"/><path d="m59.27 89.759.115-3.662-1.005-.847H43.62l-.966.847.077 3.662L30.366 83.9l4.328 3.545 8.771 6.051h15.031l8.81-6.05 4.289-3.546-12.326 5.858Z" fill="#C0AC9D" stroke="#C0AC9D" stroke-width=".25" stroke-linecap="round" stroke-linejoin="round"/><path d="m58.303 77.464-1.855-1.31H45.55l-1.854 1.31-1.043 8.633.966-.847h14.76l1.005.847-1.082-8.633Z" fill="#161616" stroke="#161616" stroke-width=".25" stroke-linecap="round" stroke-linejoin="round"/><path d="M97.716 31.794 101 15.838 96.054 1 58.303 28.942l14.528 12.256 20.518 5.974 4.521-5.28-1.97-1.427 3.13-2.851-2.396-1.85 3.13-2.39-2.048-1.58ZM1 15.838l3.323 15.956-2.125 1.58 3.168 2.39-2.395 1.85 3.13 2.851-1.971 1.427 4.52 5.28 20.519-5.974 14.528-12.256L5.946 1 1 15.838Z" fill="#763E1A" stroke="#763E1A" stroke-width=".25" stroke-linecap="round" stroke-linejoin="round"/><path d="m93.35 47.171-20.518-5.973 6.182 9.327-9.235 17.998 12.21-.154h18.238L93.349 47.17ZM29.168 41.198 8.65 47.17 1.811 68.37h18.2l12.21.154-9.235-17.998 6.182-9.327ZM56.989 51.527l1.314-22.585 5.95-16.072H37.746l5.95 16.072 1.314 22.585.503 7.091.038 17.536h10.897l.039-17.536.502-7.091Z" fill="#F5841F" stroke="#F5841F" stroke-width=".25" stroke-linecap="round" stroke-linejoin="round"/></svg>