<svg width="100" height="100" fill="none" xmlns="http://www.w3.org/2000/svg"><path fill-rule="evenodd" clip-rule="evenodd" d="M49.947 0C22.362 0 0 22.386 0 50s22.362 50 49.947 50c27.585 0 49.947-22.386 49.947-50S77.532 0 49.947 0Z" fill="#4360DF"/><path fill-rule="evenodd" clip-rule="evenodd" d="M51.624 47.809c2.508.26 5.017.522 8.1.35 8.354-.466 13.415-4.758 13.056-11.175-.366-6.528-7.099-10.55-13.835-10.174-10.978.612-19.051 10.26-19.96 21.289a26.72 26.72 0 0 1 4.54-.641c3.083-.172 5.591.09 8.1.35ZM30.104 62.08c.346 5.984 6.724 9.671 13.106 9.326C53.61 70.845 61.26 62 62.12 51.891c-1.412.321-2.899.513-4.301.588-2.921.158-5.298-.082-7.674-.321-2.376-.24-4.752-.48-7.673-.322-7.915.428-12.71 4.363-12.369 10.244Z" fill="#fff"/></svg>