<svg width="100" height="100" fill="none" xmlns="http://www.w3.org/2000/svg"><path fill-rule="evenodd" clip-rule="evenodd" d="M3.406 17.063C0 23.75 0 32.5 0 50s0 26.25 3.406 32.938a31.34 31.34 0 0 0 13.657 13.656C23.75 100 32.5 100 50 100s26.25 0 32.938-3.406a31.34 31.34 0 0 0 13.656-13.656C100 76.25 100 67.5 100 50s0-26.25-3.406-32.938A31.34 31.34 0 0 0 82.938 3.406C76.25 0 67.5 0 50 0S23.75 0 17.062 3.406A31.341 31.341 0 0 0 3.406 17.063Zm71.547 9.906c.875 0 1.703.36 2.313.969.609.625.953 1.468.937 2.328-.156 9.312-.515 16.437-1.187 22.078-.657 5.64-1.641 9.828-3.125 13.219-1 2.265-2.235 4.14-3.688 5.734-1.953 2.11-4.187 3.64-6.625 5.094-1.042.623-2.125 1.238-3.262 1.884-2.425 1.377-5.091 2.891-8.113 4.913a3.233 3.233 0 0 1-3.61 0c-3.067-2.046-5.769-3.579-8.216-4.967-.544-.308-1.075-.61-1.596-.908-2.859-1.657-5.437-3.235-7.687-5.516-1.5-1.5-2.797-3.328-3.828-5.5-1.406-2.906-2.36-6.422-3.063-10.969-.937-6.078-1.406-14.031-1.578-25.063a3.257 3.257 0 0 1 .922-2.327 3.314 3.314 0 0 1 2.328-.97h1.344c4.14.017 13.281-.39 21.187-6.546a3.26 3.26 0 0 1 3.985 0c7.906 6.156 17.047 6.563 21.203 6.547h1.36Zm-7.265 36.515c1.015-2.093 1.86-4.984 2.5-9.14.765-4.969 1.234-11.719 1.453-20.906-4.875-.141-13.25-1.079-21.235-6.454-7.984 5.36-16.359 6.297-21.218 6.454.172 7.593.515 13.5 1.062 18.14.625 5.281 1.516 8.86 2.625 11.375.734 1.672 1.547 2.875 2.516 3.938 1.297 1.422 2.937 2.593 5.172 3.937.926.556 1.948 1.135 3.06 1.764 1.983 1.122 4.252 2.406 6.783 4.017 2.486-1.584 4.722-2.856 6.68-3.969.591-.335 1.156-.657 1.695-.968 2.75-1.578 4.782-2.89 6.297-4.422 1.016-1.047 1.844-2.187 2.61-3.766Z" fill="#3375BB"/></svg>