<svg width="100" height="62" fill="none" xmlns="http://www.w3.org/2000/svg"><path d="M20.472 11.975c16.308-15.967 42.748-15.967 59.056 0l1.963 1.922a2.014 2.014 0 0 1 0 2.89l-6.714 6.574c-.408.4-1.069.4-1.477 0l-2.7-2.644c-11.377-11.139-29.823-11.139-41.2 0l-2.892 2.832c-.407.399-1.069.399-1.476 0l-6.714-6.574a2.014 2.014 0 0 1 0-2.89l2.154-2.11ZM93.413 25.57l5.975 5.85a2.014 2.014 0 0 1 0 2.891l-26.943 26.38a2.12 2.12 0 0 1-2.953 0L50.37 41.97a.53.53 0 0 0-.738 0L30.51 60.692a2.12 2.12 0 0 1-2.953 0L.612 34.31a2.014 2.014 0 0 1 0-2.891l5.975-5.85a2.12 2.12 0 0 1 2.953 0l19.123 18.723c.204.2.534.2.738 0l19.122-18.724a2.12 2.12 0 0 1 2.953 0L70.6 44.293c.204.2.535.2.738 0L90.46 25.57a2.12 2.12 0 0 1 2.953 0Z" fill="#3B99FC"/></svg>