<?xml version="1.0" standalone="no"?>
<!DOCTYPE svg PUBLIC "-//W3C//DTD SVG 20010904//EN"
 "http://www.w3.org/TR/2001/REC-SVG-20010904/DTD/svg10.dtd">
<svg version="1.0" xmlns="http://www.w3.org/2000/svg"
 width="167.000000pt" height="164.000000pt" viewBox="0 0 167.000000 164.000000"
 preserveAspectRatio="xMidYMid meet">

<g transform="translate(0.000000,164.000000) scale(0.100000,-0.100000)"
fill="#000000" stroke="none">
<path d="M792 1574 l-24 -25 21 -18 c12 -10 21 -23 21 -30 0 -7 31 -11 95 -11
57 0 95 -4 95 -10 0 -5 14 -10 30 -10 17 0 30 -4 30 -10 0 -5 9 -10 20 -10 11
0 20 -4 20 -10 0 -5 9 -10 20 -10 11 0 20 -4 20 -10 0 -5 9 -10 20 -10 11 0
20 -4 20 -10 0 -5 9 -10 20 -10 19 0 150 -120 150 -138 0 -4 9 -14 20 -22 11
-8 20 -21 20 -30 0 -9 9 -22 20 -30 11 -8 20 -22 20 -32 0 -10 7 -18 15 -18 8
0 15 -9 15 -20 0 -17 7 -20 40 -20 38 0 40 2 40 30 0 17 -4 30 -10 30 -5 0
-10 9 -10 20 0 11 -4 20 -10 20 -5 0 -10 8 -10 18 0 10 -9 24 -20 32 -11 8
-20 25 -20 37 0 13 -5 23 -10 23 -6 0 -46 36 -90 80 -44 44 -85 80 -92 80 -8
0 -20 9 -28 20 -8 11 -25 20 -37 20 -14 0 -23 6 -23 15 0 10 -10 15 -30 15
-16 0 -30 5 -30 10 0 6 -9 10 -20 10 -11 0 -20 5 -20 10 0 6 -18 10 -40 10
-22 0 -40 5 -40 10 0 6 -35 10 -85 10 -50 0 -85 4 -85 10 0 16 -13 11 -38 -16z"/>
<path d="M513 1525 c-17 -19 -16 -43 1 -61 29 -29 86 -8 86 31 0 39 -61 60
-87 30z"/>
<path d="M680 1380 c0 -5 -13 -10 -30 -10 -16 0 -30 -4 -30 -10 0 -5 -9 -10
-20 -10 -11 0 -20 -4 -20 -10 0 -5 -9 -10 -20 -10 -11 0 -20 -4 -20 -10 0 -5
-8 -10 -18 -10 -10 0 -24 -9 -32 -20 -8 -11 -25 -20 -37 -20 -13 0 -23 -5 -23
-11 0 -6 -13 -24 -30 -39 -16 -15 -30 -34 -30 -42 0 -7 -9 -20 -20 -28 -11 -8
-20 -22 -20 -32 0 -10 -4 -18 -10 -18 -5 0 -10 -9 -10 -20 0 -11 -4 -20 -10
-20 -16 0 -11 -60 7 -78 12 -12 18 -13 21 -4 2 6 12 12 23 12 14 0 19 7 19 25
0 14 5 25 10 25 6 0 10 8 10 18 0 10 9 24 20 32 11 8 20 22 20 32 0 10 5 18
11 18 6 0 28 18 49 40 21 22 46 40 54 40 9 0 16 5 16 10 0 6 9 10 20 10 11 0
20 7 20 15 0 8 9 15 20 15 11 0 20 5 20 10 0 6 16 10 35 10 19 0 35 5 35 10 0
6 30 10 70 10 l70 0 0 40 0 40 -85 0 c-50 0 -85 -4 -85 -10z"/>
<path d="M253 1345 c-13 -13 -23 -29 -23 -35 0 -14 -25 -40 -39 -40 -6 0 -11
-7 -11 -15 0 -8 -4 -15 -10 -15 -5 0 -10 -9 -10 -20 0 -11 -4 -20 -10 -20 -5
0 -10 -9 -10 -20 0 -11 -4 -20 -10 -20 -5 0 -10 -9 -10 -20 0 -11 -4 -20 -10
-20 -5 0 -10 -13 -10 -30 0 -16 -4 -30 -10 -30 -5 0 -10 -16 -10 -35 0 -19 -4
-35 -10 -35 -6 0 -10 -62 -10 -165 0 -103 4 -165 10 -165 6 0 10 -18 10 -40 0
-22 5 -40 10 -40 6 0 10 -13 10 -30 0 -16 5 -30 10 -30 6 0 10 -11 10 -25 0
-14 5 -25 10 -25 6 0 10 -7 10 -15 0 -18 43 -65 60 -65 5 0 10 -4 10 -10 0
-15 29 -12 46 4 16 17 19 46 4 46 -5 0 -10 9 -10 20 0 11 -4 20 -10 20 -5 0
-10 11 -10 25 0 14 -4 25 -10 25 -5 0 -10 9 -10 20 0 11 -7 20 -15 20 -8 0
-15 9 -15 20 0 11 -4 20 -10 20 -5 0 -10 18 -10 40 0 22 -4 40 -10 40 -6 0
-10 55 -10 145 0 90 4 145 10 145 6 0 10 16 10 35 0 19 5 35 10 35 6 0 10 14
10 30 0 20 5 30 15 30 8 0 15 9 15 20 0 11 5 20 10 20 6 0 10 8 10 18 0 10 9
24 20 32 11 8 20 22 20 32 0 10 5 18 10 18 6 0 10 5 10 11 0 6 14 24 30 39 33
31 37 45 16 66 -21 21 -58 16 -83 -11z"/>
<path d="M1003 1345 c-27 -28 -28 -41 -9 -61 27 -26 86 -9 86 26 0 10 -45 61
-52 59 -2 0 -13 -11 -25 -24z"/>
<path d="M1173 1225 c-17 -19 -16 -53 1 -71 8 -8 17 -14 21 -14 12 0 55 -50
55 -65 0 -8 5 -15 10 -15 6 0 10 -9 10 -20 0 -11 5 -20 10 -20 6 0 10 -16 10
-35 0 -19 5 -35 10 -35 6 0 10 -52 10 -135 0 -83 -4 -135 -10 -135 -5 0 -10
-13 -10 -30 0 -16 -4 -30 -10 -30 -5 0 -10 -8 -10 -18 0 -10 -9 -24 -20 -32
-11 -8 -20 -22 -20 -32 0 -10 -4 -18 -10 -18 -5 0 -10 -7 -10 -15 0 -8 -5 -15
-11 -15 -14 0 -39 -26 -39 -40 0 -20 28 -40 55 -40 28 0 55 20 55 42 0 8 9 20
20 28 11 8 20 20 20 27 0 7 5 13 10 13 6 0 10 9 10 20 0 11 5 20 10 20 6 0 10
9 10 20 0 11 5 20 10 20 6 0 10 14 10 30 0 17 5 30 10 30 6 0 10 28 10 65 0
37 4 65 10 65 6 0 10 18 10 40 0 22 -4 40 -10 40 -5 0 -10 23 -10 50 0 28 -4
50 -10 50 -5 0 -10 16 -10 35 0 19 -4 35 -10 35 -5 0 -10 9 -10 20 0 11 -4 20
-10 20 -5 0 -10 9 -10 20 0 11 -4 20 -10 20 -5 0 -10 7 -10 15 0 22 -86 105
-107 105 -10 -1 -24 -7 -30 -15z"/>
<path d="M790 1160 l0 -40 50 0 c28 0 50 -4 50 -10 0 -5 16 -10 35 -10 19 0
35 -4 35 -10 0 -5 7 -10 15 -10 17 0 85 -64 85 -80 0 -5 5 -10 10 -10 6 0 10
-7 10 -15 0 -18 44 -65 60 -65 20 0 40 28 40 54 0 14 -4 26 -10 26 -5 0 -10 7
-10 15 0 8 -4 15 -10 15 -5 0 -10 7 -10 15 0 9 -20 36 -45 60 -24 25 -51 45
-60 45 -8 0 -15 5 -15 10 0 6 -9 10 -20 10 -11 0 -20 5 -20 10 0 6 -16 10 -35
10 -19 0 -35 5 -35 10 0 6 -27 10 -60 10 l-60 0 0 -40z"/>
<path d="M540 1084 c0 -9 -13 -29 -30 -44 -21 -19 -30 -37 -30 -59 0 -17 -4
-31 -10 -31 -5 0 -10 -13 -10 -30 0 -20 -5 -30 -15 -30 -12 0 -15 -13 -15 -60
0 -47 3 -60 15 -60 11 0 15 -11 15 -40 0 -30 7 -47 25 -65 29 -30 55 -32 55
-6 0 11 6 22 13 25 9 5 10 7 0 12 -8 3 -13 24 -13 50 0 24 -4 44 -10 44 -5 0
-10 18 -10 40 0 22 5 40 10 40 6 0 10 14 10 30 0 17 5 30 10 30 6 0 10 9 10
20 0 11 5 20 10 20 6 0 10 10 10 23 0 12 9 29 20 37 24 17 26 36 6 56 -20 20
-66 18 -66 -2z"/>
<path d="M750 930 l0 -40 40 0 c36 0 40 2 40 26 0 14 -6 32 -14 40 -8 8 -26
14 -40 14 -24 0 -26 -4 -26 -40z"/>
<path d="M250 830 l0 -40 40 0 40 0 0 40 0 40 -40 0 -40 0 0 -40z"/>
<path d="M1500 830 l0 -40 40 0 40 0 0 40 0 40 -40 0 -40 0 0 -40z"/>
<path d="M903 835 c-17 -18 -16 -33 1 -51 28 -28 96 -10 96 26 0 36 -72 54
-97 25z"/>
<path d="M730 725 l0 -45 40 0 40 0 0 45 0 45 -40 0 -40 0 0 -45z"/>
<path d="M1113 725 c-7 -8 -13 -20 -13 -27 0 -8 -9 -20 -20 -28 -11 -8 -20
-20 -20 -28 0 -17 -25 -42 -42 -42 -8 0 -20 -9 -28 -20 -8 -11 -25 -20 -37
-20 -13 0 -23 -4 -23 -10 0 -5 -22 -10 -49 -10 -30 0 -52 -5 -55 -12 -5 -10
-7 -10 -12 0 -3 6 -23 12 -45 12 -21 0 -39 5 -39 10 0 19 -41 10 -65 -15 -31
-30 -31 -30 0 -60 19 -20 34 -25 75 -25 27 0 50 -4 50 -10 0 -5 14 -10 30 -10
17 0 30 5 30 10 0 6 25 10 55 10 30 0 55 5 55 10 0 6 9 10 20 10 11 0 20 5 20
10 0 6 9 10 20 10 11 0 20 5 20 11 0 16 26 39 44 39 9 0 16 7 16 16 0 9 14 29
30 44 17 15 30 35 30 44 0 9 5 16 10 16 15 0 12 49 -4 66 -18 18 -37 17 -53
-1z"/>
<path d="M303 645 c-15 -17 -17 -65 -3 -65 6 0 10 -8 10 -18 0 -10 9 -24 20
-32 11 -8 20 -23 20 -32 0 -18 82 -108 98 -108 4 0 14 -9 22 -20 8 -11 22 -20
32 -20 10 0 18 -4 18 -10 0 -5 9 -10 20 -10 11 0 20 -4 20 -10 0 -5 9 -10 20
-10 11 0 20 -4 20 -10 0 -5 9 -10 20 -10 11 0 20 -4 20 -10 0 -5 20 -10 45
-10 33 0 45 -4 45 -15 0 -12 13 -15 60 -15 47 0 60 3 60 15 0 8 5 15 10 15 6
0 10 14 10 30 0 29 -1 30 -50 30 -27 0 -50 5 -50 10 0 6 -25 10 -55 10 -30 0
-55 5 -55 10 0 6 -9 10 -20 10 -11 0 -20 5 -20 10 0 6 -9 10 -20 10 -11 0 -20
5 -20 10 0 6 -7 10 -15 10 -17 0 -105 84 -105 100 0 5 -5 10 -11 10 -15 0 -39
26 -39 42 0 8 -9 20 -20 28 -11 8 -20 20 -20 28 0 17 -25 42 -42 42 -7 -1 -19
-7 -25 -15z"/>
<path d="M1500 590 c0 -5 -9 -10 -20 -10 -13 0 -20 -7 -20 -20 0 -11 -7 -20
-15 -20 -9 0 -15 -9 -15 -25 0 -14 -4 -25 -10 -25 -5 0 -10 -8 -10 -18 0 -10
-9 -24 -20 -32 -11 -8 -20 -20 -20 -27 0 -16 -105 -123 -120 -123 -15 0 -40
-25 -40 -39 0 -6 -11 -11 -25 -11 -14 0 -25 -4 -25 -10 0 -5 -9 -10 -20 -10
-11 0 -20 -4 -20 -10 0 -5 -9 -10 -20 -10 -11 0 -20 -4 -20 -10 0 -5 -13 -10
-30 -10 -16 0 -30 -4 -30 -10 0 -5 -20 -10 -45 -10 -25 0 -45 -4 -45 -10 0 -6
-43 -10 -110 -10 -67 0 -110 4 -110 10 0 6 -20 10 -45 10 -25 0 -45 5 -45 10
0 6 -13 10 -29 10 -16 0 -31 5 -33 12 -3 8 -14 3 -32 -15 l-27 -27 25 -25 c14
-14 37 -25 51 -25 14 0 25 -4 25 -10 0 -5 25 -10 55 -10 30 0 55 -4 55 -10 0
-6 48 -10 125 -10 77 0 125 4 125 10 0 6 18 10 40 10 22 0 40 5 40 10 0 6 14
10 30 10 17 0 30 5 30 10 0 6 14 10 30 10 17 0 30 5 30 10 0 6 10 10 23 10 12
0 29 9 37 20 8 11 21 20 30 20 9 0 22 9 30 20 8 11 20 20 28 20 14 0 42 23 42
35 0 4 18 24 40 45 22 21 40 46 40 54 0 9 5 16 11 16 15 0 39 26 39 42 0 8 9
20 20 28 11 8 20 22 20 32 0 10 5 18 10 18 15 0 12 80 -4 96 -17 16 -26 18
-26 4z"/>
<path d="M1013 375 c-17 -18 -16 -33 1 -51 27 -26 86 -9 86 26 0 35 -63 53
-87 25z"/>
<path d="M320 293 c-10 -12 -11 -18 -2 -21 7 -2 12 -15 12 -28 0 -19 5 -24 26
-24 34 0 54 22 54 59 0 29 -2 31 -37 31 -22 -1 -44 -8 -53 -17z"/>
</g>
</svg>
