<svg xmlns="http://www.w3.org/2000/svg" fill="none" viewBox="0 0 36 36"><circle cx="18" cy="18" r="18" fill="#202935"/><g clip-path="url(#a)"><path fill="#fff" d="M12.324 16.873c0 .32.034.58.095.77.069.19.155.397.276.622.044.07.06.138.06.199 0 .086-.051.173-.163.26l-.545.363a.415.415 0 0 1-.225.077c-.086 0-.173-.043-.26-.12a2.676 2.676 0 0 1-.31-.407 6.676 6.676 0 0 1-.269-.51c-.674.795-1.521 1.193-2.542 1.193-.726 0-1.305-.208-1.729-.623-.424-.415-.64-.968-.64-1.66 0-.735.26-1.331.787-1.78.527-.45 1.228-.675 2.118-.675.294 0 .597.026.917.069.32.043.648.112.994.19v-.631c0-.657-.138-1.116-.406-1.384-.277-.268-.744-.397-1.41-.397-.302 0-.613.034-.933.112a6.88 6.88 0 0 0-.934.294c-.139.06-.242.095-.303.112a.53.53 0 0 1-.138.026c-.121 0-.182-.086-.182-.268v-.423c0-.139.018-.242.06-.303a.646.646 0 0 1 .243-.181 4.972 4.972 0 0 1 1.09-.39 5.242 5.242 0 0 1 1.348-.164c1.03 0 1.781.234 2.266.7.475.467.717 1.176.717 2.127v2.802h.018Zm-3.51 1.314a2.8 2.8 0 0 0 .89-.155c.31-.104.588-.294.821-.554.138-.164.242-.346.294-.553.052-.208.086-.458.086-.752v-.364a7.207 7.207 0 0 0-.795-.146 6.514 6.514 0 0 0-.813-.052c-.579 0-1.003.112-1.288.345-.285.234-.424.563-.424.995 0 .406.104.709.32.916.208.216.51.32.908.32Zm6.942.934c-.155 0-.26-.026-.328-.086-.07-.052-.13-.173-.182-.338l-2.032-6.683a1.518 1.518 0 0 1-.078-.346c0-.139.07-.216.208-.216h.847c.164 0 .277.026.337.086.07.052.121.173.173.337l1.453 5.724 1.349-5.724c.043-.173.095-.285.164-.337.07-.052.19-.086.346-.086h.692c.164 0 .276.026.346.086.069.052.13.173.164.337l1.366 5.793 1.496-5.793c.052-.173.112-.285.173-.337.069-.052.181-.086.337-.086h.804c.138 0 .216.069.216.216 0 .043-.008.086-.017.138a1.224 1.224 0 0 1-.06.216l-2.084 6.684c-.052.173-.113.285-.182.337a.553.553 0 0 1-.328.087h-.744c-.164 0-.277-.026-.346-.087-.07-.06-.13-.173-.164-.346l-1.34-5.577-1.332 5.569c-.043.173-.095.285-.164.346-.07.06-.19.086-.346.086h-.744Zm11.111.234c-.45 0-.9-.052-1.332-.156-.432-.104-.77-.216-.994-.346-.138-.078-.233-.164-.268-.242a.61.61 0 0 1-.052-.242v-.441c0-.182.07-.268.199-.268.052 0 .104.008.156.026.052.017.13.052.216.086.294.13.614.234.95.303.347.069.684.104 1.03.104.545 0 .968-.095 1.262-.286a.931.931 0 0 0 .45-.821.842.842 0 0 0-.234-.605c-.155-.165-.45-.312-.873-.45l-1.254-.39c-.63-.198-1.098-.492-1.383-.881a2.06 2.06 0 0 1-.432-1.254c0-.363.077-.683.233-.96.156-.276.363-.518.623-.709.259-.199.553-.345.899-.45a3.767 3.767 0 0 1 1.09-.146c.19 0 .388.008.579.034.198.026.38.06.562.096.173.043.337.086.492.138.156.052.277.104.364.155.12.07.207.139.259.217.052.069.078.164.078.285v.406c0 .182-.07.277-.199.277-.07 0-.182-.035-.329-.104a3.955 3.955 0 0 0-1.66-.337c-.493 0-.882.078-1.15.242-.268.165-.406.415-.406.77 0 .242.086.45.26.614.172.164.492.328.95.475l1.228.39c.623.198 1.072.475 1.34.83.268.354.398.76.398 1.21 0 .372-.078.709-.225 1.003a2.326 2.326 0 0 1-.63.76 2.787 2.787 0 0 1-.96.485 4.11 4.11 0 0 1-1.237.182Z"/><path fill="#F90" d="M28.501 23.557c-2.845 2.1-6.978 3.216-10.531 3.216-4.98 0-9.468-1.841-12.858-4.902-.268-.242-.026-.571.294-.38 3.666 2.126 8.189 3.415 12.866 3.415 3.156 0 6.623-.658 9.814-2.006.476-.217.882.31.415.657Z"/><path fill="#F90" d="M29.686 22.208c-.363-.467-2.404-.225-3.33-.112-.276.034-.32-.208-.068-.39 1.625-1.14 4.297-.812 4.608-.432.311.39-.086 3.061-1.608 4.34-.233.2-.458.096-.355-.164.346-.856 1.116-2.784.753-3.242Z"/></g><defs><clipPath id="a"><path fill="#fff" d="M5 11.226h26v15.548H5z"/></clipPath></defs></svg>