<svg width="36" height="36" xmlns="http://www.w3.org/2000/svg" fill="none" viewBox="0 0 36 36"><circle cx="18" cy="18" r="18" fill="#425188"/><g fill="#DDEDFC" clip-path="url(#a)"><path d="M6.534 16.26a1.394 1.394 0 0 1 1.082-.485 1.438 1.438 0 0 1 1.113.477c.3.343.456.789.435 1.245.022.462-.134.916-.435 1.267a1.42 1.42 0 0 1-1.101.488 1.393 1.393 0 0 1-1.094-.495c-.3-.35-.458-.8-.439-1.26 0-.504.144-.92.432-1.242l.007.004Z"/><path fill-rule="evenodd" d="M32.19 12.513a2.08 2.08 0 0 1-.65 1.514l.03.03a5.067 5.067 0 0 1 1.377 3.493 5.07 5.07 0 0 1-1.377 3.492 4.6 4.6 0 0 1-3.33 1.446h-8.984V19.83c.239.247.521.448.833.59.276.122.579.182.9.182.727 0 1.355-.295 1.885-.885.535-.605.82-1.391.795-2.199a3.255 3.255 0 0 0-.768-2.236 2.403 2.403 0 0 0-3.645-.072v-.65h-.151a1.277 1.277 0 0 0-1.249 1.308v6.619h-5.052V19.83c.239.247.521.447.833.59.276.122.579.182.9.182.727 0 1.355-.295 1.885-.885.535-.605.82-1.391.795-2.199a3.254 3.254 0 0 0-.768-2.236 2.403 2.403 0 0 0-3.645-.072v-.65h-.15a1.277 1.277 0 0 0-1.25 1.308v6.619h-2.08l-1.93 3a.17.17 0 0 1-.182.076.17.17 0 0 1-.13-.143c-.113-.697-.32-2.055-.465-2.997a4.64 4.64 0 0 1-2.565-1.382 5.063 5.063 0 0 1-1.378-3.496 5.071 5.071 0 0 1 1.378-3.493 4.602 4.602 0 0 1 3.33-1.446h20.65l-.004-.094a2.081 2.081 0 0 1 4.163 0ZM9.252 14.56H9.1v.651a2.589 2.589 0 0 0-.821-.602 2.4 2.4 0 0 0-2.816.67 3.254 3.254 0 0 0-.768 2.24c0 .874.265 1.609.795 2.199a2.448 2.448 0 0 0 1.88.885c.326 0 .625-.06.901-.181a2.76 2.76 0 0 0 .829-.59v.067c0 .148.057.288.151.39a.525.525 0 0 0 .379.163h.877v-4.571a1.286 1.286 0 0 0-1.256-1.32Zm14.823.553a.51.51 0 0 1 .507-.511h3.795l-2.524 4.647h2.377v.741a.507.507 0 0 1-.508.507h-4.033l2.535-4.639h-2.15v-.745Zm6.168-.511h-.806v5.895h.81a.6.6 0 0 0 .601-.601v-4.693a.606.606 0 0 0-.605-.601Zm1.006-1.99a1.136 1.136 0 0 1-1.108 1.161 1.135 1.135 0 0 1-1.11-1.162 1.136 1.136 0 0 1 1.11-1.165 1.135 1.135 0 0 1 1.108 1.165Z" clip-rule="evenodd"/><path d="M13.187 16.252a1.438 1.438 0 0 1 1.104-.477c.44 0 .807.159 1.098.484.296.345.45.788.431 1.241 0 .511-.147.927-.442 1.257a1.4 1.4 0 0 1-1.087.492 1.426 1.426 0 0 1-1.104-.485 1.817 1.817 0 0 1-.44-1.267c0-.515.148-.927.44-1.25v.005Zm6.452 0a1.44 1.44 0 0 1 1.105-.477c.438 0 .805.159 1.097.484.296.345.45.788.431 1.241 0 .511-.147.927-.442 1.257a1.4 1.4 0 0 1-1.086.492 1.426 1.426 0 0 1-1.105-.485 1.816 1.816 0 0 1-.44-1.267c0-.515.148-.927.44-1.25v.005Z"/></g><defs><clipPath id="a"><path fill="#fff" d="M2.674 10.432h30.651v15.136H2.675z"/></clipPath></defs></svg>