<svg width="36" height="36" viewBox="0 0 36 36" fill="none" xmlns="http://www.w3.org/2000/svg">
<rect width="36" height="36" fill="white"/>
<circle cx="18" cy="18" r="18" fill="#F4F4F4"/>
<path d="M22.2979 8.90381V26.8249C22.2979 28.8316 23.681 29.9475 25.1489 29.9475C26.5066 29.9475 28 28.9971 28 26.8249V9.03957C28 7.2025 26.6423 6.05273 25.1489 6.05273C23.6555 6.05273 22.2979 7.32129 22.2979 8.90381Z" fill="#F8AB00"/>
<path d="M14.8307 17.9995V26.8243C14.8307 28.8311 16.2138 29.9469 17.6818 29.9469C19.0394 29.9469 20.5328 28.9965 20.5328 26.8243V18.1353C20.5328 16.2982 19.1752 15.1484 17.6818 15.1484C16.1883 15.1484 14.8307 16.417 14.8307 17.9995V17.9995Z" fill="#E37300"/>
<path d="M13.0658 27.0959C13.0658 28.67 11.7888 29.947 10.2147 29.947C8.64069 29.947 7.36365 28.67 7.36365 27.0959C7.36365 25.5219 8.64069 24.2449 10.2147 24.2449C11.7888 24.2449 13.0658 25.5219 13.0658 27.0959Z" fill="#E37300"/>
</svg>
