<svg width="144" height="144" fill="none" xmlns="http://www.w3.org/2000/svg"><path fill-rule="evenodd" clip-rule="evenodd" d="M61.23 34c-.74-.207-1.483-.413-2.23-.62l2.12-.68c3.36-1.073 6.717-2.147 10.07-3.22l10.56 2.92c.747.207 1.49.413 2.23.62l-2.12.68-10.06 3.22c-3.527-.973-7.05-1.947-10.57-2.92Zm9.18 1.27c-2.353-.653-4.703-1.303-7.05-1.95 2.24-.72 4.477-1.437 6.71-2.15l.34 4.1Zm2.5-.04c2.24-.713 4.48-1.43 6.72-2.15-2.353-.647-4.707-1.297-7.06-1.95l.34 4.1Zm-.99 39.824c-2.193-.021-3.969-.679-3.969-1.46 0-.792 1.776-1.408 3.968-1.388 2.182.02 3.968.679 3.968 1.46 0 .781-1.786 1.408-3.968 1.388Zm0 .719c-3.294-.03-5.952-1.018-5.952-2.2 0-1.182 2.658-2.107 5.951-2.076 3.283.03 5.952 1.007 5.952 2.19 0 1.181-2.669 2.117-5.952 2.086Zm-7.936-2.22c0 1.572 3.55 2.888 7.935 2.93 4.374.04 7.936-1.203 7.936-2.776 0-1.583-3.562-2.888-7.936-2.93-4.384-.03-7.935 1.203-7.935 2.776ZM62 73.533c0 1.973 4.434 3.617 9.92 3.669 5.474.051 9.918-1.511 9.918-3.485 0-1.973-4.444-3.597-9.919-3.649-5.485-.051-9.919 1.5-9.919 3.464Zm9.92 43.52c-2.193-.02-3.969-.678-3.969-1.459 0-.792 1.776-1.408 3.968-1.388 2.182.021 3.968.679 3.968 1.46 0 .781-1.786 1.408-3.968 1.387Zm0 .72c-3.294-.031-5.952-1.018-5.952-2.2 0-1.182 2.658-2.107 5.951-2.076 3.283.031 5.952 1.007 5.952 2.189 0 1.182-2.669 2.118-5.952 2.087Zm-7.936-2.22c0 1.572 3.55 2.888 7.935 2.929 4.374.041 7.936-1.202 7.936-2.775 0-1.583-3.562-2.889-7.936-2.93-4.384-.031-7.935 1.203-7.935 2.776ZM62 115.532c0 1.974 4.434 3.618 9.92 3.67 5.474.051 9.918-1.511 9.918-3.485 0-1.973-4.444-3.598-9.919-3.649-5.485-.051-9.919 1.501-9.919 3.464Z" fill="#fff"/><path d="M141.006 36.82c-.28 8.39-11.11 15.48-27.72 19.66-12 3-26.95 4.53-43.14 3.94-15.58-.56-29.91-3-41.43-6.63C11.636 48.4.726 40.35 1.006 31.73c.47-14.45 32.2-25 70.85-23.6 38.65 1.4 69.62 14.25 69.15 28.69Zm-27.72 19.66c-12 3-26.95 4.53-43.14 3.94-15.58-.56-29.91-3-41.43-6.63C12.106 58 1.286 65.06 1.006 73.45c-.27 8 9.16 15.54 24.21 20.9 12.06 4.28 27.73 7.17 44.92 7.8 18.36.67 35.15-1.36 47.77-5.23 14-4.27 22.84-10.79 23.09-18.37.29-8.62-10.63-16.68-27.71-22.07Zm4.63 40.44c-12.62 3.87-29.41 5.9-47.77 5.23-17.19-.63-32.86-3.52-44.92-7.8-14 4.27-22.83 10.79-23.08 18.37-.48 14.44 30.47 27.29 69.13 28.7 38.66 1.41 70.38-9.16 70.86-23.6.26-8.02-9.13-15.55-24.22-20.9Z" stroke="#fff" stroke-width="2"/></svg>