<svg width="144" height="136" viewBox="0 0 144 136" fill="none" xmlns="http://www.w3.org/2000/svg">
<g clip-path="url(#clip0_124_779)">
<path fill-rule="evenodd" clip-rule="evenodd" d="M61.23 26.9999C60.49 26.7933 59.7467 26.5866 59 26.3799L61.12 25.6999C64.48 24.6266 67.8367 23.5533 71.19 22.4799L81.75 25.3999C82.4967 25.6066 83.24 25.8133 83.98 26.0199L81.86 26.6999L71.8 29.9199C68.2733 28.9466 64.75 27.9733 61.23 26.9999ZM70.41 28.2699C68.0567 27.6166 65.7067 26.9666 63.36 26.3199C65.6 25.5999 67.8367 24.8833 70.07 24.1699L70.41 28.2699ZM72.91 28.2299C75.15 27.5166 77.39 26.7999 79.63 26.0799C77.2767 25.4333 74.9233 24.7833 72.57 24.1299L72.91 28.2299ZM71.9192 68.0534C69.727 68.0328 67.9515 67.375 67.9515 66.5938C67.9515 65.8023 69.727 65.1855 71.9192 65.2061C74.1014 65.2267 75.8868 65.8845 75.8868 66.6657C75.8868 67.4469 74.1014 68.0739 71.9192 68.0534ZM71.9192 68.7729C68.626 68.7421 65.9677 67.7553 65.9677 66.5732C65.9677 65.3911 68.626 64.466 71.9192 64.4969C75.2024 64.5277 77.8707 65.5042 77.8707 66.6863C77.8707 67.8684 75.2024 68.8037 71.9192 68.7729ZM63.9838 66.5527C63.9838 68.1253 67.5349 69.4411 71.9192 69.4822C76.2935 69.5233 79.8545 68.2795 79.8545 66.7068C79.8545 65.1239 76.2935 63.8184 71.9192 63.7773C67.5349 63.7465 63.9838 64.98 63.9838 66.5527ZM62 66.5321C62 68.5057 66.4339 70.1503 71.9192 70.2017C77.3945 70.2531 81.8383 68.6907 81.8383 66.7171C81.8383 64.7435 77.3945 63.1195 71.9192 63.0681C66.4339 63.0167 62 64.5688 62 66.5321ZM71.9192 110.053C69.727 110.033 67.9515 109.375 67.9515 108.594C67.9515 107.802 69.727 107.186 71.9192 107.206C74.1014 107.227 75.8868 107.885 75.8868 108.666C75.8868 109.447 74.1014 110.074 71.9192 110.053ZM71.9192 110.773C68.626 110.742 65.9677 109.755 65.9677 108.573C65.9677 107.391 68.626 106.466 71.9192 106.497C75.2024 106.528 77.8707 107.504 77.8707 108.686C77.8707 109.868 75.2024 110.804 71.9192 110.773ZM63.9838 108.553C63.9838 110.125 67.5349 111.441 71.9192 111.482C76.2935 111.523 79.8545 110.28 79.8545 108.707C79.8545 107.124 76.2935 105.818 71.9192 105.777C67.5349 105.746 63.9838 106.98 63.9838 108.553ZM62 108.532C62 110.506 66.4339 112.15 71.9192 112.202C77.3945 112.253 81.8383 110.691 81.8383 108.717C81.8383 106.744 77.3945 105.119 71.9192 105.068C66.4339 105.017 62 106.569 62 108.532Z" fill="white"/>
<path d="M141.006 29.82C140.726 38.21 129.896 45.3 113.286 49.48C101.286 52.48 86.3356 54.01 70.1456 53.42C54.5656 52.86 40.2356 50.42 28.7156 46.79C11.6356 41.4 0.725648 33.35 1.00565 24.73C1.47565 10.28 33.2056 -0.270009 71.8556 1.12999C110.506 2.52999 141.476 15.38 141.006 29.82ZM113.286 49.48C101.286 52.48 86.3356 54.01 70.1456 53.42C54.5656 52.86 40.2356 50.42 28.7156 46.79C12.1056 51 1.28565 58.06 1.00565 66.45C0.735648 74.45 10.1656 81.99 25.2156 87.35C37.2756 91.63 52.9456 94.52 70.1356 95.15C88.4956 95.82 105.286 93.79 117.906 89.92C131.906 85.65 140.746 79.13 140.996 71.55C141.286 62.93 130.366 54.87 113.286 49.48ZM117.916 89.92C105.296 93.79 88.5056 95.82 70.1456 95.15C52.9556 94.52 37.2856 91.63 25.2256 87.35C11.2256 91.62 2.39565 98.14 2.14565 105.72C1.66565 120.16 32.6156 133.01 71.2756 134.42C109.936 135.83 141.656 125.26 142.136 110.82C142.396 102.8 133.006 95.27 117.916 89.92V89.92Z" stroke="white" stroke-width="2"/>
</g>
<defs>
<clipPath id="clip0_124_779">
<rect width="143.13" height="135.54" fill="white"/>
</clipPath>
</defs>
</svg>
