<svg width="144" height="144" fill="none" xmlns="http://www.w3.org/2000/svg"><path fill-rule="evenodd" clip-rule="evenodd" d="m47.627 35.573-5.886 16.929A33.406 33.406 0 0 1 21.143 73.09L4.21 78.969l16.932 5.878a33.405 33.405 0 0 1 20.599 20.589l5.886 16.929 5.887-16.929a33.406 33.406 0 0 1 20.598-20.59l16.932-5.877-16.932-5.878a33.406 33.406 0 0 1-20.598-20.59l-5.887-16.928Zm-1.444-1.176a1.526 1.526 0 0 1 2.888 0l.001.004 6.095 17.526a31.656 31.656 0 0 0 19.52 19.51s-.001 0 0 0l17.543 6.091a1.526 1.526 0 0 1 0 2.882L74.686 86.5a31.656 31.656 0 0 0-19.52 19.51l-6.094 17.527v.004a1.526 1.526 0 0 1-2.889 0v-.004l-6.095-17.526a31.656 31.656 0 0 0-19.52-19.51L3.026 80.41a1.526 1.526 0 0 1 0-2.882l17.543-6.09a31.656 31.656 0 0 0 19.52-19.51L46.182 34.4l.002-.004ZM108.902 6.581l-4.006 11.527a24.298 24.298 0 0 1-14.985 14.975l-11.523 4 11.523 4.002a24.298 24.298 0 0 1 14.985 14.974l4.006 11.527 4.007-11.526a24.299 24.299 0 0 1 14.983-14.976l11.523-4-11.523-4a24.298 24.298 0 0 1-14.983-14.976l-4.007-11.527Zm-1.273-1.666a1.343 1.343 0 0 1 2.547 0l4.386 12.619a22.547 22.547 0 0 0 13.904 13.896l12.63 4.385a1.345 1.345 0 0 1 0 2.538l-12.63 4.385a22.547 22.547 0 0 0-13.904 13.896l-4.386 12.619a1.344 1.344 0 0 1-2.547 0l-4.386-12.619a22.55 22.55 0 0 0-13.906-13.896l-12.63-4.385a1.344 1.344 0 0 1 0-2.538l12.63-4.385a22.55 22.55 0 0 0 13.906-13.896l4.386-12.619ZM104.602 93.47l-3.036 8.753a19.615 19.615 0 0 1-12.101 12.089s0-.001 0 0l-8.74 3.035 8.74 3.035a19.612 19.612 0 0 1 12.101 12.088l3.036 8.754 3.044-8.754a19.615 19.615 0 0 1 12.093-12.088l8.746-3.035-8.746-3.035a19.617 19.617 0 0 1-12.093-12.088l-3.044-8.755Zm25.246 24.35s-.001 0 0 0Zm-26.437-26.256a1.25 1.25 0 0 1 2.382 0l3.506 10.085a17.862 17.862 0 0 0 11.014 11.009m0 0 10.108 3.508a1.25 1.25 0 0 1 0 2.361l-10.108 3.508a17.864 17.864 0 0 0-11.014 11.01l-3.506 10.085a1.25 1.25 0 0 1-2.382-.001l-3.498-10.084a17.863 17.863 0 0 0-11.022-11.01l-10.1-3.508s0 .001 0 0a1.25 1.25 0 0 1 0-2.361l10.1-3.508a17.863 17.863 0 0 0 11.022-11.009l3.498-10.085" fill="#fff"/></svg>