<svg width="140" height="140" viewBox="0 0 140 140" fill="none" xmlns="http://www.w3.org/2000/svg">
<path fill-rule="evenodd" clip-rule="evenodd" d="M45.6273 31.5733L39.7408 48.5018C36.387 58.1526 28.798 65.7381 19.1426 69.091L2.21046 74.9689L19.1425 80.8468C28.7979 84.1997 36.3869 91.7851 39.7407 101.436C39.7408 101.436 39.7407 101.436 39.7407 101.436L45.6273 118.365L51.5139 101.436C51.5139 101.436 51.5139 101.436 51.5139 101.436C54.8677 91.7853 62.4567 84.1998 72.1121 80.8469L89.0442 74.9689L72.1122 69.0911C62.4567 65.7381 54.8677 58.1526 51.5139 48.5018L45.6273 31.5733ZM44.1835 30.3973C44.3945 29.7798 44.9749 29.365 45.6273 29.365C46.2798 29.365 46.8602 29.7798 47.0712 30.3973C47.0716 30.3984 47.072 30.3995 47.0723 30.4006L53.1669 47.9272C56.3448 57.072 63.5361 64.2604 72.6861 67.4379C72.6861 67.4379 72.686 67.4378 72.6861 67.4379L90.2298 73.528C90.8429 73.7412 91.2547 74.3194 91.2547 74.9689C91.2547 75.6184 90.8434 76.1964 90.2302 76.4096L72.6862 82.5C72.6861 82.5 72.6862 82.5 72.6862 82.5C63.5362 85.6774 56.3449 92.8656 53.1669 102.01L47.0723 119.537C47.0719 119.538 47.0716 119.539 47.0712 119.541C46.8602 120.158 46.2797 120.573 45.6273 120.573C44.9749 120.573 44.3945 120.158 44.1835 119.541C44.1831 119.539 44.1827 119.538 44.1824 119.537L38.0878 102.011C34.9098 92.8658 27.7185 85.6775 18.5686 82.5001C18.5686 82.5001 18.5686 82.5001 18.5686 82.5001L1.02494 76.4098C0.411811 76.1965 0 75.6184 0 74.9689C0 74.3194 0.411319 73.7414 1.02445 73.5282L18.5685 67.4379C18.5686 67.4379 18.5685 67.4379 18.5685 67.4379C27.7185 64.2605 34.9098 57.0722 38.0878 47.9274L44.1824 30.4006C44.1827 30.3995 44.1831 30.3984 44.1835 30.3973Z" fill="white"/>
<path fill-rule="evenodd" clip-rule="evenodd" d="M106.902 2.58145L102.896 14.1081C100.456 21.128 94.9349 26.6451 87.9113 29.0831C87.9113 29.0831 87.9113 29.0831 87.9113 29.0831L76.3881 33.0838L87.9112 37.0845C94.9348 39.5225 100.456 45.0396 102.896 52.0595L106.902 63.5862L110.909 52.0595C113.349 45.0401 118.869 39.5229 125.892 37.0845L137.415 33.0838L125.892 29.0831C118.869 26.6447 113.349 21.1276 110.909 14.1081L106.902 2.58145ZM105.629 0.915019C105.813 0.368368 106.325 0 106.902 0C107.479 0 107.992 0.368365 108.176 0.915021L112.562 13.5336C114.826 20.0471 119.948 25.167 126.466 27.4299L139.096 31.8149C139.635 32.0027 139.998 32.5118 139.998 33.0838C139.998 33.6559 139.636 34.1648 139.096 34.3526L126.466 38.7377C119.948 41.0006 114.826 46.1205 112.562 52.634L108.176 65.2526C107.992 65.7993 107.479 66.1676 106.902 66.1676C106.325 66.1676 105.813 65.7993 105.629 65.2526L101.243 52.6341C98.9785 46.1202 93.8555 41.0002 87.3374 38.7377L74.7073 34.3527C74.1674 34.165 73.8047 33.6559 73.8047 33.0838C73.8047 32.5118 74.167 32.0028 74.7069 31.8151L87.3373 27.4299C93.8554 25.1674 98.9785 20.0475 101.243 13.5336L105.629 0.915019Z" fill="white"/>
<path fill-rule="evenodd" clip-rule="evenodd" d="M102.602 89.4692L99.5661 98.223C97.5954 103.891 93.1364 108.345 87.4648 110.312C87.4647 110.312 87.465 110.311 87.4648 110.312L78.7259 113.347L87.4644 116.382C87.4645 116.382 87.4642 116.382 87.4644 116.382C93.1359 118.348 97.5951 122.802 99.5659 128.47L102.602 137.224L105.646 128.47C105.646 128.47 105.646 128.47 105.646 128.47C107.615 122.804 112.071 118.351 117.739 116.382L126.485 113.347L117.739 110.312C112.071 108.343 107.615 103.889 105.646 98.2236C105.646 98.2236 105.646 98.2237 105.646 98.2236L102.602 89.4692ZM127.847 112.874C127.847 112.874 127.847 112.874 127.847 112.874ZM127.848 113.82C127.848 113.82 127.847 113.82 127.848 113.82ZM101.411 87.5644C101.576 87.0466 102.057 86.6937 102.602 86.6937C103.147 86.6937 103.628 87.0464 103.793 87.5639L107.299 97.6489C109.092 102.809 113.15 106.865 118.313 108.658M118.313 108.658L128.421 112.166C128.421 112.166 128.421 112.166 128.421 112.166C128.923 112.34 129.261 112.814 129.261 113.347C129.261 113.879 128.924 114.353 128.421 114.527C128.421 114.527 128.421 114.527 128.421 114.527L118.313 118.035C113.15 119.828 109.092 123.885 107.299 129.045L103.793 139.13C103.628 139.647 103.147 140 102.602 140C102.057 140 101.576 139.647 101.411 139.129L97.9129 129.045C96.1181 123.883 92.0572 119.826 86.8911 118.035L76.7916 114.527C76.7914 114.527 76.7918 114.528 76.7916 114.527C76.289 114.353 75.9512 113.879 75.9512 113.347C75.9512 112.814 76.2885 112.341 76.7911 112.166C76.7913 112.166 76.7909 112.166 76.7911 112.166L86.8907 108.658C92.0565 106.867 96.1178 102.811 97.9127 97.6495L101.411 87.5644" fill="white"/>
</svg>
