<svg width="142" height="142" viewBox="0 0 142 142" fill="none" xmlns="http://www.w3.org/2000/svg">
<path fill-rule="evenodd" clip-rule="evenodd" d="M53.8779 29.2782C52.0002 29.2782 50.4779 27.7559 50.4779 25.8782C50.4779 24.0004 52.0002 22.4782 53.8779 22.4782C55.7557 22.4782 57.2779 24.0004 57.2779 25.8782C57.2779 27.7559 55.7557 29.2782 53.8779 29.2782ZM53.8779 30.9782C51.0613 30.9782 48.7779 28.6948 48.7779 25.8782C48.7779 23.0615 51.0613 20.7782 53.8779 20.7782C56.6946 20.7782 58.9779 23.0615 58.9779 25.8782C58.9779 28.6948 56.6946 30.9782 53.8779 30.9782ZM47.0779 25.8782C47.0779 29.6337 50.1224 32.6782 53.8779 32.6782C57.6335 32.6782 60.6779 29.6337 60.6779 25.8782C60.6779 22.1226 57.6335 19.0782 53.8779 19.0782C50.1224 19.0782 47.0779 22.1226 47.0779 25.8782ZM45.3779 25.8782C45.3779 30.5726 49.1835 34.3782 53.8779 34.3782C58.5724 34.3782 62.3779 30.5726 62.3779 25.8782C62.3779 21.1838 58.5724 17.3782 53.8779 17.3782C49.1835 17.3782 45.3779 21.1838 45.3779 25.8782Z" fill="white"/>
<path d="M131.622 106C125.478 116.642 116.64 125.479 105.998 131.623C95.3564 137.767 83.2845 141.001 70.9963 141C58.7081 140.999 46.6366 137.764 35.9952 131.619C25.3538 125.474 16.5175 116.636 10.3746 105.994C4.23158 95.3511 0.998393 83.279 1 70.9908C1.00161 58.7027 4.23795 46.6314 10.3837 35.9905C16.5295 25.3496 25.3681 16.514 36.0111 10.3718C46.6541 4.22967 58.7265 0.997429 71.0147 1L71.0062 41.6C65.8451 41.5989 60.7747 42.9565 56.3047 45.5362C51.8346 48.1159 48.1224 51.8268 45.5412 56.296C42.9599 60.7652 41.6007 65.8351 41.6 70.9962C41.5993 76.1572 42.9573 81.2275 45.5373 85.6973C48.1174 90.1672 51.8286 93.8791 56.298 96.46C60.7674 99.0409 65.8374 100.4 70.9985 100.4C76.1595 100.4 81.2297 99.0419 85.6993 96.4615C90.169 93.8811 93.8806 90.1696 96.4611 85.7L131.622 106Z" stroke="white" stroke-width="2"/>
<path d="M131.622 106C125.478 116.642 116.64 125.479 105.998 131.623C95.3564 137.767 83.2845 141.001 70.9963 141C58.7081 140.999 46.6366 137.764 35.9952 131.619C25.3538 125.474 16.5175 116.636 10.3746 105.994C4.23158 95.3511 0.998393 83.279 1 70.9908C1.00161 58.7027 4.23795 46.6314 10.3837 35.9905C16.5295 25.3496 25.3681 16.514 36.0111 10.3718C46.6541 4.22967 58.7265 0.997429 71.0147 1L71.0062 41.6C65.8451 41.5989 60.7747 42.9565 56.3047 45.5362C51.8346 48.1159 48.1224 51.8268 45.5412 56.296C42.9599 60.7652 41.6007 65.8351 41.6 70.9962C41.5993 76.1572 42.9573 81.2275 45.5373 85.6973C48.1174 90.1672 51.8286 93.8791 56.298 96.46C60.7674 99.0409 65.8374 100.4 70.9985 100.4C76.1595 100.4 81.2297 99.0419 85.6993 96.4615C90.169 93.8811 93.8806 90.1696 96.4611 85.7L131.622 106Z" stroke="url(#paint0_linear_117_753)" stroke-width="2"/>
<path d="M71 1C83.2901 1 95.3635 4.23575 106.006 10.3819C116.649 16.528 125.486 25.3679 131.629 36.0127C137.772 46.6575 141.004 58.732 141 71.022C140.996 83.3121 137.757 95.3845 131.607 106.025L96.455 85.7107C99.0378 81.2415 100.398 76.1711 100.4 71.0092C100.402 65.8474 99.0442 60.7761 96.4642 56.3053C93.8843 51.8345 90.1727 48.1218 85.7027 45.5404C81.2327 42.959 76.1618 41.6 71 41.6L71 1Z" stroke="white" stroke-width="2"/>
<path d="M71 1C83.2901 1 95.3635 4.23575 106.006 10.3819C116.649 16.528 125.486 25.3679 131.629 36.0127C137.772 46.6575 141.004 58.732 141 71.022C140.996 83.3121 137.757 95.3845 131.607 106.025L96.455 85.7107C99.0378 81.2415 100.398 76.1711 100.4 71.0092C100.402 65.8474 99.0442 60.7761 96.4642 56.3053C93.8843 51.8345 90.1727 48.1218 85.7027 45.5404C81.2327 42.959 76.1618 41.6 71 41.6L71 1Z" stroke="url(#paint1_linear_117_753)" stroke-width="2"/>
<path d="M64.2783 74.7036V66.3636H65.5367V73.6204H69.3157V74.7036H64.2783Z" fill="white"/>
<path d="M70.7512 74.7036V66.3636H73.7239C74.3728 66.3636 74.9103 66.4817 75.3366 66.7179C75.7628 66.9541 76.0818 67.2772 76.2935 67.6871C76.5053 68.0944 76.6112 68.5532 76.6112 69.0636C76.6112 69.5767 76.5039 70.0382 76.2895 70.4481C76.0777 70.8554 75.7574 71.1784 75.3284 71.4173C74.9022 71.6535 74.366 71.7716 73.7199 71.7716H71.6756V70.7047H73.6058C74.0158 70.7047 74.3484 70.6341 74.6036 70.4929C74.8587 70.349 75.0461 70.1536 75.1655 69.9065C75.285 69.6595 75.3447 69.3785 75.3447 69.0636C75.3447 68.7486 75.285 68.469 75.1655 68.2247C75.0461 67.9803 74.8574 67.7889 74.5995 67.6505C74.3443 67.512 74.0076 67.4428 73.5896 67.4428H72.0095V74.7036H70.7512Z" fill="white"/>
<path fill-rule="evenodd" clip-rule="evenodd" d="M84.7827 17.609L85.9995 15.9939L87.1006 17.6899L92.3139 25.7202L86.5531 33.3672L85.3364 34.9823L84.2353 33.2862L79.022 25.256L84.7827 17.609ZM82.0376 24.4107L85.8838 19.3051L89.3646 24.6666L82.0376 24.4107ZM81.9712 26.3096L85.452 31.6711L89.2983 26.5654L81.9712 26.3096Z" fill="white"/>
<defs>
<linearGradient id="paint0_linear_117_753" x1="71" y1="1" x2="71" y2="141" gradientUnits="userSpaceOnUse">
<stop stop-color="white"/>
<stop offset="1" stop-color="white" stop-opacity="0"/>
</linearGradient>
<linearGradient id="paint1_linear_117_753" x1="71" y1="1" x2="71" y2="141" gradientUnits="userSpaceOnUse">
<stop stop-color="white"/>
<stop offset="1" stop-color="white" stop-opacity="0"/>
</linearGradient>
</defs>
</svg>
