<svg width="144" height="144" fill="none" xmlns="http://www.w3.org/2000/svg"><path fill-rule="evenodd" clip-rule="evenodd" d="M54.877 31.278a3.4 3.4 0 1 1 0-6.8 3.4 3.4 0 0 1 0 6.8Zm0 1.7a5.1 5.1 0 1 1 0-10.2 5.1 5.1 0 0 1 0 10.2Zm-6.8-5.1a6.8 6.8 0 1 0 13.6 0 6.8 6.8 0 0 0-13.6 0Zm-1.7 0a8.5 8.5 0 1 0 17 0 8.5 8.5 0 0 0-17 0Z" fill="#fff"/><path d="M132.622 108a70.003 70.003 0 0 1-95.627 25.619A70.003 70.003 0 0 1 11.384 37.99 70.001 70.001 0 0 1 72.014 3l-.008 40.6a29.4 29.4 0 1 0 25.455 44.1l35.161 20.3Z" stroke="#fff" stroke-width="2"/><path d="M132.622 108a70.003 70.003 0 0 1-95.627 25.619A70.003 70.003 0 0 1 11.384 37.99 70.001 70.001 0 0 1 72.014 3l-.008 40.6a29.4 29.4 0 1 0 25.455 44.1l35.161 20.3Z" stroke="url(#a)" stroke-width="2"/><path d="M72 3a69.998 69.998 0 0 1 70 70.022 69.993 69.993 0 0 1-9.393 35.003L97.455 87.711A29.402 29.402 0 0 0 72 43.6V3Z" stroke="#fff" stroke-width="2"/><path d="M72 3a69.998 69.998 0 0 1 70 70.022 69.993 69.993 0 0 1-9.393 35.003L97.455 87.711A29.402 29.402 0 0 0 72 43.6V3Z" stroke="url(#b)" stroke-width="2"/><path d="M65.277 76.704v-8.34h1.259v7.256h3.779v1.084h-5.038ZM71.752 76.704v-8.34h2.973c.649 0 1.186.118 1.612.354.427.236.746.56.957.969.212.407.318.866.318 1.377 0 .513-.107.974-.322 1.384-.212.407-.532.73-.96.97-.427.235-.963.353-1.61.353h-2.044v-1.066h1.93c.41 0 .743-.071.998-.212a1.33 1.33 0 0 0 .562-.587c.12-.247.18-.528.18-.843 0-.314-.06-.594-.18-.838a1.284 1.284 0 0 0-.566-.575c-.255-.138-.592-.207-1.01-.207h-1.58v7.26h-1.258Z" fill="#fff"/><path fill-rule="evenodd" clip-rule="evenodd" d="M85.782 19.609 87 17.994 88.1 19.69l5.213 8.03-5.76 7.647-1.217 1.615-1.101-1.696-5.213-8.03 5.76-7.647Zm-2.745 6.802 3.846-5.106 3.481 5.362-7.327-.256Zm-.066 1.899 3.48 5.361 3.847-5.106-7.327-.255Z" fill="#fff"/><defs><linearGradient id="a" x1="72" y1="3" x2="72" y2="143" gradientUnits="userSpaceOnUse"><stop stop-color="#fff"/><stop offset="1" stop-color="#fff" stop-opacity="0"/></linearGradient><linearGradient id="b" x1="72" y1="3" x2="72" y2="143" gradientUnits="userSpaceOnUse"><stop stop-color="#fff"/><stop offset="1" stop-color="#fff" stop-opacity="0"/></linearGradient></defs></svg>