<svg width="144" height="144" fill="none" xmlns="http://www.w3.org/2000/svg"><g clip-path="url(#a)"><path fill-rule="evenodd" clip-rule="evenodd" d="M92.138 27.821c3.03.557 5.118 1.65 5.076 2.834-.055 1.601-3.986 2.764-8.778 2.596-4.792-.167-8.632-1.601-8.576-3.202.041-1.184 2.201-2.129 5.262-2.473 1.038.25 2.228.412 3.496.456a17.91 17.91 0 0 0 3.44-.197l.08-.014ZM90.993 23.008c2.746.403 4.704 1.342 4.668 2.367-.044 1.281-3.189 2.21-7.022 2.077-3.834-.134-6.906-1.28-6.861-2.562.036-1.024 2.054-1.825 4.822-2.035a13.71 13.71 0 0 0 2.19.248c.752.026 1.471-.006 2.131-.086l.072-.009Z" fill="#fff"/><path d="M88.806 22.639c2.876.1 5.234-.597 5.267-1.558.034-.96-2.27-1.821-5.145-1.921-2.876-.1-5.234.597-5.267 1.557-.034.961 2.27 1.821 5.145 1.922Z" fill="#fff"/><path fill-rule="evenodd" clip-rule="evenodd" d="M72 2h-1v42.6h1a28.4 28.4 0 1 1-27.01 19.624l.309-.951-.951-.31L5.735 50.419l-.951-.31-.309.952A71 71 0 1 0 72 2Zm1 40.616V4.007a68.998 68.998 0 0 1 64.623 90.315A69 69 0 0 1 6.075 52.632l36.72 11.93A30.4 30.4 0 1 0 73 42.616Zm-4.077 26.452v8.216h3.15c.636 0 1.158-.097 1.568-.289.409-.195.711-.459.906-.79.198-.335.297-.712.297-1.132 0-.425-.085-.786-.257-1.083a1.89 1.89 0 0 0-.65-.686 1.637 1.637 0 0 0-.798-.264v-.08c.252-.065.482-.166.69-.305.211-.142.38-.33.506-.562.125-.236.188-.524.188-.867 0-.406-.095-.771-.285-1.095a1.976 1.976 0 0 0-.858-.774c-.383-.192-.865-.289-1.448-.289h-3.009Zm3.029 7.153h-1.79v-2.632h1.834a1.8 1.8 0 0 1 .858.193c.244.128.43.3.562.517.131.217.197.455.197.714 0 .345-.129.633-.386.863-.256.23-.682.345-1.275.345Zm-.129-3.599h-1.66v-2.499h1.693c.492 0 .857.115 1.095.345.238.23.357.515.357.855 0 .264-.067.494-.2.69a1.312 1.312 0 0 1-.535.449c-.221.107-.471.16-.75.16Zm-6.97 4.786c-.608 0-1.13-.13-1.57-.389a2.64 2.64 0 0 1-1.01-1.103c-.236-.476-.353-1.034-.353-1.673 0-.631.117-1.187.353-1.669.238-.481.57-.857.995-1.127.428-.27.928-.405 1.5-.405.348 0 .685.057 1.011.172.326.115.62.296.879.542.259.246.463.566.613.959.15.39.225.865.225 1.424v.425h-4.38c.01.376.081.698.216.967.147.289.352.51.614.662.262.15.568.224.918.224.228 0 .435-.032.622-.096a1.289 1.289 0 0 0 .798-.782l1.136.204c-.091.335-.254.628-.49.879a2.373 2.373 0 0 1-.878.582c-.35.136-.75.204-1.2.204Zm-1.537-4.485c-.117.23-.183.477-.198.742h3.202c0-.315-.064-.595-.192-.838a1.457 1.457 0 0 0-.542-.582c-.23-.141-.5-.212-.81-.212-.337 0-.631.083-.882.248a1.67 1.67 0 0 0-.578.642Zm-2.037-1.8-2.234 6.16H57.76l-2.239-6.16h1.288l1.56 4.74h.065l1.556-4.74h1.288Zm15.73 6.16h-1.317l2.957-8.215h1.432l2.957 8.216h-1.316l-.751-2.174h-3.21l-.753 2.174Zm2.39-6.722 1.211 3.506h-2.488l1.213-3.506h.064Zm4.825-1.493v8.216h4.962v-1.067h-3.722v-7.149h-1.24Z" fill="#fff"/><path d="M5.426 51.369A70 70 0 0 1 72 3v40.6a29.4 29.4 0 0 0-27.961 20.315L5.426 51.369Z" stroke="#fff" stroke-width="2"/><path fill-rule="evenodd" clip-rule="evenodd" d="m54.492 17.791 1.159-1.785 1.28 1.7 6.064 8.05-5.487 8.453-1.16 1.785-1.28-1.7-6.064-8.05 5.488-8.453Zm-2.384 7.344 3.664-5.643 4.049 5.374-7.713.27Zm.07 2 4.049 5.373 3.664-5.643-7.713.27Z" fill="#fff"/></g><defs><clipPath id="a"><path fill="#fff" transform="translate(1 2)" d="M0 0h142v142H0z"/></clipPath></defs></svg>