<svg width="142" height="142" viewBox="0 0 142 142" fill="none" xmlns="http://www.w3.org/2000/svg">
<path fill-rule="evenodd" clip-rule="evenodd" d="M91.1387 25.8213C94.1676 26.3779 96.2564 27.4704 96.215 28.6546C96.1591 30.2559 92.2288 31.4184 87.4365 31.251C82.6442 31.0837 78.8046 29.6499 78.8605 28.0485C78.9018 26.8644 81.0617 25.9202 84.1221 25.5763C85.1604 25.8255 86.3505 25.9877 87.6187 26.032C88.8552 26.0751 90.0254 26.0014 91.0592 25.8346L91.1387 25.8213Z" fill="white"/>
<path fill-rule="evenodd" clip-rule="evenodd" d="M89.9924 21.0081C92.7392 21.4114 94.697 22.3503 94.6612 23.3749C94.6165 24.656 91.4723 25.5859 87.6384 25.4521C83.8046 25.3182 80.7329 24.1711 80.7776 22.8901C80.8134 21.8655 82.8319 21.0654 85.6002 20.8547C86.2718 20.9887 87.0116 21.0757 87.7903 21.1029C88.5417 21.1291 89.261 21.0973 89.9209 21.017L89.9924 21.0081Z" fill="white"/>
<path d="M87.8065 20.639C90.6819 20.7394 93.0401 20.0419 93.0736 19.0811C93.1072 18.1203 90.8034 17.26 87.928 17.1596C85.0526 17.0592 82.6945 17.7567 82.6609 18.7175C82.6274 19.6783 84.9311 20.5385 87.8065 20.639Z" fill="white"/>
<path fill-rule="evenodd" clip-rule="evenodd" d="M71 0H70V1V41.6V42.6H71C76.9975 42.6 82.841 44.4987 87.6931 48.0239C92.5452 51.5492 96.1567 56.52 98.01 62.2239C99.8633 67.9279 99.8633 74.0721 98.01 79.7761C96.1567 85.48 92.5452 90.4508 87.6931 93.9761C82.841 97.5013 76.9975 99.4 71 99.4C65.0025 99.4 59.159 97.5013 54.3069 93.9761C49.4548 90.4508 45.8433 85.48 43.99 79.7761C42.1367 74.0721 42.1367 67.9279 43.99 62.2239L44.299 61.2729L43.348 60.9638L4.73506 48.4177L3.78401 48.1087L3.47499 49.0598C-1.15833 63.3197 -1.15833 78.6803 3.47498 92.9402C8.1083 107.2 17.1371 119.627 29.2672 128.44C41.3974 137.253 56.0063 142 71 142C85.9937 142 100.603 137.253 112.733 128.44C124.863 119.627 133.892 107.2 138.525 92.9402C143.158 78.6803 143.158 63.3197 138.525 49.0598C133.892 34.7999 124.863 22.3729 112.733 13.5598C100.603 4.7467 85.9937 0 71 0ZM72 40.6164V2.00724C86.2201 2.21325 100.039 6.80904 111.557 15.1778C123.346 23.7427 132.12 35.8196 136.623 49.6778C141.126 63.536 141.126 78.464 136.623 92.3222C132.12 106.18 123.346 118.257 111.557 126.822C99.7687 135.387 85.5714 140 71 140C56.4286 140 42.2313 135.387 30.4428 126.822C18.6543 118.257 9.8799 106.18 5.3771 92.3222C0.977368 78.7812 0.87666 64.2189 5.07497 50.6311L41.7945 62.562C40.1094 68.3942 40.2072 74.606 42.0879 80.3941C44.0717 86.4998 47.9376 91.8206 53.1313 95.5941C58.3251 99.3676 64.5801 101.4 71 101.4C77.4198 101.4 83.6749 99.3676 88.8687 95.5941C94.0624 91.8206 97.9283 86.4998 99.9121 80.3941C101.896 74.2885 101.896 67.7115 99.9121 61.6059C97.9283 55.5002 94.0624 50.1794 88.8687 46.4059C83.945 42.8286 78.0675 40.8161 72 40.6164ZM67.923 67.0682V75.2838H71.0721C71.7086 75.2838 72.2314 75.1875 72.6406 74.995C73.0498 74.7998 73.352 74.5363 73.5472 74.2047C73.7451 73.8704 73.8441 73.4933 73.8441 73.0735C73.8441 72.6482 73.7585 72.2872 73.5873 71.9903C73.4162 71.6935 73.1995 71.4648 72.9375 71.3044C72.678 71.1412 72.4119 71.053 72.1392 71.0396V70.9594C72.3905 70.8952 72.6205 70.7936 72.8291 70.6545C73.0404 70.5128 73.2089 70.3255 73.3346 70.0929C73.4603 69.8575 73.5231 69.5687 73.5231 69.2264C73.5231 68.8199 73.4282 68.4548 73.2383 68.1312C73.0484 67.805 72.7623 67.5469 72.3798 67.357C71.9974 67.1645 71.5147 67.0682 70.9317 67.0682H67.923ZM70.9517 74.2208H69.1626V71.5892H70.9959C71.3275 71.5892 71.6136 71.6534 71.8543 71.7817C72.0977 71.9101 72.2849 72.0826 72.416 72.2992C72.547 72.5159 72.6125 72.7539 72.6125 73.0133C72.6125 73.3583 72.4841 73.6458 72.2274 73.8758C71.9707 74.1058 71.5454 74.2208 70.9517 74.2208ZM70.8234 70.6224H69.1626V68.1232H70.8555C71.3475 68.1232 71.7126 68.2382 71.9506 68.4682C72.1886 68.6982 72.3076 68.983 72.3076 69.3227C72.3076 69.5874 72.2408 69.8174 72.1071 70.0126C71.976 70.2052 71.7982 70.355 71.5735 70.4619C71.3516 70.5689 71.1015 70.6224 70.8234 70.6224ZM63.8523 75.4082C63.2452 75.4082 62.7224 75.2785 62.2838 75.0191C61.8479 74.757 61.5109 74.3892 61.2729 73.9159C61.0375 73.4398 60.9199 72.8822 60.9199 72.2431C60.9199 71.6119 61.0375 71.0556 61.2729 70.5743C61.5109 70.0929 61.8425 69.7171 62.2677 69.447C62.6956 69.1769 63.1958 69.0419 63.7681 69.0419C64.1157 69.0419 64.4527 69.0994 64.779 69.2144C65.1052 69.3294 65.3981 69.5099 65.6575 69.7559C65.9169 70.002 66.1215 70.3215 66.2713 70.7147C66.421 71.1051 66.4959 71.5798 66.4959 72.1388V72.564H62.1163C62.1256 72.9396 62.1975 73.2618 62.3319 73.5308C62.479 73.8196 62.6836 74.0402 62.9457 74.1927C63.2078 74.3424 63.514 74.4173 63.8643 74.4173C64.0917 74.4173 64.2989 74.3852 64.4861 74.321C64.6733 74.2542 64.8351 74.1552 64.9715 74.0242C65.1079 73.8932 65.2122 73.7314 65.2844 73.5388L66.4197 73.7434C66.3288 74.0777 66.1656 74.3705 65.9303 74.6219C65.6976 74.8706 65.4048 75.0645 65.0518 75.2036C64.7014 75.34 64.3016 75.4082 63.8523 75.4082ZM62.3159 70.9233C62.1986 71.1532 62.1328 71.4005 62.1183 71.6654H65.3205C65.3205 71.3498 65.2563 71.0704 65.128 70.827C64.9996 70.581 64.8191 70.3871 64.5864 70.2453C64.3564 70.1036 64.0863 70.0327 63.7761 70.0327C63.4391 70.0327 63.1449 70.1156 62.8936 70.2814C62.6448 70.4446 62.4523 70.6585 62.3159 70.9233ZM60.279 69.1221L58.0446 75.2838H56.7609L54.5225 69.1221H55.8102L57.3707 73.8637H57.4348L58.9913 69.1221H60.279ZM76.0083 75.2838H74.6925L77.649 67.0682H79.0811L82.0376 75.2838H80.7219L79.9707 73.1096H76.7607L76.0083 75.2838ZM78.3992 68.5605L79.6104 72.0666H77.1217L78.335 68.5605H78.3992ZM83.2241 67.0682V75.2838H88.1863V74.2168H84.4636V67.0682H83.2241Z" fill="white"/>
<path d="M4.42605 49.3688C8.99411 35.3098 17.8957 23.0578 29.855 14.3688C41.8144 5.67984 56.2175 1 71 1L71 41.6C64.7913 41.6 58.742 43.5655 53.7191 47.2149C48.6962 50.8643 44.9575 56.0101 43.0389 61.9149L4.42605 49.3688Z" stroke="white" stroke-width="2"/>
<path fill-rule="evenodd" clip-rule="evenodd" d="M53.492 15.7915L54.651 14.0061L55.9318 15.7063L61.9957 23.7557L56.5081 32.2086L55.349 33.9939L54.0682 32.2938L48.0043 24.2443L53.492 15.7915ZM51.1088 23.1353L54.7727 17.4916L58.8214 22.866L51.1088 23.1353ZM51.1786 25.1341L55.2273 30.5085L58.8912 24.8648L51.1786 25.1341Z" fill="white"/>
</svg>
