<svg width="527" height="73" viewBox="0 0 527 73" fill="none" xmlns="http://www.w3.org/2000/svg">
<path d="M20.24 49.768C20.24 51.028 21.212 52 22.472 52H36.08C37.196 52 38.096 51.1 38.096 49.984C38.096 48.868 37.196 47.968 36.08 47.968H24.668V28.816C24.668 27.592 23.696 26.62 22.472 26.62C21.212 26.62 20.24 27.592 20.24 28.816V49.768ZM40.1531 28.096C40.1531 29.392 41.2331 30.256 42.6371 30.256C44.0411 30.256 45.1211 29.392 45.1211 28.096V27.88C45.1211 26.584 44.0411 25.756 42.6371 25.756C41.2331 25.756 40.1531 26.584 40.1531 27.88V28.096ZM40.4771 50.02C40.4771 51.244 41.4491 52.18 42.6371 52.18C43.8611 52.18 44.8331 51.244 44.8331 50.02V34.972C44.8331 33.748 43.8611 32.776 42.6371 32.776C41.4131 32.776 40.4771 33.748 40.4771 34.972V50.02ZM67.4098 34.972C67.4098 33.748 66.4378 32.776 65.2138 32.776C64.0258 32.776 63.0538 33.748 63.0538 34.936V35.944C61.6858 34.144 59.7058 32.596 56.5738 32.596C52.0378 32.596 47.7538 36.16 47.7538 42.46V42.532C47.7538 48.832 52.1098 52.396 56.5738 52.396C59.6698 52.396 61.6498 50.812 63.0538 48.832V55.78C63.0538 57.004 64.0258 57.94 65.2498 57.94C66.4378 57.94 67.4098 57.004 67.4098 55.78V34.972ZM57.6178 36.376C60.5338 36.376 63.1258 38.788 63.1258 42.46V42.532C63.1258 46.168 60.5338 48.616 57.6178 48.616C54.6658 48.616 52.1458 46.204 52.1458 42.532V42.46C52.1458 38.68 54.6298 36.376 57.6178 36.376ZM87.9622 34.972C87.9622 33.748 86.9542 32.776 85.7662 32.776C84.5422 32.776 83.5702 33.748 83.5702 34.972V43.72C83.5702 46.672 81.8062 48.4 79.2862 48.4C76.6942 48.4 75.2182 46.744 75.2182 43.792V34.972C75.2182 33.748 74.2462 32.776 73.0222 32.776C71.8342 32.776 70.8622 33.748 70.8622 34.972V45.088C70.8622 49.516 73.3462 52.396 77.6302 52.396C80.5822 52.396 82.3462 50.848 83.5702 49.048V50.02C83.5702 51.244 84.5782 52.18 85.7662 52.18C86.9902 52.18 87.9622 51.208 87.9622 50.02V34.972ZM91.5304 28.096C91.5304 29.392 92.6104 30.256 94.0144 30.256C95.4184 30.256 96.4984 29.392 96.4984 28.096V27.88C96.4984 26.584 95.4184 25.756 94.0144 25.756C92.6104 25.756 91.5304 26.584 91.5304 27.88V28.096ZM91.8544 50.02C91.8544 51.244 92.8264 52.18 94.0144 52.18C95.2384 52.18 96.2104 51.244 96.2104 50.02V34.972C96.2104 33.748 95.2384 32.776 94.0144 32.776C92.7904 32.776 91.8544 33.748 91.8544 34.972V50.02ZM118.787 27.7C118.787 26.476 117.815 25.54 116.591 25.54C115.403 25.54 114.431 26.476 114.431 27.7V35.944C113.063 34.144 111.083 32.596 107.951 32.596C103.415 32.596 99.1312 36.16 99.1312 42.46V42.532C99.1312 48.832 103.487 52.396 107.951 52.396C111.047 52.396 113.027 50.812 114.431 48.832V50.02C114.431 51.244 115.403 52.18 116.627 52.18C117.815 52.18 118.787 51.244 118.787 50.02V27.7ZM108.995 36.376C111.911 36.376 114.503 38.788 114.503 42.46V42.532C114.503 46.168 111.911 48.616 108.995 48.616C106.043 48.616 103.523 46.204 103.523 42.532V42.46C103.523 38.68 106.007 36.376 108.995 36.376ZM122.384 28.096C122.384 29.392 123.464 30.256 124.868 30.256C126.272 30.256 127.352 29.392 127.352 28.096V27.88C127.352 26.584 126.272 25.756 124.868 25.756C123.464 25.756 122.384 26.584 122.384 27.88V28.096ZM122.708 50.02C122.708 51.244 123.68 52.18 124.868 52.18C126.092 52.18 127.064 51.244 127.064 50.02V34.972C127.064 33.748 126.092 32.776 124.868 32.776C123.644 32.776 122.708 33.748 122.708 34.972V50.02ZM137.328 52.324C138.48 52.324 139.38 52.144 140.316 51.82C140.928 51.568 141.468 50.92 141.468 50.128C141.468 49.12 140.604 48.328 139.632 48.328C139.488 48.328 139.056 48.436 138.552 48.436C137.076 48.436 136.212 47.752 136.212 46.06V36.736H139.632C140.676 36.736 141.54 35.908 141.54 34.864C141.54 33.82 140.676 32.992 139.632 32.992H136.212V29.752C136.212 28.564 135.24 27.592 134.052 27.592C132.828 27.592 131.856 28.564 131.856 29.752V32.992H131.136C130.092 32.992 129.264 33.82 129.264 34.864C129.264 35.908 130.092 36.736 131.136 36.736H131.856V46.744C131.856 50.92 134.124 52.324 137.328 52.324ZM147.413 57.868C150.473 57.868 152.201 56.428 153.821 52.54L160.769 35.872C160.841 35.656 160.949 35.188 160.949 34.828C160.949 33.676 160.013 32.776 158.861 32.776C157.745 32.776 157.133 33.532 156.773 34.432L152.021 47.068L146.909 34.432C146.513 33.424 145.901 32.776 144.785 32.776C143.561 32.776 142.625 33.676 142.625 34.9C142.625 35.188 142.733 35.62 142.877 35.944L149.933 51.712L149.789 52.108C149.069 53.584 148.385 54.124 147.089 54.124C146.477 54.124 146.081 54.016 145.577 53.872C145.361 53.8 145.145 53.728 144.785 53.728C143.849 53.728 143.021 54.448 143.021 55.528C143.021 56.572 143.741 57.112 144.389 57.328C145.289 57.688 146.189 57.868 147.413 57.868ZM172.783 49.768C172.783 51.028 173.755 52 175.015 52H184.447C190.063 52 193.771 49.588 193.771 45.088V45.016C193.771 41.596 191.719 39.904 188.767 38.896C190.639 37.924 192.367 36.304 192.367 33.28V33.208C192.367 31.516 191.791 30.148 190.675 29.032C189.235 27.592 186.967 26.8 184.087 26.8H175.015C173.755 26.8 172.783 27.772 172.783 29.032V49.768ZM177.139 37.42V30.724H183.511C186.355 30.724 187.939 31.948 187.939 33.928V34C187.939 36.304 186.031 37.42 183.187 37.42H177.139ZM177.139 48.076V41.164H184.159C187.651 41.164 189.343 42.424 189.343 44.548V44.62C189.343 46.888 187.507 48.076 184.483 48.076H177.139ZM205.495 52.432C211.363 52.432 215.683 47.932 215.683 42.532V42.46C215.683 37.024 211.399 32.596 205.567 32.596C199.735 32.596 195.415 37.096 195.415 42.532V42.604C195.415 48.004 199.699 52.432 205.495 52.432ZM205.567 48.616C202.183 48.616 199.771 45.844 199.771 42.532V42.46C199.771 39.148 202.003 36.412 205.495 36.412C208.915 36.412 211.327 39.184 211.327 42.532V42.604C211.327 45.88 209.095 48.616 205.567 48.616ZM227.356 52.432C233.224 52.432 237.544 47.932 237.544 42.532V42.46C237.544 37.024 233.26 32.596 227.428 32.596C221.596 32.596 217.276 37.096 217.276 42.532V42.604C217.276 48.004 221.56 52.432 227.356 52.432ZM227.428 48.616C224.044 48.616 221.632 45.844 221.632 42.532V42.46C221.632 39.148 223.864 36.412 227.356 36.412C230.776 36.412 233.188 39.184 233.188 42.532V42.604C233.188 45.88 230.956 48.616 227.428 48.616ZM246.552 52.324C247.704 52.324 248.604 52.144 249.54 51.82C250.152 51.568 250.692 50.92 250.692 50.128C250.692 49.12 249.828 48.328 248.856 48.328C248.712 48.328 248.28 48.436 247.776 48.436C246.3 48.436 245.436 47.752 245.436 46.06V36.736H248.856C249.9 36.736 250.764 35.908 250.764 34.864C250.764 33.82 249.9 32.992 248.856 32.992H245.436V29.752C245.436 28.564 244.464 27.592 243.276 27.592C242.052 27.592 241.08 28.564 241.08 29.752V32.992H240.36C239.316 32.992 238.488 33.82 238.488 34.864C238.488 35.908 239.316 36.736 240.36 36.736H241.08V46.744C241.08 50.92 243.348 52.324 246.552 52.324ZM259.697 52.36C263.657 52.36 266.753 50.38 266.753 46.384V46.312C266.753 42.892 263.621 41.632 260.849 40.768C258.617 40.048 256.565 39.472 256.565 38.068V37.996C256.565 36.916 257.537 36.124 259.229 36.124C260.561 36.124 262.145 36.628 263.693 37.42C263.981 37.564 264.197 37.636 264.557 37.636C265.565 37.636 266.357 36.88 266.357 35.872C266.357 35.116 265.925 34.54 265.313 34.216C263.477 33.244 261.353 32.668 259.337 32.668C255.557 32.668 252.569 34.864 252.569 38.464V38.536C252.569 42.172 255.701 43.324 258.509 44.116C260.741 44.8 262.757 45.304 262.757 46.78V46.852C262.757 48.112 261.677 48.904 259.805 48.904C258.077 48.904 256.169 48.292 254.333 47.068C254.081 46.924 253.757 46.816 253.397 46.816C252.389 46.816 251.633 47.608 251.633 48.58C251.633 49.3 251.993 49.84 252.461 50.092C254.657 51.604 257.285 52.36 259.697 52.36ZM275.436 52.324C276.588 52.324 277.488 52.144 278.424 51.82C279.036 51.568 279.576 50.92 279.576 50.128C279.576 49.12 278.712 48.328 277.74 48.328C277.596 48.328 277.164 48.436 276.66 48.436C275.184 48.436 274.32 47.752 274.32 46.06V36.736H277.74C278.784 36.736 279.648 35.908 279.648 34.864C279.648 33.82 278.784 32.992 277.74 32.992H274.32V29.752C274.32 28.564 273.348 27.592 272.16 27.592C270.936 27.592 269.964 28.564 269.964 29.752V32.992H269.244C268.2 32.992 267.372 33.82 267.372 34.864C267.372 35.908 268.2 36.736 269.244 36.736H269.964V46.744C269.964 50.92 272.232 52.324 275.436 52.324ZM282.065 50.02C282.065 51.244 283.037 52.18 284.225 52.18C285.449 52.18 286.421 51.208 286.421 50.02V44.404C286.421 39.904 288.545 37.528 291.641 36.988C292.613 36.808 293.369 36.052 293.369 34.9C293.369 33.64 292.577 32.74 291.209 32.74C289.301 32.74 287.429 34.54 286.421 36.916V34.972C286.421 33.748 285.449 32.776 284.225 32.776C283.001 32.776 282.065 33.748 282.065 34.972V50.02ZM299.694 52.396C302.61 52.396 304.59 51.172 305.886 49.624V50.344C305.886 51.316 306.75 52.18 308.01 52.18C309.198 52.18 310.134 51.28 310.134 50.092V40.732C310.134 38.248 309.486 36.232 308.082 34.864C306.75 33.496 304.626 32.74 301.782 32.74C299.298 32.74 297.462 33.172 295.662 33.856C295.014 34.108 294.474 34.792 294.474 35.584C294.474 36.592 295.302 37.384 296.31 37.384C296.526 37.384 296.742 37.348 296.994 37.276C298.182 36.808 299.55 36.52 301.206 36.52C304.266 36.52 305.922 37.96 305.922 40.66V41.128C304.446 40.66 302.934 40.336 300.81 40.336C296.166 40.336 292.962 42.352 292.962 46.456V46.528C292.962 50.344 296.13 52.396 299.694 52.396ZM300.918 49.228C298.83 49.228 297.21 48.184 297.21 46.348V46.276C297.21 44.296 298.866 43.108 301.674 43.108C303.402 43.108 304.878 43.432 305.994 43.864V45.16C305.994 47.572 303.798 49.228 300.918 49.228ZM313.551 55.78C313.551 57.004 314.523 57.94 315.711 57.94C316.935 57.94 317.907 57.004 317.907 55.78V49.048C319.239 50.812 321.219 52.396 324.387 52.396C328.887 52.396 333.207 48.832 333.207 42.532V42.46C333.207 36.124 328.851 32.596 324.387 32.596C321.291 32.596 319.311 34.18 317.907 36.16V34.972C317.907 33.748 316.935 32.776 315.711 32.776C314.487 32.776 313.551 33.748 313.551 34.972V55.78ZM323.343 48.616C320.391 48.616 317.799 46.168 317.799 42.532V42.46C317.799 38.824 320.391 36.376 323.343 36.376C326.295 36.376 328.779 38.788 328.779 42.46V42.532C328.779 46.276 326.331 48.616 323.343 48.616ZM335.903 55.78C335.903 57.004 336.875 57.94 338.063 57.94C339.287 57.94 340.259 57.004 340.259 55.78V49.048C341.591 50.812 343.571 52.396 346.739 52.396C351.239 52.396 355.559 48.832 355.559 42.532V42.46C355.559 36.124 351.203 32.596 346.739 32.596C343.643 32.596 341.663 34.18 340.259 36.16V34.972C340.259 33.748 339.287 32.776 338.063 32.776C336.839 32.776 335.903 33.748 335.903 34.972V55.78ZM345.695 48.616C342.743 48.616 340.151 46.168 340.151 42.532V42.46C340.151 38.824 342.743 36.376 345.695 36.376C348.647 36.376 351.131 38.788 351.131 42.46V42.532C351.131 46.276 348.683 48.616 345.695 48.616ZM358.184 28.096C358.184 29.392 359.264 30.256 360.668 30.256C362.072 30.256 363.152 29.392 363.152 28.096V27.88C363.152 26.584 362.072 25.756 360.668 25.756C359.264 25.756 358.184 26.584 358.184 27.88V28.096ZM358.508 50.02C358.508 51.244 359.48 52.18 360.668 52.18C361.892 52.18 362.864 51.244 362.864 50.02V34.972C362.864 33.748 361.892 32.776 360.668 32.776C359.444 32.776 358.508 33.748 358.508 34.972V50.02ZM366.756 50.02C366.756 51.244 367.728 52.18 368.916 52.18C370.14 52.18 371.112 51.244 371.112 50.02V41.272C371.112 38.32 372.876 36.556 375.396 36.556C377.988 36.556 379.464 38.248 379.464 41.2V50.02C379.464 51.244 380.436 52.18 381.66 52.18C382.884 52.18 383.82 51.244 383.82 50.02V39.868C383.82 35.476 381.336 32.596 377.052 32.596C374.1 32.596 372.336 34.144 371.112 35.908V34.972C371.112 33.748 370.14 32.776 368.916 32.776C367.692 32.776 366.756 33.748 366.756 34.972V50.02ZM395.741 57.832C399.161 57.832 401.825 57.004 403.553 55.276C405.137 53.692 405.965 51.316 405.965 48.112V34.972C405.965 33.748 404.993 32.776 403.769 32.776C402.581 32.776 401.609 33.748 401.609 34.936V35.836C400.133 34.072 398.153 32.596 394.949 32.596C390.521 32.596 386.309 35.908 386.309 41.524V41.596C386.309 47.176 390.485 50.488 394.949 50.488C398.081 50.488 400.061 49.048 401.645 46.996V48.472C401.645 52.288 399.521 54.304 395.633 54.304C393.437 54.304 391.529 53.764 389.801 52.792C389.585 52.684 389.333 52.612 389.009 52.612C388.001 52.612 387.173 53.44 387.173 54.412C387.173 55.24 387.641 55.852 388.397 56.14C390.701 57.256 393.077 57.832 395.741 57.832ZM396.101 46.78C393.113 46.78 390.701 44.656 390.701 41.56V41.488C390.701 38.356 393.077 36.268 396.101 36.268C399.125 36.268 401.681 38.392 401.681 41.488V41.56C401.681 44.656 399.125 46.78 396.101 46.78ZM419.13 49.984C419.13 51.208 420.102 52.18 421.362 52.18C422.586 52.18 423.558 51.208 423.558 49.984V43.9H428.562C434.106 43.9 438.642 40.948 438.642 35.296V35.224C438.642 30.148 434.97 26.8 429.066 26.8H421.362C420.102 26.8 419.13 27.772 419.13 29.032V49.984ZM423.558 39.904V30.832H428.706C432.018 30.832 434.142 32.38 434.142 35.332V35.404C434.142 38.032 432.054 39.904 428.706 39.904H423.558ZM449.733 52.432C455.601 52.432 459.921 47.932 459.921 42.532V42.46C459.921 37.024 455.637 32.596 449.805 32.596C443.973 32.596 439.653 37.096 439.653 42.532V42.604C439.653 48.004 443.937 52.432 449.733 52.432ZM449.805 48.616C446.421 48.616 444.009 45.844 444.009 42.532V42.46C444.009 39.148 446.241 36.412 449.733 36.412C453.153 36.412 455.565 39.184 455.565 42.532V42.604C455.565 45.88 453.333 48.616 449.805 48.616ZM471.593 52.432C477.461 52.432 481.781 47.932 481.781 42.532V42.46C481.781 37.024 477.497 32.596 471.665 32.596C465.833 32.596 461.513 37.096 461.513 42.532V42.604C461.513 48.004 465.797 52.432 471.593 52.432ZM471.665 48.616C468.281 48.616 465.869 45.844 465.869 42.532V42.46C465.869 39.148 468.101 36.412 471.593 36.412C475.013 36.412 477.425 39.184 477.425 42.532V42.604C477.425 45.88 475.193 48.616 471.665 48.616ZM484.669 50.02C484.669 51.244 485.641 52.18 486.829 52.18C488.053 52.18 489.025 51.244 489.025 50.02V27.7C489.025 26.512 488.053 25.54 486.829 25.54C485.605 25.54 484.669 26.512 484.669 27.7V50.02ZM499.434 52.36C503.394 52.36 506.49 50.38 506.49 46.384V46.312C506.49 42.892 503.358 41.632 500.586 40.768C498.354 40.048 496.302 39.472 496.302 38.068V37.996C496.302 36.916 497.274 36.124 498.966 36.124C500.298 36.124 501.882 36.628 503.43 37.42C503.718 37.564 503.934 37.636 504.294 37.636C505.302 37.636 506.094 36.88 506.094 35.872C506.094 35.116 505.662 34.54 505.05 34.216C503.214 33.244 501.09 32.668 499.074 32.668C495.294 32.668 492.306 34.864 492.306 38.464V38.536C492.306 42.172 495.438 43.324 498.246 44.116C500.478 44.8 502.494 45.304 502.494 46.78V46.852C502.494 48.112 501.414 48.904 499.542 48.904C497.814 48.904 495.906 48.292 494.07 47.068C493.818 46.924 493.494 46.816 493.134 46.816C492.126 46.816 491.37 47.608 491.37 48.58C491.37 49.3 491.73 49.84 492.198 50.092C494.394 51.604 497.022 52.36 499.434 52.36Z" fill="black"/>
<path d="M20.24 44.768C20.24 46.028 21.212 47 22.472 47H36.08C37.196 47 38.096 46.1 38.096 44.984C38.096 43.868 37.196 42.968 36.08 42.968H24.668V23.816C24.668 22.592 23.696 21.62 22.472 21.62C21.212 21.62 20.24 22.592 20.24 23.816V44.768ZM40.1531 23.096C40.1531 24.392 41.2331 25.256 42.6371 25.256C44.0411 25.256 45.1211 24.392 45.1211 23.096V22.88C45.1211 21.584 44.0411 20.756 42.6371 20.756C41.2331 20.756 40.1531 21.584 40.1531 22.88V23.096ZM40.4771 45.02C40.4771 46.244 41.4491 47.18 42.6371 47.18C43.8611 47.18 44.8331 46.244 44.8331 45.02V29.972C44.8331 28.748 43.8611 27.776 42.6371 27.776C41.4131 27.776 40.4771 28.748 40.4771 29.972V45.02ZM67.4098 29.972C67.4098 28.748 66.4378 27.776 65.2138 27.776C64.0258 27.776 63.0538 28.748 63.0538 29.936V30.944C61.6858 29.144 59.7058 27.596 56.5738 27.596C52.0378 27.596 47.7538 31.16 47.7538 37.46V37.532C47.7538 43.832 52.1098 47.396 56.5738 47.396C59.6698 47.396 61.6498 45.812 63.0538 43.832V50.78C63.0538 52.004 64.0258 52.94 65.2498 52.94C66.4378 52.94 67.4098 52.004 67.4098 50.78V29.972ZM57.6178 31.376C60.5338 31.376 63.1258 33.788 63.1258 37.46V37.532C63.1258 41.168 60.5338 43.616 57.6178 43.616C54.6658 43.616 52.1458 41.204 52.1458 37.532V37.46C52.1458 33.68 54.6298 31.376 57.6178 31.376ZM87.9622 29.972C87.9622 28.748 86.9542 27.776 85.7662 27.776C84.5422 27.776 83.5702 28.748 83.5702 29.972V38.72C83.5702 41.672 81.8062 43.4 79.2862 43.4C76.6942 43.4 75.2182 41.744 75.2182 38.792V29.972C75.2182 28.748 74.2462 27.776 73.0222 27.776C71.8342 27.776 70.8622 28.748 70.8622 29.972V40.088C70.8622 44.516 73.3462 47.396 77.6302 47.396C80.5822 47.396 82.3462 45.848 83.5702 44.048V45.02C83.5702 46.244 84.5782 47.18 85.7662 47.18C86.9902 47.18 87.9622 46.208 87.9622 45.02V29.972ZM91.5304 23.096C91.5304 24.392 92.6104 25.256 94.0144 25.256C95.4184 25.256 96.4984 24.392 96.4984 23.096V22.88C96.4984 21.584 95.4184 20.756 94.0144 20.756C92.6104 20.756 91.5304 21.584 91.5304 22.88V23.096ZM91.8544 45.02C91.8544 46.244 92.8264 47.18 94.0144 47.18C95.2384 47.18 96.2104 46.244 96.2104 45.02V29.972C96.2104 28.748 95.2384 27.776 94.0144 27.776C92.7904 27.776 91.8544 28.748 91.8544 29.972V45.02ZM118.787 22.7C118.787 21.476 117.815 20.54 116.591 20.54C115.403 20.54 114.431 21.476 114.431 22.7V30.944C113.063 29.144 111.083 27.596 107.951 27.596C103.415 27.596 99.1312 31.16 99.1312 37.46V37.532C99.1312 43.832 103.487 47.396 107.951 47.396C111.047 47.396 113.027 45.812 114.431 43.832V45.02C114.431 46.244 115.403 47.18 116.627 47.18C117.815 47.18 118.787 46.244 118.787 45.02V22.7ZM108.995 31.376C111.911 31.376 114.503 33.788 114.503 37.46V37.532C114.503 41.168 111.911 43.616 108.995 43.616C106.043 43.616 103.523 41.204 103.523 37.532V37.46C103.523 33.68 106.007 31.376 108.995 31.376ZM122.384 23.096C122.384 24.392 123.464 25.256 124.868 25.256C126.272 25.256 127.352 24.392 127.352 23.096V22.88C127.352 21.584 126.272 20.756 124.868 20.756C123.464 20.756 122.384 21.584 122.384 22.88V23.096ZM122.708 45.02C122.708 46.244 123.68 47.18 124.868 47.18C126.092 47.18 127.064 46.244 127.064 45.02V29.972C127.064 28.748 126.092 27.776 124.868 27.776C123.644 27.776 122.708 28.748 122.708 29.972V45.02ZM137.328 47.324C138.48 47.324 139.38 47.144 140.316 46.82C140.928 46.568 141.468 45.92 141.468 45.128C141.468 44.12 140.604 43.328 139.632 43.328C139.488 43.328 139.056 43.436 138.552 43.436C137.076 43.436 136.212 42.752 136.212 41.06V31.736H139.632C140.676 31.736 141.54 30.908 141.54 29.864C141.54 28.82 140.676 27.992 139.632 27.992H136.212V24.752C136.212 23.564 135.24 22.592 134.052 22.592C132.828 22.592 131.856 23.564 131.856 24.752V27.992H131.136C130.092 27.992 129.264 28.82 129.264 29.864C129.264 30.908 130.092 31.736 131.136 31.736H131.856V41.744C131.856 45.92 134.124 47.324 137.328 47.324ZM147.413 52.868C150.473 52.868 152.201 51.428 153.821 47.54L160.769 30.872C160.841 30.656 160.949 30.188 160.949 29.828C160.949 28.676 160.013 27.776 158.861 27.776C157.745 27.776 157.133 28.532 156.773 29.432L152.021 42.068L146.909 29.432C146.513 28.424 145.901 27.776 144.785 27.776C143.561 27.776 142.625 28.676 142.625 29.9C142.625 30.188 142.733 30.62 142.877 30.944L149.933 46.712L149.789 47.108C149.069 48.584 148.385 49.124 147.089 49.124C146.477 49.124 146.081 49.016 145.577 48.872C145.361 48.8 145.145 48.728 144.785 48.728C143.849 48.728 143.021 49.448 143.021 50.528C143.021 51.572 143.741 52.112 144.389 52.328C145.289 52.688 146.189 52.868 147.413 52.868Z" fill="#00E59D"/>
<path d="M172.783 44.768C172.783 46.028 173.755 47 175.015 47H184.447C190.063 47 193.771 44.588 193.771 40.088V40.016C193.771 36.596 191.719 34.904 188.767 33.896C190.639 32.924 192.367 31.304 192.367 28.28V28.208C192.367 26.516 191.791 25.148 190.675 24.032C189.235 22.592 186.967 21.8 184.087 21.8H175.015C173.755 21.8 172.783 22.772 172.783 24.032V44.768ZM177.139 32.42V25.724H183.511C186.355 25.724 187.939 26.948 187.939 28.928V29C187.939 31.304 186.031 32.42 183.187 32.42H177.139ZM177.139 43.076V36.164H184.159C187.651 36.164 189.343 37.424 189.343 39.548V39.62C189.343 41.888 187.507 43.076 184.483 43.076H177.139ZM205.495 47.432C211.363 47.432 215.683 42.932 215.683 37.532V37.46C215.683 32.024 211.399 27.596 205.567 27.596C199.735 27.596 195.415 32.096 195.415 37.532V37.604C195.415 43.004 199.699 47.432 205.495 47.432ZM205.567 43.616C202.183 43.616 199.771 40.844 199.771 37.532V37.46C199.771 34.148 202.003 31.412 205.495 31.412C208.915 31.412 211.327 34.184 211.327 37.532V37.604C211.327 40.88 209.095 43.616 205.567 43.616ZM227.356 47.432C233.224 47.432 237.544 42.932 237.544 37.532V37.46C237.544 32.024 233.26 27.596 227.428 27.596C221.596 27.596 217.276 32.096 217.276 37.532V37.604C217.276 43.004 221.56 47.432 227.356 47.432ZM227.428 43.616C224.044 43.616 221.632 40.844 221.632 37.532V37.46C221.632 34.148 223.864 31.412 227.356 31.412C230.776 31.412 233.188 34.184 233.188 37.532V37.604C233.188 40.88 230.956 43.616 227.428 43.616ZM246.552 47.324C247.704 47.324 248.604 47.144 249.54 46.82C250.152 46.568 250.692 45.92 250.692 45.128C250.692 44.12 249.828 43.328 248.856 43.328C248.712 43.328 248.28 43.436 247.776 43.436C246.3 43.436 245.436 42.752 245.436 41.06V31.736H248.856C249.9 31.736 250.764 30.908 250.764 29.864C250.764 28.82 249.9 27.992 248.856 27.992H245.436V24.752C245.436 23.564 244.464 22.592 243.276 22.592C242.052 22.592 241.08 23.564 241.08 24.752V27.992H240.36C239.316 27.992 238.488 28.82 238.488 29.864C238.488 30.908 239.316 31.736 240.36 31.736H241.08V41.744C241.08 45.92 243.348 47.324 246.552 47.324ZM259.697 47.36C263.657 47.36 266.753 45.38 266.753 41.384V41.312C266.753 37.892 263.621 36.632 260.849 35.768C258.617 35.048 256.565 34.472 256.565 33.068V32.996C256.565 31.916 257.537 31.124 259.229 31.124C260.561 31.124 262.145 31.628 263.693 32.42C263.981 32.564 264.197 32.636 264.557 32.636C265.565 32.636 266.357 31.88 266.357 30.872C266.357 30.116 265.925 29.54 265.313 29.216C263.477 28.244 261.353 27.668 259.337 27.668C255.557 27.668 252.569 29.864 252.569 33.464V33.536C252.569 37.172 255.701 38.324 258.509 39.116C260.741 39.8 262.757 40.304 262.757 41.78V41.852C262.757 43.112 261.677 43.904 259.805 43.904C258.077 43.904 256.169 43.292 254.333 42.068C254.081 41.924 253.757 41.816 253.397 41.816C252.389 41.816 251.633 42.608 251.633 43.58C251.633 44.3 251.993 44.84 252.461 45.092C254.657 46.604 257.285 47.36 259.697 47.36ZM275.436 47.324C276.588 47.324 277.488 47.144 278.424 46.82C279.036 46.568 279.576 45.92 279.576 45.128C279.576 44.12 278.712 43.328 277.74 43.328C277.596 43.328 277.164 43.436 276.66 43.436C275.184 43.436 274.32 42.752 274.32 41.06V31.736H277.74C278.784 31.736 279.648 30.908 279.648 29.864C279.648 28.82 278.784 27.992 277.74 27.992H274.32V24.752C274.32 23.564 273.348 22.592 272.16 22.592C270.936 22.592 269.964 23.564 269.964 24.752V27.992H269.244C268.2 27.992 267.372 28.82 267.372 29.864C267.372 30.908 268.2 31.736 269.244 31.736H269.964V41.744C269.964 45.92 272.232 47.324 275.436 47.324ZM282.065 45.02C282.065 46.244 283.037 47.18 284.225 47.18C285.449 47.18 286.421 46.208 286.421 45.02V39.404C286.421 34.904 288.545 32.528 291.641 31.988C292.613 31.808 293.369 31.052 293.369 29.9C293.369 28.64 292.577 27.74 291.209 27.74C289.301 27.74 287.429 29.54 286.421 31.916V29.972C286.421 28.748 285.449 27.776 284.225 27.776C283.001 27.776 282.065 28.748 282.065 29.972V45.02ZM299.694 47.396C302.61 47.396 304.59 46.172 305.886 44.624V45.344C305.886 46.316 306.75 47.18 308.01 47.18C309.198 47.18 310.134 46.28 310.134 45.092V35.732C310.134 33.248 309.486 31.232 308.082 29.864C306.75 28.496 304.626 27.74 301.782 27.74C299.298 27.74 297.462 28.172 295.662 28.856C295.014 29.108 294.474 29.792 294.474 30.584C294.474 31.592 295.302 32.384 296.31 32.384C296.526 32.384 296.742 32.348 296.994 32.276C298.182 31.808 299.55 31.52 301.206 31.52C304.266 31.52 305.922 32.96 305.922 35.66V36.128C304.446 35.66 302.934 35.336 300.81 35.336C296.166 35.336 292.962 37.352 292.962 41.456V41.528C292.962 45.344 296.13 47.396 299.694 47.396ZM300.918 44.228C298.83 44.228 297.21 43.184 297.21 41.348V41.276C297.21 39.296 298.866 38.108 301.674 38.108C303.402 38.108 304.878 38.432 305.994 38.864V40.16C305.994 42.572 303.798 44.228 300.918 44.228ZM313.551 50.78C313.551 52.004 314.523 52.94 315.711 52.94C316.935 52.94 317.907 52.004 317.907 50.78V44.048C319.239 45.812 321.219 47.396 324.387 47.396C328.887 47.396 333.207 43.832 333.207 37.532V37.46C333.207 31.124 328.851 27.596 324.387 27.596C321.291 27.596 319.311 29.18 317.907 31.16V29.972C317.907 28.748 316.935 27.776 315.711 27.776C314.487 27.776 313.551 28.748 313.551 29.972V50.78ZM323.343 43.616C320.391 43.616 317.799 41.168 317.799 37.532V37.46C317.799 33.824 320.391 31.376 323.343 31.376C326.295 31.376 328.779 33.788 328.779 37.46V37.532C328.779 41.276 326.331 43.616 323.343 43.616ZM335.903 50.78C335.903 52.004 336.875 52.94 338.063 52.94C339.287 52.94 340.259 52.004 340.259 50.78V44.048C341.591 45.812 343.571 47.396 346.739 47.396C351.239 47.396 355.559 43.832 355.559 37.532V37.46C355.559 31.124 351.203 27.596 346.739 27.596C343.643 27.596 341.663 29.18 340.259 31.16V29.972C340.259 28.748 339.287 27.776 338.063 27.776C336.839 27.776 335.903 28.748 335.903 29.972V50.78ZM345.695 43.616C342.743 43.616 340.151 41.168 340.151 37.532V37.46C340.151 33.824 342.743 31.376 345.695 31.376C348.647 31.376 351.131 33.788 351.131 37.46V37.532C351.131 41.276 348.683 43.616 345.695 43.616ZM358.184 23.096C358.184 24.392 359.264 25.256 360.668 25.256C362.072 25.256 363.152 24.392 363.152 23.096V22.88C363.152 21.584 362.072 20.756 360.668 20.756C359.264 20.756 358.184 21.584 358.184 22.88V23.096ZM358.508 45.02C358.508 46.244 359.48 47.18 360.668 47.18C361.892 47.18 362.864 46.244 362.864 45.02V29.972C362.864 28.748 361.892 27.776 360.668 27.776C359.444 27.776 358.508 28.748 358.508 29.972V45.02ZM366.756 45.02C366.756 46.244 367.728 47.18 368.916 47.18C370.14 47.18 371.112 46.244 371.112 45.02V36.272C371.112 33.32 372.876 31.556 375.396 31.556C377.988 31.556 379.464 33.248 379.464 36.2V45.02C379.464 46.244 380.436 47.18 381.66 47.18C382.884 47.18 383.82 46.244 383.82 45.02V34.868C383.82 30.476 381.336 27.596 377.052 27.596C374.1 27.596 372.336 29.144 371.112 30.908V29.972C371.112 28.748 370.14 27.776 368.916 27.776C367.692 27.776 366.756 28.748 366.756 29.972V45.02ZM395.741 52.832C399.161 52.832 401.825 52.004 403.553 50.276C405.137 48.692 405.965 46.316 405.965 43.112V29.972C405.965 28.748 404.993 27.776 403.769 27.776C402.581 27.776 401.609 28.748 401.609 29.936V30.836C400.133 29.072 398.153 27.596 394.949 27.596C390.521 27.596 386.309 30.908 386.309 36.524V36.596C386.309 42.176 390.485 45.488 394.949 45.488C398.081 45.488 400.061 44.048 401.645 41.996V43.472C401.645 47.288 399.521 49.304 395.633 49.304C393.437 49.304 391.529 48.764 389.801 47.792C389.585 47.684 389.333 47.612 389.009 47.612C388.001 47.612 387.173 48.44 387.173 49.412C387.173 50.24 387.641 50.852 388.397 51.14C390.701 52.256 393.077 52.832 395.741 52.832ZM396.101 41.78C393.113 41.78 390.701 39.656 390.701 36.56V36.488C390.701 33.356 393.077 31.268 396.101 31.268C399.125 31.268 401.681 33.392 401.681 36.488V36.56C401.681 39.656 399.125 41.78 396.101 41.78ZM419.13 44.984C419.13 46.208 420.102 47.18 421.362 47.18C422.586 47.18 423.558 46.208 423.558 44.984V38.9H428.562C434.106 38.9 438.642 35.948 438.642 30.296V30.224C438.642 25.148 434.97 21.8 429.066 21.8H421.362C420.102 21.8 419.13 22.772 419.13 24.032V44.984ZM423.558 34.904V25.832H428.706C432.018 25.832 434.142 27.38 434.142 30.332V30.404C434.142 33.032 432.054 34.904 428.706 34.904H423.558ZM449.733 47.432C455.601 47.432 459.921 42.932 459.921 37.532V37.46C459.921 32.024 455.637 27.596 449.805 27.596C443.973 27.596 439.653 32.096 439.653 37.532V37.604C439.653 43.004 443.937 47.432 449.733 47.432ZM449.805 43.616C446.421 43.616 444.009 40.844 444.009 37.532V37.46C444.009 34.148 446.241 31.412 449.733 31.412C453.153 31.412 455.565 34.184 455.565 37.532V37.604C455.565 40.88 453.333 43.616 449.805 43.616ZM471.593 47.432C477.461 47.432 481.781 42.932 481.781 37.532V37.46C481.781 32.024 477.497 27.596 471.665 27.596C465.833 27.596 461.513 32.096 461.513 37.532V37.604C461.513 43.004 465.797 47.432 471.593 47.432ZM471.665 43.616C468.281 43.616 465.869 40.844 465.869 37.532V37.46C465.869 34.148 468.101 31.412 471.593 31.412C475.013 31.412 477.425 34.184 477.425 37.532V37.604C477.425 40.88 475.193 43.616 471.665 43.616ZM484.669 45.02C484.669 46.244 485.641 47.18 486.829 47.18C488.053 47.18 489.025 46.244 489.025 45.02V22.7C489.025 21.512 488.053 20.54 486.829 20.54C485.605 20.54 484.669 21.512 484.669 22.7V45.02ZM499.434 47.36C503.394 47.36 506.49 45.38 506.49 41.384V41.312C506.49 37.892 503.358 36.632 500.586 35.768C498.354 35.048 496.302 34.472 496.302 33.068V32.996C496.302 31.916 497.274 31.124 498.966 31.124C500.298 31.124 501.882 31.628 503.43 32.42C503.718 32.564 503.934 32.636 504.294 32.636C505.302 32.636 506.094 31.88 506.094 30.872C506.094 30.116 505.662 29.54 505.05 29.216C503.214 28.244 501.09 27.668 499.074 27.668C495.294 27.668 492.306 29.864 492.306 33.464V33.536C492.306 37.172 495.438 38.324 498.246 39.116C500.478 39.8 502.494 40.304 502.494 41.78V41.852C502.494 43.112 501.414 43.904 499.542 43.904C497.814 43.904 495.906 43.292 494.07 42.068C493.818 41.924 493.494 41.816 493.134 41.816C492.126 41.816 491.37 42.608 491.37 43.58C491.37 44.3 491.73 44.84 492.198 45.092C494.394 46.604 497.022 47.36 499.434 47.36Z" fill="#FF0000"/>
<g filter="url(#filter0)">
<path d="M20.24 44.768C20.24 46.028 21.212 47 22.472 47H36.08C37.196 47 38.096 46.1 38.096 44.984C38.096 43.868 37.196 42.968 36.08 42.968H24.668V23.816C24.668 22.592 23.696 21.62 22.472 21.62C21.212 21.62 20.24 22.592 20.24 23.816V44.768ZM40.1531 23.096C40.1531 24.392 41.2331 25.256 42.6371 25.256C44.0411 25.256 45.1211 24.392 45.1211 23.096V22.88C45.1211 21.584 44.0411 20.756 42.6371 20.756C41.2331 20.756 40.1531 21.584 40.1531 22.88V23.096ZM40.4771 45.02C40.4771 46.244 41.4491 47.18 42.6371 47.18C43.8611 47.18 44.8331 46.244 44.8331 45.02V29.972C44.8331 28.748 43.8611 27.776 42.6371 27.776C41.4131 27.776 40.4771 28.748 40.4771 29.972V45.02ZM67.4098 29.972C67.4098 28.748 66.4378 27.776 65.2138 27.776C64.0258 27.776 63.0538 28.748 63.0538 29.936V30.944C61.6858 29.144 59.7058 27.596 56.5738 27.596C52.0378 27.596 47.7538 31.16 47.7538 37.46V37.532C47.7538 43.832 52.1098 47.396 56.5738 47.396C59.6698 47.396 61.6498 45.812 63.0538 43.832V50.78C63.0538 52.004 64.0258 52.94 65.2498 52.94C66.4378 52.94 67.4098 52.004 67.4098 50.78V29.972ZM57.6178 31.376C60.5338 31.376 63.1258 33.788 63.1258 37.46V37.532C63.1258 41.168 60.5338 43.616 57.6178 43.616C54.6658 43.616 52.1458 41.204 52.1458 37.532V37.46C52.1458 33.68 54.6298 31.376 57.6178 31.376ZM87.9622 29.972C87.9622 28.748 86.9542 27.776 85.7662 27.776C84.5422 27.776 83.5702 28.748 83.5702 29.972V38.72C83.5702 41.672 81.8062 43.4 79.2862 43.4C76.6942 43.4 75.2182 41.744 75.2182 38.792V29.972C75.2182 28.748 74.2462 27.776 73.0222 27.776C71.8342 27.776 70.8622 28.748 70.8622 29.972V40.088C70.8622 44.516 73.3462 47.396 77.6302 47.396C80.5822 47.396 82.3462 45.848 83.5702 44.048V45.02C83.5702 46.244 84.5782 47.18 85.7662 47.18C86.9902 47.18 87.9622 46.208 87.9622 45.02V29.972ZM91.5304 23.096C91.5304 24.392 92.6104 25.256 94.0144 25.256C95.4184 25.256 96.4984 24.392 96.4984 23.096V22.88C96.4984 21.584 95.4184 20.756 94.0144 20.756C92.6104 20.756 91.5304 21.584 91.5304 22.88V23.096ZM91.8544 45.02C91.8544 46.244 92.8264 47.18 94.0144 47.18C95.2384 47.18 96.2104 46.244 96.2104 45.02V29.972C96.2104 28.748 95.2384 27.776 94.0144 27.776C92.7904 27.776 91.8544 28.748 91.8544 29.972V45.02ZM118.787 22.7C118.787 21.476 117.815 20.54 116.591 20.54C115.403 20.54 114.431 21.476 114.431 22.7V30.944C113.063 29.144 111.083 27.596 107.951 27.596C103.415 27.596 99.1312 31.16 99.1312 37.46V37.532C99.1312 43.832 103.487 47.396 107.951 47.396C111.047 47.396 113.027 45.812 114.431 43.832V45.02C114.431 46.244 115.403 47.18 116.627 47.18C117.815 47.18 118.787 46.244 118.787 45.02V22.7ZM108.995 31.376C111.911 31.376 114.503 33.788 114.503 37.46V37.532C114.503 41.168 111.911 43.616 108.995 43.616C106.043 43.616 103.523 41.204 103.523 37.532V37.46C103.523 33.68 106.007 31.376 108.995 31.376ZM122.384 23.096C122.384 24.392 123.464 25.256 124.868 25.256C126.272 25.256 127.352 24.392 127.352 23.096V22.88C127.352 21.584 126.272 20.756 124.868 20.756C123.464 20.756 122.384 21.584 122.384 22.88V23.096ZM122.708 45.02C122.708 46.244 123.68 47.18 124.868 47.18C126.092 47.18 127.064 46.244 127.064 45.02V29.972C127.064 28.748 126.092 27.776 124.868 27.776C123.644 27.776 122.708 28.748 122.708 29.972V45.02ZM137.328 47.324C138.48 47.324 139.38 47.144 140.316 46.82C140.928 46.568 141.468 45.92 141.468 45.128C141.468 44.12 140.604 43.328 139.632 43.328C139.488 43.328 139.056 43.436 138.552 43.436C137.076 43.436 136.212 42.752 136.212 41.06V31.736H139.632C140.676 31.736 141.54 30.908 141.54 29.864C141.54 28.82 140.676 27.992 139.632 27.992H136.212V24.752C136.212 23.564 135.24 22.592 134.052 22.592C132.828 22.592 131.856 23.564 131.856 24.752V27.992H131.136C130.092 27.992 129.264 28.82 129.264 29.864C129.264 30.908 130.092 31.736 131.136 31.736H131.856V41.744C131.856 45.92 134.124 47.324 137.328 47.324ZM147.413 52.868C150.473 52.868 152.201 51.428 153.821 47.54L160.769 30.872C160.841 30.656 160.949 30.188 160.949 29.828C160.949 28.676 160.013 27.776 158.861 27.776C157.745 27.776 157.133 28.532 156.773 29.432L152.021 42.068L146.909 29.432C146.513 28.424 145.901 27.776 144.785 27.776C143.561 27.776 142.625 28.676 142.625 29.9C142.625 30.188 142.733 30.62 142.877 30.944L149.933 46.712L149.789 47.108C149.069 48.584 148.385 49.124 147.089 49.124C146.477 49.124 146.081 49.016 145.577 48.872C145.361 48.8 145.145 48.728 144.785 48.728C143.849 48.728 143.021 49.448 143.021 50.528C143.021 51.572 143.741 52.112 144.389 52.328C145.289 52.688 146.189 52.868 147.413 52.868Z" fill="#00E59D"/>
<path d="M172.783 44.768C172.783 46.028 173.755 47 175.015 47H184.447C190.063 47 193.771 44.588 193.771 40.088V40.016C193.771 36.596 191.719 34.904 188.767 33.896C190.639 32.924 192.367 31.304 192.367 28.28V28.208C192.367 26.516 191.791 25.148 190.675 24.032C189.235 22.592 186.967 21.8 184.087 21.8H175.015C173.755 21.8 172.783 22.772 172.783 24.032V44.768ZM177.139 32.42V25.724H183.511C186.355 25.724 187.939 26.948 187.939 28.928V29C187.939 31.304 186.031 32.42 183.187 32.42H177.139ZM177.139 43.076V36.164H184.159C187.651 36.164 189.343 37.424 189.343 39.548V39.62C189.343 41.888 187.507 43.076 184.483 43.076H177.139ZM205.495 47.432C211.363 47.432 215.683 42.932 215.683 37.532V37.46C215.683 32.024 211.399 27.596 205.567 27.596C199.735 27.596 195.415 32.096 195.415 37.532V37.604C195.415 43.004 199.699 47.432 205.495 47.432ZM205.567 43.616C202.183 43.616 199.771 40.844 199.771 37.532V37.46C199.771 34.148 202.003 31.412 205.495 31.412C208.915 31.412 211.327 34.184 211.327 37.532V37.604C211.327 40.88 209.095 43.616 205.567 43.616ZM227.356 47.432C233.224 47.432 237.544 42.932 237.544 37.532V37.46C237.544 32.024 233.26 27.596 227.428 27.596C221.596 27.596 217.276 32.096 217.276 37.532V37.604C217.276 43.004 221.56 47.432 227.356 47.432ZM227.428 43.616C224.044 43.616 221.632 40.844 221.632 37.532V37.46C221.632 34.148 223.864 31.412 227.356 31.412C230.776 31.412 233.188 34.184 233.188 37.532V37.604C233.188 40.88 230.956 43.616 227.428 43.616ZM246.552 47.324C247.704 47.324 248.604 47.144 249.54 46.82C250.152 46.568 250.692 45.92 250.692 45.128C250.692 44.12 249.828 43.328 248.856 43.328C248.712 43.328 248.28 43.436 247.776 43.436C246.3 43.436 245.436 42.752 245.436 41.06V31.736H248.856C249.9 31.736 250.764 30.908 250.764 29.864C250.764 28.82 249.9 27.992 248.856 27.992H245.436V24.752C245.436 23.564 244.464 22.592 243.276 22.592C242.052 22.592 241.08 23.564 241.08 24.752V27.992H240.36C239.316 27.992 238.488 28.82 238.488 29.864C238.488 30.908 239.316 31.736 240.36 31.736H241.08V41.744C241.08 45.92 243.348 47.324 246.552 47.324ZM259.697 47.36C263.657 47.36 266.753 45.38 266.753 41.384V41.312C266.753 37.892 263.621 36.632 260.849 35.768C258.617 35.048 256.565 34.472 256.565 33.068V32.996C256.565 31.916 257.537 31.124 259.229 31.124C260.561 31.124 262.145 31.628 263.693 32.42C263.981 32.564 264.197 32.636 264.557 32.636C265.565 32.636 266.357 31.88 266.357 30.872C266.357 30.116 265.925 29.54 265.313 29.216C263.477 28.244 261.353 27.668 259.337 27.668C255.557 27.668 252.569 29.864 252.569 33.464V33.536C252.569 37.172 255.701 38.324 258.509 39.116C260.741 39.8 262.757 40.304 262.757 41.78V41.852C262.757 43.112 261.677 43.904 259.805 43.904C258.077 43.904 256.169 43.292 254.333 42.068C254.081 41.924 253.757 41.816 253.397 41.816C252.389 41.816 251.633 42.608 251.633 43.58C251.633 44.3 251.993 44.84 252.461 45.092C254.657 46.604 257.285 47.36 259.697 47.36ZM275.436 47.324C276.588 47.324 277.488 47.144 278.424 46.82C279.036 46.568 279.576 45.92 279.576 45.128C279.576 44.12 278.712 43.328 277.74 43.328C277.596 43.328 277.164 43.436 276.66 43.436C275.184 43.436 274.32 42.752 274.32 41.06V31.736H277.74C278.784 31.736 279.648 30.908 279.648 29.864C279.648 28.82 278.784 27.992 277.74 27.992H274.32V24.752C274.32 23.564 273.348 22.592 272.16 22.592C270.936 22.592 269.964 23.564 269.964 24.752V27.992H269.244C268.2 27.992 267.372 28.82 267.372 29.864C267.372 30.908 268.2 31.736 269.244 31.736H269.964V41.744C269.964 45.92 272.232 47.324 275.436 47.324ZM282.065 45.02C282.065 46.244 283.037 47.18 284.225 47.18C285.449 47.18 286.421 46.208 286.421 45.02V39.404C286.421 34.904 288.545 32.528 291.641 31.988C292.613 31.808 293.369 31.052 293.369 29.9C293.369 28.64 292.577 27.74 291.209 27.74C289.301 27.74 287.429 29.54 286.421 31.916V29.972C286.421 28.748 285.449 27.776 284.225 27.776C283.001 27.776 282.065 28.748 282.065 29.972V45.02ZM299.694 47.396C302.61 47.396 304.59 46.172 305.886 44.624V45.344C305.886 46.316 306.75 47.18 308.01 47.18C309.198 47.18 310.134 46.28 310.134 45.092V35.732C310.134 33.248 309.486 31.232 308.082 29.864C306.75 28.496 304.626 27.74 301.782 27.74C299.298 27.74 297.462 28.172 295.662 28.856C295.014 29.108 294.474 29.792 294.474 30.584C294.474 31.592 295.302 32.384 296.31 32.384C296.526 32.384 296.742 32.348 296.994 32.276C298.182 31.808 299.55 31.52 301.206 31.52C304.266 31.52 305.922 32.96 305.922 35.66V36.128C304.446 35.66 302.934 35.336 300.81 35.336C296.166 35.336 292.962 37.352 292.962 41.456V41.528C292.962 45.344 296.13 47.396 299.694 47.396ZM300.918 44.228C298.83 44.228 297.21 43.184 297.21 41.348V41.276C297.21 39.296 298.866 38.108 301.674 38.108C303.402 38.108 304.878 38.432 305.994 38.864V40.16C305.994 42.572 303.798 44.228 300.918 44.228ZM313.551 50.78C313.551 52.004 314.523 52.94 315.711 52.94C316.935 52.94 317.907 52.004 317.907 50.78V44.048C319.239 45.812 321.219 47.396 324.387 47.396C328.887 47.396 333.207 43.832 333.207 37.532V37.46C333.207 31.124 328.851 27.596 324.387 27.596C321.291 27.596 319.311 29.18 317.907 31.16V29.972C317.907 28.748 316.935 27.776 315.711 27.776C314.487 27.776 313.551 28.748 313.551 29.972V50.78ZM323.343 43.616C320.391 43.616 317.799 41.168 317.799 37.532V37.46C317.799 33.824 320.391 31.376 323.343 31.376C326.295 31.376 328.779 33.788 328.779 37.46V37.532C328.779 41.276 326.331 43.616 323.343 43.616ZM335.903 50.78C335.903 52.004 336.875 52.94 338.063 52.94C339.287 52.94 340.259 52.004 340.259 50.78V44.048C341.591 45.812 343.571 47.396 346.739 47.396C351.239 47.396 355.559 43.832 355.559 37.532V37.46C355.559 31.124 351.203 27.596 346.739 27.596C343.643 27.596 341.663 29.18 340.259 31.16V29.972C340.259 28.748 339.287 27.776 338.063 27.776C336.839 27.776 335.903 28.748 335.903 29.972V50.78ZM345.695 43.616C342.743 43.616 340.151 41.168 340.151 37.532V37.46C340.151 33.824 342.743 31.376 345.695 31.376C348.647 31.376 351.131 33.788 351.131 37.46V37.532C351.131 41.276 348.683 43.616 345.695 43.616ZM358.184 23.096C358.184 24.392 359.264 25.256 360.668 25.256C362.072 25.256 363.152 24.392 363.152 23.096V22.88C363.152 21.584 362.072 20.756 360.668 20.756C359.264 20.756 358.184 21.584 358.184 22.88V23.096ZM358.508 45.02C358.508 46.244 359.48 47.18 360.668 47.18C361.892 47.18 362.864 46.244 362.864 45.02V29.972C362.864 28.748 361.892 27.776 360.668 27.776C359.444 27.776 358.508 28.748 358.508 29.972V45.02ZM366.756 45.02C366.756 46.244 367.728 47.18 368.916 47.18C370.14 47.18 371.112 46.244 371.112 45.02V36.272C371.112 33.32 372.876 31.556 375.396 31.556C377.988 31.556 379.464 33.248 379.464 36.2V45.02C379.464 46.244 380.436 47.18 381.66 47.18C382.884 47.18 383.82 46.244 383.82 45.02V34.868C383.82 30.476 381.336 27.596 377.052 27.596C374.1 27.596 372.336 29.144 371.112 30.908V29.972C371.112 28.748 370.14 27.776 368.916 27.776C367.692 27.776 366.756 28.748 366.756 29.972V45.02ZM395.741 52.832C399.161 52.832 401.825 52.004 403.553 50.276C405.137 48.692 405.965 46.316 405.965 43.112V29.972C405.965 28.748 404.993 27.776 403.769 27.776C402.581 27.776 401.609 28.748 401.609 29.936V30.836C400.133 29.072 398.153 27.596 394.949 27.596C390.521 27.596 386.309 30.908 386.309 36.524V36.596C386.309 42.176 390.485 45.488 394.949 45.488C398.081 45.488 400.061 44.048 401.645 41.996V43.472C401.645 47.288 399.521 49.304 395.633 49.304C393.437 49.304 391.529 48.764 389.801 47.792C389.585 47.684 389.333 47.612 389.009 47.612C388.001 47.612 387.173 48.44 387.173 49.412C387.173 50.24 387.641 50.852 388.397 51.14C390.701 52.256 393.077 52.832 395.741 52.832ZM396.101 41.78C393.113 41.78 390.701 39.656 390.701 36.56V36.488C390.701 33.356 393.077 31.268 396.101 31.268C399.125 31.268 401.681 33.392 401.681 36.488V36.56C401.681 39.656 399.125 41.78 396.101 41.78ZM419.13 44.984C419.13 46.208 420.102 47.18 421.362 47.18C422.586 47.18 423.558 46.208 423.558 44.984V38.9H428.562C434.106 38.9 438.642 35.948 438.642 30.296V30.224C438.642 25.148 434.97 21.8 429.066 21.8H421.362C420.102 21.8 419.13 22.772 419.13 24.032V44.984ZM423.558 34.904V25.832H428.706C432.018 25.832 434.142 27.38 434.142 30.332V30.404C434.142 33.032 432.054 34.904 428.706 34.904H423.558ZM449.733 47.432C455.601 47.432 459.921 42.932 459.921 37.532V37.46C459.921 32.024 455.637 27.596 449.805 27.596C443.973 27.596 439.653 32.096 439.653 37.532V37.604C439.653 43.004 443.937 47.432 449.733 47.432ZM449.805 43.616C446.421 43.616 444.009 40.844 444.009 37.532V37.46C444.009 34.148 446.241 31.412 449.733 31.412C453.153 31.412 455.565 34.184 455.565 37.532V37.604C455.565 40.88 453.333 43.616 449.805 43.616ZM471.593 47.432C477.461 47.432 481.781 42.932 481.781 37.532V37.46C481.781 32.024 477.497 27.596 471.665 27.596C465.833 27.596 461.513 32.096 461.513 37.532V37.604C461.513 43.004 465.797 47.432 471.593 47.432ZM471.665 43.616C468.281 43.616 465.869 40.844 465.869 37.532V37.46C465.869 34.148 468.101 31.412 471.593 31.412C475.013 31.412 477.425 34.184 477.425 37.532V37.604C477.425 40.88 475.193 43.616 471.665 43.616ZM484.669 45.02C484.669 46.244 485.641 47.18 486.829 47.18C488.053 47.18 489.025 46.244 489.025 45.02V22.7C489.025 21.512 488.053 20.54 486.829 20.54C485.605 20.54 484.669 21.512 484.669 22.7V45.02ZM499.434 47.36C503.394 47.36 506.49 45.38 506.49 41.384V41.312C506.49 37.892 503.358 36.632 500.586 35.768C498.354 35.048 496.302 34.472 496.302 33.068V32.996C496.302 31.916 497.274 31.124 498.966 31.124C500.298 31.124 501.882 31.628 503.43 32.42C503.718 32.564 503.934 32.636 504.294 32.636C505.302 32.636 506.094 31.88 506.094 30.872C506.094 30.116 505.662 29.54 505.05 29.216C503.214 28.244 501.09 27.668 499.074 27.668C495.294 27.668 492.306 29.864 492.306 33.464V33.536C492.306 37.172 495.438 38.324 498.246 39.116C500.478 39.8 502.494 40.304 502.494 41.78V41.852C502.494 43.112 501.414 43.904 499.542 43.904C497.814 43.904 495.906 43.292 494.07 42.068C493.818 41.924 493.494 41.816 493.134 41.816C492.126 41.816 491.37 42.608 491.37 43.58C491.37 44.3 491.73 44.84 492.198 45.092C494.394 46.604 497.022 47.36 499.434 47.36Z" fill="#FF0000"/>
</g>
<defs>
<filter id="filter0" x="0.240234" y="0.540039" width="526.25" height="72.4004" filterUnits="userSpaceOnUse" color-interpolation-filters="sRGB">
<feFlood flood-opacity="0" result="BackgroundImageFix"/>
<feBlend mode="normal" in="SourceGraphic" in2="BackgroundImageFix" result="shape"/>
<feGaussianBlur stdDeviation="10" result="effect1_foregroundBlur_1107_101"/>
</filter>
</defs>
</svg>
