<svg width="491" height="73" viewBox="0 0 491 73" fill="none" xmlns="http://www.w3.org/2000/svg">
<path d="M20.24 49.768C20.24 51.028 21.212 52 22.472 52H36.08C37.196 52 38.096 51.1 38.096 49.984C38.096 48.868 37.196 47.968 36.08 47.968H24.668V28.816C24.668 27.592 23.696 26.62 22.472 26.62C21.212 26.62 20.24 27.592 20.24 28.816V49.768ZM40.1531 28.096C40.1531 29.392 41.2331 30.256 42.6371 30.256C44.0411 30.256 45.1211 29.392 45.1211 28.096V27.88C45.1211 26.584 44.0411 25.756 42.6371 25.756C41.2331 25.756 40.1531 26.584 40.1531 27.88V28.096ZM40.4771 50.02C40.4771 51.244 41.4491 52.18 42.6371 52.18C43.8611 52.18 44.8331 51.244 44.8331 50.02V34.972C44.8331 33.748 43.8611 32.776 42.6371 32.776C41.4131 32.776 40.4771 33.748 40.4771 34.972V50.02ZM67.4098 34.972C67.4098 33.748 66.4378 32.776 65.2138 32.776C64.0258 32.776 63.0538 33.748 63.0538 34.936V35.944C61.6858 34.144 59.7058 32.596 56.5738 32.596C52.0378 32.596 47.7538 36.16 47.7538 42.46V42.532C47.7538 48.832 52.1098 52.396 56.5738 52.396C59.6698 52.396 61.6498 50.812 63.0538 48.832V55.78C63.0538 57.004 64.0258 57.94 65.2498 57.94C66.4378 57.94 67.4098 57.004 67.4098 55.78V34.972ZM57.6178 36.376C60.5338 36.376 63.1258 38.788 63.1258 42.46V42.532C63.1258 46.168 60.5338 48.616 57.6178 48.616C54.6658 48.616 52.1458 46.204 52.1458 42.532V42.46C52.1458 38.68 54.6298 36.376 57.6178 36.376ZM87.9622 34.972C87.9622 33.748 86.9542 32.776 85.7662 32.776C84.5422 32.776 83.5702 33.748 83.5702 34.972V43.72C83.5702 46.672 81.8062 48.4 79.2862 48.4C76.6942 48.4 75.2182 46.744 75.2182 43.792V34.972C75.2182 33.748 74.2462 32.776 73.0222 32.776C71.8342 32.776 70.8622 33.748 70.8622 34.972V45.088C70.8622 49.516 73.3462 52.396 77.6302 52.396C80.5822 52.396 82.3462 50.848 83.5702 49.048V50.02C83.5702 51.244 84.5782 52.18 85.7662 52.18C86.9902 52.18 87.9622 51.208 87.9622 50.02V34.972ZM91.5304 28.096C91.5304 29.392 92.6104 30.256 94.0144 30.256C95.4184 30.256 96.4984 29.392 96.4984 28.096V27.88C96.4984 26.584 95.4184 25.756 94.0144 25.756C92.6104 25.756 91.5304 26.584 91.5304 27.88V28.096ZM91.8544 50.02C91.8544 51.244 92.8264 52.18 94.0144 52.18C95.2384 52.18 96.2104 51.244 96.2104 50.02V34.972C96.2104 33.748 95.2384 32.776 94.0144 32.776C92.7904 32.776 91.8544 33.748 91.8544 34.972V50.02ZM118.787 27.7C118.787 26.476 117.815 25.54 116.591 25.54C115.403 25.54 114.431 26.476 114.431 27.7V35.944C113.063 34.144 111.083 32.596 107.951 32.596C103.415 32.596 99.1312 36.16 99.1312 42.46V42.532C99.1312 48.832 103.487 52.396 107.951 52.396C111.047 52.396 113.027 50.812 114.431 48.832V50.02C114.431 51.244 115.403 52.18 116.627 52.18C117.815 52.18 118.787 51.244 118.787 50.02V27.7ZM108.995 36.376C111.911 36.376 114.503 38.788 114.503 42.46V42.532C114.503 46.168 111.911 48.616 108.995 48.616C106.043 48.616 103.523 46.204 103.523 42.532V42.46C103.523 38.68 106.007 36.376 108.995 36.376ZM122.384 28.096C122.384 29.392 123.464 30.256 124.868 30.256C126.272 30.256 127.352 29.392 127.352 28.096V27.88C127.352 26.584 126.272 25.756 124.868 25.756C123.464 25.756 122.384 26.584 122.384 27.88V28.096ZM122.708 50.02C122.708 51.244 123.68 52.18 124.868 52.18C126.092 52.18 127.064 51.244 127.064 50.02V34.972C127.064 33.748 126.092 32.776 124.868 32.776C123.644 32.776 122.708 33.748 122.708 34.972V50.02ZM137.328 52.324C138.48 52.324 139.38 52.144 140.316 51.82C140.928 51.568 141.468 50.92 141.468 50.128C141.468 49.12 140.604 48.328 139.632 48.328C139.488 48.328 139.056 48.436 138.552 48.436C137.076 48.436 136.212 47.752 136.212 46.06V36.736H139.632C140.676 36.736 141.54 35.908 141.54 34.864C141.54 33.82 140.676 32.992 139.632 32.992H136.212V29.752C136.212 28.564 135.24 27.592 134.052 27.592C132.828 27.592 131.856 28.564 131.856 29.752V32.992H131.136C130.092 32.992 129.264 33.82 129.264 34.864C129.264 35.908 130.092 36.736 131.136 36.736H131.856V46.744C131.856 50.92 134.124 52.324 137.328 52.324ZM147.413 57.868C150.473 57.868 152.201 56.428 153.821 52.54L160.769 35.872C160.841 35.656 160.949 35.188 160.949 34.828C160.949 33.676 160.013 32.776 158.861 32.776C157.745 32.776 157.133 33.532 156.773 34.432L152.021 47.068L146.909 34.432C146.513 33.424 145.901 32.776 144.785 32.776C143.561 32.776 142.625 33.676 142.625 34.9C142.625 35.188 142.733 35.62 142.877 35.944L149.933 51.712L149.789 52.108C149.069 53.584 148.385 54.124 147.089 54.124C146.477 54.124 146.081 54.016 145.577 53.872C145.361 53.8 145.145 53.728 144.785 53.728C143.849 53.728 143.021 54.448 143.021 55.528C143.021 56.572 143.741 57.112 144.389 57.328C145.289 57.688 146.189 57.868 147.413 57.868ZM184.735 52.432C188.515 52.432 191.539 51.136 193.699 49.696C194.743 49.048 195.247 48.148 195.247 46.888V40.156C195.247 38.896 194.275 37.924 193.015 37.924H185.995C184.915 37.924 184.015 38.788 184.015 39.868C184.015 40.948 184.915 41.776 185.995 41.776H190.963V46.492C189.415 47.644 187.255 48.4 184.879 48.4C179.731 48.4 176.311 44.584 176.311 39.4V39.328C176.311 34.504 179.839 30.436 184.483 30.436C187.219 30.436 188.983 31.228 190.603 32.416C190.963 32.668 191.395 32.92 191.971 32.92C193.195 32.92 194.167 31.912 194.167 30.724C194.167 29.86 193.699 29.248 193.267 28.924C190.963 27.268 188.443 26.368 184.663 26.368C177.067 26.368 171.667 32.344 171.667 39.4V39.472C171.667 46.816 176.851 52.432 184.735 52.432ZM201.985 41.164C202.381 38.212 204.253 36.16 206.917 36.16C209.797 36.16 211.453 38.356 211.741 41.164H201.985ZM214.261 49.912C214.585 49.588 214.837 49.12 214.837 48.58C214.837 47.572 214.081 46.816 213.109 46.816C212.605 46.816 212.317 46.96 211.993 47.212C210.769 48.22 209.329 48.868 207.493 48.868C204.685 48.868 202.489 47.14 202.021 44.044H213.937C215.053 44.044 215.989 43.18 215.989 41.956C215.989 37.564 213.001 32.596 206.953 32.596C201.517 32.596 197.665 37.06 197.665 42.496V42.568C197.665 48.436 201.913 52.432 207.421 52.432C210.373 52.432 212.533 51.46 214.261 49.912ZM218.636 50.02C218.636 51.244 219.608 52.18 220.796 52.18C222.02 52.18 222.992 51.244 222.992 50.02V41.272C222.992 38.32 224.756 36.556 227.276 36.556C229.868 36.556 231.344 38.248 231.344 41.2V50.02C231.344 51.244 232.316 52.18 233.54 52.18C234.764 52.18 235.7 51.244 235.7 50.02V39.868C235.7 35.476 233.216 32.596 228.932 32.596C225.98 32.596 224.216 34.144 222.992 35.908V34.972C222.992 33.748 222.02 32.776 220.796 32.776C219.572 32.776 218.636 33.748 218.636 34.972V50.02ZM242.436 41.164C242.832 38.212 244.704 36.16 247.368 36.16C250.248 36.16 251.904 38.356 252.192 41.164H242.436ZM254.712 49.912C255.036 49.588 255.288 49.12 255.288 48.58C255.288 47.572 254.532 46.816 253.56 46.816C253.056 46.816 252.768 46.96 252.444 47.212C251.22 48.22 249.78 48.868 247.944 48.868C245.136 48.868 242.94 47.14 242.472 44.044H254.388C255.504 44.044 256.44 43.18 256.44 41.956C256.44 37.564 253.452 32.596 247.404 32.596C241.968 32.596 238.116 37.06 238.116 42.496V42.568C238.116 48.436 242.364 52.432 247.872 52.432C250.824 52.432 252.984 51.46 254.712 49.912ZM259.087 50.02C259.087 51.244 260.059 52.18 261.247 52.18C262.471 52.18 263.443 51.208 263.443 50.02V44.404C263.443 39.904 265.567 37.528 268.663 36.988C269.635 36.808 270.391 36.052 270.391 34.9C270.391 33.64 269.599 32.74 268.231 32.74C266.323 32.74 264.451 34.54 263.443 36.916V34.972C263.443 33.748 262.471 32.776 261.247 32.776C260.023 32.776 259.087 33.748 259.087 34.972V50.02ZM276.716 52.396C279.632 52.396 281.612 51.172 282.908 49.624V50.344C282.908 51.316 283.772 52.18 285.032 52.18C286.22 52.18 287.156 51.28 287.156 50.092V40.732C287.156 38.248 286.508 36.232 285.104 34.864C283.772 33.496 281.648 32.74 278.804 32.74C276.32 32.74 274.484 33.172 272.684 33.856C272.036 34.108 271.496 34.792 271.496 35.584C271.496 36.592 272.324 37.384 273.332 37.384C273.548 37.384 273.764 37.348 274.016 37.276C275.204 36.808 276.572 36.52 278.228 36.52C281.288 36.52 282.944 37.96 282.944 40.66V41.128C281.468 40.66 279.956 40.336 277.832 40.336C273.188 40.336 269.984 42.352 269.984 46.456V46.528C269.984 50.344 273.152 52.396 276.716 52.396ZM277.94 49.228C275.852 49.228 274.232 48.184 274.232 46.348V46.276C274.232 44.296 275.888 43.108 278.696 43.108C280.424 43.108 281.9 43.432 283.016 43.864V45.16C283.016 47.572 280.82 49.228 277.94 49.228ZM296.769 52.324C297.921 52.324 298.821 52.144 299.757 51.82C300.369 51.568 300.909 50.92 300.909 50.128C300.909 49.12 300.045 48.328 299.073 48.328C298.929 48.328 298.497 48.436 297.993 48.436C296.517 48.436 295.653 47.752 295.653 46.06V36.736H299.073C300.117 36.736 300.981 35.908 300.981 34.864C300.981 33.82 300.117 32.992 299.073 32.992H295.653V29.752C295.653 28.564 294.681 27.592 293.493 27.592C292.269 27.592 291.297 28.564 291.297 29.752V32.992H290.577C289.533 32.992 288.705 33.82 288.705 34.864C288.705 35.908 289.533 36.736 290.577 36.736H291.297V46.744C291.297 50.92 293.565 52.324 296.769 52.324ZM303.326 28.096C303.326 29.392 304.406 30.256 305.81 30.256C307.214 30.256 308.294 29.392 308.294 28.096V27.88C308.294 26.584 307.214 25.756 305.81 25.756C304.406 25.756 303.326 26.584 303.326 27.88V28.096ZM303.65 50.02C303.65 51.244 304.622 52.18 305.81 52.18C307.034 52.18 308.006 51.244 308.006 50.02V34.972C308.006 33.748 307.034 32.776 305.81 32.776C304.586 32.776 303.65 33.748 303.65 34.972V50.02ZM320.935 52.432C326.803 52.432 331.123 47.932 331.123 42.532V42.46C331.123 37.024 326.839 32.596 321.007 32.596C315.175 32.596 310.855 37.096 310.855 42.532V42.604C310.855 48.004 315.139 52.432 320.935 52.432ZM321.007 48.616C317.623 48.616 315.211 45.844 315.211 42.532V42.46C315.211 39.148 317.443 36.412 320.935 36.412C324.355 36.412 326.767 39.184 326.767 42.532V42.604C326.767 45.88 324.535 48.616 321.007 48.616ZM333.759 50.02C333.759 51.244 334.731 52.18 335.919 52.18C337.143 52.18 338.115 51.244 338.115 50.02V41.272C338.115 38.32 339.879 36.556 342.399 36.556C344.991 36.556 346.467 38.248 346.467 41.2V50.02C346.467 51.244 347.439 52.18 348.663 52.18C349.887 52.18 350.823 51.244 350.823 50.02V39.868C350.823 35.476 348.339 32.596 344.055 32.596C341.103 32.596 339.339 34.144 338.115 35.908V34.972C338.115 33.748 337.143 32.776 335.919 32.776C334.695 32.776 333.759 33.748 333.759 34.972V50.02ZM366.012 52H380.844C381.924 52 382.824 51.136 382.824 50.02C382.824 48.94 381.924 48.04 380.844 48.04H368.208V41.272H379.044C380.124 41.272 381.024 40.408 381.024 39.328C381.024 38.212 380.124 37.312 379.044 37.312H368.208V30.76H380.664C381.744 30.76 382.644 29.896 382.644 28.78C382.644 27.7 381.744 26.8 380.664 26.8H366.012C364.752 26.8 363.78 27.772 363.78 29.032V49.768C363.78 51.028 364.752 52 366.012 52ZM395.645 50.452L401.981 35.908C402.089 35.692 402.233 35.26 402.233 34.864C402.233 33.676 401.297 32.776 400.109 32.776C398.957 32.776 398.381 33.532 398.057 34.288L393.089 46.96L388.193 34.36C387.833 33.46 387.221 32.776 386.033 32.776C384.845 32.776 383.873 33.784 383.873 34.864C383.873 35.26 384.017 35.62 384.125 35.944L390.461 50.452C390.965 51.604 391.757 52.36 392.945 52.36H393.161C394.349 52.36 395.141 51.568 395.645 50.452ZM407.003 41.164C407.399 38.212 409.271 36.16 411.935 36.16C414.815 36.16 416.471 38.356 416.759 41.164H407.003ZM419.279 49.912C419.603 49.588 419.855 49.12 419.855 48.58C419.855 47.572 419.099 46.816 418.127 46.816C417.623 46.816 417.335 46.96 417.011 47.212C415.787 48.22 414.347 48.868 412.511 48.868C409.703 48.868 407.507 47.14 407.039 44.044H418.955C420.071 44.044 421.007 43.18 421.007 41.956C421.007 37.564 418.019 32.596 411.971 32.596C406.535 32.596 402.683 37.06 402.683 42.496V42.568C402.683 48.436 406.931 52.432 412.439 52.432C415.391 52.432 417.551 51.46 419.279 49.912ZM423.653 50.02C423.653 51.244 424.625 52.18 425.813 52.18C427.037 52.18 428.009 51.244 428.009 50.02V41.272C428.009 38.32 429.773 36.556 432.293 36.556C434.885 36.556 436.361 38.248 436.361 41.2V50.02C436.361 51.244 437.333 52.18 438.557 52.18C439.781 52.18 440.717 51.244 440.717 50.02V39.868C440.717 35.476 438.233 32.596 433.949 32.596C430.997 32.596 429.233 34.144 428.009 35.908V34.972C428.009 33.748 427.037 32.776 425.813 32.776C424.589 32.776 423.653 33.748 423.653 34.972V50.02ZM450.549 52.324C451.701 52.324 452.601 52.144 453.537 51.82C454.149 51.568 454.689 50.92 454.689 50.128C454.689 49.12 453.825 48.328 452.853 48.328C452.709 48.328 452.277 48.436 451.773 48.436C450.297 48.436 449.433 47.752 449.433 46.06V36.736H452.853C453.897 36.736 454.761 35.908 454.761 34.864C454.761 33.82 453.897 32.992 452.853 32.992H449.433V29.752C449.433 28.564 448.461 27.592 447.273 27.592C446.049 27.592 445.077 28.564 445.077 29.752V32.992H444.357C443.313 32.992 442.485 33.82 442.485 34.864C442.485 35.908 443.313 36.736 444.357 36.736H445.077V46.744C445.077 50.92 447.345 52.324 450.549 52.324ZM463.694 52.36C467.654 52.36 470.75 50.38 470.75 46.384V46.312C470.75 42.892 467.618 41.632 464.846 40.768C462.614 40.048 460.562 39.472 460.562 38.068V37.996C460.562 36.916 461.534 36.124 463.226 36.124C464.558 36.124 466.142 36.628 467.69 37.42C467.978 37.564 468.194 37.636 468.554 37.636C469.562 37.636 470.354 36.88 470.354 35.872C470.354 35.116 469.922 34.54 469.31 34.216C467.474 33.244 465.35 32.668 463.334 32.668C459.554 32.668 456.566 34.864 456.566 38.464V38.536C456.566 42.172 459.698 43.324 462.506 44.116C464.738 44.8 466.754 45.304 466.754 46.78V46.852C466.754 48.112 465.674 48.904 463.802 48.904C462.074 48.904 460.166 48.292 458.33 47.068C458.078 46.924 457.754 46.816 457.394 46.816C456.386 46.816 455.63 47.608 455.63 48.58C455.63 49.3 455.99 49.84 456.458 50.092C458.654 51.604 461.282 52.36 463.694 52.36Z" fill="black"/>
<path d="M20.24 44.768C20.24 46.028 21.212 47 22.472 47H36.08C37.196 47 38.096 46.1 38.096 44.984C38.096 43.868 37.196 42.968 36.08 42.968H24.668V23.816C24.668 22.592 23.696 21.62 22.472 21.62C21.212 21.62 20.24 22.592 20.24 23.816V44.768ZM40.1531 23.096C40.1531 24.392 41.2331 25.256 42.6371 25.256C44.0411 25.256 45.1211 24.392 45.1211 23.096V22.88C45.1211 21.584 44.0411 20.756 42.6371 20.756C41.2331 20.756 40.1531 21.584 40.1531 22.88V23.096ZM40.4771 45.02C40.4771 46.244 41.4491 47.18 42.6371 47.18C43.8611 47.18 44.8331 46.244 44.8331 45.02V29.972C44.8331 28.748 43.8611 27.776 42.6371 27.776C41.4131 27.776 40.4771 28.748 40.4771 29.972V45.02ZM67.4098 29.972C67.4098 28.748 66.4378 27.776 65.2138 27.776C64.0258 27.776 63.0538 28.748 63.0538 29.936V30.944C61.6858 29.144 59.7058 27.596 56.5738 27.596C52.0378 27.596 47.7538 31.16 47.7538 37.46V37.532C47.7538 43.832 52.1098 47.396 56.5738 47.396C59.6698 47.396 61.6498 45.812 63.0538 43.832V50.78C63.0538 52.004 64.0258 52.94 65.2498 52.94C66.4378 52.94 67.4098 52.004 67.4098 50.78V29.972ZM57.6178 31.376C60.5338 31.376 63.1258 33.788 63.1258 37.46V37.532C63.1258 41.168 60.5338 43.616 57.6178 43.616C54.6658 43.616 52.1458 41.204 52.1458 37.532V37.46C52.1458 33.68 54.6298 31.376 57.6178 31.376ZM87.9622 29.972C87.9622 28.748 86.9542 27.776 85.7662 27.776C84.5422 27.776 83.5702 28.748 83.5702 29.972V38.72C83.5702 41.672 81.8062 43.4 79.2862 43.4C76.6942 43.4 75.2182 41.744 75.2182 38.792V29.972C75.2182 28.748 74.2462 27.776 73.0222 27.776C71.8342 27.776 70.8622 28.748 70.8622 29.972V40.088C70.8622 44.516 73.3462 47.396 77.6302 47.396C80.5822 47.396 82.3462 45.848 83.5702 44.048V45.02C83.5702 46.244 84.5782 47.18 85.7662 47.18C86.9902 47.18 87.9622 46.208 87.9622 45.02V29.972ZM91.5304 23.096C91.5304 24.392 92.6104 25.256 94.0144 25.256C95.4184 25.256 96.4984 24.392 96.4984 23.096V22.88C96.4984 21.584 95.4184 20.756 94.0144 20.756C92.6104 20.756 91.5304 21.584 91.5304 22.88V23.096ZM91.8544 45.02C91.8544 46.244 92.8264 47.18 94.0144 47.18C95.2384 47.18 96.2104 46.244 96.2104 45.02V29.972C96.2104 28.748 95.2384 27.776 94.0144 27.776C92.7904 27.776 91.8544 28.748 91.8544 29.972V45.02ZM118.787 22.7C118.787 21.476 117.815 20.54 116.591 20.54C115.403 20.54 114.431 21.476 114.431 22.7V30.944C113.063 29.144 111.083 27.596 107.951 27.596C103.415 27.596 99.1312 31.16 99.1312 37.46V37.532C99.1312 43.832 103.487 47.396 107.951 47.396C111.047 47.396 113.027 45.812 114.431 43.832V45.02C114.431 46.244 115.403 47.18 116.627 47.18C117.815 47.18 118.787 46.244 118.787 45.02V22.7ZM108.995 31.376C111.911 31.376 114.503 33.788 114.503 37.46V37.532C114.503 41.168 111.911 43.616 108.995 43.616C106.043 43.616 103.523 41.204 103.523 37.532V37.46C103.523 33.68 106.007 31.376 108.995 31.376ZM122.384 23.096C122.384 24.392 123.464 25.256 124.868 25.256C126.272 25.256 127.352 24.392 127.352 23.096V22.88C127.352 21.584 126.272 20.756 124.868 20.756C123.464 20.756 122.384 21.584 122.384 22.88V23.096ZM122.708 45.02C122.708 46.244 123.68 47.18 124.868 47.18C126.092 47.18 127.064 46.244 127.064 45.02V29.972C127.064 28.748 126.092 27.776 124.868 27.776C123.644 27.776 122.708 28.748 122.708 29.972V45.02ZM137.328 47.324C138.48 47.324 139.38 47.144 140.316 46.82C140.928 46.568 141.468 45.92 141.468 45.128C141.468 44.12 140.604 43.328 139.632 43.328C139.488 43.328 139.056 43.436 138.552 43.436C137.076 43.436 136.212 42.752 136.212 41.06V31.736H139.632C140.676 31.736 141.54 30.908 141.54 29.864C141.54 28.82 140.676 27.992 139.632 27.992H136.212V24.752C136.212 23.564 135.24 22.592 134.052 22.592C132.828 22.592 131.856 23.564 131.856 24.752V27.992H131.136C130.092 27.992 129.264 28.82 129.264 29.864C129.264 30.908 130.092 31.736 131.136 31.736H131.856V41.744C131.856 45.92 134.124 47.324 137.328 47.324ZM147.413 52.868C150.473 52.868 152.201 51.428 153.821 47.54L160.769 30.872C160.841 30.656 160.949 30.188 160.949 29.828C160.949 28.676 160.013 27.776 158.861 27.776C157.745 27.776 157.133 28.532 156.773 29.432L152.021 42.068L146.909 29.432C146.513 28.424 145.901 27.776 144.785 27.776C143.561 27.776 142.625 28.676 142.625 29.9C142.625 30.188 142.733 30.62 142.877 30.944L149.933 46.712L149.789 47.108C149.069 48.584 148.385 49.124 147.089 49.124C146.477 49.124 146.081 49.016 145.577 48.872C145.361 48.8 145.145 48.728 144.785 48.728C143.849 48.728 143.021 49.448 143.021 50.528C143.021 51.572 143.741 52.112 144.389 52.328C145.289 52.688 146.189 52.868 147.413 52.868Z" fill="#00E59D"/>
<path d="M184.735 47.432C188.515 47.432 191.539 46.136 193.699 44.696C194.743 44.048 195.247 43.148 195.247 41.888V35.156C195.247 33.896 194.275 32.924 193.015 32.924H185.995C184.915 32.924 184.015 33.788 184.015 34.868C184.015 35.948 184.915 36.776 185.995 36.776H190.963V41.492C189.415 42.644 187.255 43.4 184.879 43.4C179.731 43.4 176.311 39.584 176.311 34.4V34.328C176.311 29.504 179.839 25.436 184.483 25.436C187.219 25.436 188.983 26.228 190.603 27.416C190.963 27.668 191.395 27.92 191.971 27.92C193.195 27.92 194.167 26.912 194.167 25.724C194.167 24.86 193.699 24.248 193.267 23.924C190.963 22.268 188.443 21.368 184.663 21.368C177.067 21.368 171.667 27.344 171.667 34.4V34.472C171.667 41.816 176.851 47.432 184.735 47.432ZM201.985 36.164C202.381 33.212 204.253 31.16 206.917 31.16C209.797 31.16 211.453 33.356 211.741 36.164H201.985ZM214.261 44.912C214.585 44.588 214.837 44.12 214.837 43.58C214.837 42.572 214.081 41.816 213.109 41.816C212.605 41.816 212.317 41.96 211.993 42.212C210.769 43.22 209.329 43.868 207.493 43.868C204.685 43.868 202.489 42.14 202.021 39.044H213.937C215.053 39.044 215.989 38.18 215.989 36.956C215.989 32.564 213.001 27.596 206.953 27.596C201.517 27.596 197.665 32.06 197.665 37.496V37.568C197.665 43.436 201.913 47.432 207.421 47.432C210.373 47.432 212.533 46.46 214.261 44.912ZM218.636 45.02C218.636 46.244 219.608 47.18 220.796 47.18C222.02 47.18 222.992 46.244 222.992 45.02V36.272C222.992 33.32 224.756 31.556 227.276 31.556C229.868 31.556 231.344 33.248 231.344 36.2V45.02C231.344 46.244 232.316 47.18 233.54 47.18C234.764 47.18 235.7 46.244 235.7 45.02V34.868C235.7 30.476 233.216 27.596 228.932 27.596C225.98 27.596 224.216 29.144 222.992 30.908V29.972C222.992 28.748 222.02 27.776 220.796 27.776C219.572 27.776 218.636 28.748 218.636 29.972V45.02ZM242.436 36.164C242.832 33.212 244.704 31.16 247.368 31.16C250.248 31.16 251.904 33.356 252.192 36.164H242.436ZM254.712 44.912C255.036 44.588 255.288 44.12 255.288 43.58C255.288 42.572 254.532 41.816 253.56 41.816C253.056 41.816 252.768 41.96 252.444 42.212C251.22 43.22 249.78 43.868 247.944 43.868C245.136 43.868 242.94 42.14 242.472 39.044H254.388C255.504 39.044 256.44 38.18 256.44 36.956C256.44 32.564 253.452 27.596 247.404 27.596C241.968 27.596 238.116 32.06 238.116 37.496V37.568C238.116 43.436 242.364 47.432 247.872 47.432C250.824 47.432 252.984 46.46 254.712 44.912ZM259.087 45.02C259.087 46.244 260.059 47.18 261.247 47.18C262.471 47.18 263.443 46.208 263.443 45.02V39.404C263.443 34.904 265.567 32.528 268.663 31.988C269.635 31.808 270.391 31.052 270.391 29.9C270.391 28.64 269.599 27.74 268.231 27.74C266.323 27.74 264.451 29.54 263.443 31.916V29.972C263.443 28.748 262.471 27.776 261.247 27.776C260.023 27.776 259.087 28.748 259.087 29.972V45.02ZM276.716 47.396C279.632 47.396 281.612 46.172 282.908 44.624V45.344C282.908 46.316 283.772 47.18 285.032 47.18C286.22 47.18 287.156 46.28 287.156 45.092V35.732C287.156 33.248 286.508 31.232 285.104 29.864C283.772 28.496 281.648 27.74 278.804 27.74C276.32 27.74 274.484 28.172 272.684 28.856C272.036 29.108 271.496 29.792 271.496 30.584C271.496 31.592 272.324 32.384 273.332 32.384C273.548 32.384 273.764 32.348 274.016 32.276C275.204 31.808 276.572 31.52 278.228 31.52C281.288 31.52 282.944 32.96 282.944 35.66V36.128C281.468 35.66 279.956 35.336 277.832 35.336C273.188 35.336 269.984 37.352 269.984 41.456V41.528C269.984 45.344 273.152 47.396 276.716 47.396ZM277.94 44.228C275.852 44.228 274.232 43.184 274.232 41.348V41.276C274.232 39.296 275.888 38.108 278.696 38.108C280.424 38.108 281.9 38.432 283.016 38.864V40.16C283.016 42.572 280.82 44.228 277.94 44.228ZM296.769 47.324C297.921 47.324 298.821 47.144 299.757 46.82C300.369 46.568 300.909 45.92 300.909 45.128C300.909 44.12 300.045 43.328 299.073 43.328C298.929 43.328 298.497 43.436 297.993 43.436C296.517 43.436 295.653 42.752 295.653 41.06V31.736H299.073C300.117 31.736 300.981 30.908 300.981 29.864C300.981 28.82 300.117 27.992 299.073 27.992H295.653V24.752C295.653 23.564 294.681 22.592 293.493 22.592C292.269 22.592 291.297 23.564 291.297 24.752V27.992H290.577C289.533 27.992 288.705 28.82 288.705 29.864C288.705 30.908 289.533 31.736 290.577 31.736H291.297V41.744C291.297 45.92 293.565 47.324 296.769 47.324ZM303.326 23.096C303.326 24.392 304.406 25.256 305.81 25.256C307.214 25.256 308.294 24.392 308.294 23.096V22.88C308.294 21.584 307.214 20.756 305.81 20.756C304.406 20.756 303.326 21.584 303.326 22.88V23.096ZM303.65 45.02C303.65 46.244 304.622 47.18 305.81 47.18C307.034 47.18 308.006 46.244 308.006 45.02V29.972C308.006 28.748 307.034 27.776 305.81 27.776C304.586 27.776 303.65 28.748 303.65 29.972V45.02ZM320.935 47.432C326.803 47.432 331.123 42.932 331.123 37.532V37.46C331.123 32.024 326.839 27.596 321.007 27.596C315.175 27.596 310.855 32.096 310.855 37.532V37.604C310.855 43.004 315.139 47.432 320.935 47.432ZM321.007 43.616C317.623 43.616 315.211 40.844 315.211 37.532V37.46C315.211 34.148 317.443 31.412 320.935 31.412C324.355 31.412 326.767 34.184 326.767 37.532V37.604C326.767 40.88 324.535 43.616 321.007 43.616ZM333.759 45.02C333.759 46.244 334.731 47.18 335.919 47.18C337.143 47.18 338.115 46.244 338.115 45.02V36.272C338.115 33.32 339.879 31.556 342.399 31.556C344.991 31.556 346.467 33.248 346.467 36.2V45.02C346.467 46.244 347.439 47.18 348.663 47.18C349.887 47.18 350.823 46.244 350.823 45.02V34.868C350.823 30.476 348.339 27.596 344.055 27.596C341.103 27.596 339.339 29.144 338.115 30.908V29.972C338.115 28.748 337.143 27.776 335.919 27.776C334.695 27.776 333.759 28.748 333.759 29.972V45.02ZM366.012 47H380.844C381.924 47 382.824 46.136 382.824 45.02C382.824 43.94 381.924 43.04 380.844 43.04H368.208V36.272H379.044C380.124 36.272 381.024 35.408 381.024 34.328C381.024 33.212 380.124 32.312 379.044 32.312H368.208V25.76H380.664C381.744 25.76 382.644 24.896 382.644 23.78C382.644 22.7 381.744 21.8 380.664 21.8H366.012C364.752 21.8 363.78 22.772 363.78 24.032V44.768C363.78 46.028 364.752 47 366.012 47ZM395.645 45.452L401.981 30.908C402.089 30.692 402.233 30.26 402.233 29.864C402.233 28.676 401.297 27.776 400.109 27.776C398.957 27.776 398.381 28.532 398.057 29.288L393.089 41.96L388.193 29.36C387.833 28.46 387.221 27.776 386.033 27.776C384.845 27.776 383.873 28.784 383.873 29.864C383.873 30.26 384.017 30.62 384.125 30.944L390.461 45.452C390.965 46.604 391.757 47.36 392.945 47.36H393.161C394.349 47.36 395.141 46.568 395.645 45.452ZM407.003 36.164C407.399 33.212 409.271 31.16 411.935 31.16C414.815 31.16 416.471 33.356 416.759 36.164H407.003ZM419.279 44.912C419.603 44.588 419.855 44.12 419.855 43.58C419.855 42.572 419.099 41.816 418.127 41.816C417.623 41.816 417.335 41.96 417.011 42.212C415.787 43.22 414.347 43.868 412.511 43.868C409.703 43.868 407.507 42.14 407.039 39.044H418.955C420.071 39.044 421.007 38.18 421.007 36.956C421.007 32.564 418.019 27.596 411.971 27.596C406.535 27.596 402.683 32.06 402.683 37.496V37.568C402.683 43.436 406.931 47.432 412.439 47.432C415.391 47.432 417.551 46.46 419.279 44.912ZM423.653 45.02C423.653 46.244 424.625 47.18 425.813 47.18C427.037 47.18 428.009 46.244 428.009 45.02V36.272C428.009 33.32 429.773 31.556 432.293 31.556C434.885 31.556 436.361 33.248 436.361 36.2V45.02C436.361 46.244 437.333 47.18 438.557 47.18C439.781 47.18 440.717 46.244 440.717 45.02V34.868C440.717 30.476 438.233 27.596 433.949 27.596C430.997 27.596 429.233 29.144 428.009 30.908V29.972C428.009 28.748 427.037 27.776 425.813 27.776C424.589 27.776 423.653 28.748 423.653 29.972V45.02ZM450.549 47.324C451.701 47.324 452.601 47.144 453.537 46.82C454.149 46.568 454.689 45.92 454.689 45.128C454.689 44.12 453.825 43.328 452.853 43.328C452.709 43.328 452.277 43.436 451.773 43.436C450.297 43.436 449.433 42.752 449.433 41.06V31.736H452.853C453.897 31.736 454.761 30.908 454.761 29.864C454.761 28.82 453.897 27.992 452.853 27.992H449.433V24.752C449.433 23.564 448.461 22.592 447.273 22.592C446.049 22.592 445.077 23.564 445.077 24.752V27.992H444.357C443.313 27.992 442.485 28.82 442.485 29.864C442.485 30.908 443.313 31.736 444.357 31.736H445.077V41.744C445.077 45.92 447.345 47.324 450.549 47.324ZM463.694 47.36C467.654 47.36 470.75 45.38 470.75 41.384V41.312C470.75 37.892 467.618 36.632 464.846 35.768C462.614 35.048 460.562 34.472 460.562 33.068V32.996C460.562 31.916 461.534 31.124 463.226 31.124C464.558 31.124 466.142 31.628 467.69 32.42C467.978 32.564 468.194 32.636 468.554 32.636C469.562 32.636 470.354 31.88 470.354 30.872C470.354 30.116 469.922 29.54 469.31 29.216C467.474 28.244 465.35 27.668 463.334 27.668C459.554 27.668 456.566 29.864 456.566 33.464V33.536C456.566 37.172 459.698 38.324 462.506 39.116C464.738 39.8 466.754 40.304 466.754 41.78V41.852C466.754 43.112 465.674 43.904 463.802 43.904C462.074 43.904 460.166 43.292 458.33 42.068C458.078 41.924 457.754 41.816 457.394 41.816C456.386 41.816 455.63 42.608 455.63 43.58C455.63 44.3 455.99 44.84 456.458 45.092C458.654 46.604 461.282 47.36 463.694 47.36Z" fill="#FF0000"/>
<g filter="url(#filter0)">
<path d="M20.24 44.768C20.24 46.028 21.212 47 22.472 47H36.08C37.196 47 38.096 46.1 38.096 44.984C38.096 43.868 37.196 42.968 36.08 42.968H24.668V23.816C24.668 22.592 23.696 21.62 22.472 21.62C21.212 21.62 20.24 22.592 20.24 23.816V44.768ZM40.1531 23.096C40.1531 24.392 41.2331 25.256 42.6371 25.256C44.0411 25.256 45.1211 24.392 45.1211 23.096V22.88C45.1211 21.584 44.0411 20.756 42.6371 20.756C41.2331 20.756 40.1531 21.584 40.1531 22.88V23.096ZM40.4771 45.02C40.4771 46.244 41.4491 47.18 42.6371 47.18C43.8611 47.18 44.8331 46.244 44.8331 45.02V29.972C44.8331 28.748 43.8611 27.776 42.6371 27.776C41.4131 27.776 40.4771 28.748 40.4771 29.972V45.02ZM67.4098 29.972C67.4098 28.748 66.4378 27.776 65.2138 27.776C64.0258 27.776 63.0538 28.748 63.0538 29.936V30.944C61.6858 29.144 59.7058 27.596 56.5738 27.596C52.0378 27.596 47.7538 31.16 47.7538 37.46V37.532C47.7538 43.832 52.1098 47.396 56.5738 47.396C59.6698 47.396 61.6498 45.812 63.0538 43.832V50.78C63.0538 52.004 64.0258 52.94 65.2498 52.94C66.4378 52.94 67.4098 52.004 67.4098 50.78V29.972ZM57.6178 31.376C60.5338 31.376 63.1258 33.788 63.1258 37.46V37.532C63.1258 41.168 60.5338 43.616 57.6178 43.616C54.6658 43.616 52.1458 41.204 52.1458 37.532V37.46C52.1458 33.68 54.6298 31.376 57.6178 31.376ZM87.9622 29.972C87.9622 28.748 86.9542 27.776 85.7662 27.776C84.5422 27.776 83.5702 28.748 83.5702 29.972V38.72C83.5702 41.672 81.8062 43.4 79.2862 43.4C76.6942 43.4 75.2182 41.744 75.2182 38.792V29.972C75.2182 28.748 74.2462 27.776 73.0222 27.776C71.8342 27.776 70.8622 28.748 70.8622 29.972V40.088C70.8622 44.516 73.3462 47.396 77.6302 47.396C80.5822 47.396 82.3462 45.848 83.5702 44.048V45.02C83.5702 46.244 84.5782 47.18 85.7662 47.18C86.9902 47.18 87.9622 46.208 87.9622 45.02V29.972ZM91.5304 23.096C91.5304 24.392 92.6104 25.256 94.0144 25.256C95.4184 25.256 96.4984 24.392 96.4984 23.096V22.88C96.4984 21.584 95.4184 20.756 94.0144 20.756C92.6104 20.756 91.5304 21.584 91.5304 22.88V23.096ZM91.8544 45.02C91.8544 46.244 92.8264 47.18 94.0144 47.18C95.2384 47.18 96.2104 46.244 96.2104 45.02V29.972C96.2104 28.748 95.2384 27.776 94.0144 27.776C92.7904 27.776 91.8544 28.748 91.8544 29.972V45.02ZM118.787 22.7C118.787 21.476 117.815 20.54 116.591 20.54C115.403 20.54 114.431 21.476 114.431 22.7V30.944C113.063 29.144 111.083 27.596 107.951 27.596C103.415 27.596 99.1312 31.16 99.1312 37.46V37.532C99.1312 43.832 103.487 47.396 107.951 47.396C111.047 47.396 113.027 45.812 114.431 43.832V45.02C114.431 46.244 115.403 47.18 116.627 47.18C117.815 47.18 118.787 46.244 118.787 45.02V22.7ZM108.995 31.376C111.911 31.376 114.503 33.788 114.503 37.46V37.532C114.503 41.168 111.911 43.616 108.995 43.616C106.043 43.616 103.523 41.204 103.523 37.532V37.46C103.523 33.68 106.007 31.376 108.995 31.376ZM122.384 23.096C122.384 24.392 123.464 25.256 124.868 25.256C126.272 25.256 127.352 24.392 127.352 23.096V22.88C127.352 21.584 126.272 20.756 124.868 20.756C123.464 20.756 122.384 21.584 122.384 22.88V23.096ZM122.708 45.02C122.708 46.244 123.68 47.18 124.868 47.18C126.092 47.18 127.064 46.244 127.064 45.02V29.972C127.064 28.748 126.092 27.776 124.868 27.776C123.644 27.776 122.708 28.748 122.708 29.972V45.02ZM137.328 47.324C138.48 47.324 139.38 47.144 140.316 46.82C140.928 46.568 141.468 45.92 141.468 45.128C141.468 44.12 140.604 43.328 139.632 43.328C139.488 43.328 139.056 43.436 138.552 43.436C137.076 43.436 136.212 42.752 136.212 41.06V31.736H139.632C140.676 31.736 141.54 30.908 141.54 29.864C141.54 28.82 140.676 27.992 139.632 27.992H136.212V24.752C136.212 23.564 135.24 22.592 134.052 22.592C132.828 22.592 131.856 23.564 131.856 24.752V27.992H131.136C130.092 27.992 129.264 28.82 129.264 29.864C129.264 30.908 130.092 31.736 131.136 31.736H131.856V41.744C131.856 45.92 134.124 47.324 137.328 47.324ZM147.413 52.868C150.473 52.868 152.201 51.428 153.821 47.54L160.769 30.872C160.841 30.656 160.949 30.188 160.949 29.828C160.949 28.676 160.013 27.776 158.861 27.776C157.745 27.776 157.133 28.532 156.773 29.432L152.021 42.068L146.909 29.432C146.513 28.424 145.901 27.776 144.785 27.776C143.561 27.776 142.625 28.676 142.625 29.9C142.625 30.188 142.733 30.62 142.877 30.944L149.933 46.712L149.789 47.108C149.069 48.584 148.385 49.124 147.089 49.124C146.477 49.124 146.081 49.016 145.577 48.872C145.361 48.8 145.145 48.728 144.785 48.728C143.849 48.728 143.021 49.448 143.021 50.528C143.021 51.572 143.741 52.112 144.389 52.328C145.289 52.688 146.189 52.868 147.413 52.868Z" fill="#00E59D"/>
<path d="M184.735 47.432C188.515 47.432 191.539 46.136 193.699 44.696C194.743 44.048 195.247 43.148 195.247 41.888V35.156C195.247 33.896 194.275 32.924 193.015 32.924H185.995C184.915 32.924 184.015 33.788 184.015 34.868C184.015 35.948 184.915 36.776 185.995 36.776H190.963V41.492C189.415 42.644 187.255 43.4 184.879 43.4C179.731 43.4 176.311 39.584 176.311 34.4V34.328C176.311 29.504 179.839 25.436 184.483 25.436C187.219 25.436 188.983 26.228 190.603 27.416C190.963 27.668 191.395 27.92 191.971 27.92C193.195 27.92 194.167 26.912 194.167 25.724C194.167 24.86 193.699 24.248 193.267 23.924C190.963 22.268 188.443 21.368 184.663 21.368C177.067 21.368 171.667 27.344 171.667 34.4V34.472C171.667 41.816 176.851 47.432 184.735 47.432ZM201.985 36.164C202.381 33.212 204.253 31.16 206.917 31.16C209.797 31.16 211.453 33.356 211.741 36.164H201.985ZM214.261 44.912C214.585 44.588 214.837 44.12 214.837 43.58C214.837 42.572 214.081 41.816 213.109 41.816C212.605 41.816 212.317 41.96 211.993 42.212C210.769 43.22 209.329 43.868 207.493 43.868C204.685 43.868 202.489 42.14 202.021 39.044H213.937C215.053 39.044 215.989 38.18 215.989 36.956C215.989 32.564 213.001 27.596 206.953 27.596C201.517 27.596 197.665 32.06 197.665 37.496V37.568C197.665 43.436 201.913 47.432 207.421 47.432C210.373 47.432 212.533 46.46 214.261 44.912ZM218.636 45.02C218.636 46.244 219.608 47.18 220.796 47.18C222.02 47.18 222.992 46.244 222.992 45.02V36.272C222.992 33.32 224.756 31.556 227.276 31.556C229.868 31.556 231.344 33.248 231.344 36.2V45.02C231.344 46.244 232.316 47.18 233.54 47.18C234.764 47.18 235.7 46.244 235.7 45.02V34.868C235.7 30.476 233.216 27.596 228.932 27.596C225.98 27.596 224.216 29.144 222.992 30.908V29.972C222.992 28.748 222.02 27.776 220.796 27.776C219.572 27.776 218.636 28.748 218.636 29.972V45.02ZM242.436 36.164C242.832 33.212 244.704 31.16 247.368 31.16C250.248 31.16 251.904 33.356 252.192 36.164H242.436ZM254.712 44.912C255.036 44.588 255.288 44.12 255.288 43.58C255.288 42.572 254.532 41.816 253.56 41.816C253.056 41.816 252.768 41.96 252.444 42.212C251.22 43.22 249.78 43.868 247.944 43.868C245.136 43.868 242.94 42.14 242.472 39.044H254.388C255.504 39.044 256.44 38.18 256.44 36.956C256.44 32.564 253.452 27.596 247.404 27.596C241.968 27.596 238.116 32.06 238.116 37.496V37.568C238.116 43.436 242.364 47.432 247.872 47.432C250.824 47.432 252.984 46.46 254.712 44.912ZM259.087 45.02C259.087 46.244 260.059 47.18 261.247 47.18C262.471 47.18 263.443 46.208 263.443 45.02V39.404C263.443 34.904 265.567 32.528 268.663 31.988C269.635 31.808 270.391 31.052 270.391 29.9C270.391 28.64 269.599 27.74 268.231 27.74C266.323 27.74 264.451 29.54 263.443 31.916V29.972C263.443 28.748 262.471 27.776 261.247 27.776C260.023 27.776 259.087 28.748 259.087 29.972V45.02ZM276.716 47.396C279.632 47.396 281.612 46.172 282.908 44.624V45.344C282.908 46.316 283.772 47.18 285.032 47.18C286.22 47.18 287.156 46.28 287.156 45.092V35.732C287.156 33.248 286.508 31.232 285.104 29.864C283.772 28.496 281.648 27.74 278.804 27.74C276.32 27.74 274.484 28.172 272.684 28.856C272.036 29.108 271.496 29.792 271.496 30.584C271.496 31.592 272.324 32.384 273.332 32.384C273.548 32.384 273.764 32.348 274.016 32.276C275.204 31.808 276.572 31.52 278.228 31.52C281.288 31.52 282.944 32.96 282.944 35.66V36.128C281.468 35.66 279.956 35.336 277.832 35.336C273.188 35.336 269.984 37.352 269.984 41.456V41.528C269.984 45.344 273.152 47.396 276.716 47.396ZM277.94 44.228C275.852 44.228 274.232 43.184 274.232 41.348V41.276C274.232 39.296 275.888 38.108 278.696 38.108C280.424 38.108 281.9 38.432 283.016 38.864V40.16C283.016 42.572 280.82 44.228 277.94 44.228ZM296.769 47.324C297.921 47.324 298.821 47.144 299.757 46.82C300.369 46.568 300.909 45.92 300.909 45.128C300.909 44.12 300.045 43.328 299.073 43.328C298.929 43.328 298.497 43.436 297.993 43.436C296.517 43.436 295.653 42.752 295.653 41.06V31.736H299.073C300.117 31.736 300.981 30.908 300.981 29.864C300.981 28.82 300.117 27.992 299.073 27.992H295.653V24.752C295.653 23.564 294.681 22.592 293.493 22.592C292.269 22.592 291.297 23.564 291.297 24.752V27.992H290.577C289.533 27.992 288.705 28.82 288.705 29.864C288.705 30.908 289.533 31.736 290.577 31.736H291.297V41.744C291.297 45.92 293.565 47.324 296.769 47.324ZM303.326 23.096C303.326 24.392 304.406 25.256 305.81 25.256C307.214 25.256 308.294 24.392 308.294 23.096V22.88C308.294 21.584 307.214 20.756 305.81 20.756C304.406 20.756 303.326 21.584 303.326 22.88V23.096ZM303.65 45.02C303.65 46.244 304.622 47.18 305.81 47.18C307.034 47.18 308.006 46.244 308.006 45.02V29.972C308.006 28.748 307.034 27.776 305.81 27.776C304.586 27.776 303.65 28.748 303.65 29.972V45.02ZM320.935 47.432C326.803 47.432 331.123 42.932 331.123 37.532V37.46C331.123 32.024 326.839 27.596 321.007 27.596C315.175 27.596 310.855 32.096 310.855 37.532V37.604C310.855 43.004 315.139 47.432 320.935 47.432ZM321.007 43.616C317.623 43.616 315.211 40.844 315.211 37.532V37.46C315.211 34.148 317.443 31.412 320.935 31.412C324.355 31.412 326.767 34.184 326.767 37.532V37.604C326.767 40.88 324.535 43.616 321.007 43.616ZM333.759 45.02C333.759 46.244 334.731 47.18 335.919 47.18C337.143 47.18 338.115 46.244 338.115 45.02V36.272C338.115 33.32 339.879 31.556 342.399 31.556C344.991 31.556 346.467 33.248 346.467 36.2V45.02C346.467 46.244 347.439 47.18 348.663 47.18C349.887 47.18 350.823 46.244 350.823 45.02V34.868C350.823 30.476 348.339 27.596 344.055 27.596C341.103 27.596 339.339 29.144 338.115 30.908V29.972C338.115 28.748 337.143 27.776 335.919 27.776C334.695 27.776 333.759 28.748 333.759 29.972V45.02ZM366.012 47H380.844C381.924 47 382.824 46.136 382.824 45.02C382.824 43.94 381.924 43.04 380.844 43.04H368.208V36.272H379.044C380.124 36.272 381.024 35.408 381.024 34.328C381.024 33.212 380.124 32.312 379.044 32.312H368.208V25.76H380.664C381.744 25.76 382.644 24.896 382.644 23.78C382.644 22.7 381.744 21.8 380.664 21.8H366.012C364.752 21.8 363.78 22.772 363.78 24.032V44.768C363.78 46.028 364.752 47 366.012 47ZM395.645 45.452L401.981 30.908C402.089 30.692 402.233 30.26 402.233 29.864C402.233 28.676 401.297 27.776 400.109 27.776C398.957 27.776 398.381 28.532 398.057 29.288L393.089 41.96L388.193 29.36C387.833 28.46 387.221 27.776 386.033 27.776C384.845 27.776 383.873 28.784 383.873 29.864C383.873 30.26 384.017 30.62 384.125 30.944L390.461 45.452C390.965 46.604 391.757 47.36 392.945 47.36H393.161C394.349 47.36 395.141 46.568 395.645 45.452ZM407.003 36.164C407.399 33.212 409.271 31.16 411.935 31.16C414.815 31.16 416.471 33.356 416.759 36.164H407.003ZM419.279 44.912C419.603 44.588 419.855 44.12 419.855 43.58C419.855 42.572 419.099 41.816 418.127 41.816C417.623 41.816 417.335 41.96 417.011 42.212C415.787 43.22 414.347 43.868 412.511 43.868C409.703 43.868 407.507 42.14 407.039 39.044H418.955C420.071 39.044 421.007 38.18 421.007 36.956C421.007 32.564 418.019 27.596 411.971 27.596C406.535 27.596 402.683 32.06 402.683 37.496V37.568C402.683 43.436 406.931 47.432 412.439 47.432C415.391 47.432 417.551 46.46 419.279 44.912ZM423.653 45.02C423.653 46.244 424.625 47.18 425.813 47.18C427.037 47.18 428.009 46.244 428.009 45.02V36.272C428.009 33.32 429.773 31.556 432.293 31.556C434.885 31.556 436.361 33.248 436.361 36.2V45.02C436.361 46.244 437.333 47.18 438.557 47.18C439.781 47.18 440.717 46.244 440.717 45.02V34.868C440.717 30.476 438.233 27.596 433.949 27.596C430.997 27.596 429.233 29.144 428.009 30.908V29.972C428.009 28.748 427.037 27.776 425.813 27.776C424.589 27.776 423.653 28.748 423.653 29.972V45.02ZM450.549 47.324C451.701 47.324 452.601 47.144 453.537 46.82C454.149 46.568 454.689 45.92 454.689 45.128C454.689 44.12 453.825 43.328 452.853 43.328C452.709 43.328 452.277 43.436 451.773 43.436C450.297 43.436 449.433 42.752 449.433 41.06V31.736H452.853C453.897 31.736 454.761 30.908 454.761 29.864C454.761 28.82 453.897 27.992 452.853 27.992H449.433V24.752C449.433 23.564 448.461 22.592 447.273 22.592C446.049 22.592 445.077 23.564 445.077 24.752V27.992H444.357C443.313 27.992 442.485 28.82 442.485 29.864C442.485 30.908 443.313 31.736 444.357 31.736H445.077V41.744C445.077 45.92 447.345 47.324 450.549 47.324ZM463.694 47.36C467.654 47.36 470.75 45.38 470.75 41.384V41.312C470.75 37.892 467.618 36.632 464.846 35.768C462.614 35.048 460.562 34.472 460.562 33.068V32.996C460.562 31.916 461.534 31.124 463.226 31.124C464.558 31.124 466.142 31.628 467.69 32.42C467.978 32.564 468.194 32.636 468.554 32.636C469.562 32.636 470.354 31.88 470.354 30.872C470.354 30.116 469.922 29.54 469.31 29.216C467.474 28.244 465.35 27.668 463.334 27.668C459.554 27.668 456.566 29.864 456.566 33.464V33.536C456.566 37.172 459.698 38.324 462.506 39.116C464.738 39.8 466.754 40.304 466.754 41.78V41.852C466.754 43.112 465.674 43.904 463.802 43.904C462.074 43.904 460.166 43.292 458.33 42.068C458.078 41.924 457.754 41.816 457.394 41.816C456.386 41.816 455.63 42.608 455.63 43.58C455.63 44.3 455.99 44.84 456.458 45.092C458.654 46.604 461.282 47.36 463.694 47.36Z" fill="#FF0000"/>
</g>
<defs>
<filter id="filter0" x="0.240234" y="0.540039" width="490.51" height="72.4004" filterUnits="userSpaceOnUse" color-interpolation-filters="sRGB">
<feFlood flood-opacity="0" result="BackgroundImageFix"/>
<feBlend mode="normal" in="SourceGraphic" in2="BackgroundImageFix" result="shape"/>
<feGaussianBlur stdDeviation="10" result="effect1_foregroundBlur_803_101"/>
</filter>
</defs>
</svg>
