<svg width="527" height="73" fill="none" xmlns="http://www.w3.org/2000/svg"><path d="M20.24 49.768c0 1.26.972 2.232 2.232 2.232H36.08c1.116 0 2.016-.9 2.016-2.016s-.9-2.016-2.016-2.016H24.668V28.816a2.182 2.182 0 0 0-2.196-2.196c-1.26 0-2.232.972-2.232 2.196v20.952Zm19.913-21.672c0 1.296 1.08 2.16 2.484 2.16s2.484-.864 2.484-2.16v-.216c0-1.296-1.08-2.124-2.484-2.124s-2.484.828-2.484 2.124v.216Zm.324 21.924c0 1.224.972 2.16 2.16 2.16 1.224 0 2.196-.936 2.196-2.16V34.972a2.182 2.182 0 0 0-2.196-2.196c-1.224 0-2.16.972-2.16 2.196V50.02ZM67.41 34.972a2.182 2.182 0 0 0-2.196-2.196c-1.188 0-2.16.972-2.16 2.16v1.008c-1.368-1.8-3.348-3.348-6.48-3.348-4.536 0-8.82 3.564-8.82 9.864v.072c0 6.3 4.356 9.864 8.82 9.864 3.096 0 5.076-1.584 6.48-3.564v6.948c0 1.224.972 2.16 2.196 2.16 1.188 0 2.16-.936 2.16-2.16V34.972Zm-9.792 1.404c2.916 0 5.508 2.412 5.508 6.084v.072c0 3.636-2.592 6.084-5.508 6.084-2.952 0-5.472-2.412-5.472-6.084v-.072c0-3.78 2.484-6.084 5.472-6.084Zm30.344-1.404a2.205 2.205 0 0 0-2.196-2.196 2.182 2.182 0 0 0-2.196 2.196v8.748c0 2.952-1.764 4.68-4.284 4.68-2.592 0-4.068-1.656-4.068-4.608v-8.82a2.182 2.182 0 0 0-2.196-2.196c-1.188 0-2.16.972-2.16 2.196v10.116c0 4.428 2.484 7.308 6.768 7.308 2.952 0 4.716-1.548 5.94-3.348v.972c0 1.224 1.008 2.16 2.196 2.16 1.224 0 2.196-.972 2.196-2.16V34.972Zm3.568-6.876c0 1.296 1.08 2.16 2.484 2.16s2.484-.864 2.484-2.16v-.216c0-1.296-1.08-2.124-2.484-2.124s-2.484.828-2.484 2.124v.216Zm.324 21.924c0 1.224.972 2.16 2.16 2.16 1.224 0 2.196-.936 2.196-2.16V34.972a2.182 2.182 0 0 0-2.196-2.196c-1.224 0-2.16.972-2.16 2.196V50.02Zm26.933-22.32c0-1.224-.972-2.16-2.196-2.16-1.188 0-2.16.936-2.16 2.16v8.244c-1.368-1.8-3.348-3.348-6.48-3.348-4.536 0-8.82 3.564-8.82 9.864v.072c0 6.3 4.356 9.864 8.82 9.864 3.096 0 5.076-1.584 6.48-3.564v1.188c0 1.224.972 2.16 2.196 2.16 1.188 0 2.16-.936 2.16-2.16V27.7Zm-9.792 8.676c2.916 0 5.508 2.412 5.508 6.084v.072c0 3.636-2.592 6.084-5.508 6.084-2.952 0-5.472-2.412-5.472-6.084v-.072c0-3.78 2.484-6.084 5.472-6.084Zm13.389-8.28c0 1.296 1.08 2.16 2.484 2.16s2.484-.864 2.484-2.16v-.216c0-1.296-1.08-2.124-2.484-2.124s-2.484.828-2.484 2.124v.216Zm.324 21.924c0 1.224.972 2.16 2.16 2.16 1.224 0 2.196-.936 2.196-2.16V34.972a2.182 2.182 0 0 0-2.196-2.196c-1.224 0-2.16.972-2.16 2.196V50.02Zm14.62 2.304c1.152 0 2.052-.18 2.988-.504.612-.252 1.152-.9 1.152-1.692 0-1.008-.864-1.8-1.836-1.8-.144 0-.576.108-1.08.108-1.476 0-2.34-.684-2.34-2.376v-9.324h3.42c1.044 0 1.908-.828 1.908-1.872s-.864-1.872-1.908-1.872h-3.42v-3.24c0-1.188-.972-2.16-2.16-2.16-1.224 0-2.196.972-2.196 2.16v3.24h-.72a1.86 1.86 0 0 0-1.872 1.872 1.86 1.86 0 0 0 1.872 1.872h.72v10.008c0 4.176 2.268 5.58 5.472 5.58Zm10.085 5.544c3.06 0 4.788-1.44 6.408-5.328l6.948-16.668c.072-.216.18-.684.18-1.044 0-1.152-.936-2.052-2.088-2.052-1.116 0-1.728.756-2.088 1.656l-4.752 12.636-5.112-12.636c-.396-1.008-1.008-1.656-2.124-1.656-1.224 0-2.16.9-2.16 2.124 0 .288.108.72.252 1.044l7.056 15.768-.144.396c-.72 1.476-1.404 2.016-2.7 2.016-.612 0-1.008-.108-1.512-.252-.216-.072-.432-.144-.792-.144-.936 0-1.764.72-1.764 1.8 0 1.044.72 1.584 1.368 1.8.9.36 1.8.54 3.024.54Zm25.37-8.1c0 1.26.972 2.232 2.232 2.232h9.432c5.616 0 9.324-2.412 9.324-6.912v-.072c0-3.42-2.052-5.112-5.004-6.12 1.872-.972 3.6-2.592 3.6-5.616v-.072c0-1.692-.576-3.06-1.692-4.176-1.44-1.44-3.708-2.232-6.588-2.232h-9.072c-1.26 0-2.232.972-2.232 2.232v20.736Zm4.356-12.348v-6.696h6.372c2.844 0 4.428 1.224 4.428 3.204V34c0 2.304-1.908 3.42-4.752 3.42h-6.048Zm0 10.656v-6.912h7.02c3.492 0 5.184 1.26 5.184 3.384v.072c0 2.268-1.836 3.456-4.86 3.456h-7.344Zm28.356 4.356c5.868 0 10.188-4.5 10.188-9.9v-.072c0-5.436-4.284-9.864-10.116-9.864s-10.152 4.5-10.152 9.936v.072c0 5.4 4.284 9.828 10.08 9.828Zm.072-3.816c-3.384 0-5.796-2.772-5.796-6.084v-.072c0-3.312 2.232-6.048 5.724-6.048 3.42 0 5.832 2.772 5.832 6.12v.072c0 3.276-2.232 6.012-5.76 6.012Zm21.789 3.816c5.868 0 10.188-4.5 10.188-9.9v-.072c0-5.436-4.284-9.864-10.116-9.864s-10.152 4.5-10.152 9.936v.072c0 5.4 4.284 9.828 10.08 9.828Zm.072-3.816c-3.384 0-5.796-2.772-5.796-6.084v-.072c0-3.312 2.232-6.048 5.724-6.048 3.42 0 5.832 2.772 5.832 6.12v.072c0 3.276-2.232 6.012-5.76 6.012Zm19.124 3.708c1.152 0 2.052-.18 2.988-.504.612-.252 1.152-.9 1.152-1.692 0-1.008-.864-1.8-1.836-1.8-.144 0-.576.108-1.08.108-1.476 0-2.34-.684-2.34-2.376v-9.324h3.42c1.044 0 1.908-.828 1.908-1.872s-.864-1.872-1.908-1.872h-3.42v-3.24c0-1.188-.972-2.16-2.16-2.16-1.224 0-2.196.972-2.196 2.16v3.24h-.72a1.86 1.86 0 0 0-1.872 1.872 1.86 1.86 0 0 0 1.872 1.872h.72v10.008c0 4.176 2.268 5.58 5.472 5.58Zm13.145.036c3.96 0 7.056-1.98 7.056-5.976v-.072c0-3.42-3.132-4.68-5.904-5.544-2.232-.72-4.284-1.296-4.284-2.7v-.072c0-1.08.972-1.872 2.664-1.872 1.332 0 2.916.504 4.464 1.296.288.144.504.216.864.216 1.008 0 1.8-.756 1.8-1.764 0-.756-.432-1.332-1.044-1.656-1.836-.972-3.96-1.548-5.976-1.548-3.78 0-6.768 2.196-6.768 5.796v.072c0 3.636 3.132 4.788 5.94 5.58 2.232.684 4.248 1.188 4.248 2.664v.072c0 1.26-1.08 2.052-2.952 2.052-1.728 0-3.636-.612-5.472-1.836a1.9 1.9 0 0 0-.936-.252 1.744 1.744 0 0 0-1.764 1.764c0 .72.36 1.26.828 1.512 2.196 1.512 4.824 2.268 7.236 2.268Zm15.739-.036c1.152 0 2.052-.18 2.988-.504.612-.252 1.152-.9 1.152-1.692 0-1.008-.864-1.8-1.836-1.8-.144 0-.576.108-1.08.108-1.476 0-2.34-.684-2.34-2.376v-9.324h3.42c1.044 0 1.908-.828 1.908-1.872s-.864-1.872-1.908-1.872h-3.42v-3.24c0-1.188-.972-2.16-2.16-2.16-1.224 0-2.196.972-2.196 2.16v3.24h-.72a1.86 1.86 0 0 0-1.872 1.872 1.86 1.86 0 0 0 1.872 1.872h.72v10.008c0 4.176 2.268 5.58 5.472 5.58Zm6.629-2.304c0 1.224.972 2.16 2.16 2.16 1.224 0 2.196-.972 2.196-2.16v-5.616c0-4.5 2.124-6.876 5.22-7.416.972-.18 1.728-.936 1.728-2.088 0-1.26-.792-2.16-2.16-2.16-1.908 0-3.78 1.8-4.788 4.176v-1.944a2.182 2.182 0 0 0-2.196-2.196c-1.224 0-2.16.972-2.16 2.196V50.02Zm17.629 2.376c2.916 0 4.896-1.224 6.192-2.772v.72c0 .972.864 1.836 2.124 1.836 1.188 0 2.124-.9 2.124-2.088v-9.36c0-2.484-.648-4.5-2.052-5.868-1.332-1.368-3.456-2.124-6.3-2.124-2.484 0-4.32.432-6.12 1.116-.648.252-1.188.936-1.188 1.728 0 1.008.828 1.8 1.836 1.8.216 0 .432-.036.684-.108 1.188-.468 2.556-.756 4.212-.756 3.06 0 4.716 1.44 4.716 4.14v.468c-1.476-.468-2.988-.792-5.112-.792-4.644 0-7.848 2.016-7.848 6.12v.072c0 3.816 3.168 5.868 6.732 5.868Zm1.224-3.168c-2.088 0-3.708-1.044-3.708-2.88v-.072c0-1.98 1.656-3.168 4.464-3.168 1.728 0 3.204.324 4.32.756v1.296c0 2.412-2.196 4.068-5.076 4.068Zm12.633 6.552c0 1.224.972 2.16 2.16 2.16 1.224 0 2.196-.936 2.196-2.16v-6.732c1.332 1.764 3.312 3.348 6.48 3.348 4.5 0 8.82-3.564 8.82-9.864v-.072c0-6.336-4.356-9.864-8.82-9.864-3.096 0-5.076 1.584-6.48 3.564v-1.188a2.182 2.182 0 0 0-2.196-2.196c-1.224 0-2.16.972-2.16 2.196V55.78Zm9.792-7.164c-2.952 0-5.544-2.448-5.544-6.084v-.072c0-3.636 2.592-6.084 5.544-6.084 2.952 0 5.436 2.412 5.436 6.084v.072c0 3.744-2.448 6.084-5.436 6.084Zm12.56 7.164c0 1.224.972 2.16 2.16 2.16 1.224 0 2.196-.936 2.196-2.16v-6.732c1.332 1.764 3.312 3.348 6.48 3.348 4.5 0 8.82-3.564 8.82-9.864v-.072c0-6.336-4.356-9.864-8.82-9.864-3.096 0-5.076 1.584-6.48 3.564v-1.188a2.182 2.182 0 0 0-2.196-2.196c-1.224 0-2.16.972-2.16 2.196V55.78Zm9.792-7.164c-2.952 0-5.544-2.448-5.544-6.084v-.072c0-3.636 2.592-6.084 5.544-6.084 2.952 0 5.436 2.412 5.436 6.084v.072c0 3.744-2.448 6.084-5.436 6.084Zm12.489-20.52c0 1.296 1.08 2.16 2.484 2.16s2.484-.864 2.484-2.16v-.216c0-1.296-1.08-2.124-2.484-2.124s-2.484.828-2.484 2.124v.216Zm.324 21.924c0 1.224.972 2.16 2.16 2.16 1.224 0 2.196-.936 2.196-2.16V34.972a2.182 2.182 0 0 0-2.196-2.196c-1.224 0-2.16.972-2.16 2.196V50.02Zm8.248 0c0 1.224.972 2.16 2.16 2.16 1.224 0 2.196-.936 2.196-2.16v-8.748c0-2.952 1.764-4.716 4.284-4.716 2.592 0 4.068 1.692 4.068 4.644v8.82c0 1.224.972 2.16 2.196 2.16 1.224 0 2.16-.936 2.16-2.16V39.868c0-4.392-2.484-7.272-6.768-7.272-2.952 0-4.716 1.548-5.94 3.312v-.936a2.182 2.182 0 0 0-2.196-2.196c-1.224 0-2.16.972-2.16 2.196V50.02Zm28.985 7.812c3.42 0 6.084-.828 7.812-2.556 1.584-1.584 2.412-3.96 2.412-7.164v-13.14a2.182 2.182 0 0 0-2.196-2.196c-1.188 0-2.16.972-2.16 2.16v.9c-1.476-1.764-3.456-3.24-6.66-3.24-4.428 0-8.64 3.312-8.64 8.928v.072c0 5.58 4.176 8.892 8.64 8.892 3.132 0 5.112-1.44 6.696-3.492v1.476c0 3.816-2.124 5.832-6.012 5.832-2.196 0-4.104-.54-5.832-1.512a1.716 1.716 0 0 0-.792-.18c-1.008 0-1.836.828-1.836 1.8 0 .828.468 1.44 1.224 1.728 2.304 1.116 4.68 1.692 7.344 1.692Zm.36-11.052c-2.988 0-5.4-2.124-5.4-5.22v-.072c0-3.132 2.376-5.22 5.4-5.22 3.024 0 5.58 2.124 5.58 5.22v.072c0 3.096-2.556 5.22-5.58 5.22Zm23.029 3.204c0 1.224.972 2.196 2.232 2.196a2.182 2.182 0 0 0 2.196-2.196V43.9h5.004c5.544 0 10.08-2.952 10.08-8.604v-.072c0-5.076-3.672-8.424-9.576-8.424h-7.704c-1.26 0-2.232.972-2.232 2.232v20.952Zm4.428-10.08v-9.072h5.148c3.312 0 5.436 1.548 5.436 4.5v.072c0 2.628-2.088 4.5-5.436 4.5h-5.148Zm26.175 12.528c5.868 0 10.188-4.5 10.188-9.9v-.072c0-5.436-4.284-9.864-10.116-9.864s-10.152 4.5-10.152 9.936v.072c0 5.4 4.284 9.828 10.08 9.828Zm.072-3.816c-3.384 0-5.796-2.772-5.796-6.084v-.072c0-3.312 2.232-6.048 5.724-6.048 3.42 0 5.832 2.772 5.832 6.12v.072c0 3.276-2.232 6.012-5.76 6.012Zm21.788 3.816c5.868 0 10.188-4.5 10.188-9.9v-.072c0-5.436-4.284-9.864-10.116-9.864s-10.152 4.5-10.152 9.936v.072c0 5.4 4.284 9.828 10.08 9.828Zm.072-3.816c-3.384 0-5.796-2.772-5.796-6.084v-.072c0-3.312 2.232-6.048 5.724-6.048 3.42 0 5.832 2.772 5.832 6.12v.072c0 3.276-2.232 6.012-5.76 6.012Zm13.004 1.404c0 1.224.972 2.16 2.16 2.16 1.224 0 2.196-.936 2.196-2.16V27.7c0-1.188-.972-2.16-2.196-2.16-1.224 0-2.16.972-2.16 2.16v22.32Zm14.765 2.34c3.96 0 7.056-1.98 7.056-5.976v-.072c0-3.42-3.132-4.68-5.904-5.544-2.232-.72-4.284-1.296-4.284-2.7v-.072c0-1.08.972-1.872 2.664-1.872 1.332 0 2.916.504 4.464 1.296.288.144.504.216.864.216 1.008 0 1.8-.756 1.8-1.764 0-.756-.432-1.332-1.044-1.656-1.836-.972-3.96-1.548-5.976-1.548-3.78 0-6.768 2.196-6.768 5.796v.072c0 3.636 3.132 4.788 5.94 5.58 2.232.684 4.248 1.188 4.248 2.664v.072c0 1.26-1.08 2.052-2.952 2.052-1.728 0-3.636-.612-5.472-1.836a1.9 1.9 0 0 0-.936-.252 1.744 1.744 0 0 0-1.764 1.764c0 .72.36 1.26.828 1.512 2.196 1.512 4.824 2.268 7.236 2.268Z" fill="#000"/><path d="M20.24 44.768c0 1.26.972 2.232 2.232 2.232H36.08c1.116 0 2.016-.9 2.016-2.016s-.9-2.016-2.016-2.016H24.668V23.816a2.182 2.182 0 0 0-2.196-2.196c-1.26 0-2.232.972-2.232 2.196v20.952Zm19.913-21.672c0 1.296 1.08 2.16 2.484 2.16s2.484-.864 2.484-2.16v-.216c0-1.296-1.08-2.124-2.484-2.124s-2.484.828-2.484 2.124v.216Zm.324 21.924c0 1.224.972 2.16 2.16 2.16 1.224 0 2.196-.936 2.196-2.16V29.972a2.182 2.182 0 0 0-2.196-2.196c-1.224 0-2.16.972-2.16 2.196V45.02ZM67.41 29.972a2.182 2.182 0 0 0-2.196-2.196c-1.188 0-2.16.972-2.16 2.16v1.008c-1.368-1.8-3.348-3.348-6.48-3.348-4.536 0-8.82 3.564-8.82 9.864v.072c0 6.3 4.356 9.864 8.82 9.864 3.096 0 5.076-1.584 6.48-3.564v6.948c0 1.224.972 2.16 2.196 2.16 1.188 0 2.16-.936 2.16-2.16V29.972Zm-9.792 1.404c2.916 0 5.508 2.412 5.508 6.084v.072c0 3.636-2.592 6.084-5.508 6.084-2.952 0-5.472-2.412-5.472-6.084v-.072c0-3.78 2.484-6.084 5.472-6.084Zm30.344-1.404a2.205 2.205 0 0 0-2.196-2.196 2.182 2.182 0 0 0-2.196 2.196v8.748c0 2.952-1.764 4.68-4.284 4.68-2.592 0-4.068-1.656-4.068-4.608v-8.82a2.182 2.182 0 0 0-2.196-2.196c-1.188 0-2.16.972-2.16 2.196v10.116c0 4.428 2.484 7.308 6.768 7.308 2.952 0 4.716-1.548 5.94-3.348v.972c0 1.224 1.008 2.16 2.196 2.16 1.224 0 2.196-.972 2.196-2.16V29.972Zm3.568-6.876c0 1.296 1.08 2.16 2.484 2.16s2.484-.864 2.484-2.16v-.216c0-1.296-1.08-2.124-2.484-2.124s-2.484.828-2.484 2.124v.216Zm.324 21.924c0 1.224.972 2.16 2.16 2.16 1.224 0 2.196-.936 2.196-2.16V29.972a2.182 2.182 0 0 0-2.196-2.196c-1.224 0-2.16.972-2.16 2.196V45.02Zm26.933-22.32c0-1.224-.972-2.16-2.196-2.16-1.188 0-2.16.936-2.16 2.16v8.244c-1.368-1.8-3.348-3.348-6.48-3.348-4.536 0-8.82 3.564-8.82 9.864v.072c0 6.3 4.356 9.864 8.82 9.864 3.096 0 5.076-1.584 6.48-3.564v1.188c0 1.224.972 2.16 2.196 2.16 1.188 0 2.16-.936 2.16-2.16V22.7Zm-9.792 8.676c2.916 0 5.508 2.412 5.508 6.084v.072c0 3.636-2.592 6.084-5.508 6.084-2.952 0-5.472-2.412-5.472-6.084v-.072c0-3.78 2.484-6.084 5.472-6.084Zm13.389-8.28c0 1.296 1.08 2.16 2.484 2.16s2.484-.864 2.484-2.16v-.216c0-1.296-1.08-2.124-2.484-2.124s-2.484.828-2.484 2.124v.216Zm.324 21.924c0 1.224.972 2.16 2.16 2.16 1.224 0 2.196-.936 2.196-2.16V29.972a2.182 2.182 0 0 0-2.196-2.196c-1.224 0-2.16.972-2.16 2.196V45.02Zm14.62 2.304c1.152 0 2.052-.18 2.988-.504.612-.252 1.152-.9 1.152-1.692 0-1.008-.864-1.8-1.836-1.8-.144 0-.576.108-1.08.108-1.476 0-2.34-.684-2.34-2.376v-9.324h3.42c1.044 0 1.908-.828 1.908-1.872s-.864-1.872-1.908-1.872h-3.42v-3.24c0-1.188-.972-2.16-2.16-2.16-1.224 0-2.196.972-2.196 2.16v3.24h-.72a1.86 1.86 0 0 0-1.872 1.872 1.86 1.86 0 0 0 1.872 1.872h.72v10.008c0 4.176 2.268 5.58 5.472 5.58Zm10.085 5.544c3.06 0 4.788-1.44 6.408-5.328l6.948-16.668c.072-.216.18-.684.18-1.044 0-1.152-.936-2.052-2.088-2.052-1.116 0-1.728.756-2.088 1.656l-4.752 12.636-5.112-12.636c-.396-1.008-1.008-1.656-2.124-1.656-1.224 0-2.16.9-2.16 2.124 0 .288.108.72.252 1.044l7.056 15.768-.144.396c-.72 1.476-1.404 2.016-2.7 2.016-.612 0-1.008-.108-1.512-.252-.216-.072-.432-.144-.792-.144-.936 0-1.764.72-1.764 1.8 0 1.044.72 1.584 1.368 1.8.9.36 1.8.54 3.024.54Z" fill="#00E59D"/><path d="M172.783 44.768c0 1.26.972 2.232 2.232 2.232h9.432c5.616 0 9.324-2.412 9.324-6.912v-.072c0-3.42-2.052-5.112-5.004-6.12 1.872-.972 3.6-2.592 3.6-5.616v-.072c0-1.692-.576-3.06-1.692-4.176-1.44-1.44-3.708-2.232-6.588-2.232h-9.072c-1.26 0-2.232.972-2.232 2.232v20.736Zm4.356-12.348v-6.696h6.372c2.844 0 4.428 1.224 4.428 3.204V29c0 2.304-1.908 3.42-4.752 3.42h-6.048Zm0 10.656v-6.912h7.02c3.492 0 5.184 1.26 5.184 3.384v.072c0 2.268-1.836 3.456-4.86 3.456h-7.344Zm28.356 4.356c5.868 0 10.188-4.5 10.188-9.9v-.072c0-5.436-4.284-9.864-10.116-9.864s-10.152 4.5-10.152 9.936v.072c0 5.4 4.284 9.828 10.08 9.828Zm.072-3.816c-3.384 0-5.796-2.772-5.796-6.084v-.072c0-3.312 2.232-6.048 5.724-6.048 3.42 0 5.832 2.772 5.832 6.12v.072c0 3.276-2.232 6.012-5.76 6.012Zm21.789 3.816c5.868 0 10.188-4.5 10.188-9.9v-.072c0-5.436-4.284-9.864-10.116-9.864s-10.152 4.5-10.152 9.936v.072c0 5.4 4.284 9.828 10.08 9.828Zm.072-3.816c-3.384 0-5.796-2.772-5.796-6.084v-.072c0-3.312 2.232-6.048 5.724-6.048 3.42 0 5.832 2.772 5.832 6.12v.072c0 3.276-2.232 6.012-5.76 6.012Zm19.124 3.708c1.152 0 2.052-.18 2.988-.504.612-.252 1.152-.9 1.152-1.692 0-1.008-.864-1.8-1.836-1.8-.144 0-.576.108-1.08.108-1.476 0-2.34-.684-2.34-2.376v-9.324h3.42c1.044 0 1.908-.828 1.908-1.872s-.864-1.872-1.908-1.872h-3.42v-3.24c0-1.188-.972-2.16-2.16-2.16-1.224 0-2.196.972-2.196 2.16v3.24h-.72a1.86 1.86 0 0 0-1.872 1.872 1.86 1.86 0 0 0 1.872 1.872h.72v10.008c0 4.176 2.268 5.58 5.472 5.58Zm13.145.036c3.96 0 7.056-1.98 7.056-5.976v-.072c0-3.42-3.132-4.68-5.904-5.544-2.232-.72-4.284-1.296-4.284-2.7v-.072c0-1.08.972-1.872 2.664-1.872 1.332 0 2.916.504 4.464 1.296.288.144.504.216.864.216 1.008 0 1.8-.756 1.8-1.764 0-.756-.432-1.332-1.044-1.656-1.836-.972-3.96-1.548-5.976-1.548-3.78 0-6.768 2.196-6.768 5.796v.072c0 3.636 3.132 4.788 5.94 5.58 2.232.684 4.248 1.188 4.248 2.664v.072c0 1.26-1.08 2.052-2.952 2.052-1.728 0-3.636-.612-5.472-1.836a1.9 1.9 0 0 0-.936-.252 1.744 1.744 0 0 0-1.764 1.764c0 .72.36 1.26.828 1.512 2.196 1.512 4.824 2.268 7.236 2.268Zm15.739-.036c1.152 0 2.052-.18 2.988-.504.612-.252 1.152-.9 1.152-1.692 0-1.008-.864-1.8-1.836-1.8-.144 0-.576.108-1.08.108-1.476 0-2.34-.684-2.34-2.376v-9.324h3.42c1.044 0 1.908-.828 1.908-1.872s-.864-1.872-1.908-1.872h-3.42v-3.24c0-1.188-.972-2.16-2.16-2.16-1.224 0-2.196.972-2.196 2.16v3.24h-.72a1.86 1.86 0 0 0-1.872 1.872 1.86 1.86 0 0 0 1.872 1.872h.72v10.008c0 4.176 2.268 5.58 5.472 5.58Zm6.629-2.304c0 1.224.972 2.16 2.16 2.16 1.224 0 2.196-.972 2.196-2.16v-5.616c0-4.5 2.124-6.876 5.22-7.416.972-.18 1.728-.936 1.728-2.088 0-1.26-.792-2.16-2.16-2.16-1.908 0-3.78 1.8-4.788 4.176v-1.944a2.182 2.182 0 0 0-2.196-2.196c-1.224 0-2.16.972-2.16 2.196V45.02Zm17.629 2.376c2.916 0 4.896-1.224 6.192-2.772v.72c0 .972.864 1.836 2.124 1.836 1.188 0 2.124-.9 2.124-2.088v-9.36c0-2.484-.648-4.5-2.052-5.868-1.332-1.368-3.456-2.124-6.3-2.124-2.484 0-4.32.432-6.12 1.116-.648.252-1.188.936-1.188 1.728 0 1.008.828 1.8 1.836 1.8.216 0 .432-.036.684-.108 1.188-.468 2.556-.756 4.212-.756 3.06 0 4.716 1.44 4.716 4.14v.468c-1.476-.468-2.988-.792-5.112-.792-4.644 0-7.848 2.016-7.848 6.12v.072c0 3.816 3.168 5.868 6.732 5.868Zm1.224-3.168c-2.088 0-3.708-1.044-3.708-2.88v-.072c0-1.98 1.656-3.168 4.464-3.168 1.728 0 3.204.324 4.32.756v1.296c0 2.412-2.196 4.068-5.076 4.068Zm12.633 6.552c0 1.224.972 2.16 2.16 2.16 1.224 0 2.196-.936 2.196-2.16v-6.732c1.332 1.764 3.312 3.348 6.48 3.348 4.5 0 8.82-3.564 8.82-9.864v-.072c0-6.336-4.356-9.864-8.82-9.864-3.096 0-5.076 1.584-6.48 3.564v-1.188a2.182 2.182 0 0 0-2.196-2.196c-1.224 0-2.16.972-2.16 2.196V50.78Zm9.792-7.164c-2.952 0-5.544-2.448-5.544-6.084v-.072c0-3.636 2.592-6.084 5.544-6.084 2.952 0 5.436 2.412 5.436 6.084v.072c0 3.744-2.448 6.084-5.436 6.084Zm12.56 7.164c0 1.224.972 2.16 2.16 2.16 1.224 0 2.196-.936 2.196-2.16v-6.732c1.332 1.764 3.312 3.348 6.48 3.348 4.5 0 8.82-3.564 8.82-9.864v-.072c0-6.336-4.356-9.864-8.82-9.864-3.096 0-5.076 1.584-6.48 3.564v-1.188a2.182 2.182 0 0 0-2.196-2.196c-1.224 0-2.16.972-2.16 2.196V50.78Zm9.792-7.164c-2.952 0-5.544-2.448-5.544-6.084v-.072c0-3.636 2.592-6.084 5.544-6.084 2.952 0 5.436 2.412 5.436 6.084v.072c0 3.744-2.448 6.084-5.436 6.084Zm12.489-20.52c0 1.296 1.08 2.16 2.484 2.16s2.484-.864 2.484-2.16v-.216c0-1.296-1.08-2.124-2.484-2.124s-2.484.828-2.484 2.124v.216Zm.324 21.924c0 1.224.972 2.16 2.16 2.16 1.224 0 2.196-.936 2.196-2.16V29.972a2.182 2.182 0 0 0-2.196-2.196c-1.224 0-2.16.972-2.16 2.196V45.02Zm8.248 0c0 1.224.972 2.16 2.16 2.16 1.224 0 2.196-.936 2.196-2.16v-8.748c0-2.952 1.764-4.716 4.284-4.716 2.592 0 4.068 1.692 4.068 4.644v8.82c0 1.224.972 2.16 2.196 2.16 1.224 0 2.16-.936 2.16-2.16V34.868c0-4.392-2.484-7.272-6.768-7.272-2.952 0-4.716 1.548-5.94 3.312v-.936a2.182 2.182 0 0 0-2.196-2.196c-1.224 0-2.16.972-2.16 2.196V45.02Zm28.985 7.812c3.42 0 6.084-.828 7.812-2.556 1.584-1.584 2.412-3.96 2.412-7.164v-13.14a2.182 2.182 0 0 0-2.196-2.196c-1.188 0-2.16.972-2.16 2.16v.9c-1.476-1.764-3.456-3.24-6.66-3.24-4.428 0-8.64 3.312-8.64 8.928v.072c0 5.58 4.176 8.892 8.64 8.892 3.132 0 5.112-1.44 6.696-3.492v1.476c0 3.816-2.124 5.832-6.012 5.832-2.196 0-4.104-.54-5.832-1.512a1.716 1.716 0 0 0-.792-.18c-1.008 0-1.836.828-1.836 1.8 0 .828.468 1.44 1.224 1.728 2.304 1.116 4.68 1.692 7.344 1.692Zm.36-11.052c-2.988 0-5.4-2.124-5.4-5.22v-.072c0-3.132 2.376-5.22 5.4-5.22 3.024 0 5.58 2.124 5.58 5.22v.072c0 3.096-2.556 5.22-5.58 5.22Zm23.029 3.204c0 1.224.972 2.196 2.232 2.196a2.182 2.182 0 0 0 2.196-2.196V38.9h5.004c5.544 0 10.08-2.952 10.08-8.604v-.072c0-5.076-3.672-8.424-9.576-8.424h-7.704c-1.26 0-2.232.972-2.232 2.232v20.952Zm4.428-10.08v-9.072h5.148c3.312 0 5.436 1.548 5.436 4.5v.072c0 2.628-2.088 4.5-5.436 4.5h-5.148Zm26.175 12.528c5.868 0 10.188-4.5 10.188-9.9v-.072c0-5.436-4.284-9.864-10.116-9.864s-10.152 4.5-10.152 9.936v.072c0 5.4 4.284 9.828 10.08 9.828Zm.072-3.816c-3.384 0-5.796-2.772-5.796-6.084v-.072c0-3.312 2.232-6.048 5.724-6.048 3.42 0 5.832 2.772 5.832 6.12v.072c0 3.276-2.232 6.012-5.76 6.012Zm21.788 3.816c5.868 0 10.188-4.5 10.188-9.9v-.072c0-5.436-4.284-9.864-10.116-9.864s-10.152 4.5-10.152 9.936v.072c0 5.4 4.284 9.828 10.08 9.828Zm.072-3.816c-3.384 0-5.796-2.772-5.796-6.084v-.072c0-3.312 2.232-6.048 5.724-6.048 3.42 0 5.832 2.772 5.832 6.12v.072c0 3.276-2.232 6.012-5.76 6.012Zm13.004 1.404c0 1.224.972 2.16 2.16 2.16 1.224 0 2.196-.936 2.196-2.16V22.7c0-1.188-.972-2.16-2.196-2.16-1.224 0-2.16.972-2.16 2.16v22.32Zm14.765 2.34c3.96 0 7.056-1.98 7.056-5.976v-.072c0-3.42-3.132-4.68-5.904-5.544-2.232-.72-4.284-1.296-4.284-2.7v-.072c0-1.08.972-1.872 2.664-1.872 1.332 0 2.916.504 4.464 1.296.288.144.504.216.864.216 1.008 0 1.8-.756 1.8-1.764 0-.756-.432-1.332-1.044-1.656-1.836-.972-3.96-1.548-5.976-1.548-3.78 0-6.768 2.196-6.768 5.796v.072c0 3.636 3.132 4.788 5.94 5.58 2.232.684 4.248 1.188 4.248 2.664v.072c0 1.26-1.08 2.052-2.952 2.052-1.728 0-3.636-.612-5.472-1.836a1.9 1.9 0 0 0-.936-.252 1.744 1.744 0 0 0-1.764 1.764c0 .72.36 1.26.828 1.512 2.196 1.512 4.824 2.268 7.236 2.268Z" fill="red"/><g filter="url(#a)"><path d="M20.24 44.768c0 1.26.972 2.232 2.232 2.232H36.08c1.116 0 2.016-.9 2.016-2.016s-.9-2.016-2.016-2.016H24.668V23.816a2.182 2.182 0 0 0-2.196-2.196c-1.26 0-2.232.972-2.232 2.196v20.952Zm19.913-21.672c0 1.296 1.08 2.16 2.484 2.16s2.484-.864 2.484-2.16v-.216c0-1.296-1.08-2.124-2.484-2.124s-2.484.828-2.484 2.124v.216Zm.324 21.924c0 1.224.972 2.16 2.16 2.16 1.224 0 2.196-.936 2.196-2.16V29.972a2.182 2.182 0 0 0-2.196-2.196c-1.224 0-2.16.972-2.16 2.196V45.02ZM67.41 29.972a2.182 2.182 0 0 0-2.196-2.196c-1.188 0-2.16.972-2.16 2.16v1.008c-1.368-1.8-3.348-3.348-6.48-3.348-4.536 0-8.82 3.564-8.82 9.864v.072c0 6.3 4.356 9.864 8.82 9.864 3.096 0 5.076-1.584 6.48-3.564v6.948c0 1.224.972 2.16 2.196 2.16 1.188 0 2.16-.936 2.16-2.16V29.972Zm-9.792 1.404c2.916 0 5.508 2.412 5.508 6.084v.072c0 3.636-2.592 6.084-5.508 6.084-2.952 0-5.472-2.412-5.472-6.084v-.072c0-3.78 2.484-6.084 5.472-6.084Zm30.344-1.404a2.205 2.205 0 0 0-2.196-2.196 2.182 2.182 0 0 0-2.196 2.196v8.748c0 2.952-1.764 4.68-4.284 4.68-2.592 0-4.068-1.656-4.068-4.608v-8.82a2.182 2.182 0 0 0-2.196-2.196c-1.188 0-2.16.972-2.16 2.196v10.116c0 4.428 2.484 7.308 6.768 7.308 2.952 0 4.716-1.548 5.94-3.348v.972c0 1.224 1.008 2.16 2.196 2.16 1.224 0 2.196-.972 2.196-2.16V29.972Zm3.568-6.876c0 1.296 1.08 2.16 2.484 2.16s2.484-.864 2.484-2.16v-.216c0-1.296-1.08-2.124-2.484-2.124s-2.484.828-2.484 2.124v.216Zm.324 21.924c0 1.224.972 2.16 2.16 2.16 1.224 0 2.196-.936 2.196-2.16V29.972a2.182 2.182 0 0 0-2.196-2.196c-1.224 0-2.16.972-2.16 2.196V45.02Zm26.933-22.32c0-1.224-.972-2.16-2.196-2.16-1.188 0-2.16.936-2.16 2.16v8.244c-1.368-1.8-3.348-3.348-6.48-3.348-4.536 0-8.82 3.564-8.82 9.864v.072c0 6.3 4.356 9.864 8.82 9.864 3.096 0 5.076-1.584 6.48-3.564v1.188c0 1.224.972 2.16 2.196 2.16 1.188 0 2.16-.936 2.16-2.16V22.7Zm-9.792 8.676c2.916 0 5.508 2.412 5.508 6.084v.072c0 3.636-2.592 6.084-5.508 6.084-2.952 0-5.472-2.412-5.472-6.084v-.072c0-3.78 2.484-6.084 5.472-6.084Zm13.389-8.28c0 1.296 1.08 2.16 2.484 2.16s2.484-.864 2.484-2.16v-.216c0-1.296-1.08-2.124-2.484-2.124s-2.484.828-2.484 2.124v.216Zm.324 21.924c0 1.224.972 2.16 2.16 2.16 1.224 0 2.196-.936 2.196-2.16V29.972a2.182 2.182 0 0 0-2.196-2.196c-1.224 0-2.16.972-2.16 2.196V45.02Zm14.62 2.304c1.152 0 2.052-.18 2.988-.504.612-.252 1.152-.9 1.152-1.692 0-1.008-.864-1.8-1.836-1.8-.144 0-.576.108-1.08.108-1.476 0-2.34-.684-2.34-2.376v-9.324h3.42c1.044 0 1.908-.828 1.908-1.872s-.864-1.872-1.908-1.872h-3.42v-3.24c0-1.188-.972-2.16-2.16-2.16-1.224 0-2.196.972-2.196 2.16v3.24h-.72a1.86 1.86 0 0 0-1.872 1.872 1.86 1.86 0 0 0 1.872 1.872h.72v10.008c0 4.176 2.268 5.58 5.472 5.58Zm10.085 5.544c3.06 0 4.788-1.44 6.408-5.328l6.948-16.668c.072-.216.18-.684.18-1.044 0-1.152-.936-2.052-2.088-2.052-1.116 0-1.728.756-2.088 1.656l-4.752 12.636-5.112-12.636c-.396-1.008-1.008-1.656-2.124-1.656-1.224 0-2.16.9-2.16 2.124 0 .288.108.72.252 1.044l7.056 15.768-.144.396c-.72 1.476-1.404 2.016-2.7 2.016-.612 0-1.008-.108-1.512-.252-.216-.072-.432-.144-.792-.144-.936 0-1.764.72-1.764 1.8 0 1.044.72 1.584 1.368 1.8.9.36 1.8.54 3.024.54Z" fill="#00E59D"/><path d="M172.783 44.768c0 1.26.972 2.232 2.232 2.232h9.432c5.616 0 9.324-2.412 9.324-6.912v-.072c0-3.42-2.052-5.112-5.004-6.12 1.872-.972 3.6-2.592 3.6-5.616v-.072c0-1.692-.576-3.06-1.692-4.176-1.44-1.44-3.708-2.232-6.588-2.232h-9.072c-1.26 0-2.232.972-2.232 2.232v20.736Zm4.356-12.348v-6.696h6.372c2.844 0 4.428 1.224 4.428 3.204V29c0 2.304-1.908 3.42-4.752 3.42h-6.048Zm0 10.656v-6.912h7.02c3.492 0 5.184 1.26 5.184 3.384v.072c0 2.268-1.836 3.456-4.86 3.456h-7.344Zm28.356 4.356c5.868 0 10.188-4.5 10.188-9.9v-.072c0-5.436-4.284-9.864-10.116-9.864s-10.152 4.5-10.152 9.936v.072c0 5.4 4.284 9.828 10.08 9.828Zm.072-3.816c-3.384 0-5.796-2.772-5.796-6.084v-.072c0-3.312 2.232-6.048 5.724-6.048 3.42 0 5.832 2.772 5.832 6.12v.072c0 3.276-2.232 6.012-5.76 6.012Zm21.789 3.816c5.868 0 10.188-4.5 10.188-9.9v-.072c0-5.436-4.284-9.864-10.116-9.864s-10.152 4.5-10.152 9.936v.072c0 5.4 4.284 9.828 10.08 9.828Zm.072-3.816c-3.384 0-5.796-2.772-5.796-6.084v-.072c0-3.312 2.232-6.048 5.724-6.048 3.42 0 5.832 2.772 5.832 6.12v.072c0 3.276-2.232 6.012-5.76 6.012Zm19.124 3.708c1.152 0 2.052-.18 2.988-.504.612-.252 1.152-.9 1.152-1.692 0-1.008-.864-1.8-1.836-1.8-.144 0-.576.108-1.08.108-1.476 0-2.34-.684-2.34-2.376v-9.324h3.42c1.044 0 1.908-.828 1.908-1.872s-.864-1.872-1.908-1.872h-3.42v-3.24c0-1.188-.972-2.16-2.16-2.16-1.224 0-2.196.972-2.196 2.16v3.24h-.72a1.86 1.86 0 0 0-1.872 1.872 1.86 1.86 0 0 0 1.872 1.872h.72v10.008c0 4.176 2.268 5.58 5.472 5.58Zm13.145.036c3.96 0 7.056-1.98 7.056-5.976v-.072c0-3.42-3.132-4.68-5.904-5.544-2.232-.72-4.284-1.296-4.284-2.7v-.072c0-1.08.972-1.872 2.664-1.872 1.332 0 2.916.504 4.464 1.296.288.144.504.216.864.216 1.008 0 1.8-.756 1.8-1.764 0-.756-.432-1.332-1.044-1.656-1.836-.972-3.96-1.548-5.976-1.548-3.78 0-6.768 2.196-6.768 5.796v.072c0 3.636 3.132 4.788 5.94 5.58 2.232.684 4.248 1.188 4.248 2.664v.072c0 1.26-1.08 2.052-2.952 2.052-1.728 0-3.636-.612-5.472-1.836a1.9 1.9 0 0 0-.936-.252 1.744 1.744 0 0 0-1.764 1.764c0 .72.36 1.26.828 1.512 2.196 1.512 4.824 2.268 7.236 2.268Zm15.739-.036c1.152 0 2.052-.18 2.988-.504.612-.252 1.152-.9 1.152-1.692 0-1.008-.864-1.8-1.836-1.8-.144 0-.576.108-1.08.108-1.476 0-2.34-.684-2.34-2.376v-9.324h3.42c1.044 0 1.908-.828 1.908-1.872s-.864-1.872-1.908-1.872h-3.42v-3.24c0-1.188-.972-2.16-2.16-2.16-1.224 0-2.196.972-2.196 2.16v3.24h-.72a1.86 1.86 0 0 0-1.872 1.872 1.86 1.86 0 0 0 1.872 1.872h.72v10.008c0 4.176 2.268 5.58 5.472 5.58Zm6.629-2.304c0 1.224.972 2.16 2.16 2.16 1.224 0 2.196-.972 2.196-2.16v-5.616c0-4.5 2.124-6.876 5.22-7.416.972-.18 1.728-.936 1.728-2.088 0-1.26-.792-2.16-2.16-2.16-1.908 0-3.78 1.8-4.788 4.176v-1.944a2.182 2.182 0 0 0-2.196-2.196c-1.224 0-2.16.972-2.16 2.196V45.02Zm17.629 2.376c2.916 0 4.896-1.224 6.192-2.772v.72c0 .972.864 1.836 2.124 1.836 1.188 0 2.124-.9 2.124-2.088v-9.36c0-2.484-.648-4.5-2.052-5.868-1.332-1.368-3.456-2.124-6.3-2.124-2.484 0-4.32.432-6.12 1.116-.648.252-1.188.936-1.188 1.728 0 1.008.828 1.8 1.836 1.8.216 0 .432-.036.684-.108 1.188-.468 2.556-.756 4.212-.756 3.06 0 4.716 1.44 4.716 4.14v.468c-1.476-.468-2.988-.792-5.112-.792-4.644 0-7.848 2.016-7.848 6.12v.072c0 3.816 3.168 5.868 6.732 5.868Zm1.224-3.168c-2.088 0-3.708-1.044-3.708-2.88v-.072c0-1.98 1.656-3.168 4.464-3.168 1.728 0 3.204.324 4.32.756v1.296c0 2.412-2.196 4.068-5.076 4.068Zm12.633 6.552c0 1.224.972 2.16 2.16 2.16 1.224 0 2.196-.936 2.196-2.16v-6.732c1.332 1.764 3.312 3.348 6.48 3.348 4.5 0 8.82-3.564 8.82-9.864v-.072c0-6.336-4.356-9.864-8.82-9.864-3.096 0-5.076 1.584-6.48 3.564v-1.188a2.182 2.182 0 0 0-2.196-2.196c-1.224 0-2.16.972-2.16 2.196V50.78Zm9.792-7.164c-2.952 0-5.544-2.448-5.544-6.084v-.072c0-3.636 2.592-6.084 5.544-6.084 2.952 0 5.436 2.412 5.436 6.084v.072c0 3.744-2.448 6.084-5.436 6.084Zm12.56 7.164c0 1.224.972 2.16 2.16 2.16 1.224 0 2.196-.936 2.196-2.16v-6.732c1.332 1.764 3.312 3.348 6.48 3.348 4.5 0 8.82-3.564 8.82-9.864v-.072c0-6.336-4.356-9.864-8.82-9.864-3.096 0-5.076 1.584-6.48 3.564v-1.188a2.182 2.182 0 0 0-2.196-2.196c-1.224 0-2.16.972-2.16 2.196V50.78Zm9.792-7.164c-2.952 0-5.544-2.448-5.544-6.084v-.072c0-3.636 2.592-6.084 5.544-6.084 2.952 0 5.436 2.412 5.436 6.084v.072c0 3.744-2.448 6.084-5.436 6.084Zm12.489-20.52c0 1.296 1.08 2.16 2.484 2.16s2.484-.864 2.484-2.16v-.216c0-1.296-1.08-2.124-2.484-2.124s-2.484.828-2.484 2.124v.216Zm.324 21.924c0 1.224.972 2.16 2.16 2.16 1.224 0 2.196-.936 2.196-2.16V29.972a2.182 2.182 0 0 0-2.196-2.196c-1.224 0-2.16.972-2.16 2.196V45.02Zm8.248 0c0 1.224.972 2.16 2.16 2.16 1.224 0 2.196-.936 2.196-2.16v-8.748c0-2.952 1.764-4.716 4.284-4.716 2.592 0 4.068 1.692 4.068 4.644v8.82c0 1.224.972 2.16 2.196 2.16 1.224 0 2.16-.936 2.16-2.16V34.868c0-4.392-2.484-7.272-6.768-7.272-2.952 0-4.716 1.548-5.94 3.312v-.936a2.182 2.182 0 0 0-2.196-2.196c-1.224 0-2.16.972-2.16 2.196V45.02Zm28.985 7.812c3.42 0 6.084-.828 7.812-2.556 1.584-1.584 2.412-3.96 2.412-7.164v-13.14a2.182 2.182 0 0 0-2.196-2.196c-1.188 0-2.16.972-2.16 2.16v.9c-1.476-1.764-3.456-3.24-6.66-3.24-4.428 0-8.64 3.312-8.64 8.928v.072c0 5.58 4.176 8.892 8.64 8.892 3.132 0 5.112-1.44 6.696-3.492v1.476c0 3.816-2.124 5.832-6.012 5.832-2.196 0-4.104-.54-5.832-1.512a1.716 1.716 0 0 0-.792-.18c-1.008 0-1.836.828-1.836 1.8 0 .828.468 1.44 1.224 1.728 2.304 1.116 4.68 1.692 7.344 1.692Zm.36-11.052c-2.988 0-5.4-2.124-5.4-5.22v-.072c0-3.132 2.376-5.22 5.4-5.22 3.024 0 5.58 2.124 5.58 5.22v.072c0 3.096-2.556 5.22-5.58 5.22Zm23.029 3.204c0 1.224.972 2.196 2.232 2.196a2.182 2.182 0 0 0 2.196-2.196V38.9h5.004c5.544 0 10.08-2.952 10.08-8.604v-.072c0-5.076-3.672-8.424-9.576-8.424h-7.704c-1.26 0-2.232.972-2.232 2.232v20.952Zm4.428-10.08v-9.072h5.148c3.312 0 5.436 1.548 5.436 4.5v.072c0 2.628-2.088 4.5-5.436 4.5h-5.148Zm26.175 12.528c5.868 0 10.188-4.5 10.188-9.9v-.072c0-5.436-4.284-9.864-10.116-9.864s-10.152 4.5-10.152 9.936v.072c0 5.4 4.284 9.828 10.08 9.828Zm.072-3.816c-3.384 0-5.796-2.772-5.796-6.084v-.072c0-3.312 2.232-6.048 5.724-6.048 3.42 0 5.832 2.772 5.832 6.12v.072c0 3.276-2.232 6.012-5.76 6.012Zm21.788 3.816c5.868 0 10.188-4.5 10.188-9.9v-.072c0-5.436-4.284-9.864-10.116-9.864s-10.152 4.5-10.152 9.936v.072c0 5.4 4.284 9.828 10.08 9.828Zm.072-3.816c-3.384 0-5.796-2.772-5.796-6.084v-.072c0-3.312 2.232-6.048 5.724-6.048 3.42 0 5.832 2.772 5.832 6.12v.072c0 3.276-2.232 6.012-5.76 6.012Zm13.004 1.404c0 1.224.972 2.16 2.16 2.16 1.224 0 2.196-.936 2.196-2.16V22.7c0-1.188-.972-2.16-2.196-2.16-1.224 0-2.16.972-2.16 2.16v22.32Zm14.765 2.34c3.96 0 7.056-1.98 7.056-5.976v-.072c0-3.42-3.132-4.68-5.904-5.544-2.232-.72-4.284-1.296-4.284-2.7v-.072c0-1.08.972-1.872 2.664-1.872 1.332 0 2.916.504 4.464 1.296.288.144.504.216.864.216 1.008 0 1.8-.756 1.8-1.764 0-.756-.432-1.332-1.044-1.656-1.836-.972-3.96-1.548-5.976-1.548-3.78 0-6.768 2.196-6.768 5.796v.072c0 3.636 3.132 4.788 5.94 5.58 2.232.684 4.248 1.188 4.248 2.664v.072c0 1.26-1.08 2.052-2.952 2.052-1.728 0-3.636-.612-5.472-1.836a1.9 1.9 0 0 0-.936-.252 1.744 1.744 0 0 0-1.764 1.764c0 .72.36 1.26.828 1.512 2.196 1.512 4.824 2.268 7.236 2.268Z" fill="red"/></g><defs><filter id="a" x=".24" y=".54" width="526.25" height="72.4" filterUnits="userSpaceOnUse" color-interpolation-filters="sRGB"><feFlood flood-opacity="0" result="BackgroundImageFix"/><feBlend in="SourceGraphic" in2="BackgroundImageFix" result="shape"/><feGaussianBlur stdDeviation="10" result="effect1_foregroundBlur_1107_101"/></filter></defs></svg>