<svg width="383" height="68" viewBox="0 0 383 68" fill="none" xmlns="http://www.w3.org/2000/svg">
<path d="M20.24 49.984C20.24 51.208 21.212 52.18 22.472 52.18C23.696 52.18 24.668 51.208 24.668 49.984V41.74H35.54C36.656 41.74 37.556 40.84 37.556 39.724C37.556 38.608 36.656 37.708 35.54 37.708H24.668V30.832H37.16C38.276 30.832 39.176 29.932 39.176 28.816C39.176 27.7 38.276 26.8 37.16 26.8H22.472C21.212 26.8 20.24 27.772 20.24 29.032V49.984ZM46.1189 52.396C49.0349 52.396 51.0149 51.172 52.3109 49.624V50.344C52.3109 51.316 53.1749 52.18 54.4349 52.18C55.6229 52.18 56.5589 51.28 56.5589 50.092V40.732C56.5589 38.248 55.9109 36.232 54.5069 34.864C53.1749 33.496 51.0509 32.74 48.2069 32.74C45.7229 32.74 43.8869 33.172 42.0869 33.856C41.4389 34.108 40.8989 34.792 40.8989 35.584C40.8989 36.592 41.7269 37.384 42.7349 37.384C42.9509 37.384 43.1669 37.348 43.4189 37.276C44.6069 36.808 45.9749 36.52 47.6309 36.52C50.6909 36.52 52.3469 37.96 52.3469 40.66V41.128C50.8709 40.66 49.3589 40.336 47.2349 40.336C42.5909 40.336 39.3869 42.352 39.3869 46.456V46.528C39.3869 50.344 42.5549 52.396 46.1189 52.396ZM47.3429 49.228C45.2549 49.228 43.6349 48.184 43.6349 46.348V46.276C43.6349 44.296 45.2909 43.108 48.0989 43.108C49.8269 43.108 51.3029 43.432 52.4189 43.864V45.16C52.4189 47.572 50.2229 49.228 47.3429 49.228ZM59.9038 28.096C59.9038 29.392 60.9838 30.256 62.3878 30.256C63.7918 30.256 64.8718 29.392 64.8718 28.096V27.88C64.8718 26.584 63.7918 25.756 62.3878 25.756C60.9838 25.756 59.9038 26.584 59.9038 27.88V28.096ZM60.2278 50.02C60.2278 51.244 61.1998 52.18 62.3878 52.18C63.6118 52.18 64.5838 51.244 64.5838 50.02V34.972C64.5838 33.748 63.6118 32.776 62.3878 32.776C61.1638 32.776 60.2278 33.748 60.2278 34.972V50.02ZM68.4766 50.02C68.4766 51.244 69.4486 52.18 70.6366 52.18C71.8606 52.18 72.8326 51.208 72.8326 50.02V44.404C72.8326 39.904 74.9566 37.528 78.0526 36.988C79.0246 36.808 79.7806 36.052 79.7806 34.9C79.7806 33.64 78.9886 32.74 77.6206 32.74C75.7126 32.74 73.8406 34.54 72.8326 36.916V34.972C72.8326 33.748 71.8606 32.776 70.6366 32.776C69.4126 32.776 68.4766 33.748 68.4766 34.972V50.02ZM91.0447 49.768C91.0447 51.028 92.0167 52 93.2767 52H106.885C108.001 52 108.901 51.1 108.901 49.984C108.901 48.868 108.001 47.968 106.885 47.968H95.4727V28.816C95.4727 27.592 94.5007 26.62 93.2767 26.62C92.0167 26.62 91.0447 27.592 91.0447 28.816V49.768ZM116.502 52.396C119.418 52.396 121.398 51.172 122.694 49.624V50.344C122.694 51.316 123.558 52.18 124.818 52.18C126.006 52.18 126.942 51.28 126.942 50.092V40.732C126.942 38.248 126.294 36.232 124.89 34.864C123.558 33.496 121.434 32.74 118.59 32.74C116.106 32.74 114.27 33.172 112.47 33.856C111.822 34.108 111.282 34.792 111.282 35.584C111.282 36.592 112.11 37.384 113.118 37.384C113.334 37.384 113.55 37.348 113.802 37.276C114.99 36.808 116.358 36.52 118.014 36.52C121.074 36.52 122.73 37.96 122.73 40.66V41.128C121.254 40.66 119.742 40.336 117.618 40.336C112.974 40.336 109.77 42.352 109.77 46.456V46.528C109.77 50.344 112.938 52.396 116.502 52.396ZM117.726 49.228C115.638 49.228 114.018 48.184 114.018 46.348V46.276C114.018 44.296 115.674 43.108 118.482 43.108C120.21 43.108 121.686 43.432 122.802 43.864V45.16C122.802 47.572 120.606 49.228 117.726 49.228ZM147.243 34.972C147.243 33.748 146.235 32.776 145.047 32.776C143.823 32.776 142.851 33.748 142.851 34.972V43.72C142.851 46.672 141.087 48.4 138.567 48.4C135.975 48.4 134.499 46.744 134.499 43.792V34.972C134.499 33.748 133.527 32.776 132.303 32.776C131.115 32.776 130.143 33.748 130.143 34.972V45.088C130.143 49.516 132.627 52.396 136.911 52.396C139.863 52.396 141.627 50.848 142.851 49.048V50.02C142.851 51.244 143.859 52.18 145.047 52.18C146.271 52.18 147.243 51.208 147.243 50.02V34.972ZM150.883 50.02C150.883 51.244 151.855 52.18 153.043 52.18C154.267 52.18 155.239 51.244 155.239 50.02V41.272C155.239 38.32 157.003 36.556 159.523 36.556C162.115 36.556 163.591 38.248 163.591 41.2V50.02C163.591 51.244 164.563 52.18 165.787 52.18C167.011 52.18 167.947 51.244 167.947 50.02V39.868C167.947 35.476 165.463 32.596 161.179 32.596C158.227 32.596 156.463 34.144 155.239 35.908V34.972C155.239 33.748 154.267 32.776 153.043 32.776C151.819 32.776 150.883 33.748 150.883 34.972V50.02ZM180.191 52.432C183.359 52.432 185.411 51.352 187.103 49.732C187.499 49.408 187.715 48.94 187.715 48.364C187.715 47.32 186.887 46.456 185.843 46.456C185.339 46.456 184.907 46.708 184.655 46.924C183.467 47.932 182.135 48.616 180.407 48.616C177.059 48.616 174.719 45.916 174.719 42.532V42.46C174.719 39.148 177.059 36.412 180.227 36.412C181.955 36.412 183.179 37.096 184.295 38.032C184.583 38.248 185.051 38.464 185.591 38.464C186.707 38.464 187.607 37.6 187.607 36.484C187.607 35.764 187.211 35.224 186.923 34.972C185.303 33.568 183.251 32.596 180.263 32.596C174.539 32.596 170.363 37.132 170.363 42.532V42.604C170.363 48.004 174.539 52.432 180.191 52.432ZM190.174 50.02C190.174 51.244 191.146 52.18 192.334 52.18C193.558 52.18 194.53 51.244 194.53 50.02V41.272C194.53 38.32 196.294 36.556 198.814 36.556C201.406 36.556 202.882 38.248 202.882 41.2V50.02C202.882 51.244 203.854 52.18 205.078 52.18C206.302 52.18 207.238 51.244 207.238 50.02V39.868C207.238 35.476 204.754 32.596 200.47 32.596C197.518 32.596 195.754 34.144 194.53 35.908V27.7C194.53 26.512 193.558 25.54 192.334 25.54C191.11 25.54 190.174 26.512 190.174 27.7V50.02ZM218.467 50.128C218.467 51.28 219.367 52.18 220.519 52.18C221.455 52.18 222.211 51.676 222.571 50.776L224.695 45.916H236.935L238.987 50.632C239.383 51.568 240.103 52.18 241.147 52.18C242.335 52.18 243.235 51.244 243.235 50.056C243.235 49.768 243.163 49.444 242.983 49.12L233.623 28.24C233.119 27.124 232.255 26.44 230.995 26.44H230.779C229.519 26.44 228.619 27.124 228.115 28.24L218.755 49.12C218.575 49.48 218.467 49.804 218.467 50.128ZM226.387 41.992L230.815 31.804L235.243 41.992H226.387ZM262.372 34.972C262.372 33.748 261.364 32.776 260.176 32.776C258.952 32.776 257.98 33.748 257.98 34.972V43.72C257.98 46.672 256.216 48.4 253.696 48.4C251.104 48.4 249.628 46.744 249.628 43.792V34.972C249.628 33.748 248.656 32.776 247.432 32.776C246.244 32.776 245.272 33.748 245.272 34.972V45.088C245.272 49.516 247.756 52.396 252.04 52.396C254.992 52.396 256.756 50.848 257.98 49.048V50.02C257.98 51.244 258.988 52.18 260.176 52.18C261.4 52.18 262.372 51.208 262.372 50.02V34.972ZM274.797 52.432C277.965 52.432 280.017 51.352 281.709 49.732C282.105 49.408 282.321 48.94 282.321 48.364C282.321 47.32 281.493 46.456 280.449 46.456C279.945 46.456 279.513 46.708 279.261 46.924C278.073 47.932 276.741 48.616 275.013 48.616C271.665 48.616 269.325 45.916 269.325 42.532V42.46C269.325 39.148 271.665 36.412 274.833 36.412C276.561 36.412 277.785 37.096 278.901 38.032C279.189 38.248 279.657 38.464 280.197 38.464C281.313 38.464 282.213 37.6 282.213 36.484C282.213 35.764 281.817 35.224 281.529 34.972C279.909 33.568 277.857 32.596 274.869 32.596C269.145 32.596 264.969 37.132 264.969 42.532V42.604C264.969 48.004 269.145 52.432 274.797 52.432ZM291.151 52.324C292.303 52.324 293.203 52.144 294.139 51.82C294.751 51.568 295.291 50.92 295.291 50.128C295.291 49.12 294.427 48.328 293.455 48.328C293.311 48.328 292.879 48.436 292.375 48.436C290.899 48.436 290.035 47.752 290.035 46.06V36.736H293.455C294.499 36.736 295.363 35.908 295.363 34.864C295.363 33.82 294.499 32.992 293.455 32.992H290.035V29.752C290.035 28.564 289.063 27.592 287.875 27.592C286.651 27.592 285.679 28.564 285.679 29.752V32.992H284.959C283.915 32.992 283.087 33.82 283.087 34.864C283.087 35.908 283.915 36.736 284.959 36.736H285.679V46.744C285.679 50.92 287.947 52.324 291.151 52.324ZM297.708 28.096C297.708 29.392 298.788 30.256 300.192 30.256C301.596 30.256 302.676 29.392 302.676 28.096V27.88C302.676 26.584 301.596 25.756 300.192 25.756C298.788 25.756 297.708 26.584 297.708 27.88V28.096ZM298.032 50.02C298.032 51.244 299.004 52.18 300.192 52.18C301.416 52.18 302.388 51.244 302.388 50.02V34.972C302.388 33.748 301.416 32.776 300.192 32.776C298.968 32.776 298.032 33.748 298.032 34.972V50.02ZM315.317 52.432C321.185 52.432 325.505 47.932 325.505 42.532V42.46C325.505 37.024 321.221 32.596 315.389 32.596C309.557 32.596 305.237 37.096 305.237 42.532V42.604C305.237 48.004 309.521 52.432 315.317 52.432ZM315.389 48.616C312.005 48.616 309.593 45.844 309.593 42.532V42.46C309.593 39.148 311.825 36.412 315.317 36.412C318.737 36.412 321.149 39.184 321.149 42.532V42.604C321.149 45.88 318.917 48.616 315.389 48.616ZM328.141 50.02C328.141 51.244 329.113 52.18 330.301 52.18C331.525 52.18 332.497 51.244 332.497 50.02V41.272C332.497 38.32 334.261 36.556 336.781 36.556C339.373 36.556 340.849 38.248 340.849 41.2V50.02C340.849 51.244 341.821 52.18 343.045 52.18C344.269 52.18 345.205 51.244 345.205 50.02V39.868C345.205 35.476 342.721 32.596 338.437 32.596C335.485 32.596 333.721 34.144 332.497 35.908V34.972C332.497 33.748 331.525 32.776 330.301 32.776C329.077 32.776 328.141 33.748 328.141 34.972V50.02ZM355.181 52.36C359.141 52.36 362.237 50.38 362.237 46.384V46.312C362.237 42.892 359.105 41.632 356.333 40.768C354.101 40.048 352.049 39.472 352.049 38.068V37.996C352.049 36.916 353.021 36.124 354.713 36.124C356.045 36.124 357.629 36.628 359.177 37.42C359.465 37.564 359.681 37.636 360.041 37.636C361.049 37.636 361.841 36.88 361.841 35.872C361.841 35.116 361.409 34.54 360.797 34.216C358.961 33.244 356.837 32.668 354.821 32.668C351.041 32.668 348.053 34.864 348.053 38.464V38.536C348.053 42.172 351.185 43.324 353.993 44.116C356.225 44.8 358.241 45.304 358.241 46.78V46.852C358.241 48.112 357.161 48.904 355.289 48.904C353.561 48.904 351.653 48.292 349.817 47.068C349.565 46.924 349.241 46.816 348.881 46.816C347.873 46.816 347.117 47.608 347.117 48.58C347.117 49.3 347.477 49.84 347.945 50.092C350.141 51.604 352.769 52.36 355.181 52.36Z" fill="black"/>
<path d="M20.24 44.984C20.24 46.208 21.212 47.18 22.472 47.18C23.696 47.18 24.668 46.208 24.668 44.984V36.74H35.54C36.656 36.74 37.556 35.84 37.556 34.724C37.556 33.608 36.656 32.708 35.54 32.708H24.668V25.832H37.16C38.276 25.832 39.176 24.932 39.176 23.816C39.176 22.7 38.276 21.8 37.16 21.8H22.472C21.212 21.8 20.24 22.772 20.24 24.032V44.984ZM46.1189 47.396C49.0349 47.396 51.0149 46.172 52.3109 44.624V45.344C52.3109 46.316 53.1749 47.18 54.4349 47.18C55.6229 47.18 56.5589 46.28 56.5589 45.092V35.732C56.5589 33.248 55.9109 31.232 54.5069 29.864C53.1749 28.496 51.0509 27.74 48.2069 27.74C45.7229 27.74 43.8869 28.172 42.0869 28.856C41.4389 29.108 40.8989 29.792 40.8989 30.584C40.8989 31.592 41.7269 32.384 42.7349 32.384C42.9509 32.384 43.1669 32.348 43.4189 32.276C44.6069 31.808 45.9749 31.52 47.6309 31.52C50.6909 31.52 52.3469 32.96 52.3469 35.66V36.128C50.8709 35.66 49.3589 35.336 47.2349 35.336C42.5909 35.336 39.3869 37.352 39.3869 41.456V41.528C39.3869 45.344 42.5549 47.396 46.1189 47.396ZM47.3429 44.228C45.2549 44.228 43.6349 43.184 43.6349 41.348V41.276C43.6349 39.296 45.2909 38.108 48.0989 38.108C49.8269 38.108 51.3029 38.432 52.4189 38.864V40.16C52.4189 42.572 50.2229 44.228 47.3429 44.228ZM59.9038 23.096C59.9038 24.392 60.9838 25.256 62.3878 25.256C63.7918 25.256 64.8718 24.392 64.8718 23.096V22.88C64.8718 21.584 63.7918 20.756 62.3878 20.756C60.9838 20.756 59.9038 21.584 59.9038 22.88V23.096ZM60.2278 45.02C60.2278 46.244 61.1998 47.18 62.3878 47.18C63.6118 47.18 64.5838 46.244 64.5838 45.02V29.972C64.5838 28.748 63.6118 27.776 62.3878 27.776C61.1638 27.776 60.2278 28.748 60.2278 29.972V45.02ZM68.4766 45.02C68.4766 46.244 69.4486 47.18 70.6366 47.18C71.8606 47.18 72.8326 46.208 72.8326 45.02V39.404C72.8326 34.904 74.9566 32.528 78.0526 31.988C79.0246 31.808 79.7806 31.052 79.7806 29.9C79.7806 28.64 78.9886 27.74 77.6206 27.74C75.7126 27.74 73.8406 29.54 72.8326 31.916V29.972C72.8326 28.748 71.8606 27.776 70.6366 27.776C69.4126 27.776 68.4766 28.748 68.4766 29.972V45.02ZM91.0447 44.768C91.0447 46.028 92.0167 47 93.2767 47H106.885C108.001 47 108.901 46.1 108.901 44.984C108.901 43.868 108.001 42.968 106.885 42.968H95.4727V23.816C95.4727 22.592 94.5007 21.62 93.2767 21.62C92.0167 21.62 91.0447 22.592 91.0447 23.816V44.768ZM116.502 47.396C119.418 47.396 121.398 46.172 122.694 44.624V45.344C122.694 46.316 123.558 47.18 124.818 47.18C126.006 47.18 126.942 46.28 126.942 45.092V35.732C126.942 33.248 126.294 31.232 124.89 29.864C123.558 28.496 121.434 27.74 118.59 27.74C116.106 27.74 114.27 28.172 112.47 28.856C111.822 29.108 111.282 29.792 111.282 30.584C111.282 31.592 112.11 32.384 113.118 32.384C113.334 32.384 113.55 32.348 113.802 32.276C114.99 31.808 116.358 31.52 118.014 31.52C121.074 31.52 122.73 32.96 122.73 35.66V36.128C121.254 35.66 119.742 35.336 117.618 35.336C112.974 35.336 109.77 37.352 109.77 41.456V41.528C109.77 45.344 112.938 47.396 116.502 47.396ZM117.726 44.228C115.638 44.228 114.018 43.184 114.018 41.348V41.276C114.018 39.296 115.674 38.108 118.482 38.108C120.21 38.108 121.686 38.432 122.802 38.864V40.16C122.802 42.572 120.606 44.228 117.726 44.228ZM147.243 29.972C147.243 28.748 146.235 27.776 145.047 27.776C143.823 27.776 142.851 28.748 142.851 29.972V38.72C142.851 41.672 141.087 43.4 138.567 43.4C135.975 43.4 134.499 41.744 134.499 38.792V29.972C134.499 28.748 133.527 27.776 132.303 27.776C131.115 27.776 130.143 28.748 130.143 29.972V40.088C130.143 44.516 132.627 47.396 136.911 47.396C139.863 47.396 141.627 45.848 142.851 44.048V45.02C142.851 46.244 143.859 47.18 145.047 47.18C146.271 47.18 147.243 46.208 147.243 45.02V29.972ZM150.883 45.02C150.883 46.244 151.855 47.18 153.043 47.18C154.267 47.18 155.239 46.244 155.239 45.02V36.272C155.239 33.32 157.003 31.556 159.523 31.556C162.115 31.556 163.591 33.248 163.591 36.2V45.02C163.591 46.244 164.563 47.18 165.787 47.18C167.011 47.18 167.947 46.244 167.947 45.02V34.868C167.947 30.476 165.463 27.596 161.179 27.596C158.227 27.596 156.463 29.144 155.239 30.908V29.972C155.239 28.748 154.267 27.776 153.043 27.776C151.819 27.776 150.883 28.748 150.883 29.972V45.02ZM180.191 47.432C183.359 47.432 185.411 46.352 187.103 44.732C187.499 44.408 187.715 43.94 187.715 43.364C187.715 42.32 186.887 41.456 185.843 41.456C185.339 41.456 184.907 41.708 184.655 41.924C183.467 42.932 182.135 43.616 180.407 43.616C177.059 43.616 174.719 40.916 174.719 37.532V37.46C174.719 34.148 177.059 31.412 180.227 31.412C181.955 31.412 183.179 32.096 184.295 33.032C184.583 33.248 185.051 33.464 185.591 33.464C186.707 33.464 187.607 32.6 187.607 31.484C187.607 30.764 187.211 30.224 186.923 29.972C185.303 28.568 183.251 27.596 180.263 27.596C174.539 27.596 170.363 32.132 170.363 37.532V37.604C170.363 43.004 174.539 47.432 180.191 47.432ZM190.174 45.02C190.174 46.244 191.146 47.18 192.334 47.18C193.558 47.18 194.53 46.244 194.53 45.02V36.272C194.53 33.32 196.294 31.556 198.814 31.556C201.406 31.556 202.882 33.248 202.882 36.2V45.02C202.882 46.244 203.854 47.18 205.078 47.18C206.302 47.18 207.238 46.244 207.238 45.02V34.868C207.238 30.476 204.754 27.596 200.47 27.596C197.518 27.596 195.754 29.144 194.53 30.908V22.7C194.53 21.512 193.558 20.54 192.334 20.54C191.11 20.54 190.174 21.512 190.174 22.7V45.02Z" fill="#00E59D"/>
<path d="M218.467 45.128C218.467 46.28 219.367 47.18 220.519 47.18C221.455 47.18 222.211 46.676 222.571 45.776L224.695 40.916H236.935L238.987 45.632C239.383 46.568 240.103 47.18 241.147 47.18C242.335 47.18 243.235 46.244 243.235 45.056C243.235 44.768 243.163 44.444 242.983 44.12L233.623 23.24C233.119 22.124 232.255 21.44 230.995 21.44H230.779C229.519 21.44 228.619 22.124 228.115 23.24L218.755 44.12C218.575 44.48 218.467 44.804 218.467 45.128ZM226.387 36.992L230.815 26.804L235.243 36.992H226.387ZM262.372 29.972C262.372 28.748 261.364 27.776 260.176 27.776C258.952 27.776 257.98 28.748 257.98 29.972V38.72C257.98 41.672 256.216 43.4 253.696 43.4C251.104 43.4 249.628 41.744 249.628 38.792V29.972C249.628 28.748 248.656 27.776 247.432 27.776C246.244 27.776 245.272 28.748 245.272 29.972V40.088C245.272 44.516 247.756 47.396 252.04 47.396C254.992 47.396 256.756 45.848 257.98 44.048V45.02C257.98 46.244 258.988 47.18 260.176 47.18C261.4 47.18 262.372 46.208 262.372 45.02V29.972ZM274.797 47.432C277.965 47.432 280.017 46.352 281.709 44.732C282.105 44.408 282.321 43.94 282.321 43.364C282.321 42.32 281.493 41.456 280.449 41.456C279.945 41.456 279.513 41.708 279.261 41.924C278.073 42.932 276.741 43.616 275.013 43.616C271.665 43.616 269.325 40.916 269.325 37.532V37.46C269.325 34.148 271.665 31.412 274.833 31.412C276.561 31.412 277.785 32.096 278.901 33.032C279.189 33.248 279.657 33.464 280.197 33.464C281.313 33.464 282.213 32.6 282.213 31.484C282.213 30.764 281.817 30.224 281.529 29.972C279.909 28.568 277.857 27.596 274.869 27.596C269.145 27.596 264.969 32.132 264.969 37.532V37.604C264.969 43.004 269.145 47.432 274.797 47.432ZM291.151 47.324C292.303 47.324 293.203 47.144 294.139 46.82C294.751 46.568 295.291 45.92 295.291 45.128C295.291 44.12 294.427 43.328 293.455 43.328C293.311 43.328 292.879 43.436 292.375 43.436C290.899 43.436 290.035 42.752 290.035 41.06V31.736H293.455C294.499 31.736 295.363 30.908 295.363 29.864C295.363 28.82 294.499 27.992 293.455 27.992H290.035V24.752C290.035 23.564 289.063 22.592 287.875 22.592C286.651 22.592 285.679 23.564 285.679 24.752V27.992H284.959C283.915 27.992 283.087 28.82 283.087 29.864C283.087 30.908 283.915 31.736 284.959 31.736H285.679V41.744C285.679 45.92 287.947 47.324 291.151 47.324ZM297.708 23.096C297.708 24.392 298.788 25.256 300.192 25.256C301.596 25.256 302.676 24.392 302.676 23.096V22.88C302.676 21.584 301.596 20.756 300.192 20.756C298.788 20.756 297.708 21.584 297.708 22.88V23.096ZM298.032 45.02C298.032 46.244 299.004 47.18 300.192 47.18C301.416 47.18 302.388 46.244 302.388 45.02V29.972C302.388 28.748 301.416 27.776 300.192 27.776C298.968 27.776 298.032 28.748 298.032 29.972V45.02ZM315.317 47.432C321.185 47.432 325.505 42.932 325.505 37.532V37.46C325.505 32.024 321.221 27.596 315.389 27.596C309.557 27.596 305.237 32.096 305.237 37.532V37.604C305.237 43.004 309.521 47.432 315.317 47.432ZM315.389 43.616C312.005 43.616 309.593 40.844 309.593 37.532V37.46C309.593 34.148 311.825 31.412 315.317 31.412C318.737 31.412 321.149 34.184 321.149 37.532V37.604C321.149 40.88 318.917 43.616 315.389 43.616ZM328.141 45.02C328.141 46.244 329.113 47.18 330.301 47.18C331.525 47.18 332.497 46.244 332.497 45.02V36.272C332.497 33.32 334.261 31.556 336.781 31.556C339.373 31.556 340.849 33.248 340.849 36.2V45.02C340.849 46.244 341.821 47.18 343.045 47.18C344.269 47.18 345.205 46.244 345.205 45.02V34.868C345.205 30.476 342.721 27.596 338.437 27.596C335.485 27.596 333.721 29.144 332.497 30.908V29.972C332.497 28.748 331.525 27.776 330.301 27.776C329.077 27.776 328.141 28.748 328.141 29.972V45.02ZM355.181 47.36C359.141 47.36 362.237 45.38 362.237 41.384V41.312C362.237 37.892 359.105 36.632 356.333 35.768C354.101 35.048 352.049 34.472 352.049 33.068V32.996C352.049 31.916 353.021 31.124 354.713 31.124C356.045 31.124 357.629 31.628 359.177 32.42C359.465 32.564 359.681 32.636 360.041 32.636C361.049 32.636 361.841 31.88 361.841 30.872C361.841 30.116 361.409 29.54 360.797 29.216C358.961 28.244 356.837 27.668 354.821 27.668C351.041 27.668 348.053 29.864 348.053 33.464V33.536C348.053 37.172 351.185 38.324 353.993 39.116C356.225 39.8 358.241 40.304 358.241 41.78V41.852C358.241 43.112 357.161 43.904 355.289 43.904C353.561 43.904 351.653 43.292 349.817 42.068C349.565 41.924 349.241 41.816 348.881 41.816C347.873 41.816 347.117 42.608 347.117 43.58C347.117 44.3 347.477 44.84 347.945 45.092C350.141 46.604 352.769 47.36 355.181 47.36Z" fill="#FF0000"/>
<g filter="url(#filter0)">
<path d="M20.24 44.984C20.24 46.208 21.212 47.18 22.472 47.18C23.696 47.18 24.668 46.208 24.668 44.984V36.74H35.54C36.656 36.74 37.556 35.84 37.556 34.724C37.556 33.608 36.656 32.708 35.54 32.708H24.668V25.832H37.16C38.276 25.832 39.176 24.932 39.176 23.816C39.176 22.7 38.276 21.8 37.16 21.8H22.472C21.212 21.8 20.24 22.772 20.24 24.032V44.984ZM46.1189 47.396C49.0349 47.396 51.0149 46.172 52.3109 44.624V45.344C52.3109 46.316 53.1749 47.18 54.4349 47.18C55.6229 47.18 56.5589 46.28 56.5589 45.092V35.732C56.5589 33.248 55.9109 31.232 54.5069 29.864C53.1749 28.496 51.0509 27.74 48.2069 27.74C45.7229 27.74 43.8869 28.172 42.0869 28.856C41.4389 29.108 40.8989 29.792 40.8989 30.584C40.8989 31.592 41.7269 32.384 42.7349 32.384C42.9509 32.384 43.1669 32.348 43.4189 32.276C44.6069 31.808 45.9749 31.52 47.6309 31.52C50.6909 31.52 52.3469 32.96 52.3469 35.66V36.128C50.8709 35.66 49.3589 35.336 47.2349 35.336C42.5909 35.336 39.3869 37.352 39.3869 41.456V41.528C39.3869 45.344 42.5549 47.396 46.1189 47.396ZM47.3429 44.228C45.2549 44.228 43.6349 43.184 43.6349 41.348V41.276C43.6349 39.296 45.2909 38.108 48.0989 38.108C49.8269 38.108 51.3029 38.432 52.4189 38.864V40.16C52.4189 42.572 50.2229 44.228 47.3429 44.228ZM59.9038 23.096C59.9038 24.392 60.9838 25.256 62.3878 25.256C63.7918 25.256 64.8718 24.392 64.8718 23.096V22.88C64.8718 21.584 63.7918 20.756 62.3878 20.756C60.9838 20.756 59.9038 21.584 59.9038 22.88V23.096ZM60.2278 45.02C60.2278 46.244 61.1998 47.18 62.3878 47.18C63.6118 47.18 64.5838 46.244 64.5838 45.02V29.972C64.5838 28.748 63.6118 27.776 62.3878 27.776C61.1638 27.776 60.2278 28.748 60.2278 29.972V45.02ZM68.4766 45.02C68.4766 46.244 69.4486 47.18 70.6366 47.18C71.8606 47.18 72.8326 46.208 72.8326 45.02V39.404C72.8326 34.904 74.9566 32.528 78.0526 31.988C79.0246 31.808 79.7806 31.052 79.7806 29.9C79.7806 28.64 78.9886 27.74 77.6206 27.74C75.7126 27.74 73.8406 29.54 72.8326 31.916V29.972C72.8326 28.748 71.8606 27.776 70.6366 27.776C69.4126 27.776 68.4766 28.748 68.4766 29.972V45.02ZM91.0447 44.768C91.0447 46.028 92.0167 47 93.2767 47H106.885C108.001 47 108.901 46.1 108.901 44.984C108.901 43.868 108.001 42.968 106.885 42.968H95.4727V23.816C95.4727 22.592 94.5007 21.62 93.2767 21.62C92.0167 21.62 91.0447 22.592 91.0447 23.816V44.768ZM116.502 47.396C119.418 47.396 121.398 46.172 122.694 44.624V45.344C122.694 46.316 123.558 47.18 124.818 47.18C126.006 47.18 126.942 46.28 126.942 45.092V35.732C126.942 33.248 126.294 31.232 124.89 29.864C123.558 28.496 121.434 27.74 118.59 27.74C116.106 27.74 114.27 28.172 112.47 28.856C111.822 29.108 111.282 29.792 111.282 30.584C111.282 31.592 112.11 32.384 113.118 32.384C113.334 32.384 113.55 32.348 113.802 32.276C114.99 31.808 116.358 31.52 118.014 31.52C121.074 31.52 122.73 32.96 122.73 35.66V36.128C121.254 35.66 119.742 35.336 117.618 35.336C112.974 35.336 109.77 37.352 109.77 41.456V41.528C109.77 45.344 112.938 47.396 116.502 47.396ZM117.726 44.228C115.638 44.228 114.018 43.184 114.018 41.348V41.276C114.018 39.296 115.674 38.108 118.482 38.108C120.21 38.108 121.686 38.432 122.802 38.864V40.16C122.802 42.572 120.606 44.228 117.726 44.228ZM147.243 29.972C147.243 28.748 146.235 27.776 145.047 27.776C143.823 27.776 142.851 28.748 142.851 29.972V38.72C142.851 41.672 141.087 43.4 138.567 43.4C135.975 43.4 134.499 41.744 134.499 38.792V29.972C134.499 28.748 133.527 27.776 132.303 27.776C131.115 27.776 130.143 28.748 130.143 29.972V40.088C130.143 44.516 132.627 47.396 136.911 47.396C139.863 47.396 141.627 45.848 142.851 44.048V45.02C142.851 46.244 143.859 47.18 145.047 47.18C146.271 47.18 147.243 46.208 147.243 45.02V29.972ZM150.883 45.02C150.883 46.244 151.855 47.18 153.043 47.18C154.267 47.18 155.239 46.244 155.239 45.02V36.272C155.239 33.32 157.003 31.556 159.523 31.556C162.115 31.556 163.591 33.248 163.591 36.2V45.02C163.591 46.244 164.563 47.18 165.787 47.18C167.011 47.18 167.947 46.244 167.947 45.02V34.868C167.947 30.476 165.463 27.596 161.179 27.596C158.227 27.596 156.463 29.144 155.239 30.908V29.972C155.239 28.748 154.267 27.776 153.043 27.776C151.819 27.776 150.883 28.748 150.883 29.972V45.02ZM180.191 47.432C183.359 47.432 185.411 46.352 187.103 44.732C187.499 44.408 187.715 43.94 187.715 43.364C187.715 42.32 186.887 41.456 185.843 41.456C185.339 41.456 184.907 41.708 184.655 41.924C183.467 42.932 182.135 43.616 180.407 43.616C177.059 43.616 174.719 40.916 174.719 37.532V37.46C174.719 34.148 177.059 31.412 180.227 31.412C181.955 31.412 183.179 32.096 184.295 33.032C184.583 33.248 185.051 33.464 185.591 33.464C186.707 33.464 187.607 32.6 187.607 31.484C187.607 30.764 187.211 30.224 186.923 29.972C185.303 28.568 183.251 27.596 180.263 27.596C174.539 27.596 170.363 32.132 170.363 37.532V37.604C170.363 43.004 174.539 47.432 180.191 47.432ZM190.174 45.02C190.174 46.244 191.146 47.18 192.334 47.18C193.558 47.18 194.53 46.244 194.53 45.02V36.272C194.53 33.32 196.294 31.556 198.814 31.556C201.406 31.556 202.882 33.248 202.882 36.2V45.02C202.882 46.244 203.854 47.18 205.078 47.18C206.302 47.18 207.238 46.244 207.238 45.02V34.868C207.238 30.476 204.754 27.596 200.47 27.596C197.518 27.596 195.754 29.144 194.53 30.908V22.7C194.53 21.512 193.558 20.54 192.334 20.54C191.11 20.54 190.174 21.512 190.174 22.7V45.02Z" fill="#00E59D"/>
<path d="M218.467 45.128C218.467 46.28 219.367 47.18 220.519 47.18C221.455 47.18 222.211 46.676 222.571 45.776L224.695 40.916H236.935L238.987 45.632C239.383 46.568 240.103 47.18 241.147 47.18C242.335 47.18 243.235 46.244 243.235 45.056C243.235 44.768 243.163 44.444 242.983 44.12L233.623 23.24C233.119 22.124 232.255 21.44 230.995 21.44H230.779C229.519 21.44 228.619 22.124 228.115 23.24L218.755 44.12C218.575 44.48 218.467 44.804 218.467 45.128ZM226.387 36.992L230.815 26.804L235.243 36.992H226.387ZM262.372 29.972C262.372 28.748 261.364 27.776 260.176 27.776C258.952 27.776 257.98 28.748 257.98 29.972V38.72C257.98 41.672 256.216 43.4 253.696 43.4C251.104 43.4 249.628 41.744 249.628 38.792V29.972C249.628 28.748 248.656 27.776 247.432 27.776C246.244 27.776 245.272 28.748 245.272 29.972V40.088C245.272 44.516 247.756 47.396 252.04 47.396C254.992 47.396 256.756 45.848 257.98 44.048V45.02C257.98 46.244 258.988 47.18 260.176 47.18C261.4 47.18 262.372 46.208 262.372 45.02V29.972ZM274.797 47.432C277.965 47.432 280.017 46.352 281.709 44.732C282.105 44.408 282.321 43.94 282.321 43.364C282.321 42.32 281.493 41.456 280.449 41.456C279.945 41.456 279.513 41.708 279.261 41.924C278.073 42.932 276.741 43.616 275.013 43.616C271.665 43.616 269.325 40.916 269.325 37.532V37.46C269.325 34.148 271.665 31.412 274.833 31.412C276.561 31.412 277.785 32.096 278.901 33.032C279.189 33.248 279.657 33.464 280.197 33.464C281.313 33.464 282.213 32.6 282.213 31.484C282.213 30.764 281.817 30.224 281.529 29.972C279.909 28.568 277.857 27.596 274.869 27.596C269.145 27.596 264.969 32.132 264.969 37.532V37.604C264.969 43.004 269.145 47.432 274.797 47.432ZM291.151 47.324C292.303 47.324 293.203 47.144 294.139 46.82C294.751 46.568 295.291 45.92 295.291 45.128C295.291 44.12 294.427 43.328 293.455 43.328C293.311 43.328 292.879 43.436 292.375 43.436C290.899 43.436 290.035 42.752 290.035 41.06V31.736H293.455C294.499 31.736 295.363 30.908 295.363 29.864C295.363 28.82 294.499 27.992 293.455 27.992H290.035V24.752C290.035 23.564 289.063 22.592 287.875 22.592C286.651 22.592 285.679 23.564 285.679 24.752V27.992H284.959C283.915 27.992 283.087 28.82 283.087 29.864C283.087 30.908 283.915 31.736 284.959 31.736H285.679V41.744C285.679 45.92 287.947 47.324 291.151 47.324ZM297.708 23.096C297.708 24.392 298.788 25.256 300.192 25.256C301.596 25.256 302.676 24.392 302.676 23.096V22.88C302.676 21.584 301.596 20.756 300.192 20.756C298.788 20.756 297.708 21.584 297.708 22.88V23.096ZM298.032 45.02C298.032 46.244 299.004 47.18 300.192 47.18C301.416 47.18 302.388 46.244 302.388 45.02V29.972C302.388 28.748 301.416 27.776 300.192 27.776C298.968 27.776 298.032 28.748 298.032 29.972V45.02ZM315.317 47.432C321.185 47.432 325.505 42.932 325.505 37.532V37.46C325.505 32.024 321.221 27.596 315.389 27.596C309.557 27.596 305.237 32.096 305.237 37.532V37.604C305.237 43.004 309.521 47.432 315.317 47.432ZM315.389 43.616C312.005 43.616 309.593 40.844 309.593 37.532V37.46C309.593 34.148 311.825 31.412 315.317 31.412C318.737 31.412 321.149 34.184 321.149 37.532V37.604C321.149 40.88 318.917 43.616 315.389 43.616ZM328.141 45.02C328.141 46.244 329.113 47.18 330.301 47.18C331.525 47.18 332.497 46.244 332.497 45.02V36.272C332.497 33.32 334.261 31.556 336.781 31.556C339.373 31.556 340.849 33.248 340.849 36.2V45.02C340.849 46.244 341.821 47.18 343.045 47.18C344.269 47.18 345.205 46.244 345.205 45.02V34.868C345.205 30.476 342.721 27.596 338.437 27.596C335.485 27.596 333.721 29.144 332.497 30.908V29.972C332.497 28.748 331.525 27.776 330.301 27.776C329.077 27.776 328.141 28.748 328.141 29.972V45.02ZM355.181 47.36C359.141 47.36 362.237 45.38 362.237 41.384V41.312C362.237 37.892 359.105 36.632 356.333 35.768C354.101 35.048 352.049 34.472 352.049 33.068V32.996C352.049 31.916 353.021 31.124 354.713 31.124C356.045 31.124 357.629 31.628 359.177 32.42C359.465 32.564 359.681 32.636 360.041 32.636C361.049 32.636 361.841 31.88 361.841 30.872C361.841 30.116 361.409 29.54 360.797 29.216C358.961 28.244 356.837 27.668 354.821 27.668C351.041 27.668 348.053 29.864 348.053 33.464V33.536C348.053 37.172 351.185 38.324 353.993 39.116C356.225 39.8 358.241 40.304 358.241 41.78V41.852C358.241 43.112 357.161 43.904 355.289 43.904C353.561 43.904 351.653 43.292 349.817 42.068C349.565 41.924 349.241 41.816 348.881 41.816C347.873 41.816 347.117 42.608 347.117 43.58C347.117 44.3 347.477 44.84 347.945 45.092C350.141 46.604 352.769 47.36 355.181 47.36Z" fill="#FF0000"/>
</g>
<defs>
<filter id="filter0" x="0.240234" y="0.540039" width="381.997" height="66.8916" filterUnits="userSpaceOnUse" color-interpolation-filters="sRGB">
<feFlood flood-opacity="0" result="BackgroundImageFix"/>
<feBlend mode="normal" in="SourceGraphic" in2="BackgroundImageFix" result="shape"/>
<feGaussianBlur stdDeviation="10" result="effect1_foregroundBlur_780_101"/>
</filter>
</defs>
</svg>
