<?xml version="1.0" encoding="UTF-8" standalone="no"?>
<svg
   xmlns:dc="http://purl.org/dc/elements/1.1/"
   xmlns:cc="http://creativecommons.org/ns#"
   xmlns:rdf="http://www.w3.org/1999/02/22-rdf-syntax-ns#"
   xmlns:svg="http://www.w3.org/2000/svg"
   xmlns="http://www.w3.org/2000/svg"
   xmlns:xlink="http://www.w3.org/1999/xlink"
   xmlns:sodipodi="http://sodipodi.sourceforge.net/DTD/sodipodi-0.dtd"
   xmlns:inkscape="http://www.inkscape.org/namespaces/inkscape"
   width="41.513123mm"
   height="8.1130667mm"
   viewBox="0 0 41.513123 8.1130667"
   version="1.1"
   id="svg8"
   inkscape:version="1.0.2 (e86c8708, 2021-01-15)"
   sodipodi:docname="beefy_white_text.svg">
  <defs
     id="defs2">
    <rect
       id="SVGID_1_"
       x="20.799999"
       y="54.099998"
       width="40.700001"
       height="31" />
  </defs>
  <sodipodi:namedview
     id="base"
     pagecolor="#ffffff"
     bordercolor="#666666"
     borderopacity="1.0"
     inkscape:pageopacity="0.0"
     inkscape:pageshadow="2"
     inkscape:zoom="1.3076443"
     inkscape:cx="67.832112"
     inkscape:cy="47.456473"
     inkscape:document-units="mm"
     inkscape:current-layer="Layer_1-2"
     inkscape:document-rotation="0"
     showgrid="false"
     inkscape:window-width="1252"
     inkscape:window-height="794"
     inkscape:window-x="0"
     inkscape:window-y="25"
     inkscape:window-maximized="0" />
  <metadata
     id="metadata5">
    <rdf:RDF>
      <cc:Work
         rdf:about="">
        <dc:format>image/svg+xml</dc:format>
        <dc:type
           rdf:resource="http://purl.org/dc/dcmitype/StillImage" />
        <dc:title></dc:title>
      </cc:Work>
    </rdf:RDF>
  </metadata>
  <g
     inkscape:label="Layer 1"
     inkscape:groupmode="layer"
     id="layer1"
     transform="translate(-48.791058,-151.66965)">
    <g
       id="g123"
       transform="matrix(0.26458333,0,0,0.26458333,43.208349,137.26668)">
      <g
         id="Layer_2">
	<g
   id="Layer_1-2">
		
		
		
		
		
		
		
		
		
		
		
		
		<g
   id="g178">
  <g
     id="g48"
     transform="translate(4.1732283e-6)">
	<g
   id="g46">
		<defs
   id="defs13">
			<rect
   id="rect87"
   x="20.799999"
   y="54.099998"
   width="40.700001"
   height="31" />

		</defs>

		<clipPath
   id="SVGID_00000107565102417938712170000013500106287778073000_">
			<use
   xlink:href="#SVGID_1_"
   style="overflow:visible"
   id="use15"
   x="0"
   y="0"
   width="100%"
   height="100%" />

		</clipPath>

		<g
   clip-path="url(#SVGID_00000107565102417938712170000013500106287778073000_)"
   id="g44">
			<path
   class="st1"
   d="m 23,59.7 c 2.3,0 4.5,0 6.8,0 0,0.1 0,0.3 0,0.4 0,0.6 0,1.2 0,1.8 0.1,1.1 0.4,2.2 0.9,3.2 0.4,0.9 1,1.8 1.7,2.5 0.9,0.9 1.9,1.6 3.1,1.9 0.1,0 0.1,0.1 0.1,0.2 0,0.6 0.1,1.1 -0.1,1.7 -0.2,0.9 -0.8,1.6 -1.6,1.9 -0.4,0.2 -0.8,0.3 -1.2,0.3 -1.4,0 -2.8,0 -4.1,0 -0.6,0 -1.3,-0.1 -1.8,-0.5 -0.8,-0.6 -1.2,-1.4 -1.2,-2.4 0,-2.7 0,-5.4 0,-8.1 0,-0.1 0,-0.1 0,-0.2 0,-0.4 -0.3,-0.6 -0.6,-0.7 -0.9,-0.3 -1.6,-0.9 -2.1,-1.8 0.1,0 0.1,-0.1 0.1,-0.2 0,0 0,0 0,0 z m 4,6.1 c 0,0.5 0.4,0.9 0.9,0.9 0.5,0 0.9,-0.4 0.9,-0.9 0,-0.5 -0.4,-0.9 -0.9,-0.9 -0.5,0 -0.9,0.3 -0.9,0.9 z"
   id="path18" />

			<path
   class="st1"
   d="m 34.6,65.8 c 0,0.4 -0.4,0.8 -0.8,0.8 -0.4,0 -0.8,-0.4 -0.8,-0.9 0,-0.4 0.4,-0.8 0.8,-0.8 0.4,0 0.8,0.5 0.8,0.9 z"
   id="path20" />

			<path
   d="m 27,65.8 c 0,-0.5 0.4,-0.9 0.9,-0.9 0.5,0 0.9,0.4 0.9,0.9 0,0.5 -0.4,0.9 -0.9,0.9 -0.5,0 -0.9,-0.4 -0.9,-0.9 z"
   id="path22" />

			<path
   d="m 60.4,75.1 v 0 c 0,0 0,0 0,0 0.1,0 0.1,0 0.1,0 0,0 0.1,0 0.1,0 0,0 0,0 0.1,-0.1 v 0 c 0.4,-0.3 0.4,-0.6 0.4,-1 0,-1.8 0,-3.6 0,-5.4 0,-0.6 -0.1,-1.2 -0.3,-1.7 -0.6,-2 -2.5,-3.4 -4.6,-3.4 -2.3,0 -4.6,0 -6.9,0 -4,0 -7.9,0 -11.8,0 0,0 -0.1,0 -0.1,0 -0.1,0 -0.1,0 -0.2,0 -0.1,-0.2 0,-0.3 0.2,-0.4 0.1,0 0.1,0 0.2,-0.1 1.1,-0.5 1.8,-1.4 2.3,-2.6 0.2,-0.4 0.3,-0.8 0.4,-1.3 0,-0.5 -0.3,-0.8 -0.8,-0.8 -1,0 -1.9,0 -2.9,0 -0.1,0 -0.2,0 -0.3,0 0,-0.1 0,-0.2 0,-0.3 0,-0.5 0,-0.9 0,-1.4 0,-0.2 0,-0.4 -0.1,-0.6 -0.3,-0.9 -1.2,-1.5 -2.2,-1.3 -0.7,0.1 -1.4,0.8 -1.4,1.5 0,0.6 0,1.2 0,1.7 0,0.1 0,0.2 0,0.3 H 29 c 0,-0.1 0,-0.2 0,-0.3 0,-0.5 0,-1 0,-1.5 0,-1.2 -1.2,-2.1 -2.5,-1.7 -0.8,0.3 -1.3,1 -1.3,1.8 0,0.5 0,0.9 0,1.4 0,0.1 0,0.2 0,0.3 -0.1,0 -0.2,0 -0.3,0 -1,0 -1.9,0 -2.9,0 -0.5,0 -0.8,0.3 -0.7,0.8 0,0.3 0.1,0.6 0.2,0.8 0.4,1.3 1.3,2.4 2.5,3 0.3,0.1 0.3,0.3 0.3,0.5 0,2.6 0,5.1 0,7.6 0,0.4 0,0.7 0.1,1 0.5,1.7 1.6,2.7 3.2,3 0,0 0.1,0 0.1,0 v 0 c 0,0 0,0 0.1,0 0,0 0.1,0 0.1,0 v 0 c 0,0 0.1,0 0.1,0 0.1,0 0.3,0 0.4,0 0,0 0.1,0 0.1,0 0.2,0 0.4,0 0.6,0 0.1,0 0.1,0 0.2,0 h 2.6 v 0 c 0,0 0.1,0 0.1,0 v 0 c 0.4,0 0.6,0.2 0.8,0.5 0.1,0.2 0.2,0.4 0.2,0.6 0,0 0,0 0,0.1 0,0.1 0,0.3 0,0.5 0,0 0,0 0,0.1 0,0.6 0,1.2 0.1,1.8 0,0.9 0.1,1.8 0.1,2.7 0,0.7 0,1.4 0,2.1 0,0.7 0.5,1.2 1.1,1.2 1.4,0 2.8,0 4.3,0 0.5,0 0.9,-0.4 1,-0.9 0.1,-0.6 0.3,-1.3 0.4,-1.9 0.1,-0.6 0.3,-1.3 0.4,-1.9 0.1,0 0.1,0 0.1,0 3,0 5.9,0 8.8,0 0.2,0 0.2,0.1 0.3,0.2 0.1,0.4 0.2,0.8 0.3,1.2 0.2,0.8 0.3,1.5 0.5,2.3 0.1,0.5 0.6,0.9 1.1,1 1.4,0 2.8,0 4.3,0 0.6,0 1.1,-0.5 1.1,-1.1 0,-0.7 0.1,-1.4 0.1,-2.2 0,-0.9 0.1,-1.8 0.1,-2.7 0,-0.5 0,-1 0.1,-1.6 0,-0.9 0.1,-1.8 0.1,-2.8 0.1,-1 0.1,-2.1 0.1,-3.1 0,-0.9 0.1,-1.7 0.1,-2.6 0,-1.3 -0.4,-2.4 -1.2,-3.3 0,0 -0.1,-0.1 -0.1,-0.2 0.1,0 0.1,0 0.1,0 1.5,0.2 2.8,1.7 2.8,3.2 0,1.9 0,3.8 0,5.7 0,0.4 0,0.7 0.3,1 v 0 c 0.6,0.2 0.8,0.3 1,0.3 z M 33.8,56.4 c 0,-0.2 0.2,-0.4 0.4,-0.4 0.2,0 0.4,0.1 0.4,0.4 0,0.6 0,1.2 0,1.8 h -0.9 c 0.1,-0.7 0.1,-1.2 0.1,-1.8 z m 0,8.5 c 0.4,0 0.9,0.4 0.8,0.9 0,0.4 -0.4,0.8 -0.8,0.8 -0.4,0 -0.8,-0.4 -0.8,-0.9 -0.1,-0.4 0.3,-0.8 0.8,-0.8 z m -7.1,-8.4 c 0,-0.1 0,-0.2 0.1,-0.3 0.1,-0.2 0.3,-0.3 0.4,-0.3 0.2,0 0.4,0.2 0.4,0.4 0,0.5 0,1.1 0,1.6 0,0 0,0 0,0.1 h -0.8 c 0,-0.1 0,-0.1 0,-0.2 -0.1,-0.3 -0.1,-0.8 -0.1,-1.3 z m 7.3,17 c -0.4,0.2 -0.8,0.3 -1.2,0.3 -1.4,0 -2.8,0 -4.1,0 -0.6,0 -1.3,-0.1 -1.8,-0.5 -0.8,-0.6 -1.2,-1.4 -1.2,-2.4 0,-2.7 0,-5.4 0,-8.1 0,-0.1 0,-0.1 0,-0.2 0,-0.4 -0.3,-0.6 -0.6,-0.7 C 24.2,61.6 23.5,61 23,60.1 23,60 23,60 23,59.9 c 0,0 0,0 0,-0.1 h 6.8 c 0,0.1 0,0.3 0,0.4 0,0.6 0,1.2 0,1.8 0.1,1.1 0.4,2.2 0.9,3.2 0.4,0.9 1,1.8 1.7,2.5 0.9,0.9 1.9,1.6 3.1,1.9 0.1,0 0.1,0.1 0.1,0.2 0,0.6 0.1,1.1 -0.1,1.7 -0.1,0.9 -0.6,1.6 -1.5,2 z M 56.2,69 c -0.1,0.9 -0.1,1.8 -0.1,2.7 -0.1,1.2 -0.1,2.3 -0.2,3.5 -0.1,1.3 -0.1,2.6 -0.2,3.9 0,0.8 -0.1,1.6 -0.1,2.4 0,0.5 -0.1,1 -0.1,1.5 h -3.3 c -0.4,-1.5 -0.7,-3.1 -1.1,-4.7 -0.1,0 -0.2,0 -0.3,0 -3.7,0 -7.5,0 -11.2,0 -0.3,0 -0.3,0 -0.4,0.3 -0.1,0.7 -0.3,1.4 -0.5,2.1 -0.1,0.6 -0.3,1.3 -0.4,2 -0.1,0.3 -0.1,0.3 -0.4,0.3 -0.9,0 -1.8,0 -2.7,0 -0.3,0 -0.3,0 -0.3,-0.3 0,-1.8 0,-3.6 0,-5.4 0,-0.8 0,-1.6 0,-2.4 0,-0.2 0,-0.3 0.2,-0.4 0.9,-0.5 1.5,-1.3 1.9,-2.4 0.1,-0.3 0.1,-0.6 0.1,-1 0,-1.9 0,-3.9 0,-5.8 0,-0.1 0,-0.1 0,-0.2 0,-0.1 0.1,-0.2 0.2,-0.2 0.1,0 0.1,0 0.2,0 1.2,0 2.3,0 3.5,0 v 0 h 11.2 v 0 c 0.6,0 1.1,0 1.7,0 0.2,0 0.3,0.1 0.4,0.2 0.3,0.3 0.5,0.5 0.7,0.8 0.9,0.9 1.3,1.9 1.2,3.1 z"
   id="path24" />

			<path
   d="m 60.4,75.6 v 0 0 0 c -0.3,0 -0.5,0 -0.8,-0.2 L 59.4,75.3 V 75.2 C 59,74.8 59,74.4 59,74 c 0,-1.7 0,-3.4 0,-5.1 v -0.6 c 0,-1 -0.6,-1.9 -1.4,-2.4 0.5,0.9 0.7,1.8 0.7,2.7 0,0.6 0,1.2 -0.1,1.8 0,0.3 0,0.5 0,0.8 v 1.1 c 0,0.7 -0.1,1.3 -0.1,2 0,0.5 -0.1,1 -0.1,1.6 0,0.4 0,0.8 -0.1,1.2 0,0.3 0,0.6 0,0.9 0,0.3 0,0.5 0,0.7 0,0.5 -0.1,1 -0.1,1.6 L 57.7,82 c 0,0.5 -0.1,1.1 -0.1,1.7 0,0.8 -0.8,1.5 -1.5,1.5 -1.4,0 -2.8,0 -4.3,0 -0.7,0 -1.4,-0.6 -1.5,-1.3 -0.1,-0.5 -0.2,-1 -0.3,-1.5 l -0.2,-1 c -0.1,-0.3 -0.1,-0.5 -0.2,-0.8 -2.2,0 -4.4,0 -6.5,0 H 41 l -0.1,0.3 c -0.1,0.4 -0.2,0.9 -0.3,1.3 0,0.3 -0.1,0.5 -0.1,0.7 -0.1,0.4 -0.2,0.8 -0.3,1.2 -0.2,0.7 -0.8,1.2 -1.5,1.2 -0.8,0 -1.5,0 -2.2,0 -0.7,0 -1.4,0 -2.1,0 -0.9,0 -1.5,-0.7 -1.5,-1.7 0,-0.3 0,-0.7 0,-1 0,-0.4 0,-0.7 0,-1 0,-0.6 0,-1.2 -0.1,-1.8 l -0.1,-2.7 v 0 c 0,-0.1 0,-0.3 0,-0.4 v 0 -0.1 c 0,-0.1 0,-0.2 -0.1,-0.4 C 32.5,76.1 32.4,76 32.2,76 v 0 c 0,0 -0.1,0 -0.1,0 h -0.4 -2.2 c 0,0 -0.1,0 -0.1,0 v 0 h -0.1 c -0.2,0 -0.4,0 -0.5,0 v 0 0 c 0,0 0,0 -0.1,0 -0.1,0 -0.3,0 -0.4,0 H 28 l -0.2,-0.1 c -1.8,-0.4 -3,-1.5 -3.6,-3.3 -0.1,-0.3 -0.1,-0.7 -0.1,-1.2 0,-2.4 0,-5 0,-7.6 0,-0.1 0,-0.1 0,-0.1 0,0 0,0 -0.1,0 -1.3,-0.7 -2.2,-1.8 -2.7,-3.3 -0.1,-0.3 -0.2,-0.6 -0.2,-0.9 0,-0.3 0.1,-0.6 0.3,-0.9 0.2,-0.2 0.5,-0.4 0.9,-0.4 0.7,0 1.4,0 2.2,0 h 0.6 v -0.1 c 0,-0.4 0,-0.8 0,-1.2 0,-1 0.6,-1.9 1.5,-2.3 0.7,-0.3 1.5,-0.1 2.1,0.3 0.6,0.4 0.9,1.1 1,1.8 0,0.4 0,0.7 0,1 0,0.1 0,0.2 0,0.4 H 32 c 0,-0.1 0,-0.3 0,-0.4 0,-0.4 0,-0.8 0,-1.2 0,-0.9 0.8,-1.8 1.7,-2 1.2,-0.3 2.4,0.5 2.7,1.6 0.1,0.2 0.1,0.4 0.1,0.7 0,0.3 0,0.6 0,0.9 0,0.1 0,0.2 0,0.3 h 1 c 0.6,0 1.2,0 1.7,0 0.4,0 0.7,0.1 0.9,0.3 0.2,0.2 0.3,0.5 0.3,0.9 0,0.5 -0.2,1 -0.4,1.4 -0.4,1 -1.1,1.8 -1.9,2.4 H 41 c 2.8,0 5.5,0 8.3,0 2.6,0 4.7,0 6.9,0 2.3,0 4.3,1.5 5,3.7 0.2,0.5 0.3,1.2 0.3,1.9 0,1.1 0,2.2 0,3.3 0,0.7 0,1.4 0,2.1 0,0.3 0,0.6 -0.2,1 z m -26.8,1.3 0.1,2.6 c 0,0.6 0,1.2 0.1,1.8 0,0.4 0,0.7 0,1 0,0.3 0,0.7 0,1 0,0.4 0.3,0.8 0.7,0.8 1.3,0 2.7,0 4.3,0 0.3,0 0.6,-0.2 0.6,-0.5 0.1,-0.4 0.2,-0.8 0.3,-1.2 0,-0.3 0.1,-0.5 0.1,-0.7 0.1,-0.4 0.2,-0.9 0.3,-1.3 l 0.2,-0.8 0.3,-0.1 c 0,0 0.1,0 0.2,0 H 43 c 2.2,0 4.4,0 6.7,0 v 0 c 0.4,0 0.6,0.2 0.7,0.6 0.1,0.3 0.1,0.6 0.2,0.9 l 0.2,1 c 0.1,0.5 0.2,1 0.3,1.6 0.1,0.3 0.4,0.6 0.7,0.6 1.4,0 2.8,0 4.3,0 0.3,0 0.6,-0.3 0.7,-0.7 0,-0.5 0.1,-1.1 0.1,-1.7 L 57,80.1 c 0,-0.5 0.1,-1 0.1,-1.6 0,-0.3 0,-0.5 0,-0.7 0,-0.3 0,-0.6 0,-0.9 0,-0.4 0,-0.8 0.1,-1.2 0,-0.5 0.1,-1 0.1,-1.6 0,-0.7 0.1,-1.3 0.1,-2 V 71 c 0,-0.3 0,-0.5 0,-0.8 0,-0.6 0.1,-1.2 0.1,-1.8 0,-1.1 -0.4,-2.1 -1.1,-3 0,0 -0.1,-0.1 -0.1,-0.1 l -0.5,-0.7 0.8,-0.1 c 0,0 0.1,0 0.2,0 1.7,0.3 3.2,1.9 3.2,3.7 v 0.6 c 0,1.7 0,3.4 0,5.1 0,0.3 0,0.5 0.1,0.6 0.1,0 0.1,0 0.2,0 h 0.1 v 0 c 0,0 0,0 0,0 v 0 c 0.2,-0.1 0.2,-0.3 0.2,-0.6 0,-0.7 0,-1.4 0,-2.1 0,-1.1 0,-2.2 0,-3.3 0,-0.6 -0.1,-1.1 -0.2,-1.6 -0.6,-1.8 -2.3,-3.1 -4.2,-3.1 -2.2,0 -4.4,0 -6.9,0 -2.8,0 -5.5,0 -8.3,0 h -3.6 -0.1 c -0.1,0 -0.1,0 -0.2,0 -0.1,0 -0.1,0 -0.2,0 l -0.3,-0.1 -0.1,-0.3 c -0.1,-0.4 0,-0.8 0.4,-0.9 0,0 0.1,0 0.1,-0.1 0.9,-0.5 1.7,-1.3 2.1,-2.3 0.1,-0.4 0.3,-0.7 0.3,-1.1 0,-0.1 0,-0.2 -0.1,-0.3 0,0 -0.1,-0.1 -0.3,-0.1 -0.6,0 -1.2,0 -1.7,0 h -1.2 c -0.1,0 -0.1,0 -0.2,0 h -0.5 v -0.5 c 0,-0.1 0,-0.1 0,-0.2 0,-0.1 0,-0.3 0,-0.5 0,-0.3 0,-0.6 0,-0.9 0,-0.1 0,-0.4 -0.1,-0.5 -0.2,-0.6 -0.8,-1.2 -1.7,-1 -0.5,0.1 -1,0.6 -1.1,1.2 0,0.4 0,0.8 0,1.2 0,0.2 0,0.4 0,0.5 0,0.1 0,0.1 0,0.2 v 0.5 h -4.2 v -0.8 c 0,-0.1 0,-0.3 0,-0.5 0,-0.3 0,-0.7 0,-1 0,-0.5 -0.2,-0.9 -0.6,-1.1 -0.4,-0.3 -0.9,-0.3 -1.3,-0.2 -0.6,0.2 -0.9,0.8 -0.9,1.4 0,0.4 0,0.8 0,1.2 v 0.3 c 0,0.1 0,0.1 0,0.2 v 0.5 H 24 c -0.7,0 -1.4,0 -2.2,0 -0.1,0 -0.2,0 -0.3,0.1 0,0 0,0.1 0,0.2 0,0.3 0.1,0.5 0.2,0.7 0.4,1.3 1.2,2.2 2.3,2.7 0.4,0.2 0.6,0.5 0.6,0.9 0,2.6 0,5.2 0,7.6 0,0.4 0,0.7 0.1,0.9 0.5,1.5 1.4,2.4 2.9,2.7 0.1,0 0.1,0 0.2,0.1 v 0 c 0,0 0,0 0,0 v 0 c 0,0 0,0 0.1,0 0.1,0 0.2,0 0.4,0 0,0 0,0 0.1,0 0.2,0 0.4,0 0.6,0 h 0.1 c 0.1,0 0.1,0 0.2,0 h 3.1 v 0 c 0.4,0.1 0.6,0.3 0.8,0.7 0.1,0.2 0.2,0.5 0.2,0.8 0,0 0,0.1 0,0.1 0,0.1 0,0.3 0,0.4 0.2,0.3 0.2,0.3 0.2,0.4 z m -5.8,-1.3 c 0,0 0,0 0,0 z m 7.4,7.8 c -0.5,0 -0.7,-0.2 -0.7,-0.8 v -5.7 c 0,-0.7 0,-1.4 0,-2.1 0,-0.3 0.1,-0.6 0.4,-0.8 0.8,-0.5 1.4,-1.2 1.7,-2.1 0.1,-0.3 0.1,-0.5 0.1,-0.9 0,-1.5 0,-2.9 0,-4.4 v -1.5 0 c 0,0 0,-0.1 0,-0.1 0,-0.3 0.1,-0.4 0.2,-0.5 0.1,-0.1 0.2,-0.2 0.5,-0.2 h 0.9 c 0.8,0 1.7,0 2.5,0 H 41 52.7 v 0.1 c 0.4,0 0.8,0 1.2,0 v 0 c 0.3,0 0.6,0.1 0.8,0.4 0.2,0.3 0.5,0.5 0.7,0.8 0.9,0.9 1.4,2.1 1.3,3.4 0,0.6 -0.1,1.3 -0.1,1.9 l -0.2,4.2 c -0.1,1.3 -0.1,2.6 -0.2,3.9 0,0.6 -0.1,1.3 -0.1,2 L 56,83.3 H 52 L 51.9,83 c -0.2,-0.8 -0.4,-1.7 -0.6,-2.5 -0.1,-0.6 -0.3,-1.2 -0.4,-1.8 -3.7,0 -7.3,0 -11.1,0 -0.1,0.4 -0.2,0.9 -0.3,1.3 l -0.3,1 c -0.1,0.6 -0.3,1.2 -0.4,1.9 -0.1,0.5 -0.3,0.6 -0.8,0.6 z m 0.1,-8.5 c 0,0.7 0,1.4 0,2.1 v 5.5 h 2.6 c 0.1,-0.6 0.3,-1.2 0.4,-1.8 l 0.2,-0.9 c 0.1,-0.4 0.2,-0.9 0.3,-1.3 0.1,-0.4 0.3,-0.6 0.8,-0.6 3.7,0 7.5,0 11.2,0 0.1,0 0.1,0 0.2,0 h 0.4 l 0.1,0.3 c 0.2,0.7 0.3,1.4 0.5,2.2 0.1,0.7 0.3,1.4 0.5,2.2 H 55 l 0.1,-1.5 c 0,-0.6 0.1,-1.3 0.1,-1.9 0.1,-1.3 0.1,-2.6 0.2,-3.9 l 0.2,-4.2 c 0,-0.6 0.1,-1.3 0.1,-1.9 0.1,-1 -0.3,-1.9 -1,-2.7 -0.3,-0.3 -0.5,-0.5 -0.8,-0.8 0,0 0,0 -0.1,0 -0.6,0 -1.1,0 -1.7,0 h -0.4 v 0 H 41 c -0.9,0 -1.9,0 -2.8,0 h -0.6 v 1.4 c 0,1.5 0,2.9 0,4.4 0,0.4 -0.1,0.8 -0.2,1.1 -0.4,0.8 -1.1,1.7 -2.1,2.3 z m 2,-9.5 z m -8.6,8.7 c -0.8,0 -1.5,-0.2 -2.1,-0.6 -0.9,-0.6 -1.3,-1.6 -1.4,-2.8 0,-1.9 0,-3.8 0,-5.7 v -2.5 c 0,0 0,-0.1 0,-0.1 0,-0.1 0,-0.2 -0.3,-0.3 -1,-0.3 -1.8,-1 -2.3,-2 0,-0.1 -0.1,-0.1 -0.1,-0.2 0,-0.1 0,-0.2 0,-0.3 l 0.1,-0.4 h 0.4 7.3 v 0.9 c 0,0.2 0,0.4 0,0.6 0,0.4 0,0.8 0,1.2 0.1,1 0.4,2.1 0.8,3.1 0.4,0.9 0.9,1.7 1.6,2.4 0.9,0.9 1.8,1.5 2.9,1.8 0.5,0.1 0.5,0.5 0.5,0.6 0,0.2 0,0.4 0,0.5 0,0.4 0,0.8 -0.1,1.2 -0.2,1 -0.9,1.8 -1.8,2.3 -0.4,0.2 -0.8,0.3 -1.4,0.3 h -1.5 c -0.9,0 -1.7,0 -2.6,0 z m -5,-14 c 0.4,0.6 0.9,1 1.5,1.2 0.8,0.3 0.9,0.8 0.9,1.1 0,0.1 0,0.1 0,0.2 V 65 c 0,1.9 0,3.8 0,5.7 0,0.9 0.3,1.5 1,2.1 0.4,0.3 0.9,0.4 1.5,0.4 0.9,0 1.8,0 2.6,0 h 1.5 c 0.4,0 0.8,-0.1 1,-0.2 0.7,-0.3 1.2,-0.9 1.3,-1.7 0.1,-0.3 0.1,-0.6 0,-1 0,-0.1 0,-0.3 0,-0.4 -1.2,-0.4 -2.2,-1 -3.1,-2 -0.7,-0.7 -1.3,-1.6 -1.8,-2.6 -0.5,-1.1 -0.8,-2.2 -0.9,-3.4 0,-0.4 0,-0.9 0,-1.3 0,-0.2 0,-0.4 0,-0.5 z m 10.1,7 v 0 c -0.3,0 -0.6,-0.1 -0.9,-0.4 -0.3,-0.3 -0.4,-0.6 -0.4,-0.9 0,-0.7 0.6,-1.3 1.3,-1.3 v 0 c 0.4,0 0.7,0.2 0.9,0.5 0.2,0.3 0.3,0.6 0.3,0.9 0,0.6 -0.6,1.2 -1.2,1.2 z m -0.1,-1.7 c -0.2,0 -0.4,0.2 -0.4,0.4 0,0.1 0,0.2 0.1,0.3 0.1,0.1 0.2,0.1 0.3,0.1 0.2,0 0.4,-0.2 0.4,-0.4 v 0 c 0,-0.1 0,-0.1 -0.1,-0.2 0,-0.2 -0.2,-0.2 -0.3,-0.2 z m -5.8,-6.8 h -1.5 l -0.1,-0.4 c 0,0 0,-0.1 0,-0.2 0,-0.5 0,-1 0,-1.5 0,-0.2 0,-0.4 0.1,-0.5 0.1,-0.4 0.6,-0.6 0.9,-0.5 0.4,0.1 0.7,0.4 0.7,0.9 0,0.5 0,0.9 0,1.3 v 0.4 c 0,0.1 0,0.2 0,0.2 z m -0.8,-2.2 z m 8,2.2 h -1.7 v -0.9 c 0,-0.4 0,-0.8 0,-1.2 0,-0.5 0.4,-0.8 0.8,-0.9 0.2,0 0.5,0.1 0.6,0.2 0.2,0.1 0.3,0.4 0.3,0.6 0,0.4 0,0.9 0,1.3 z"
   id="path26" />

			<path
   class="st1"
   d="M 55.1,66 C 54.8,65.7 54.6,65.5 54.4,65.2 54.3,65 54.1,65 53.9,65 c -0.4,0 -0.8,0 -1.2,0 v 0 H 41.9 c -0.1,0 -0.2,0 -0.3,0 -1.4,0 -2.8,0 -4.2,0 -0.1,0 -0.1,0 -0.2,0 -0.1,0 -0.2,0.1 -0.2,0.2 0,0.1 0,0.1 0,0.2 0,1.9 0,3.9 0,5.8 0,0.3 0,0.7 -0.1,1 -0.3,1 -0.9,1.8 -1.9,2.4 -0.1,0.1 -0.2,0.2 -0.2,0.4 0,0.8 0,1.6 0,2.4 0,1.8 0,3.6 0,5.4 0,0.3 0,0.3 0.3,0.3 0.9,0 1.8,0 2.7,0 0.3,0 0.3,0 0.4,-0.3 0.1,-0.6 0.3,-1.3 0.4,-2 0.1,-0.7 0.3,-1.4 0.5,-2.1 0.1,-0.3 0.1,-0.3 0.4,-0.3 3.7,0 7.5,0 11.2,0 0.1,0 0.2,0 0.3,0 0.4,1.6 0.7,3.1 1.1,4.7 1.1,0 2.2,0 3.3,0 0,-0.5 0.1,-1 0.1,-1.5 0,-0.8 0.1,-1.6 0.1,-2.4 0.1,-1.3 0.1,-2.6 0.2,-3.9 0.1,-1.2 0.1,-2.3 0.2,-3.5 0,-0.9 0.1,-1.8 0.1,-2.7 0.2,-1.3 -0.2,-2.3 -1,-3.1 z"
   id="path28" />

			<path
   d="m 43,69.8 c 1.6,0 3,-1.3 3,-3 0,-1.7 -1.3,-3 -3,-3 -1.6,0 -3,1.3 -3,3 0,1.7 1.3,3 3,3 z"
   id="path30" />

			<path
   d="m 51.4,75.8 c 1.4,0 2.5,-1.1 2.5,-2.5 0,-1.4 -1.1,-2.5 -2.5,-2.5 -1.4,0 -2.5,1.1 -2.5,2.5 0,1.4 1.1,2.5 2.5,2.5 z"
   id="path32" />

			<path
   d="m 43,79.2 c 1.4,0 2.7,0.1 4.1,0.3 0,0 0.1,0 0.1,0 0,-0.2 0,-0.4 0,-0.6 0,-2.2 -1.8,-4 -4,-4 -2.2,0 -4,1.8 -4,4 0,0.4 0.1,0.8 0.1,1.1 1.1,-0.8 2.5,-0.7 3.7,-0.8 z"
   id="path34" />

			<path
   d="m 44.9,63.6 c -0.1,0 -0.2,0 -0.3,0 -0.4,0.4 -0.5,0.8 -0.5,1.3 0,1.3 1.5,2.4 3.3,2.4 1.8,0 3.3,-1.1 3.3,-2.4 0,-0.5 -0.2,-0.9 -0.5,-1.3 0,0 -5.3,0 -5.3,0 z"
   id="path36" />

			<path
   class="st1"
   d="m 32.9,65.8 c 0,-0.5 0.4,-0.9 0.9,-0.9 0.5,0 0.9,0.4 0.9,0.9 0,0.5 -0.4,0.9 -0.9,0.9 -0.5,0 -0.9,-0.4 -0.9,-0.9 z"
   id="path38" />

			<path
   class="st1"
   d="m 27.6,57.8 c -0.4,0 -0.8,0 -1.2,0 0,-0.1 0,-0.1 0,-0.2 0,-0.6 0,-0.4 0,-1.1 0,-0.1 0,-0.3 0.1,-0.4 0.1,-0.2 0.4,-0.4 0.6,-0.3 0.3,0.1 0.6,0.3 0.6,0.6 0,0.7 0,0.6 0,1.3 0,0 -0.1,0 -0.1,0.1 z"
   id="path40" />

			<path
   class="st1"
   d="m 34.9,57.8 c -0.4,0 -0.8,0 -1.2,0 0,-0.1 0,-0.1 0,-0.2 0,-0.6 0,-0.4 0,-1.1 0,-0.1 0,-0.3 0.1,-0.4 0.1,-0.2 0.4,-0.4 0.6,-0.3 0.3,0 0.5,0.3 0.5,0.6 0,0.7 0,0.6 0,1.3 0,0 0,0 0,0.1 z"
   id="path42" />

		</g>

	</g>

</g>
  <path
     d="m 177.8,71.8 c -0.1,0.1 -0.3,0.1 -0.4,0.1 -1.8,0 -3.5,0 -5.3,0 h -0.4 c 0.2,0.7 0.5,1.2 1.2,1.4 1.1,0.4 2,0 2.8,-0.7 l 1.7,1.5 c -0.4,0.3 -0.7,0.7 -1.1,0.9 -1.8,1 -3.6,1.1 -5.4,0.1 -0.9,-0.5 -1.4,-1.2 -1.7,-2.1 -0.4,-1.2 -0.4,-2.6 0.1,-3.8 0.7,-1.8 2.4,-2.8 4.5,-2.7 2.7,0.1 3.9,2 4.1,4.1 0,0.1 0,0.3 0.1,0.4 z M 175,70.2 c 0,-1 -0.6,-1.7 -1.5,-1.7 -0.9,0 -1.7,0.7 -1.8,1.7 z"
     id="path50"
     style="fill:#ffffff" />
  <path
     d="M 67.6,75.6 V 63.9 c 0.1,0 0.2,0 0.3,0 1.8,0 3.6,0 5.4,0 0.8,0 1.6,0.2 2.4,0.6 1,0.5 1.6,1.4 1.5,2.6 -0.1,1.1 -0.7,1.9 -1.7,2.3 0,0 -0.1,0 -0.1,0.1 0.1,0.1 0.3,0.1 0.4,0.1 1.2,0.5 1.9,1.7 1.8,3 -0.1,1.5 -1.1,2.6 -2.8,2.9 -0.5,0.1 -0.9,0.1 -1.4,0.1 -1.8,0 -3.5,0 -5.3,0 z m 3,-2.4 c 0.7,0 1.5,0 2.2,0 0.1,0 0.3,0 0.4,0 0.5,-0.1 0.9,-0.2 1.1,-0.7 0.4,-0.8 -0.2,-1.6 -1.2,-1.7 -0.7,0 -1.3,0 -2,0 -0.2,0 -0.4,0 -0.6,0 v 2.4 z m 0,-4.7 c 0.5,0 1,0 1.5,0 0.4,0 0.8,0 1.1,-0.1 0.6,-0.1 1,-0.6 0.9,-1.1 0,-0.6 -0.4,-1 -1,-1 -0.8,-0.1 -1.7,0 -2.6,0 v 2.2 z"
     id="path52"
     style="fill:#ffffff" />
  <path
     d="m 124.8,63.9 v 2.4 h -5.4 v 2.6 h 5 v 2.5 h -5 v 4.2 h -3 V 63.9 Z"
     id="path54"
     style="fill:#ffffff" />
  <path
     d="m 102.8,78 c 0.4,-0.7 0.8,-1.4 1.2,-2 0.3,0.1 0.6,0.3 1,0.4 0.7,0.2 1.4,-0.4 1.5,-1 0,-0.1 0,-0.2 -0.1,-0.3 -1.1,-2.7 -2.2,-5.5 -3.4,-8.2 0,-0.1 -0.1,-0.2 -0.1,-0.3 h 0.9 c 0.3,0 0.6,0 0.9,0 0.4,0 0.9,-0.1 1.1,0.1 0.2,0.2 0.3,0.7 0.4,1 0.5,1.4 1,2.9 1.5,4.3 0,0.1 0.1,0.2 0.2,0.4 l 1.8,-5.8 h 2.9 c 0,0.1 -0.1,0.2 -0.1,0.4 -1.2,3.2 -2.4,6.3 -3.6,9.5 -0.3,0.7 -0.6,1.3 -1.2,1.8 -1.3,1 -3.6,1 -4.9,-0.3 z"
     id="path56"
     style="fill:#ffffff" />
  <path
     d="m 159.4,75.6 h -2.8 v -0.4 c 0,-1.4 0,-2.9 0,-4.3 0,-0.2 0,-0.5 -0.1,-0.7 -0.1,-0.6 -0.5,-1 -1.1,-1.1 -0.6,-0.1 -1.3,0.1 -1.7,0.6 -0.3,0.4 -0.4,0.8 -0.4,1.3 0,1.4 0,2.7 0,4.1 v 0.4 h -2.9 v -9 h 2.9 v 1.4 l 0.3,-0.3 c 1.1,-1.4 3.4,-1.6 4.7,-0.4 0.6,0.5 1,1.3 1,2.2 0.1,2 0.1,4.1 0.1,6.2 z"
     id="path58"
     style="fill:#ffffff" />
  <path
     d="m 139.5,75.6 h -2.9 V 71 c 0,-0.1 0,-0.1 0,-0.2 0,-1 -0.5,-1.6 -1.3,-1.7 -0.8,-0.1 -1.6,0.5 -1.8,1.3 -0.1,0.2 -0.1,0.4 -0.1,0.6 0,1.4 0,2.7 0,4.1 v 0.4 h -2.9 v -9 h 2.9 v 1.2 c 0.5,-0.3 0.9,-0.8 1.4,-1 1.6,-0.8 3.5,-0.2 4.2,1.2 0.3,0.6 0.4,1.2 0.4,1.8 0,1.9 0,3.8 0,5.7 0.1,0.1 0.1,0.1 0.1,0.2 z"
     id="path60"
     style="fill:#ffffff" />
  <path
     d="m 146,70.2 c 0.1,-0.8 -0.4,-1.4 -1.3,-1.4 -0.9,-0.1 -1.7,0.2 -2.6,0.5 -0.1,0 -0.2,0.1 -0.3,0.2 0,0 0,0 -0.1,0 -0.2,-0.6 -0.5,-1.3 -0.8,-2 0.8,-0.4 1.6,-0.7 2.4,-0.8 1.1,-0.2 2.1,-0.3 3.2,0 1.4,0.4 2.3,1.4 2.3,2.9 0,2 0,4 0,6.1 H 146 v -0.9 c -0.1,0 -0.1,0 -0.1,0 -1,1 -2.2,1.2 -3.5,0.9 -1.3,-0.3 -2.2,-1.5 -2,-2.9 0.1,-1.5 1.1,-2.5 2.8,-2.5 0.8,0 1.6,0 2.4,0 z m 0,1.6 c -0.7,0 -1.4,0 -2.1,0 -0.6,0 -0.8,0.4 -0.8,0.9 0,0.5 0.3,0.9 0.9,1 1.3,0.2 2.1,-0.6 2,-1.9 z"
     id="path62"
     style="fill:#ffffff" />
  <path
     d="m 96.5,71.9 h -6 c 0.2,0.7 0.6,1.2 1.2,1.4 0.9,0.3 1.8,0.1 2.7,-0.8 0.5,0.5 1,1 1.6,1.5 -0.4,0.6 -1,1 -1.7,1.3 -1.3,0.5 -2.8,0.6 -4.1,0.1 -1.1,-0.4 -2,-1.3 -2.4,-2.5 -0.4,-1.2 -0.4,-2.4 0,-3.6 0.6,-1.9 2.4,-3 4.6,-2.9 2.7,0.1 3.9,2 4.1,4 0,0.4 0,0.8 0.1,1.2 -0.1,0.1 -0.1,0.2 -0.1,0.3 z m -2.8,-1.7 c 0.1,-0.8 -0.5,-1.6 -1.4,-1.7 0,0 -0.1,0 -0.1,0 -0.9,0 -1.7,0.8 -1.7,1.7 z"
     id="path64"
     style="fill:#ffffff" />
  <path
     d="m 87.1,71.9 h -6 c 0.2,1.5 2.3,2.3 3.9,0.7 l 1.6,1.4 c -0.4,0.5 -0.9,0.9 -1.5,1.1 -1.3,0.6 -2.8,0.7 -4.2,0.2 C 79.6,74.9 78.8,74 78.4,72.7 78,71.5 78,70.2 78.5,69 79.2,67.2 81,66.1 83,66.3 c 2.7,0.2 3.9,2 4.1,4.3 0,0.5 0,0.8 0,1.3 z m -2.8,-1.7 c 0,-1 -0.6,-1.7 -1.5,-1.7 -0.9,0 -1.7,0.8 -1.7,1.7 z"
     id="path66"
     style="fill:#ffffff" />
  <path
     d="m 102.8,66.9 v 2 h -1.9 v 6.6 H 98 V 69 H 96.8 V 67 H 98 c -0.1,-1.5 0.1,-2.8 1.6,-3.6 1,-0.5 2.5,-0.5 3.5,0 -0.1,0.7 -0.2,1.5 -0.4,2.2 -1.7,-0.6 -2.1,0.2 -1.9,1.3 z"
     id="path68"
     style="fill:#ffffff" />
  <path
     d="m 166.7,72.3 2.1,1.3 c -0.2,0.3 -0.4,0.6 -0.6,0.9 -1.6,1.7 -5.3,1.8 -6.9,-0.3 -1.4,-1.8 -1.2,-4.9 0.5,-6.5 1.1,-1 2.4,-1.3 3.8,-1.1 1.4,0.2 2.5,0.8 3.3,2.1 l -2.1,1.3 c -0.3,-0.4 -0.7,-0.7 -1.1,-0.9 -0.9,-0.3 -1.7,0.1 -2.1,1 -0.3,0.7 -0.3,1.5 0,2.2 0.2,0.6 0.6,1 1.3,1.1 0.7,0.1 1.3,-0.1 1.8,-0.7 z"
     id="path70"
     style="fill:#ffffff" />
  <path
     d="m 125.9,66.5 h 2.8 v 9 h -2.8 z"
     id="path72"
     style="fill:#ffffff" />
  <path
     d="m 128.8,64 c 0,0.9 -0.7,1.6 -1.5,1.6 -0.9,0 -1.5,-0.7 -1.5,-1.6 0,-0.9 0.6,-1.6 1.5,-1.6 0.8,0 1.5,0.6 1.5,1.6 z"
     id="path74"
     style="fill:#ffffff" />
</g>

	</g>

</g>
    </g>
  </g>
  <style
     type="text/css"
     id="style10">
	.st0{clip-path:url(#SVGID_00000165195380769506201950000017977991400291373739_);}
	.st1{fill:#FFFFFF;}
</style>
</svg>
