<svg xmlns="http://www.w3.org/2000/svg" xmlns:xlink="http://www.w3.org/1999/xlink" width="156.9" height="30.664" viewBox="0 0 41.513 8.113" version="1.1" id="svg8"><defs id="defs2"><path id="SVGID_1_" d="M20.8 54.1h40.7v31H20.8z"/></defs><g id="layer1" transform="translate(-48.791 -151.67)"><g id="g123" transform="matrix(.26458 0 0 .26458 43.208 137.267)"><g id="Layer_2"><g id="Layer_1-2"><g id="g178"><g id="g48"><g id="g46"><defs id="defs13"><path id="rect87" d="M20.8 54.1h40.7v31H20.8z"/></defs><clipPath id="SVGID_00000107565102417938712170000013500106287778073000_"><use xlink:href="#SVGID_1_" style="overflow:visible" id="use15" x="0" y="0" width="100%" height="100%"/></clipPath><g clip-path="url(#SVGID_00000107565102417938712170000013500106287778073000_)" id="g44"><path class="st1" d="M23 59.7h6.8v2.2c.1 1.1.4 2.2.9 3.2.4.9 1 1.8 1.7 2.5.9.9 1.9 1.6 3.1 1.9.1 0 .1.1.1.2 0 .6.1 1.1-.1 1.7-.2.9-.8 1.6-1.6 1.9-.4.2-.8.3-1.2.3h-4.1c-.6 0-1.3-.1-1.8-.5-.8-.6-1.2-1.4-1.2-2.4V62.4c0-.4-.3-.6-.6-.7-.9-.3-1.6-.9-2.1-1.8.1 0 .1-.1.1-.2zm4 6.1c0 .5.4.9.9.9s.9-.4.9-.9-.4-.9-.9-.9-.9.3-.9.9z" id="path18"/><path class="st1" d="M34.6 65.8c0 .4-.4.8-.8.8s-.8-.4-.8-.9c0-.4.4-.8.8-.8s.8.5.8.9z" id="path20"/><path d="M27 65.8c0-.5.4-.9.9-.9s.9.4.9.9-.4.9-.9.9-.9-.4-.9-.9z" id="path22"/><path d="M60.4 75.1h.2l.1-.1c.4-.3.4-.6.4-1v-5.4c0-.6-.1-1.2-.3-1.7-.6-2-2.5-3.4-4.6-3.4H37.2c-.1-.2 0-.3.2-.4.1 0 .1 0 .2-.1 1.1-.5 1.8-1.4 2.3-2.6.2-.4.3-.8.4-1.3 0-.5-.3-.8-.8-.8H36.3v-1.7c0-.2 0-.4-.1-.6-.3-.9-1.2-1.5-2.2-1.3-.7.1-1.4.8-1.4 1.5v2H29v-1.8c0-1.2-1.2-2.1-2.5-1.7-.8.3-1.3 1-1.3 1.8v1.7H22c-.5 0-.8.3-.7.8 0 .3.1.6.2.8.4 1.3 1.3 2.4 2.5 3 .3.1.3.3.3.5v7.6c0 .4 0 .7.1 1 .5 1.7 1.6 2.7 3.2 3H32c.4 0 .6.2.8.5.1.2.2.4.2.6v.7c0 .6 0 1.2.1 1.8 0 .9.1 1.8.1 2.7v2.1c0 .7.5 1.2 1.1 1.2h4.3c.5 0 .9-.4 1-.9.1-.6.3-1.3.4-1.9.1-.6.3-1.3.4-1.9h8.9c.2 0 .2.1.3.2l.3 1.2c.2.8.3 1.5.5 2.3.1.5.6.9 1.1 1h4.3c.6 0 1.1-.5 1.1-1.1 0-.7.1-1.4.1-2.2 0-.9.1-1.8.1-2.7 0-.5 0-1 .1-1.6 0-.9.1-1.8.1-2.8.1-1 .1-2.1.1-3.1 0-.9.1-1.7.1-2.6 0-1.3-.4-2.4-1.2-3.3 0 0-.1-.1-.1-.2h.1c1.5.2 2.8 1.7 2.8 3.2v5.7c0 .4 0 .7.3 1 .6.2.8.3 1 .3zM33.8 56.4c0-.2.2-.4.4-.4s.4.1.4.4v1.8h-.9c.1-.7.1-1.2.1-1.8zm0 8.5c.4 0 .9.4.8.9 0 .4-.4.8-.8.8s-.8-.4-.8-.9c-.1-.4.3-.8.8-.8zm-7.1-8.4c0-.1 0-.2.1-.3.1-.2.3-.3.4-.3.2 0 .4.2.4.4V58h-.8v-.2c-.1-.3-.1-.8-.1-1.3zm7.3 17c-.4.2-.8.3-1.2.3h-4.1c-.6 0-1.3-.1-1.8-.5-.8-.6-1.2-1.4-1.2-2.4V62.6c0-.4-.3-.6-.6-.7-.9-.3-1.6-.9-2.1-1.8V59.8h6.8V62c.1 1.1.4 2.2.9 3.2.4.9 1 1.8 1.7 2.5.9.9 1.9 1.6 3.1 1.9.1 0 .1.1.1.2 0 .6.1 1.1-.1 1.7-.1.9-.6 1.6-1.5 2zM56.2 69c-.1.9-.1 1.8-.1 2.7-.1 1.2-.1 2.3-.2 3.5-.1 1.3-.1 2.6-.2 3.9 0 .8-.1 1.6-.1 2.4 0 .5-.1 1-.1 1.5h-3.3c-.4-1.5-.7-3.1-1.1-4.7H39.6c-.3 0-.3 0-.4.3-.1.7-.3 1.4-.5 2.1-.1.6-.3 1.3-.4 2-.1.3-.1.3-.4.3h-2.7c-.3 0-.3 0-.3-.3V74.9c0-.2 0-.3.2-.4.9-.5 1.5-1.3 1.9-2.4.1-.3.1-.6.1-1v-6c0-.1.1-.2.2-.2H53.9c.2 0 .3.1.4.2.3.3.5.5.7.8.9.9 1.3 1.9 1.2 3.1z" id="path24"/><path d="M60.4 75.6c-.3 0-.5 0-.8-.2l-.2-.1v-.1c-.4-.4-.4-.8-.4-1.2V68.3c0-1-.6-1.9-1.4-2.4.5.9.7 1.8.7 2.7 0 .6 0 1.2-.1 1.8V72.3c0 .7-.1 1.3-.1 2 0 .5-.1 1-.1 1.6 0 .4 0 .8-.1 1.2v1.6c0 .5-.1 1-.1 1.6l-.1 1.7c0 .5-.1 1.1-.1 1.7 0 .8-.8 1.5-1.5 1.5h-4.3c-.7 0-1.4-.6-1.5-1.3l-.3-1.5-.2-1c-.1-.3-.1-.5-.2-.8H41l-.1.3c-.1.4-.2.9-.3 1.3 0 .3-.1.5-.1.7l-.3 1.2c-.2.7-.8 1.2-1.5 1.2H34.4c-.9 0-1.5-.7-1.5-1.7v-2c0-.6 0-1.2-.1-1.8l-.1-2.7v-.5c0-.1 0-.2-.1-.4-.1-.1-.2-.2-.4-.2H28l-.2-.1c-1.8-.4-3-1.5-3.6-3.3-.1-.3-.1-.7-.1-1.2V63.7H24c-1.3-.7-2.2-1.8-2.7-3.3-.1-.3-.2-.6-.2-.9 0-.3.1-.6.3-.9.2-.2.5-.4.9-.4H25.1v-1.3c0-1 .6-1.9 1.5-2.3.7-.3 1.5-.1 2.1.3.6.4.9 1.1 1 1.8v1.4H32v-1.6c0-.9.8-1.8 1.7-2 1.2-.3 2.4.5 2.7 1.6.1.2.1.4.1.7V58h2.7c.4 0 .7.1.9.3.2.2.3.5.3.9 0 .5-.2 1-.4 1.4-.4 1-1.1 1.8-1.9 2.4h18.1c2.3 0 4.3 1.5 5 3.7.2.5.3 1.2.3 1.9V74c0 .3 0 .6-.2 1zm-26.8 1.3.1 2.6c0 .6 0 1.2.1 1.8v2c0 .4.3.8.7.8h4.3c.3 0 .6-.2.6-.5l.3-1.2c0-.3.1-.5.1-.7.1-.4.2-.9.3-1.3l.2-.8.3-.1H49.7c.4 0 .6.2.7.6.1.3.1.6.2.9l.2 1c.1.5.2 1 .3 1.6.1.3.4.6.7.6h4.3c.3 0 .6-.3.7-.7 0-.5.1-1.1.1-1.7l.1-1.7c0-.5.1-1 .1-1.6v-1.6c0-.4 0-.8.1-1.2 0-.5.1-1 .1-1.6 0-.7.1-1.3.1-2V70.2c0-.6.1-1.2.1-1.8 0-1.1-.4-2.1-1.1-3l-.1-.1-.5-.7.8-.1h.2c1.7.3 3.2 1.9 3.2 3.7V73.9c0 .3 0 .5.1.6H60.4c.2-.1.2-.3.2-.6v-5.4c0-.6-.1-1.1-.2-1.6-.6-1.8-2.3-3.1-4.2-3.1H36.9l-.3-.1-.1-.3c-.1-.4 0-.8.4-.9 0 0 .1 0 .1-.1.9-.5 1.7-1.3 2.1-2.3.1-.4.3-.7.3-1.1 0-.1 0-.2-.1-.3 0 0-.1-.1-.3-.1h-3.6v-2.1c0-.1 0-.4-.1-.5-.2-.6-.8-1.2-1.7-1-.5.1-1 .6-1.1 1.2v2.4h-4.2v-2.3c0-.5-.2-.9-.6-1.1-.4-.3-.9-.3-1.3-.2-.6.2-.9.8-.9 1.4v2.2h-3.7c-.1 0-.2 0-.3.1v.2c0 .3.1.5.2.7.4 1.3 1.2 2.2 2.3 2.7.4.2.6.5.6.9v7.6c0 .4 0 .7.1.9.5 1.5 1.4 2.4 2.9 2.7.1 0 .1 0 .2.1h4.6c.4.1.6.3.8.7.1.2.2.5.2.8v.5c.2.3.2.3.2.4zm-5.8-1.3zm7.4 7.8c-.5 0-.7-.2-.7-.8V74.8c0-.3.1-.6.4-.8.8-.5 1.4-1.2 1.7-2.1.1-.3.1-.5.1-.9v-6c0-.3.1-.4.2-.5.1-.1.2-.2.5-.2H52.7v.1h1.2c.3 0 .6.1.8.4.2.3.5.5.7.8.9.9 1.4 2.1 1.3 3.4 0 .6-.1 1.3-.1 1.9l-.2 4.2c-.1 1.3-.1 2.6-.2 3.9 0 .6-.1 1.3-.1 2l-.1 2.3h-4l-.1-.3c-.2-.8-.4-1.7-.6-2.5-.1-.6-.3-1.2-.4-1.8H39.8c-.1.4-.2.9-.3 1.3l-.3 1c-.1.6-.3 1.2-.4 1.9-.1.5-.3.6-.8.6zm.1-8.5v7.6h2.6c.1-.6.3-1.2.4-1.8l.2-.9c.1-.4.2-.9.3-1.3.1-.4.3-.6.8-.6H51.4l.1.3c.2.7.3 1.4.5 2.2.1.7.3 1.4.5 2.2H55l.1-1.5c0-.6.1-1.3.1-1.9.1-1.3.1-2.6.2-3.9l.2-4.2c0-.6.1-1.3.1-1.9.1-1-.3-1.9-1-2.7l-.8-.8H37.6V71.5c0 .4-.1.8-.2 1.1-.4.8-1.1 1.7-2.1 2.3zm2-9.5zm-8.6 8.7c-.8 0-1.5-.2-2.1-.6-.9-.6-1.3-1.6-1.4-2.8V62.4c0-.1 0-.2-.3-.3-1-.3-1.8-1-2.3-2 0-.1-.1-.1-.1-.2v-.3l.1-.4h7.7v2.7c.1 1 .4 2.1.8 3.1.4.9.9 1.7 1.6 2.4.9.9 1.8 1.5 2.9 1.8.5.1.5.5.5.6v.5c0 .4 0 .8-.1 1.2-.2 1-.9 1.8-1.8 2.3-.4.2-.8.3-1.4.3h-4.1zm-5-14c.4.6.9 1 1.5 1.2.8.3.9.8.9 1.1v8.3c0 .9.3 1.5 1 2.1.4.3.9.4 1.5.4h4.1c.4 0 .8-.1 1-.2.7-.3 1.2-.9 1.3-1.7.1-.3.1-.6 0-1v-.4c-1.2-.4-2.2-1-3.1-2-.7-.7-1.3-1.6-1.8-2.6-.5-1.1-.8-2.2-.9-3.4v-1.8zm10.1 7c-.3 0-.6-.1-.9-.4-.3-.3-.4-.6-.4-.9 0-.7.6-1.3 1.3-1.3.4 0 .7.2.9.5.2.3.3.6.3.9 0 .6-.6 1.2-1.2 1.2zm-.1-1.7c-.2 0-.4.2-.4.4 0 .1 0 .2.1.3.1.1.2.1.3.1.2 0 .4-.2.4-.4 0-.1 0-.1-.1-.2 0-.2-.2-.2-.3-.2zm-5.8-6.8h-1.5l-.1-.4v-1.7c0-.2 0-.4.1-.5.1-.4.6-.6.9-.5.4.1.7.4.7.9V58.3zm-.8-2.2zm8 2.2h-1.7v-2.1c0-.5.4-.8.8-.9.2 0 .5.1.6.2.2.1.3.4.3.6v1.3z" id="path26"/><path class="st1" d="M55.1 66c-.3-.3-.5-.5-.7-.8-.1-.2-.3-.2-.5-.2H37.2c-.1 0-.2.1-.2.2v6c0 .3 0 .7-.1 1-.3 1-.9 1.8-1.9 2.4-.1.1-.2.2-.2.4V82.8c0 .3 0 .3.3.3h2.7c.3 0 .3 0 .4-.3.1-.6.3-1.3.4-2 .1-.7.3-1.4.5-2.1.1-.3.1-.3.4-.3H51c.4 1.6.7 3.1 1.1 4.7h3.3c0-.5.1-1 .1-1.5 0-.8.1-1.6.1-2.4.1-1.3.1-2.6.2-3.9.1-1.2.1-2.3.2-3.5 0-.9.1-1.8.1-2.7.2-1.3-.2-2.3-1-3.1z" id="path28"/><path d="M43 69.8c1.6 0 3-1.3 3-3s-1.3-3-3-3c-1.6 0-3 1.3-3 3s1.3 3 3 3z" id="path30"/><path d="M51.4 75.8c1.4 0 2.5-1.1 2.5-2.5s-1.1-2.5-2.5-2.5-2.5 1.1-2.5 2.5 1.1 2.5 2.5 2.5z" id="path32"/><path d="M43 79.2c1.4 0 2.7.1 4.1.3h.1v-.6c0-2.2-1.8-4-4-4s-4 1.8-4 4c0 .4.1.8.1 1.1 1.1-.8 2.5-.7 3.7-.8z" id="path34"/><path d="M44.9 63.6h-.3c-.4.4-.5.8-.5 1.3 0 1.3 1.5 2.4 3.3 2.4 1.8 0 3.3-1.1 3.3-2.4 0-.5-.2-.9-.5-1.3h-5.3z" id="path36"/><path class="st1" d="M32.9 65.8c0-.5.4-.9.9-.9s.9.4.9.9-.4.9-.9.9-.9-.4-.9-.9z" id="path38"/><path class="st1" d="M27.6 57.8h-1.2v-1.3c0-.1 0-.3.1-.4.1-.2.4-.4.6-.3.3.1.6.3.6.6v1.3s-.1 0-.1.1z" id="path40"/><path class="st1" d="M34.9 57.8h-1.2v-1.3c0-.1 0-.3.1-.4.1-.2.4-.4.6-.3.3 0 .5.3.5.6V57.8z" id="path42"/></g></g></g><path d="M177.8 71.8c-.1.1-.3.1-.4.1h-5.7c.2.7.5 1.2 1.2 1.4 1.1.4 2 0 2.8-.7l1.7 1.5c-.4.3-.7.7-1.1.9-1.8 1-3.6 1.1-5.4.1-.9-.5-1.4-1.2-1.7-2.1-.4-1.2-.4-2.6.1-3.8.7-1.8 2.4-2.8 4.5-2.7 2.7.1 3.9 2 4.1 4.1 0 .1 0 .3.1.4zm-2.8-1.6c0-1-.6-1.7-1.5-1.7s-1.7.7-1.8 1.7z" id="path50" style="fill:#fff"/><path d="M67.6 75.6V63.9h5.7c.8 0 1.6.2 2.4.6 1 .5 1.6 1.4 1.5 2.6-.1 1.1-.7 1.9-1.7 2.3 0 0-.1 0-.1.1.1.1.3.1.4.1 1.2.5 1.9 1.7 1.8 3-.1 1.5-1.1 2.6-2.8 2.9-.5.1-.9.1-1.4.1h-5.3zm3-2.4h2.6c.5-.1.9-.2 1.1-.7.4-.8-.2-1.6-1.2-1.7h-2.6v2.4zm0-4.7h1.5c.4 0 .8 0 1.1-.1.6-.1 1-.6.9-1.1 0-.6-.4-1-1-1-.8-.1-1.7 0-2.6 0v2.2z" id="path52" style="fill:#fff"/><path d="M124.8 63.9v2.4h-5.4v2.6h5v2.5h-5v4.2h-3V63.9Z" id="path54" style="fill:#fff"/><path d="M102.8 78c.4-.7.8-1.4 1.2-2 .3.1.6.3 1 .4.7.2 1.4-.4 1.5-1 0-.1 0-.2-.1-.3-1.1-2.7-2.2-5.5-3.4-8.2 0-.1-.1-.2-.1-.3h1.8c.4 0 .9-.1 1.1.1.2.2.3.7.4 1 .5 1.4 1 2.9 1.5 4.3 0 .1.1.2.2.4l1.8-5.8h2.9c0 .1-.1.2-.1.4-1.2 3.2-2.4 6.3-3.6 9.5-.3.7-.6 1.3-1.2 1.8-1.3 1-3.6 1-4.9-.3z" id="path56" style="fill:#fff"/><path d="M159.4 75.6h-2.8v-4.7c0-.2 0-.5-.1-.7-.1-.6-.5-1-1.1-1.1-.6-.1-1.3.1-1.7.6-.3.4-.4.8-.4 1.3v4.5h-2.9v-9h2.9v1.4l.3-.3c1.1-1.4 3.4-1.6 4.7-.4.6.5 1 1.3 1 2.2.1 2 .1 4.1.1 6.2z" id="path58" style="fill:#fff"/><path d="M139.5 75.6h-2.9v-4.8c0-1-.5-1.6-1.3-1.7-.8-.1-1.6.5-1.8 1.3-.1.2-.1.4-.1.6v4.5h-2.9v-9h2.9v1.2c.5-.3.9-.8 1.4-1 1.6-.8 3.5-.2 4.2 1.2.3.6.4 1.2.4 1.8v5.7c.1.1.1.1.1.2z" id="path60" style="fill:#fff"/><path d="M146 70.2c.1-.8-.4-1.4-1.3-1.4-.9-.1-1.7.2-2.6.5-.1 0-.2.1-.3.2h-.1c-.2-.6-.5-1.3-.8-2 .8-.4 1.6-.7 2.4-.8 1.1-.2 2.1-.3 3.2 0 1.4.4 2.3 1.4 2.3 2.9v6.1H146v-.9h-.1c-1 1-2.2 1.2-3.5.9-1.3-.3-2.2-1.5-2-2.9.1-1.5 1.1-2.5 2.8-2.5h2.4zm0 1.6h-2.1c-.6 0-.8.4-.8.9s.3.9.9 1c1.3.2 2.1-.6 2-1.9z" id="path62" style="fill:#fff"/><path d="M96.5 71.9h-6c.2.7.6 1.2 1.2 1.4.9.3 1.8.1 2.7-.8.5.5 1 1 1.6 1.5-.4.6-1 1-1.7 1.3-1.3.5-2.8.6-4.1.1-1.1-.4-2-1.3-2.4-2.5-.4-1.2-.4-2.4 0-3.6.6-1.9 2.4-3 4.6-2.9 2.7.1 3.9 2 4.1 4 0 .4 0 .8.1 1.2-.1.1-.1.2-.1.3zm-2.8-1.7c.1-.8-.5-1.6-1.4-1.7h-.1c-.9 0-1.7.8-1.7 1.7z" id="path64" style="fill:#fff"/><path d="M87.1 71.9h-6c.2 1.5 2.3 2.3 3.9.7l1.6 1.4c-.4.5-.9.9-1.5 1.1-1.3.6-2.8.7-4.2.2-1.3-.4-2.1-1.3-2.5-2.6-.4-1.2-.4-2.5.1-3.7.7-1.8 2.5-2.9 4.5-2.7 2.7.2 3.9 2 4.1 4.3v1.3zm-2.8-1.7c0-1-.6-1.7-1.5-1.7s-1.7.8-1.7 1.7z" id="path66" style="fill:#fff"/><path d="M102.8 66.9v2h-1.9v6.6H98V69h-1.2v-2H98c-.1-1.5.1-2.8 1.6-3.6 1-.5 2.5-.5 3.5 0-.1.7-.2 1.5-.4 2.2-1.7-.6-2.1.2-1.9 1.3z" id="path68" style="fill:#fff"/><path d="m166.7 72.3 2.1 1.3-.6.9c-1.6 1.7-5.3 1.8-6.9-.3-1.4-1.8-1.2-4.9.5-6.5 1.1-1 2.4-1.3 3.8-1.1 1.4.2 2.5.8 3.3 2.1l-2.1 1.3c-.3-.4-.7-.7-1.1-.9-.9-.3-1.7.1-2.1 1-.3.7-.3 1.5 0 2.2.2.6.6 1 1.3 1.1.7.1 1.3-.1 1.8-.7z" id="path70" style="fill:#fff"/><path d="M125.9 66.5h2.8v9h-2.8z" id="path72" style="fill:#fff"/><path d="M128.8 64c0 .9-.7 1.6-1.5 1.6-.9 0-1.5-.7-1.5-1.6 0-.9.6-1.6 1.5-1.6.8 0 1.5.6 1.5 1.6z" id="path74" style="fill:#fff"/></g></g></g></g></g><style type="text/css" id="style10">.st1{fill:#fff}</style></svg>