<svg width="148" height="67" fill="none" xmlns="http://www.w3.org/2000/svg"><path d="M20.24 48.768c0 1.26.972 2.232 2.232 2.232h9.432c5.616 0 9.324-2.412 9.324-6.912v-.072c0-3.42-2.052-5.112-5.004-6.12 1.872-.972 3.6-2.592 3.6-5.616v-.072c0-1.692-.576-3.06-1.692-4.176-1.44-1.44-3.708-2.232-6.588-2.232h-9.072c-1.26 0-2.232.972-2.232 2.232v20.736Zm4.356-12.348v-6.696h6.372c2.844 0 4.428 1.224 4.428 3.204V33c0 2.304-1.908 3.42-4.752 3.42h-6.048Zm0 10.656v-6.912h7.02c3.492 0 5.184 1.26 5.184 3.384v.072c0 2.268-1.836 3.456-4.86 3.456h-7.344ZM46.653 51h14.831c1.08 0 1.98-.864 1.98-1.98 0-1.08-.9-1.98-1.98-1.98H48.849v-6.768h10.837c1.08 0 1.98-.864 1.98-1.944 0-1.116-.9-2.016-1.98-2.016H48.847V29.76h12.456c1.08 0 1.98-.864 1.98-1.98 0-1.08-.9-1.98-1.98-1.98H46.653c-1.26 0-2.233.972-2.233 2.232v20.736c0 1.26.972 2.232 2.233 2.232Zm22.317 0h14.832c1.08 0 1.98-.864 1.98-1.98 0-1.08-.9-1.98-1.98-1.98H71.166v-6.768h10.836c1.08 0 1.98-.864 1.98-1.944 0-1.116-.9-2.016-1.98-2.016H71.166V29.76h12.456c1.08 0 1.98-.864 1.98-1.98 0-1.08-.9-1.98-1.98-1.98H68.97c-1.26 0-2.232.972-2.232 2.232v20.736c0 1.26.972 2.232 2.232 2.232Zm26.277-2.016c0 1.224 1.008 2.196 2.232 2.196 1.224 0 2.232-.972 2.232-2.196v-19.08h6.156c1.116 0 2.016-.936 2.016-2.052s-.9-2.052-2.016-2.052h-16.74a2.051 2.051 0 0 0-2.052 2.052c0 1.116.9 2.052 2.052 2.052h6.12v19.08Zm23.644 2.376c5.292 0 9-2.808 9-7.524v-.072c0-4.176-2.736-6.084-8.064-7.38-4.86-1.152-6.012-2.016-6.012-3.96v-.072c0-1.656 1.512-2.988 4.104-2.988 1.98 0 3.852.648 5.796 1.908.36.216.72.324 1.152.324 1.152 0 2.088-.9 2.088-2.052 0-.864-.468-1.476-.972-1.764-2.268-1.512-4.824-2.34-7.992-2.34-5.004 0-8.604 2.988-8.604 7.308v.072c0 4.644 3.024 6.228 8.388 7.524 4.68 1.08 5.688 2.052 5.688 3.852v.072c0 1.872-1.728 3.168-4.464 3.168-2.736 0-4.968-.936-7.056-2.592-.288-.216-.684-.396-1.296-.396-1.152 0-2.088.9-2.088 2.052 0 .72.36 1.332.864 1.692 2.808 2.088 6.048 3.168 9.468 3.168Z" fill="#000"/><path d="M20.24 43.768c0 1.26.972 2.232 2.232 2.232h9.432c5.616 0 9.324-2.412 9.324-6.912v-.072c0-3.42-2.052-5.112-5.004-6.12 1.872-.972 3.6-2.592 3.6-5.616v-.072c0-1.692-.576-3.06-1.692-4.176-1.44-1.44-3.708-2.232-6.588-2.232h-9.072c-1.26 0-2.232.972-2.232 2.232v20.736Zm4.356-12.348v-6.696h6.372c2.844 0 4.428 1.224 4.428 3.204V28c0 2.304-1.908 3.42-4.752 3.42h-6.048Zm0 10.656v-6.912h7.02c3.492 0 5.184 1.26 5.184 3.384v.072c0 2.268-1.836 3.456-4.86 3.456h-7.344ZM46.653 46h14.831c1.08 0 1.98-.864 1.98-1.98 0-1.08-.9-1.98-1.98-1.98H48.849v-6.768h10.837c1.08 0 1.98-.864 1.98-1.944 0-1.116-.9-2.016-1.98-2.016H48.847V24.76h12.456c1.08 0 1.98-.864 1.98-1.98 0-1.08-.9-1.98-1.98-1.98H46.653c-1.26 0-2.233.972-2.233 2.232v20.736c0 1.26.972 2.232 2.233 2.232Zm22.317 0h14.832c1.08 0 1.98-.864 1.98-1.98 0-1.08-.9-1.98-1.98-1.98H71.166v-6.768h10.836c1.08 0 1.98-.864 1.98-1.944 0-1.116-.9-2.016-1.98-2.016H71.166V24.76h12.456c1.08 0 1.98-.864 1.98-1.98 0-1.08-.9-1.98-1.98-1.98H68.97c-1.26 0-2.232.972-2.232 2.232v20.736c0 1.26.972 2.232 2.232 2.232Zm26.277-2.016c0 1.224 1.008 2.196 2.232 2.196 1.224 0 2.232-.972 2.232-2.196v-19.08h6.156c1.116 0 2.016-.936 2.016-2.052s-.9-2.052-2.016-2.052h-16.74a2.051 2.051 0 0 0-2.052 2.052c0 1.116.9 2.052 2.052 2.052h6.12v19.08Zm23.644 2.376c5.292 0 9-2.808 9-7.524v-.072c0-4.176-2.736-6.084-8.064-7.38-4.86-1.152-6.012-2.016-6.012-3.96v-.072c0-1.656 1.512-2.988 4.104-2.988 1.98 0 3.852.648 5.796 1.908.36.216.72.324 1.152.324 1.152 0 2.088-.9 2.088-2.052 0-.864-.468-1.476-.972-1.764-2.268-1.512-4.824-2.34-7.992-2.34-5.004 0-8.604 2.988-8.604 7.308v.072c0 4.644 3.024 6.228 8.388 7.524 4.68 1.08 5.688 2.052 5.688 3.852v.072c0 1.872-1.728 3.168-4.464 3.168-2.736 0-4.968-.936-7.056-2.592-.288-.216-.684-.396-1.296-.396-1.152 0-2.088.9-2.088 2.052 0 .72.36 1.332.864 1.692 2.808 2.088 6.048 3.168 9.468 3.168Z" fill="red"/><g filter="url(#a)"><path d="M20.24 43.768c0 1.26.972 2.232 2.232 2.232h9.432c5.616 0 9.324-2.412 9.324-6.912v-.072c0-3.42-2.052-5.112-5.004-6.12 1.872-.972 3.6-2.592 3.6-5.616v-.072c0-1.692-.576-3.06-1.692-4.176-1.44-1.44-3.708-2.232-6.588-2.232h-9.072c-1.26 0-2.232.972-2.232 2.232v20.736Zm4.356-12.348v-6.696h6.372c2.844 0 4.428 1.224 4.428 3.204V28c0 2.304-1.908 3.42-4.752 3.42h-6.048Zm0 10.656v-6.912h7.02c3.492 0 5.184 1.26 5.184 3.384v.072c0 2.268-1.836 3.456-4.86 3.456h-7.344ZM46.653 46h14.831c1.08 0 1.98-.864 1.98-1.98 0-1.08-.9-1.98-1.98-1.98H48.849v-6.768h10.837c1.08 0 1.98-.864 1.98-1.944 0-1.116-.9-2.016-1.98-2.016H48.847V24.76h12.456c1.08 0 1.98-.864 1.98-1.98 0-1.08-.9-1.98-1.98-1.98H46.653c-1.26 0-2.233.972-2.233 2.232v20.736c0 1.26.972 2.232 2.233 2.232Zm22.317 0h14.832c1.08 0 1.98-.864 1.98-1.98 0-1.08-.9-1.98-1.98-1.98H71.166v-6.768h10.836c1.08 0 1.98-.864 1.98-1.944 0-1.116-.9-2.016-1.98-2.016H71.166V24.76h12.456c1.08 0 1.98-.864 1.98-1.98 0-1.08-.9-1.98-1.98-1.98H68.97c-1.26 0-2.232.972-2.232 2.232v20.736c0 1.26.972 2.232 2.232 2.232Zm26.277-2.016c0 1.224 1.008 2.196 2.232 2.196 1.224 0 2.232-.972 2.232-2.196v-19.08h6.156c1.116 0 2.016-.936 2.016-2.052s-.9-2.052-2.016-2.052h-16.74a2.051 2.051 0 0 0-2.052 2.052c0 1.116.9 2.052 2.052 2.052h6.12v19.08Zm23.644 2.376c5.292 0 9-2.808 9-7.524v-.072c0-4.176-2.736-6.084-8.064-7.38-4.86-1.152-6.012-2.016-6.012-3.96v-.072c0-1.656 1.512-2.988 4.104-2.988 1.98 0 3.852.648 5.796 1.908.36.216.72.324 1.152.324 1.152 0 2.088-.9 2.088-2.052 0-.864-.468-1.476-.972-1.764-2.268-1.512-4.824-2.34-7.992-2.34-5.004 0-8.604 2.988-8.604 7.308v.072c0 4.644 3.024 6.228 8.388 7.524 4.68 1.08 5.688 2.052 5.688 3.852v.072c0 1.872-1.728 3.168-4.464 3.168-2.736 0-4.968-.936-7.056-2.592-.288-.216-.684-.396-1.296-.396-1.152 0-2.088.9-2.088 2.052 0 .72.36 1.332.864 1.692 2.808 2.088 6.048 3.168 9.468 3.168Z" fill="red"/></g><defs><filter id="a" x=".24" y=".439" width="147.651" height="65.92" filterUnits="userSpaceOnUse" color-interpolation-filters="sRGB"><feFlood flood-opacity="0" result="BackgroundImageFix"/><feBlend in="SourceGraphic" in2="BackgroundImageFix" result="shape"/><feGaussianBlur stdDeviation="10" result="effect1_foregroundBlur_515:123"/></filter></defs></svg>