<svg width="651" height="73" viewBox="0 0 651 73" fill="none" xmlns="http://www.w3.org/2000/svg">
<path d="M20.24 49.768C20.24 51.028 21.212 52 22.472 52H31.904C37.52 52 41.228 49.588 41.228 45.088V45.016C41.228 41.596 39.176 39.904 36.224 38.896C38.096 37.924 39.824 36.304 39.824 33.28V33.208C39.824 31.516 39.248 30.148 38.132 29.032C36.692 27.592 34.424 26.8 31.544 26.8H22.472C21.212 26.8 20.24 27.772 20.24 29.032V49.768ZM24.596 37.42V30.724H30.968C33.812 30.724 35.396 31.948 35.396 33.928V34C35.396 36.304 33.488 37.42 30.644 37.42H24.596ZM24.596 48.076V41.164H31.616C35.108 41.164 36.8 42.424 36.8 44.548V44.62C36.8 46.888 34.964 48.076 31.94 48.076H24.596ZM46.6525 52H61.4845C62.5645 52 63.4645 51.136 63.4645 50.02C63.4645 48.94 62.5645 48.04 61.4845 48.04H48.8485V41.272H59.6845C60.7645 41.272 61.6645 40.408 61.6645 39.328C61.6645 38.212 60.7645 37.312 59.6845 37.312H48.8485V30.76H61.3045C62.3845 30.76 63.2845 29.896 63.2845 28.78C63.2845 27.7 62.3845 26.8 61.3045 26.8H46.6525C45.3925 26.8 44.4205 27.772 44.4205 29.032V49.768C44.4205 51.028 45.3925 52 46.6525 52ZM68.9697 52H83.8017C84.8817 52 85.7817 51.136 85.7817 50.02C85.7817 48.94 84.8817 48.04 83.8017 48.04H71.1657V41.272H82.0017C83.0817 41.272 83.9817 40.408 83.9817 39.328C83.9817 38.212 83.0817 37.312 82.0017 37.312H71.1657V30.76H83.6217C84.7017 30.76 85.6017 29.896 85.6017 28.78C85.6017 27.7 84.7017 26.8 83.6217 26.8H68.9697C67.7097 26.8 66.7377 27.772 66.7377 29.032V49.768C66.7377 51.028 67.7097 52 68.9697 52ZM95.2468 49.984C95.2468 51.208 96.2548 52.18 97.4788 52.18C98.7028 52.18 99.7108 51.208 99.7108 49.984V30.904H105.867C106.983 30.904 107.883 29.968 107.883 28.852C107.883 27.736 106.983 26.8 105.867 26.8H89.1268C87.9748 26.8 87.0748 27.736 87.0748 28.852C87.0748 29.968 87.9748 30.904 89.1268 30.904H95.2468V49.984ZM118.891 52.36C124.183 52.36 127.891 49.552 127.891 44.836V44.764C127.891 40.588 125.155 38.68 119.827 37.384C114.967 36.232 113.815 35.368 113.815 33.424V33.352C113.815 31.696 115.327 30.364 117.919 30.364C119.899 30.364 121.771 31.012 123.715 32.272C124.075 32.488 124.435 32.596 124.867 32.596C126.019 32.596 126.955 31.696 126.955 30.544C126.955 29.68 126.487 29.068 125.983 28.78C123.715 27.268 121.159 26.44 117.991 26.44C112.987 26.44 109.387 29.428 109.387 33.748V33.82C109.387 38.464 112.411 40.048 117.775 41.344C122.455 42.424 123.463 43.396 123.463 45.196V45.268C123.463 47.14 121.735 48.436 118.999 48.436C116.263 48.436 114.031 47.5 111.943 45.844C111.655 45.628 111.259 45.448 110.647 45.448C109.495 45.448 108.559 46.348 108.559 47.5C108.559 48.22 108.919 48.832 109.423 49.192C112.231 51.28 115.471 52.36 118.891 52.36ZM140.292 49.768C140.292 51.028 141.264 52 142.524 52H156.132C157.248 52 158.148 51.1 158.148 49.984C158.148 48.868 157.248 47.968 156.132 47.968H144.72V28.816C144.72 27.592 143.748 26.62 142.524 26.62C141.264 26.62 140.292 27.592 140.292 28.816V49.768ZM160.205 28.096C160.205 29.392 161.285 30.256 162.689 30.256C164.093 30.256 165.173 29.392 165.173 28.096V27.88C165.173 26.584 164.093 25.756 162.689 25.756C161.285 25.756 160.205 26.584 160.205 27.88V28.096ZM160.529 50.02C160.529 51.244 161.501 52.18 162.689 52.18C163.913 52.18 164.885 51.244 164.885 50.02V34.972C164.885 33.748 163.913 32.776 162.689 32.776C161.465 32.776 160.529 33.748 160.529 34.972V50.02ZM187.461 34.972C187.461 33.748 186.489 32.776 185.265 32.776C184.077 32.776 183.105 33.748 183.105 34.936V35.944C181.737 34.144 179.757 32.596 176.625 32.596C172.089 32.596 167.805 36.16 167.805 42.46V42.532C167.805 48.832 172.161 52.396 176.625 52.396C179.721 52.396 181.701 50.812 183.105 48.832V55.78C183.105 57.004 184.077 57.94 185.301 57.94C186.489 57.94 187.461 57.004 187.461 55.78V34.972ZM177.669 36.376C180.585 36.376 183.177 38.788 183.177 42.46V42.532C183.177 46.168 180.585 48.616 177.669 48.616C174.717 48.616 172.197 46.204 172.197 42.532V42.46C172.197 38.68 174.681 36.376 177.669 36.376ZM208.014 34.972C208.014 33.748 207.006 32.776 205.818 32.776C204.594 32.776 203.622 33.748 203.622 34.972V43.72C203.622 46.672 201.858 48.4 199.338 48.4C196.746 48.4 195.27 46.744 195.27 43.792V34.972C195.27 33.748 194.298 32.776 193.074 32.776C191.886 32.776 190.914 33.748 190.914 34.972V45.088C190.914 49.516 193.398 52.396 197.682 52.396C200.634 52.396 202.398 50.848 203.622 49.048V50.02C203.622 51.244 204.63 52.18 205.818 52.18C207.042 52.18 208.014 51.208 208.014 50.02V34.972ZM211.582 28.096C211.582 29.392 212.662 30.256 214.066 30.256C215.47 30.256 216.55 29.392 216.55 28.096V27.88C216.55 26.584 215.47 25.756 214.066 25.756C212.662 25.756 211.582 26.584 211.582 27.88V28.096ZM211.906 50.02C211.906 51.244 212.878 52.18 214.066 52.18C215.29 52.18 216.262 51.244 216.262 50.02V34.972C216.262 33.748 215.29 32.776 214.066 32.776C212.842 32.776 211.906 33.748 211.906 34.972V50.02ZM238.839 27.7C238.839 26.476 237.867 25.54 236.643 25.54C235.455 25.54 234.483 26.476 234.483 27.7V35.944C233.115 34.144 231.135 32.596 228.003 32.596C223.467 32.596 219.183 36.16 219.183 42.46V42.532C219.183 48.832 223.539 52.396 228.003 52.396C231.099 52.396 233.079 50.812 234.483 48.832V50.02C234.483 51.244 235.455 52.18 236.679 52.18C237.867 52.18 238.839 51.244 238.839 50.02V27.7ZM229.047 36.376C231.963 36.376 234.555 38.788 234.555 42.46V42.532C234.555 46.168 231.963 48.616 229.047 48.616C226.095 48.616 223.575 46.204 223.575 42.532V42.46C223.575 38.68 226.059 36.376 229.047 36.376ZM242.435 28.096C242.435 29.392 243.515 30.256 244.919 30.256C246.323 30.256 247.403 29.392 247.403 28.096V27.88C247.403 26.584 246.323 25.756 244.919 25.756C243.515 25.756 242.435 26.584 242.435 27.88V28.096ZM242.759 50.02C242.759 51.244 243.731 52.18 244.919 52.18C246.143 52.18 247.115 51.244 247.115 50.02V34.972C247.115 33.748 246.143 32.776 244.919 32.776C243.695 32.776 242.759 33.748 242.759 34.972V50.02ZM257.38 52.324C258.532 52.324 259.432 52.144 260.368 51.82C260.98 51.568 261.52 50.92 261.52 50.128C261.52 49.12 260.656 48.328 259.684 48.328C259.54 48.328 259.108 48.436 258.604 48.436C257.128 48.436 256.264 47.752 256.264 46.06V36.736H259.684C260.728 36.736 261.592 35.908 261.592 34.864C261.592 33.82 260.728 32.992 259.684 32.992H256.264V29.752C256.264 28.564 255.292 27.592 254.104 27.592C252.88 27.592 251.908 28.564 251.908 29.752V32.992H251.188C250.144 32.992 249.316 33.82 249.316 34.864C249.316 35.908 250.144 36.736 251.188 36.736H251.908V46.744C251.908 50.92 254.176 52.324 257.38 52.324ZM267.465 57.868C270.525 57.868 272.253 56.428 273.873 52.54L280.821 35.872C280.893 35.656 281.001 35.188 281.001 34.828C281.001 33.676 280.065 32.776 278.913 32.776C277.797 32.776 277.185 33.532 276.825 34.432L272.073 47.068L266.961 34.432C266.565 33.424 265.953 32.776 264.837 32.776C263.613 32.776 262.677 33.676 262.677 34.9C262.677 35.188 262.785 35.62 262.929 35.944L269.985 51.712L269.841 52.108C269.121 53.584 268.437 54.124 267.141 54.124C266.529 54.124 266.133 54.016 265.629 53.872C265.413 53.8 265.197 53.728 264.837 53.728C263.901 53.728 263.073 54.448 263.073 55.528C263.073 56.572 263.793 57.112 264.441 57.328C265.341 57.688 266.241 57.868 267.465 57.868ZM292.835 49.768C292.835 51.028 293.807 52 295.067 52H304.499C310.115 52 313.823 49.588 313.823 45.088V45.016C313.823 41.596 311.771 39.904 308.819 38.896C310.691 37.924 312.419 36.304 312.419 33.28V33.208C312.419 31.516 311.843 30.148 310.727 29.032C309.287 27.592 307.019 26.8 304.139 26.8H295.067C293.807 26.8 292.835 27.772 292.835 29.032V49.768ZM297.191 37.42V30.724H303.563C306.407 30.724 307.991 31.948 307.991 33.928V34C307.991 36.304 306.083 37.42 303.239 37.42H297.191ZM297.191 48.076V41.164H304.211C307.703 41.164 309.395 42.424 309.395 44.548V44.62C309.395 46.888 307.559 48.076 304.535 48.076H297.191ZM325.547 52.432C331.415 52.432 335.735 47.932 335.735 42.532V42.46C335.735 37.024 331.451 32.596 325.619 32.596C319.787 32.596 315.467 37.096 315.467 42.532V42.604C315.467 48.004 319.751 52.432 325.547 52.432ZM325.619 48.616C322.235 48.616 319.823 45.844 319.823 42.532V42.46C319.823 39.148 322.055 36.412 325.547 36.412C328.967 36.412 331.379 39.184 331.379 42.532V42.604C331.379 45.88 329.147 48.616 325.619 48.616ZM347.407 52.432C353.275 52.432 357.595 47.932 357.595 42.532V42.46C357.595 37.024 353.311 32.596 347.479 32.596C341.647 32.596 337.327 37.096 337.327 42.532V42.604C337.327 48.004 341.611 52.432 347.407 52.432ZM347.479 48.616C344.095 48.616 341.683 45.844 341.683 42.532V42.46C341.683 39.148 343.915 36.412 347.407 36.412C350.827 36.412 353.239 39.184 353.239 42.532V42.604C353.239 45.88 351.007 48.616 347.479 48.616ZM366.603 52.324C367.755 52.324 368.655 52.144 369.591 51.82C370.203 51.568 370.743 50.92 370.743 50.128C370.743 49.12 369.879 48.328 368.907 48.328C368.763 48.328 368.331 48.436 367.827 48.436C366.351 48.436 365.487 47.752 365.487 46.06V36.736H368.907C369.951 36.736 370.815 35.908 370.815 34.864C370.815 33.82 369.951 32.992 368.907 32.992H365.487V29.752C365.487 28.564 364.515 27.592 363.327 27.592C362.103 27.592 361.131 28.564 361.131 29.752V32.992H360.411C359.367 32.992 358.539 33.82 358.539 34.864C358.539 35.908 359.367 36.736 360.411 36.736H361.131V46.744C361.131 50.92 363.399 52.324 366.603 52.324ZM379.748 52.36C383.708 52.36 386.804 50.38 386.804 46.384V46.312C386.804 42.892 383.672 41.632 380.9 40.768C378.668 40.048 376.616 39.472 376.616 38.068V37.996C376.616 36.916 377.588 36.124 379.28 36.124C380.612 36.124 382.196 36.628 383.744 37.42C384.032 37.564 384.248 37.636 384.608 37.636C385.616 37.636 386.408 36.88 386.408 35.872C386.408 35.116 385.976 34.54 385.364 34.216C383.528 33.244 381.404 32.668 379.388 32.668C375.608 32.668 372.62 34.864 372.62 38.464V38.536C372.62 42.172 375.752 43.324 378.56 44.116C380.792 44.8 382.808 45.304 382.808 46.78V46.852C382.808 48.112 381.728 48.904 379.856 48.904C378.128 48.904 376.22 48.292 374.384 47.068C374.132 46.924 373.808 46.816 373.448 46.816C372.44 46.816 371.684 47.608 371.684 48.58C371.684 49.3 372.044 49.84 372.512 50.092C374.708 51.604 377.336 52.36 379.748 52.36ZM395.488 52.324C396.64 52.324 397.54 52.144 398.476 51.82C399.088 51.568 399.628 50.92 399.628 50.128C399.628 49.12 398.764 48.328 397.792 48.328C397.648 48.328 397.216 48.436 396.712 48.436C395.236 48.436 394.372 47.752 394.372 46.06V36.736H397.792C398.836 36.736 399.7 35.908 399.7 34.864C399.7 33.82 398.836 32.992 397.792 32.992H394.372V29.752C394.372 28.564 393.4 27.592 392.212 27.592C390.988 27.592 390.016 28.564 390.016 29.752V32.992H389.296C388.252 32.992 387.424 33.82 387.424 34.864C387.424 35.908 388.252 36.736 389.296 36.736H390.016V46.744C390.016 50.92 392.284 52.324 395.488 52.324ZM402.116 50.02C402.116 51.244 403.088 52.18 404.276 52.18C405.5 52.18 406.472 51.208 406.472 50.02V44.404C406.472 39.904 408.596 37.528 411.692 36.988C412.664 36.808 413.42 36.052 413.42 34.9C413.42 33.64 412.628 32.74 411.26 32.74C409.352 32.74 407.48 34.54 406.472 36.916V34.972C406.472 33.748 405.5 32.776 404.276 32.776C403.052 32.776 402.116 33.748 402.116 34.972V50.02ZM419.746 52.396C422.662 52.396 424.642 51.172 425.938 49.624V50.344C425.938 51.316 426.802 52.18 428.062 52.18C429.25 52.18 430.186 51.28 430.186 50.092V40.732C430.186 38.248 429.538 36.232 428.134 34.864C426.802 33.496 424.678 32.74 421.834 32.74C419.35 32.74 417.514 33.172 415.714 33.856C415.066 34.108 414.526 34.792 414.526 35.584C414.526 36.592 415.354 37.384 416.362 37.384C416.578 37.384 416.794 37.348 417.046 37.276C418.234 36.808 419.602 36.52 421.258 36.52C424.318 36.52 425.974 37.96 425.974 40.66V41.128C424.498 40.66 422.986 40.336 420.862 40.336C416.218 40.336 413.014 42.352 413.014 46.456V46.528C413.014 50.344 416.182 52.396 419.746 52.396ZM420.97 49.228C418.882 49.228 417.262 48.184 417.262 46.348V46.276C417.262 44.296 418.918 43.108 421.726 43.108C423.454 43.108 424.93 43.432 426.046 43.864V45.16C426.046 47.572 423.85 49.228 420.97 49.228ZM433.602 55.78C433.602 57.004 434.574 57.94 435.762 57.94C436.986 57.94 437.958 57.004 437.958 55.78V49.048C439.29 50.812 441.27 52.396 444.438 52.396C448.938 52.396 453.258 48.832 453.258 42.532V42.46C453.258 36.124 448.902 32.596 444.438 32.596C441.342 32.596 439.362 34.18 437.958 36.16V34.972C437.958 33.748 436.986 32.776 435.762 32.776C434.538 32.776 433.602 33.748 433.602 34.972V55.78ZM443.394 48.616C440.442 48.616 437.85 46.168 437.85 42.532V42.46C437.85 38.824 440.442 36.376 443.394 36.376C446.346 36.376 448.83 38.788 448.83 42.46V42.532C448.83 46.276 446.382 48.616 443.394 48.616ZM455.955 55.78C455.955 57.004 456.927 57.94 458.115 57.94C459.339 57.94 460.311 57.004 460.311 55.78V49.048C461.643 50.812 463.623 52.396 466.791 52.396C471.291 52.396 475.611 48.832 475.611 42.532V42.46C475.611 36.124 471.255 32.596 466.791 32.596C463.695 32.596 461.715 34.18 460.311 36.16V34.972C460.311 33.748 459.339 32.776 458.115 32.776C456.891 32.776 455.955 33.748 455.955 34.972V55.78ZM465.747 48.616C462.795 48.616 460.203 46.168 460.203 42.532V42.46C460.203 38.824 462.795 36.376 465.747 36.376C468.699 36.376 471.183 38.788 471.183 42.46V42.532C471.183 46.276 468.735 48.616 465.747 48.616ZM478.235 28.096C478.235 29.392 479.315 30.256 480.719 30.256C482.123 30.256 483.203 29.392 483.203 28.096V27.88C483.203 26.584 482.123 25.756 480.719 25.756C479.315 25.756 478.235 26.584 478.235 27.88V28.096ZM478.559 50.02C478.559 51.244 479.531 52.18 480.719 52.18C481.943 52.18 482.915 51.244 482.915 50.02V34.972C482.915 33.748 481.943 32.776 480.719 32.776C479.495 32.776 478.559 33.748 478.559 34.972V50.02ZM486.808 50.02C486.808 51.244 487.78 52.18 488.968 52.18C490.192 52.18 491.164 51.244 491.164 50.02V41.272C491.164 38.32 492.928 36.556 495.448 36.556C498.04 36.556 499.516 38.248 499.516 41.2V50.02C499.516 51.244 500.488 52.18 501.712 52.18C502.936 52.18 503.872 51.244 503.872 50.02V39.868C503.872 35.476 501.388 32.596 497.104 32.596C494.152 32.596 492.388 34.144 491.164 35.908V34.972C491.164 33.748 490.192 32.776 488.968 32.776C487.744 32.776 486.808 33.748 486.808 34.972V50.02ZM515.792 57.832C519.212 57.832 521.876 57.004 523.604 55.276C525.188 53.692 526.016 51.316 526.016 48.112V34.972C526.016 33.748 525.044 32.776 523.82 32.776C522.632 32.776 521.66 33.748 521.66 34.936V35.836C520.184 34.072 518.204 32.596 515 32.596C510.572 32.596 506.36 35.908 506.36 41.524V41.596C506.36 47.176 510.536 50.488 515 50.488C518.132 50.488 520.112 49.048 521.696 46.996V48.472C521.696 52.288 519.572 54.304 515.684 54.304C513.488 54.304 511.58 53.764 509.852 52.792C509.636 52.684 509.384 52.612 509.06 52.612C508.052 52.612 507.224 53.44 507.224 54.412C507.224 55.24 507.692 55.852 508.448 56.14C510.752 57.256 513.128 57.832 515.792 57.832ZM516.152 46.78C513.164 46.78 510.752 44.656 510.752 41.56V41.488C510.752 38.356 513.128 36.268 516.152 36.268C519.176 36.268 521.732 38.392 521.732 41.488V41.56C521.732 44.656 519.176 46.78 516.152 46.78ZM541.413 52H556.245C557.325 52 558.225 51.136 558.225 50.02C558.225 48.94 557.325 48.04 556.245 48.04H543.609V41.272H554.445C555.525 41.272 556.425 40.408 556.425 39.328C556.425 38.212 555.525 37.312 554.445 37.312H543.609V30.76H556.065C557.145 30.76 558.045 29.896 558.045 28.78C558.045 27.7 557.145 26.8 556.065 26.8H541.413C540.153 26.8 539.181 27.772 539.181 29.032V49.768C539.181 51.028 540.153 52 541.413 52ZM571.047 50.452L577.383 35.908C577.491 35.692 577.635 35.26 577.635 34.864C577.635 33.676 576.699 32.776 575.511 32.776C574.359 32.776 573.783 33.532 573.459 34.288L568.491 46.96L563.595 34.36C563.235 33.46 562.623 32.776 561.435 32.776C560.247 32.776 559.275 33.784 559.275 34.864C559.275 35.26 559.419 35.62 559.527 35.944L565.863 50.452C566.367 51.604 567.159 52.36 568.347 52.36H568.563C569.751 52.36 570.543 51.568 571.047 50.452ZM582.51 41.164C582.906 38.212 584.778 36.16 587.442 36.16C590.322 36.16 591.978 38.356 592.266 41.164H582.51ZM594.786 49.912C595.11 49.588 595.362 49.12 595.362 48.58C595.362 47.572 594.606 46.816 593.634 46.816C593.13 46.816 592.842 46.96 592.518 47.212C591.294 48.22 589.854 48.868 588.018 48.868C585.21 48.868 583.014 47.14 582.546 44.044H594.462C595.578 44.044 596.514 43.18 596.514 41.956C596.514 37.564 593.526 32.596 587.478 32.596C582.042 32.596 578.19 37.06 578.19 42.496V42.568C578.19 48.436 582.438 52.432 587.946 52.432C590.898 52.432 593.058 51.46 594.786 49.912ZM599.16 50.02C599.16 51.244 600.132 52.18 601.32 52.18C602.544 52.18 603.516 51.244 603.516 50.02V41.272C603.516 38.32 605.28 36.556 607.8 36.556C610.392 36.556 611.868 38.248 611.868 41.2V50.02C611.868 51.244 612.84 52.18 614.064 52.18C615.288 52.18 616.224 51.244 616.224 50.02V39.868C616.224 35.476 613.74 32.596 609.456 32.596C606.504 32.596 604.74 34.144 603.516 35.908V34.972C603.516 33.748 602.544 32.776 601.32 32.776C600.096 32.776 599.16 33.748 599.16 34.972V50.02ZM626.056 52.324C627.208 52.324 628.108 52.144 629.044 51.82C629.656 51.568 630.196 50.92 630.196 50.128C630.196 49.12 629.332 48.328 628.36 48.328C628.216 48.328 627.784 48.436 627.28 48.436C625.804 48.436 624.94 47.752 624.94 46.06V36.736H628.36C629.404 36.736 630.268 35.908 630.268 34.864C630.268 33.82 629.404 32.992 628.36 32.992H624.94V29.752C624.94 28.564 623.968 27.592 622.78 27.592C621.556 27.592 620.584 28.564 620.584 29.752V32.992H619.864C618.82 32.992 617.992 33.82 617.992 34.864C617.992 35.908 618.82 36.736 619.864 36.736H620.584V46.744C620.584 50.92 622.852 52.324 626.056 52.324Z" fill="black"/>
<path d="M20.24 44.768C20.24 46.028 21.212 47 22.472 47H31.904C37.52 47 41.228 44.588 41.228 40.088V40.016C41.228 36.596 39.176 34.904 36.224 33.896C38.096 32.924 39.824 31.304 39.824 28.28V28.208C39.824 26.516 39.248 25.148 38.132 24.032C36.692 22.592 34.424 21.8 31.544 21.8H22.472C21.212 21.8 20.24 22.772 20.24 24.032V44.768ZM24.596 32.42V25.724H30.968C33.812 25.724 35.396 26.948 35.396 28.928V29C35.396 31.304 33.488 32.42 30.644 32.42H24.596ZM24.596 43.076V36.164H31.616C35.108 36.164 36.8 37.424 36.8 39.548V39.62C36.8 41.888 34.964 43.076 31.94 43.076H24.596ZM46.6525 47H61.4845C62.5645 47 63.4645 46.136 63.4645 45.02C63.4645 43.94 62.5645 43.04 61.4845 43.04H48.8485V36.272H59.6845C60.7645 36.272 61.6645 35.408 61.6645 34.328C61.6645 33.212 60.7645 32.312 59.6845 32.312H48.8485V25.76H61.3045C62.3845 25.76 63.2845 24.896 63.2845 23.78C63.2845 22.7 62.3845 21.8 61.3045 21.8H46.6525C45.3925 21.8 44.4205 22.772 44.4205 24.032V44.768C44.4205 46.028 45.3925 47 46.6525 47ZM68.9697 47H83.8017C84.8817 47 85.7817 46.136 85.7817 45.02C85.7817 43.94 84.8817 43.04 83.8017 43.04H71.1657V36.272H82.0017C83.0817 36.272 83.9817 35.408 83.9817 34.328C83.9817 33.212 83.0817 32.312 82.0017 32.312H71.1657V25.76H83.6217C84.7017 25.76 85.6017 24.896 85.6017 23.78C85.6017 22.7 84.7017 21.8 83.6217 21.8H68.9697C67.7097 21.8 66.7377 22.772 66.7377 24.032V44.768C66.7377 46.028 67.7097 47 68.9697 47ZM95.2468 44.984C95.2468 46.208 96.2548 47.18 97.4788 47.18C98.7028 47.18 99.7108 46.208 99.7108 44.984V25.904H105.867C106.983 25.904 107.883 24.968 107.883 23.852C107.883 22.736 106.983 21.8 105.867 21.8H89.1268C87.9748 21.8 87.0748 22.736 87.0748 23.852C87.0748 24.968 87.9748 25.904 89.1268 25.904H95.2468V44.984ZM118.891 47.36C124.183 47.36 127.891 44.552 127.891 39.836V39.764C127.891 35.588 125.155 33.68 119.827 32.384C114.967 31.232 113.815 30.368 113.815 28.424V28.352C113.815 26.696 115.327 25.364 117.919 25.364C119.899 25.364 121.771 26.012 123.715 27.272C124.075 27.488 124.435 27.596 124.867 27.596C126.019 27.596 126.955 26.696 126.955 25.544C126.955 24.68 126.487 24.068 125.983 23.78C123.715 22.268 121.159 21.44 117.991 21.44C112.987 21.44 109.387 24.428 109.387 28.748V28.82C109.387 33.464 112.411 35.048 117.775 36.344C122.455 37.424 123.463 38.396 123.463 40.196V40.268C123.463 42.14 121.735 43.436 118.999 43.436C116.263 43.436 114.031 42.5 111.943 40.844C111.655 40.628 111.259 40.448 110.647 40.448C109.495 40.448 108.559 41.348 108.559 42.5C108.559 43.22 108.919 43.832 109.423 44.192C112.231 46.28 115.471 47.36 118.891 47.36Z" fill="#FF0000"/>
<path d="M140.292 44.768C140.292 46.028 141.264 47 142.524 47H156.132C157.248 47 158.148 46.1 158.148 44.984C158.148 43.868 157.248 42.968 156.132 42.968H144.72V23.816C144.72 22.592 143.748 21.62 142.524 21.62C141.264 21.62 140.292 22.592 140.292 23.816V44.768ZM160.205 23.096C160.205 24.392 161.285 25.256 162.689 25.256C164.093 25.256 165.173 24.392 165.173 23.096V22.88C165.173 21.584 164.093 20.756 162.689 20.756C161.285 20.756 160.205 21.584 160.205 22.88V23.096ZM160.529 45.02C160.529 46.244 161.501 47.18 162.689 47.18C163.913 47.18 164.885 46.244 164.885 45.02V29.972C164.885 28.748 163.913 27.776 162.689 27.776C161.465 27.776 160.529 28.748 160.529 29.972V45.02ZM187.461 29.972C187.461 28.748 186.489 27.776 185.265 27.776C184.077 27.776 183.105 28.748 183.105 29.936V30.944C181.737 29.144 179.757 27.596 176.625 27.596C172.089 27.596 167.805 31.16 167.805 37.46V37.532C167.805 43.832 172.161 47.396 176.625 47.396C179.721 47.396 181.701 45.812 183.105 43.832V50.78C183.105 52.004 184.077 52.94 185.301 52.94C186.489 52.94 187.461 52.004 187.461 50.78V29.972ZM177.669 31.376C180.585 31.376 183.177 33.788 183.177 37.46V37.532C183.177 41.168 180.585 43.616 177.669 43.616C174.717 43.616 172.197 41.204 172.197 37.532V37.46C172.197 33.68 174.681 31.376 177.669 31.376ZM208.014 29.972C208.014 28.748 207.006 27.776 205.818 27.776C204.594 27.776 203.622 28.748 203.622 29.972V38.72C203.622 41.672 201.858 43.4 199.338 43.4C196.746 43.4 195.27 41.744 195.27 38.792V29.972C195.27 28.748 194.298 27.776 193.074 27.776C191.886 27.776 190.914 28.748 190.914 29.972V40.088C190.914 44.516 193.398 47.396 197.682 47.396C200.634 47.396 202.398 45.848 203.622 44.048V45.02C203.622 46.244 204.63 47.18 205.818 47.18C207.042 47.18 208.014 46.208 208.014 45.02V29.972ZM211.582 23.096C211.582 24.392 212.662 25.256 214.066 25.256C215.47 25.256 216.55 24.392 216.55 23.096V22.88C216.55 21.584 215.47 20.756 214.066 20.756C212.662 20.756 211.582 21.584 211.582 22.88V23.096ZM211.906 45.02C211.906 46.244 212.878 47.18 214.066 47.18C215.29 47.18 216.262 46.244 216.262 45.02V29.972C216.262 28.748 215.29 27.776 214.066 27.776C212.842 27.776 211.906 28.748 211.906 29.972V45.02ZM238.839 22.7C238.839 21.476 237.867 20.54 236.643 20.54C235.455 20.54 234.483 21.476 234.483 22.7V30.944C233.115 29.144 231.135 27.596 228.003 27.596C223.467 27.596 219.183 31.16 219.183 37.46V37.532C219.183 43.832 223.539 47.396 228.003 47.396C231.099 47.396 233.079 45.812 234.483 43.832V45.02C234.483 46.244 235.455 47.18 236.679 47.18C237.867 47.18 238.839 46.244 238.839 45.02V22.7ZM229.047 31.376C231.963 31.376 234.555 33.788 234.555 37.46V37.532C234.555 41.168 231.963 43.616 229.047 43.616C226.095 43.616 223.575 41.204 223.575 37.532V37.46C223.575 33.68 226.059 31.376 229.047 31.376ZM242.435 23.096C242.435 24.392 243.515 25.256 244.919 25.256C246.323 25.256 247.403 24.392 247.403 23.096V22.88C247.403 21.584 246.323 20.756 244.919 20.756C243.515 20.756 242.435 21.584 242.435 22.88V23.096ZM242.759 45.02C242.759 46.244 243.731 47.18 244.919 47.18C246.143 47.18 247.115 46.244 247.115 45.02V29.972C247.115 28.748 246.143 27.776 244.919 27.776C243.695 27.776 242.759 28.748 242.759 29.972V45.02ZM257.38 47.324C258.532 47.324 259.432 47.144 260.368 46.82C260.98 46.568 261.52 45.92 261.52 45.128C261.52 44.12 260.656 43.328 259.684 43.328C259.54 43.328 259.108 43.436 258.604 43.436C257.128 43.436 256.264 42.752 256.264 41.06V31.736H259.684C260.728 31.736 261.592 30.908 261.592 29.864C261.592 28.82 260.728 27.992 259.684 27.992H256.264V24.752C256.264 23.564 255.292 22.592 254.104 22.592C252.88 22.592 251.908 23.564 251.908 24.752V27.992H251.188C250.144 27.992 249.316 28.82 249.316 29.864C249.316 30.908 250.144 31.736 251.188 31.736H251.908V41.744C251.908 45.92 254.176 47.324 257.38 47.324ZM267.465 52.868C270.525 52.868 272.253 51.428 273.873 47.54L280.821 30.872C280.893 30.656 281.001 30.188 281.001 29.828C281.001 28.676 280.065 27.776 278.913 27.776C277.797 27.776 277.185 28.532 276.825 29.432L272.073 42.068L266.961 29.432C266.565 28.424 265.953 27.776 264.837 27.776C263.613 27.776 262.677 28.676 262.677 29.9C262.677 30.188 262.785 30.62 262.929 30.944L269.985 46.712L269.841 47.108C269.121 48.584 268.437 49.124 267.141 49.124C266.529 49.124 266.133 49.016 265.629 48.872C265.413 48.8 265.197 48.728 264.837 48.728C263.901 48.728 263.073 49.448 263.073 50.528C263.073 51.572 263.793 52.112 264.441 52.328C265.341 52.688 266.241 52.868 267.465 52.868ZM292.835 44.768C292.835 46.028 293.807 47 295.067 47H304.499C310.115 47 313.823 44.588 313.823 40.088V40.016C313.823 36.596 311.771 34.904 308.819 33.896C310.691 32.924 312.419 31.304 312.419 28.28V28.208C312.419 26.516 311.843 25.148 310.727 24.032C309.287 22.592 307.019 21.8 304.139 21.8H295.067C293.807 21.8 292.835 22.772 292.835 24.032V44.768ZM297.191 32.42V25.724H303.563C306.407 25.724 307.991 26.948 307.991 28.928V29C307.991 31.304 306.083 32.42 303.239 32.42H297.191ZM297.191 43.076V36.164H304.211C307.703 36.164 309.395 37.424 309.395 39.548V39.62C309.395 41.888 307.559 43.076 304.535 43.076H297.191ZM325.547 47.432C331.415 47.432 335.735 42.932 335.735 37.532V37.46C335.735 32.024 331.451 27.596 325.619 27.596C319.787 27.596 315.467 32.096 315.467 37.532V37.604C315.467 43.004 319.751 47.432 325.547 47.432ZM325.619 43.616C322.235 43.616 319.823 40.844 319.823 37.532V37.46C319.823 34.148 322.055 31.412 325.547 31.412C328.967 31.412 331.379 34.184 331.379 37.532V37.604C331.379 40.88 329.147 43.616 325.619 43.616ZM347.407 47.432C353.275 47.432 357.595 42.932 357.595 37.532V37.46C357.595 32.024 353.311 27.596 347.479 27.596C341.647 27.596 337.327 32.096 337.327 37.532V37.604C337.327 43.004 341.611 47.432 347.407 47.432ZM347.479 43.616C344.095 43.616 341.683 40.844 341.683 37.532V37.46C341.683 34.148 343.915 31.412 347.407 31.412C350.827 31.412 353.239 34.184 353.239 37.532V37.604C353.239 40.88 351.007 43.616 347.479 43.616ZM366.603 47.324C367.755 47.324 368.655 47.144 369.591 46.82C370.203 46.568 370.743 45.92 370.743 45.128C370.743 44.12 369.879 43.328 368.907 43.328C368.763 43.328 368.331 43.436 367.827 43.436C366.351 43.436 365.487 42.752 365.487 41.06V31.736H368.907C369.951 31.736 370.815 30.908 370.815 29.864C370.815 28.82 369.951 27.992 368.907 27.992H365.487V24.752C365.487 23.564 364.515 22.592 363.327 22.592C362.103 22.592 361.131 23.564 361.131 24.752V27.992H360.411C359.367 27.992 358.539 28.82 358.539 29.864C358.539 30.908 359.367 31.736 360.411 31.736H361.131V41.744C361.131 45.92 363.399 47.324 366.603 47.324ZM379.748 47.36C383.708 47.36 386.804 45.38 386.804 41.384V41.312C386.804 37.892 383.672 36.632 380.9 35.768C378.668 35.048 376.616 34.472 376.616 33.068V32.996C376.616 31.916 377.588 31.124 379.28 31.124C380.612 31.124 382.196 31.628 383.744 32.42C384.032 32.564 384.248 32.636 384.608 32.636C385.616 32.636 386.408 31.88 386.408 30.872C386.408 30.116 385.976 29.54 385.364 29.216C383.528 28.244 381.404 27.668 379.388 27.668C375.608 27.668 372.62 29.864 372.62 33.464V33.536C372.62 37.172 375.752 38.324 378.56 39.116C380.792 39.8 382.808 40.304 382.808 41.78V41.852C382.808 43.112 381.728 43.904 379.856 43.904C378.128 43.904 376.22 43.292 374.384 42.068C374.132 41.924 373.808 41.816 373.448 41.816C372.44 41.816 371.684 42.608 371.684 43.58C371.684 44.3 372.044 44.84 372.512 45.092C374.708 46.604 377.336 47.36 379.748 47.36ZM395.488 47.324C396.64 47.324 397.54 47.144 398.476 46.82C399.088 46.568 399.628 45.92 399.628 45.128C399.628 44.12 398.764 43.328 397.792 43.328C397.648 43.328 397.216 43.436 396.712 43.436C395.236 43.436 394.372 42.752 394.372 41.06V31.736H397.792C398.836 31.736 399.7 30.908 399.7 29.864C399.7 28.82 398.836 27.992 397.792 27.992H394.372V24.752C394.372 23.564 393.4 22.592 392.212 22.592C390.988 22.592 390.016 23.564 390.016 24.752V27.992H389.296C388.252 27.992 387.424 28.82 387.424 29.864C387.424 30.908 388.252 31.736 389.296 31.736H390.016V41.744C390.016 45.92 392.284 47.324 395.488 47.324ZM402.116 45.02C402.116 46.244 403.088 47.18 404.276 47.18C405.5 47.18 406.472 46.208 406.472 45.02V39.404C406.472 34.904 408.596 32.528 411.692 31.988C412.664 31.808 413.42 31.052 413.42 29.9C413.42 28.64 412.628 27.74 411.26 27.74C409.352 27.74 407.48 29.54 406.472 31.916V29.972C406.472 28.748 405.5 27.776 404.276 27.776C403.052 27.776 402.116 28.748 402.116 29.972V45.02ZM419.746 47.396C422.662 47.396 424.642 46.172 425.938 44.624V45.344C425.938 46.316 426.802 47.18 428.062 47.18C429.25 47.18 430.186 46.28 430.186 45.092V35.732C430.186 33.248 429.538 31.232 428.134 29.864C426.802 28.496 424.678 27.74 421.834 27.74C419.35 27.74 417.514 28.172 415.714 28.856C415.066 29.108 414.526 29.792 414.526 30.584C414.526 31.592 415.354 32.384 416.362 32.384C416.578 32.384 416.794 32.348 417.046 32.276C418.234 31.808 419.602 31.52 421.258 31.52C424.318 31.52 425.974 32.96 425.974 35.66V36.128C424.498 35.66 422.986 35.336 420.862 35.336C416.218 35.336 413.014 37.352 413.014 41.456V41.528C413.014 45.344 416.182 47.396 419.746 47.396ZM420.97 44.228C418.882 44.228 417.262 43.184 417.262 41.348V41.276C417.262 39.296 418.918 38.108 421.726 38.108C423.454 38.108 424.93 38.432 426.046 38.864V40.16C426.046 42.572 423.85 44.228 420.97 44.228ZM433.602 50.78C433.602 52.004 434.574 52.94 435.762 52.94C436.986 52.94 437.958 52.004 437.958 50.78V44.048C439.29 45.812 441.27 47.396 444.438 47.396C448.938 47.396 453.258 43.832 453.258 37.532V37.46C453.258 31.124 448.902 27.596 444.438 27.596C441.342 27.596 439.362 29.18 437.958 31.16V29.972C437.958 28.748 436.986 27.776 435.762 27.776C434.538 27.776 433.602 28.748 433.602 29.972V50.78ZM443.394 43.616C440.442 43.616 437.85 41.168 437.85 37.532V37.46C437.85 33.824 440.442 31.376 443.394 31.376C446.346 31.376 448.83 33.788 448.83 37.46V37.532C448.83 41.276 446.382 43.616 443.394 43.616ZM455.955 50.78C455.955 52.004 456.927 52.94 458.115 52.94C459.339 52.94 460.311 52.004 460.311 50.78V44.048C461.643 45.812 463.623 47.396 466.791 47.396C471.291 47.396 475.611 43.832 475.611 37.532V37.46C475.611 31.124 471.255 27.596 466.791 27.596C463.695 27.596 461.715 29.18 460.311 31.16V29.972C460.311 28.748 459.339 27.776 458.115 27.776C456.891 27.776 455.955 28.748 455.955 29.972V50.78ZM465.747 43.616C462.795 43.616 460.203 41.168 460.203 37.532V37.46C460.203 33.824 462.795 31.376 465.747 31.376C468.699 31.376 471.183 33.788 471.183 37.46V37.532C471.183 41.276 468.735 43.616 465.747 43.616ZM478.235 23.096C478.235 24.392 479.315 25.256 480.719 25.256C482.123 25.256 483.203 24.392 483.203 23.096V22.88C483.203 21.584 482.123 20.756 480.719 20.756C479.315 20.756 478.235 21.584 478.235 22.88V23.096ZM478.559 45.02C478.559 46.244 479.531 47.18 480.719 47.18C481.943 47.18 482.915 46.244 482.915 45.02V29.972C482.915 28.748 481.943 27.776 480.719 27.776C479.495 27.776 478.559 28.748 478.559 29.972V45.02ZM486.808 45.02C486.808 46.244 487.78 47.18 488.968 47.18C490.192 47.18 491.164 46.244 491.164 45.02V36.272C491.164 33.32 492.928 31.556 495.448 31.556C498.04 31.556 499.516 33.248 499.516 36.2V45.02C499.516 46.244 500.488 47.18 501.712 47.18C502.936 47.18 503.872 46.244 503.872 45.02V34.868C503.872 30.476 501.388 27.596 497.104 27.596C494.152 27.596 492.388 29.144 491.164 30.908V29.972C491.164 28.748 490.192 27.776 488.968 27.776C487.744 27.776 486.808 28.748 486.808 29.972V45.02ZM515.792 52.832C519.212 52.832 521.876 52.004 523.604 50.276C525.188 48.692 526.016 46.316 526.016 43.112V29.972C526.016 28.748 525.044 27.776 523.82 27.776C522.632 27.776 521.66 28.748 521.66 29.936V30.836C520.184 29.072 518.204 27.596 515 27.596C510.572 27.596 506.36 30.908 506.36 36.524V36.596C506.36 42.176 510.536 45.488 515 45.488C518.132 45.488 520.112 44.048 521.696 41.996V43.472C521.696 47.288 519.572 49.304 515.684 49.304C513.488 49.304 511.58 48.764 509.852 47.792C509.636 47.684 509.384 47.612 509.06 47.612C508.052 47.612 507.224 48.44 507.224 49.412C507.224 50.24 507.692 50.852 508.448 51.14C510.752 52.256 513.128 52.832 515.792 52.832ZM516.152 41.78C513.164 41.78 510.752 39.656 510.752 36.56V36.488C510.752 33.356 513.128 31.268 516.152 31.268C519.176 31.268 521.732 33.392 521.732 36.488V36.56C521.732 39.656 519.176 41.78 516.152 41.78ZM541.413 47H556.245C557.325 47 558.225 46.136 558.225 45.02C558.225 43.94 557.325 43.04 556.245 43.04H543.609V36.272H554.445C555.525 36.272 556.425 35.408 556.425 34.328C556.425 33.212 555.525 32.312 554.445 32.312H543.609V25.76H556.065C557.145 25.76 558.045 24.896 558.045 23.78C558.045 22.7 557.145 21.8 556.065 21.8H541.413C540.153 21.8 539.181 22.772 539.181 24.032V44.768C539.181 46.028 540.153 47 541.413 47ZM571.047 45.452L577.383 30.908C577.491 30.692 577.635 30.26 577.635 29.864C577.635 28.676 576.699 27.776 575.511 27.776C574.359 27.776 573.783 28.532 573.459 29.288L568.491 41.96L563.595 29.36C563.235 28.46 562.623 27.776 561.435 27.776C560.247 27.776 559.275 28.784 559.275 29.864C559.275 30.26 559.419 30.62 559.527 30.944L565.863 45.452C566.367 46.604 567.159 47.36 568.347 47.36H568.563C569.751 47.36 570.543 46.568 571.047 45.452ZM582.51 36.164C582.906 33.212 584.778 31.16 587.442 31.16C590.322 31.16 591.978 33.356 592.266 36.164H582.51ZM594.786 44.912C595.11 44.588 595.362 44.12 595.362 43.58C595.362 42.572 594.606 41.816 593.634 41.816C593.13 41.816 592.842 41.96 592.518 42.212C591.294 43.22 589.854 43.868 588.018 43.868C585.21 43.868 583.014 42.14 582.546 39.044H594.462C595.578 39.044 596.514 38.18 596.514 36.956C596.514 32.564 593.526 27.596 587.478 27.596C582.042 27.596 578.19 32.06 578.19 37.496V37.568C578.19 43.436 582.438 47.432 587.946 47.432C590.898 47.432 593.058 46.46 594.786 44.912ZM599.16 45.02C599.16 46.244 600.132 47.18 601.32 47.18C602.544 47.18 603.516 46.244 603.516 45.02V36.272C603.516 33.32 605.28 31.556 607.8 31.556C610.392 31.556 611.868 33.248 611.868 36.2V45.02C611.868 46.244 612.84 47.18 614.064 47.18C615.288 47.18 616.224 46.244 616.224 45.02V34.868C616.224 30.476 613.74 27.596 609.456 27.596C606.504 27.596 604.74 29.144 603.516 30.908V29.972C603.516 28.748 602.544 27.776 601.32 27.776C600.096 27.776 599.16 28.748 599.16 29.972V45.02ZM626.056 47.324C627.208 47.324 628.108 47.144 629.044 46.82C629.656 46.568 630.196 45.92 630.196 45.128C630.196 44.12 629.332 43.328 628.36 43.328C628.216 43.328 627.784 43.436 627.28 43.436C625.804 43.436 624.94 42.752 624.94 41.06V31.736H628.36C629.404 31.736 630.268 30.908 630.268 29.864C630.268 28.82 629.404 27.992 628.36 27.992H624.94V24.752C624.94 23.564 623.968 22.592 622.78 22.592C621.556 22.592 620.584 23.564 620.584 24.752V27.992H619.864C618.82 27.992 617.992 28.82 617.992 29.864C617.992 30.908 618.82 31.736 619.864 31.736H620.584V41.744C620.584 45.92 622.852 47.324 626.056 47.324Z" fill="#00E59D"/>
<g filter="url(#filter0_f)">
<path d="M20.24 44.768C20.24 46.028 21.212 47 22.472 47H31.904C37.52 47 41.228 44.588 41.228 40.088V40.016C41.228 36.596 39.176 34.904 36.224 33.896C38.096 32.924 39.824 31.304 39.824 28.28V28.208C39.824 26.516 39.248 25.148 38.132 24.032C36.692 22.592 34.424 21.8 31.544 21.8H22.472C21.212 21.8 20.24 22.772 20.24 24.032V44.768ZM24.596 32.42V25.724H30.968C33.812 25.724 35.396 26.948 35.396 28.928V29C35.396 31.304 33.488 32.42 30.644 32.42H24.596ZM24.596 43.076V36.164H31.616C35.108 36.164 36.8 37.424 36.8 39.548V39.62C36.8 41.888 34.964 43.076 31.94 43.076H24.596ZM46.6525 47H61.4845C62.5645 47 63.4645 46.136 63.4645 45.02C63.4645 43.94 62.5645 43.04 61.4845 43.04H48.8485V36.272H59.6845C60.7645 36.272 61.6645 35.408 61.6645 34.328C61.6645 33.212 60.7645 32.312 59.6845 32.312H48.8485V25.76H61.3045C62.3845 25.76 63.2845 24.896 63.2845 23.78C63.2845 22.7 62.3845 21.8 61.3045 21.8H46.6525C45.3925 21.8 44.4205 22.772 44.4205 24.032V44.768C44.4205 46.028 45.3925 47 46.6525 47ZM68.9697 47H83.8017C84.8817 47 85.7817 46.136 85.7817 45.02C85.7817 43.94 84.8817 43.04 83.8017 43.04H71.1657V36.272H82.0017C83.0817 36.272 83.9817 35.408 83.9817 34.328C83.9817 33.212 83.0817 32.312 82.0017 32.312H71.1657V25.76H83.6217C84.7017 25.76 85.6017 24.896 85.6017 23.78C85.6017 22.7 84.7017 21.8 83.6217 21.8H68.9697C67.7097 21.8 66.7377 22.772 66.7377 24.032V44.768C66.7377 46.028 67.7097 47 68.9697 47ZM95.2468 44.984C95.2468 46.208 96.2548 47.18 97.4788 47.18C98.7028 47.18 99.7108 46.208 99.7108 44.984V25.904H105.867C106.983 25.904 107.883 24.968 107.883 23.852C107.883 22.736 106.983 21.8 105.867 21.8H89.1268C87.9748 21.8 87.0748 22.736 87.0748 23.852C87.0748 24.968 87.9748 25.904 89.1268 25.904H95.2468V44.984ZM118.891 47.36C124.183 47.36 127.891 44.552 127.891 39.836V39.764C127.891 35.588 125.155 33.68 119.827 32.384C114.967 31.232 113.815 30.368 113.815 28.424V28.352C113.815 26.696 115.327 25.364 117.919 25.364C119.899 25.364 121.771 26.012 123.715 27.272C124.075 27.488 124.435 27.596 124.867 27.596C126.019 27.596 126.955 26.696 126.955 25.544C126.955 24.68 126.487 24.068 125.983 23.78C123.715 22.268 121.159 21.44 117.991 21.44C112.987 21.44 109.387 24.428 109.387 28.748V28.82C109.387 33.464 112.411 35.048 117.775 36.344C122.455 37.424 123.463 38.396 123.463 40.196V40.268C123.463 42.14 121.735 43.436 118.999 43.436C116.263 43.436 114.031 42.5 111.943 40.844C111.655 40.628 111.259 40.448 110.647 40.448C109.495 40.448 108.559 41.348 108.559 42.5C108.559 43.22 108.919 43.832 109.423 44.192C112.231 46.28 115.471 47.36 118.891 47.36Z" fill="#FF0000"/>
<path d="M140.292 44.768C140.292 46.028 141.264 47 142.524 47H156.132C157.248 47 158.148 46.1 158.148 44.984C158.148 43.868 157.248 42.968 156.132 42.968H144.72V23.816C144.72 22.592 143.748 21.62 142.524 21.62C141.264 21.62 140.292 22.592 140.292 23.816V44.768ZM160.205 23.096C160.205 24.392 161.285 25.256 162.689 25.256C164.093 25.256 165.173 24.392 165.173 23.096V22.88C165.173 21.584 164.093 20.756 162.689 20.756C161.285 20.756 160.205 21.584 160.205 22.88V23.096ZM160.529 45.02C160.529 46.244 161.501 47.18 162.689 47.18C163.913 47.18 164.885 46.244 164.885 45.02V29.972C164.885 28.748 163.913 27.776 162.689 27.776C161.465 27.776 160.529 28.748 160.529 29.972V45.02ZM187.461 29.972C187.461 28.748 186.489 27.776 185.265 27.776C184.077 27.776 183.105 28.748 183.105 29.936V30.944C181.737 29.144 179.757 27.596 176.625 27.596C172.089 27.596 167.805 31.16 167.805 37.46V37.532C167.805 43.832 172.161 47.396 176.625 47.396C179.721 47.396 181.701 45.812 183.105 43.832V50.78C183.105 52.004 184.077 52.94 185.301 52.94C186.489 52.94 187.461 52.004 187.461 50.78V29.972ZM177.669 31.376C180.585 31.376 183.177 33.788 183.177 37.46V37.532C183.177 41.168 180.585 43.616 177.669 43.616C174.717 43.616 172.197 41.204 172.197 37.532V37.46C172.197 33.68 174.681 31.376 177.669 31.376ZM208.014 29.972C208.014 28.748 207.006 27.776 205.818 27.776C204.594 27.776 203.622 28.748 203.622 29.972V38.72C203.622 41.672 201.858 43.4 199.338 43.4C196.746 43.4 195.27 41.744 195.27 38.792V29.972C195.27 28.748 194.298 27.776 193.074 27.776C191.886 27.776 190.914 28.748 190.914 29.972V40.088C190.914 44.516 193.398 47.396 197.682 47.396C200.634 47.396 202.398 45.848 203.622 44.048V45.02C203.622 46.244 204.63 47.18 205.818 47.18C207.042 47.18 208.014 46.208 208.014 45.02V29.972ZM211.582 23.096C211.582 24.392 212.662 25.256 214.066 25.256C215.47 25.256 216.55 24.392 216.55 23.096V22.88C216.55 21.584 215.47 20.756 214.066 20.756C212.662 20.756 211.582 21.584 211.582 22.88V23.096ZM211.906 45.02C211.906 46.244 212.878 47.18 214.066 47.18C215.29 47.18 216.262 46.244 216.262 45.02V29.972C216.262 28.748 215.29 27.776 214.066 27.776C212.842 27.776 211.906 28.748 211.906 29.972V45.02ZM238.839 22.7C238.839 21.476 237.867 20.54 236.643 20.54C235.455 20.54 234.483 21.476 234.483 22.7V30.944C233.115 29.144 231.135 27.596 228.003 27.596C223.467 27.596 219.183 31.16 219.183 37.46V37.532C219.183 43.832 223.539 47.396 228.003 47.396C231.099 47.396 233.079 45.812 234.483 43.832V45.02C234.483 46.244 235.455 47.18 236.679 47.18C237.867 47.18 238.839 46.244 238.839 45.02V22.7ZM229.047 31.376C231.963 31.376 234.555 33.788 234.555 37.46V37.532C234.555 41.168 231.963 43.616 229.047 43.616C226.095 43.616 223.575 41.204 223.575 37.532V37.46C223.575 33.68 226.059 31.376 229.047 31.376ZM242.435 23.096C242.435 24.392 243.515 25.256 244.919 25.256C246.323 25.256 247.403 24.392 247.403 23.096V22.88C247.403 21.584 246.323 20.756 244.919 20.756C243.515 20.756 242.435 21.584 242.435 22.88V23.096ZM242.759 45.02C242.759 46.244 243.731 47.18 244.919 47.18C246.143 47.18 247.115 46.244 247.115 45.02V29.972C247.115 28.748 246.143 27.776 244.919 27.776C243.695 27.776 242.759 28.748 242.759 29.972V45.02ZM257.38 47.324C258.532 47.324 259.432 47.144 260.368 46.82C260.98 46.568 261.52 45.92 261.52 45.128C261.52 44.12 260.656 43.328 259.684 43.328C259.54 43.328 259.108 43.436 258.604 43.436C257.128 43.436 256.264 42.752 256.264 41.06V31.736H259.684C260.728 31.736 261.592 30.908 261.592 29.864C261.592 28.82 260.728 27.992 259.684 27.992H256.264V24.752C256.264 23.564 255.292 22.592 254.104 22.592C252.88 22.592 251.908 23.564 251.908 24.752V27.992H251.188C250.144 27.992 249.316 28.82 249.316 29.864C249.316 30.908 250.144 31.736 251.188 31.736H251.908V41.744C251.908 45.92 254.176 47.324 257.38 47.324ZM267.465 52.868C270.525 52.868 272.253 51.428 273.873 47.54L280.821 30.872C280.893 30.656 281.001 30.188 281.001 29.828C281.001 28.676 280.065 27.776 278.913 27.776C277.797 27.776 277.185 28.532 276.825 29.432L272.073 42.068L266.961 29.432C266.565 28.424 265.953 27.776 264.837 27.776C263.613 27.776 262.677 28.676 262.677 29.9C262.677 30.188 262.785 30.62 262.929 30.944L269.985 46.712L269.841 47.108C269.121 48.584 268.437 49.124 267.141 49.124C266.529 49.124 266.133 49.016 265.629 48.872C265.413 48.8 265.197 48.728 264.837 48.728C263.901 48.728 263.073 49.448 263.073 50.528C263.073 51.572 263.793 52.112 264.441 52.328C265.341 52.688 266.241 52.868 267.465 52.868ZM292.835 44.768C292.835 46.028 293.807 47 295.067 47H304.499C310.115 47 313.823 44.588 313.823 40.088V40.016C313.823 36.596 311.771 34.904 308.819 33.896C310.691 32.924 312.419 31.304 312.419 28.28V28.208C312.419 26.516 311.843 25.148 310.727 24.032C309.287 22.592 307.019 21.8 304.139 21.8H295.067C293.807 21.8 292.835 22.772 292.835 24.032V44.768ZM297.191 32.42V25.724H303.563C306.407 25.724 307.991 26.948 307.991 28.928V29C307.991 31.304 306.083 32.42 303.239 32.42H297.191ZM297.191 43.076V36.164H304.211C307.703 36.164 309.395 37.424 309.395 39.548V39.62C309.395 41.888 307.559 43.076 304.535 43.076H297.191ZM325.547 47.432C331.415 47.432 335.735 42.932 335.735 37.532V37.46C335.735 32.024 331.451 27.596 325.619 27.596C319.787 27.596 315.467 32.096 315.467 37.532V37.604C315.467 43.004 319.751 47.432 325.547 47.432ZM325.619 43.616C322.235 43.616 319.823 40.844 319.823 37.532V37.46C319.823 34.148 322.055 31.412 325.547 31.412C328.967 31.412 331.379 34.184 331.379 37.532V37.604C331.379 40.88 329.147 43.616 325.619 43.616ZM347.407 47.432C353.275 47.432 357.595 42.932 357.595 37.532V37.46C357.595 32.024 353.311 27.596 347.479 27.596C341.647 27.596 337.327 32.096 337.327 37.532V37.604C337.327 43.004 341.611 47.432 347.407 47.432ZM347.479 43.616C344.095 43.616 341.683 40.844 341.683 37.532V37.46C341.683 34.148 343.915 31.412 347.407 31.412C350.827 31.412 353.239 34.184 353.239 37.532V37.604C353.239 40.88 351.007 43.616 347.479 43.616ZM366.603 47.324C367.755 47.324 368.655 47.144 369.591 46.82C370.203 46.568 370.743 45.92 370.743 45.128C370.743 44.12 369.879 43.328 368.907 43.328C368.763 43.328 368.331 43.436 367.827 43.436C366.351 43.436 365.487 42.752 365.487 41.06V31.736H368.907C369.951 31.736 370.815 30.908 370.815 29.864C370.815 28.82 369.951 27.992 368.907 27.992H365.487V24.752C365.487 23.564 364.515 22.592 363.327 22.592C362.103 22.592 361.131 23.564 361.131 24.752V27.992H360.411C359.367 27.992 358.539 28.82 358.539 29.864C358.539 30.908 359.367 31.736 360.411 31.736H361.131V41.744C361.131 45.92 363.399 47.324 366.603 47.324ZM379.748 47.36C383.708 47.36 386.804 45.38 386.804 41.384V41.312C386.804 37.892 383.672 36.632 380.9 35.768C378.668 35.048 376.616 34.472 376.616 33.068V32.996C376.616 31.916 377.588 31.124 379.28 31.124C380.612 31.124 382.196 31.628 383.744 32.42C384.032 32.564 384.248 32.636 384.608 32.636C385.616 32.636 386.408 31.88 386.408 30.872C386.408 30.116 385.976 29.54 385.364 29.216C383.528 28.244 381.404 27.668 379.388 27.668C375.608 27.668 372.62 29.864 372.62 33.464V33.536C372.62 37.172 375.752 38.324 378.56 39.116C380.792 39.8 382.808 40.304 382.808 41.78V41.852C382.808 43.112 381.728 43.904 379.856 43.904C378.128 43.904 376.22 43.292 374.384 42.068C374.132 41.924 373.808 41.816 373.448 41.816C372.44 41.816 371.684 42.608 371.684 43.58C371.684 44.3 372.044 44.84 372.512 45.092C374.708 46.604 377.336 47.36 379.748 47.36ZM395.488 47.324C396.64 47.324 397.54 47.144 398.476 46.82C399.088 46.568 399.628 45.92 399.628 45.128C399.628 44.12 398.764 43.328 397.792 43.328C397.648 43.328 397.216 43.436 396.712 43.436C395.236 43.436 394.372 42.752 394.372 41.06V31.736H397.792C398.836 31.736 399.7 30.908 399.7 29.864C399.7 28.82 398.836 27.992 397.792 27.992H394.372V24.752C394.372 23.564 393.4 22.592 392.212 22.592C390.988 22.592 390.016 23.564 390.016 24.752V27.992H389.296C388.252 27.992 387.424 28.82 387.424 29.864C387.424 30.908 388.252 31.736 389.296 31.736H390.016V41.744C390.016 45.92 392.284 47.324 395.488 47.324ZM402.116 45.02C402.116 46.244 403.088 47.18 404.276 47.18C405.5 47.18 406.472 46.208 406.472 45.02V39.404C406.472 34.904 408.596 32.528 411.692 31.988C412.664 31.808 413.42 31.052 413.42 29.9C413.42 28.64 412.628 27.74 411.26 27.74C409.352 27.74 407.48 29.54 406.472 31.916V29.972C406.472 28.748 405.5 27.776 404.276 27.776C403.052 27.776 402.116 28.748 402.116 29.972V45.02ZM419.746 47.396C422.662 47.396 424.642 46.172 425.938 44.624V45.344C425.938 46.316 426.802 47.18 428.062 47.18C429.25 47.18 430.186 46.28 430.186 45.092V35.732C430.186 33.248 429.538 31.232 428.134 29.864C426.802 28.496 424.678 27.74 421.834 27.74C419.35 27.74 417.514 28.172 415.714 28.856C415.066 29.108 414.526 29.792 414.526 30.584C414.526 31.592 415.354 32.384 416.362 32.384C416.578 32.384 416.794 32.348 417.046 32.276C418.234 31.808 419.602 31.52 421.258 31.52C424.318 31.52 425.974 32.96 425.974 35.66V36.128C424.498 35.66 422.986 35.336 420.862 35.336C416.218 35.336 413.014 37.352 413.014 41.456V41.528C413.014 45.344 416.182 47.396 419.746 47.396ZM420.97 44.228C418.882 44.228 417.262 43.184 417.262 41.348V41.276C417.262 39.296 418.918 38.108 421.726 38.108C423.454 38.108 424.93 38.432 426.046 38.864V40.16C426.046 42.572 423.85 44.228 420.97 44.228ZM433.602 50.78C433.602 52.004 434.574 52.94 435.762 52.94C436.986 52.94 437.958 52.004 437.958 50.78V44.048C439.29 45.812 441.27 47.396 444.438 47.396C448.938 47.396 453.258 43.832 453.258 37.532V37.46C453.258 31.124 448.902 27.596 444.438 27.596C441.342 27.596 439.362 29.18 437.958 31.16V29.972C437.958 28.748 436.986 27.776 435.762 27.776C434.538 27.776 433.602 28.748 433.602 29.972V50.78ZM443.394 43.616C440.442 43.616 437.85 41.168 437.85 37.532V37.46C437.85 33.824 440.442 31.376 443.394 31.376C446.346 31.376 448.83 33.788 448.83 37.46V37.532C448.83 41.276 446.382 43.616 443.394 43.616ZM455.955 50.78C455.955 52.004 456.927 52.94 458.115 52.94C459.339 52.94 460.311 52.004 460.311 50.78V44.048C461.643 45.812 463.623 47.396 466.791 47.396C471.291 47.396 475.611 43.832 475.611 37.532V37.46C475.611 31.124 471.255 27.596 466.791 27.596C463.695 27.596 461.715 29.18 460.311 31.16V29.972C460.311 28.748 459.339 27.776 458.115 27.776C456.891 27.776 455.955 28.748 455.955 29.972V50.78ZM465.747 43.616C462.795 43.616 460.203 41.168 460.203 37.532V37.46C460.203 33.824 462.795 31.376 465.747 31.376C468.699 31.376 471.183 33.788 471.183 37.46V37.532C471.183 41.276 468.735 43.616 465.747 43.616ZM478.235 23.096C478.235 24.392 479.315 25.256 480.719 25.256C482.123 25.256 483.203 24.392 483.203 23.096V22.88C483.203 21.584 482.123 20.756 480.719 20.756C479.315 20.756 478.235 21.584 478.235 22.88V23.096ZM478.559 45.02C478.559 46.244 479.531 47.18 480.719 47.18C481.943 47.18 482.915 46.244 482.915 45.02V29.972C482.915 28.748 481.943 27.776 480.719 27.776C479.495 27.776 478.559 28.748 478.559 29.972V45.02ZM486.808 45.02C486.808 46.244 487.78 47.18 488.968 47.18C490.192 47.18 491.164 46.244 491.164 45.02V36.272C491.164 33.32 492.928 31.556 495.448 31.556C498.04 31.556 499.516 33.248 499.516 36.2V45.02C499.516 46.244 500.488 47.18 501.712 47.18C502.936 47.18 503.872 46.244 503.872 45.02V34.868C503.872 30.476 501.388 27.596 497.104 27.596C494.152 27.596 492.388 29.144 491.164 30.908V29.972C491.164 28.748 490.192 27.776 488.968 27.776C487.744 27.776 486.808 28.748 486.808 29.972V45.02ZM515.792 52.832C519.212 52.832 521.876 52.004 523.604 50.276C525.188 48.692 526.016 46.316 526.016 43.112V29.972C526.016 28.748 525.044 27.776 523.82 27.776C522.632 27.776 521.66 28.748 521.66 29.936V30.836C520.184 29.072 518.204 27.596 515 27.596C510.572 27.596 506.36 30.908 506.36 36.524V36.596C506.36 42.176 510.536 45.488 515 45.488C518.132 45.488 520.112 44.048 521.696 41.996V43.472C521.696 47.288 519.572 49.304 515.684 49.304C513.488 49.304 511.58 48.764 509.852 47.792C509.636 47.684 509.384 47.612 509.06 47.612C508.052 47.612 507.224 48.44 507.224 49.412C507.224 50.24 507.692 50.852 508.448 51.14C510.752 52.256 513.128 52.832 515.792 52.832ZM516.152 41.78C513.164 41.78 510.752 39.656 510.752 36.56V36.488C510.752 33.356 513.128 31.268 516.152 31.268C519.176 31.268 521.732 33.392 521.732 36.488V36.56C521.732 39.656 519.176 41.78 516.152 41.78ZM541.413 47H556.245C557.325 47 558.225 46.136 558.225 45.02C558.225 43.94 557.325 43.04 556.245 43.04H543.609V36.272H554.445C555.525 36.272 556.425 35.408 556.425 34.328C556.425 33.212 555.525 32.312 554.445 32.312H543.609V25.76H556.065C557.145 25.76 558.045 24.896 558.045 23.78C558.045 22.7 557.145 21.8 556.065 21.8H541.413C540.153 21.8 539.181 22.772 539.181 24.032V44.768C539.181 46.028 540.153 47 541.413 47ZM571.047 45.452L577.383 30.908C577.491 30.692 577.635 30.26 577.635 29.864C577.635 28.676 576.699 27.776 575.511 27.776C574.359 27.776 573.783 28.532 573.459 29.288L568.491 41.96L563.595 29.36C563.235 28.46 562.623 27.776 561.435 27.776C560.247 27.776 559.275 28.784 559.275 29.864C559.275 30.26 559.419 30.62 559.527 30.944L565.863 45.452C566.367 46.604 567.159 47.36 568.347 47.36H568.563C569.751 47.36 570.543 46.568 571.047 45.452ZM582.51 36.164C582.906 33.212 584.778 31.16 587.442 31.16C590.322 31.16 591.978 33.356 592.266 36.164H582.51ZM594.786 44.912C595.11 44.588 595.362 44.12 595.362 43.58C595.362 42.572 594.606 41.816 593.634 41.816C593.13 41.816 592.842 41.96 592.518 42.212C591.294 43.22 589.854 43.868 588.018 43.868C585.21 43.868 583.014 42.14 582.546 39.044H594.462C595.578 39.044 596.514 38.18 596.514 36.956C596.514 32.564 593.526 27.596 587.478 27.596C582.042 27.596 578.19 32.06 578.19 37.496V37.568C578.19 43.436 582.438 47.432 587.946 47.432C590.898 47.432 593.058 46.46 594.786 44.912ZM599.16 45.02C599.16 46.244 600.132 47.18 601.32 47.18C602.544 47.18 603.516 46.244 603.516 45.02V36.272C603.516 33.32 605.28 31.556 607.8 31.556C610.392 31.556 611.868 33.248 611.868 36.2V45.02C611.868 46.244 612.84 47.18 614.064 47.18C615.288 47.18 616.224 46.244 616.224 45.02V34.868C616.224 30.476 613.74 27.596 609.456 27.596C606.504 27.596 604.74 29.144 603.516 30.908V29.972C603.516 28.748 602.544 27.776 601.32 27.776C600.096 27.776 599.16 28.748 599.16 29.972V45.02ZM626.056 47.324C627.208 47.324 628.108 47.144 629.044 46.82C629.656 46.568 630.196 45.92 630.196 45.128C630.196 44.12 629.332 43.328 628.36 43.328C628.216 43.328 627.784 43.436 627.28 43.436C625.804 43.436 624.94 42.752 624.94 41.06V31.736H628.36C629.404 31.736 630.268 30.908 630.268 29.864C630.268 28.82 629.404 27.992 628.36 27.992H624.94V24.752C624.94 23.564 623.968 22.592 622.78 22.592C621.556 22.592 620.584 23.564 620.584 24.752V27.992H619.864C618.82 27.992 617.992 28.82 617.992 29.864C617.992 30.908 618.82 31.736 619.864 31.736H620.584V41.744C620.584 45.92 622.852 47.324 626.056 47.324Z" fill="#00E59D"/>
</g>
<defs>
<filter id="filter0_f" x="0.240234" y="0.539062" width="650.028" height="72.4004" filterUnits="userSpaceOnUse" color-interpolation-filters="sRGB">
<feFlood flood-opacity="0" result="BackgroundImageFix"/>
<feBlend mode="normal" in="SourceGraphic" in2="BackgroundImageFix" result="shape"/>
<feGaussianBlur stdDeviation="10" result="effect1_foregroundBlur"/>
</filter>
</defs>
</svg>
