<svg width="764" height="300" fill="none" xmlns="http://www.w3.org/2000/svg"><g clip-path="url(#a)"><path d="M108.584 19.775h-6.87v56.332h6.87V19.775Z" fill="#fff" stroke="#000" stroke-width="2.948" stroke-miterlimit="10"/><path d="M105.144 21.155a7.56 7.56 0 1 0 0-15.12 7.56 7.56 0 0 0 0 15.12Z" fill="#fff" stroke="#000" stroke-width="2.948" stroke-miterlimit="10"/><path d="M45.382-140.969h119.523V59.617l-59.072-8.24-60.451 10.99V-140.97Z" fill="#000"/><path d="M105.834 23.895a57.423 57.423 0 0 1 57.357 57.356H139.15a33.316 33.316 0 1 0-66.632 0h-24.05a57.431 57.431 0 0 1 57.366-57.357Z" fill="red" stroke="#000" stroke-width="3.685" stroke-miterlimit="10"/><path d="M184.145-102.498h-23.36V55.496h23.36v-157.994Z" fill="#000"/><path d="M76.713 128.318h11.26V52.746L16 65.61l60.713 62.708Z" fill="#fff"/><path d="M123.695 11.533H87.974v43.962h35.721V11.532Z" fill="red" stroke="#000" stroke-width="3.439" stroke-miterlimit="10"/><path d="M134.946 121.446h-11.252V45.875l74.686 12.864-63.434 62.707Z" fill="#fff"/><path d="M76.713 128.318h11.26V52.746L16 65.61l60.713 62.708ZM134.946 121.446h-11.252V45.875l74.686 12.864-63.434 62.707Z" stroke="#000" stroke-width="3.685" stroke-miterlimit="10"/><path d="m97.584 127.253-18.364 1.016a16.575 16.575 0 0 0-14.766 21.916l12.93 37.818a20.352 20.352 0 0 0 19.258 13.759h27.164c3.461 0 6.834-1.084 9.646-3.101a16.544 16.544 0 0 0 6.033-8.141l16.481-48.659a12.991 12.991 0 0 0-6.371-15.726 13.001 13.001 0 0 0-5.934-1.436l-17.226.932" fill="#CFC"/><path d="M60.101 148.637c4.614-13.05 2.535-26.93.82-40.27a141.04 141.04 0 0 1-1.566-20.507 95.616 95.616 0 0 1 2.722-20.508c3.207-13.507 8.697-26.325 14.42-38.928A164.98 164.98 0 0 0 84.17 9.53a74.647 74.647 0 0 0 3.206-20.62c.094-4.027 0-8.063-.233-12.118a55.56 55.56 0 0 0-1.454-11.186c-1.557-6.04-5.192-11.764-11.186-14.122-.839-.336-1.212 1.025-.373 1.351 5.65 2.237 8.921 7.905 10.3 13.554a56.458 56.458 0 0 1 1.268 10.459c.168 3.43.28 6.86.252 10.254a74.8 74.8 0 0 1-2.796 20.815 146.845 146.845 0 0 1-7.514 19.007c-5.537 12.203-10.925 24.554-14.3 37.558a103.23 103.23 0 0 0-3.234 19.51c-.319 6.627-.035 13.27.848 19.846 1.734 14.663 4.885 30.025-.205 44.39-.307.849 1.054 1.221 1.352.373v.037Z" fill="#fff"/><path d="M154.494 158.584c2.852-13.125 3.328-27.033-.354-40.083a70.482 70.482 0 0 0-8.511-18.364c-3.794-6.003-7.849-11.885-12.016-17.637a120.36 120.36 0 0 0-13.237-15.707c-5.006-4.903-10.254-9.47-14.607-15.026a73.381 73.381 0 0 1-14.756-35.61c-1.967-15.455.14-31.479-4.95-46.46-.29-.857-1.64-.493-1.352.374 4.587 13.479 3.272 27.881 4.456 41.854a76.777 76.777 0 0 0 11.922 35.703 82.543 82.543 0 0 0 12.566 14.719 146.77 146.77 0 0 1 14.514 15.287c4.363 5.49 8.278 11.317 12.202 17.115 3.925 5.798 7.868 11.783 10.469 18.383 5.593 14.29 5.527 30.239 2.302 45.08-.196.885 1.165 1.258 1.352.372Z" fill="#fff"/><path d="m85.037 127.944-2.712-41.473a11.187 11.187 0 0 1 3.169-8.912 26.912 26.912 0 0 1 17.143-7.159 18.997 18.997 0 0 1 18.075 13.125l13.05 41.715" fill="#CFC"/><path d="m97.584 127.253-18.364 1.016a16.575 16.575 0 0 0-14.766 21.916l12.93 37.818a20.352 20.352 0 0 0 19.258 13.759h27.164c3.461 0 6.834-1.084 9.646-3.101a16.544 16.544 0 0 0 6.033-8.141l16.481-48.659a12.991 12.991 0 0 0-6.371-15.726 13.001 13.001 0 0 0-5.934-1.436l-17.226.932" stroke="#000" stroke-width="3.685" stroke-miterlimit="10"/><path d="m85.037 127.944-2.712-41.473a11.187 11.187 0 0 1 3.169-8.912 26.912 26.912 0 0 1 17.143-7.159 18.997 18.997 0 0 1 18.075 13.125l13.05 41.715" stroke="#000" stroke-width="3.685" stroke-miterlimit="10"/><path d="m88.076 142.737-4.372 1.417c-5.22 1.696-5.733 8.016-5.173 13.274a14.691 14.691 0 0 0 2.367 6.525l7.653 11.652c2.9 4.484 8.576 6.889 14.458 6.124 4.932-.652 8.52-4.707 8.036-9.098l-2.051-18.41c-.932-9.07-11.186-14.654-20.918-11.484ZM104.478 123.821l-.006.006a3.432 3.432 0 0 0 .084 4.851l6.927 6.689a3.43 3.43 0 0 0 4.851-.085l.006-.006a3.43 3.43 0 0 0-.084-4.851l-6.927-6.689a3.43 3.43 0 0 0-4.851.085Z" fill="#000"/><path d="m112.797 122.74-2.329 9.344a3.43 3.43 0 0 0 2.498 4.158l.009.002a3.43 3.43 0 0 0 4.159-2.498l2.329-9.344a3.43 3.43 0 0 0-2.498-4.158l-.009-.002a3.43 3.43 0 0 0-4.159 2.498ZM134.405 141.141l-6.684-.801a10.133 10.133 0 0 0-7.597 2.215 10.136 10.136 0 0 0-2.554 3.127 10.138 10.138 0 0 0-1.128 3.877l-2.116 26.008a5.07 5.07 0 0 0 4.372 5.444l4.381.596a14.457 14.457 0 0 0 15.129-8.389l6.339-14.142a12.783 12.783 0 0 0-10.142-17.935Z" fill="#000"/><path d="M87.376 155.993a6.014 6.014 0 1 1 12.025 0" stroke="#fff" stroke-width="4.018" stroke-miterlimit="10"/><path d="m106.476 98.14 2.387-.251a2.047 2.047 0 0 1 2.037 1.085c.127.242.205.507.228.78l.503 4.781-5.462.569-.615-5.807a1.023 1.023 0 0 1 .218-.772 1.037 1.037 0 0 1 .704-.384ZM102.366 98.84l-2.377.383a2.06 2.06 0 0 0-1.715 2.358l.755 4.745 5.425-.857-.932-5.77a1.036 1.036 0 0 0-1.156-.858ZM93.147 101.62l-1.967.307a1.715 1.715 0 0 0-1.426 1.958l.624 3.943 4.512-.709-.81-4.791a.86.86 0 0 0-.933-.708ZM100.641 81.39a3.43 3.43 0 1 0 0-6.861 3.43 3.43 0 0 0 0 6.861Z" fill="#000"/><path d="m121.392 147.63.522-.513.485-.55.54-.485.243-.186.428-.298h.392l.27.084.429.307.606.485.671.727.42.485.643.764.606.606.363.242.299.122.307-.066.485-.298.27-.28.485-.419 1.277-1.454.513-.457.279-.28.485-.363h.457l.513.27.634.643.764.821.447.512.727.606.457.513.159.28.298.484v.457l-.364.485-.484.54-.457.522-1.305 1.119-.42.485-.186.186-.298.541v.457l.335.391 2.004 2.004.457.513.271.28.335.578.084.447-.326.457-.243.307-.55.485-.512.392-.522.456-.699.821-.569.457-.522.326h-.457l-.447-.336-.765-.755-.932-1.063-1.063-.932-.419-.307-.27-.149-.364.055-.401.28-.456.392-.42.484-1.184 1.305-.755.755-.457.336-.363.121h-.28l-.326-.27-.242-.187-.429-.484-.671-.849-.485-.484-.755-.634-.699-.699-.271-.401-.093-.326.093-.336.299-.429 1.034-1.025.513-.457.764-.643.392-.448.242-.242.243-.429.093-.335-.093-.271-.271-.391-.727-.737-1.668-1.482-.457-.512-.215-.28-.335-.448v-.522l.27-.577.522-.513.802-.783Zm12.286 12.593-.205-.4v.279l.093.149.112-.028Zm1.37-1.612v.065h.149v-.065l-.093-.084-.056.084Zm-.792.307v.122h.121l.065-.066v-.065h-.084l-.102.009Zm-.457.327v.046h.121v-.065h-.121v.019Zm.242-.364v-.177l-.121-.121-.783.298.755.159.149-.159Zm.401-.69-.065.177h.093l.121-.121v-.186l-.149.13Zm-1.333 1.51v-.121l-.121-.056-.121.122.149.093.093-.038Zm-.093-.512.149.149h.149v-.27h-.214l-.084.121Zm.755-1.361-.298-.065.149.214.242.177v.159l.215.149-.149-.336h-.066l-.093-.298Zm.364.056.093.093.177-.065v-.149h-.093l-.177.121Zm-.755.634v-.205h-.243v-.28l-.186.242.429.243Zm-.644.4v-.158l-.55-.121v.065l.429.242.121-.028Zm-.205-.932-.186.299.186.307h.215l.093-.149-.308-.457Zm1.305-.522-.279-.205.065.177.093.093.121-.065Zm-1.789 1.305v-.326l-.15-.336h-.158l-.121.308.186.298.243.056Zm1.183-1.249h.056v-.093l-.083-.093-.122.065.149.121Zm.122-.848.149.093-.243.42.485-.122-.186-.363-.205-.028Zm-1.706 2.246-.28-.559-.056-.298.271-.27.848-.131.056-.177-.121-.242-.392.093v.149l-.149.093-.27-.28h-.336l-.065.122.065.121.121-.065.093.093-.307.55v.149l-.149.27.671.382Zm.932-1.183h.121v-.159l-.084-.084-.037.243Zm.121-.672h-.149l-.065-.056h-.513v.122l.848.065.094-.214-.056-.066h-.131l-.028.149Zm0-.578.065.122v.158l.15.084h.186l.326-.391-.056-.056h-.55l-.121.083Zm-.326.336v-.214l.149-.084v-.121h-.121l-.243.242v.242l.215-.065Zm-3.253-5.425-.056.363-.215.149.149.15.215-.094.121.066v.27h-.093l-.056.242.121.066.149-.094.065.056.131.122-.093.083v.094l-.336.335-.149-.093-.065.065v.121h.093l-.056.066v.205h.149l.149-.149.094.093v.186l-.15.084v.187l.15.149-.122.186.094-.158-.308-.299-.056.056v.159l.121.121v.298l-.177.243h-.186l-.177.121h-.159v-.243h.056v-.065h-.149l-.093-.149.298-.671h-.084v-.084h-.149v.065h.224l-.299.243h-.121l-.335-.215v-.335h-.215v.093h-.121l-.065-.065-.271.093v.149l1.091.606.065.373-.242.484.056.178h.214l.187-.122.27.644.298-.187.28.271h.056v.093l-.215.093-.121.242v.066l.066.056-.243.065.149.093.149-.093.187.242.308.364v.456l.158.15-.121.186.177.056.149-.093h.065l.122.121.055.242.122-.177-.084-.401.54-.177-.093-.093-.606-.056-.121-.121 1.212.056.065-.177.336-.28-.149-.569h-.401l-.177-.121.54-.186v-.149l.187-.308.512-.27h.15l.242.242v.159h-.149l-.093.093v.121l.419-.065v.307h.214l.084-.093h.122l.065-.121-.932-1.035-.094.093-.242.066.056-.187-.177-.606-.187.121.122.429-.056.121v.271l-.336.391h-.27l-.121.177-.066-.056-.298.243-.093.27.065.187h.149l-.214.456-.271.094-.121-.243.094-.149h.121l.056-.065-.933-.121-.065-.122.121-.055.094-.159.121-.121v-.121l.065-.056h.485l.27-.215-.149-.149-.065-.242-.149-.093h-.15l-.121.121v.065h-.158l-.121.121.065.308-.159.093v.084l-.177-.364v-.326l.215-.214h.606l.121-.187-.187-.242h-.149l.243-.065.27.279.186-.065.121-.177.178-.065.065.121-.215.457.55-.056v.084h-.037v-.084l-.121-.065-.093-.215v-.149l-.065-.121h-.094v-.522l-.522.578-.447-.093.056-.056v-.066h.214l.298-.307-.121-.299v-.093l.177-.121.066-.186-.243-.056-.214.214h-.065l-.122-.186v-.215l.243-.121-.159-.093-.205.093-.093-.214.149-.205h.093l.187.055.177-.055.149.149.159-.094-.066-.121-.149-.093.121-.541h.215l.084-.214-.448.214v.271h-.084v.149l.121.056-.121.121-.186-.056-.149.093.186-.242v-.401l-.084-.084-.093.084v.215l-.065.065-.149-.093-.094.093v.149h-.177v-.27h.084l.159-.271.391-.149.121-.186-.335.093-.215-.27-.363.055-.056.122h-.159v-.131h-.121l-.018.308Zm1.911 6.395v-.094l-.094-.084h-.065l.065.178h.094Zm.932-1.427v-.084h-.093l-.122.122v.093h.094l.121-.065v-.066Zm-1.79-.214-.121-.056-.121.056v.093l.149.093.158-.093-.065-.093Zm-3.468 2.946.093-.15v-.149l-.335.205.056.122.186-.028Zm-.391.214v-.093l-.093-.093h-.056l-.066.065.122.121h.093Zm-1.212-4.307-.065.056h-.215l-.084.084h.569l.242.541.122-.727.121-.121.121.671-.177.363v.205l.429.429.578-.149v-.429l.121-.177.177.541.457.214.335.513-.093.093v.093l-.093.149h-.326v-.149l-.122-.121h-.149l.056.429h-.335v.214l.083.093v.122l.159.093.084-.159.121-.056.401-.214.149-.391.308-.187-.094-.093-.065-.242.149.093.606-.187-.121-.177-.848.056-.308-.242-.056-.364-.214-.149.056-.065-.243-.298-.27-.094-.177.066v.149l-.485-.243-.065-.242.242-.177.131.121v.121l.121.056.121-.848-.242-.242-.065.055h-.066l-.391.336-.243-.056-.391.149-.093-.093h-.056l-.066.186.094.15.065.251Zm7.066-2.339-.392-.271h-.065l-.363-.485h-.187l.336.877-.056.186.205.149.214-.214-.121-.056-.121.065.242-.121.065-.056v.056h.15l.093.093v.093h.177l.121-.428h-.149l-.149.112Zm-6.945 7.252v-.056l-.065-.065h-.093v.065l.158.056Zm1.454-1.454v-.606l-.093-.093-.391.214v.149l.428.364.056-.028Zm-.699.335.392-.158.065-.243-.159.159-.177-.187-.242-.055.121.484Zm2.247-2.433.149.094.307-.178v-.093l-.121-.065-.27.158-.065.084Zm-3.552 3.794v-.093h-.158l-.149.149-.122-.065h-.149l.336.205.242-.196Zm6.525-6.73h-.205l.084.149.121.065v-.214Zm-6.133 5.863.093.149h.177v-.055l-.149-.215-.121.121Zm8.007-7.951-.205.28h.214l.149-.094v-.149l-.158-.037Zm-8.39 8.166-.065.056.159.158h.177l-.056-.186-.215-.094v.066Zm.849-.364.093-.093v-.121l-.242.242.149-.028Zm6.767-7.075v.28l.364-.308-.056-.121h-.121l-.187.149Zm2.573-2.517v.159h.056l.065-.131-.093-.084-.028.056Zm-9.247 9.322.205-.271-.298.187.093.084Zm5.742-6.106-.363.177-.122.243.178.121.242-.177.065-.364Zm-5.164 4.549.065.121h.149l.066.066h.055v.149h.15v-.159l-.457-.27-.028.093Zm1.706-1.212h.149l.093-.084.121.056.122-.056.121-.307-.121-.056-.122.121-.456-.28v.578h-.094v.121h.094l.093-.093Zm6.031-6.04v.149l.242-.056.056-.121v-.093h-.121l-.177.121Zm-4.186 4.428-.121-.243.121-.056h.28l-.28.299Zm-4.791 4.614v-.065l.308-.122.056-.363-.699.643.335-.093Zm8.222-8.166-.215-.205h-.121l-.242-.242-1.147.932-.065.298.755-.82h.187l.149.158-.093.149.242.187.55-.457ZM132 152.067v-.093h-.149v.093l.121.121.028-.121Zm-6.246 6.124h-.065l-.121.122v.046h.093l.121-.121-.028-.047Zm.122-.298.177.121.093-.093v-.121h-.093l-.056-.121.121-.364-.093-.28h-.065l-.084.858Zm.727-.932v.084h.093l.121-.065v-.056l-.121-.122h-.065l-.028.159Zm7.886-7.709h-.149l-.215.205h.038l.056-.065h.214l.056-.14Zm-5.22 5.276.121-.177-.121.177Zm-5.099 5.043v-.093l-.066-.066h-.121v.122l.066.065.121-.028Zm-.364.298h-.27l-.149.093v.056l.056.066.363-.215Zm8.259-8.389-.121-.066v.066l.084.149.065-.056-.028-.093Zm-8.827 8.883v-.149h-.122v.149h.122Zm11.102-11.102v-.056.056Zm.149-.457v.094l.065.065.149-.093-.093-.094h-.121v.028Zm-10.319 10.375h.186l.121-.121-.307-.848-.149.82.149.149Zm8.837-8.948v.093h.121v-.056l-.121-.037Zm-4.13 3.943.243-.122-.187-.298-.121.121-.056.783.242-.177-.121-.307Zm-3.402 3.644.158-.093-.158-.093-.149.093.149.093Zm-.755.392h.307l-.214-.149-.308.429h.215v-.28Zm.093-1.864h.121l.298.242v.336l.178.242-.056.363.391-.093v-.391h-.186l-.094-.159.28-.27v-.336l-.149-.093-.093.093.065.122-.093.093h-.121l-.457-.336-.149.093-.308-.186-.298.615.671-.335Zm8.343-6.647-.242.065-.066.122.187.121h.093l.084-.149-.056-.159Zm-9.322 9.378v-.121h-.065v.056l.065.065Zm3.459-4.922-.243-.121-.158-.205-.243-.065-.149.093-.056-.243h-.065v.084l.093.149.28.084.056.121h.121l.298.122.121.186v.364l.243.242.093-.149.056.056h.065v-.149h.121l.066-.364-.215-.093-.149.093v.093l-.093.094-.242-.495.242.066-.149-.271-.121.056.028.252Zm6.031-4.941v.056h.093l.093-.093v-.065l-.186.102Zm-8.884 8.651.149.084.485-.364-.298-.177-.308.177v.066l-.028.214Zm6.796-6.926.177.242.429-.363-.122-.056-.27.214-.214-.037Zm-.578 0 .056.364h.4l-.4-.457-.056.093Zm-1.865 2.368v.205h.066l.093-.149-.159-.056Zm-4.884 5.052v-.186h-.093l-.187.121v.149h.149l.131-.084Zm5.425-5.593-.242-.065-.177-.364h-.094l-.065.066-.084-.159h-.093l-.121-.363-.392-.094.783.932-.214.094-.485.177.093-.271-.428.308v.056l-.215.093.932.215.187.177v-.271l.056-.056v-.158l.559-.317Zm3.067-3.002-.121-.065-.271.159v.242l.177-.242h.122l.093-.094Zm-5.435 5.305-.056-.122-.065-.056-.149.15.065.121h.149l.056-.093Zm-2.936 2.638.149.093h.056l.065-.056v-.457h-.065l-.205.42Zm9.648-9.602v.093h.158v-.093h-.158Zm-9.368 8.763-.066.186.243.056.456-.149-.055-.177-.308-.121-.27.205Zm4.036-3.421h-.159l-.083.093.083.084.159-.084v-.093Zm2.796-2.974v.056h.159l.084-.093-.121-.066-.122.103Zm-7.709 7.7.066-.121-.122-.122-.065.066v.214l.121-.037Zm2.676-2.732v.066-.066Zm-.821.578h.084l.159-.158h-.215l-.028.158Zm6.162-6.096.149-.093-.121-.121-.242-.056-.243.177.42-.056.037.149Zm1.025-1.641v.187l.094.149.177.065.093-.158-.093-.084h-.121l-.15-.159Zm-2.367 2.554.121.122h.121l.093-.094-.335-.028Zm.643-.4.149-.084.056-.121h-.056l-.093.093-.056.112Zm-3.095 1.64-.214.271.484.363v-.242h-.27v-.392Zm5.09-4.791v.093l.065.121v.084l.065-.056v-.242h-.13Zm-5.817 5.882h.084l.121-.065v-.094l-.065-.177-.606-.065v.065l.466.336Zm0-1.212-.214.392.242.428h.242l.122-.186-.336-.326-.056-.308Zm1.305-.82.056.186.149.149.159-.093-.364-.242Zm-.186-.783.121.177-.243.242-.065.243.615-.122v-.121l-.121-.121-.065-.242-.242-.056Zm-.364.932.121.121.149-.093-.149-.149h-.168l.047.121Zm-1.426 1.603-.093-.82h-.215l-.177.363.242.364.243.093Zm-.932-1.79-.056.187.056.121h.149l.121.056-.392.699.066.177-.243.364.727.429-.065-.308-.149-.149-.149-.578 1.063-.569.391.084-.093-.513-.485.056v.215l-.242.121-.271-.392h-.428Zm1.668.401v.149h.121l.066-.186-.094-.149-.093.186Zm-.699-.699v.103l.242.056.243-.122.578.15.093-.084-.065-.243h-.121l-.243.177-.121-.121-.606.084Zm.932-.727.066.364.177.121h.186l.056-.187.177-.177h.159l.056-.121-.094-.093h-.727l-.056.093Zm-.662.177v.308h.056l.159-.093v-.15l.056-.065v-.056l.186-.065v-.158h-.149l-.093.158h-.065l-.15.121Zm-1.668 1.128v.205l.121.065v-.186l-.121-.084Zm1.361-1.37v-.093l-.056-.122h-.093l-.149.15v.093l.121.065.177-.093Zm-.298-1.277-.066.121.121.186-.335.513h.671l.065.121h.121l.056-.121-.149-.093v-.149l-.13-.121.13-.178-.093-.158-.391-.121Zm-.933 2.34v-.094l-.121-.056h-.149l-.093.094.214.149.149-.093Zm.187-2.126v.187l.121.056.177-.122v-.093l-.121-.056-.177.028Zm-1.305.215.177.242.242-.065.765-.69v-.187l-.094-.093-.727.793-.186-.066-.177.066Zm-.578.512v.159l.177.177h.158v-.149l-.093-.159-.121-.056-.121.028Zm.363-1.64.187.373v.363l.27-.401-.335-.391-.122.056Zm.821-.448v.056l.056.065.158-.093v-.093h-.093l-.121.065Zm-1.52 1.091h-.093v.065h.084l.13-.056-.121-.009Zm1.212-1.818.065.177.215.093-.187-.307h-.056l-.037.037Zm-2.181 2.424.065-.121-.065-.187h-.093V149.177l.065.065.028.038Zm1.426-1.976-.093.158v.084h.056l.093-.149v-.093h-.056Z" fill="red"/><path d="M24.073-97.353h23.36V60.65l-23.36 3.738V-97.354Z" fill="#000"/><path d="m85.69 137.779-5.5 1.79c-6.526 2.125-7.215 10.086-6.526 16.714a18.643 18.643 0 0 0 2.983 8.259l9.639 14.672c3.645 5.649 10.804 8.679 18.196 7.7" stroke="#39B54A" stroke-width="3.685" stroke-miterlimit="10" stroke-dasharray="1.47 1.47"/><path d="M147.045 144.798a8.89 8.89 0 0 0-.345-.587" stroke="red" stroke-width="3.685" stroke-miterlimit="10"/><path d="M145.899 143.045a15.263 15.263 0 0 0-10.413-5.956l-6.665-.802" stroke="red" stroke-width="3.685" stroke-miterlimit="10" stroke-dasharray="1.51 1.51"/><path d="m128.113 136.203-.68-.074" stroke="red" stroke-width="3.685" stroke-miterlimit="10"/><path d="M45.382-140.969h119.523L138.804 8.785 45.382 62.367V-140.97Z" fill="#000"/><path d="m85.223 107.707 34.35-2.955 1.371.205 1.37 5.5" stroke="#000" stroke-width="3.685" stroke-miterlimit="10"/><path d="M61.23 110.819c-.756-5.863-1.539-11.727-1.8-17.637a87.824 87.824 0 0 1 .932-16.993c1.678-11.046 5.193-21.73 9.322-32.067 4.13-10.338 9.48-20.368 13.209-30.91A72.217 72.217 0 0 0 86.78-2.786c.61-5.811.762-11.662.457-17.497-.392-10.356-1.5-23.808-12.724-28.235-.84-.336-1.212 1.025-.373 1.351C84.394-43.11 85.42-30.386 85.8-20.953c.311 5.686.212 11.387-.298 17.059a71.247 71.247 0 0 1-3.813 16.331c-3.654 10.254-8.762 19.995-12.882 30.091-4.12 10.096-7.56 20.293-9.434 31.004a91.953 91.953 0 0 0-1.417 17.88 186.27 186.27 0 0 0 1.865 19.435c.111.932 1.52.932 1.398 0l.01-.028Z" fill="#fff"/><path d="M150.839 109.589a105.553 105.553 0 0 0-8.529-14.477c-3.011-4.465-6.022-8.93-9.201-13.274a125.31 125.31 0 0 0-10.254-12.556c-3.831-4.018-8.073-7.607-11.932-11.596A72.842 72.842 0 0 1 95.011 32.33c-3.58-9.686-4.549-19.735-4.894-29.98-.392-11.54-.242-23.462-4.008-34.49-.29-.857-1.64-.484-1.352.373 3.412 10.04 3.552 20.797 3.86 31.284.307 10.123.829 20.21 3.914 29.941a74.634 74.634 0 0 0 14.114 25.607c3.514 4.176 7.587 7.802 11.521 11.56a109.624 109.624 0 0 1 11.196 12.5c3.728 4.819 7.112 9.853 10.524 14.914 3.683 5.15 6.94 10.59 9.741 16.267.382.82 1.594.102 1.212-.709v-.009Z" fill="#fff"/><path d="M159.843 340.415H55.002a2.965 2.965 0 0 1-3.04-2.862l7.01-188.588a2.964 2.964 0 0 1 3.049-2.862s9.844 52.537 44.903 52.789c30.296.205 47.159-52.789 47.159-52.789a2.966 2.966 0 0 1 3.048 2.862l5.761 188.588a2.977 2.977 0 0 1-3.049 2.862Z" fill="#96BD96" stroke="#000" stroke-width="3.568" stroke-miterlimit="10"/><g filter="url(#b)"><path d="M158.912 341.348H54.07a2.964 2.964 0 0 1-3.039-2.862l7.01-188.588a2.966 2.966 0 0 1 3.048-2.862s9.844 52.538 44.903 52.789c30.296.206 47.159-52.789 47.159-52.789a2.967 2.967 0 0 1 3.048 2.862l5.761 188.588a2.972 2.972 0 0 1-3.048 2.862Z" fill="#00E59D"/></g><g filter="url(#c)"><path d="M160.49 184.461c0-6.351-5.148-11.5-11.5-11.5-6.351 0-11.5 5.149-11.5 11.5s5.149 11.5 11.5 11.5c6.352 0 11.5-5.149 11.5-11.5Z" fill="#2E3192"/></g><g filter="url(#d)"><path d="M187.49 187.961c0-8.284-6.715-15-15-15-8.284 0-15 6.716-15 15 0 8.284 6.716 15 15 15 8.285 0 15-6.716 15-15Z" fill="#2E3192"/></g><g filter="url(#e)"><path d="M227.49 175.461c0-12.426-10.073-22.5-22.5-22.5-12.426 0-22.5 10.074-22.5 22.5s10.074 22.5 22.5 22.5c12.427 0 22.5-10.074 22.5-22.5Z" fill="#2E3192"/></g><g filter="url(#f)"><path d="M267.49 142.961c0-16.569-13.431-30-30-30-16.568 0-30 13.431-30 30 0 16.568 13.432 30 30 30 16.569 0 30-13.432 30-30Z" fill="#2E3192"/></g><g filter="url(#g)"><rect x="258" y="40" width="489" height="220" rx="50" fill="#2E3192"/></g><path d="M312.9 138.72c6.78 0 11.28-2.16 15.24-5.64.66-.6 1.2-1.5 1.2-2.64 0-1.86-1.62-3.42-3.48-3.42-.9 0-1.68.36-2.22.84-3.06 2.58-6.06 4.02-10.5 4.02-8.04 0-13.86-6.66-13.86-14.88v-.12c0-8.22 5.88-14.82 13.86-14.82 4.02 0 7.14 1.44 10.02 3.78.48.36 1.2.72 2.22.72 2.04 0 3.66-1.56 3.66-3.6 0-1.32-.66-2.34-1.44-2.94-3.66-2.82-7.92-4.74-14.4-4.74-12.72 0-21.66 9.78-21.66 21.72v.12c0 12.06 9.12 21.6 21.36 21.6Zm20.957-4.02c0 2.04 1.62 3.6 3.6 3.6 2.04 0 3.66-1.56 3.66-3.6v-14.58c0-4.92 2.94-7.86 7.14-7.86 4.32 0 6.78 2.82 6.78 7.74v14.7c0 2.04 1.62 3.6 3.66 3.6s3.6-1.56 3.6-3.6v-16.92c0-7.32-4.14-12.12-11.28-12.12-4.92 0-7.86 2.58-9.9 5.52V97.5c0-1.98-1.62-3.6-3.66-3.6s-3.6 1.62-3.6 3.6v37.2Zm34.087-36.54c0 2.16 1.8 3.6 4.14 3.6s4.14-1.44 4.14-3.6v-.36c0-2.16-1.8-3.54-4.14-3.54s-4.14 1.38-4.14 3.54v.36Zm.54 36.54c0 2.04 1.62 3.6 3.6 3.6 2.04 0 3.66-1.56 3.66-3.6v-25.08c0-2.04-1.62-3.66-3.66-3.66s-3.6 1.62-3.6 3.66v25.08Zm14.168 0c0 2.04 1.62 3.6 3.6 3.6 2.04 0 3.66-1.56 3.66-3.6V97.5c0-1.98-1.62-3.6-3.66-3.6s-3.6 1.62-3.6 3.6v37.2Zm14.168 0c0 2.04 1.62 3.6 3.6 3.6 2.04 0 3.66-1.56 3.66-3.6V97.5c0-1.98-1.62-3.6-3.66-3.6s-3.6 1.62-3.6 3.6v37.2Zm13.628-36.54c0 2.16 1.8 3.6 4.14 3.6s4.14-1.44 4.14-3.6v-.36c0-2.16-1.8-3.54-4.14-3.54s-4.14 1.38-4.14 3.54v.36Zm.54 36.54c0 2.04 1.62 3.6 3.6 3.6 2.04 0 3.66-1.56 3.66-3.6v-25.08c0-2.04-1.62-3.66-3.66-3.66s-3.6 1.62-3.6 3.66v25.08Zm13.748 0c0 2.04 1.62 3.6 3.6 3.6 2.04 0 3.66-1.56 3.66-3.6v-14.58c0-4.92 2.94-7.86 7.14-7.86 4.32 0 6.78 2.82 6.78 7.74v14.7c0 2.04 1.62 3.6 3.66 3.6s3.6-1.56 3.6-3.6v-16.92c0-7.32-4.14-12.12-11.28-12.12-4.92 0-7.86 2.58-9.9 5.52v-1.56c0-2.04-1.62-3.66-3.66-3.66s-3.6 1.62-3.6 3.66v25.08Zm49.615 0c0 2.04 1.62 3.6 3.6 3.6 2.04 0 3.66-1.56 3.66-3.6V97.5c0-1.98-1.62-3.6-3.66-3.6s-3.6 1.62-3.6 3.6v37.2Zm13.628-36.54c0 2.16 1.8 3.6 4.14 3.6s4.14-1.44 4.14-3.6v-.36c0-2.16-1.8-3.54-4.14-3.54s-4.14 1.38-4.14 3.54v.36Zm.54 36.54c0 2.04 1.62 3.6 3.6 3.6 2.04 0 3.66-1.56 3.66-3.6v-25.08c0-2.04-1.62-3.66-3.66-3.66s-3.6 1.62-3.6 3.66v25.08Zm13.748 0c0 2.04 1.62 3.6 3.6 3.6 2.04 0 3.66-1.56 3.66-3.6v-5.52l4.8-4.56 9.06 12.06c.9 1.14 1.74 1.62 3.18 1.62 1.86 0 3.42-1.32 3.42-3.3 0-.84-.3-1.5-.96-2.4l-9.6-12.54 8.4-7.74c1.02-.96 1.62-1.86 1.62-3.06 0-1.74-1.26-3.3-3.18-3.3-1.26 0-2.16.6-3.12 1.56l-13.62 13.38V97.5c0-1.98-1.62-3.6-3.66-3.6s-3.6 1.62-3.6 3.6v37.2Zm36.386-14.76c.66-4.92 3.78-8.34 8.22-8.34 4.8 0 7.56 3.66 8.04 8.34h-16.26Zm20.46 14.58c.54-.54.96-1.32.96-2.22 0-1.68-1.26-2.94-2.88-2.94-.84 0-1.32.24-1.86.66-2.04 1.68-4.44 2.76-7.5 2.76-4.68 0-8.34-2.88-9.12-8.04h19.86c1.86 0 3.42-1.44 3.42-3.48 0-7.32-4.98-15.6-15.06-15.6-9.06 0-15.48 7.44-15.48 16.5v.12c0 9.78 7.08 16.44 16.26 16.44 4.92 0 8.52-1.62 11.4-4.2Zm23.119-.24c0 2.1 1.62 3.72 3.72 3.72h11.94c13.2 0 22.32-9.18 22.32-21v-.12c0-11.82-9.12-20.88-22.32-20.88h-11.94c-2.1 0-3.72 1.62-3.72 3.72v34.56Zm7.38-3v-28.56h8.28c8.82 0 14.58 6.06 14.58 14.28v.12c0 8.22-5.76 14.16-14.58 14.16h-8.28Zm35.714 3.42c0 2.04 1.62 3.6 3.6 3.6 2.04 0 3.66-1.62 3.66-3.6v-9.36c0-7.5 3.54-11.46 8.7-12.36 1.62-.3 2.88-1.56 2.88-3.48 0-2.1-1.32-3.6-3.6-3.6-3.18 0-6.3 3-7.98 6.96v-3.24c0-2.04-1.62-3.66-3.66-3.66s-3.6 1.62-3.6 3.66v25.08Zm29.381 3.96c4.86 0 8.16-2.04 10.32-4.62v1.2c0 1.62 1.44 3.06 3.54 3.06 1.98 0 3.54-1.5 3.54-3.48v-15.6c0-4.14-1.08-7.5-3.42-9.78-2.22-2.28-5.76-3.54-10.5-3.54-4.14 0-7.2.72-10.2 1.86-1.08.42-1.98 1.56-1.98 2.88 0 1.68 1.38 3 3.06 3 .36 0 .72-.06 1.14-.18 1.98-.78 4.26-1.26 7.02-1.26 5.1 0 7.86 2.4 7.86 6.9v.78c-2.46-.78-4.98-1.32-8.52-1.32-7.74 0-13.08 3.36-13.08 10.2v.12c0 6.36 5.28 9.78 11.22 9.78Zm2.04-5.28c-3.48 0-6.18-1.74-6.18-4.8v-.12c0-3.3 2.76-5.28 7.44-5.28 2.88 0 5.34.54 7.2 1.26v2.16c0 4.02-3.66 6.78-8.46 6.78Zm35.695 5.34c5.28 0 8.7-1.8 11.52-4.5.66-.54 1.02-1.32 1.02-2.28 0-1.74-1.38-3.18-3.12-3.18-.84 0-1.56.42-1.98.78-1.98 1.68-4.2 2.82-7.08 2.82-5.58 0-9.48-4.5-9.48-10.14v-.12c0-5.52 3.9-10.08 9.18-10.08 2.88 0 4.92 1.14 6.78 2.7.48.36 1.26.72 2.16.72 1.86 0 3.36-1.44 3.36-3.3 0-1.2-.66-2.1-1.14-2.52-2.7-2.34-6.12-3.96-11.1-3.96-9.54 0-16.5 7.56-16.5 16.56v.12c0 9 6.96 16.38 16.38 16.38Zm15.918-5.16v.6c0 2.34 1.8 4.14 4.26 4.14 2.4 0 4.2-1.8 4.2-4.14v-.6c0-2.34-1.8-4.14-4.2-4.14-2.46 0-4.26 1.8-4.26 4.14Z" fill="#000"/><path d="M312.9 133.72c6.78 0 11.28-2.16 15.24-5.64.66-.6 1.2-1.5 1.2-2.64 0-1.86-1.62-3.42-3.48-3.42-.9 0-1.68.36-2.22.84-3.06 2.58-6.06 4.02-10.5 4.02-8.04 0-13.86-6.66-13.86-14.88v-.12c0-8.22 5.88-14.82 13.86-14.82 4.02 0 7.14 1.44 10.02 3.78.48.36 1.2.72 2.22.72 2.04 0 3.66-1.56 3.66-3.6 0-1.32-.66-2.34-1.44-2.94-3.66-2.82-7.92-4.74-14.4-4.74-12.72 0-21.66 9.78-21.66 21.72v.12c0 12.06 9.12 21.6 21.36 21.6Zm20.957-4.02c0 2.04 1.62 3.6 3.6 3.6 2.04 0 3.66-1.56 3.66-3.6v-14.58c0-4.92 2.94-7.86 7.14-7.86 4.32 0 6.78 2.82 6.78 7.74v14.7c0 2.04 1.62 3.6 3.66 3.6s3.6-1.56 3.6-3.6v-16.92c0-7.32-4.14-12.12-11.28-12.12-4.92 0-7.86 2.58-9.9 5.52V92.5c0-1.98-1.62-3.6-3.66-3.6s-3.6 1.62-3.6 3.6v37.2Zm34.087-36.54c0 2.16 1.8 3.6 4.14 3.6s4.14-1.44 4.14-3.6v-.36c0-2.16-1.8-3.54-4.14-3.54s-4.14 1.38-4.14 3.54v.36Zm.54 36.54c0 2.04 1.62 3.6 3.6 3.6 2.04 0 3.66-1.56 3.66-3.6v-25.08c0-2.04-1.62-3.66-3.66-3.66s-3.6 1.62-3.6 3.66v25.08Zm14.168 0c0 2.04 1.62 3.6 3.6 3.6 2.04 0 3.66-1.56 3.66-3.6V92.5c0-1.98-1.62-3.6-3.66-3.6s-3.6 1.62-3.6 3.6v37.2Zm14.168 0c0 2.04 1.62 3.6 3.6 3.6 2.04 0 3.66-1.56 3.66-3.6V92.5c0-1.98-1.62-3.6-3.66-3.6s-3.6 1.62-3.6 3.6v37.2Zm13.628-36.54c0 2.16 1.8 3.6 4.14 3.6s4.14-1.44 4.14-3.6v-.36c0-2.16-1.8-3.54-4.14-3.54s-4.14 1.38-4.14 3.54v.36Zm.54 36.54c0 2.04 1.62 3.6 3.6 3.6 2.04 0 3.66-1.56 3.66-3.6v-25.08c0-2.04-1.62-3.66-3.66-3.66s-3.6 1.62-3.6 3.66v25.08Zm13.748 0c0 2.04 1.62 3.6 3.6 3.6 2.04 0 3.66-1.56 3.66-3.6v-14.58c0-4.92 2.94-7.86 7.14-7.86 4.32 0 6.78 2.82 6.78 7.74v14.7c0 2.04 1.62 3.6 3.66 3.6s3.6-1.56 3.6-3.6v-16.92c0-7.32-4.14-12.12-11.28-12.12-4.92 0-7.86 2.58-9.9 5.52v-1.56c0-2.04-1.62-3.66-3.66-3.66s-3.6 1.62-3.6 3.66v25.08Zm49.615 0c0 2.04 1.62 3.6 3.6 3.6 2.04 0 3.66-1.56 3.66-3.6V92.5c0-1.98-1.62-3.6-3.66-3.6s-3.6 1.62-3.6 3.6v37.2Zm13.628-36.54c0 2.16 1.8 3.6 4.14 3.6s4.14-1.44 4.14-3.6v-.36c0-2.16-1.8-3.54-4.14-3.54s-4.14 1.38-4.14 3.54v.36Zm.54 36.54c0 2.04 1.62 3.6 3.6 3.6 2.04 0 3.66-1.56 3.66-3.6v-25.08c0-2.04-1.62-3.66-3.66-3.66s-3.6 1.62-3.6 3.66v25.08Zm13.748 0c0 2.04 1.62 3.6 3.6 3.6 2.04 0 3.66-1.56 3.66-3.6v-5.52l4.8-4.56 9.06 12.06c.9 1.14 1.74 1.62 3.18 1.62 1.86 0 3.42-1.32 3.42-3.3 0-.84-.3-1.5-.96-2.4l-9.6-12.54 8.4-7.74c1.02-.96 1.62-1.86 1.62-3.06 0-1.74-1.26-3.3-3.18-3.3-1.26 0-2.16.6-3.12 1.56l-13.62 13.38V92.5c0-1.98-1.62-3.6-3.66-3.6s-3.6 1.62-3.6 3.6v37.2Zm36.386-14.76c.66-4.92 3.78-8.34 8.22-8.34 4.8 0 7.56 3.66 8.04 8.34h-16.26Zm20.46 14.58c.54-.54.96-1.32.96-2.22 0-1.68-1.26-2.94-2.88-2.94-.84 0-1.32.24-1.86.66-2.04 1.68-4.44 2.76-7.5 2.76-4.68 0-8.34-2.88-9.12-8.04h19.86c1.86 0 3.42-1.44 3.42-3.48 0-7.32-4.98-15.6-15.06-15.6-9.06 0-15.48 7.44-15.48 16.5v.12c0 9.78 7.08 16.44 16.26 16.44 4.92 0 8.52-1.62 11.4-4.2Z" fill="#00E59D"/><path d="M582.232 129.28c0 2.1 1.62 3.72 3.72 3.72h11.94c13.2 0 22.32-9.18 22.32-21v-.12c0-11.82-9.12-20.88-22.32-20.88h-11.94c-2.1 0-3.72 1.62-3.72 3.72v34.56Zm7.38-3V97.72h8.28c8.82 0 14.58 6.06 14.58 14.28v.12c0 8.22-5.76 14.16-14.58 14.16h-8.28Zm35.714 3.42c0 2.04 1.62 3.6 3.6 3.6 2.04 0 3.66-1.62 3.66-3.6v-9.36c0-7.5 3.54-11.46 8.7-12.36 1.62-.3 2.88-1.56 2.88-3.48 0-2.1-1.32-3.6-3.6-3.6-3.18 0-6.3 3-7.98 6.96v-3.24c0-2.04-1.62-3.66-3.66-3.66s-3.6 1.62-3.6 3.66v25.08Zm29.381 3.96c4.86 0 8.16-2.04 10.32-4.62v1.2c0 1.62 1.44 3.06 3.54 3.06 1.98 0 3.54-1.5 3.54-3.48v-15.6c0-4.14-1.08-7.5-3.42-9.78-2.22-2.28-5.76-3.54-10.5-3.54-4.14 0-7.2.72-10.2 1.86-1.08.42-1.98 1.56-1.98 2.88 0 1.68 1.38 3 3.06 3 .36 0 .72-.06 1.14-.18 1.98-.78 4.26-1.26 7.02-1.26 5.1 0 7.86 2.4 7.86 6.9v.78c-2.46-.78-4.98-1.32-8.52-1.32-7.74 0-13.08 3.36-13.08 10.2v.12c0 6.36 5.28 9.78 11.22 9.78Zm2.04-5.28c-3.48 0-6.18-1.74-6.18-4.8v-.12c0-3.3 2.76-5.28 7.44-5.28 2.88 0 5.34.54 7.2 1.26v2.16c0 4.02-3.66 6.78-8.46 6.78Zm35.695 5.34c5.28 0 8.7-1.8 11.52-4.5.66-.54 1.02-1.32 1.02-2.28 0-1.74-1.38-3.18-3.12-3.18-.84 0-1.56.42-1.98.78-1.98 1.68-4.2 2.82-7.08 2.82-5.58 0-9.48-4.5-9.48-10.14v-.12c0-5.52 3.9-10.08 9.18-10.08 2.88 0 4.92 1.14 6.78 2.7.48.36 1.26.72 2.16.72 1.86 0 3.36-1.44 3.36-3.3 0-1.2-.66-2.1-1.14-2.52-2.7-2.34-6.12-3.96-11.1-3.96-9.54 0-16.5 7.56-16.5 16.56v.12c0 9 6.96 16.38 16.38 16.38Zm15.918-5.16v.6c0 2.34 1.8 4.14 4.26 4.14 2.4 0 4.2-1.8 4.2-4.14v-.6c0-2.34-1.8-4.14-4.2-4.14-2.46 0-4.26 1.8-4.26 4.14Z" fill="red"/><g filter="url(#h)"><path d="M312.9 133.72c6.78 0 11.28-2.16 15.24-5.64.66-.6 1.2-1.5 1.2-2.64 0-1.86-1.62-3.42-3.48-3.42-.9 0-1.68.36-2.22.84-3.06 2.58-6.06 4.02-10.5 4.02-8.04 0-13.86-6.66-13.86-14.88v-.12c0-8.22 5.88-14.82 13.86-14.82 4.02 0 7.14 1.44 10.02 3.78.48.36 1.2.72 2.22.72 2.04 0 3.66-1.56 3.66-3.6 0-1.32-.66-2.34-1.44-2.94-3.66-2.82-7.92-4.74-14.4-4.74-12.72 0-21.66 9.78-21.66 21.72v.12c0 12.06 9.12 21.6 21.36 21.6Zm20.957-4.02c0 2.04 1.62 3.6 3.6 3.6 2.04 0 3.66-1.56 3.66-3.6v-14.58c0-4.92 2.94-7.86 7.14-7.86 4.32 0 6.78 2.82 6.78 7.74v14.7c0 2.04 1.62 3.6 3.66 3.6s3.6-1.56 3.6-3.6v-16.92c0-7.32-4.14-12.12-11.28-12.12-4.92 0-7.86 2.58-9.9 5.52V92.5c0-1.98-1.62-3.6-3.66-3.6s-3.6 1.62-3.6 3.6v37.2Zm34.087-36.54c0 2.16 1.8 3.6 4.14 3.6s4.14-1.44 4.14-3.6v-.36c0-2.16-1.8-3.54-4.14-3.54s-4.14 1.38-4.14 3.54v.36Zm.54 36.54c0 2.04 1.62 3.6 3.6 3.6 2.04 0 3.66-1.56 3.66-3.6v-25.08c0-2.04-1.62-3.66-3.66-3.66s-3.6 1.62-3.6 3.66v25.08Zm14.168 0c0 2.04 1.62 3.6 3.6 3.6 2.04 0 3.66-1.56 3.66-3.6V92.5c0-1.98-1.62-3.6-3.66-3.6s-3.6 1.62-3.6 3.6v37.2Zm14.168 0c0 2.04 1.62 3.6 3.6 3.6 2.04 0 3.66-1.56 3.66-3.6V92.5c0-1.98-1.62-3.6-3.66-3.6s-3.6 1.62-3.6 3.6v37.2Zm13.628-36.54c0 2.16 1.8 3.6 4.14 3.6s4.14-1.44 4.14-3.6v-.36c0-2.16-1.8-3.54-4.14-3.54s-4.14 1.38-4.14 3.54v.36Zm.54 36.54c0 2.04 1.62 3.6 3.6 3.6 2.04 0 3.66-1.56 3.66-3.6v-25.08c0-2.04-1.62-3.66-3.66-3.66s-3.6 1.62-3.6 3.66v25.08Zm13.748 0c0 2.04 1.62 3.6 3.6 3.6 2.04 0 3.66-1.56 3.66-3.6v-14.58c0-4.92 2.94-7.86 7.14-7.86 4.32 0 6.78 2.82 6.78 7.74v14.7c0 2.04 1.62 3.6 3.66 3.6s3.6-1.56 3.6-3.6v-16.92c0-7.32-4.14-12.12-11.28-12.12-4.92 0-7.86 2.58-9.9 5.52v-1.56c0-2.04-1.62-3.66-3.66-3.66s-3.6 1.62-3.6 3.66v25.08Zm31.747-23.46c0 .96.6 1.68 1.86 1.68 1.68 0 4.02-.96 5.64-2.58 1.86-1.86 2.94-4.68 2.94-8.76v-.6c0-3.24-1.68-5.28-4.32-5.28-2.46 0-4.08 1.74-4.08 4.02v.48c0 2.16 1.68 3.6 3.42 4.02.12 2.7-1.32 4.56-4.08 5.4-.78.24-1.38.78-1.38 1.62Zm30.981 23.46c0 2.04 1.62 3.6 3.6 3.6 2.04 0 3.66-1.56 3.66-3.6V92.5c0-1.98-1.62-3.6-3.66-3.6s-3.6 1.62-3.6 3.6v37.2Zm13.628-36.54c0 2.16 1.8 3.6 4.14 3.6s4.14-1.44 4.14-3.6v-.36c0-2.16-1.8-3.54-4.14-3.54s-4.14 1.38-4.14 3.54v.36Zm.54 36.54c0 2.04 1.62 3.6 3.6 3.6 2.04 0 3.66-1.56 3.66-3.6v-25.08c0-2.04-1.62-3.66-3.66-3.66s-3.6 1.62-3.6 3.66v25.08Zm13.748 0c0 2.04 1.62 3.6 3.6 3.6 2.04 0 3.66-1.56 3.66-3.6v-5.52l4.8-4.56 9.06 12.06c.9 1.14 1.74 1.62 3.18 1.62 1.86 0 3.42-1.32 3.42-3.3 0-.84-.3-1.5-.96-2.4l-9.6-12.54 8.4-7.74c1.02-.96 1.62-1.86 1.62-3.06 0-1.74-1.26-3.3-3.18-3.3-1.26 0-2.16.6-3.12 1.56l-13.62 13.38V92.5c0-1.98-1.62-3.6-3.66-3.6s-3.6 1.62-3.6 3.6v37.2Zm36.386-14.76c.66-4.92 3.78-8.34 8.22-8.34 4.8 0 7.56 3.66 8.04 8.34h-16.26Zm20.46 14.58c.54-.54.96-1.32.96-2.22 0-1.68-1.26-2.94-2.88-2.94-.84 0-1.32.24-1.86.66-2.04 1.68-4.44 2.76-7.5 2.76-4.68 0-8.34-2.88-9.12-8.04h19.86c1.86 0 3.42-1.44 3.42-3.48 0-7.32-4.98-15.6-15.06-15.6-9.06 0-15.48 7.44-15.48 16.5v.12c0 9.78 7.08 16.44 16.26 16.44 4.92 0 8.52-1.62 11.4-4.2Z" fill="#00E59D"/><path d="M595.345 129.28c0 2.1 1.62 3.72 3.72 3.72h11.94c13.2 0 22.32-9.18 22.32-21v-.12c0-11.82-9.12-20.88-22.32-20.88h-11.94c-2.1 0-3.72 1.62-3.72 3.72v34.56Zm7.38-3V97.72h8.28c8.82 0 14.58 6.06 14.58 14.28v.12c0 8.22-5.76 14.16-14.58 14.16h-8.28Zm35.714 3.42c0 2.04 1.62 3.6 3.6 3.6 2.04 0 3.66-1.62 3.66-3.6v-9.36c0-7.5 3.54-11.46 8.7-12.36 1.62-.3 2.88-1.56 2.88-3.48 0-2.1-1.32-3.6-3.6-3.6-3.18 0-6.3 3-7.98 6.96v-3.24c0-2.04-1.62-3.66-3.66-3.66s-3.6 1.62-3.6 3.66v25.08Zm29.382 3.96c4.86 0 8.16-2.04 10.32-4.62v1.2c0 1.62 1.44 3.06 3.54 3.06 1.98 0 3.54-1.5 3.54-3.48v-15.6c0-4.14-1.08-7.5-3.42-9.78-2.22-2.28-5.76-3.54-10.5-3.54-4.14 0-7.2.72-10.2 1.86-1.08.42-1.98 1.56-1.98 2.88 0 1.68 1.38 3 3.06 3 .36 0 .72-.06 1.14-.18 1.98-.78 4.26-1.26 7.02-1.26 5.1 0 7.86 2.4 7.86 6.9v.78c-2.46-.78-4.98-1.32-8.52-1.32-7.74 0-13.08 3.36-13.08 10.2v.12c0 6.36 5.28 9.78 11.22 9.78Zm2.04-5.28c-3.48 0-6.18-1.74-6.18-4.8v-.12c0-3.3 2.76-5.28 7.44-5.28 2.88 0 5.34.54 7.2 1.26v2.16c0 4.02-3.66 6.78-8.46 6.78Zm35.694 5.34c5.28 0 8.7-1.8 11.52-4.5.66-.54 1.02-1.32 1.02-2.28 0-1.74-1.38-3.18-3.12-3.18-.84 0-1.56.42-1.98.78-1.98 1.68-4.2 2.82-7.08 2.82-5.58 0-9.48-4.5-9.48-10.14v-.12c0-5.52 3.9-10.08 9.18-10.08 2.88 0 4.92 1.14 6.78 2.7.48.36 1.26.72 2.16.72 1.86 0 3.36-1.44 3.36-3.3 0-1.2-.66-2.1-1.14-2.52-2.7-2.34-6.12-3.96-11.1-3.96-9.54 0-16.5 7.56-16.5 16.56v.12c0 9 6.96 16.38 16.38 16.38Zm15.918-5.16v.6c0 2.34 1.8 4.14 4.26 4.14 2.4 0 4.2-1.8 4.2-4.14v-.6c0-2.34-1.8-4.14-4.2-4.14-2.46 0-4.26 1.8-4.26 4.14Z" fill="red"/></g><path d="M308.22 208.64c0 2.04 1.62 3.66 3.66 3.66 2.1 0 3.72-1.62 3.72-3.66V195.5l14.34-19.62c.54-.72 1.02-1.62 1.02-2.64 0-1.98-1.44-3.6-3.6-3.6-1.56 0-2.64.9-3.54 2.22l-11.88 16.92-11.7-16.86c-.9-1.32-1.98-2.22-3.6-2.22-2.1 0-3.72 1.56-3.72 3.54 0 1.02.36 1.86.84 2.58l14.46 19.86v12.96Zm36.431 4.08c9.78 0 16.98-7.5 16.98-16.5v-.12c0-9.06-7.14-16.44-16.86-16.44-9.72 0-16.92 7.5-16.92 16.56v.12c0 9 7.14 16.38 16.8 16.38Zm.12-6.36c-5.64 0-9.66-4.62-9.66-10.14v-.12c0-5.52 3.72-10.08 9.54-10.08 5.7 0 9.72 4.62 9.72 10.2v.12c0 5.46-3.72 10.02-9.6 10.02Zm49.394-22.74c0-2.04-1.68-3.66-3.66-3.66-2.04 0-3.66 1.62-3.66 3.66v14.58c0 4.92-2.94 7.8-7.14 7.8-4.32 0-6.78-2.76-6.78-7.68v-14.7c0-2.04-1.62-3.66-3.66-3.66-1.98 0-3.6 1.62-3.6 3.66v16.86c0 7.38 4.14 12.18 11.28 12.18 4.92 0 7.86-2.58 9.9-5.58v1.62c0 2.04 1.68 3.6 3.66 3.6 2.04 0 3.66-1.62 3.66-3.6v-25.08Zm31.915 28.98c6.6 0 11.76-3.3 11.76-9.96v-.12c0-5.7-5.22-7.8-9.84-9.24-3.72-1.2-7.14-2.16-7.14-4.5v-.12c0-1.8 1.62-3.12 4.44-3.12 2.22 0 4.86.84 7.44 2.16.48.24.84.36 1.44.36 1.68 0 3-1.26 3-2.94 0-1.26-.72-2.22-1.74-2.76-3.06-1.62-6.6-2.58-9.96-2.58-6.3 0-11.28 3.66-11.28 9.66v.12c0 6.06 5.22 7.98 9.9 9.3 3.72 1.14 7.08 1.98 7.08 4.44v.12c0 2.1-1.8 3.42-4.92 3.42-2.88 0-6.06-1.02-9.12-3.06-.42-.24-.96-.42-1.56-.42-1.68 0-2.94 1.32-2.94 2.94 0 1.2.6 2.1 1.38 2.52 3.66 2.52 8.04 3.78 12.06 3.78Zm16.199-3.9c0 2.04 1.62 3.6 3.6 3.6 2.04 0 3.66-1.56 3.66-3.6v-14.58c0-4.92 2.94-7.86 7.14-7.86 4.32 0 6.78 2.82 6.78 7.74v14.7c0 2.04 1.62 3.6 3.66 3.6s3.6-1.56 3.6-3.6v-16.92c0-7.32-4.14-12.12-11.28-12.12-4.92 0-7.86 2.58-9.9 5.52V171.5c0-1.98-1.62-3.6-3.66-3.6s-3.6 1.62-3.6 3.6v37.2Zm49.267 4.02c9.78 0 16.98-7.5 16.98-16.5v-.12c0-9.06-7.14-16.44-16.86-16.44-9.72 0-16.92 7.5-16.92 16.56v.12c0 9 7.14 16.38 16.8 16.38Zm.12-6.36c-5.64 0-9.66-4.62-9.66-10.14v-.12c0-5.52 3.72-10.08 9.54-10.08 5.7 0 9.72 4.62 9.72 10.2v.12c0 5.46-3.72 10.02-9.6 10.02Zm49.393-22.74c0-2.04-1.68-3.66-3.66-3.66-2.04 0-3.66 1.62-3.66 3.66v14.58c0 4.92-2.94 7.8-7.14 7.8-4.32 0-6.78-2.76-6.78-7.68v-14.7c0-2.04-1.62-3.66-3.66-3.66-1.98 0-3.6 1.62-3.6 3.66v16.86c0 7.38 4.14 12.18 11.28 12.18 4.92 0 7.86-2.58 9.9-5.58v1.62c0 2.04 1.68 3.6 3.66 3.6 2.04 0 3.66-1.62 3.66-3.6v-25.08Zm6.487 25.08c0 2.04 1.62 3.6 3.6 3.6 2.04 0 3.66-1.56 3.66-3.6v-37.2c0-1.98-1.62-3.6-3.66-3.6s-3.6 1.62-3.6 3.6v37.2Zm44.888-37.2c0-2.04-1.62-3.6-3.66-3.6-1.98 0-3.6 1.56-3.6 3.6v13.74c-2.28-3-5.58-5.58-10.8-5.58-7.56 0-14.7 5.94-14.7 16.44v.12c0 10.5 7.26 16.44 14.7 16.44 5.16 0 8.46-2.64 10.8-5.94v1.98c0 2.04 1.62 3.6 3.66 3.6 1.98 0 3.6-1.56 3.6-3.6v-37.2Zm-16.32 14.46c4.86 0 9.18 4.02 9.18 10.14v.12c0 6.06-4.32 10.14-9.18 10.14-4.92 0-9.12-4.02-9.12-10.14v-.12c0-6.3 4.14-10.14 9.12-10.14Zm48.043 26.58c1.92 0 3.42-.3 4.98-.84 1.02-.42 1.92-1.5 1.92-2.82 0-1.68-1.44-3-3.06-3-.24 0-.96.18-1.8.18-2.46 0-3.9-1.14-3.9-3.96v-15.54h5.7c1.74 0 3.18-1.38 3.18-3.12 0-1.74-1.44-3.12-3.18-3.12h-5.7v-5.4c0-1.98-1.62-3.6-3.6-3.6-2.04 0-3.66 1.62-3.66 3.6v5.4h-1.2c-1.74 0-3.12 1.38-3.12 3.12 0 1.74 1.38 3.12 3.12 3.12h1.2v16.68c0 6.96 3.78 9.3 9.12 9.3Zm25.229.18c9.78 0 16.98-7.5 16.98-16.5v-.12c0-9.06-7.14-16.44-16.86-16.44-9.72 0-16.92 7.5-16.92 16.56v.12c0 9 7.14 16.38 16.8 16.38Zm.12-6.36c-5.64 0-9.66-4.62-9.66-10.14v-.12c0-5.52 3.72-10.08 9.54-10.08 5.7 0 9.72 4.62 9.72 10.2v.12c0 5.46-3.72 10.02-9.6 10.02Zm36.313 6.36c9.78 0 16.98-7.5 16.98-16.5v-.12c0-9.06-7.14-16.44-16.86-16.44-9.72 0-16.92 7.5-16.92 16.56v.12c0 9 7.14 16.38 16.8 16.38Zm.12-6.36c-5.64 0-9.66-4.62-9.66-10.14v-.12c0-5.52 3.72-10.08 9.54-10.08 5.7 0 9.72 4.62 9.72 10.2v.12c0 5.46-3.72 10.02-9.6 10.02Zm19.362 1.2v.6c0 2.34 1.8 4.14 4.26 4.14 2.4 0 4.2-1.8 4.2-4.14v-.6c0-2.34-1.8-4.14-4.2-4.14-2.46 0-4.26 1.8-4.26 4.14Z" fill="#000"/><path d="M308.22 203.64c0 2.04 1.62 3.66 3.66 3.66 2.1 0 3.72-1.62 3.72-3.66V190.5l14.34-19.62c.54-.72 1.02-1.62 1.02-2.64 0-1.98-1.44-3.6-3.6-3.6-1.56 0-2.64.9-3.54 2.22l-11.88 16.92-11.7-16.86c-.9-1.32-1.98-2.22-3.6-2.22-2.1 0-3.72 1.56-3.72 3.54 0 1.02.36 1.86.84 2.58l14.46 19.86v12.96Zm36.431 4.08c9.78 0 16.98-7.5 16.98-16.5v-.12c0-9.06-7.14-16.44-16.86-16.44-9.72 0-16.92 7.5-16.92 16.56v.12c0 9 7.14 16.38 16.8 16.38Zm.12-6.36c-5.64 0-9.66-4.62-9.66-10.14v-.12c0-5.52 3.72-10.08 9.54-10.08 5.7 0 9.72 4.62 9.72 10.2v.12c0 5.46-3.72 10.02-9.6 10.02Zm49.394-22.74c0-2.04-1.68-3.66-3.66-3.66-2.04 0-3.66 1.62-3.66 3.66v14.58c0 4.92-2.94 7.8-7.14 7.8-4.32 0-6.78-2.76-6.78-7.68v-14.7c0-2.04-1.62-3.66-3.66-3.66-1.98 0-3.6 1.62-3.6 3.66v16.86c0 7.38 4.14 12.18 11.28 12.18 4.92 0 7.86-2.58 9.9-5.58v1.62c0 2.04 1.68 3.6 3.66 3.6 2.04 0 3.66-1.62 3.66-3.6v-25.08Zm31.915 28.98c6.6 0 11.76-3.3 11.76-9.96v-.12c0-5.7-5.22-7.8-9.84-9.24-3.72-1.2-7.14-2.16-7.14-4.5v-.12c0-1.8 1.62-3.12 4.44-3.12 2.22 0 4.86.84 7.44 2.16.48.24.84.36 1.44.36 1.68 0 3-1.26 3-2.94 0-1.26-.72-2.22-1.74-2.76-3.06-1.62-6.6-2.58-9.96-2.58-6.3 0-11.28 3.66-11.28 9.66v.12c0 6.06 5.22 7.98 9.9 9.3 3.72 1.14 7.08 1.98 7.08 4.44v.12c0 2.1-1.8 3.42-4.92 3.42-2.88 0-6.06-1.02-9.12-3.06-.42-.24-.96-.42-1.56-.42-1.68 0-2.94 1.32-2.94 2.94 0 1.2.6 2.1 1.38 2.52 3.66 2.52 8.04 3.78 12.06 3.78Zm16.199-3.9c0 2.04 1.62 3.6 3.6 3.6 2.04 0 3.66-1.56 3.66-3.6v-14.58c0-4.92 2.94-7.86 7.14-7.86 4.32 0 6.78 2.82 6.78 7.74v14.7c0 2.04 1.62 3.6 3.66 3.6s3.6-1.56 3.6-3.6v-16.92c0-7.32-4.14-12.12-11.28-12.12-4.92 0-7.86 2.58-9.9 5.52V166.5c0-1.98-1.62-3.6-3.66-3.6s-3.6 1.62-3.6 3.6v37.2Zm49.267 4.02c9.78 0 16.98-7.5 16.98-16.5v-.12c0-9.06-7.14-16.44-16.86-16.44-9.72 0-16.92 7.5-16.92 16.56v.12c0 9 7.14 16.38 16.8 16.38Zm.12-6.36c-5.64 0-9.66-4.62-9.66-10.14v-.12c0-5.52 3.72-10.08 9.54-10.08 5.7 0 9.72 4.62 9.72 10.2v.12c0 5.46-3.72 10.02-9.6 10.02Zm49.393-22.74c0-2.04-1.68-3.66-3.66-3.66-2.04 0-3.66 1.62-3.66 3.66v14.58c0 4.92-2.94 7.8-7.14 7.8-4.32 0-6.78-2.76-6.78-7.68v-14.7c0-2.04-1.62-3.66-3.66-3.66-1.98 0-3.6 1.62-3.6 3.66v16.86c0 7.38 4.14 12.18 11.28 12.18 4.92 0 7.86-2.58 9.9-5.58v1.62c0 2.04 1.68 3.6 3.66 3.6 2.04 0 3.66-1.62 3.66-3.6v-25.08Zm6.487 25.08c0 2.04 1.62 3.6 3.6 3.6 2.04 0 3.66-1.56 3.66-3.6v-37.2c0-1.98-1.62-3.6-3.66-3.6s-3.6 1.62-3.6 3.6v37.2Zm44.888-37.2c0-2.04-1.62-3.6-3.66-3.6-1.98 0-3.6 1.56-3.6 3.6v13.74c-2.28-3-5.58-5.58-10.8-5.58-7.56 0-14.7 5.94-14.7 16.44v.12c0 10.5 7.26 16.44 14.7 16.44 5.16 0 8.46-2.64 10.8-5.94v1.98c0 2.04 1.62 3.6 3.66 3.6 1.98 0 3.6-1.56 3.6-3.6v-37.2Zm-16.32 14.46c4.86 0 9.18 4.02 9.18 10.14v.12c0 6.06-4.32 10.14-9.18 10.14-4.92 0-9.12-4.02-9.12-10.14v-.12c0-6.3 4.14-10.14 9.12-10.14Zm48.043 26.58c1.92 0 3.42-.3 4.98-.84 1.02-.42 1.92-1.5 1.92-2.82 0-1.68-1.44-3-3.06-3-.24 0-.96.18-1.8.18-2.46 0-3.9-1.14-3.9-3.96v-15.54h5.7c1.74 0 3.18-1.38 3.18-3.12 0-1.74-1.44-3.12-3.18-3.12h-5.7v-5.4c0-1.98-1.62-3.6-3.6-3.6-2.04 0-3.66 1.62-3.66 3.6v5.4h-1.2c-1.74 0-3.12 1.38-3.12 3.12 0 1.74 1.38 3.12 3.12 3.12h1.2v16.68c0 6.96 3.78 9.3 9.12 9.3Zm25.229.18c9.78 0 16.98-7.5 16.98-16.5v-.12c0-9.06-7.14-16.44-16.86-16.44-9.72 0-16.92 7.5-16.92 16.56v.12c0 9 7.14 16.38 16.8 16.38Zm.12-6.36c-5.64 0-9.66-4.62-9.66-10.14v-.12c0-5.52 3.72-10.08 9.54-10.08 5.7 0 9.72 4.62 9.72 10.2v.12c0 5.46-3.72 10.02-9.6 10.02Zm36.313 6.36c9.78 0 16.98-7.5 16.98-16.5v-.12c0-9.06-7.14-16.44-16.86-16.44-9.72 0-16.92 7.5-16.92 16.56v.12c0 9 7.14 16.38 16.8 16.38Zm.12-6.36c-5.64 0-9.66-4.62-9.66-10.14v-.12c0-5.52 3.72-10.08 9.54-10.08 5.7 0 9.72 4.62 9.72 10.2v.12c0 5.46-3.72 10.02-9.6 10.02Zm19.362 1.2v.6c0 2.34 1.8 4.14 4.26 4.14 2.4 0 4.2-1.8 4.2-4.14v-.6c0-2.34-1.8-4.14-4.2-4.14-2.46 0-4.26 1.8-4.26 4.14Z" fill="#00E59D"/><g filter="url(#i)"><path d="M308.22 203.64c0 2.04 1.62 3.66 3.66 3.66 2.1 0 3.72-1.62 3.72-3.66V190.5l14.34-19.62c.54-.72 1.02-1.62 1.02-2.64 0-1.98-1.44-3.6-3.6-3.6-1.56 0-2.64.9-3.54 2.22l-11.88 16.92-11.7-16.86c-.9-1.32-1.98-2.22-3.6-2.22-2.1 0-3.72 1.56-3.72 3.54 0 1.02.36 1.86.84 2.58l14.46 19.86v12.96Zm36.431 4.08c9.78 0 16.98-7.5 16.98-16.5v-.12c0-9.06-7.14-16.44-16.86-16.44-9.72 0-16.92 7.5-16.92 16.56v.12c0 9 7.14 16.38 16.8 16.38Zm.12-6.36c-5.64 0-9.66-4.62-9.66-10.14v-.12c0-5.52 3.72-10.08 9.54-10.08 5.7 0 9.72 4.62 9.72 10.2v.12c0 5.46-3.72 10.02-9.6 10.02Zm49.394-22.74c0-2.04-1.68-3.66-3.66-3.66-2.04 0-3.66 1.62-3.66 3.66v14.58c0 4.92-2.94 7.8-7.14 7.8-4.32 0-6.78-2.76-6.78-7.68v-14.7c0-2.04-1.62-3.66-3.66-3.66-1.98 0-3.6 1.62-3.6 3.66v16.86c0 7.38 4.14 12.18 11.28 12.18 4.92 0 7.86-2.58 9.9-5.58v1.62c0 2.04 1.68 3.6 3.66 3.6 2.04 0 3.66-1.62 3.66-3.6v-25.08Zm31.915 28.98c6.6 0 11.76-3.3 11.76-9.96v-.12c0-5.7-5.22-7.8-9.84-9.24-3.72-1.2-7.14-2.16-7.14-4.5v-.12c0-1.8 1.62-3.12 4.44-3.12 2.22 0 4.86.84 7.44 2.16.48.24.84.36 1.44.36 1.68 0 3-1.26 3-2.94 0-1.26-.72-2.22-1.74-2.76-3.06-1.62-6.6-2.58-9.96-2.58-6.3 0-11.28 3.66-11.28 9.66v.12c0 6.06 5.22 7.98 9.9 9.3 3.72 1.14 7.08 1.98 7.08 4.44v.12c0 2.1-1.8 3.42-4.92 3.42-2.88 0-6.06-1.02-9.12-3.06-.42-.24-.96-.42-1.56-.42-1.68 0-2.94 1.32-2.94 2.94 0 1.2.6 2.1 1.38 2.52 3.66 2.52 8.04 3.78 12.06 3.78Zm16.199-3.9c0 2.04 1.62 3.6 3.6 3.6 2.04 0 3.66-1.56 3.66-3.6v-14.58c0-4.92 2.94-7.86 7.14-7.86 4.32 0 6.78 2.82 6.78 7.74v14.7c0 2.04 1.62 3.6 3.66 3.6s3.6-1.56 3.6-3.6v-16.92c0-7.32-4.14-12.12-11.28-12.12-4.92 0-7.86 2.58-9.9 5.52V166.5c0-1.98-1.62-3.6-3.66-3.6s-3.6 1.62-3.6 3.6v37.2Zm49.267 4.02c9.78 0 16.98-7.5 16.98-16.5v-.12c0-9.06-7.14-16.44-16.86-16.44-9.72 0-16.92 7.5-16.92 16.56v.12c0 9 7.14 16.38 16.8 16.38Zm.12-6.36c-5.64 0-9.66-4.62-9.66-10.14v-.12c0-5.52 3.72-10.08 9.54-10.08 5.7 0 9.72 4.62 9.72 10.2v.12c0 5.46-3.72 10.02-9.6 10.02Zm49.393-22.74c0-2.04-1.68-3.66-3.66-3.66-2.04 0-3.66 1.62-3.66 3.66v14.58c0 4.92-2.94 7.8-7.14 7.8-4.32 0-6.78-2.76-6.78-7.68v-14.7c0-2.04-1.62-3.66-3.66-3.66-1.98 0-3.6 1.62-3.6 3.66v16.86c0 7.38 4.14 12.18 11.28 12.18 4.92 0 7.86-2.58 9.9-5.58v1.62c0 2.04 1.68 3.6 3.66 3.6 2.04 0 3.66-1.62 3.66-3.6v-25.08Zm6.487 25.08c0 2.04 1.62 3.6 3.6 3.6 2.04 0 3.66-1.56 3.66-3.6v-37.2c0-1.98-1.62-3.6-3.66-3.6s-3.6 1.62-3.6 3.6v37.2Zm44.888-37.2c0-2.04-1.62-3.6-3.66-3.6-1.98 0-3.6 1.56-3.6 3.6v13.74c-2.28-3-5.58-5.58-10.8-5.58-7.56 0-14.7 5.94-14.7 16.44v.12c0 10.5 7.26 16.44 14.7 16.44 5.16 0 8.46-2.64 10.8-5.94v1.98c0 2.04 1.62 3.6 3.66 3.6 1.98 0 3.6-1.56 3.6-3.6v-37.2Zm-16.32 14.46c4.86 0 9.18 4.02 9.18 10.14v.12c0 6.06-4.32 10.14-9.18 10.14-4.92 0-9.12-4.02-9.12-10.14v-.12c0-6.3 4.14-10.14 9.12-10.14Zm48.043 26.58c1.92 0 3.42-.3 4.98-.84 1.02-.42 1.92-1.5 1.92-2.82 0-1.68-1.44-3-3.06-3-.24 0-.96.18-1.8.18-2.46 0-3.9-1.14-3.9-3.96v-15.54h5.7c1.74 0 3.18-1.38 3.18-3.12 0-1.74-1.44-3.12-3.18-3.12h-5.7v-5.4c0-1.98-1.62-3.6-3.6-3.6-2.04 0-3.66 1.62-3.66 3.6v5.4h-1.2c-1.74 0-3.12 1.38-3.12 3.12 0 1.74 1.38 3.12 3.12 3.12h1.2v16.68c0 6.96 3.78 9.3 9.12 9.3Zm25.229.18c9.78 0 16.98-7.5 16.98-16.5v-.12c0-9.06-7.14-16.44-16.86-16.44-9.72 0-16.92 7.5-16.92 16.56v.12c0 9 7.14 16.38 16.8 16.38Zm.12-6.36c-5.64 0-9.66-4.62-9.66-10.14v-.12c0-5.52 3.72-10.08 9.54-10.08 5.7 0 9.72 4.62 9.72 10.2v.12c0 5.46-3.72 10.02-9.6 10.02Zm36.313 6.36c9.78 0 16.98-7.5 16.98-16.5v-.12c0-9.06-7.14-16.44-16.86-16.44-9.72 0-16.92 7.5-16.92 16.56v.12c0 9 7.14 16.38 16.8 16.38Zm.12-6.36c-5.64 0-9.66-4.62-9.66-10.14v-.12c0-5.52 3.72-10.08 9.54-10.08 5.7 0 9.72 4.62 9.72 10.2v.12c0 5.46-3.72 10.02-9.6 10.02Zm19.362 1.2v.6c0 2.34 1.8 4.14 4.26 4.14 2.4 0 4.2-1.8 4.2-4.14v-.6c0-2.34-1.8-4.14-4.2-4.14-2.46 0-4.26 1.8-4.26 4.14Z" fill="#00E59D"/></g></g><defs><filter id="b" x="41.031" y="137.035" width="130.929" height="214.314" filterUnits="userSpaceOnUse" color-interpolation-filters="sRGB"><feFlood flood-opacity="0" result="BackgroundImageFix"/><feBlend in="SourceGraphic" in2="BackgroundImageFix" result="shape"/><feGaussianBlur stdDeviation="5" result="effect1_foregroundBlur"/></filter><filter id="c" x="117.49" y="152.961" width="63" height="63" filterUnits="userSpaceOnUse" color-interpolation-filters="sRGB"><feFlood flood-opacity="0" result="BackgroundImageFix"/><feColorMatrix in="SourceAlpha" values="0 0 0 0 0 0 0 0 0 0 0 0 0 0 0 0 0 0 127 0" result="hardAlpha"/><feOffset/><feGaussianBlur stdDeviation="10"/><feComposite in2="hardAlpha" operator="out"/><feColorMatrix values="0 0 0 0 0 0 0 0 0 0 0 0 0 0 0 0 0 0 0.5 0"/><feBlend in2="BackgroundImageFix" result="effect1_dropShadow"/><feBlend in="SourceGraphic" in2="effect1_dropShadow" result="shape"/></filter><filter id="d" x="137.49" y="152.961" width="70" height="70" filterUnits="userSpaceOnUse" color-interpolation-filters="sRGB"><feFlood flood-opacity="0" result="BackgroundImageFix"/><feColorMatrix in="SourceAlpha" values="0 0 0 0 0 0 0 0 0 0 0 0 0 0 0 0 0 0 127 0" result="hardAlpha"/><feOffset/><feGaussianBlur stdDeviation="10"/><feComposite in2="hardAlpha" operator="out"/><feColorMatrix values="0 0 0 0 0 0 0 0 0 0 0 0 0 0 0 0 0 0 0.5 0"/><feBlend in2="BackgroundImageFix" result="effect1_dropShadow"/><feBlend in="SourceGraphic" in2="effect1_dropShadow" result="shape"/></filter><filter id="e" x="162.49" y="132.961" width="85" height="85" filterUnits="userSpaceOnUse" color-interpolation-filters="sRGB"><feFlood flood-opacity="0" result="BackgroundImageFix"/><feColorMatrix in="SourceAlpha" values="0 0 0 0 0 0 0 0 0 0 0 0 0 0 0 0 0 0 127 0" result="hardAlpha"/><feOffset/><feGaussianBlur stdDeviation="10"/><feComposite in2="hardAlpha" operator="out"/><feColorMatrix values="0 0 0 0 0 0 0 0 0 0 0 0 0 0 0 0 0 0 0.5 0"/><feBlend in2="BackgroundImageFix" result="effect1_dropShadow"/><feBlend in="SourceGraphic" in2="effect1_dropShadow" result="shape"/></filter><filter id="f" x="157.49" y="62.961" width="160" height="160" filterUnits="userSpaceOnUse" color-interpolation-filters="sRGB"><feFlood flood-opacity="0" result="BackgroundImageFix"/><feColorMatrix in="SourceAlpha" values="0 0 0 0 0 0 0 0 0 0 0 0 0 0 0 0 0 0 127 0" result="hardAlpha"/><feOffset/><feGaussianBlur stdDeviation="25"/><feComposite in2="hardAlpha" operator="out"/><feColorMatrix values="0 0 0 0 0 0 0 0 0 0 0 0 0 0 0 0 0 0 0.5 0"/><feBlend in2="BackgroundImageFix" result="effect1_dropShadow"/><feBlend in="SourceGraphic" in2="effect1_dropShadow" result="shape"/></filter><filter id="g" x="228" y="10" width="549" height="280" filterUnits="userSpaceOnUse" color-interpolation-filters="sRGB"><feFlood flood-opacity="0" result="BackgroundImageFix"/><feColorMatrix in="SourceAlpha" values="0 0 0 0 0 0 0 0 0 0 0 0 0 0 0 0 0 0 127 0" result="hardAlpha"/><feOffset/><feGaussianBlur stdDeviation="15"/><feComposite in2="hardAlpha" operator="out"/><feColorMatrix values="0 0 0 0 0 0 0 0 0 0 0 0 0 0 0 0 0 0 0.5 0"/><feBlend in2="BackgroundImageFix" result="effect1_dropShadow"/><feBlend in="SourceGraphic" in2="effect1_dropShadow" result="shape"/></filter><filter id="h" x="271.54" y="68.9" width="478.393" height="84.82" filterUnits="userSpaceOnUse" color-interpolation-filters="sRGB"><feFlood flood-opacity="0" result="BackgroundImageFix"/><feBlend in="SourceGraphic" in2="BackgroundImageFix" result="shape"/><feGaussianBlur stdDeviation="10" result="effect1_foregroundBlur"/></filter><filter id="i" x="272.92" y="142.9" width="460.841" height="84.82" filterUnits="userSpaceOnUse" color-interpolation-filters="sRGB"><feFlood flood-opacity="0" result="BackgroundImageFix"/><feBlend in="SourceGraphic" in2="BackgroundImageFix" result="shape"/><feGaussianBlur stdDeviation="10" result="effect1_foregroundBlur"/></filter><clipPath id="a"><path fill="#fff" d="M0 0h764v300H0z"/></clipPath></defs></svg>