<svg width="764" height="300" viewBox="0 0 764 300" fill="none" xmlns="http://www.w3.org/2000/svg">
<g clip-path="url(#clip0)">
<path d="M108.584 19.7754H101.714V76.1067H108.584V19.7754Z" fill="white" stroke="black" stroke-width="2.94774" stroke-miterlimit="10"/>
<path d="M105.144 21.155C109.319 21.155 112.704 17.7703 112.704 13.5951C112.704 9.41987 109.319 6.03516 105.144 6.03516C100.969 6.03516 97.584 9.41987 97.584 13.5951C97.584 17.7703 100.969 21.155 105.144 21.155Z" fill="white" stroke="black" stroke-width="2.94774" stroke-miterlimit="10"/>
<path d="M45.3818 -140.969H164.905V59.6166L105.833 51.3762L45.3818 62.3665V-140.969Z" fill="black"/>
<path d="M105.834 23.8945C121.04 23.9118 135.619 29.9603 146.372 40.713C157.125 51.4657 163.173 66.0446 163.191 81.2512H139.15C139.15 72.4153 135.64 63.9413 129.392 57.6933C123.144 51.4454 114.67 47.9353 105.834 47.9353C96.9979 47.9353 88.5238 51.4454 82.2759 57.6933C76.0279 63.9413 72.5179 72.4153 72.5179 81.2512H48.4678C48.4875 66.0437 54.5381 51.4649 65.2923 40.7124C76.0465 29.96 90.6263 23.9118 105.834 23.8945Z" fill="#FF0000" stroke="black" stroke-width="3.68467" stroke-miterlimit="10"/>
<path d="M184.145 -102.498H160.785V55.4962H184.145V-102.498Z" fill="black"/>
<path d="M76.7125 128.318H87.9732V52.7461L16 65.6101L76.7125 128.318Z" fill="white"/>
<path d="M123.695 11.5332H87.9736V55.4945H123.695V11.5332Z" fill="#FF0000" stroke="black" stroke-width="3.43903" stroke-miterlimit="10"/>
<path d="M134.946 121.446H123.694V45.875L198.38 58.739L134.946 121.446Z" fill="white"/>
<path d="M76.7125 128.318H87.9732V52.7461L16 65.6101L76.7125 128.318Z" stroke="black" stroke-width="3.68467" stroke-miterlimit="10"/>
<path d="M134.946 121.446H123.694V45.875L198.38 58.739L134.946 121.446Z" stroke="black" stroke-width="3.68467" stroke-miterlimit="10"/>
<path d="M97.5839 127.253L79.2201 128.269C76.664 128.411 74.1754 129.142 71.9494 130.407C69.7235 131.671 67.8207 133.434 66.3903 135.557C64.9598 137.68 64.0407 140.106 63.7048 142.644C63.3689 145.182 63.6255 147.763 64.4544 150.185L77.3837 188.003C78.7582 192.018 81.3537 195.504 84.807 197.971C88.2602 200.438 92.3984 201.763 96.6424 201.762H123.806C127.267 201.762 130.64 200.678 133.452 198.661C136.265 196.645 138.375 193.798 139.485 190.52L155.966 141.861C156.628 139.906 156.814 137.821 156.511 135.78C156.207 133.739 155.421 131.799 154.218 130.122C153.016 128.445 151.431 127.078 149.595 126.135C147.759 125.192 145.725 124.7 143.661 124.699L126.435 125.631" fill="#CCFFCC"/>
<path d="M60.101 148.637C64.7152 135.587 62.6365 121.707 60.9213 108.367C59.9009 101.579 59.3775 94.7246 59.3552 87.8596C59.5182 80.9454 60.4308 74.0692 62.0772 67.3518C65.2839 53.8446 70.7744 41.0272 76.4979 28.4242C79.4424 22.29 82.0045 15.9796 84.1697 9.52901C86.1988 2.83981 87.2782 -4.10122 87.3764 -11.0907C87.4696 -15.1177 87.3764 -19.154 87.1434 -23.209C87.0394 -26.9773 86.5522 -30.7254 85.6892 -34.3951C84.1324 -40.4356 80.497 -46.1591 74.5031 -48.5175C73.6641 -48.8531 73.2913 -47.4921 74.1302 -47.1659C79.7792 -44.9286 83.0511 -39.261 84.4307 -33.612C85.1784 -30.1728 85.6028 -26.6713 85.6985 -23.153C85.8663 -19.7226 85.9781 -16.2922 85.9502 -12.8991C86.0016 -5.86363 85.0602 1.14392 83.1537 7.91635C81.0937 14.4188 78.5832 20.7699 75.6403 26.9234C70.1032 39.1256 64.7152 51.4769 61.3408 64.4807C59.6406 70.8657 58.5575 77.3991 58.1061 83.9911C57.7871 90.6185 58.0711 97.2611 58.9544 103.837C60.6883 118.5 63.839 133.862 58.7493 148.227C58.4417 149.076 59.8027 149.448 60.101 148.6V148.637Z" fill="white"/>
<path d="M154.494 158.584C157.346 145.459 157.822 131.551 154.14 118.501C152.201 112.002 149.335 105.817 145.629 100.137C141.835 94.1339 137.78 88.2519 133.613 82.5004C129.656 76.8969 125.228 71.6421 120.376 66.7932C115.37 61.89 110.122 57.3223 105.769 51.7666C97.7649 41.4239 92.6704 29.1301 91.0126 16.1575C89.0457 0.702038 91.1525 -15.322 86.0628 -30.3021C85.7738 -31.1597 84.4222 -30.7961 84.7112 -29.9292C89.2975 -16.45 87.9831 -2.04788 89.167 11.9254C90.117 24.6311 94.2143 36.9006 101.089 47.6277C104.686 53.01 108.904 57.9503 113.655 62.3467C118.853 67.0882 123.704 72.1973 128.169 77.6344C132.532 83.1249 136.447 88.951 140.371 94.7491C144.296 100.547 148.239 106.532 150.84 113.132C156.433 127.422 156.367 143.371 153.142 158.212C152.946 159.097 154.307 159.47 154.494 158.584Z" fill="white"/>
<path d="M85.0373 127.944L82.3247 86.4711C82.17 84.8443 82.3736 83.2034 82.9211 81.6638C83.4687 80.1242 84.3469 78.7233 85.494 77.5595C90.1773 73.214 96.2539 70.6763 102.637 70.4004C106.65 70.3988 110.56 71.6679 113.807 74.0257C117.054 76.3836 119.471 79.7091 120.712 83.5254L133.762 125.24" fill="#CCFFCC"/>
<path d="M97.5839 127.253L79.2201 128.269C76.664 128.411 74.1754 129.142 71.9494 130.407C69.7235 131.671 67.8207 133.434 66.3903 135.557C64.9598 137.68 64.0407 140.106 63.7048 142.644C63.3689 145.182 63.6255 147.763 64.4544 150.185L77.3837 188.003C78.7582 192.018 81.3537 195.504 84.807 197.971C88.2602 200.438 92.3984 201.763 96.6424 201.762H123.806C127.267 201.762 130.64 200.678 133.452 198.661C136.265 196.645 138.375 193.798 139.485 190.52L155.966 141.861C156.628 139.906 156.814 137.821 156.511 135.78C156.207 133.739 155.421 131.799 154.218 130.122C153.016 128.445 151.431 127.078 149.595 126.135C147.759 125.192 145.725 124.7 143.661 124.699L126.435 125.631" stroke="black" stroke-width="3.68467" stroke-miterlimit="10"/>
<path d="M85.0373 127.944L82.3247 86.4711C82.17 84.8443 82.3736 83.2034 82.9211 81.6638C83.4687 80.1242 84.3469 78.7233 85.494 77.5595C90.1773 73.214 96.2539 70.6763 102.637 70.4004C106.65 70.3988 110.56 71.6679 113.807 74.0257C117.054 76.3836 119.471 79.7091 120.712 83.5254L133.762 125.24" stroke="black" stroke-width="3.68467" stroke-miterlimit="10"/>
<path d="M88.076 142.737L83.7041 144.154C78.4839 145.85 77.9712 152.17 78.5305 157.428C78.7872 159.761 79.599 161.998 80.8982 163.953L88.5514 175.605C91.4504 180.089 97.1274 182.494 103.009 181.729C107.941 181.077 111.529 177.022 111.045 172.631L108.994 154.221C108.062 145.151 97.8079 139.567 88.076 142.737Z" fill="black"/>
<path d="M104.478 123.821L104.472 123.827C103.156 125.19 103.194 127.362 104.556 128.678L111.483 135.367C112.846 136.683 115.018 136.645 116.334 135.282L116.34 135.276C117.656 133.913 117.619 131.741 116.256 130.425L109.329 123.736C107.966 122.42 105.794 122.458 104.478 123.821Z" fill="black"/>
<path d="M112.797 122.74L110.468 132.084C110.009 133.922 111.128 135.784 112.966 136.242L112.975 136.244C114.814 136.703 116.675 135.584 117.134 133.746L119.463 124.402C119.922 122.564 118.803 120.702 116.965 120.244L116.956 120.242C115.117 119.783 113.255 120.902 112.797 122.74Z" fill="black"/>
<path d="M134.405 141.141L127.721 140.34C126.371 140.18 125.003 140.294 123.697 140.674C122.392 141.055 121.177 141.694 120.124 142.555C119.072 143.415 118.203 144.479 117.57 145.682C116.938 146.886 116.554 148.204 116.442 149.559L114.326 175.567C114.219 176.861 114.612 178.148 115.426 179.161C116.239 180.174 117.41 180.836 118.698 181.011L123.079 181.607C126.168 182.027 129.31 181.437 132.037 179.925C134.763 178.413 136.928 176.06 138.208 173.218L144.547 159.076C145.37 157.247 145.751 155.249 145.659 153.245C145.567 151.241 145.005 149.287 144.017 147.541C143.03 145.795 141.645 144.305 139.975 143.194C138.305 142.082 136.397 141.379 134.405 141.141Z" fill="black"/>
<path d="M87.376 155.993C87.376 154.398 88.0094 152.869 89.137 151.741C90.2646 150.614 91.7939 149.98 93.3885 149.98C94.9831 149.98 96.5124 150.614 97.64 151.741C98.7676 152.869 99.401 154.398 99.401 155.993" stroke="white" stroke-width="4.01803" stroke-miterlimit="10"/>
<path d="M106.476 98.1407L108.863 97.889C109.135 97.8594 109.409 97.8845 109.671 97.9627C109.933 98.0409 110.177 98.1706 110.388 98.3443C110.599 98.518 110.773 98.7321 110.9 98.9741C111.027 99.2161 111.105 99.481 111.128 99.7533L111.631 104.535L106.169 105.104L105.554 99.2966C105.537 99.1598 105.547 99.0211 105.585 98.8885C105.622 98.756 105.686 98.6322 105.772 98.5245C105.858 98.4169 105.965 98.3275 106.086 98.2616C106.207 98.1956 106.339 98.1545 106.476 98.1407Z" fill="black"/>
<path d="M102.366 98.8409L99.9888 99.2231C99.7212 99.2651 99.4645 99.3594 99.2334 99.5007C99.0023 99.642 98.8014 99.8275 98.6421 100.047C98.4828 100.266 98.3682 100.514 98.305 100.777C98.2417 101.041 98.2311 101.314 98.2736 101.581L99.0286 106.326L104.454 105.469L103.522 99.6985C103.478 99.4335 103.333 99.1958 103.117 99.0358C102.902 98.8757 102.632 98.8058 102.366 98.8409Z" fill="black"/>
<path d="M93.1469 101.62L91.18 101.927C90.7316 101.998 90.3297 102.244 90.0623 102.611C89.795 102.978 89.684 103.436 89.7538 103.885L90.3783 107.828L94.8901 107.119L94.0791 102.328C94.0424 102.114 93.9257 101.922 93.7527 101.79C93.5796 101.659 93.3631 101.598 93.1469 101.62Z" fill="black"/>
<path d="M100.641 81.3901C102.536 81.3901 104.072 79.8543 104.072 77.9597C104.072 76.0651 102.536 74.5293 100.641 74.5293C98.7468 74.5293 97.2109 76.0651 97.2109 77.9597C97.2109 79.8543 98.7468 81.3901 100.641 81.3901Z" fill="black"/>
<path d="M121.392 147.63L121.914 147.117L122.399 146.567L122.939 146.082L123.182 145.896L123.61 145.598H124.002L124.272 145.682L124.701 145.989L125.307 146.474L125.978 147.201L126.398 147.686L127.041 148.45L127.647 149.056L128.01 149.298L128.309 149.42L128.616 149.354L129.101 149.056L129.371 148.776L129.856 148.357L131.133 146.903L131.646 146.446L131.925 146.166L132.41 145.803H132.867L133.38 146.073L134.014 146.716L134.778 147.537L135.225 148.049L135.952 148.655L136.409 149.168L136.568 149.448L136.866 149.932V150.389L136.502 150.874L136.018 151.414L135.561 151.936L134.256 153.055L133.836 153.54L133.65 153.726L133.352 154.267V154.724L133.687 155.115L135.691 157.119L136.148 157.632L136.419 157.912L136.754 158.49L136.838 158.937L136.512 159.394L136.269 159.701L135.719 160.186L135.207 160.578L134.685 161.034L133.986 161.855L133.417 162.312L132.895 162.638H132.438L131.991 162.302L131.226 161.547L130.294 160.484L129.231 159.552L128.812 159.245L128.542 159.096L128.178 159.151L127.777 159.431L127.321 159.823L126.901 160.307L125.717 161.612L124.962 162.367L124.505 162.703L124.142 162.824H123.862L123.536 162.554L123.294 162.367L122.865 161.883L122.194 161.034L121.709 160.55L120.954 159.916L120.255 159.217L119.984 158.816L119.891 158.49L119.984 158.154L120.283 157.725L121.317 156.7L121.83 156.243L122.594 155.6L122.986 155.152L123.228 154.91L123.471 154.481L123.564 154.146L123.471 153.875L123.2 153.484L122.473 152.747L120.805 151.265L120.348 150.753L120.133 150.473L119.798 150.025V149.503L120.068 148.926L120.59 148.413L121.392 147.63ZM133.678 160.223L133.473 159.823V160.102L133.566 160.251L133.678 160.223ZM135.048 158.611V158.676H135.197V158.611L135.104 158.527L135.048 158.611ZM134.256 158.918V159.04H134.377L134.442 158.974V158.909H134.358L134.256 158.918ZM133.799 159.245V159.291H133.92V159.226H133.799V159.245ZM134.041 158.881V158.704L133.92 158.583L133.137 158.881L133.892 159.04L134.041 158.881ZM134.442 158.191L134.377 158.368H134.47L134.591 158.247V158.061L134.442 158.191ZM133.109 159.701V159.58L132.988 159.524L132.867 159.646L133.016 159.739L133.109 159.701ZM133.016 159.189L133.165 159.338H133.314V159.068H133.1L133.016 159.189ZM133.771 157.828L133.473 157.763L133.622 157.977L133.864 158.154V158.313L134.079 158.462L133.93 158.126H133.864L133.771 157.828ZM134.135 157.884L134.228 157.977L134.405 157.912V157.763H134.312L134.135 157.884ZM133.38 158.518V158.313H133.137V158.033L132.951 158.275L133.38 158.518ZM132.736 158.918V158.76L132.186 158.639V158.704L132.615 158.946L132.736 158.918ZM132.531 157.986L132.345 158.285L132.531 158.592H132.587H132.746L132.839 158.443L132.531 157.986ZM133.836 157.464L133.557 157.259L133.622 157.436L133.715 157.529L133.836 157.464ZM132.047 158.769V158.443L131.897 158.107H131.739L131.618 158.415L131.804 158.713L132.047 158.769ZM133.23 157.52H133.286V157.427L133.203 157.334L133.081 157.399L133.23 157.52ZM133.352 156.672L133.501 156.765L133.258 157.185L133.743 157.063L133.557 156.7L133.352 156.672ZM131.646 158.918L131.366 158.359L131.31 158.061L131.581 157.791L132.429 157.66L132.485 157.483L132.364 157.241L131.972 157.334V157.483L131.823 157.576L131.553 157.296H131.217L131.152 157.418L131.217 157.539L131.338 157.474L131.431 157.567L131.124 158.117V158.266L130.975 158.536L131.646 158.918ZM132.578 157.735H132.699V157.576L132.615 157.492L132.578 157.735ZM132.699 157.063H132.55L132.485 157.007H131.972V157.129L132.82 157.194L132.914 156.98L132.858 156.914H132.727L132.699 157.063ZM132.699 156.485L132.764 156.607V156.765L132.914 156.849H133.1L133.426 156.458L133.37 156.402H132.82L132.699 156.485ZM132.373 156.821V156.607L132.522 156.523V156.402H132.401L132.158 156.644V156.886L132.373 156.821ZM129.12 151.396L129.064 151.759L128.849 151.908L128.998 152.058L129.213 151.964L129.334 152.03V152.3H129.241L129.185 152.542L129.306 152.608L129.455 152.514L129.52 152.57L129.651 152.692L129.558 152.775V152.869L129.222 153.204L129.073 153.111L129.008 153.176V153.297H129.101L129.045 153.363V153.568H129.194L129.343 153.419L129.437 153.512V153.698L129.287 153.782V153.969L129.437 154.118L129.315 154.304L129.409 154.146L129.101 153.847L129.045 153.903V154.062L129.166 154.183V154.481L128.989 154.724H128.803L128.626 154.845H128.467V154.602H128.523V154.537H128.374L128.281 154.388L128.579 153.717H128.495V153.633H128.346V153.698H128.57L128.271 153.941H128.15L127.815 153.726V153.391H127.6V153.484H127.479L127.414 153.419L127.143 153.512V153.661L128.234 154.267L128.299 154.64L128.057 155.124L128.113 155.302H128.327L128.514 155.18L128.784 155.824L129.082 155.637L129.362 155.908H129.418V156.001L129.203 156.094L129.082 156.336V156.402L129.148 156.458L128.905 156.523L129.054 156.616L129.203 156.523L129.39 156.765L129.698 157.129V157.585L129.856 157.735L129.735 157.921L129.912 157.977L130.061 157.884H130.126L130.248 158.005L130.303 158.247L130.425 158.07L130.341 157.669L130.881 157.492L130.788 157.399L130.182 157.343L130.061 157.222L131.273 157.278L131.338 157.101L131.674 156.821L131.525 156.252H131.124L130.947 156.131L131.487 155.945V155.796L131.674 155.488L132.186 155.218H132.336L132.578 155.46V155.619H132.429L132.336 155.712V155.833L132.755 155.768V156.075H132.969L133.053 155.982H133.175L133.24 155.861L132.308 154.826L132.214 154.919L131.972 154.985L132.028 154.798L131.851 154.192L131.664 154.313L131.786 154.742L131.73 154.863V155.134L131.394 155.525H131.124L131.003 155.702L130.937 155.646L130.639 155.889L130.546 156.159L130.611 156.346H130.76L130.546 156.802L130.275 156.896L130.154 156.653L130.248 156.504H130.369L130.425 156.439L129.492 156.318L129.427 156.196L129.548 156.141L129.642 155.982L129.763 155.861V155.74L129.828 155.684H130.313L130.583 155.469L130.434 155.32L130.369 155.078L130.22 154.985H130.07L129.949 155.106V155.171H129.791L129.67 155.292L129.735 155.6L129.576 155.693V155.777L129.399 155.413V155.087L129.614 154.873H130.22L130.341 154.686L130.154 154.444H130.005L130.248 154.379L130.518 154.658L130.704 154.593L130.825 154.416L131.003 154.351L131.068 154.472L130.853 154.929L131.403 154.873V154.957H131.366V154.873L131.245 154.808L131.152 154.593V154.444L131.087 154.323H130.993V153.801L130.471 154.379L130.024 154.286L130.08 154.23V154.164H130.294L130.592 153.857L130.471 153.558V153.465L130.648 153.344L130.714 153.158L130.471 153.102L130.257 153.316H130.192L130.07 153.13V152.915L130.313 152.794L130.154 152.701L129.949 152.794L129.856 152.58L130.005 152.375H130.098L130.285 152.43L130.462 152.375L130.611 152.524L130.77 152.43L130.704 152.309L130.555 152.216L130.676 151.675H130.891L130.975 151.461L130.527 151.675V151.946H130.443V152.095L130.564 152.151L130.443 152.272L130.257 152.216L130.108 152.309L130.294 152.067V151.666L130.21 151.582L130.117 151.666V151.881L130.052 151.946L129.903 151.853L129.809 151.946V152.095H129.726H129.632V151.825H129.716L129.875 151.554L130.266 151.405L130.387 151.219L130.052 151.312L129.837 151.042L129.474 151.097L129.418 151.219H129.259V151.088H129.138L129.12 151.396ZM131.031 157.791V157.697L130.937 157.613H130.872L130.937 157.791H131.031ZM131.963 156.364V156.28H131.87L131.748 156.402V156.495H131.842L131.963 156.43V156.364ZM130.173 156.15L130.052 156.094L129.931 156.15V156.243L130.08 156.336L130.238 156.243L130.173 156.15ZM126.705 159.096L126.798 158.946V158.797L126.463 159.002L126.519 159.124L126.705 159.096ZM126.314 159.31V159.217L126.221 159.124H126.165L126.099 159.189L126.221 159.31H126.314ZM125.102 155.003L125.037 155.059H124.822L124.738 155.143H125.307L125.549 155.684L125.671 154.957L125.792 154.836L125.913 155.507L125.736 155.87V156.075L126.165 156.504L126.743 156.355V155.926L126.864 155.749L127.041 156.29L127.498 156.504L127.833 157.017L127.74 157.11V157.203L127.647 157.352H127.321V157.203L127.199 157.082H127.05L127.106 157.511H126.771V157.725L126.854 157.818V157.94L127.013 158.033L127.097 157.874L127.218 157.818L127.619 157.604L127.768 157.213L128.076 157.026L127.982 156.933L127.917 156.691L128.066 156.784L128.672 156.597L128.551 156.42L127.703 156.476L127.395 156.234L127.339 155.87L127.125 155.721L127.181 155.656L126.938 155.358L126.668 155.264L126.491 155.33V155.479L126.006 155.236L125.941 154.994L126.183 154.817L126.314 154.938V155.059L126.435 155.115L126.556 154.267L126.314 154.025L126.249 154.08H126.183L125.792 154.416L125.549 154.36L125.158 154.509L125.065 154.416H125.009L124.943 154.602L125.037 154.752L125.102 155.003ZM132.168 152.664L131.776 152.393H131.711L131.348 151.908H131.254H131.161L131.497 152.785L131.441 152.971L131.646 153.12L131.86 152.906L131.739 152.85L131.618 152.915L131.86 152.794L131.925 152.738V152.794H132.075L132.168 152.887V152.98H132.252H132.345L132.466 152.552H132.317L132.168 152.664ZM125.223 159.916V159.86L125.158 159.795H125.065V159.86L125.223 159.916ZM126.677 158.462V157.856L126.584 157.763L126.193 157.977V158.126L126.621 158.49L126.677 158.462ZM125.978 158.797L126.37 158.639L126.435 158.396L126.276 158.555L126.099 158.368L125.857 158.313L125.978 158.797ZM128.225 156.364L128.374 156.458L128.681 156.28V156.187L128.56 156.122L128.29 156.28L128.225 156.364ZM124.673 160.158V160.065H124.515L124.366 160.214L124.244 160.149H124.095L124.431 160.354L124.673 160.158ZM131.198 153.428H130.993L131.077 153.577L131.198 153.642V153.428ZM125.065 159.291L125.158 159.44H125.335V159.385L125.186 159.17L125.065 159.291ZM133.072 151.34L132.867 151.62H133.016H133.081L133.23 151.526V151.377L133.072 151.34ZM124.682 159.506L124.617 159.562L124.776 159.72H124.953L124.897 159.534L124.682 159.44V159.506ZM125.531 159.142L125.624 159.049V158.928L125.382 159.17L125.531 159.142ZM132.298 152.067V152.347L132.662 152.039L132.606 151.918H132.485L132.298 152.067ZM134.871 149.55V149.709H134.927L134.992 149.578L134.899 149.494L134.871 149.55ZM125.624 158.872L125.829 158.601L125.531 158.788L125.624 158.872ZM131.366 152.766L131.003 152.943L130.881 153.186L131.059 153.307L131.301 153.13L131.366 152.766ZM126.202 157.315L126.267 157.436H126.416L126.482 157.502H126.537V157.651H126.687V157.492L126.23 157.222L126.202 157.315ZM127.908 156.103H128.057L128.15 156.019L128.271 156.075L128.393 156.019L128.514 155.712L128.393 155.656L128.271 155.777L127.815 155.497V156.075H127.721V156.196H127.815L127.908 156.103ZM133.939 150.063V150.212L134.181 150.156L134.237 150.035V149.942H134.116L133.939 150.063ZM129.753 154.491L129.632 154.248L129.753 154.192H130.033L129.753 154.491ZM124.962 159.105V159.04L125.27 158.918L125.326 158.555L124.627 159.198L124.962 159.105ZM133.184 150.939L132.969 150.734H132.848L132.606 150.492L131.459 151.424L131.394 151.722L132.149 150.902H132.336L132.485 151.06L132.392 151.209L132.634 151.396L133.184 150.939ZM132 152.067V151.974H131.851V152.067L131.972 152.188L132 152.067ZM125.754 158.191H125.689L125.568 158.313V158.359H125.661L125.782 158.238L125.754 158.191ZM125.876 157.893L126.053 158.014L126.146 157.921V157.8H126.053L125.997 157.679L126.118 157.315L126.025 157.035H125.96L125.876 157.893ZM126.603 156.961V157.045H126.696L126.817 156.98V156.924L126.696 156.802H126.631L126.603 156.961ZM134.489 149.252H134.34L134.125 149.457H134.163L134.219 149.392H134.433L134.489 149.252ZM129.269 154.528L129.39 154.351L129.269 154.528ZM124.17 159.571V159.478L124.104 159.412H123.983V159.534L124.049 159.599L124.17 159.571ZM123.806 159.869H123.536L123.387 159.962V160.018L123.443 160.084L123.806 159.869ZM132.065 151.48L131.944 151.414V151.48L132.028 151.629L132.093 151.573L132.065 151.48ZM123.238 160.363V160.214H123.116V160.363H123.238ZM134.34 149.261V149.205V149.261ZM134.489 148.804V148.898L134.554 148.963L134.703 148.87L134.61 148.776H134.489V148.804ZM124.17 159.179H124.356L124.477 159.058L124.17 158.21L124.021 159.03L124.17 159.179ZM133.007 150.231V150.324H133.128V150.268L133.007 150.231ZM128.877 154.174L129.12 154.052L128.933 153.754L128.812 153.875L128.756 154.658L128.998 154.481L128.877 154.174ZM125.475 157.818L125.633 157.725L125.475 157.632L125.326 157.725L125.475 157.818ZM124.72 158.21H125.027L124.813 158.061L124.505 158.49H124.72V158.21ZM124.813 156.346H124.934L125.232 156.588V156.924L125.41 157.166L125.354 157.529L125.745 157.436V157.045H125.559L125.465 156.886L125.745 156.616V156.28L125.596 156.187L125.503 156.28L125.568 156.402L125.475 156.495H125.354L124.897 156.159L124.748 156.252L124.44 156.066L124.142 156.681L124.813 156.346ZM133.156 149.699L132.914 149.764L132.848 149.886L133.035 150.007H133.128L133.212 149.858L133.156 149.699ZM123.834 159.077V158.956H123.769V159.012L123.834 159.077ZM127.293 154.155L127.05 154.034L126.892 153.829L126.649 153.764L126.5 153.857L126.444 153.614H126.379V153.698L126.472 153.847L126.752 153.931L126.808 154.052H126.929L127.227 154.174L127.348 154.36V154.724L127.591 154.966L127.684 154.817L127.74 154.873H127.805V154.724H127.926L127.992 154.36L127.777 154.267L127.628 154.36V154.453L127.535 154.547L127.293 154.052L127.535 154.118L127.386 153.847L127.265 153.903L127.293 154.155ZM133.324 149.214V149.27H133.417L133.51 149.177V149.112L133.324 149.214ZM124.44 157.865L124.589 157.949L125.074 157.585L124.776 157.408L124.468 157.585V157.651L124.44 157.865ZM131.236 150.939L131.413 151.181L131.842 150.818L131.72 150.762L131.45 150.976L131.236 150.939ZM130.658 150.939L130.714 151.303H131.114L130.714 150.846L130.658 150.939ZM128.793 153.307V153.512H128.859L128.952 153.363L128.793 153.307ZM123.909 158.359V158.266V158.173H123.816L123.629 158.294V158.443H123.778L123.909 158.359ZM129.334 152.766L129.092 152.701L128.915 152.337H128.821L128.756 152.403L128.672 152.244H128.579L128.458 151.881L128.066 151.787L128.849 152.719L128.635 152.813L128.15 152.99L128.243 152.719L127.815 153.027V153.083L127.6 153.176L128.532 153.391L128.719 153.568V153.297L128.775 153.241V153.083L129.334 152.766ZM132.401 149.764L132.28 149.699L132.009 149.858V150.1L132.186 149.858H132.308L132.401 149.764ZM126.966 155.069L126.91 154.947L126.845 154.891L126.696 155.041L126.761 155.162H126.91L126.966 155.069ZM124.03 157.707L124.179 157.8H124.235L124.3 157.744V157.287H124.235L124.03 157.707ZM133.678 148.105V148.198H133.836V148.105H133.678ZM124.31 156.868L124.244 157.054L124.487 157.11L124.943 156.961L124.888 156.784L124.58 156.663L124.31 156.868ZM128.346 153.447H128.187L128.104 153.54L128.187 153.624L128.346 153.54V153.447ZM131.142 150.473V150.529H131.301L131.385 150.436L131.264 150.37L131.142 150.473ZM123.433 158.173L123.499 158.052L123.377 157.93L123.312 157.996V158.21L123.433 158.173ZM126.109 155.441V155.507V155.441ZM125.288 156.019H125.372L125.531 155.861H125.316L125.288 156.019ZM131.45 149.923L131.599 149.83L131.478 149.709L131.236 149.653L130.993 149.83L131.413 149.774L131.45 149.923ZM132.475 148.282V148.469L132.569 148.618L132.746 148.683L132.839 148.525L132.746 148.441H132.625L132.475 148.282ZM130.108 150.836L130.229 150.958H130.35L130.443 150.864L130.108 150.836ZM130.751 150.436L130.9 150.352L130.956 150.231H130.9L130.807 150.324L130.751 150.436ZM127.656 152.076L127.442 152.347L127.926 152.71V152.468H127.656V152.076ZM132.746 147.285V147.378L132.811 147.499V147.583L132.876 147.527V147.285H132.746ZM126.929 153.167H127.013L127.134 153.102V153.008L127.069 152.831L126.463 152.766V152.831L126.929 153.167ZM126.929 151.955L126.715 152.347L126.957 152.775H127.199L127.321 152.589L126.985 152.263L126.929 151.955ZM128.234 151.135L128.29 151.321L128.439 151.47L128.598 151.377L128.234 151.135ZM128.048 150.352L128.169 150.529L127.926 150.771L127.861 151.014L128.476 150.892V150.771L128.355 150.65L128.29 150.408L128.048 150.352ZM127.684 151.284L127.805 151.405L127.954 151.312L127.805 151.163H127.637L127.684 151.284ZM126.258 152.887L126.165 152.067H125.95L125.773 152.43L126.015 152.794L126.258 152.887ZM125.326 151.097L125.27 151.284L125.326 151.405H125.475L125.596 151.461L125.204 152.16L125.27 152.337L125.027 152.701L125.754 153.13L125.689 152.822L125.54 152.673L125.391 152.095L126.454 151.526L126.845 151.61L126.752 151.097L126.267 151.153V151.368L126.025 151.489L125.754 151.097H125.326ZM126.994 151.498V151.647H127.115L127.181 151.461L127.087 151.312L126.994 151.498ZM126.295 150.799V150.902L126.537 150.958L126.78 150.836L127.358 150.986L127.451 150.902L127.386 150.659H127.265L127.022 150.836L126.901 150.715L126.295 150.799ZM127.227 150.072L127.293 150.436L127.47 150.557H127.656L127.712 150.37L127.889 150.193H128.048L128.104 150.072L128.01 149.979H127.283L127.227 150.072ZM126.565 150.249V150.557H126.621L126.78 150.464V150.314L126.836 150.249V150.193L127.022 150.128V149.97H126.873L126.78 150.128H126.715L126.565 150.249ZM124.897 151.377V151.582L125.018 151.647V151.554V151.461L124.897 151.377ZM126.258 150.007V149.914L126.202 149.792H126.109L125.96 149.942V150.035L126.081 150.1L126.258 150.007ZM125.96 148.73L125.894 148.851L126.015 149.037L125.68 149.55H126.351L126.416 149.671H126.537L126.593 149.55L126.444 149.457V149.308L126.314 149.187L126.444 149.009L126.351 148.851L125.96 148.73ZM125.027 151.07V150.976L124.906 150.92H124.757L124.664 151.014L124.878 151.163L125.027 151.07ZM125.214 148.944V149.037V149.131L125.335 149.187L125.512 149.065V148.972L125.391 148.916L125.214 148.944ZM123.909 149.159L124.086 149.401L124.328 149.336L125.093 148.646V148.459L124.999 148.366L124.272 149.159L124.086 149.093L123.909 149.159ZM123.331 149.671V149.83L123.508 150.007H123.666V149.858L123.573 149.699L123.452 149.643L123.331 149.671ZM123.694 148.031L123.881 148.404V148.767L124.151 148.366L123.816 147.975L123.694 148.031ZM124.515 147.583V147.639L124.571 147.704L124.729 147.611V147.518H124.636L124.515 147.583ZM122.995 148.674H122.902V148.739H122.986L123.116 148.683L122.995 148.674ZM124.207 146.856L124.272 147.033L124.487 147.126L124.3 146.819H124.244L124.207 146.856ZM122.026 149.28L122.091 149.159L122.026 148.972H121.933V149.056V149.177L121.998 149.242L122.026 149.28ZM123.452 147.304L123.359 147.462V147.546H123.415L123.508 147.397V147.304H123.452Z" fill="#FF0000"/>
<path d="M24.0732 -97.3535H47.4335V60.6501L24.0732 64.3881V-97.3535Z" fill="black"/>
<path d="M85.6894 137.779L80.1896 139.569C73.6644 141.694 72.9746 149.655 73.6644 156.283C73.9869 159.234 75.0096 162.066 76.6473 164.542L86.286 179.214C89.9309 184.863 97.0899 187.893 104.482 186.914" stroke="#39B54A" stroke-width="3.68467" stroke-miterlimit="10" stroke-dasharray="1.47 1.47"/>
<path d="M147.045 144.798C146.933 144.593 146.821 144.397 146.7 144.211" stroke="#FF0000" stroke-width="3.68467" stroke-miterlimit="10"/>
<path d="M145.899 143.045C144.655 141.401 143.092 140.025 141.302 139.002C139.512 137.978 137.534 137.327 135.486 137.089L128.821 136.287" stroke="#FF0000" stroke-width="3.68467" stroke-miterlimit="10" stroke-dasharray="1.51 1.51"/>
<path d="M128.113 136.203L127.433 136.129" stroke="#FF0000" stroke-width="3.68467" stroke-miterlimit="10"/>
<path d="M45.3818 -140.969H164.905L138.804 8.78511L45.3818 62.3665V-140.969Z" fill="black"/>
<path d="M85.2227 107.707L119.573 104.752L120.944 104.957L122.314 110.457" stroke="black" stroke-width="3.68467" stroke-miterlimit="10"/>
<path d="M61.2293 110.819C60.4742 104.956 59.6911 99.0924 59.4301 93.1824C59.19 87.501 59.5021 81.8098 60.3623 76.1888C62.0402 65.1425 65.5545 54.4598 69.6841 44.122C73.8136 33.7842 79.1643 23.754 82.893 13.2111C84.7942 8.04466 86.0984 2.67776 86.7802 -2.78502C87.3892 -8.59644 87.5419 -14.4467 87.2369 -20.2819C86.8454 -30.6384 85.7361 -44.0897 74.5127 -48.5175C73.6738 -48.8531 73.3009 -47.4921 74.1398 -47.1659C84.3938 -43.1109 85.4192 -30.3867 85.8014 -20.9531C86.1123 -15.2671 86.0126 -9.56599 85.5031 -3.8943C84.8796 1.68071 83.5999 7.16258 81.6905 12.4374C78.0363 22.6913 72.928 32.4325 68.8078 42.528C64.6876 52.6235 61.2479 62.8214 59.3742 73.5321C58.3204 79.4314 57.8459 85.4196 57.9573 91.4112C58.2386 97.918 58.8609 104.406 59.8217 110.847C59.9335 111.779 61.3411 111.779 61.2199 110.847L61.2293 110.819Z" fill="white"/>
<path d="M150.839 109.589C148.385 104.544 145.533 99.7035 142.31 95.1124C139.299 90.6473 136.288 86.1822 133.109 81.8383C129.966 77.4359 126.54 73.2416 122.855 69.2819C119.024 65.2642 114.782 61.6753 110.923 57.6856C103.921 50.4267 98.5024 41.7927 95.011 32.3305C91.4314 22.6452 90.462 12.5963 90.1171 2.35173C89.7255 -9.18859 89.8747 -21.1111 86.1087 -32.1387C85.8197 -32.9963 84.4681 -32.6235 84.7571 -31.7659C88.1688 -21.7263 88.3087 -10.969 88.6163 -0.482082C88.9239 9.64133 89.4459 19.7275 92.5314 29.4594C95.5016 38.8419 100.298 47.5445 106.645 55.0662C110.159 59.2423 114.232 62.8685 118.166 66.6252C122.212 70.4999 125.955 74.679 129.362 79.1256C133.09 83.945 136.474 88.9787 139.886 94.0404C143.569 99.1896 146.826 104.63 149.627 110.307C150.009 111.127 151.221 110.409 150.839 109.598V109.589Z" fill="white"/>
<path d="M159.843 340.415H55.0018C54.2202 340.435 53.4624 340.145 52.8932 339.609C52.3241 339.073 51.9897 338.334 51.9629 337.553L58.9728 148.965C58.9996 148.182 59.3353 147.441 59.9065 146.905C60.4776 146.368 61.2379 146.08 62.021 146.103C62.021 146.103 71.8648 198.64 106.924 198.892C137.22 199.097 154.083 146.103 154.083 146.103C154.866 146.08 155.626 146.368 156.197 146.905C156.768 147.441 157.104 148.182 157.131 148.965L162.892 337.553C162.862 338.335 162.526 339.074 161.955 339.61C161.385 340.146 160.626 340.435 159.843 340.415Z" fill="#96BD96" stroke="black" stroke-width="3.56795" stroke-miterlimit="10"/>
<g filter="url(#filter0_f)">
<path d="M158.912 341.348H54.0701C53.2886 341.368 52.5307 341.079 51.9616 340.543C51.3924 340.007 51.058 339.268 51.0312 338.486L58.0412 149.898C58.068 149.115 58.4036 148.375 58.9748 147.838C59.546 147.302 60.3063 147.014 61.0894 147.036C61.0894 147.036 70.9332 199.574 105.992 199.825C136.288 200.031 153.151 147.036 153.151 147.036C153.934 147.014 154.694 147.302 155.266 147.838C155.837 148.375 156.172 149.115 156.199 149.898L161.96 338.486C161.931 339.269 161.594 340.008 161.024 340.543C160.453 341.079 159.694 341.368 158.912 341.348Z" fill="#00E59D"/>
</g>
<g filter="url(#filter1_d)">
<path d="M160.49 184.461C160.49 178.11 155.342 172.961 148.99 172.961C142.639 172.961 137.49 178.11 137.49 184.461C137.49 190.812 142.639 195.961 148.99 195.961C155.342 195.961 160.49 190.812 160.49 184.461Z" fill="#2E3192"/>
</g>
<g filter="url(#filter2_d)">
<path d="M187.49 187.961C187.49 179.677 180.775 172.961 172.49 172.961C164.206 172.961 157.49 179.677 157.49 187.961C157.49 196.245 164.206 202.961 172.49 202.961C180.775 202.961 187.49 196.245 187.49 187.961Z" fill="#2E3192"/>
</g>
<g filter="url(#filter3_d)">
<path d="M227.49 175.461C227.49 163.035 217.417 152.961 204.99 152.961C192.564 152.961 182.49 163.035 182.49 175.461C182.49 187.887 192.564 197.961 204.99 197.961C217.417 197.961 227.49 187.887 227.49 175.461Z" fill="#2E3192"/>
</g>
<g filter="url(#filter4_d)">
<path d="M267.49 142.961C267.49 126.392 254.059 112.961 237.49 112.961C220.922 112.961 207.49 126.392 207.49 142.961C207.49 159.529 220.922 172.961 237.49 172.961C254.059 172.961 267.49 159.529 267.49 142.961Z" fill="#2E3192"/>
</g>
<g filter="url(#filter5_d)">
<rect x="258" y="40" width="489" height="220" rx="50" fill="#2E3192"/>
</g>
<path d="M312.9 138.72C319.68 138.72 324.18 136.56 328.14 133.08C328.8 132.48 329.34 131.58 329.34 130.44C329.34 128.58 327.72 127.02 325.86 127.02C324.96 127.02 324.18 127.38 323.64 127.86C320.58 130.44 317.58 131.88 313.14 131.88C305.1 131.88 299.28 125.22 299.28 117V116.88C299.28 108.66 305.16 102.06 313.14 102.06C317.16 102.06 320.28 103.5 323.16 105.84C323.64 106.2 324.36 106.56 325.38 106.56C327.42 106.56 329.04 105 329.04 102.96C329.04 101.64 328.38 100.62 327.6 100.02C323.94 97.2 319.68 95.28 313.2 95.28C300.48 95.28 291.54 105.06 291.54 117V117.12C291.54 129.18 300.66 138.72 312.9 138.72ZM333.857 134.7C333.857 136.74 335.477 138.3 337.457 138.3C339.497 138.3 341.117 136.74 341.117 134.7V120.12C341.117 115.2 344.057 112.26 348.257 112.26C352.577 112.26 355.037 115.08 355.037 120V134.7C355.037 136.74 356.657 138.3 358.697 138.3C360.737 138.3 362.297 136.74 362.297 134.7V117.78C362.297 110.46 358.157 105.66 351.017 105.66C346.097 105.66 343.157 108.24 341.117 111.18V97.5C341.117 95.52 339.497 93.9 337.457 93.9C335.417 93.9 333.857 95.52 333.857 97.5V134.7ZM367.944 98.16C367.944 100.32 369.744 101.76 372.084 101.76C374.424 101.76 376.224 100.32 376.224 98.16V97.8C376.224 95.64 374.424 94.26 372.084 94.26C369.744 94.26 367.944 95.64 367.944 97.8V98.16ZM368.484 134.7C368.484 136.74 370.104 138.3 372.084 138.3C374.124 138.3 375.744 136.74 375.744 134.7V109.62C375.744 107.58 374.124 105.96 372.084 105.96C370.044 105.96 368.484 107.58 368.484 109.62V134.7ZM382.652 134.7C382.652 136.74 384.272 138.3 386.252 138.3C388.292 138.3 389.912 136.74 389.912 134.7V97.5C389.912 95.52 388.292 93.9 386.252 93.9C384.212 93.9 382.652 95.52 382.652 97.5V134.7ZM396.82 134.7C396.82 136.74 398.44 138.3 400.42 138.3C402.46 138.3 404.08 136.74 404.08 134.7V97.5C404.08 95.52 402.46 93.9 400.42 93.9C398.38 93.9 396.82 95.52 396.82 97.5V134.7ZM410.448 98.16C410.448 100.32 412.248 101.76 414.588 101.76C416.928 101.76 418.728 100.32 418.728 98.16V97.8C418.728 95.64 416.928 94.26 414.588 94.26C412.248 94.26 410.448 95.64 410.448 97.8V98.16ZM410.988 134.7C410.988 136.74 412.608 138.3 414.588 138.3C416.628 138.3 418.248 136.74 418.248 134.7V109.62C418.248 107.58 416.628 105.96 414.588 105.96C412.548 105.96 410.988 107.58 410.988 109.62V134.7ZM424.736 134.7C424.736 136.74 426.356 138.3 428.336 138.3C430.376 138.3 431.996 136.74 431.996 134.7V120.12C431.996 115.2 434.936 112.26 439.136 112.26C443.456 112.26 445.916 115.08 445.916 120V134.7C445.916 136.74 447.536 138.3 449.576 138.3C451.616 138.3 453.176 136.74 453.176 134.7V117.78C453.176 110.46 449.036 105.66 441.896 105.66C436.976 105.66 434.036 108.24 431.996 111.18V109.62C431.996 107.58 430.376 105.96 428.336 105.96C426.296 105.96 424.736 107.58 424.736 109.62V134.7ZM474.351 134.7C474.351 136.74 475.971 138.3 477.951 138.3C479.991 138.3 481.611 136.74 481.611 134.7V97.5C481.611 95.52 479.991 93.9 477.951 93.9C475.911 93.9 474.351 95.52 474.351 97.5V134.7ZM487.979 98.16C487.979 100.32 489.779 101.76 492.119 101.76C494.459 101.76 496.259 100.32 496.259 98.16V97.8C496.259 95.64 494.459 94.26 492.119 94.26C489.779 94.26 487.979 95.64 487.979 97.8V98.16ZM488.519 134.7C488.519 136.74 490.139 138.3 492.119 138.3C494.159 138.3 495.779 136.74 495.779 134.7V109.62C495.779 107.58 494.159 105.96 492.119 105.96C490.079 105.96 488.519 107.58 488.519 109.62V134.7ZM502.267 134.7C502.267 136.74 503.887 138.3 505.867 138.3C507.907 138.3 509.527 136.74 509.527 134.7V129.18L514.327 124.62L523.387 136.68C524.287 137.82 525.127 138.3 526.567 138.3C528.427 138.3 529.987 136.98 529.987 135C529.987 134.16 529.687 133.5 529.027 132.6L519.427 120.06L527.827 112.32C528.847 111.36 529.447 110.46 529.447 109.26C529.447 107.52 528.187 105.96 526.267 105.96C525.007 105.96 524.107 106.56 523.147 107.52L509.527 120.9V97.5C509.527 95.52 507.907 93.9 505.867 93.9C503.827 93.9 502.267 95.52 502.267 97.5V134.7ZM538.653 119.94C539.313 115.02 542.433 111.6 546.873 111.6C551.673 111.6 554.433 115.26 554.913 119.94H538.653ZM559.113 134.52C559.653 133.98 560.073 133.2 560.073 132.3C560.073 130.62 558.813 129.36 557.193 129.36C556.353 129.36 555.873 129.6 555.333 130.02C553.293 131.7 550.893 132.78 547.833 132.78C543.153 132.78 539.493 129.9 538.713 124.74H558.573C560.433 124.74 561.993 123.3 561.993 121.26C561.993 113.94 557.013 105.66 546.933 105.66C537.873 105.66 531.453 113.1 531.453 122.16V122.28C531.453 132.06 538.533 138.72 547.713 138.72C552.633 138.72 556.233 137.1 559.113 134.52ZM582.232 134.28C582.232 136.38 583.852 138 585.952 138H597.892C611.092 138 620.212 128.82 620.212 117V116.88C620.212 105.06 611.092 96 597.892 96H585.952C583.852 96 582.232 97.62 582.232 99.72V134.28ZM589.612 131.28V102.72H597.892C606.712 102.72 612.472 108.78 612.472 117V117.12C612.472 125.34 606.712 131.28 597.892 131.28H589.612ZM625.326 134.7C625.326 136.74 626.946 138.3 628.926 138.3C630.966 138.3 632.586 136.68 632.586 134.7V125.34C632.586 117.84 636.126 113.88 641.286 112.98C642.906 112.68 644.166 111.42 644.166 109.5C644.166 107.4 642.846 105.9 640.566 105.9C637.386 105.9 634.266 108.9 632.586 112.86V109.62C632.586 107.58 630.966 105.96 628.926 105.96C626.886 105.96 625.326 107.58 625.326 109.62V134.7ZM654.707 138.66C659.567 138.66 662.867 136.62 665.027 134.04V135.24C665.027 136.86 666.467 138.3 668.567 138.3C670.547 138.3 672.107 136.8 672.107 134.82V119.22C672.107 115.08 671.027 111.72 668.687 109.44C666.467 107.16 662.927 105.9 658.187 105.9C654.047 105.9 650.987 106.62 647.987 107.76C646.907 108.18 646.007 109.32 646.007 110.64C646.007 112.32 647.387 113.64 649.067 113.64C649.427 113.64 649.787 113.58 650.207 113.46C652.187 112.68 654.467 112.2 657.227 112.2C662.327 112.2 665.087 114.6 665.087 119.1V119.88C662.627 119.1 660.107 118.56 656.567 118.56C648.827 118.56 643.487 121.92 643.487 128.76V128.88C643.487 135.24 648.767 138.66 654.707 138.66ZM656.747 133.38C653.267 133.38 650.567 131.64 650.567 128.58V128.46C650.567 125.16 653.327 123.18 658.007 123.18C660.887 123.18 663.347 123.72 665.207 124.44V126.6C665.207 130.62 661.547 133.38 656.747 133.38ZM692.442 138.72C697.722 138.72 701.142 136.92 703.962 134.22C704.622 133.68 704.982 132.9 704.982 131.94C704.982 130.2 703.602 128.76 701.862 128.76C701.022 128.76 700.302 129.18 699.882 129.54C697.902 131.22 695.682 132.36 692.802 132.36C687.222 132.36 683.322 127.86 683.322 122.22V122.1C683.322 116.58 687.222 112.02 692.502 112.02C695.382 112.02 697.422 113.16 699.282 114.72C699.762 115.08 700.542 115.44 701.442 115.44C703.302 115.44 704.802 114 704.802 112.14C704.802 110.94 704.142 110.04 703.662 109.62C700.962 107.28 697.542 105.66 692.562 105.66C683.022 105.66 676.062 113.22 676.062 122.22V122.34C676.062 131.34 683.022 138.72 692.442 138.72ZM708.36 133.56V134.16C708.36 136.5 710.16 138.3 712.62 138.3C715.02 138.3 716.82 136.5 716.82 134.16V133.56C716.82 131.22 715.02 129.42 712.62 129.42C710.16 129.42 708.36 131.22 708.36 133.56Z" fill="black"/>
<path d="M312.9 133.72C319.68 133.72 324.18 131.56 328.14 128.08C328.8 127.48 329.34 126.58 329.34 125.44C329.34 123.58 327.72 122.02 325.86 122.02C324.96 122.02 324.18 122.38 323.64 122.86C320.58 125.44 317.58 126.88 313.14 126.88C305.1 126.88 299.28 120.22 299.28 112V111.88C299.28 103.66 305.16 97.06 313.14 97.06C317.16 97.06 320.28 98.5 323.16 100.84C323.64 101.2 324.36 101.56 325.38 101.56C327.42 101.56 329.04 100 329.04 97.96C329.04 96.64 328.38 95.62 327.6 95.02C323.94 92.2 319.68 90.28 313.2 90.28C300.48 90.28 291.54 100.06 291.54 112V112.12C291.54 124.18 300.66 133.72 312.9 133.72ZM333.857 129.7C333.857 131.74 335.477 133.3 337.457 133.3C339.497 133.3 341.117 131.74 341.117 129.7V115.12C341.117 110.2 344.057 107.26 348.257 107.26C352.577 107.26 355.037 110.08 355.037 115V129.7C355.037 131.74 356.657 133.3 358.697 133.3C360.737 133.3 362.297 131.74 362.297 129.7V112.78C362.297 105.46 358.157 100.66 351.017 100.66C346.097 100.66 343.157 103.24 341.117 106.18V92.5C341.117 90.52 339.497 88.9 337.457 88.9C335.417 88.9 333.857 90.52 333.857 92.5V129.7ZM367.944 93.16C367.944 95.32 369.744 96.76 372.084 96.76C374.424 96.76 376.224 95.32 376.224 93.16V92.8C376.224 90.64 374.424 89.26 372.084 89.26C369.744 89.26 367.944 90.64 367.944 92.8V93.16ZM368.484 129.7C368.484 131.74 370.104 133.3 372.084 133.3C374.124 133.3 375.744 131.74 375.744 129.7V104.62C375.744 102.58 374.124 100.96 372.084 100.96C370.044 100.96 368.484 102.58 368.484 104.62V129.7ZM382.652 129.7C382.652 131.74 384.272 133.3 386.252 133.3C388.292 133.3 389.912 131.74 389.912 129.7V92.5C389.912 90.52 388.292 88.9 386.252 88.9C384.212 88.9 382.652 90.52 382.652 92.5V129.7ZM396.82 129.7C396.82 131.74 398.44 133.3 400.42 133.3C402.46 133.3 404.08 131.74 404.08 129.7V92.5C404.08 90.52 402.46 88.9 400.42 88.9C398.38 88.9 396.82 90.52 396.82 92.5V129.7ZM410.448 93.16C410.448 95.32 412.248 96.76 414.588 96.76C416.928 96.76 418.728 95.32 418.728 93.16V92.8C418.728 90.64 416.928 89.26 414.588 89.26C412.248 89.26 410.448 90.64 410.448 92.8V93.16ZM410.988 129.7C410.988 131.74 412.608 133.3 414.588 133.3C416.628 133.3 418.248 131.74 418.248 129.7V104.62C418.248 102.58 416.628 100.96 414.588 100.96C412.548 100.96 410.988 102.58 410.988 104.62V129.7ZM424.736 129.7C424.736 131.74 426.356 133.3 428.336 133.3C430.376 133.3 431.996 131.74 431.996 129.7V115.12C431.996 110.2 434.936 107.26 439.136 107.26C443.456 107.26 445.916 110.08 445.916 115V129.7C445.916 131.74 447.536 133.3 449.576 133.3C451.616 133.3 453.176 131.74 453.176 129.7V112.78C453.176 105.46 449.036 100.66 441.896 100.66C436.976 100.66 434.036 103.24 431.996 106.18V104.62C431.996 102.58 430.376 100.96 428.336 100.96C426.296 100.96 424.736 102.58 424.736 104.62V129.7ZM474.351 129.7C474.351 131.74 475.971 133.3 477.951 133.3C479.991 133.3 481.611 131.74 481.611 129.7V92.5C481.611 90.52 479.991 88.9 477.951 88.9C475.911 88.9 474.351 90.52 474.351 92.5V129.7ZM487.979 93.16C487.979 95.32 489.779 96.76 492.119 96.76C494.459 96.76 496.259 95.32 496.259 93.16V92.8C496.259 90.64 494.459 89.26 492.119 89.26C489.779 89.26 487.979 90.64 487.979 92.8V93.16ZM488.519 129.7C488.519 131.74 490.139 133.3 492.119 133.3C494.159 133.3 495.779 131.74 495.779 129.7V104.62C495.779 102.58 494.159 100.96 492.119 100.96C490.079 100.96 488.519 102.58 488.519 104.62V129.7ZM502.267 129.7C502.267 131.74 503.887 133.3 505.867 133.3C507.907 133.3 509.527 131.74 509.527 129.7V124.18L514.327 119.62L523.387 131.68C524.287 132.82 525.127 133.3 526.567 133.3C528.427 133.3 529.987 131.98 529.987 130C529.987 129.16 529.687 128.5 529.027 127.6L519.427 115.06L527.827 107.32C528.847 106.36 529.447 105.46 529.447 104.26C529.447 102.52 528.187 100.96 526.267 100.96C525.007 100.96 524.107 101.56 523.147 102.52L509.527 115.9V92.5C509.527 90.52 507.907 88.9 505.867 88.9C503.827 88.9 502.267 90.52 502.267 92.5V129.7ZM538.653 114.94C539.313 110.02 542.433 106.6 546.873 106.6C551.673 106.6 554.433 110.26 554.913 114.94H538.653ZM559.113 129.52C559.653 128.98 560.073 128.2 560.073 127.3C560.073 125.62 558.813 124.36 557.193 124.36C556.353 124.36 555.873 124.6 555.333 125.02C553.293 126.7 550.893 127.78 547.833 127.78C543.153 127.78 539.493 124.9 538.713 119.74H558.573C560.433 119.74 561.993 118.3 561.993 116.26C561.993 108.94 557.013 100.66 546.933 100.66C537.873 100.66 531.453 108.1 531.453 117.16V117.28C531.453 127.06 538.533 133.72 547.713 133.72C552.633 133.72 556.233 132.1 559.113 129.52Z" fill="#00E59D"/>
<path d="M582.232 129.28C582.232 131.38 583.852 133 585.952 133H597.892C611.092 133 620.212 123.82 620.212 112V111.88C620.212 100.06 611.092 91 597.892 91H585.952C583.852 91 582.232 92.62 582.232 94.72V129.28ZM589.612 126.28V97.72H597.892C606.712 97.72 612.472 103.78 612.472 112V112.12C612.472 120.34 606.712 126.28 597.892 126.28H589.612ZM625.326 129.7C625.326 131.74 626.946 133.3 628.926 133.3C630.966 133.3 632.586 131.68 632.586 129.7V120.34C632.586 112.84 636.126 108.88 641.286 107.98C642.906 107.68 644.166 106.42 644.166 104.5C644.166 102.4 642.846 100.9 640.566 100.9C637.386 100.9 634.266 103.9 632.586 107.86V104.62C632.586 102.58 630.966 100.96 628.926 100.96C626.886 100.96 625.326 102.58 625.326 104.62V129.7ZM654.707 133.66C659.567 133.66 662.867 131.62 665.027 129.04V130.24C665.027 131.86 666.467 133.3 668.567 133.3C670.547 133.3 672.107 131.8 672.107 129.82V114.22C672.107 110.08 671.027 106.72 668.687 104.44C666.467 102.16 662.927 100.9 658.187 100.9C654.047 100.9 650.987 101.62 647.987 102.76C646.907 103.18 646.007 104.32 646.007 105.64C646.007 107.32 647.387 108.64 649.067 108.64C649.427 108.64 649.787 108.58 650.207 108.46C652.187 107.68 654.467 107.2 657.227 107.2C662.327 107.2 665.087 109.6 665.087 114.1V114.88C662.627 114.1 660.107 113.56 656.567 113.56C648.827 113.56 643.487 116.92 643.487 123.76V123.88C643.487 130.24 648.767 133.66 654.707 133.66ZM656.747 128.38C653.267 128.38 650.567 126.64 650.567 123.58V123.46C650.567 120.16 653.327 118.18 658.007 118.18C660.887 118.18 663.347 118.72 665.207 119.44V121.6C665.207 125.62 661.547 128.38 656.747 128.38ZM692.442 133.72C697.722 133.72 701.142 131.92 703.962 129.22C704.622 128.68 704.982 127.9 704.982 126.94C704.982 125.2 703.602 123.76 701.862 123.76C701.022 123.76 700.302 124.18 699.882 124.54C697.902 126.22 695.682 127.36 692.802 127.36C687.222 127.36 683.322 122.86 683.322 117.22V117.1C683.322 111.58 687.222 107.02 692.502 107.02C695.382 107.02 697.422 108.16 699.282 109.72C699.762 110.08 700.542 110.44 701.442 110.44C703.302 110.44 704.802 109 704.802 107.14C704.802 105.94 704.142 105.04 703.662 104.62C700.962 102.28 697.542 100.66 692.562 100.66C683.022 100.66 676.062 108.22 676.062 117.22V117.34C676.062 126.34 683.022 133.72 692.442 133.72ZM708.36 128.56V129.16C708.36 131.5 710.16 133.3 712.62 133.3C715.02 133.3 716.82 131.5 716.82 129.16V128.56C716.82 126.22 715.02 124.42 712.62 124.42C710.16 124.42 708.36 126.22 708.36 128.56Z" fill="#FF0000"/>
<g filter="url(#filter6_f)">
<path d="M312.9 133.72C319.68 133.72 324.18 131.56 328.14 128.08C328.8 127.48 329.34 126.58 329.34 125.44C329.34 123.58 327.72 122.02 325.86 122.02C324.96 122.02 324.18 122.38 323.64 122.86C320.58 125.44 317.58 126.88 313.14 126.88C305.1 126.88 299.28 120.22 299.28 112V111.88C299.28 103.66 305.16 97.06 313.14 97.06C317.16 97.06 320.28 98.5 323.16 100.84C323.64 101.2 324.36 101.56 325.38 101.56C327.42 101.56 329.04 100 329.04 97.96C329.04 96.64 328.38 95.62 327.6 95.02C323.94 92.2 319.68 90.28 313.2 90.28C300.48 90.28 291.54 100.06 291.54 112V112.12C291.54 124.18 300.66 133.72 312.9 133.72ZM333.857 129.7C333.857 131.74 335.477 133.3 337.457 133.3C339.497 133.3 341.117 131.74 341.117 129.7V115.12C341.117 110.2 344.057 107.26 348.257 107.26C352.577 107.26 355.037 110.08 355.037 115V129.7C355.037 131.74 356.657 133.3 358.697 133.3C360.737 133.3 362.297 131.74 362.297 129.7V112.78C362.297 105.46 358.157 100.66 351.017 100.66C346.097 100.66 343.157 103.24 341.117 106.18V92.5C341.117 90.52 339.497 88.9 337.457 88.9C335.417 88.9 333.857 90.52 333.857 92.5V129.7ZM367.944 93.16C367.944 95.32 369.744 96.76 372.084 96.76C374.424 96.76 376.224 95.32 376.224 93.16V92.8C376.224 90.64 374.424 89.26 372.084 89.26C369.744 89.26 367.944 90.64 367.944 92.8V93.16ZM368.484 129.7C368.484 131.74 370.104 133.3 372.084 133.3C374.124 133.3 375.744 131.74 375.744 129.7V104.62C375.744 102.58 374.124 100.96 372.084 100.96C370.044 100.96 368.484 102.58 368.484 104.62V129.7ZM382.652 129.7C382.652 131.74 384.272 133.3 386.252 133.3C388.292 133.3 389.912 131.74 389.912 129.7V92.5C389.912 90.52 388.292 88.9 386.252 88.9C384.212 88.9 382.652 90.52 382.652 92.5V129.7ZM396.82 129.7C396.82 131.74 398.44 133.3 400.42 133.3C402.46 133.3 404.08 131.74 404.08 129.7V92.5C404.08 90.52 402.46 88.9 400.42 88.9C398.38 88.9 396.82 90.52 396.82 92.5V129.7ZM410.448 93.16C410.448 95.32 412.248 96.76 414.588 96.76C416.928 96.76 418.728 95.32 418.728 93.16V92.8C418.728 90.64 416.928 89.26 414.588 89.26C412.248 89.26 410.448 90.64 410.448 92.8V93.16ZM410.988 129.7C410.988 131.74 412.608 133.3 414.588 133.3C416.628 133.3 418.248 131.74 418.248 129.7V104.62C418.248 102.58 416.628 100.96 414.588 100.96C412.548 100.96 410.988 102.58 410.988 104.62V129.7ZM424.736 129.7C424.736 131.74 426.356 133.3 428.336 133.3C430.376 133.3 431.996 131.74 431.996 129.7V115.12C431.996 110.2 434.936 107.26 439.136 107.26C443.456 107.26 445.916 110.08 445.916 115V129.7C445.916 131.74 447.536 133.3 449.576 133.3C451.616 133.3 453.176 131.74 453.176 129.7V112.78C453.176 105.46 449.036 100.66 441.896 100.66C436.976 100.66 434.036 103.24 431.996 106.18V104.62C431.996 102.58 430.376 100.96 428.336 100.96C426.296 100.96 424.736 102.58 424.736 104.62V129.7ZM456.483 106.24C456.483 107.2 457.083 107.92 458.343 107.92C460.023 107.92 462.363 106.96 463.983 105.34C465.843 103.48 466.923 100.66 466.923 96.58V95.98C466.923 92.74 465.243 90.7 462.603 90.7C460.143 90.7 458.523 92.44 458.523 94.72V95.2C458.523 97.36 460.203 98.8 461.943 99.22C462.063 101.92 460.623 103.78 457.863 104.62C457.083 104.86 456.483 105.4 456.483 106.24ZM487.464 129.7C487.464 131.74 489.084 133.3 491.064 133.3C493.104 133.3 494.724 131.74 494.724 129.7V92.5C494.724 90.52 493.104 88.9 491.064 88.9C489.024 88.9 487.464 90.52 487.464 92.5V129.7ZM501.092 93.16C501.092 95.32 502.892 96.76 505.232 96.76C507.572 96.76 509.372 95.32 509.372 93.16V92.8C509.372 90.64 507.572 89.26 505.232 89.26C502.892 89.26 501.092 90.64 501.092 92.8V93.16ZM501.632 129.7C501.632 131.74 503.252 133.3 505.232 133.3C507.272 133.3 508.892 131.74 508.892 129.7V104.62C508.892 102.58 507.272 100.96 505.232 100.96C503.192 100.96 501.632 102.58 501.632 104.62V129.7ZM515.38 129.7C515.38 131.74 517 133.3 518.98 133.3C521.02 133.3 522.64 131.74 522.64 129.7V124.18L527.44 119.62L536.5 131.68C537.4 132.82 538.24 133.3 539.68 133.3C541.54 133.3 543.1 131.98 543.1 130C543.1 129.16 542.8 128.5 542.14 127.6L532.54 115.06L540.94 107.32C541.96 106.36 542.56 105.46 542.56 104.26C542.56 102.52 541.3 100.96 539.38 100.96C538.12 100.96 537.22 101.56 536.26 102.52L522.64 115.9V92.5C522.64 90.52 521.02 88.9 518.98 88.9C516.94 88.9 515.38 90.52 515.38 92.5V129.7ZM551.766 114.94C552.426 110.02 555.546 106.6 559.986 106.6C564.786 106.6 567.546 110.26 568.026 114.94H551.766ZM572.226 129.52C572.766 128.98 573.186 128.2 573.186 127.3C573.186 125.62 571.926 124.36 570.306 124.36C569.466 124.36 568.986 124.6 568.446 125.02C566.406 126.7 564.006 127.78 560.946 127.78C556.266 127.78 552.606 124.9 551.826 119.74H571.686C573.546 119.74 575.106 118.3 575.106 116.26C575.106 108.94 570.126 100.66 560.046 100.66C550.986 100.66 544.566 108.1 544.566 117.16V117.28C544.566 127.06 551.646 133.72 560.826 133.72C565.746 133.72 569.346 132.1 572.226 129.52Z" fill="#00E59D"/>
<path d="M595.345 129.28C595.345 131.38 596.965 133 599.065 133H611.005C624.205 133 633.325 123.82 633.325 112V111.88C633.325 100.06 624.205 91 611.005 91H599.065C596.965 91 595.345 92.62 595.345 94.72V129.28ZM602.725 126.28V97.72H611.005C619.825 97.72 625.585 103.78 625.585 112V112.12C625.585 120.34 619.825 126.28 611.005 126.28H602.725ZM638.439 129.7C638.439 131.74 640.059 133.3 642.039 133.3C644.079 133.3 645.699 131.68 645.699 129.7V120.34C645.699 112.84 649.239 108.88 654.399 107.98C656.019 107.68 657.279 106.42 657.279 104.5C657.279 102.4 655.959 100.9 653.679 100.9C650.499 100.9 647.379 103.9 645.699 107.86V104.62C645.699 102.58 644.079 100.96 642.039 100.96C639.999 100.96 638.439 102.58 638.439 104.62V129.7ZM667.821 133.66C672.681 133.66 675.981 131.62 678.141 129.04V130.24C678.141 131.86 679.581 133.3 681.681 133.3C683.661 133.3 685.221 131.8 685.221 129.82V114.22C685.221 110.08 684.141 106.72 681.801 104.44C679.581 102.16 676.041 100.9 671.301 100.9C667.161 100.9 664.101 101.62 661.101 102.76C660.021 103.18 659.121 104.32 659.121 105.64C659.121 107.32 660.501 108.64 662.181 108.64C662.541 108.64 662.901 108.58 663.321 108.46C665.301 107.68 667.581 107.2 670.341 107.2C675.441 107.2 678.201 109.6 678.201 114.1V114.88C675.741 114.1 673.221 113.56 669.681 113.56C661.941 113.56 656.601 116.92 656.601 123.76V123.88C656.601 130.24 661.881 133.66 667.821 133.66ZM669.861 128.38C666.381 128.38 663.681 126.64 663.681 123.58V123.46C663.681 120.16 666.441 118.18 671.121 118.18C674.001 118.18 676.461 118.72 678.321 119.44V121.6C678.321 125.62 674.661 128.38 669.861 128.38ZM705.555 133.72C710.835 133.72 714.255 131.92 717.075 129.22C717.735 128.68 718.095 127.9 718.095 126.94C718.095 125.2 716.715 123.76 714.975 123.76C714.135 123.76 713.415 124.18 712.995 124.54C711.015 126.22 708.795 127.36 705.915 127.36C700.335 127.36 696.435 122.86 696.435 117.22V117.1C696.435 111.58 700.335 107.02 705.615 107.02C708.495 107.02 710.535 108.16 712.395 109.72C712.875 110.08 713.655 110.44 714.555 110.44C716.415 110.44 717.915 109 717.915 107.14C717.915 105.94 717.255 105.04 716.775 104.62C714.075 102.28 710.655 100.66 705.675 100.66C696.135 100.66 689.175 108.22 689.175 117.22V117.34C689.175 126.34 696.135 133.72 705.555 133.72ZM721.473 128.56V129.16C721.473 131.5 723.273 133.3 725.733 133.3C728.133 133.3 729.933 131.5 729.933 129.16V128.56C729.933 126.22 728.133 124.42 725.733 124.42C723.273 124.42 721.473 126.22 721.473 128.56Z" fill="#FF0000"/>
</g>
<path d="M308.22 208.64C308.22 210.68 309.84 212.3 311.88 212.3C313.98 212.3 315.6 210.68 315.6 208.64V195.5L329.94 175.88C330.48 175.16 330.96 174.26 330.96 173.24C330.96 171.26 329.52 169.64 327.36 169.64C325.8 169.64 324.72 170.54 323.82 171.86L311.94 188.78L300.24 171.92C299.34 170.6 298.26 169.7 296.64 169.7C294.54 169.7 292.92 171.26 292.92 173.24C292.92 174.26 293.28 175.1 293.76 175.82L308.22 195.68V208.64ZM344.651 212.72C354.431 212.72 361.631 205.22 361.631 196.22V196.1C361.631 187.04 354.491 179.66 344.771 179.66C335.051 179.66 327.851 187.16 327.851 196.22V196.34C327.851 205.34 334.991 212.72 344.651 212.72ZM344.771 206.36C339.131 206.36 335.111 201.74 335.111 196.22V196.1C335.111 190.58 338.831 186.02 344.651 186.02C350.351 186.02 354.371 190.64 354.371 196.22V196.34C354.371 201.8 350.651 206.36 344.771 206.36ZM394.165 183.62C394.165 181.58 392.485 179.96 390.505 179.96C388.465 179.96 386.845 181.58 386.845 183.62V198.2C386.845 203.12 383.905 206 379.705 206C375.385 206 372.925 203.24 372.925 198.32V183.62C372.925 181.58 371.305 179.96 369.265 179.96C367.285 179.96 365.665 181.58 365.665 183.62V200.48C365.665 207.86 369.805 212.66 376.945 212.66C381.865 212.66 384.805 210.08 386.845 207.08V208.7C386.845 210.74 388.525 212.3 390.505 212.3C392.545 212.3 394.165 210.68 394.165 208.7V183.62ZM426.08 212.6C432.68 212.6 437.84 209.3 437.84 202.64V202.52C437.84 196.82 432.62 194.72 428 193.28C424.28 192.08 420.86 191.12 420.86 188.78V188.66C420.86 186.86 422.48 185.54 425.3 185.54C427.52 185.54 430.16 186.38 432.74 187.7C433.22 187.94 433.58 188.06 434.18 188.06C435.86 188.06 437.18 186.8 437.18 185.12C437.18 183.86 436.46 182.9 435.44 182.36C432.38 180.74 428.84 179.78 425.48 179.78C419.18 179.78 414.2 183.44 414.2 189.44V189.56C414.2 195.62 419.42 197.54 424.1 198.86C427.82 200 431.18 200.84 431.18 203.3V203.42C431.18 205.52 429.38 206.84 426.26 206.84C423.38 206.84 420.2 205.82 417.14 203.78C416.72 203.54 416.18 203.36 415.58 203.36C413.9 203.36 412.64 204.68 412.64 206.3C412.64 207.5 413.24 208.4 414.02 208.82C417.68 211.34 422.06 212.6 426.08 212.6ZM442.279 208.7C442.279 210.74 443.899 212.3 445.879 212.3C447.919 212.3 449.539 210.74 449.539 208.7V194.12C449.539 189.2 452.479 186.26 456.679 186.26C460.999 186.26 463.459 189.08 463.459 194V208.7C463.459 210.74 465.079 212.3 467.119 212.3C469.159 212.3 470.719 210.74 470.719 208.7V191.78C470.719 184.46 466.579 179.66 459.439 179.66C454.519 179.66 451.579 182.24 449.539 185.18V171.5C449.539 169.52 447.919 167.9 445.879 167.9C443.839 167.9 442.279 169.52 442.279 171.5V208.7ZM491.546 212.72C501.326 212.72 508.526 205.22 508.526 196.22V196.1C508.526 187.04 501.386 179.66 491.666 179.66C481.946 179.66 474.746 187.16 474.746 196.22V196.34C474.746 205.34 481.886 212.72 491.546 212.72ZM491.666 206.36C486.026 206.36 482.006 201.74 482.006 196.22V196.1C482.006 190.58 485.726 186.02 491.546 186.02C497.246 186.02 501.266 190.64 501.266 196.22V196.34C501.266 201.8 497.546 206.36 491.666 206.36ZM541.059 183.62C541.059 181.58 539.379 179.96 537.399 179.96C535.359 179.96 533.739 181.58 533.739 183.62V198.2C533.739 203.12 530.799 206 526.599 206C522.279 206 519.819 203.24 519.819 198.32V183.62C519.819 181.58 518.199 179.96 516.159 179.96C514.179 179.96 512.559 181.58 512.559 183.62V200.48C512.559 207.86 516.699 212.66 523.839 212.66C528.759 212.66 531.699 210.08 533.739 207.08V208.7C533.739 210.74 535.419 212.3 537.399 212.3C539.439 212.3 541.059 210.68 541.059 208.7V183.62ZM547.546 208.7C547.546 210.74 549.166 212.3 551.146 212.3C553.186 212.3 554.806 210.74 554.806 208.7V171.5C554.806 169.52 553.186 167.9 551.146 167.9C549.106 167.9 547.546 169.52 547.546 171.5V208.7ZM592.434 171.5C592.434 169.46 590.814 167.9 588.774 167.9C586.794 167.9 585.174 169.46 585.174 171.5V185.24C582.894 182.24 579.594 179.66 574.374 179.66C566.814 179.66 559.674 185.6 559.674 196.1V196.22C559.674 206.72 566.934 212.66 574.374 212.66C579.534 212.66 582.834 210.02 585.174 206.72V208.7C585.174 210.74 586.794 212.3 588.834 212.3C590.814 212.3 592.434 210.74 592.434 208.7V171.5ZM576.114 185.96C580.974 185.96 585.294 189.98 585.294 196.1V196.22C585.294 202.28 580.974 206.36 576.114 206.36C571.194 206.36 566.994 202.34 566.994 196.22V196.1C566.994 189.8 571.134 185.96 576.114 185.96ZM624.157 212.54C626.077 212.54 627.577 212.24 629.137 211.7C630.157 211.28 631.057 210.2 631.057 208.88C631.057 207.2 629.617 205.88 627.997 205.88C627.757 205.88 627.037 206.06 626.197 206.06C623.737 206.06 622.297 204.92 622.297 202.1V186.56H627.997C629.737 186.56 631.177 185.18 631.177 183.44C631.177 181.7 629.737 180.32 627.997 180.32H622.297V174.92C622.297 172.94 620.677 171.32 618.697 171.32C616.657 171.32 615.037 172.94 615.037 174.92V180.32H613.837C612.097 180.32 610.717 181.7 610.717 183.44C610.717 185.18 612.097 186.56 613.837 186.56H615.037V203.24C615.037 210.2 618.817 212.54 624.157 212.54ZM649.386 212.72C659.166 212.72 666.366 205.22 666.366 196.22V196.1C666.366 187.04 659.226 179.66 649.506 179.66C639.786 179.66 632.586 187.16 632.586 196.22V196.34C632.586 205.34 639.726 212.72 649.386 212.72ZM649.506 206.36C643.866 206.36 639.846 201.74 639.846 196.22V196.1C639.846 190.58 643.566 186.02 649.386 186.02C655.086 186.02 659.106 190.64 659.106 196.22V196.34C659.106 201.8 655.386 206.36 649.506 206.36ZM685.819 212.72C695.599 212.72 702.799 205.22 702.799 196.22V196.1C702.799 187.04 695.659 179.66 685.939 179.66C676.219 179.66 669.019 187.16 669.019 196.22V196.34C669.019 205.34 676.159 212.72 685.819 212.72ZM685.939 206.36C680.299 206.36 676.279 201.74 676.279 196.22V196.1C676.279 190.58 679.999 186.02 685.819 186.02C691.519 186.02 695.539 190.64 695.539 196.22V196.34C695.539 201.8 691.819 206.36 685.939 206.36ZM705.301 207.56V208.16C705.301 210.5 707.101 212.3 709.561 212.3C711.961 212.3 713.761 210.5 713.761 208.16V207.56C713.761 205.22 711.961 203.42 709.561 203.42C707.101 203.42 705.301 205.22 705.301 207.56Z" fill="black"/>
<path d="M308.22 203.64C308.22 205.68 309.84 207.3 311.88 207.3C313.98 207.3 315.6 205.68 315.6 203.64V190.5L329.94 170.88C330.48 170.16 330.96 169.26 330.96 168.24C330.96 166.26 329.52 164.64 327.36 164.64C325.8 164.64 324.72 165.54 323.82 166.86L311.94 183.78L300.24 166.92C299.34 165.6 298.26 164.7 296.64 164.7C294.54 164.7 292.92 166.26 292.92 168.24C292.92 169.26 293.28 170.1 293.76 170.82L308.22 190.68V203.64ZM344.651 207.72C354.431 207.72 361.631 200.22 361.631 191.22V191.1C361.631 182.04 354.491 174.66 344.771 174.66C335.051 174.66 327.851 182.16 327.851 191.22V191.34C327.851 200.34 334.991 207.72 344.651 207.72ZM344.771 201.36C339.131 201.36 335.111 196.74 335.111 191.22V191.1C335.111 185.58 338.831 181.02 344.651 181.02C350.351 181.02 354.371 185.64 354.371 191.22V191.34C354.371 196.8 350.651 201.36 344.771 201.36ZM394.165 178.62C394.165 176.58 392.485 174.96 390.505 174.96C388.465 174.96 386.845 176.58 386.845 178.62V193.2C386.845 198.12 383.905 201 379.705 201C375.385 201 372.925 198.24 372.925 193.32V178.62C372.925 176.58 371.305 174.96 369.265 174.96C367.285 174.96 365.665 176.58 365.665 178.62V195.48C365.665 202.86 369.805 207.66 376.945 207.66C381.865 207.66 384.805 205.08 386.845 202.08V203.7C386.845 205.74 388.525 207.3 390.505 207.3C392.545 207.3 394.165 205.68 394.165 203.7V178.62ZM426.08 207.6C432.68 207.6 437.84 204.3 437.84 197.64V197.52C437.84 191.82 432.62 189.72 428 188.28C424.28 187.08 420.86 186.12 420.86 183.78V183.66C420.86 181.86 422.48 180.54 425.3 180.54C427.52 180.54 430.16 181.38 432.74 182.7C433.22 182.94 433.58 183.06 434.18 183.06C435.86 183.06 437.18 181.8 437.18 180.12C437.18 178.86 436.46 177.9 435.44 177.36C432.38 175.74 428.84 174.78 425.48 174.78C419.18 174.78 414.2 178.44 414.2 184.44V184.56C414.2 190.62 419.42 192.54 424.1 193.86C427.82 195 431.18 195.84 431.18 198.3V198.42C431.18 200.52 429.38 201.84 426.26 201.84C423.38 201.84 420.2 200.82 417.14 198.78C416.72 198.54 416.18 198.36 415.58 198.36C413.9 198.36 412.64 199.68 412.64 201.3C412.64 202.5 413.24 203.4 414.02 203.82C417.68 206.34 422.06 207.6 426.08 207.6ZM442.279 203.7C442.279 205.74 443.899 207.3 445.879 207.3C447.919 207.3 449.539 205.74 449.539 203.7V189.12C449.539 184.2 452.479 181.26 456.679 181.26C460.999 181.26 463.459 184.08 463.459 189V203.7C463.459 205.74 465.079 207.3 467.119 207.3C469.159 207.3 470.719 205.74 470.719 203.7V186.78C470.719 179.46 466.579 174.66 459.439 174.66C454.519 174.66 451.579 177.24 449.539 180.18V166.5C449.539 164.52 447.919 162.9 445.879 162.9C443.839 162.9 442.279 164.52 442.279 166.5V203.7ZM491.546 207.72C501.326 207.72 508.526 200.22 508.526 191.22V191.1C508.526 182.04 501.386 174.66 491.666 174.66C481.946 174.66 474.746 182.16 474.746 191.22V191.34C474.746 200.34 481.886 207.72 491.546 207.72ZM491.666 201.36C486.026 201.36 482.006 196.74 482.006 191.22V191.1C482.006 185.58 485.726 181.02 491.546 181.02C497.246 181.02 501.266 185.64 501.266 191.22V191.34C501.266 196.8 497.546 201.36 491.666 201.36ZM541.059 178.62C541.059 176.58 539.379 174.96 537.399 174.96C535.359 174.96 533.739 176.58 533.739 178.62V193.2C533.739 198.12 530.799 201 526.599 201C522.279 201 519.819 198.24 519.819 193.32V178.62C519.819 176.58 518.199 174.96 516.159 174.96C514.179 174.96 512.559 176.58 512.559 178.62V195.48C512.559 202.86 516.699 207.66 523.839 207.66C528.759 207.66 531.699 205.08 533.739 202.08V203.7C533.739 205.74 535.419 207.3 537.399 207.3C539.439 207.3 541.059 205.68 541.059 203.7V178.62ZM547.546 203.7C547.546 205.74 549.166 207.3 551.146 207.3C553.186 207.3 554.806 205.74 554.806 203.7V166.5C554.806 164.52 553.186 162.9 551.146 162.9C549.106 162.9 547.546 164.52 547.546 166.5V203.7ZM592.434 166.5C592.434 164.46 590.814 162.9 588.774 162.9C586.794 162.9 585.174 164.46 585.174 166.5V180.24C582.894 177.24 579.594 174.66 574.374 174.66C566.814 174.66 559.674 180.6 559.674 191.1V191.22C559.674 201.72 566.934 207.66 574.374 207.66C579.534 207.66 582.834 205.02 585.174 201.72V203.7C585.174 205.74 586.794 207.3 588.834 207.3C590.814 207.3 592.434 205.74 592.434 203.7V166.5ZM576.114 180.96C580.974 180.96 585.294 184.98 585.294 191.1V191.22C585.294 197.28 580.974 201.36 576.114 201.36C571.194 201.36 566.994 197.34 566.994 191.22V191.1C566.994 184.8 571.134 180.96 576.114 180.96ZM624.157 207.54C626.077 207.54 627.577 207.24 629.137 206.7C630.157 206.28 631.057 205.2 631.057 203.88C631.057 202.2 629.617 200.88 627.997 200.88C627.757 200.88 627.037 201.06 626.197 201.06C623.737 201.06 622.297 199.92 622.297 197.1V181.56H627.997C629.737 181.56 631.177 180.18 631.177 178.44C631.177 176.7 629.737 175.32 627.997 175.32H622.297V169.92C622.297 167.94 620.677 166.32 618.697 166.32C616.657 166.32 615.037 167.94 615.037 169.92V175.32H613.837C612.097 175.32 610.717 176.7 610.717 178.44C610.717 180.18 612.097 181.56 613.837 181.56H615.037V198.24C615.037 205.2 618.817 207.54 624.157 207.54ZM649.386 207.72C659.166 207.72 666.366 200.22 666.366 191.22V191.1C666.366 182.04 659.226 174.66 649.506 174.66C639.786 174.66 632.586 182.16 632.586 191.22V191.34C632.586 200.34 639.726 207.72 649.386 207.72ZM649.506 201.36C643.866 201.36 639.846 196.74 639.846 191.22V191.1C639.846 185.58 643.566 181.02 649.386 181.02C655.086 181.02 659.106 185.64 659.106 191.22V191.34C659.106 196.8 655.386 201.36 649.506 201.36ZM685.819 207.72C695.599 207.72 702.799 200.22 702.799 191.22V191.1C702.799 182.04 695.659 174.66 685.939 174.66C676.219 174.66 669.019 182.16 669.019 191.22V191.34C669.019 200.34 676.159 207.72 685.819 207.72ZM685.939 201.36C680.299 201.36 676.279 196.74 676.279 191.22V191.1C676.279 185.58 679.999 181.02 685.819 181.02C691.519 181.02 695.539 185.64 695.539 191.22V191.34C695.539 196.8 691.819 201.36 685.939 201.36ZM705.301 202.56V203.16C705.301 205.5 707.101 207.3 709.561 207.3C711.961 207.3 713.761 205.5 713.761 203.16V202.56C713.761 200.22 711.961 198.42 709.561 198.42C707.101 198.42 705.301 200.22 705.301 202.56Z" fill="#00E59D"/>
<g filter="url(#filter7_f)">
<path d="M308.22 203.64C308.22 205.68 309.84 207.3 311.88 207.3C313.98 207.3 315.6 205.68 315.6 203.64V190.5L329.94 170.88C330.48 170.16 330.96 169.26 330.96 168.24C330.96 166.26 329.52 164.64 327.36 164.64C325.8 164.64 324.72 165.54 323.82 166.86L311.94 183.78L300.24 166.92C299.34 165.6 298.26 164.7 296.64 164.7C294.54 164.7 292.92 166.26 292.92 168.24C292.92 169.26 293.28 170.1 293.76 170.82L308.22 190.68V203.64ZM344.651 207.72C354.431 207.72 361.631 200.22 361.631 191.22V191.1C361.631 182.04 354.491 174.66 344.771 174.66C335.051 174.66 327.851 182.16 327.851 191.22V191.34C327.851 200.34 334.991 207.72 344.651 207.72ZM344.771 201.36C339.131 201.36 335.111 196.74 335.111 191.22V191.1C335.111 185.58 338.831 181.02 344.651 181.02C350.351 181.02 354.371 185.64 354.371 191.22V191.34C354.371 196.8 350.651 201.36 344.771 201.36ZM394.165 178.62C394.165 176.58 392.485 174.96 390.505 174.96C388.465 174.96 386.845 176.58 386.845 178.62V193.2C386.845 198.12 383.905 201 379.705 201C375.385 201 372.925 198.24 372.925 193.32V178.62C372.925 176.58 371.305 174.96 369.265 174.96C367.285 174.96 365.665 176.58 365.665 178.62V195.48C365.665 202.86 369.805 207.66 376.945 207.66C381.865 207.66 384.805 205.08 386.845 202.08V203.7C386.845 205.74 388.525 207.3 390.505 207.3C392.545 207.3 394.165 205.68 394.165 203.7V178.62ZM426.08 207.6C432.68 207.6 437.84 204.3 437.84 197.64V197.52C437.84 191.82 432.62 189.72 428 188.28C424.28 187.08 420.86 186.12 420.86 183.78V183.66C420.86 181.86 422.48 180.54 425.3 180.54C427.52 180.54 430.16 181.38 432.74 182.7C433.22 182.94 433.58 183.06 434.18 183.06C435.86 183.06 437.18 181.8 437.18 180.12C437.18 178.86 436.46 177.9 435.44 177.36C432.38 175.74 428.84 174.78 425.48 174.78C419.18 174.78 414.2 178.44 414.2 184.44V184.56C414.2 190.62 419.42 192.54 424.1 193.86C427.82 195 431.18 195.84 431.18 198.3V198.42C431.18 200.52 429.38 201.84 426.26 201.84C423.38 201.84 420.2 200.82 417.14 198.78C416.72 198.54 416.18 198.36 415.58 198.36C413.9 198.36 412.64 199.68 412.64 201.3C412.64 202.5 413.24 203.4 414.02 203.82C417.68 206.34 422.06 207.6 426.08 207.6ZM442.279 203.7C442.279 205.74 443.899 207.3 445.879 207.3C447.919 207.3 449.539 205.74 449.539 203.7V189.12C449.539 184.2 452.479 181.26 456.679 181.26C460.999 181.26 463.459 184.08 463.459 189V203.7C463.459 205.74 465.079 207.3 467.119 207.3C469.159 207.3 470.719 205.74 470.719 203.7V186.78C470.719 179.46 466.579 174.66 459.439 174.66C454.519 174.66 451.579 177.24 449.539 180.18V166.5C449.539 164.52 447.919 162.9 445.879 162.9C443.839 162.9 442.279 164.52 442.279 166.5V203.7ZM491.546 207.72C501.326 207.72 508.526 200.22 508.526 191.22V191.1C508.526 182.04 501.386 174.66 491.666 174.66C481.946 174.66 474.746 182.16 474.746 191.22V191.34C474.746 200.34 481.886 207.72 491.546 207.72ZM491.666 201.36C486.026 201.36 482.006 196.74 482.006 191.22V191.1C482.006 185.58 485.726 181.02 491.546 181.02C497.246 181.02 501.266 185.64 501.266 191.22V191.34C501.266 196.8 497.546 201.36 491.666 201.36ZM541.059 178.62C541.059 176.58 539.379 174.96 537.399 174.96C535.359 174.96 533.739 176.58 533.739 178.62V193.2C533.739 198.12 530.799 201 526.599 201C522.279 201 519.819 198.24 519.819 193.32V178.62C519.819 176.58 518.199 174.96 516.159 174.96C514.179 174.96 512.559 176.58 512.559 178.62V195.48C512.559 202.86 516.699 207.66 523.839 207.66C528.759 207.66 531.699 205.08 533.739 202.08V203.7C533.739 205.74 535.419 207.3 537.399 207.3C539.439 207.3 541.059 205.68 541.059 203.7V178.62ZM547.546 203.7C547.546 205.74 549.166 207.3 551.146 207.3C553.186 207.3 554.806 205.74 554.806 203.7V166.5C554.806 164.52 553.186 162.9 551.146 162.9C549.106 162.9 547.546 164.52 547.546 166.5V203.7ZM592.434 166.5C592.434 164.46 590.814 162.9 588.774 162.9C586.794 162.9 585.174 164.46 585.174 166.5V180.24C582.894 177.24 579.594 174.66 574.374 174.66C566.814 174.66 559.674 180.6 559.674 191.1V191.22C559.674 201.72 566.934 207.66 574.374 207.66C579.534 207.66 582.834 205.02 585.174 201.72V203.7C585.174 205.74 586.794 207.3 588.834 207.3C590.814 207.3 592.434 205.74 592.434 203.7V166.5ZM576.114 180.96C580.974 180.96 585.294 184.98 585.294 191.1V191.22C585.294 197.28 580.974 201.36 576.114 201.36C571.194 201.36 566.994 197.34 566.994 191.22V191.1C566.994 184.8 571.134 180.96 576.114 180.96ZM624.157 207.54C626.077 207.54 627.577 207.24 629.137 206.7C630.157 206.28 631.057 205.2 631.057 203.88C631.057 202.2 629.617 200.88 627.997 200.88C627.757 200.88 627.037 201.06 626.197 201.06C623.737 201.06 622.297 199.92 622.297 197.1V181.56H627.997C629.737 181.56 631.177 180.18 631.177 178.44C631.177 176.7 629.737 175.32 627.997 175.32H622.297V169.92C622.297 167.94 620.677 166.32 618.697 166.32C616.657 166.32 615.037 167.94 615.037 169.92V175.32H613.837C612.097 175.32 610.717 176.7 610.717 178.44C610.717 180.18 612.097 181.56 613.837 181.56H615.037V198.24C615.037 205.2 618.817 207.54 624.157 207.54ZM649.386 207.72C659.166 207.72 666.366 200.22 666.366 191.22V191.1C666.366 182.04 659.226 174.66 649.506 174.66C639.786 174.66 632.586 182.16 632.586 191.22V191.34C632.586 200.34 639.726 207.72 649.386 207.72ZM649.506 201.36C643.866 201.36 639.846 196.74 639.846 191.22V191.1C639.846 185.58 643.566 181.02 649.386 181.02C655.086 181.02 659.106 185.64 659.106 191.22V191.34C659.106 196.8 655.386 201.36 649.506 201.36ZM685.819 207.72C695.599 207.72 702.799 200.22 702.799 191.22V191.1C702.799 182.04 695.659 174.66 685.939 174.66C676.219 174.66 669.019 182.16 669.019 191.22V191.34C669.019 200.34 676.159 207.72 685.819 207.72ZM685.939 201.36C680.299 201.36 676.279 196.74 676.279 191.22V191.1C676.279 185.58 679.999 181.02 685.819 181.02C691.519 181.02 695.539 185.64 695.539 191.22V191.34C695.539 196.8 691.819 201.36 685.939 201.36ZM705.301 202.56V203.16C705.301 205.5 707.101 207.3 709.561 207.3C711.961 207.3 713.761 205.5 713.761 203.16V202.56C713.761 200.22 711.961 198.42 709.561 198.42C707.101 198.42 705.301 200.22 705.301 202.56Z" fill="#00E59D"/>
</g>
</g>
<defs>
<filter id="filter0_f" x="41.0312" y="137.035" width="130.929" height="214.314" filterUnits="userSpaceOnUse" color-interpolation-filters="sRGB">
<feFlood flood-opacity="0" result="BackgroundImageFix"/>
<feBlend mode="normal" in="SourceGraphic" in2="BackgroundImageFix" result="shape"/>
<feGaussianBlur stdDeviation="5" result="effect1_foregroundBlur"/>
</filter>
<filter id="filter1_d" x="117.49" y="152.961" width="63" height="63" filterUnits="userSpaceOnUse" color-interpolation-filters="sRGB">
<feFlood flood-opacity="0" result="BackgroundImageFix"/>
<feColorMatrix in="SourceAlpha" type="matrix" values="0 0 0 0 0 0 0 0 0 0 0 0 0 0 0 0 0 0 127 0" result="hardAlpha"/>
<feOffset/>
<feGaussianBlur stdDeviation="10"/>
<feComposite in2="hardAlpha" operator="out"/>
<feColorMatrix type="matrix" values="0 0 0 0 0 0 0 0 0 0 0 0 0 0 0 0 0 0 0.5 0"/>
<feBlend mode="normal" in2="BackgroundImageFix" result="effect1_dropShadow"/>
<feBlend mode="normal" in="SourceGraphic" in2="effect1_dropShadow" result="shape"/>
</filter>
<filter id="filter2_d" x="137.49" y="152.961" width="70" height="70" filterUnits="userSpaceOnUse" color-interpolation-filters="sRGB">
<feFlood flood-opacity="0" result="BackgroundImageFix"/>
<feColorMatrix in="SourceAlpha" type="matrix" values="0 0 0 0 0 0 0 0 0 0 0 0 0 0 0 0 0 0 127 0" result="hardAlpha"/>
<feOffset/>
<feGaussianBlur stdDeviation="10"/>
<feComposite in2="hardAlpha" operator="out"/>
<feColorMatrix type="matrix" values="0 0 0 0 0 0 0 0 0 0 0 0 0 0 0 0 0 0 0.5 0"/>
<feBlend mode="normal" in2="BackgroundImageFix" result="effect1_dropShadow"/>
<feBlend mode="normal" in="SourceGraphic" in2="effect1_dropShadow" result="shape"/>
</filter>
<filter id="filter3_d" x="162.49" y="132.961" width="85" height="85" filterUnits="userSpaceOnUse" color-interpolation-filters="sRGB">
<feFlood flood-opacity="0" result="BackgroundImageFix"/>
<feColorMatrix in="SourceAlpha" type="matrix" values="0 0 0 0 0 0 0 0 0 0 0 0 0 0 0 0 0 0 127 0" result="hardAlpha"/>
<feOffset/>
<feGaussianBlur stdDeviation="10"/>
<feComposite in2="hardAlpha" operator="out"/>
<feColorMatrix type="matrix" values="0 0 0 0 0 0 0 0 0 0 0 0 0 0 0 0 0 0 0.5 0"/>
<feBlend mode="normal" in2="BackgroundImageFix" result="effect1_dropShadow"/>
<feBlend mode="normal" in="SourceGraphic" in2="effect1_dropShadow" result="shape"/>
</filter>
<filter id="filter4_d" x="157.49" y="62.9609" width="160" height="160" filterUnits="userSpaceOnUse" color-interpolation-filters="sRGB">
<feFlood flood-opacity="0" result="BackgroundImageFix"/>
<feColorMatrix in="SourceAlpha" type="matrix" values="0 0 0 0 0 0 0 0 0 0 0 0 0 0 0 0 0 0 127 0" result="hardAlpha"/>
<feOffset/>
<feGaussianBlur stdDeviation="25"/>
<feComposite in2="hardAlpha" operator="out"/>
<feColorMatrix type="matrix" values="0 0 0 0 0 0 0 0 0 0 0 0 0 0 0 0 0 0 0.5 0"/>
<feBlend mode="normal" in2="BackgroundImageFix" result="effect1_dropShadow"/>
<feBlend mode="normal" in="SourceGraphic" in2="effect1_dropShadow" result="shape"/>
</filter>
<filter id="filter5_d" x="228" y="10" width="549" height="280" filterUnits="userSpaceOnUse" color-interpolation-filters="sRGB">
<feFlood flood-opacity="0" result="BackgroundImageFix"/>
<feColorMatrix in="SourceAlpha" type="matrix" values="0 0 0 0 0 0 0 0 0 0 0 0 0 0 0 0 0 0 127 0" result="hardAlpha"/>
<feOffset/>
<feGaussianBlur stdDeviation="15"/>
<feComposite in2="hardAlpha" operator="out"/>
<feColorMatrix type="matrix" values="0 0 0 0 0 0 0 0 0 0 0 0 0 0 0 0 0 0 0.5 0"/>
<feBlend mode="normal" in2="BackgroundImageFix" result="effect1_dropShadow"/>
<feBlend mode="normal" in="SourceGraphic" in2="effect1_dropShadow" result="shape"/>
</filter>
<filter id="filter6_f" x="271.54" y="68.9004" width="478.393" height="84.8203" filterUnits="userSpaceOnUse" color-interpolation-filters="sRGB">
<feFlood flood-opacity="0" result="BackgroundImageFix"/>
<feBlend mode="normal" in="SourceGraphic" in2="BackgroundImageFix" result="shape"/>
<feGaussianBlur stdDeviation="10" result="effect1_foregroundBlur"/>
</filter>
<filter id="filter7_f" x="272.92" y="142.9" width="460.841" height="84.8203" filterUnits="userSpaceOnUse" color-interpolation-filters="sRGB">
<feFlood flood-opacity="0" result="BackgroundImageFix"/>
<feBlend mode="normal" in="SourceGraphic" in2="BackgroundImageFix" result="shape"/>
<feGaussianBlur stdDeviation="10" result="effect1_foregroundBlur"/>
</filter>
<clipPath id="clip0">
<rect width="764" height="300" fill="white"/>
</clipPath>
</defs>
</svg>
