<svg width="513" height="68" viewBox="0 0 513 68" fill="none" xmlns="http://www.w3.org/2000/svg">
<path d="M32.94 52.432C37.008 52.432 39.708 51.136 42.084 49.048C42.48 48.688 42.804 48.148 42.804 47.464C42.804 46.348 41.832 45.412 40.716 45.412C40.176 45.412 39.708 45.628 39.384 45.916C37.548 47.464 35.748 48.328 33.084 48.328C28.26 48.328 24.768 44.332 24.768 39.4V39.328C24.768 34.396 28.296 30.436 33.084 30.436C35.496 30.436 37.368 31.3 39.096 32.704C39.384 32.92 39.816 33.136 40.428 33.136C41.652 33.136 42.624 32.2 42.624 30.976C42.624 30.184 42.228 29.572 41.76 29.212C39.564 27.52 37.008 26.368 33.12 26.368C25.488 26.368 20.124 32.236 20.124 39.4V39.472C20.124 46.708 25.596 52.432 32.94 52.432ZM45.5141 50.02C45.5141 51.244 46.4861 52.18 47.6741 52.18C48.8981 52.18 49.8701 51.208 49.8701 50.02V44.404C49.8701 39.904 51.9941 37.528 55.0901 36.988C56.0621 36.808 56.8181 36.052 56.8181 34.9C56.8181 33.64 56.0261 32.74 54.6581 32.74C52.7501 32.74 50.8781 34.54 49.8701 36.916V34.972C49.8701 33.748 48.8981 32.776 47.6741 32.776C46.4501 32.776 45.5141 33.748 45.5141 34.972V50.02ZM61.2284 41.164C61.6244 38.212 63.4964 36.16 66.1604 36.16C69.0404 36.16 70.6964 38.356 70.9844 41.164H61.2284ZM73.5044 49.912C73.8284 49.588 74.0804 49.12 74.0804 48.58C74.0804 47.572 73.3244 46.816 72.3524 46.816C71.8484 46.816 71.5604 46.96 71.2364 47.212C70.0124 48.22 68.5724 48.868 66.7364 48.868C63.9284 48.868 61.7324 47.14 61.2644 44.044H73.1804C74.2964 44.044 75.2324 43.18 75.2324 41.956C75.2324 37.564 72.2444 32.596 66.1964 32.596C60.7604 32.596 56.9084 37.06 56.9084 42.496V42.568C56.9084 48.436 61.1564 52.432 66.6644 52.432C69.6164 52.432 71.7764 51.46 73.5044 49.912ZM83.351 52.396C86.267 52.396 88.247 51.172 89.543 49.624V50.344C89.543 51.316 90.407 52.18 91.667 52.18C92.855 52.18 93.791 51.28 93.791 50.092V40.732C93.791 38.248 93.143 36.232 91.739 34.864C90.407 33.496 88.283 32.74 85.439 32.74C82.955 32.74 81.119 33.172 79.319 33.856C78.671 34.108 78.131 34.792 78.131 35.584C78.131 36.592 78.959 37.384 79.967 37.384C80.183 37.384 80.399 37.348 80.651 37.276C81.839 36.808 83.207 36.52 84.863 36.52C87.923 36.52 89.579 37.96 89.579 40.66V41.128C88.103 40.66 86.591 40.336 84.467 40.336C79.823 40.336 76.619 42.352 76.619 46.456V46.528C76.619 50.344 79.787 52.396 83.351 52.396ZM84.575 49.228C82.487 49.228 80.867 48.184 80.867 46.348V46.276C80.867 44.296 82.523 43.108 85.331 43.108C87.059 43.108 88.535 43.432 89.651 43.864V45.16C89.651 47.572 87.455 49.228 84.575 49.228ZM103.404 52.324C104.556 52.324 105.456 52.144 106.392 51.82C107.004 51.568 107.544 50.92 107.544 50.128C107.544 49.12 106.68 48.328 105.708 48.328C105.564 48.328 105.132 48.436 104.628 48.436C103.152 48.436 102.288 47.752 102.288 46.06V36.736H105.708C106.752 36.736 107.616 35.908 107.616 34.864C107.616 33.82 106.752 32.992 105.708 32.992H102.288V29.752C102.288 28.564 101.316 27.592 100.128 27.592C98.9041 27.592 97.9321 28.564 97.9321 29.752V32.992H97.2121C96.1681 32.992 95.3401 33.82 95.3401 34.864C95.3401 35.908 96.1681 36.736 97.2121 36.736H97.9321V46.744C97.9321 50.92 100.2 52.324 103.404 52.324ZM112.782 41.164C113.178 38.212 115.05 36.16 117.714 36.16C120.594 36.16 122.25 38.356 122.538 41.164H112.782ZM125.058 49.912C125.382 49.588 125.634 49.12 125.634 48.58C125.634 47.572 124.878 46.816 123.906 46.816C123.402 46.816 123.114 46.96 122.79 47.212C121.566 48.22 120.126 48.868 118.29 48.868C115.482 48.868 113.286 47.14 112.818 44.044H124.734C125.85 44.044 126.786 43.18 126.786 41.956C126.786 37.564 123.798 32.596 117.75 32.596C112.314 32.596 108.462 37.06 108.462 42.496V42.568C108.462 48.436 112.71 52.432 118.218 52.432C121.17 52.432 123.33 51.46 125.058 49.912ZM143.897 52.396C146.813 52.396 148.793 51.172 150.089 49.624V50.344C150.089 51.316 150.953 52.18 152.213 52.18C153.401 52.18 154.337 51.28 154.337 50.092V40.732C154.337 38.248 153.689 36.232 152.285 34.864C150.953 33.496 148.829 32.74 145.985 32.74C143.501 32.74 141.665 33.172 139.865 33.856C139.217 34.108 138.677 34.792 138.677 35.584C138.677 36.592 139.505 37.384 140.513 37.384C140.729 37.384 140.945 37.348 141.197 37.276C142.385 36.808 143.753 36.52 145.409 36.52C148.469 36.52 150.125 37.96 150.125 40.66V41.128C148.649 40.66 147.137 40.336 145.013 40.336C140.369 40.336 137.165 42.352 137.165 46.456V46.528C137.165 50.344 140.333 52.396 143.897 52.396ZM145.121 49.228C143.033 49.228 141.413 48.184 141.413 46.348V46.276C141.413 44.296 143.069 43.108 145.877 43.108C147.605 43.108 149.081 43.432 150.197 43.864V45.16C150.197 47.572 148.001 49.228 145.121 49.228ZM167.251 49.984C167.251 51.208 168.223 52.18 169.483 52.18C170.707 52.18 171.679 51.208 171.679 49.984V41.74H182.551C183.667 41.74 184.567 40.84 184.567 39.724C184.567 38.608 183.667 37.708 182.551 37.708H171.679V30.832H184.171C185.287 30.832 186.187 29.932 186.187 28.816C186.187 27.7 185.287 26.8 184.171 26.8H169.483C168.223 26.8 167.251 27.772 167.251 29.032V49.984ZM193.13 52.396C196.046 52.396 198.026 51.172 199.322 49.624V50.344C199.322 51.316 200.186 52.18 201.446 52.18C202.634 52.18 203.57 51.28 203.57 50.092V40.732C203.57 38.248 202.922 36.232 201.518 34.864C200.186 33.496 198.062 32.74 195.218 32.74C192.734 32.74 190.898 33.172 189.098 33.856C188.45 34.108 187.91 34.792 187.91 35.584C187.91 36.592 188.738 37.384 189.746 37.384C189.962 37.384 190.178 37.348 190.43 37.276C191.618 36.808 192.986 36.52 194.642 36.52C197.702 36.52 199.358 37.96 199.358 40.66V41.128C197.882 40.66 196.37 40.336 194.246 40.336C189.602 40.336 186.398 42.352 186.398 46.456V46.528C186.398 50.344 189.566 52.396 193.13 52.396ZM194.354 49.228C192.266 49.228 190.646 48.184 190.646 46.348V46.276C190.646 44.296 192.302 43.108 195.11 43.108C196.838 43.108 198.314 43.432 199.43 43.864V45.16C199.43 47.572 197.234 49.228 194.354 49.228ZM206.915 28.096C206.915 29.392 207.995 30.256 209.399 30.256C210.803 30.256 211.883 29.392 211.883 28.096V27.88C211.883 26.584 210.803 25.756 209.399 25.756C207.995 25.756 206.915 26.584 206.915 27.88V28.096ZM207.239 50.02C207.239 51.244 208.211 52.18 209.399 52.18C210.623 52.18 211.595 51.244 211.595 50.02V34.972C211.595 33.748 210.623 32.776 209.399 32.776C208.175 32.776 207.239 33.748 207.239 34.972V50.02ZM215.488 50.02C215.488 51.244 216.46 52.18 217.648 52.18C218.872 52.18 219.844 51.208 219.844 50.02V44.404C219.844 39.904 221.968 37.528 225.064 36.988C226.036 36.808 226.792 36.052 226.792 34.9C226.792 33.64 226 32.74 224.632 32.74C222.724 32.74 220.852 34.54 219.844 36.916V34.972C219.844 33.748 218.872 32.776 217.648 32.776C216.424 32.776 215.488 33.748 215.488 34.972V50.02ZM238.056 49.768C238.056 51.028 239.028 52 240.288 52H253.896C255.012 52 255.912 51.1 255.912 49.984C255.912 48.868 255.012 47.968 253.896 47.968H242.484V28.816C242.484 27.592 241.512 26.62 240.288 26.62C239.028 26.62 238.056 27.592 238.056 28.816V49.768ZM263.513 52.396C266.429 52.396 268.409 51.172 269.705 49.624V50.344C269.705 51.316 270.569 52.18 271.829 52.18C273.017 52.18 273.953 51.28 273.953 50.092V40.732C273.953 38.248 273.305 36.232 271.901 34.864C270.569 33.496 268.445 32.74 265.601 32.74C263.117 32.74 261.281 33.172 259.481 33.856C258.833 34.108 258.293 34.792 258.293 35.584C258.293 36.592 259.121 37.384 260.129 37.384C260.345 37.384 260.561 37.348 260.813 37.276C262.001 36.808 263.369 36.52 265.025 36.52C268.085 36.52 269.741 37.96 269.741 40.66V41.128C268.265 40.66 266.753 40.336 264.629 40.336C259.985 40.336 256.781 42.352 256.781 46.456V46.528C256.781 50.344 259.949 52.396 263.513 52.396ZM264.737 49.228C262.649 49.228 261.029 48.184 261.029 46.348V46.276C261.029 44.296 262.685 43.108 265.493 43.108C267.221 43.108 268.697 43.432 269.813 43.864V45.16C269.813 47.572 267.617 49.228 264.737 49.228ZM294.254 34.972C294.254 33.748 293.246 32.776 292.058 32.776C290.834 32.776 289.862 33.748 289.862 34.972V43.72C289.862 46.672 288.098 48.4 285.578 48.4C282.986 48.4 281.51 46.744 281.51 43.792V34.972C281.51 33.748 280.538 32.776 279.314 32.776C278.126 32.776 277.154 33.748 277.154 34.972V45.088C277.154 49.516 279.638 52.396 283.922 52.396C286.874 52.396 288.638 50.848 289.862 49.048V50.02C289.862 51.244 290.87 52.18 292.058 52.18C293.282 52.18 294.254 51.208 294.254 50.02V34.972ZM297.894 50.02C297.894 51.244 298.866 52.18 300.054 52.18C301.278 52.18 302.25 51.244 302.25 50.02V41.272C302.25 38.32 304.014 36.556 306.534 36.556C309.126 36.556 310.602 38.248 310.602 41.2V50.02C310.602 51.244 311.574 52.18 312.798 52.18C314.022 52.18 314.958 51.244 314.958 50.02V39.868C314.958 35.476 312.474 32.596 308.19 32.596C305.238 32.596 303.474 34.144 302.25 35.908V34.972C302.25 33.748 301.278 32.776 300.054 32.776C298.83 32.776 297.894 33.748 297.894 34.972V50.02ZM327.202 52.432C330.37 52.432 332.422 51.352 334.114 49.732C334.51 49.408 334.726 48.94 334.726 48.364C334.726 47.32 333.898 46.456 332.854 46.456C332.35 46.456 331.918 46.708 331.666 46.924C330.478 47.932 329.146 48.616 327.418 48.616C324.07 48.616 321.73 45.916 321.73 42.532V42.46C321.73 39.148 324.07 36.412 327.238 36.412C328.966 36.412 330.19 37.096 331.306 38.032C331.594 38.248 332.062 38.464 332.602 38.464C333.718 38.464 334.618 37.6 334.618 36.484C334.618 35.764 334.222 35.224 333.934 34.972C332.314 33.568 330.262 32.596 327.274 32.596C321.55 32.596 317.374 37.132 317.374 42.532V42.604C317.374 48.004 321.55 52.432 327.202 52.432ZM337.184 50.02C337.184 51.244 338.156 52.18 339.344 52.18C340.568 52.18 341.54 51.244 341.54 50.02V41.272C341.54 38.32 343.304 36.556 345.824 36.556C348.416 36.556 349.892 38.248 349.892 41.2V50.02C349.892 51.244 350.864 52.18 352.088 52.18C353.312 52.18 354.248 51.244 354.248 50.02V39.868C354.248 35.476 351.764 32.596 347.48 32.596C344.528 32.596 342.764 34.144 341.54 35.908V27.7C341.54 26.512 340.568 25.54 339.344 25.54C338.12 25.54 337.184 26.512 337.184 27.7V50.02ZM365.478 50.128C365.478 51.28 366.378 52.18 367.53 52.18C368.466 52.18 369.222 51.676 369.582 50.776L371.706 45.916H383.946L385.998 50.632C386.394 51.568 387.114 52.18 388.158 52.18C389.346 52.18 390.246 51.244 390.246 50.056C390.246 49.768 390.174 49.444 389.994 49.12L380.634 28.24C380.13 27.124 379.266 26.44 378.006 26.44H377.79C376.53 26.44 375.63 27.124 375.126 28.24L365.766 49.12C365.586 49.48 365.478 49.804 365.478 50.128ZM373.398 41.992L377.826 31.804L382.254 41.992H373.398ZM409.383 34.972C409.383 33.748 408.375 32.776 407.187 32.776C405.963 32.776 404.991 33.748 404.991 34.972V43.72C404.991 46.672 403.227 48.4 400.707 48.4C398.115 48.4 396.639 46.744 396.639 43.792V34.972C396.639 33.748 395.667 32.776 394.443 32.776C393.255 32.776 392.283 33.748 392.283 34.972V45.088C392.283 49.516 394.767 52.396 399.051 52.396C402.003 52.396 403.767 50.848 404.991 49.048V50.02C404.991 51.244 405.999 52.18 407.187 52.18C408.411 52.18 409.383 51.208 409.383 50.02V34.972ZM421.808 52.432C424.976 52.432 427.028 51.352 428.72 49.732C429.116 49.408 429.332 48.94 429.332 48.364C429.332 47.32 428.504 46.456 427.46 46.456C426.956 46.456 426.524 46.708 426.272 46.924C425.084 47.932 423.752 48.616 422.024 48.616C418.676 48.616 416.336 45.916 416.336 42.532V42.46C416.336 39.148 418.676 36.412 421.844 36.412C423.572 36.412 424.796 37.096 425.912 38.032C426.2 38.248 426.668 38.464 427.208 38.464C428.324 38.464 429.224 37.6 429.224 36.484C429.224 35.764 428.828 35.224 428.54 34.972C426.92 33.568 424.868 32.596 421.88 32.596C416.156 32.596 411.98 37.132 411.98 42.532V42.604C411.98 48.004 416.156 52.432 421.808 52.432ZM438.162 52.324C439.314 52.324 440.214 52.144 441.15 51.82C441.762 51.568 442.302 50.92 442.302 50.128C442.302 49.12 441.438 48.328 440.466 48.328C440.322 48.328 439.89 48.436 439.386 48.436C437.91 48.436 437.046 47.752 437.046 46.06V36.736H440.466C441.51 36.736 442.374 35.908 442.374 34.864C442.374 33.82 441.51 32.992 440.466 32.992H437.046V29.752C437.046 28.564 436.074 27.592 434.886 27.592C433.662 27.592 432.69 28.564 432.69 29.752V32.992H431.97C430.926 32.992 430.098 33.82 430.098 34.864C430.098 35.908 430.926 36.736 431.97 36.736H432.69V46.744C432.69 50.92 434.958 52.324 438.162 52.324ZM444.719 28.096C444.719 29.392 445.799 30.256 447.203 30.256C448.607 30.256 449.687 29.392 449.687 28.096V27.88C449.687 26.584 448.607 25.756 447.203 25.756C445.799 25.756 444.719 26.584 444.719 27.88V28.096ZM445.043 50.02C445.043 51.244 446.015 52.18 447.203 52.18C448.427 52.18 449.399 51.244 449.399 50.02V34.972C449.399 33.748 448.427 32.776 447.203 32.776C445.979 32.776 445.043 33.748 445.043 34.972V50.02ZM462.327 52.432C468.195 52.432 472.515 47.932 472.515 42.532V42.46C472.515 37.024 468.231 32.596 462.399 32.596C456.567 32.596 452.247 37.096 452.247 42.532V42.604C452.247 48.004 456.531 52.432 462.327 52.432ZM462.399 48.616C459.015 48.616 456.603 45.844 456.603 42.532V42.46C456.603 39.148 458.835 36.412 462.327 36.412C465.747 36.412 468.159 39.184 468.159 42.532V42.604C468.159 45.88 465.927 48.616 462.399 48.616ZM475.152 50.02C475.152 51.244 476.124 52.18 477.312 52.18C478.536 52.18 479.508 51.244 479.508 50.02V41.272C479.508 38.32 481.272 36.556 483.792 36.556C486.384 36.556 487.86 38.248 487.86 41.2V50.02C487.86 51.244 488.832 52.18 490.056 52.18C491.28 52.18 492.216 51.244 492.216 50.02V39.868C492.216 35.476 489.732 32.596 485.448 32.596C482.496 32.596 480.732 34.144 479.508 35.908V34.972C479.508 33.748 478.536 32.776 477.312 32.776C476.088 32.776 475.152 33.748 475.152 34.972V50.02Z" fill="black"/>
<path d="M32.94 47.432C37.008 47.432 39.708 46.136 42.084 44.048C42.48 43.688 42.804 43.148 42.804 42.464C42.804 41.348 41.832 40.412 40.716 40.412C40.176 40.412 39.708 40.628 39.384 40.916C37.548 42.464 35.748 43.328 33.084 43.328C28.26 43.328 24.768 39.332 24.768 34.4V34.328C24.768 29.396 28.296 25.436 33.084 25.436C35.496 25.436 37.368 26.3 39.096 27.704C39.384 27.92 39.816 28.136 40.428 28.136C41.652 28.136 42.624 27.2 42.624 25.976C42.624 25.184 42.228 24.572 41.76 24.212C39.564 22.52 37.008 21.368 33.12 21.368C25.488 21.368 20.124 27.236 20.124 34.4V34.472C20.124 41.708 25.596 47.432 32.94 47.432ZM45.5141 45.02C45.5141 46.244 46.4861 47.18 47.6741 47.18C48.8981 47.18 49.8701 46.208 49.8701 45.02V39.404C49.8701 34.904 51.9941 32.528 55.0901 31.988C56.0621 31.808 56.8181 31.052 56.8181 29.9C56.8181 28.64 56.0261 27.74 54.6581 27.74C52.7501 27.74 50.8781 29.54 49.8701 31.916V29.972C49.8701 28.748 48.8981 27.776 47.6741 27.776C46.4501 27.776 45.5141 28.748 45.5141 29.972V45.02ZM61.2284 36.164C61.6244 33.212 63.4964 31.16 66.1604 31.16C69.0404 31.16 70.6964 33.356 70.9844 36.164H61.2284ZM73.5044 44.912C73.8284 44.588 74.0804 44.12 74.0804 43.58C74.0804 42.572 73.3244 41.816 72.3524 41.816C71.8484 41.816 71.5604 41.96 71.2364 42.212C70.0124 43.22 68.5724 43.868 66.7364 43.868C63.9284 43.868 61.7324 42.14 61.2644 39.044H73.1804C74.2964 39.044 75.2324 38.18 75.2324 36.956C75.2324 32.564 72.2444 27.596 66.1964 27.596C60.7604 27.596 56.9084 32.06 56.9084 37.496V37.568C56.9084 43.436 61.1564 47.432 66.6644 47.432C69.6164 47.432 71.7764 46.46 73.5044 44.912ZM83.351 47.396C86.267 47.396 88.247 46.172 89.543 44.624V45.344C89.543 46.316 90.407 47.18 91.667 47.18C92.855 47.18 93.791 46.28 93.791 45.092V35.732C93.791 33.248 93.143 31.232 91.739 29.864C90.407 28.496 88.283 27.74 85.439 27.74C82.955 27.74 81.119 28.172 79.319 28.856C78.671 29.108 78.131 29.792 78.131 30.584C78.131 31.592 78.959 32.384 79.967 32.384C80.183 32.384 80.399 32.348 80.651 32.276C81.839 31.808 83.207 31.52 84.863 31.52C87.923 31.52 89.579 32.96 89.579 35.66V36.128C88.103 35.66 86.591 35.336 84.467 35.336C79.823 35.336 76.619 37.352 76.619 41.456V41.528C76.619 45.344 79.787 47.396 83.351 47.396ZM84.575 44.228C82.487 44.228 80.867 43.184 80.867 41.348V41.276C80.867 39.296 82.523 38.108 85.331 38.108C87.059 38.108 88.535 38.432 89.651 38.864V40.16C89.651 42.572 87.455 44.228 84.575 44.228ZM103.404 47.324C104.556 47.324 105.456 47.144 106.392 46.82C107.004 46.568 107.544 45.92 107.544 45.128C107.544 44.12 106.68 43.328 105.708 43.328C105.564 43.328 105.132 43.436 104.628 43.436C103.152 43.436 102.288 42.752 102.288 41.06V31.736H105.708C106.752 31.736 107.616 30.908 107.616 29.864C107.616 28.82 106.752 27.992 105.708 27.992H102.288V24.752C102.288 23.564 101.316 22.592 100.128 22.592C98.9041 22.592 97.9321 23.564 97.9321 24.752V27.992H97.2121C96.1681 27.992 95.3401 28.82 95.3401 29.864C95.3401 30.908 96.1681 31.736 97.2121 31.736H97.9321V41.744C97.9321 45.92 100.2 47.324 103.404 47.324ZM112.782 36.164C113.178 33.212 115.05 31.16 117.714 31.16C120.594 31.16 122.25 33.356 122.538 36.164H112.782ZM125.058 44.912C125.382 44.588 125.634 44.12 125.634 43.58C125.634 42.572 124.878 41.816 123.906 41.816C123.402 41.816 123.114 41.96 122.79 42.212C121.566 43.22 120.126 43.868 118.29 43.868C115.482 43.868 113.286 42.14 112.818 39.044H124.734C125.85 39.044 126.786 38.18 126.786 36.956C126.786 32.564 123.798 27.596 117.75 27.596C112.314 27.596 108.462 32.06 108.462 37.496V37.568C108.462 43.436 112.71 47.432 118.218 47.432C121.17 47.432 123.33 46.46 125.058 44.912ZM143.897 47.396C146.813 47.396 148.793 46.172 150.089 44.624V45.344C150.089 46.316 150.953 47.18 152.213 47.18C153.401 47.18 154.337 46.28 154.337 45.092V35.732C154.337 33.248 153.689 31.232 152.285 29.864C150.953 28.496 148.829 27.74 145.985 27.74C143.501 27.74 141.665 28.172 139.865 28.856C139.217 29.108 138.677 29.792 138.677 30.584C138.677 31.592 139.505 32.384 140.513 32.384C140.729 32.384 140.945 32.348 141.197 32.276C142.385 31.808 143.753 31.52 145.409 31.52C148.469 31.52 150.125 32.96 150.125 35.66V36.128C148.649 35.66 147.137 35.336 145.013 35.336C140.369 35.336 137.165 37.352 137.165 41.456V41.528C137.165 45.344 140.333 47.396 143.897 47.396ZM145.121 44.228C143.033 44.228 141.413 43.184 141.413 41.348V41.276C141.413 39.296 143.069 38.108 145.877 38.108C147.605 38.108 149.081 38.432 150.197 38.864V40.16C150.197 42.572 148.001 44.228 145.121 44.228Z" fill="#00E59D"/>
<path d="M167.251 44.984C167.251 46.208 168.223 47.18 169.483 47.18C170.707 47.18 171.679 46.208 171.679 44.984V36.74H182.551C183.667 36.74 184.567 35.84 184.567 34.724C184.567 33.608 183.667 32.708 182.551 32.708H171.679V25.832H184.171C185.287 25.832 186.187 24.932 186.187 23.816C186.187 22.7 185.287 21.8 184.171 21.8H169.483C168.223 21.8 167.251 22.772 167.251 24.032V44.984ZM193.13 47.396C196.046 47.396 198.026 46.172 199.322 44.624V45.344C199.322 46.316 200.186 47.18 201.446 47.18C202.634 47.18 203.57 46.28 203.57 45.092V35.732C203.57 33.248 202.922 31.232 201.518 29.864C200.186 28.496 198.062 27.74 195.218 27.74C192.734 27.74 190.898 28.172 189.098 28.856C188.45 29.108 187.91 29.792 187.91 30.584C187.91 31.592 188.738 32.384 189.746 32.384C189.962 32.384 190.178 32.348 190.43 32.276C191.618 31.808 192.986 31.52 194.642 31.52C197.702 31.52 199.358 32.96 199.358 35.66V36.128C197.882 35.66 196.37 35.336 194.246 35.336C189.602 35.336 186.398 37.352 186.398 41.456V41.528C186.398 45.344 189.566 47.396 193.13 47.396ZM194.354 44.228C192.266 44.228 190.646 43.184 190.646 41.348V41.276C190.646 39.296 192.302 38.108 195.11 38.108C196.838 38.108 198.314 38.432 199.43 38.864V40.16C199.43 42.572 197.234 44.228 194.354 44.228ZM206.915 23.096C206.915 24.392 207.995 25.256 209.399 25.256C210.803 25.256 211.883 24.392 211.883 23.096V22.88C211.883 21.584 210.803 20.756 209.399 20.756C207.995 20.756 206.915 21.584 206.915 22.88V23.096ZM207.239 45.02C207.239 46.244 208.211 47.18 209.399 47.18C210.623 47.18 211.595 46.244 211.595 45.02V29.972C211.595 28.748 210.623 27.776 209.399 27.776C208.175 27.776 207.239 28.748 207.239 29.972V45.02ZM215.488 45.02C215.488 46.244 216.46 47.18 217.648 47.18C218.872 47.18 219.844 46.208 219.844 45.02V39.404C219.844 34.904 221.968 32.528 225.064 31.988C226.036 31.808 226.792 31.052 226.792 29.9C226.792 28.64 226 27.74 224.632 27.74C222.724 27.74 220.852 29.54 219.844 31.916V29.972C219.844 28.748 218.872 27.776 217.648 27.776C216.424 27.776 215.488 28.748 215.488 29.972V45.02ZM238.056 44.768C238.056 46.028 239.028 47 240.288 47H253.896C255.012 47 255.912 46.1 255.912 44.984C255.912 43.868 255.012 42.968 253.896 42.968H242.484V23.816C242.484 22.592 241.512 21.62 240.288 21.62C239.028 21.62 238.056 22.592 238.056 23.816V44.768ZM263.513 47.396C266.429 47.396 268.409 46.172 269.705 44.624V45.344C269.705 46.316 270.569 47.18 271.829 47.18C273.017 47.18 273.953 46.28 273.953 45.092V35.732C273.953 33.248 273.305 31.232 271.901 29.864C270.569 28.496 268.445 27.74 265.601 27.74C263.117 27.74 261.281 28.172 259.481 28.856C258.833 29.108 258.293 29.792 258.293 30.584C258.293 31.592 259.121 32.384 260.129 32.384C260.345 32.384 260.561 32.348 260.813 32.276C262.001 31.808 263.369 31.52 265.025 31.52C268.085 31.52 269.741 32.96 269.741 35.66V36.128C268.265 35.66 266.753 35.336 264.629 35.336C259.985 35.336 256.781 37.352 256.781 41.456V41.528C256.781 45.344 259.949 47.396 263.513 47.396ZM264.737 44.228C262.649 44.228 261.029 43.184 261.029 41.348V41.276C261.029 39.296 262.685 38.108 265.493 38.108C267.221 38.108 268.697 38.432 269.813 38.864V40.16C269.813 42.572 267.617 44.228 264.737 44.228ZM294.254 29.972C294.254 28.748 293.246 27.776 292.058 27.776C290.834 27.776 289.862 28.748 289.862 29.972V38.72C289.862 41.672 288.098 43.4 285.578 43.4C282.986 43.4 281.51 41.744 281.51 38.792V29.972C281.51 28.748 280.538 27.776 279.314 27.776C278.126 27.776 277.154 28.748 277.154 29.972V40.088C277.154 44.516 279.638 47.396 283.922 47.396C286.874 47.396 288.638 45.848 289.862 44.048V45.02C289.862 46.244 290.87 47.18 292.058 47.18C293.282 47.18 294.254 46.208 294.254 45.02V29.972ZM297.894 45.02C297.894 46.244 298.866 47.18 300.054 47.18C301.278 47.18 302.25 46.244 302.25 45.02V36.272C302.25 33.32 304.014 31.556 306.534 31.556C309.126 31.556 310.602 33.248 310.602 36.2V45.02C310.602 46.244 311.574 47.18 312.798 47.18C314.022 47.18 314.958 46.244 314.958 45.02V34.868C314.958 30.476 312.474 27.596 308.19 27.596C305.238 27.596 303.474 29.144 302.25 30.908V29.972C302.25 28.748 301.278 27.776 300.054 27.776C298.83 27.776 297.894 28.748 297.894 29.972V45.02ZM327.202 47.432C330.37 47.432 332.422 46.352 334.114 44.732C334.51 44.408 334.726 43.94 334.726 43.364C334.726 42.32 333.898 41.456 332.854 41.456C332.35 41.456 331.918 41.708 331.666 41.924C330.478 42.932 329.146 43.616 327.418 43.616C324.07 43.616 321.73 40.916 321.73 37.532V37.46C321.73 34.148 324.07 31.412 327.238 31.412C328.966 31.412 330.19 32.096 331.306 33.032C331.594 33.248 332.062 33.464 332.602 33.464C333.718 33.464 334.618 32.6 334.618 31.484C334.618 30.764 334.222 30.224 333.934 29.972C332.314 28.568 330.262 27.596 327.274 27.596C321.55 27.596 317.374 32.132 317.374 37.532V37.604C317.374 43.004 321.55 47.432 327.202 47.432ZM337.184 45.02C337.184 46.244 338.156 47.18 339.344 47.18C340.568 47.18 341.54 46.244 341.54 45.02V36.272C341.54 33.32 343.304 31.556 345.824 31.556C348.416 31.556 349.892 33.248 349.892 36.2V45.02C349.892 46.244 350.864 47.18 352.088 47.18C353.312 47.18 354.248 46.244 354.248 45.02V34.868C354.248 30.476 351.764 27.596 347.48 27.596C344.528 27.596 342.764 29.144 341.54 30.908V22.7C341.54 21.512 340.568 20.54 339.344 20.54C338.12 20.54 337.184 21.512 337.184 22.7V45.02ZM365.478 45.128C365.478 46.28 366.378 47.18 367.53 47.18C368.466 47.18 369.222 46.676 369.582 45.776L371.706 40.916H383.946L385.998 45.632C386.394 46.568 387.114 47.18 388.158 47.18C389.346 47.18 390.246 46.244 390.246 45.056C390.246 44.768 390.174 44.444 389.994 44.12L380.634 23.24C380.13 22.124 379.266 21.44 378.006 21.44H377.79C376.53 21.44 375.63 22.124 375.126 23.24L365.766 44.12C365.586 44.48 365.478 44.804 365.478 45.128ZM373.398 36.992L377.826 26.804L382.254 36.992H373.398ZM409.383 29.972C409.383 28.748 408.375 27.776 407.187 27.776C405.963 27.776 404.991 28.748 404.991 29.972V38.72C404.991 41.672 403.227 43.4 400.707 43.4C398.115 43.4 396.639 41.744 396.639 38.792V29.972C396.639 28.748 395.667 27.776 394.443 27.776C393.255 27.776 392.283 28.748 392.283 29.972V40.088C392.283 44.516 394.767 47.396 399.051 47.396C402.003 47.396 403.767 45.848 404.991 44.048V45.02C404.991 46.244 405.999 47.18 407.187 47.18C408.411 47.18 409.383 46.208 409.383 45.02V29.972ZM421.808 47.432C424.976 47.432 427.028 46.352 428.72 44.732C429.116 44.408 429.332 43.94 429.332 43.364C429.332 42.32 428.504 41.456 427.46 41.456C426.956 41.456 426.524 41.708 426.272 41.924C425.084 42.932 423.752 43.616 422.024 43.616C418.676 43.616 416.336 40.916 416.336 37.532V37.46C416.336 34.148 418.676 31.412 421.844 31.412C423.572 31.412 424.796 32.096 425.912 33.032C426.2 33.248 426.668 33.464 427.208 33.464C428.324 33.464 429.224 32.6 429.224 31.484C429.224 30.764 428.828 30.224 428.54 29.972C426.92 28.568 424.868 27.596 421.88 27.596C416.156 27.596 411.98 32.132 411.98 37.532V37.604C411.98 43.004 416.156 47.432 421.808 47.432ZM438.162 47.324C439.314 47.324 440.214 47.144 441.15 46.82C441.762 46.568 442.302 45.92 442.302 45.128C442.302 44.12 441.438 43.328 440.466 43.328C440.322 43.328 439.89 43.436 439.386 43.436C437.91 43.436 437.046 42.752 437.046 41.06V31.736H440.466C441.51 31.736 442.374 30.908 442.374 29.864C442.374 28.82 441.51 27.992 440.466 27.992H437.046V24.752C437.046 23.564 436.074 22.592 434.886 22.592C433.662 22.592 432.69 23.564 432.69 24.752V27.992H431.97C430.926 27.992 430.098 28.82 430.098 29.864C430.098 30.908 430.926 31.736 431.97 31.736H432.69V41.744C432.69 45.92 434.958 47.324 438.162 47.324ZM444.719 23.096C444.719 24.392 445.799 25.256 447.203 25.256C448.607 25.256 449.687 24.392 449.687 23.096V22.88C449.687 21.584 448.607 20.756 447.203 20.756C445.799 20.756 444.719 21.584 444.719 22.88V23.096ZM445.043 45.02C445.043 46.244 446.015 47.18 447.203 47.18C448.427 47.18 449.399 46.244 449.399 45.02V29.972C449.399 28.748 448.427 27.776 447.203 27.776C445.979 27.776 445.043 28.748 445.043 29.972V45.02ZM462.327 47.432C468.195 47.432 472.515 42.932 472.515 37.532V37.46C472.515 32.024 468.231 27.596 462.399 27.596C456.567 27.596 452.247 32.096 452.247 37.532V37.604C452.247 43.004 456.531 47.432 462.327 47.432ZM462.399 43.616C459.015 43.616 456.603 40.844 456.603 37.532V37.46C456.603 34.148 458.835 31.412 462.327 31.412C465.747 31.412 468.159 34.184 468.159 37.532V37.604C468.159 40.88 465.927 43.616 462.399 43.616ZM475.152 45.02C475.152 46.244 476.124 47.18 477.312 47.18C478.536 47.18 479.508 46.244 479.508 45.02V36.272C479.508 33.32 481.272 31.556 483.792 31.556C486.384 31.556 487.86 33.248 487.86 36.2V45.02C487.86 46.244 488.832 47.18 490.056 47.18C491.28 47.18 492.216 46.244 492.216 45.02V34.868C492.216 30.476 489.732 27.596 485.448 27.596C482.496 27.596 480.732 29.144 479.508 30.908V29.972C479.508 28.748 478.536 27.776 477.312 27.776C476.088 27.776 475.152 28.748 475.152 29.972V45.02Z" fill="#FF0000"/>
<g filter="url(#filter0)">
<path d="M32.94 47.432C37.008 47.432 39.708 46.136 42.084 44.048C42.48 43.688 42.804 43.148 42.804 42.464C42.804 41.348 41.832 40.412 40.716 40.412C40.176 40.412 39.708 40.628 39.384 40.916C37.548 42.464 35.748 43.328 33.084 43.328C28.26 43.328 24.768 39.332 24.768 34.4V34.328C24.768 29.396 28.296 25.436 33.084 25.436C35.496 25.436 37.368 26.3 39.096 27.704C39.384 27.92 39.816 28.136 40.428 28.136C41.652 28.136 42.624 27.2 42.624 25.976C42.624 25.184 42.228 24.572 41.76 24.212C39.564 22.52 37.008 21.368 33.12 21.368C25.488 21.368 20.124 27.236 20.124 34.4V34.472C20.124 41.708 25.596 47.432 32.94 47.432ZM45.5141 45.02C45.5141 46.244 46.4861 47.18 47.6741 47.18C48.8981 47.18 49.8701 46.208 49.8701 45.02V39.404C49.8701 34.904 51.9941 32.528 55.0901 31.988C56.0621 31.808 56.8181 31.052 56.8181 29.9C56.8181 28.64 56.0261 27.74 54.6581 27.74C52.7501 27.74 50.8781 29.54 49.8701 31.916V29.972C49.8701 28.748 48.8981 27.776 47.6741 27.776C46.4501 27.776 45.5141 28.748 45.5141 29.972V45.02ZM61.2284 36.164C61.6244 33.212 63.4964 31.16 66.1604 31.16C69.0404 31.16 70.6964 33.356 70.9844 36.164H61.2284ZM73.5044 44.912C73.8284 44.588 74.0804 44.12 74.0804 43.58C74.0804 42.572 73.3244 41.816 72.3524 41.816C71.8484 41.816 71.5604 41.96 71.2364 42.212C70.0124 43.22 68.5724 43.868 66.7364 43.868C63.9284 43.868 61.7324 42.14 61.2644 39.044H73.1804C74.2964 39.044 75.2324 38.18 75.2324 36.956C75.2324 32.564 72.2444 27.596 66.1964 27.596C60.7604 27.596 56.9084 32.06 56.9084 37.496V37.568C56.9084 43.436 61.1564 47.432 66.6644 47.432C69.6164 47.432 71.7764 46.46 73.5044 44.912ZM83.351 47.396C86.267 47.396 88.247 46.172 89.543 44.624V45.344C89.543 46.316 90.407 47.18 91.667 47.18C92.855 47.18 93.791 46.28 93.791 45.092V35.732C93.791 33.248 93.143 31.232 91.739 29.864C90.407 28.496 88.283 27.74 85.439 27.74C82.955 27.74 81.119 28.172 79.319 28.856C78.671 29.108 78.131 29.792 78.131 30.584C78.131 31.592 78.959 32.384 79.967 32.384C80.183 32.384 80.399 32.348 80.651 32.276C81.839 31.808 83.207 31.52 84.863 31.52C87.923 31.52 89.579 32.96 89.579 35.66V36.128C88.103 35.66 86.591 35.336 84.467 35.336C79.823 35.336 76.619 37.352 76.619 41.456V41.528C76.619 45.344 79.787 47.396 83.351 47.396ZM84.575 44.228C82.487 44.228 80.867 43.184 80.867 41.348V41.276C80.867 39.296 82.523 38.108 85.331 38.108C87.059 38.108 88.535 38.432 89.651 38.864V40.16C89.651 42.572 87.455 44.228 84.575 44.228ZM103.404 47.324C104.556 47.324 105.456 47.144 106.392 46.82C107.004 46.568 107.544 45.92 107.544 45.128C107.544 44.12 106.68 43.328 105.708 43.328C105.564 43.328 105.132 43.436 104.628 43.436C103.152 43.436 102.288 42.752 102.288 41.06V31.736H105.708C106.752 31.736 107.616 30.908 107.616 29.864C107.616 28.82 106.752 27.992 105.708 27.992H102.288V24.752C102.288 23.564 101.316 22.592 100.128 22.592C98.9041 22.592 97.9321 23.564 97.9321 24.752V27.992H97.2121C96.1681 27.992 95.3401 28.82 95.3401 29.864C95.3401 30.908 96.1681 31.736 97.2121 31.736H97.9321V41.744C97.9321 45.92 100.2 47.324 103.404 47.324ZM112.782 36.164C113.178 33.212 115.05 31.16 117.714 31.16C120.594 31.16 122.25 33.356 122.538 36.164H112.782ZM125.058 44.912C125.382 44.588 125.634 44.12 125.634 43.58C125.634 42.572 124.878 41.816 123.906 41.816C123.402 41.816 123.114 41.96 122.79 42.212C121.566 43.22 120.126 43.868 118.29 43.868C115.482 43.868 113.286 42.14 112.818 39.044H124.734C125.85 39.044 126.786 38.18 126.786 36.956C126.786 32.564 123.798 27.596 117.75 27.596C112.314 27.596 108.462 32.06 108.462 37.496V37.568C108.462 43.436 112.71 47.432 118.218 47.432C121.17 47.432 123.33 46.46 125.058 44.912ZM143.897 47.396C146.813 47.396 148.793 46.172 150.089 44.624V45.344C150.089 46.316 150.953 47.18 152.213 47.18C153.401 47.18 154.337 46.28 154.337 45.092V35.732C154.337 33.248 153.689 31.232 152.285 29.864C150.953 28.496 148.829 27.74 145.985 27.74C143.501 27.74 141.665 28.172 139.865 28.856C139.217 29.108 138.677 29.792 138.677 30.584C138.677 31.592 139.505 32.384 140.513 32.384C140.729 32.384 140.945 32.348 141.197 32.276C142.385 31.808 143.753 31.52 145.409 31.52C148.469 31.52 150.125 32.96 150.125 35.66V36.128C148.649 35.66 147.137 35.336 145.013 35.336C140.369 35.336 137.165 37.352 137.165 41.456V41.528C137.165 45.344 140.333 47.396 143.897 47.396ZM145.121 44.228C143.033 44.228 141.413 43.184 141.413 41.348V41.276C141.413 39.296 143.069 38.108 145.877 38.108C147.605 38.108 149.081 38.432 150.197 38.864V40.16C150.197 42.572 148.001 44.228 145.121 44.228Z" fill="#00E59D"/>
<path d="M167.251 44.984C167.251 46.208 168.223 47.18 169.483 47.18C170.707 47.18 171.679 46.208 171.679 44.984V36.74H182.551C183.667 36.74 184.567 35.84 184.567 34.724C184.567 33.608 183.667 32.708 182.551 32.708H171.679V25.832H184.171C185.287 25.832 186.187 24.932 186.187 23.816C186.187 22.7 185.287 21.8 184.171 21.8H169.483C168.223 21.8 167.251 22.772 167.251 24.032V44.984ZM193.13 47.396C196.046 47.396 198.026 46.172 199.322 44.624V45.344C199.322 46.316 200.186 47.18 201.446 47.18C202.634 47.18 203.57 46.28 203.57 45.092V35.732C203.57 33.248 202.922 31.232 201.518 29.864C200.186 28.496 198.062 27.74 195.218 27.74C192.734 27.74 190.898 28.172 189.098 28.856C188.45 29.108 187.91 29.792 187.91 30.584C187.91 31.592 188.738 32.384 189.746 32.384C189.962 32.384 190.178 32.348 190.43 32.276C191.618 31.808 192.986 31.52 194.642 31.52C197.702 31.52 199.358 32.96 199.358 35.66V36.128C197.882 35.66 196.37 35.336 194.246 35.336C189.602 35.336 186.398 37.352 186.398 41.456V41.528C186.398 45.344 189.566 47.396 193.13 47.396ZM194.354 44.228C192.266 44.228 190.646 43.184 190.646 41.348V41.276C190.646 39.296 192.302 38.108 195.11 38.108C196.838 38.108 198.314 38.432 199.43 38.864V40.16C199.43 42.572 197.234 44.228 194.354 44.228ZM206.915 23.096C206.915 24.392 207.995 25.256 209.399 25.256C210.803 25.256 211.883 24.392 211.883 23.096V22.88C211.883 21.584 210.803 20.756 209.399 20.756C207.995 20.756 206.915 21.584 206.915 22.88V23.096ZM207.239 45.02C207.239 46.244 208.211 47.18 209.399 47.18C210.623 47.18 211.595 46.244 211.595 45.02V29.972C211.595 28.748 210.623 27.776 209.399 27.776C208.175 27.776 207.239 28.748 207.239 29.972V45.02ZM215.488 45.02C215.488 46.244 216.46 47.18 217.648 47.18C218.872 47.18 219.844 46.208 219.844 45.02V39.404C219.844 34.904 221.968 32.528 225.064 31.988C226.036 31.808 226.792 31.052 226.792 29.9C226.792 28.64 226 27.74 224.632 27.74C222.724 27.74 220.852 29.54 219.844 31.916V29.972C219.844 28.748 218.872 27.776 217.648 27.776C216.424 27.776 215.488 28.748 215.488 29.972V45.02ZM238.056 44.768C238.056 46.028 239.028 47 240.288 47H253.896C255.012 47 255.912 46.1 255.912 44.984C255.912 43.868 255.012 42.968 253.896 42.968H242.484V23.816C242.484 22.592 241.512 21.62 240.288 21.62C239.028 21.62 238.056 22.592 238.056 23.816V44.768ZM263.513 47.396C266.429 47.396 268.409 46.172 269.705 44.624V45.344C269.705 46.316 270.569 47.18 271.829 47.18C273.017 47.18 273.953 46.28 273.953 45.092V35.732C273.953 33.248 273.305 31.232 271.901 29.864C270.569 28.496 268.445 27.74 265.601 27.74C263.117 27.74 261.281 28.172 259.481 28.856C258.833 29.108 258.293 29.792 258.293 30.584C258.293 31.592 259.121 32.384 260.129 32.384C260.345 32.384 260.561 32.348 260.813 32.276C262.001 31.808 263.369 31.52 265.025 31.52C268.085 31.52 269.741 32.96 269.741 35.66V36.128C268.265 35.66 266.753 35.336 264.629 35.336C259.985 35.336 256.781 37.352 256.781 41.456V41.528C256.781 45.344 259.949 47.396 263.513 47.396ZM264.737 44.228C262.649 44.228 261.029 43.184 261.029 41.348V41.276C261.029 39.296 262.685 38.108 265.493 38.108C267.221 38.108 268.697 38.432 269.813 38.864V40.16C269.813 42.572 267.617 44.228 264.737 44.228ZM294.254 29.972C294.254 28.748 293.246 27.776 292.058 27.776C290.834 27.776 289.862 28.748 289.862 29.972V38.72C289.862 41.672 288.098 43.4 285.578 43.4C282.986 43.4 281.51 41.744 281.51 38.792V29.972C281.51 28.748 280.538 27.776 279.314 27.776C278.126 27.776 277.154 28.748 277.154 29.972V40.088C277.154 44.516 279.638 47.396 283.922 47.396C286.874 47.396 288.638 45.848 289.862 44.048V45.02C289.862 46.244 290.87 47.18 292.058 47.18C293.282 47.18 294.254 46.208 294.254 45.02V29.972ZM297.894 45.02C297.894 46.244 298.866 47.18 300.054 47.18C301.278 47.18 302.25 46.244 302.25 45.02V36.272C302.25 33.32 304.014 31.556 306.534 31.556C309.126 31.556 310.602 33.248 310.602 36.2V45.02C310.602 46.244 311.574 47.18 312.798 47.18C314.022 47.18 314.958 46.244 314.958 45.02V34.868C314.958 30.476 312.474 27.596 308.19 27.596C305.238 27.596 303.474 29.144 302.25 30.908V29.972C302.25 28.748 301.278 27.776 300.054 27.776C298.83 27.776 297.894 28.748 297.894 29.972V45.02ZM327.202 47.432C330.37 47.432 332.422 46.352 334.114 44.732C334.51 44.408 334.726 43.94 334.726 43.364C334.726 42.32 333.898 41.456 332.854 41.456C332.35 41.456 331.918 41.708 331.666 41.924C330.478 42.932 329.146 43.616 327.418 43.616C324.07 43.616 321.73 40.916 321.73 37.532V37.46C321.73 34.148 324.07 31.412 327.238 31.412C328.966 31.412 330.19 32.096 331.306 33.032C331.594 33.248 332.062 33.464 332.602 33.464C333.718 33.464 334.618 32.6 334.618 31.484C334.618 30.764 334.222 30.224 333.934 29.972C332.314 28.568 330.262 27.596 327.274 27.596C321.55 27.596 317.374 32.132 317.374 37.532V37.604C317.374 43.004 321.55 47.432 327.202 47.432ZM337.184 45.02C337.184 46.244 338.156 47.18 339.344 47.18C340.568 47.18 341.54 46.244 341.54 45.02V36.272C341.54 33.32 343.304 31.556 345.824 31.556C348.416 31.556 349.892 33.248 349.892 36.2V45.02C349.892 46.244 350.864 47.18 352.088 47.18C353.312 47.18 354.248 46.244 354.248 45.02V34.868C354.248 30.476 351.764 27.596 347.48 27.596C344.528 27.596 342.764 29.144 341.54 30.908V22.7C341.54 21.512 340.568 20.54 339.344 20.54C338.12 20.54 337.184 21.512 337.184 22.7V45.02ZM365.478 45.128C365.478 46.28 366.378 47.18 367.53 47.18C368.466 47.18 369.222 46.676 369.582 45.776L371.706 40.916H383.946L385.998 45.632C386.394 46.568 387.114 47.18 388.158 47.18C389.346 47.18 390.246 46.244 390.246 45.056C390.246 44.768 390.174 44.444 389.994 44.12L380.634 23.24C380.13 22.124 379.266 21.44 378.006 21.44H377.79C376.53 21.44 375.63 22.124 375.126 23.24L365.766 44.12C365.586 44.48 365.478 44.804 365.478 45.128ZM373.398 36.992L377.826 26.804L382.254 36.992H373.398ZM409.383 29.972C409.383 28.748 408.375 27.776 407.187 27.776C405.963 27.776 404.991 28.748 404.991 29.972V38.72C404.991 41.672 403.227 43.4 400.707 43.4C398.115 43.4 396.639 41.744 396.639 38.792V29.972C396.639 28.748 395.667 27.776 394.443 27.776C393.255 27.776 392.283 28.748 392.283 29.972V40.088C392.283 44.516 394.767 47.396 399.051 47.396C402.003 47.396 403.767 45.848 404.991 44.048V45.02C404.991 46.244 405.999 47.18 407.187 47.18C408.411 47.18 409.383 46.208 409.383 45.02V29.972ZM421.808 47.432C424.976 47.432 427.028 46.352 428.72 44.732C429.116 44.408 429.332 43.94 429.332 43.364C429.332 42.32 428.504 41.456 427.46 41.456C426.956 41.456 426.524 41.708 426.272 41.924C425.084 42.932 423.752 43.616 422.024 43.616C418.676 43.616 416.336 40.916 416.336 37.532V37.46C416.336 34.148 418.676 31.412 421.844 31.412C423.572 31.412 424.796 32.096 425.912 33.032C426.2 33.248 426.668 33.464 427.208 33.464C428.324 33.464 429.224 32.6 429.224 31.484C429.224 30.764 428.828 30.224 428.54 29.972C426.92 28.568 424.868 27.596 421.88 27.596C416.156 27.596 411.98 32.132 411.98 37.532V37.604C411.98 43.004 416.156 47.432 421.808 47.432ZM438.162 47.324C439.314 47.324 440.214 47.144 441.15 46.82C441.762 46.568 442.302 45.92 442.302 45.128C442.302 44.12 441.438 43.328 440.466 43.328C440.322 43.328 439.89 43.436 439.386 43.436C437.91 43.436 437.046 42.752 437.046 41.06V31.736H440.466C441.51 31.736 442.374 30.908 442.374 29.864C442.374 28.82 441.51 27.992 440.466 27.992H437.046V24.752C437.046 23.564 436.074 22.592 434.886 22.592C433.662 22.592 432.69 23.564 432.69 24.752V27.992H431.97C430.926 27.992 430.098 28.82 430.098 29.864C430.098 30.908 430.926 31.736 431.97 31.736H432.69V41.744C432.69 45.92 434.958 47.324 438.162 47.324ZM444.719 23.096C444.719 24.392 445.799 25.256 447.203 25.256C448.607 25.256 449.687 24.392 449.687 23.096V22.88C449.687 21.584 448.607 20.756 447.203 20.756C445.799 20.756 444.719 21.584 444.719 22.88V23.096ZM445.043 45.02C445.043 46.244 446.015 47.18 447.203 47.18C448.427 47.18 449.399 46.244 449.399 45.02V29.972C449.399 28.748 448.427 27.776 447.203 27.776C445.979 27.776 445.043 28.748 445.043 29.972V45.02ZM462.327 47.432C468.195 47.432 472.515 42.932 472.515 37.532V37.46C472.515 32.024 468.231 27.596 462.399 27.596C456.567 27.596 452.247 32.096 452.247 37.532V37.604C452.247 43.004 456.531 47.432 462.327 47.432ZM462.399 43.616C459.015 43.616 456.603 40.844 456.603 37.532V37.46C456.603 34.148 458.835 31.412 462.327 31.412C465.747 31.412 468.159 34.184 468.159 37.532V37.604C468.159 40.88 465.927 43.616 462.399 43.616ZM475.152 45.02C475.152 46.244 476.124 47.18 477.312 47.18C478.536 47.18 479.508 46.244 479.508 45.02V36.272C479.508 33.32 481.272 31.556 483.792 31.556C486.384 31.556 487.86 33.248 487.86 36.2V45.02C487.86 46.244 488.832 47.18 490.056 47.18C491.28 47.18 492.216 46.244 492.216 45.02V34.868C492.216 30.476 489.732 27.596 485.448 27.596C482.496 27.596 480.732 29.144 479.508 30.908V29.972C479.508 28.748 478.536 27.776 477.312 27.776C476.088 27.776 475.152 28.748 475.152 29.972V45.02Z" fill="#FF0000"/>
</g>
<defs>
<filter id="filter0" x="0.124023" y="0.540039" width="512.092" height="66.8916" filterUnits="userSpaceOnUse" color-interpolation-filters="sRGB">
<feFlood flood-opacity="0" result="BackgroundImageFix"/>
<feBlend mode="normal" in="SourceGraphic" in2="BackgroundImageFix" result="shape"/>
<feGaussianBlur stdDeviation="10" result="effect1_foregroundBlur_779_97"/>
</filter>
</defs>
</svg>
