<svg width="252" height="67" viewBox="0 0 252 67" fill="none" xmlns="http://www.w3.org/2000/svg">
<path d="M32.94 51.432C37.008 51.432 39.708 50.136 42.084 48.048C42.48 47.688 42.804 47.148 42.804 46.464C42.804 45.348 41.832 44.412 40.716 44.412C40.176 44.412 39.708 44.628 39.384 44.916C37.548 46.464 35.748 47.328 33.084 47.328C28.26 47.328 24.768 43.332 24.768 38.4V38.328C24.768 33.396 28.296 29.436 33.084 29.436C35.496 29.436 37.368 30.3 39.096 31.704C39.384 31.92 39.816 32.136 40.428 32.136C41.652 32.136 42.624 31.2 42.624 29.976C42.624 29.184 42.228 28.572 41.76 28.212C39.564 26.52 37.008 25.368 33.12 25.368C25.488 25.368 20.124 31.236 20.124 38.4V38.472C20.124 45.708 25.596 51.432 32.94 51.432ZM45.5141 49.02C45.5141 50.244 46.4861 51.18 47.6741 51.18C48.8981 51.18 49.8701 50.208 49.8701 49.02V43.404C49.8701 38.904 51.9941 36.528 55.0901 35.988C56.0621 35.808 56.8181 35.052 56.8181 33.9C56.8181 32.64 56.0261 31.74 54.6581 31.74C52.7501 31.74 50.8781 33.54 49.8701 35.916V33.972C49.8701 32.748 48.8981 31.776 47.6741 31.776C46.4501 31.776 45.5141 32.748 45.5141 33.972V49.02ZM61.2284 40.164C61.6244 37.212 63.4964 35.16 66.1604 35.16C69.0404 35.16 70.6964 37.356 70.9844 40.164H61.2284ZM73.5044 48.912C73.8284 48.588 74.0804 48.12 74.0804 47.58C74.0804 46.572 73.3244 45.816 72.3524 45.816C71.8484 45.816 71.5604 45.96 71.2364 46.212C70.0124 47.22 68.5724 47.868 66.7364 47.868C63.9284 47.868 61.7324 46.14 61.2644 43.044H73.1804C74.2964 43.044 75.2324 42.18 75.2324 40.956C75.2324 36.564 72.2444 31.596 66.1964 31.596C60.7604 31.596 56.9084 36.06 56.9084 41.496V41.568C56.9084 47.436 61.1564 51.432 66.6644 51.432C69.6164 51.432 71.7764 50.46 73.5044 48.912ZM83.351 51.396C86.267 51.396 88.247 50.172 89.543 48.624V49.344C89.543 50.316 90.407 51.18 91.667 51.18C92.855 51.18 93.791 50.28 93.791 49.092V39.732C93.791 37.248 93.143 35.232 91.739 33.864C90.407 32.496 88.283 31.74 85.439 31.74C82.955 31.74 81.119 32.172 79.319 32.856C78.671 33.108 78.131 33.792 78.131 34.584C78.131 35.592 78.959 36.384 79.967 36.384C80.183 36.384 80.399 36.348 80.651 36.276C81.839 35.808 83.207 35.52 84.863 35.52C87.923 35.52 89.579 36.96 89.579 39.66V40.128C88.103 39.66 86.591 39.336 84.467 39.336C79.823 39.336 76.619 41.352 76.619 45.456V45.528C76.619 49.344 79.787 51.396 83.351 51.396ZM84.575 48.228C82.487 48.228 80.867 47.184 80.867 45.348V45.276C80.867 43.296 82.523 42.108 85.331 42.108C87.059 42.108 88.535 42.432 89.651 42.864V44.16C89.651 46.572 87.455 48.228 84.575 48.228ZM103.404 51.324C104.556 51.324 105.456 51.144 106.392 50.82C107.004 50.568 107.544 49.92 107.544 49.128C107.544 48.12 106.68 47.328 105.708 47.328C105.564 47.328 105.132 47.436 104.628 47.436C103.152 47.436 102.288 46.752 102.288 45.06V35.736H105.708C106.752 35.736 107.616 34.908 107.616 33.864C107.616 32.82 106.752 31.992 105.708 31.992H102.288V28.752C102.288 27.564 101.316 26.592 100.128 26.592C98.9041 26.592 97.9321 27.564 97.9321 28.752V31.992H97.2121C96.1681 31.992 95.3401 32.82 95.3401 33.864C95.3401 34.908 96.1681 35.736 97.2121 35.736H97.9321V45.744C97.9321 49.92 100.2 51.324 103.404 51.324ZM112.782 40.164C113.178 37.212 115.05 35.16 117.714 35.16C120.594 35.16 122.25 37.356 122.538 40.164H112.782ZM125.058 48.912C125.382 48.588 125.634 48.12 125.634 47.58C125.634 46.572 124.878 45.816 123.906 45.816C123.402 45.816 123.114 45.96 122.79 46.212C121.566 47.22 120.126 47.868 118.29 47.868C115.482 47.868 113.286 46.14 112.818 43.044H124.734C125.85 43.044 126.786 42.18 126.786 40.956C126.786 36.564 123.798 31.596 117.75 31.596C112.314 31.596 108.462 36.06 108.462 41.496V41.568C108.462 47.436 112.71 51.432 118.218 51.432C121.17 51.432 123.33 50.46 125.058 48.912ZM143.897 51.396C146.813 51.396 148.793 50.172 150.089 48.624V49.344C150.089 50.316 150.953 51.18 152.213 51.18C153.401 51.18 154.337 50.28 154.337 49.092V39.732C154.337 37.248 153.689 35.232 152.285 33.864C150.953 32.496 148.829 31.74 145.985 31.74C143.501 31.74 141.665 32.172 139.865 32.856C139.217 33.108 138.677 33.792 138.677 34.584C138.677 35.592 139.505 36.384 140.513 36.384C140.729 36.384 140.945 36.348 141.197 36.276C142.385 35.808 143.753 35.52 145.409 35.52C148.469 35.52 150.125 36.96 150.125 39.66V40.128C148.649 39.66 147.137 39.336 145.013 39.336C140.369 39.336 137.165 41.352 137.165 45.456V45.528C137.165 49.344 140.333 51.396 143.897 51.396ZM145.121 48.228C143.033 48.228 141.413 47.184 141.413 45.348V45.276C141.413 43.296 143.069 42.108 145.877 42.108C147.605 42.108 149.081 42.432 150.197 42.864V44.16C150.197 46.572 148.001 48.228 145.121 48.228ZM167.251 48.768C167.251 50.028 168.223 51 169.483 51H183.091C184.207 51 185.107 50.1 185.107 48.984C185.107 47.868 184.207 46.968 183.091 46.968H171.679V27.816C171.679 26.592 170.707 25.62 169.483 25.62C168.223 25.62 167.251 26.592 167.251 27.816V48.768ZM187.74 48.768C187.74 50.028 188.712 51 189.972 51H199.404C205.02 51 208.728 48.588 208.728 44.088V44.016C208.728 40.596 206.676 38.904 203.724 37.896C205.596 36.924 207.324 35.304 207.324 32.28V32.208C207.324 30.516 206.748 29.148 205.632 28.032C204.192 26.592 201.924 25.8 199.044 25.8H189.972C188.712 25.8 187.74 26.772 187.74 28.032V48.768ZM192.096 36.42V29.724H198.468C201.312 29.724 202.896 30.948 202.896 32.928V33C202.896 35.304 200.988 36.42 198.144 36.42H192.096ZM192.096 47.076V40.164H199.116C202.608 40.164 204.3 41.424 204.3 43.548V43.62C204.3 45.888 202.464 47.076 199.44 47.076H192.096ZM211.92 48.984C211.92 50.208 212.892 51.18 214.152 51.18C215.376 51.18 216.348 50.208 216.348 48.984V42.9H221.352C226.896 42.9 231.432 39.948 231.432 34.296V34.224C231.432 29.148 227.76 25.8 221.856 25.8H214.152C212.892 25.8 211.92 26.772 211.92 28.032V48.984ZM216.348 38.904V29.832H221.496C224.808 29.832 226.932 31.38 226.932 34.332V34.404C226.932 37.032 224.844 38.904 221.496 38.904H216.348Z" fill="black"/>
<path d="M32.94 46.432C37.008 46.432 39.708 45.136 42.084 43.048C42.48 42.688 42.804 42.148 42.804 41.464C42.804 40.348 41.832 39.412 40.716 39.412C40.176 39.412 39.708 39.628 39.384 39.916C37.548 41.464 35.748 42.328 33.084 42.328C28.26 42.328 24.768 38.332 24.768 33.4V33.328C24.768 28.396 28.296 24.436 33.084 24.436C35.496 24.436 37.368 25.3 39.096 26.704C39.384 26.92 39.816 27.136 40.428 27.136C41.652 27.136 42.624 26.2 42.624 24.976C42.624 24.184 42.228 23.572 41.76 23.212C39.564 21.52 37.008 20.368 33.12 20.368C25.488 20.368 20.124 26.236 20.124 33.4V33.472C20.124 40.708 25.596 46.432 32.94 46.432ZM45.5141 44.02C45.5141 45.244 46.4861 46.18 47.6741 46.18C48.8981 46.18 49.8701 45.208 49.8701 44.02V38.404C49.8701 33.904 51.9941 31.528 55.0901 30.988C56.0621 30.808 56.8181 30.052 56.8181 28.9C56.8181 27.64 56.0261 26.74 54.6581 26.74C52.7501 26.74 50.8781 28.54 49.8701 30.916V28.972C49.8701 27.748 48.8981 26.776 47.6741 26.776C46.4501 26.776 45.5141 27.748 45.5141 28.972V44.02ZM61.2284 35.164C61.6244 32.212 63.4964 30.16 66.1604 30.16C69.0404 30.16 70.6964 32.356 70.9844 35.164H61.2284ZM73.5044 43.912C73.8284 43.588 74.0804 43.12 74.0804 42.58C74.0804 41.572 73.3244 40.816 72.3524 40.816C71.8484 40.816 71.5604 40.96 71.2364 41.212C70.0124 42.22 68.5724 42.868 66.7364 42.868C63.9284 42.868 61.7324 41.14 61.2644 38.044H73.1804C74.2964 38.044 75.2324 37.18 75.2324 35.956C75.2324 31.564 72.2444 26.596 66.1964 26.596C60.7604 26.596 56.9084 31.06 56.9084 36.496V36.568C56.9084 42.436 61.1564 46.432 66.6644 46.432C69.6164 46.432 71.7764 45.46 73.5044 43.912ZM83.351 46.396C86.267 46.396 88.247 45.172 89.543 43.624V44.344C89.543 45.316 90.407 46.18 91.667 46.18C92.855 46.18 93.791 45.28 93.791 44.092V34.732C93.791 32.248 93.143 30.232 91.739 28.864C90.407 27.496 88.283 26.74 85.439 26.74C82.955 26.74 81.119 27.172 79.319 27.856C78.671 28.108 78.131 28.792 78.131 29.584C78.131 30.592 78.959 31.384 79.967 31.384C80.183 31.384 80.399 31.348 80.651 31.276C81.839 30.808 83.207 30.52 84.863 30.52C87.923 30.52 89.579 31.96 89.579 34.66V35.128C88.103 34.66 86.591 34.336 84.467 34.336C79.823 34.336 76.619 36.352 76.619 40.456V40.528C76.619 44.344 79.787 46.396 83.351 46.396ZM84.575 43.228C82.487 43.228 80.867 42.184 80.867 40.348V40.276C80.867 38.296 82.523 37.108 85.331 37.108C87.059 37.108 88.535 37.432 89.651 37.864V39.16C89.651 41.572 87.455 43.228 84.575 43.228ZM103.404 46.324C104.556 46.324 105.456 46.144 106.392 45.82C107.004 45.568 107.544 44.92 107.544 44.128C107.544 43.12 106.68 42.328 105.708 42.328C105.564 42.328 105.132 42.436 104.628 42.436C103.152 42.436 102.288 41.752 102.288 40.06V30.736H105.708C106.752 30.736 107.616 29.908 107.616 28.864C107.616 27.82 106.752 26.992 105.708 26.992H102.288V23.752C102.288 22.564 101.316 21.592 100.128 21.592C98.9041 21.592 97.9321 22.564 97.9321 23.752V26.992H97.2121C96.1681 26.992 95.3401 27.82 95.3401 28.864C95.3401 29.908 96.1681 30.736 97.2121 30.736H97.9321V40.744C97.9321 44.92 100.2 46.324 103.404 46.324ZM112.782 35.164C113.178 32.212 115.05 30.16 117.714 30.16C120.594 30.16 122.25 32.356 122.538 35.164H112.782ZM125.058 43.912C125.382 43.588 125.634 43.12 125.634 42.58C125.634 41.572 124.878 40.816 123.906 40.816C123.402 40.816 123.114 40.96 122.79 41.212C121.566 42.22 120.126 42.868 118.29 42.868C115.482 42.868 113.286 41.14 112.818 38.044H124.734C125.85 38.044 126.786 37.18 126.786 35.956C126.786 31.564 123.798 26.596 117.75 26.596C112.314 26.596 108.462 31.06 108.462 36.496V36.568C108.462 42.436 112.71 46.432 118.218 46.432C121.17 46.432 123.33 45.46 125.058 43.912ZM143.897 46.396C146.813 46.396 148.793 45.172 150.089 43.624V44.344C150.089 45.316 150.953 46.18 152.213 46.18C153.401 46.18 154.337 45.28 154.337 44.092V34.732C154.337 32.248 153.689 30.232 152.285 28.864C150.953 27.496 148.829 26.74 145.985 26.74C143.501 26.74 141.665 27.172 139.865 27.856C139.217 28.108 138.677 28.792 138.677 29.584C138.677 30.592 139.505 31.384 140.513 31.384C140.729 31.384 140.945 31.348 141.197 31.276C142.385 30.808 143.753 30.52 145.409 30.52C148.469 30.52 150.125 31.96 150.125 34.66V35.128C148.649 34.66 147.137 34.336 145.013 34.336C140.369 34.336 137.165 36.352 137.165 40.456V40.528C137.165 44.344 140.333 46.396 143.897 46.396ZM145.121 43.228C143.033 43.228 141.413 42.184 141.413 40.348V40.276C141.413 38.296 143.069 37.108 145.877 37.108C147.605 37.108 149.081 37.432 150.197 37.864V39.16C150.197 41.572 148.001 43.228 145.121 43.228Z" fill="#00E59D"/>
<path d="M167.251 43.768C167.251 45.028 168.223 46 169.483 46H183.091C184.207 46 185.107 45.1 185.107 43.984C185.107 42.868 184.207 41.968 183.091 41.968H171.679V22.816C171.679 21.592 170.707 20.62 169.483 20.62C168.223 20.62 167.251 21.592 167.251 22.816V43.768ZM187.74 43.768C187.74 45.028 188.712 46 189.972 46H199.404C205.02 46 208.728 43.588 208.728 39.088V39.016C208.728 35.596 206.676 33.904 203.724 32.896C205.596 31.924 207.324 30.304 207.324 27.28V27.208C207.324 25.516 206.748 24.148 205.632 23.032C204.192 21.592 201.924 20.8 199.044 20.8H189.972C188.712 20.8 187.74 21.772 187.74 23.032V43.768ZM192.096 31.42V24.724H198.468C201.312 24.724 202.896 25.948 202.896 27.928V28C202.896 30.304 200.988 31.42 198.144 31.42H192.096ZM192.096 42.076V35.164H199.116C202.608 35.164 204.3 36.424 204.3 38.548V38.62C204.3 40.888 202.464 42.076 199.44 42.076H192.096ZM211.92 43.984C211.92 45.208 212.892 46.18 214.152 46.18C215.376 46.18 216.348 45.208 216.348 43.984V37.9H221.352C226.896 37.9 231.432 34.948 231.432 29.296V29.224C231.432 24.148 227.76 20.8 221.856 20.8H214.152C212.892 20.8 211.92 21.772 211.92 23.032V43.984ZM216.348 33.904V24.832H221.496C224.808 24.832 226.932 26.38 226.932 29.332V29.404C226.932 32.032 224.844 33.904 221.496 33.904H216.348Z" fill="#FF0000"/>
<g filter="url(#filter0)">
<path d="M32.94 46.432C37.008 46.432 39.708 45.136 42.084 43.048C42.48 42.688 42.804 42.148 42.804 41.464C42.804 40.348 41.832 39.412 40.716 39.412C40.176 39.412 39.708 39.628 39.384 39.916C37.548 41.464 35.748 42.328 33.084 42.328C28.26 42.328 24.768 38.332 24.768 33.4V33.328C24.768 28.396 28.296 24.436 33.084 24.436C35.496 24.436 37.368 25.3 39.096 26.704C39.384 26.92 39.816 27.136 40.428 27.136C41.652 27.136 42.624 26.2 42.624 24.976C42.624 24.184 42.228 23.572 41.76 23.212C39.564 21.52 37.008 20.368 33.12 20.368C25.488 20.368 20.124 26.236 20.124 33.4V33.472C20.124 40.708 25.596 46.432 32.94 46.432ZM45.5141 44.02C45.5141 45.244 46.4861 46.18 47.6741 46.18C48.8981 46.18 49.8701 45.208 49.8701 44.02V38.404C49.8701 33.904 51.9941 31.528 55.0901 30.988C56.0621 30.808 56.8181 30.052 56.8181 28.9C56.8181 27.64 56.0261 26.74 54.6581 26.74C52.7501 26.74 50.8781 28.54 49.8701 30.916V28.972C49.8701 27.748 48.8981 26.776 47.6741 26.776C46.4501 26.776 45.5141 27.748 45.5141 28.972V44.02ZM61.2284 35.164C61.6244 32.212 63.4964 30.16 66.1604 30.16C69.0404 30.16 70.6964 32.356 70.9844 35.164H61.2284ZM73.5044 43.912C73.8284 43.588 74.0804 43.12 74.0804 42.58C74.0804 41.572 73.3244 40.816 72.3524 40.816C71.8484 40.816 71.5604 40.96 71.2364 41.212C70.0124 42.22 68.5724 42.868 66.7364 42.868C63.9284 42.868 61.7324 41.14 61.2644 38.044H73.1804C74.2964 38.044 75.2324 37.18 75.2324 35.956C75.2324 31.564 72.2444 26.596 66.1964 26.596C60.7604 26.596 56.9084 31.06 56.9084 36.496V36.568C56.9084 42.436 61.1564 46.432 66.6644 46.432C69.6164 46.432 71.7764 45.46 73.5044 43.912ZM83.351 46.396C86.267 46.396 88.247 45.172 89.543 43.624V44.344C89.543 45.316 90.407 46.18 91.667 46.18C92.855 46.18 93.791 45.28 93.791 44.092V34.732C93.791 32.248 93.143 30.232 91.739 28.864C90.407 27.496 88.283 26.74 85.439 26.74C82.955 26.74 81.119 27.172 79.319 27.856C78.671 28.108 78.131 28.792 78.131 29.584C78.131 30.592 78.959 31.384 79.967 31.384C80.183 31.384 80.399 31.348 80.651 31.276C81.839 30.808 83.207 30.52 84.863 30.52C87.923 30.52 89.579 31.96 89.579 34.66V35.128C88.103 34.66 86.591 34.336 84.467 34.336C79.823 34.336 76.619 36.352 76.619 40.456V40.528C76.619 44.344 79.787 46.396 83.351 46.396ZM84.575 43.228C82.487 43.228 80.867 42.184 80.867 40.348V40.276C80.867 38.296 82.523 37.108 85.331 37.108C87.059 37.108 88.535 37.432 89.651 37.864V39.16C89.651 41.572 87.455 43.228 84.575 43.228ZM103.404 46.324C104.556 46.324 105.456 46.144 106.392 45.82C107.004 45.568 107.544 44.92 107.544 44.128C107.544 43.12 106.68 42.328 105.708 42.328C105.564 42.328 105.132 42.436 104.628 42.436C103.152 42.436 102.288 41.752 102.288 40.06V30.736H105.708C106.752 30.736 107.616 29.908 107.616 28.864C107.616 27.82 106.752 26.992 105.708 26.992H102.288V23.752C102.288 22.564 101.316 21.592 100.128 21.592C98.9041 21.592 97.9321 22.564 97.9321 23.752V26.992H97.2121C96.1681 26.992 95.3401 27.82 95.3401 28.864C95.3401 29.908 96.1681 30.736 97.2121 30.736H97.9321V40.744C97.9321 44.92 100.2 46.324 103.404 46.324ZM112.782 35.164C113.178 32.212 115.05 30.16 117.714 30.16C120.594 30.16 122.25 32.356 122.538 35.164H112.782ZM125.058 43.912C125.382 43.588 125.634 43.12 125.634 42.58C125.634 41.572 124.878 40.816 123.906 40.816C123.402 40.816 123.114 40.96 122.79 41.212C121.566 42.22 120.126 42.868 118.29 42.868C115.482 42.868 113.286 41.14 112.818 38.044H124.734C125.85 38.044 126.786 37.18 126.786 35.956C126.786 31.564 123.798 26.596 117.75 26.596C112.314 26.596 108.462 31.06 108.462 36.496V36.568C108.462 42.436 112.71 46.432 118.218 46.432C121.17 46.432 123.33 45.46 125.058 43.912ZM143.897 46.396C146.813 46.396 148.793 45.172 150.089 43.624V44.344C150.089 45.316 150.953 46.18 152.213 46.18C153.401 46.18 154.337 45.28 154.337 44.092V34.732C154.337 32.248 153.689 30.232 152.285 28.864C150.953 27.496 148.829 26.74 145.985 26.74C143.501 26.74 141.665 27.172 139.865 27.856C139.217 28.108 138.677 28.792 138.677 29.584C138.677 30.592 139.505 31.384 140.513 31.384C140.729 31.384 140.945 31.348 141.197 31.276C142.385 30.808 143.753 30.52 145.409 30.52C148.469 30.52 150.125 31.96 150.125 34.66V35.128C148.649 34.66 147.137 34.336 145.013 34.336C140.369 34.336 137.165 36.352 137.165 40.456V40.528C137.165 44.344 140.333 46.396 143.897 46.396ZM145.121 43.228C143.033 43.228 141.413 42.184 141.413 40.348V40.276C141.413 38.296 143.069 37.108 145.877 37.108C147.605 37.108 149.081 37.432 150.197 37.864V39.16C150.197 41.572 148.001 43.228 145.121 43.228Z" fill="#00E59D"/>
<path d="M167.251 43.768C167.251 45.028 168.223 46 169.483 46H183.091C184.207 46 185.107 45.1 185.107 43.984C185.107 42.868 184.207 41.968 183.091 41.968H171.679V22.816C171.679 21.592 170.707 20.62 169.483 20.62C168.223 20.62 167.251 21.592 167.251 22.816V43.768ZM187.74 43.768C187.74 45.028 188.712 46 189.972 46H199.404C205.02 46 208.728 43.588 208.728 39.088V39.016C208.728 35.596 206.676 33.904 203.724 32.896C205.596 31.924 207.324 30.304 207.324 27.28V27.208C207.324 25.516 206.748 24.148 205.632 23.032C204.192 21.592 201.924 20.8 199.044 20.8H189.972C188.712 20.8 187.74 21.772 187.74 23.032V43.768ZM192.096 31.42V24.724H198.468C201.312 24.724 202.896 25.948 202.896 27.928V28C202.896 30.304 200.988 31.42 198.144 31.42H192.096ZM192.096 42.076V35.164H199.116C202.608 35.164 204.3 36.424 204.3 38.548V38.62C204.3 40.888 202.464 42.076 199.44 42.076H192.096ZM211.92 43.984C211.92 45.208 212.892 46.18 214.152 46.18C215.376 46.18 216.348 45.208 216.348 43.984V37.9H221.352C226.896 37.9 231.432 34.948 231.432 29.296V29.224C231.432 24.148 227.76 20.8 221.856 20.8H214.152C212.892 20.8 211.92 21.772 211.92 23.032V43.984ZM216.348 33.904V24.832H221.496C224.808 24.832 226.932 26.38 226.932 29.332V29.404C226.932 32.032 224.844 33.904 221.496 33.904H216.348Z" fill="#FF0000"/>
</g>
<defs>
<filter id="filter0" x="0.124023" y="0.368164" width="251.309" height="66.0635" filterUnits="userSpaceOnUse" color-interpolation-filters="sRGB">
<feFlood flood-opacity="0" result="BackgroundImageFix"/>
<feBlend mode="normal" in="SourceGraphic" in2="BackgroundImageFix" result="shape"/>
<feGaussianBlur stdDeviation="10" result="effect1_foregroundBlur_1107_97"/>
</filter>
</defs>
</svg>
