<svg width="622" height="73" viewBox="0 0 622 73" fill="none" xmlns="http://www.w3.org/2000/svg">
<path d="M32.94 52.432C37.008 52.432 39.708 51.136 42.084 49.048C42.48 48.688 42.804 48.148 42.804 47.464C42.804 46.348 41.832 45.412 40.716 45.412C40.176 45.412 39.708 45.628 39.384 45.916C37.548 47.464 35.748 48.328 33.084 48.328C28.26 48.328 24.768 44.332 24.768 39.4V39.328C24.768 34.396 28.296 30.436 33.084 30.436C35.496 30.436 37.368 31.3 39.096 32.704C39.384 32.92 39.816 33.136 40.428 33.136C41.652 33.136 42.624 32.2 42.624 30.976C42.624 30.184 42.228 29.572 41.76 29.212C39.564 27.52 37.008 26.368 33.12 26.368C25.488 26.368 20.124 32.236 20.124 39.4V39.472C20.124 46.708 25.596 52.432 32.94 52.432ZM45.5141 50.02C45.5141 51.244 46.4861 52.18 47.6741 52.18C48.8981 52.18 49.8701 51.208 49.8701 50.02V44.404C49.8701 39.904 51.9941 37.528 55.0901 36.988C56.0621 36.808 56.8181 36.052 56.8181 34.9C56.8181 33.64 56.0261 32.74 54.6581 32.74C52.7501 32.74 50.8781 34.54 49.8701 36.916V34.972C49.8701 33.748 48.8981 32.776 47.6741 32.776C46.4501 32.776 45.5141 33.748 45.5141 34.972V50.02ZM61.2284 41.164C61.6244 38.212 63.4964 36.16 66.1604 36.16C69.0404 36.16 70.6964 38.356 70.9844 41.164H61.2284ZM73.5044 49.912C73.8284 49.588 74.0804 49.12 74.0804 48.58C74.0804 47.572 73.3244 46.816 72.3524 46.816C71.8484 46.816 71.5604 46.96 71.2364 47.212C70.0124 48.22 68.5724 48.868 66.7364 48.868C63.9284 48.868 61.7324 47.14 61.2644 44.044H73.1804C74.2964 44.044 75.2324 43.18 75.2324 41.956C75.2324 37.564 72.2444 32.596 66.1964 32.596C60.7604 32.596 56.9084 37.06 56.9084 42.496V42.568C56.9084 48.436 61.1564 52.432 66.6644 52.432C69.6164 52.432 71.7764 51.46 73.5044 49.912ZM83.351 52.396C86.267 52.396 88.247 51.172 89.543 49.624V50.344C89.543 51.316 90.407 52.18 91.667 52.18C92.855 52.18 93.791 51.28 93.791 50.092V40.732C93.791 38.248 93.143 36.232 91.739 34.864C90.407 33.496 88.283 32.74 85.439 32.74C82.955 32.74 81.119 33.172 79.319 33.856C78.671 34.108 78.131 34.792 78.131 35.584C78.131 36.592 78.959 37.384 79.967 37.384C80.183 37.384 80.399 37.348 80.651 37.276C81.839 36.808 83.207 36.52 84.863 36.52C87.923 36.52 89.579 37.96 89.579 40.66V41.128C88.103 40.66 86.591 40.336 84.467 40.336C79.823 40.336 76.619 42.352 76.619 46.456V46.528C76.619 50.344 79.787 52.396 83.351 52.396ZM84.575 49.228C82.487 49.228 80.867 48.184 80.867 46.348V46.276C80.867 44.296 82.523 43.108 85.331 43.108C87.059 43.108 88.535 43.432 89.651 43.864V45.16C89.651 47.572 87.455 49.228 84.575 49.228ZM103.404 52.324C104.556 52.324 105.456 52.144 106.392 51.82C107.004 51.568 107.544 50.92 107.544 50.128C107.544 49.12 106.68 48.328 105.708 48.328C105.564 48.328 105.132 48.436 104.628 48.436C103.152 48.436 102.288 47.752 102.288 46.06V36.736H105.708C106.752 36.736 107.616 35.908 107.616 34.864C107.616 33.82 106.752 32.992 105.708 32.992H102.288V29.752C102.288 28.564 101.316 27.592 100.128 27.592C98.9041 27.592 97.9321 28.564 97.9321 29.752V32.992H97.2121C96.1681 32.992 95.3401 33.82 95.3401 34.864C95.3401 35.908 96.1681 36.736 97.2121 36.736H97.9321V46.744C97.9321 50.92 100.2 52.324 103.404 52.324ZM112.782 41.164C113.178 38.212 115.05 36.16 117.714 36.16C120.594 36.16 122.25 38.356 122.538 41.164H112.782ZM125.058 49.912C125.382 49.588 125.634 49.12 125.634 48.58C125.634 47.572 124.878 46.816 123.906 46.816C123.402 46.816 123.114 46.96 122.79 47.212C121.566 48.22 120.126 48.868 118.29 48.868C115.482 48.868 113.286 47.14 112.818 44.044H124.734C125.85 44.044 126.786 43.18 126.786 41.956C126.786 37.564 123.798 32.596 117.75 32.596C112.314 32.596 108.462 37.06 108.462 42.496V42.568C108.462 48.436 112.71 52.432 118.218 52.432C121.17 52.432 123.33 51.46 125.058 49.912ZM143.897 52.396C146.813 52.396 148.793 51.172 150.089 49.624V50.344C150.089 51.316 150.953 52.18 152.213 52.18C153.401 52.18 154.337 51.28 154.337 50.092V40.732C154.337 38.248 153.689 36.232 152.285 34.864C150.953 33.496 148.829 32.74 145.985 32.74C143.501 32.74 141.665 33.172 139.865 33.856C139.217 34.108 138.677 34.792 138.677 35.584C138.677 36.592 139.505 37.384 140.513 37.384C140.729 37.384 140.945 37.348 141.197 37.276C142.385 36.808 143.753 36.52 145.409 36.52C148.469 36.52 150.125 37.96 150.125 40.66V41.128C148.649 40.66 147.137 40.336 145.013 40.336C140.369 40.336 137.165 42.352 137.165 46.456V46.528C137.165 50.344 140.333 52.396 143.897 52.396ZM145.121 49.228C143.033 49.228 141.413 48.184 141.413 46.348V46.276C141.413 44.296 143.069 43.108 145.877 43.108C147.605 43.108 149.081 43.432 150.197 43.864V45.16C150.197 47.572 148.001 49.228 145.121 49.228ZM167.251 49.768C167.251 51.028 168.223 52 169.483 52H183.091C184.207 52 185.107 51.1 185.107 49.984C185.107 48.868 184.207 47.968 183.091 47.968H171.679V28.816C171.679 27.592 170.707 26.62 169.483 26.62C168.223 26.62 167.251 27.592 167.251 28.816V49.768ZM187.164 28.096C187.164 29.392 188.244 30.256 189.648 30.256C191.052 30.256 192.132 29.392 192.132 28.096V27.88C192.132 26.584 191.052 25.756 189.648 25.756C188.244 25.756 187.164 26.584 187.164 27.88V28.096ZM187.488 50.02C187.488 51.244 188.46 52.18 189.648 52.18C190.872 52.18 191.844 51.244 191.844 50.02V34.972C191.844 33.748 190.872 32.776 189.648 32.776C188.424 32.776 187.488 33.748 187.488 34.972V50.02ZM214.421 34.972C214.421 33.748 213.449 32.776 212.225 32.776C211.037 32.776 210.065 33.748 210.065 34.936V35.944C208.697 34.144 206.717 32.596 203.585 32.596C199.049 32.596 194.765 36.16 194.765 42.46V42.532C194.765 48.832 199.121 52.396 203.585 52.396C206.681 52.396 208.661 50.812 210.065 48.832V55.78C210.065 57.004 211.037 57.94 212.261 57.94C213.449 57.94 214.421 57.004 214.421 55.78V34.972ZM204.629 36.376C207.545 36.376 210.137 38.788 210.137 42.46V42.532C210.137 46.168 207.545 48.616 204.629 48.616C201.677 48.616 199.157 46.204 199.157 42.532V42.46C199.157 38.68 201.641 36.376 204.629 36.376ZM234.973 34.972C234.973 33.748 233.965 32.776 232.777 32.776C231.553 32.776 230.581 33.748 230.581 34.972V43.72C230.581 46.672 228.817 48.4 226.297 48.4C223.705 48.4 222.229 46.744 222.229 43.792V34.972C222.229 33.748 221.257 32.776 220.033 32.776C218.845 32.776 217.873 33.748 217.873 34.972V45.088C217.873 49.516 220.357 52.396 224.641 52.396C227.593 52.396 229.357 50.848 230.581 49.048V50.02C230.581 51.244 231.589 52.18 232.777 52.18C234.001 52.18 234.973 51.208 234.973 50.02V34.972ZM238.541 28.096C238.541 29.392 239.621 30.256 241.025 30.256C242.429 30.256 243.509 29.392 243.509 28.096V27.88C243.509 26.584 242.429 25.756 241.025 25.756C239.621 25.756 238.541 26.584 238.541 27.88V28.096ZM238.865 50.02C238.865 51.244 239.837 52.18 241.025 52.18C242.249 52.18 243.221 51.244 243.221 50.02V34.972C243.221 33.748 242.249 32.776 241.025 32.776C239.801 32.776 238.865 33.748 238.865 34.972V50.02ZM265.798 27.7C265.798 26.476 264.826 25.54 263.602 25.54C262.414 25.54 261.442 26.476 261.442 27.7V35.944C260.074 34.144 258.094 32.596 254.962 32.596C250.426 32.596 246.142 36.16 246.142 42.46V42.532C246.142 48.832 250.498 52.396 254.962 52.396C258.058 52.396 260.038 50.812 261.442 48.832V50.02C261.442 51.244 262.414 52.18 263.638 52.18C264.826 52.18 265.798 51.244 265.798 50.02V27.7ZM256.006 36.376C258.922 36.376 261.514 38.788 261.514 42.46V42.532C261.514 46.168 258.922 48.616 256.006 48.616C253.054 48.616 250.534 46.204 250.534 42.532V42.46C250.534 38.68 253.018 36.376 256.006 36.376ZM269.394 28.096C269.394 29.392 270.474 30.256 271.878 30.256C273.282 30.256 274.362 29.392 274.362 28.096V27.88C274.362 26.584 273.282 25.756 271.878 25.756C270.474 25.756 269.394 26.584 269.394 27.88V28.096ZM269.718 50.02C269.718 51.244 270.69 52.18 271.878 52.18C273.102 52.18 274.074 51.244 274.074 50.02V34.972C274.074 33.748 273.102 32.776 271.878 32.776C270.654 32.776 269.718 33.748 269.718 34.972V50.02ZM284.339 52.324C285.491 52.324 286.391 52.144 287.327 51.82C287.939 51.568 288.479 50.92 288.479 50.128C288.479 49.12 287.615 48.328 286.643 48.328C286.499 48.328 286.067 48.436 285.563 48.436C284.087 48.436 283.223 47.752 283.223 46.06V36.736H286.643C287.687 36.736 288.551 35.908 288.551 34.864C288.551 33.82 287.687 32.992 286.643 32.992H283.223V29.752C283.223 28.564 282.251 27.592 281.063 27.592C279.839 27.592 278.867 28.564 278.867 29.752V32.992H278.147C277.103 32.992 276.275 33.82 276.275 34.864C276.275 35.908 277.103 36.736 278.147 36.736H278.867V46.744C278.867 50.92 281.135 52.324 284.339 52.324ZM294.424 57.868C297.484 57.868 299.212 56.428 300.832 52.54L307.78 35.872C307.852 35.656 307.96 35.188 307.96 34.828C307.96 33.676 307.024 32.776 305.872 32.776C304.756 32.776 304.144 33.532 303.784 34.432L299.032 47.068L293.92 34.432C293.524 33.424 292.912 32.776 291.796 32.776C290.572 32.776 289.636 33.676 289.636 34.9C289.636 35.188 289.744 35.62 289.888 35.944L296.944 51.712L296.8 52.108C296.08 53.584 295.396 54.124 294.1 54.124C293.488 54.124 293.092 54.016 292.588 53.872C292.372 53.8 292.156 53.728 291.796 53.728C290.86 53.728 290.032 54.448 290.032 55.528C290.032 56.572 290.752 57.112 291.4 57.328C292.3 57.688 293.2 57.868 294.424 57.868ZM331.746 52.432C335.526 52.432 338.55 51.136 340.71 49.696C341.754 49.048 342.258 48.148 342.258 46.888V40.156C342.258 38.896 341.286 37.924 340.026 37.924H333.006C331.926 37.924 331.026 38.788 331.026 39.868C331.026 40.948 331.926 41.776 333.006 41.776H337.974V46.492C336.426 47.644 334.266 48.4 331.89 48.4C326.742 48.4 323.322 44.584 323.322 39.4V39.328C323.322 34.504 326.85 30.436 331.494 30.436C334.23 30.436 335.994 31.228 337.614 32.416C337.974 32.668 338.406 32.92 338.982 32.92C340.206 32.92 341.178 31.912 341.178 30.724C341.178 29.86 340.71 29.248 340.278 28.924C337.974 27.268 335.454 26.368 331.674 26.368C324.078 26.368 318.678 32.344 318.678 39.4V39.472C318.678 46.816 323.862 52.432 331.746 52.432ZM348.996 41.164C349.392 38.212 351.264 36.16 353.928 36.16C356.808 36.16 358.464 38.356 358.752 41.164H348.996ZM361.272 49.912C361.596 49.588 361.848 49.12 361.848 48.58C361.848 47.572 361.092 46.816 360.12 46.816C359.616 46.816 359.328 46.96 359.004 47.212C357.78 48.22 356.34 48.868 354.504 48.868C351.696 48.868 349.5 47.14 349.032 44.044H360.948C362.064 44.044 363 43.18 363 41.956C363 37.564 360.012 32.596 353.964 32.596C348.528 32.596 344.676 37.06 344.676 42.496V42.568C344.676 48.436 348.924 52.432 354.432 52.432C357.384 52.432 359.544 51.46 361.272 49.912ZM365.647 50.02C365.647 51.244 366.619 52.18 367.807 52.18C369.031 52.18 370.003 51.244 370.003 50.02V41.272C370.003 38.32 371.767 36.556 374.287 36.556C376.879 36.556 378.355 38.248 378.355 41.2V50.02C378.355 51.244 379.327 52.18 380.551 52.18C381.775 52.18 382.711 51.244 382.711 50.02V39.868C382.711 35.476 380.227 32.596 375.943 32.596C372.991 32.596 371.227 34.144 370.003 35.908V34.972C370.003 33.748 369.031 32.776 367.807 32.776C366.583 32.776 365.647 33.748 365.647 34.972V50.02ZM389.447 41.164C389.843 38.212 391.715 36.16 394.379 36.16C397.259 36.16 398.915 38.356 399.203 41.164H389.447ZM401.723 49.912C402.047 49.588 402.299 49.12 402.299 48.58C402.299 47.572 401.543 46.816 400.571 46.816C400.067 46.816 399.779 46.96 399.455 47.212C398.231 48.22 396.791 48.868 394.955 48.868C392.147 48.868 389.951 47.14 389.483 44.044H401.399C402.515 44.044 403.451 43.18 403.451 41.956C403.451 37.564 400.463 32.596 394.415 32.596C388.979 32.596 385.127 37.06 385.127 42.496V42.568C385.127 48.436 389.375 52.432 394.883 52.432C397.835 52.432 399.995 51.46 401.723 49.912ZM406.098 50.02C406.098 51.244 407.07 52.18 408.258 52.18C409.482 52.18 410.454 51.208 410.454 50.02V44.404C410.454 39.904 412.578 37.528 415.674 36.988C416.646 36.808 417.402 36.052 417.402 34.9C417.402 33.64 416.61 32.74 415.242 32.74C413.334 32.74 411.462 34.54 410.454 36.916V34.972C410.454 33.748 409.482 32.776 408.258 32.776C407.034 32.776 406.098 33.748 406.098 34.972V50.02ZM423.727 52.396C426.643 52.396 428.623 51.172 429.919 49.624V50.344C429.919 51.316 430.783 52.18 432.043 52.18C433.231 52.18 434.167 51.28 434.167 50.092V40.732C434.167 38.248 433.519 36.232 432.115 34.864C430.783 33.496 428.659 32.74 425.815 32.74C423.331 32.74 421.495 33.172 419.695 33.856C419.047 34.108 418.507 34.792 418.507 35.584C418.507 36.592 419.335 37.384 420.343 37.384C420.559 37.384 420.775 37.348 421.027 37.276C422.215 36.808 423.583 36.52 425.239 36.52C428.299 36.52 429.955 37.96 429.955 40.66V41.128C428.479 40.66 426.967 40.336 424.843 40.336C420.199 40.336 416.995 42.352 416.995 46.456V46.528C416.995 50.344 420.163 52.396 423.727 52.396ZM424.951 49.228C422.863 49.228 421.243 48.184 421.243 46.348V46.276C421.243 44.296 422.899 43.108 425.707 43.108C427.435 43.108 428.911 43.432 430.027 43.864V45.16C430.027 47.572 427.831 49.228 424.951 49.228ZM443.78 52.324C444.932 52.324 445.832 52.144 446.768 51.82C447.38 51.568 447.92 50.92 447.92 50.128C447.92 49.12 447.056 48.328 446.084 48.328C445.94 48.328 445.508 48.436 445.004 48.436C443.528 48.436 442.664 47.752 442.664 46.06V36.736H446.084C447.128 36.736 447.992 35.908 447.992 34.864C447.992 33.82 447.128 32.992 446.084 32.992H442.664V29.752C442.664 28.564 441.692 27.592 440.504 27.592C439.28 27.592 438.308 28.564 438.308 29.752V32.992H437.588C436.544 32.992 435.716 33.82 435.716 34.864C435.716 35.908 436.544 36.736 437.588 36.736H438.308V46.744C438.308 50.92 440.576 52.324 443.78 52.324ZM450.337 28.096C450.337 29.392 451.417 30.256 452.821 30.256C454.225 30.256 455.305 29.392 455.305 28.096V27.88C455.305 26.584 454.225 25.756 452.821 25.756C451.417 25.756 450.337 26.584 450.337 27.88V28.096ZM450.661 50.02C450.661 51.244 451.633 52.18 452.821 52.18C454.045 52.18 455.017 51.244 455.017 50.02V34.972C455.017 33.748 454.045 32.776 452.821 32.776C451.597 32.776 450.661 33.748 450.661 34.972V50.02ZM467.945 52.432C473.813 52.432 478.133 47.932 478.133 42.532V42.46C478.133 37.024 473.849 32.596 468.017 32.596C462.185 32.596 457.865 37.096 457.865 42.532V42.604C457.865 48.004 462.149 52.432 467.945 52.432ZM468.017 48.616C464.633 48.616 462.221 45.844 462.221 42.532V42.46C462.221 39.148 464.453 36.412 467.945 36.412C471.365 36.412 473.777 39.184 473.777 42.532V42.604C473.777 45.88 471.545 48.616 468.017 48.616ZM480.77 50.02C480.77 51.244 481.742 52.18 482.93 52.18C484.154 52.18 485.126 51.244 485.126 50.02V41.272C485.126 38.32 486.89 36.556 489.41 36.556C492.002 36.556 493.478 38.248 493.478 41.2V50.02C493.478 51.244 494.45 52.18 495.674 52.18C496.898 52.18 497.834 51.244 497.834 50.02V39.868C497.834 35.476 495.35 32.596 491.066 32.596C488.114 32.596 486.35 34.144 485.126 35.908V34.972C485.126 33.748 484.154 32.776 482.93 32.776C481.706 32.776 480.77 33.748 480.77 34.972V50.02ZM513.023 52H527.855C528.935 52 529.835 51.136 529.835 50.02C529.835 48.94 528.935 48.04 527.855 48.04H515.219V41.272H526.055C527.135 41.272 528.035 40.408 528.035 39.328C528.035 38.212 527.135 37.312 526.055 37.312H515.219V30.76H527.675C528.755 30.76 529.655 29.896 529.655 28.78C529.655 27.7 528.755 26.8 527.675 26.8H513.023C511.763 26.8 510.791 27.772 510.791 29.032V49.768C510.791 51.028 511.763 52 513.023 52ZM542.656 50.452L548.992 35.908C549.1 35.692 549.244 35.26 549.244 34.864C549.244 33.676 548.308 32.776 547.12 32.776C545.968 32.776 545.392 33.532 545.068 34.288L540.1 46.96L535.204 34.36C534.844 33.46 534.232 32.776 533.044 32.776C531.856 32.776 530.884 33.784 530.884 34.864C530.884 35.26 531.028 35.62 531.136 35.944L537.472 50.452C537.976 51.604 538.768 52.36 539.956 52.36H540.172C541.36 52.36 542.152 51.568 542.656 50.452ZM554.014 41.164C554.41 38.212 556.282 36.16 558.946 36.16C561.826 36.16 563.482 38.356 563.77 41.164H554.014ZM566.29 49.912C566.614 49.588 566.866 49.12 566.866 48.58C566.866 47.572 566.11 46.816 565.138 46.816C564.634 46.816 564.346 46.96 564.022 47.212C562.798 48.22 561.358 48.868 559.522 48.868C556.714 48.868 554.518 47.14 554.05 44.044H565.966C567.082 44.044 568.018 43.18 568.018 41.956C568.018 37.564 565.03 32.596 558.982 32.596C553.546 32.596 549.694 37.06 549.694 42.496V42.568C549.694 48.436 553.942 52.432 559.45 52.432C562.402 52.432 564.562 51.46 566.29 49.912ZM570.664 50.02C570.664 51.244 571.636 52.18 572.824 52.18C574.048 52.18 575.02 51.244 575.02 50.02V41.272C575.02 38.32 576.784 36.556 579.304 36.556C581.896 36.556 583.372 38.248 583.372 41.2V50.02C583.372 51.244 584.344 52.18 585.568 52.18C586.792 52.18 587.728 51.244 587.728 50.02V39.868C587.728 35.476 585.244 32.596 580.96 32.596C578.008 32.596 576.244 34.144 575.02 35.908V34.972C575.02 33.748 574.048 32.776 572.824 32.776C571.6 32.776 570.664 33.748 570.664 34.972V50.02ZM597.56 52.324C598.712 52.324 599.612 52.144 600.548 51.82C601.16 51.568 601.7 50.92 601.7 50.128C601.7 49.12 600.836 48.328 599.864 48.328C599.72 48.328 599.288 48.436 598.784 48.436C597.308 48.436 596.444 47.752 596.444 46.06V36.736H599.864C600.908 36.736 601.772 35.908 601.772 34.864C601.772 33.82 600.908 32.992 599.864 32.992H596.444V29.752C596.444 28.564 595.472 27.592 594.284 27.592C593.06 27.592 592.088 28.564 592.088 29.752V32.992H591.368C590.324 32.992 589.496 33.82 589.496 34.864C589.496 35.908 590.324 36.736 591.368 36.736H592.088V46.744C592.088 50.92 594.356 52.324 597.56 52.324Z" fill="black"/>
<path d="M32.94 47.432C37.008 47.432 39.708 46.136 42.084 44.048C42.48 43.688 42.804 43.148 42.804 42.464C42.804 41.348 41.832 40.412 40.716 40.412C40.176 40.412 39.708 40.628 39.384 40.916C37.548 42.464 35.748 43.328 33.084 43.328C28.26 43.328 24.768 39.332 24.768 34.4V34.328C24.768 29.396 28.296 25.436 33.084 25.436C35.496 25.436 37.368 26.3 39.096 27.704C39.384 27.92 39.816 28.136 40.428 28.136C41.652 28.136 42.624 27.2 42.624 25.976C42.624 25.184 42.228 24.572 41.76 24.212C39.564 22.52 37.008 21.368 33.12 21.368C25.488 21.368 20.124 27.236 20.124 34.4V34.472C20.124 41.708 25.596 47.432 32.94 47.432ZM45.5141 45.02C45.5141 46.244 46.4861 47.18 47.6741 47.18C48.8981 47.18 49.8701 46.208 49.8701 45.02V39.404C49.8701 34.904 51.9941 32.528 55.0901 31.988C56.0621 31.808 56.8181 31.052 56.8181 29.9C56.8181 28.64 56.0261 27.74 54.6581 27.74C52.7501 27.74 50.8781 29.54 49.8701 31.916V29.972C49.8701 28.748 48.8981 27.776 47.6741 27.776C46.4501 27.776 45.5141 28.748 45.5141 29.972V45.02ZM61.2284 36.164C61.6244 33.212 63.4964 31.16 66.1604 31.16C69.0404 31.16 70.6964 33.356 70.9844 36.164H61.2284ZM73.5044 44.912C73.8284 44.588 74.0804 44.12 74.0804 43.58C74.0804 42.572 73.3244 41.816 72.3524 41.816C71.8484 41.816 71.5604 41.96 71.2364 42.212C70.0124 43.22 68.5724 43.868 66.7364 43.868C63.9284 43.868 61.7324 42.14 61.2644 39.044H73.1804C74.2964 39.044 75.2324 38.18 75.2324 36.956C75.2324 32.564 72.2444 27.596 66.1964 27.596C60.7604 27.596 56.9084 32.06 56.9084 37.496V37.568C56.9084 43.436 61.1564 47.432 66.6644 47.432C69.6164 47.432 71.7764 46.46 73.5044 44.912ZM83.351 47.396C86.267 47.396 88.247 46.172 89.543 44.624V45.344C89.543 46.316 90.407 47.18 91.667 47.18C92.855 47.18 93.791 46.28 93.791 45.092V35.732C93.791 33.248 93.143 31.232 91.739 29.864C90.407 28.496 88.283 27.74 85.439 27.74C82.955 27.74 81.119 28.172 79.319 28.856C78.671 29.108 78.131 29.792 78.131 30.584C78.131 31.592 78.959 32.384 79.967 32.384C80.183 32.384 80.399 32.348 80.651 32.276C81.839 31.808 83.207 31.52 84.863 31.52C87.923 31.52 89.579 32.96 89.579 35.66V36.128C88.103 35.66 86.591 35.336 84.467 35.336C79.823 35.336 76.619 37.352 76.619 41.456V41.528C76.619 45.344 79.787 47.396 83.351 47.396ZM84.575 44.228C82.487 44.228 80.867 43.184 80.867 41.348V41.276C80.867 39.296 82.523 38.108 85.331 38.108C87.059 38.108 88.535 38.432 89.651 38.864V40.16C89.651 42.572 87.455 44.228 84.575 44.228ZM103.404 47.324C104.556 47.324 105.456 47.144 106.392 46.82C107.004 46.568 107.544 45.92 107.544 45.128C107.544 44.12 106.68 43.328 105.708 43.328C105.564 43.328 105.132 43.436 104.628 43.436C103.152 43.436 102.288 42.752 102.288 41.06V31.736H105.708C106.752 31.736 107.616 30.908 107.616 29.864C107.616 28.82 106.752 27.992 105.708 27.992H102.288V24.752C102.288 23.564 101.316 22.592 100.128 22.592C98.9041 22.592 97.9321 23.564 97.9321 24.752V27.992H97.2121C96.1681 27.992 95.3401 28.82 95.3401 29.864C95.3401 30.908 96.1681 31.736 97.2121 31.736H97.9321V41.744C97.9321 45.92 100.2 47.324 103.404 47.324ZM112.782 36.164C113.178 33.212 115.05 31.16 117.714 31.16C120.594 31.16 122.25 33.356 122.538 36.164H112.782ZM125.058 44.912C125.382 44.588 125.634 44.12 125.634 43.58C125.634 42.572 124.878 41.816 123.906 41.816C123.402 41.816 123.114 41.96 122.79 42.212C121.566 43.22 120.126 43.868 118.29 43.868C115.482 43.868 113.286 42.14 112.818 39.044H124.734C125.85 39.044 126.786 38.18 126.786 36.956C126.786 32.564 123.798 27.596 117.75 27.596C112.314 27.596 108.462 32.06 108.462 37.496V37.568C108.462 43.436 112.71 47.432 118.218 47.432C121.17 47.432 123.33 46.46 125.058 44.912ZM143.897 47.396C146.813 47.396 148.793 46.172 150.089 44.624V45.344C150.089 46.316 150.953 47.18 152.213 47.18C153.401 47.18 154.337 46.28 154.337 45.092V35.732C154.337 33.248 153.689 31.232 152.285 29.864C150.953 28.496 148.829 27.74 145.985 27.74C143.501 27.74 141.665 28.172 139.865 28.856C139.217 29.108 138.677 29.792 138.677 30.584C138.677 31.592 139.505 32.384 140.513 32.384C140.729 32.384 140.945 32.348 141.197 32.276C142.385 31.808 143.753 31.52 145.409 31.52C148.469 31.52 150.125 32.96 150.125 35.66V36.128C148.649 35.66 147.137 35.336 145.013 35.336C140.369 35.336 137.165 37.352 137.165 41.456V41.528C137.165 45.344 140.333 47.396 143.897 47.396ZM145.121 44.228C143.033 44.228 141.413 43.184 141.413 41.348V41.276C141.413 39.296 143.069 38.108 145.877 38.108C147.605 38.108 149.081 38.432 150.197 38.864V40.16C150.197 42.572 148.001 44.228 145.121 44.228Z" fill="#00E59D"/>
<path d="M167.251 44.768C167.251 46.028 168.223 47 169.483 47H183.091C184.207 47 185.107 46.1 185.107 44.984C185.107 43.868 184.207 42.968 183.091 42.968H171.679V23.816C171.679 22.592 170.707 21.62 169.483 21.62C168.223 21.62 167.251 22.592 167.251 23.816V44.768ZM187.164 23.096C187.164 24.392 188.244 25.256 189.648 25.256C191.052 25.256 192.132 24.392 192.132 23.096V22.88C192.132 21.584 191.052 20.756 189.648 20.756C188.244 20.756 187.164 21.584 187.164 22.88V23.096ZM187.488 45.02C187.488 46.244 188.46 47.18 189.648 47.18C190.872 47.18 191.844 46.244 191.844 45.02V29.972C191.844 28.748 190.872 27.776 189.648 27.776C188.424 27.776 187.488 28.748 187.488 29.972V45.02ZM214.421 29.972C214.421 28.748 213.449 27.776 212.225 27.776C211.037 27.776 210.065 28.748 210.065 29.936V30.944C208.697 29.144 206.717 27.596 203.585 27.596C199.049 27.596 194.765 31.16 194.765 37.46V37.532C194.765 43.832 199.121 47.396 203.585 47.396C206.681 47.396 208.661 45.812 210.065 43.832V50.78C210.065 52.004 211.037 52.94 212.261 52.94C213.449 52.94 214.421 52.004 214.421 50.78V29.972ZM204.629 31.376C207.545 31.376 210.137 33.788 210.137 37.46V37.532C210.137 41.168 207.545 43.616 204.629 43.616C201.677 43.616 199.157 41.204 199.157 37.532V37.46C199.157 33.68 201.641 31.376 204.629 31.376ZM234.973 29.972C234.973 28.748 233.965 27.776 232.777 27.776C231.553 27.776 230.581 28.748 230.581 29.972V38.72C230.581 41.672 228.817 43.4 226.297 43.4C223.705 43.4 222.229 41.744 222.229 38.792V29.972C222.229 28.748 221.257 27.776 220.033 27.776C218.845 27.776 217.873 28.748 217.873 29.972V40.088C217.873 44.516 220.357 47.396 224.641 47.396C227.593 47.396 229.357 45.848 230.581 44.048V45.02C230.581 46.244 231.589 47.18 232.777 47.18C234.001 47.18 234.973 46.208 234.973 45.02V29.972ZM238.541 23.096C238.541 24.392 239.621 25.256 241.025 25.256C242.429 25.256 243.509 24.392 243.509 23.096V22.88C243.509 21.584 242.429 20.756 241.025 20.756C239.621 20.756 238.541 21.584 238.541 22.88V23.096ZM238.865 45.02C238.865 46.244 239.837 47.18 241.025 47.18C242.249 47.18 243.221 46.244 243.221 45.02V29.972C243.221 28.748 242.249 27.776 241.025 27.776C239.801 27.776 238.865 28.748 238.865 29.972V45.02ZM265.798 22.7C265.798 21.476 264.826 20.54 263.602 20.54C262.414 20.54 261.442 21.476 261.442 22.7V30.944C260.074 29.144 258.094 27.596 254.962 27.596C250.426 27.596 246.142 31.16 246.142 37.46V37.532C246.142 43.832 250.498 47.396 254.962 47.396C258.058 47.396 260.038 45.812 261.442 43.832V45.02C261.442 46.244 262.414 47.18 263.638 47.18C264.826 47.18 265.798 46.244 265.798 45.02V22.7ZM256.006 31.376C258.922 31.376 261.514 33.788 261.514 37.46V37.532C261.514 41.168 258.922 43.616 256.006 43.616C253.054 43.616 250.534 41.204 250.534 37.532V37.46C250.534 33.68 253.018 31.376 256.006 31.376ZM269.394 23.096C269.394 24.392 270.474 25.256 271.878 25.256C273.282 25.256 274.362 24.392 274.362 23.096V22.88C274.362 21.584 273.282 20.756 271.878 20.756C270.474 20.756 269.394 21.584 269.394 22.88V23.096ZM269.718 45.02C269.718 46.244 270.69 47.18 271.878 47.18C273.102 47.18 274.074 46.244 274.074 45.02V29.972C274.074 28.748 273.102 27.776 271.878 27.776C270.654 27.776 269.718 28.748 269.718 29.972V45.02ZM284.339 47.324C285.491 47.324 286.391 47.144 287.327 46.82C287.939 46.568 288.479 45.92 288.479 45.128C288.479 44.12 287.615 43.328 286.643 43.328C286.499 43.328 286.067 43.436 285.563 43.436C284.087 43.436 283.223 42.752 283.223 41.06V31.736H286.643C287.687 31.736 288.551 30.908 288.551 29.864C288.551 28.82 287.687 27.992 286.643 27.992H283.223V24.752C283.223 23.564 282.251 22.592 281.063 22.592C279.839 22.592 278.867 23.564 278.867 24.752V27.992H278.147C277.103 27.992 276.275 28.82 276.275 29.864C276.275 30.908 277.103 31.736 278.147 31.736H278.867V41.744C278.867 45.92 281.135 47.324 284.339 47.324ZM294.424 52.868C297.484 52.868 299.212 51.428 300.832 47.54L307.78 30.872C307.852 30.656 307.96 30.188 307.96 29.828C307.96 28.676 307.024 27.776 305.872 27.776C304.756 27.776 304.144 28.532 303.784 29.432L299.032 42.068L293.92 29.432C293.524 28.424 292.912 27.776 291.796 27.776C290.572 27.776 289.636 28.676 289.636 29.9C289.636 30.188 289.744 30.62 289.888 30.944L296.944 46.712L296.8 47.108C296.08 48.584 295.396 49.124 294.1 49.124C293.488 49.124 293.092 49.016 292.588 48.872C292.372 48.8 292.156 48.728 291.796 48.728C290.86 48.728 290.032 49.448 290.032 50.528C290.032 51.572 290.752 52.112 291.4 52.328C292.3 52.688 293.2 52.868 294.424 52.868ZM331.746 47.432C335.526 47.432 338.55 46.136 340.71 44.696C341.754 44.048 342.258 43.148 342.258 41.888V35.156C342.258 33.896 341.286 32.924 340.026 32.924H333.006C331.926 32.924 331.026 33.788 331.026 34.868C331.026 35.948 331.926 36.776 333.006 36.776H337.974V41.492C336.426 42.644 334.266 43.4 331.89 43.4C326.742 43.4 323.322 39.584 323.322 34.4V34.328C323.322 29.504 326.85 25.436 331.494 25.436C334.23 25.436 335.994 26.228 337.614 27.416C337.974 27.668 338.406 27.92 338.982 27.92C340.206 27.92 341.178 26.912 341.178 25.724C341.178 24.86 340.71 24.248 340.278 23.924C337.974 22.268 335.454 21.368 331.674 21.368C324.078 21.368 318.678 27.344 318.678 34.4V34.472C318.678 41.816 323.862 47.432 331.746 47.432ZM348.996 36.164C349.392 33.212 351.264 31.16 353.928 31.16C356.808 31.16 358.464 33.356 358.752 36.164H348.996ZM361.272 44.912C361.596 44.588 361.848 44.12 361.848 43.58C361.848 42.572 361.092 41.816 360.12 41.816C359.616 41.816 359.328 41.96 359.004 42.212C357.78 43.22 356.34 43.868 354.504 43.868C351.696 43.868 349.5 42.14 349.032 39.044H360.948C362.064 39.044 363 38.18 363 36.956C363 32.564 360.012 27.596 353.964 27.596C348.528 27.596 344.676 32.06 344.676 37.496V37.568C344.676 43.436 348.924 47.432 354.432 47.432C357.384 47.432 359.544 46.46 361.272 44.912ZM365.647 45.02C365.647 46.244 366.619 47.18 367.807 47.18C369.031 47.18 370.003 46.244 370.003 45.02V36.272C370.003 33.32 371.767 31.556 374.287 31.556C376.879 31.556 378.355 33.248 378.355 36.2V45.02C378.355 46.244 379.327 47.18 380.551 47.18C381.775 47.18 382.711 46.244 382.711 45.02V34.868C382.711 30.476 380.227 27.596 375.943 27.596C372.991 27.596 371.227 29.144 370.003 30.908V29.972C370.003 28.748 369.031 27.776 367.807 27.776C366.583 27.776 365.647 28.748 365.647 29.972V45.02ZM389.447 36.164C389.843 33.212 391.715 31.16 394.379 31.16C397.259 31.16 398.915 33.356 399.203 36.164H389.447ZM401.723 44.912C402.047 44.588 402.299 44.12 402.299 43.58C402.299 42.572 401.543 41.816 400.571 41.816C400.067 41.816 399.779 41.96 399.455 42.212C398.231 43.22 396.791 43.868 394.955 43.868C392.147 43.868 389.951 42.14 389.483 39.044H401.399C402.515 39.044 403.451 38.18 403.451 36.956C403.451 32.564 400.463 27.596 394.415 27.596C388.979 27.596 385.127 32.06 385.127 37.496V37.568C385.127 43.436 389.375 47.432 394.883 47.432C397.835 47.432 399.995 46.46 401.723 44.912ZM406.098 45.02C406.098 46.244 407.07 47.18 408.258 47.18C409.482 47.18 410.454 46.208 410.454 45.02V39.404C410.454 34.904 412.578 32.528 415.674 31.988C416.646 31.808 417.402 31.052 417.402 29.9C417.402 28.64 416.61 27.74 415.242 27.74C413.334 27.74 411.462 29.54 410.454 31.916V29.972C410.454 28.748 409.482 27.776 408.258 27.776C407.034 27.776 406.098 28.748 406.098 29.972V45.02ZM423.727 47.396C426.643 47.396 428.623 46.172 429.919 44.624V45.344C429.919 46.316 430.783 47.18 432.043 47.18C433.231 47.18 434.167 46.28 434.167 45.092V35.732C434.167 33.248 433.519 31.232 432.115 29.864C430.783 28.496 428.659 27.74 425.815 27.74C423.331 27.74 421.495 28.172 419.695 28.856C419.047 29.108 418.507 29.792 418.507 30.584C418.507 31.592 419.335 32.384 420.343 32.384C420.559 32.384 420.775 32.348 421.027 32.276C422.215 31.808 423.583 31.52 425.239 31.52C428.299 31.52 429.955 32.96 429.955 35.66V36.128C428.479 35.66 426.967 35.336 424.843 35.336C420.199 35.336 416.995 37.352 416.995 41.456V41.528C416.995 45.344 420.163 47.396 423.727 47.396ZM424.951 44.228C422.863 44.228 421.243 43.184 421.243 41.348V41.276C421.243 39.296 422.899 38.108 425.707 38.108C427.435 38.108 428.911 38.432 430.027 38.864V40.16C430.027 42.572 427.831 44.228 424.951 44.228ZM443.78 47.324C444.932 47.324 445.832 47.144 446.768 46.82C447.38 46.568 447.92 45.92 447.92 45.128C447.92 44.12 447.056 43.328 446.084 43.328C445.94 43.328 445.508 43.436 445.004 43.436C443.528 43.436 442.664 42.752 442.664 41.06V31.736H446.084C447.128 31.736 447.992 30.908 447.992 29.864C447.992 28.82 447.128 27.992 446.084 27.992H442.664V24.752C442.664 23.564 441.692 22.592 440.504 22.592C439.28 22.592 438.308 23.564 438.308 24.752V27.992H437.588C436.544 27.992 435.716 28.82 435.716 29.864C435.716 30.908 436.544 31.736 437.588 31.736H438.308V41.744C438.308 45.92 440.576 47.324 443.78 47.324ZM450.337 23.096C450.337 24.392 451.417 25.256 452.821 25.256C454.225 25.256 455.305 24.392 455.305 23.096V22.88C455.305 21.584 454.225 20.756 452.821 20.756C451.417 20.756 450.337 21.584 450.337 22.88V23.096ZM450.661 45.02C450.661 46.244 451.633 47.18 452.821 47.18C454.045 47.18 455.017 46.244 455.017 45.02V29.972C455.017 28.748 454.045 27.776 452.821 27.776C451.597 27.776 450.661 28.748 450.661 29.972V45.02ZM467.945 47.432C473.813 47.432 478.133 42.932 478.133 37.532V37.46C478.133 32.024 473.849 27.596 468.017 27.596C462.185 27.596 457.865 32.096 457.865 37.532V37.604C457.865 43.004 462.149 47.432 467.945 47.432ZM468.017 43.616C464.633 43.616 462.221 40.844 462.221 37.532V37.46C462.221 34.148 464.453 31.412 467.945 31.412C471.365 31.412 473.777 34.184 473.777 37.532V37.604C473.777 40.88 471.545 43.616 468.017 43.616ZM480.77 45.02C480.77 46.244 481.742 47.18 482.93 47.18C484.154 47.18 485.126 46.244 485.126 45.02V36.272C485.126 33.32 486.89 31.556 489.41 31.556C492.002 31.556 493.478 33.248 493.478 36.2V45.02C493.478 46.244 494.45 47.18 495.674 47.18C496.898 47.18 497.834 46.244 497.834 45.02V34.868C497.834 30.476 495.35 27.596 491.066 27.596C488.114 27.596 486.35 29.144 485.126 30.908V29.972C485.126 28.748 484.154 27.776 482.93 27.776C481.706 27.776 480.77 28.748 480.77 29.972V45.02ZM513.023 47H527.855C528.935 47 529.835 46.136 529.835 45.02C529.835 43.94 528.935 43.04 527.855 43.04H515.219V36.272H526.055C527.135 36.272 528.035 35.408 528.035 34.328C528.035 33.212 527.135 32.312 526.055 32.312H515.219V25.76H527.675C528.755 25.76 529.655 24.896 529.655 23.78C529.655 22.7 528.755 21.8 527.675 21.8H513.023C511.763 21.8 510.791 22.772 510.791 24.032V44.768C510.791 46.028 511.763 47 513.023 47ZM542.656 45.452L548.992 30.908C549.1 30.692 549.244 30.26 549.244 29.864C549.244 28.676 548.308 27.776 547.12 27.776C545.968 27.776 545.392 28.532 545.068 29.288L540.1 41.96L535.204 29.36C534.844 28.46 534.232 27.776 533.044 27.776C531.856 27.776 530.884 28.784 530.884 29.864C530.884 30.26 531.028 30.62 531.136 30.944L537.472 45.452C537.976 46.604 538.768 47.36 539.956 47.36H540.172C541.36 47.36 542.152 46.568 542.656 45.452ZM554.014 36.164C554.41 33.212 556.282 31.16 558.946 31.16C561.826 31.16 563.482 33.356 563.77 36.164H554.014ZM566.29 44.912C566.614 44.588 566.866 44.12 566.866 43.58C566.866 42.572 566.11 41.816 565.138 41.816C564.634 41.816 564.346 41.96 564.022 42.212C562.798 43.22 561.358 43.868 559.522 43.868C556.714 43.868 554.518 42.14 554.05 39.044H565.966C567.082 39.044 568.018 38.18 568.018 36.956C568.018 32.564 565.03 27.596 558.982 27.596C553.546 27.596 549.694 32.06 549.694 37.496V37.568C549.694 43.436 553.942 47.432 559.45 47.432C562.402 47.432 564.562 46.46 566.29 44.912ZM570.664 45.02C570.664 46.244 571.636 47.18 572.824 47.18C574.048 47.18 575.02 46.244 575.02 45.02V36.272C575.02 33.32 576.784 31.556 579.304 31.556C581.896 31.556 583.372 33.248 583.372 36.2V45.02C583.372 46.244 584.344 47.18 585.568 47.18C586.792 47.18 587.728 46.244 587.728 45.02V34.868C587.728 30.476 585.244 27.596 580.96 27.596C578.008 27.596 576.244 29.144 575.02 30.908V29.972C575.02 28.748 574.048 27.776 572.824 27.776C571.6 27.776 570.664 28.748 570.664 29.972V45.02ZM597.56 47.324C598.712 47.324 599.612 47.144 600.548 46.82C601.16 46.568 601.7 45.92 601.7 45.128C601.7 44.12 600.836 43.328 599.864 43.328C599.72 43.328 599.288 43.436 598.784 43.436C597.308 43.436 596.444 42.752 596.444 41.06V31.736H599.864C600.908 31.736 601.772 30.908 601.772 29.864C601.772 28.82 600.908 27.992 599.864 27.992H596.444V24.752C596.444 23.564 595.472 22.592 594.284 22.592C593.06 22.592 592.088 23.564 592.088 24.752V27.992H591.368C590.324 27.992 589.496 28.82 589.496 29.864C589.496 30.908 590.324 31.736 591.368 31.736H592.088V41.744C592.088 45.92 594.356 47.324 597.56 47.324Z" fill="#FF0000"/>
<g filter="url(#filter0)">
<path d="M32.94 47.432C37.008 47.432 39.708 46.136 42.084 44.048C42.48 43.688 42.804 43.148 42.804 42.464C42.804 41.348 41.832 40.412 40.716 40.412C40.176 40.412 39.708 40.628 39.384 40.916C37.548 42.464 35.748 43.328 33.084 43.328C28.26 43.328 24.768 39.332 24.768 34.4V34.328C24.768 29.396 28.296 25.436 33.084 25.436C35.496 25.436 37.368 26.3 39.096 27.704C39.384 27.92 39.816 28.136 40.428 28.136C41.652 28.136 42.624 27.2 42.624 25.976C42.624 25.184 42.228 24.572 41.76 24.212C39.564 22.52 37.008 21.368 33.12 21.368C25.488 21.368 20.124 27.236 20.124 34.4V34.472C20.124 41.708 25.596 47.432 32.94 47.432ZM45.5141 45.02C45.5141 46.244 46.4861 47.18 47.6741 47.18C48.8981 47.18 49.8701 46.208 49.8701 45.02V39.404C49.8701 34.904 51.9941 32.528 55.0901 31.988C56.0621 31.808 56.8181 31.052 56.8181 29.9C56.8181 28.64 56.0261 27.74 54.6581 27.74C52.7501 27.74 50.8781 29.54 49.8701 31.916V29.972C49.8701 28.748 48.8981 27.776 47.6741 27.776C46.4501 27.776 45.5141 28.748 45.5141 29.972V45.02ZM61.2284 36.164C61.6244 33.212 63.4964 31.16 66.1604 31.16C69.0404 31.16 70.6964 33.356 70.9844 36.164H61.2284ZM73.5044 44.912C73.8284 44.588 74.0804 44.12 74.0804 43.58C74.0804 42.572 73.3244 41.816 72.3524 41.816C71.8484 41.816 71.5604 41.96 71.2364 42.212C70.0124 43.22 68.5724 43.868 66.7364 43.868C63.9284 43.868 61.7324 42.14 61.2644 39.044H73.1804C74.2964 39.044 75.2324 38.18 75.2324 36.956C75.2324 32.564 72.2444 27.596 66.1964 27.596C60.7604 27.596 56.9084 32.06 56.9084 37.496V37.568C56.9084 43.436 61.1564 47.432 66.6644 47.432C69.6164 47.432 71.7764 46.46 73.5044 44.912ZM83.351 47.396C86.267 47.396 88.247 46.172 89.543 44.624V45.344C89.543 46.316 90.407 47.18 91.667 47.18C92.855 47.18 93.791 46.28 93.791 45.092V35.732C93.791 33.248 93.143 31.232 91.739 29.864C90.407 28.496 88.283 27.74 85.439 27.74C82.955 27.74 81.119 28.172 79.319 28.856C78.671 29.108 78.131 29.792 78.131 30.584C78.131 31.592 78.959 32.384 79.967 32.384C80.183 32.384 80.399 32.348 80.651 32.276C81.839 31.808 83.207 31.52 84.863 31.52C87.923 31.52 89.579 32.96 89.579 35.66V36.128C88.103 35.66 86.591 35.336 84.467 35.336C79.823 35.336 76.619 37.352 76.619 41.456V41.528C76.619 45.344 79.787 47.396 83.351 47.396ZM84.575 44.228C82.487 44.228 80.867 43.184 80.867 41.348V41.276C80.867 39.296 82.523 38.108 85.331 38.108C87.059 38.108 88.535 38.432 89.651 38.864V40.16C89.651 42.572 87.455 44.228 84.575 44.228ZM103.404 47.324C104.556 47.324 105.456 47.144 106.392 46.82C107.004 46.568 107.544 45.92 107.544 45.128C107.544 44.12 106.68 43.328 105.708 43.328C105.564 43.328 105.132 43.436 104.628 43.436C103.152 43.436 102.288 42.752 102.288 41.06V31.736H105.708C106.752 31.736 107.616 30.908 107.616 29.864C107.616 28.82 106.752 27.992 105.708 27.992H102.288V24.752C102.288 23.564 101.316 22.592 100.128 22.592C98.9041 22.592 97.9321 23.564 97.9321 24.752V27.992H97.2121C96.1681 27.992 95.3401 28.82 95.3401 29.864C95.3401 30.908 96.1681 31.736 97.2121 31.736H97.9321V41.744C97.9321 45.92 100.2 47.324 103.404 47.324ZM112.782 36.164C113.178 33.212 115.05 31.16 117.714 31.16C120.594 31.16 122.25 33.356 122.538 36.164H112.782ZM125.058 44.912C125.382 44.588 125.634 44.12 125.634 43.58C125.634 42.572 124.878 41.816 123.906 41.816C123.402 41.816 123.114 41.96 122.79 42.212C121.566 43.22 120.126 43.868 118.29 43.868C115.482 43.868 113.286 42.14 112.818 39.044H124.734C125.85 39.044 126.786 38.18 126.786 36.956C126.786 32.564 123.798 27.596 117.75 27.596C112.314 27.596 108.462 32.06 108.462 37.496V37.568C108.462 43.436 112.71 47.432 118.218 47.432C121.17 47.432 123.33 46.46 125.058 44.912ZM143.897 47.396C146.813 47.396 148.793 46.172 150.089 44.624V45.344C150.089 46.316 150.953 47.18 152.213 47.18C153.401 47.18 154.337 46.28 154.337 45.092V35.732C154.337 33.248 153.689 31.232 152.285 29.864C150.953 28.496 148.829 27.74 145.985 27.74C143.501 27.74 141.665 28.172 139.865 28.856C139.217 29.108 138.677 29.792 138.677 30.584C138.677 31.592 139.505 32.384 140.513 32.384C140.729 32.384 140.945 32.348 141.197 32.276C142.385 31.808 143.753 31.52 145.409 31.52C148.469 31.52 150.125 32.96 150.125 35.66V36.128C148.649 35.66 147.137 35.336 145.013 35.336C140.369 35.336 137.165 37.352 137.165 41.456V41.528C137.165 45.344 140.333 47.396 143.897 47.396ZM145.121 44.228C143.033 44.228 141.413 43.184 141.413 41.348V41.276C141.413 39.296 143.069 38.108 145.877 38.108C147.605 38.108 149.081 38.432 150.197 38.864V40.16C150.197 42.572 148.001 44.228 145.121 44.228Z" fill="#00E59D"/>
<path d="M167.251 44.768C167.251 46.028 168.223 47 169.483 47H183.091C184.207 47 185.107 46.1 185.107 44.984C185.107 43.868 184.207 42.968 183.091 42.968H171.679V23.816C171.679 22.592 170.707 21.62 169.483 21.62C168.223 21.62 167.251 22.592 167.251 23.816V44.768ZM187.164 23.096C187.164 24.392 188.244 25.256 189.648 25.256C191.052 25.256 192.132 24.392 192.132 23.096V22.88C192.132 21.584 191.052 20.756 189.648 20.756C188.244 20.756 187.164 21.584 187.164 22.88V23.096ZM187.488 45.02C187.488 46.244 188.46 47.18 189.648 47.18C190.872 47.18 191.844 46.244 191.844 45.02V29.972C191.844 28.748 190.872 27.776 189.648 27.776C188.424 27.776 187.488 28.748 187.488 29.972V45.02ZM214.421 29.972C214.421 28.748 213.449 27.776 212.225 27.776C211.037 27.776 210.065 28.748 210.065 29.936V30.944C208.697 29.144 206.717 27.596 203.585 27.596C199.049 27.596 194.765 31.16 194.765 37.46V37.532C194.765 43.832 199.121 47.396 203.585 47.396C206.681 47.396 208.661 45.812 210.065 43.832V50.78C210.065 52.004 211.037 52.94 212.261 52.94C213.449 52.94 214.421 52.004 214.421 50.78V29.972ZM204.629 31.376C207.545 31.376 210.137 33.788 210.137 37.46V37.532C210.137 41.168 207.545 43.616 204.629 43.616C201.677 43.616 199.157 41.204 199.157 37.532V37.46C199.157 33.68 201.641 31.376 204.629 31.376ZM234.973 29.972C234.973 28.748 233.965 27.776 232.777 27.776C231.553 27.776 230.581 28.748 230.581 29.972V38.72C230.581 41.672 228.817 43.4 226.297 43.4C223.705 43.4 222.229 41.744 222.229 38.792V29.972C222.229 28.748 221.257 27.776 220.033 27.776C218.845 27.776 217.873 28.748 217.873 29.972V40.088C217.873 44.516 220.357 47.396 224.641 47.396C227.593 47.396 229.357 45.848 230.581 44.048V45.02C230.581 46.244 231.589 47.18 232.777 47.18C234.001 47.18 234.973 46.208 234.973 45.02V29.972ZM238.541 23.096C238.541 24.392 239.621 25.256 241.025 25.256C242.429 25.256 243.509 24.392 243.509 23.096V22.88C243.509 21.584 242.429 20.756 241.025 20.756C239.621 20.756 238.541 21.584 238.541 22.88V23.096ZM238.865 45.02C238.865 46.244 239.837 47.18 241.025 47.18C242.249 47.18 243.221 46.244 243.221 45.02V29.972C243.221 28.748 242.249 27.776 241.025 27.776C239.801 27.776 238.865 28.748 238.865 29.972V45.02ZM265.798 22.7C265.798 21.476 264.826 20.54 263.602 20.54C262.414 20.54 261.442 21.476 261.442 22.7V30.944C260.074 29.144 258.094 27.596 254.962 27.596C250.426 27.596 246.142 31.16 246.142 37.46V37.532C246.142 43.832 250.498 47.396 254.962 47.396C258.058 47.396 260.038 45.812 261.442 43.832V45.02C261.442 46.244 262.414 47.18 263.638 47.18C264.826 47.18 265.798 46.244 265.798 45.02V22.7ZM256.006 31.376C258.922 31.376 261.514 33.788 261.514 37.46V37.532C261.514 41.168 258.922 43.616 256.006 43.616C253.054 43.616 250.534 41.204 250.534 37.532V37.46C250.534 33.68 253.018 31.376 256.006 31.376ZM269.394 23.096C269.394 24.392 270.474 25.256 271.878 25.256C273.282 25.256 274.362 24.392 274.362 23.096V22.88C274.362 21.584 273.282 20.756 271.878 20.756C270.474 20.756 269.394 21.584 269.394 22.88V23.096ZM269.718 45.02C269.718 46.244 270.69 47.18 271.878 47.18C273.102 47.18 274.074 46.244 274.074 45.02V29.972C274.074 28.748 273.102 27.776 271.878 27.776C270.654 27.776 269.718 28.748 269.718 29.972V45.02ZM284.339 47.324C285.491 47.324 286.391 47.144 287.327 46.82C287.939 46.568 288.479 45.92 288.479 45.128C288.479 44.12 287.615 43.328 286.643 43.328C286.499 43.328 286.067 43.436 285.563 43.436C284.087 43.436 283.223 42.752 283.223 41.06V31.736H286.643C287.687 31.736 288.551 30.908 288.551 29.864C288.551 28.82 287.687 27.992 286.643 27.992H283.223V24.752C283.223 23.564 282.251 22.592 281.063 22.592C279.839 22.592 278.867 23.564 278.867 24.752V27.992H278.147C277.103 27.992 276.275 28.82 276.275 29.864C276.275 30.908 277.103 31.736 278.147 31.736H278.867V41.744C278.867 45.92 281.135 47.324 284.339 47.324ZM294.424 52.868C297.484 52.868 299.212 51.428 300.832 47.54L307.78 30.872C307.852 30.656 307.96 30.188 307.96 29.828C307.96 28.676 307.024 27.776 305.872 27.776C304.756 27.776 304.144 28.532 303.784 29.432L299.032 42.068L293.92 29.432C293.524 28.424 292.912 27.776 291.796 27.776C290.572 27.776 289.636 28.676 289.636 29.9C289.636 30.188 289.744 30.62 289.888 30.944L296.944 46.712L296.8 47.108C296.08 48.584 295.396 49.124 294.1 49.124C293.488 49.124 293.092 49.016 292.588 48.872C292.372 48.8 292.156 48.728 291.796 48.728C290.86 48.728 290.032 49.448 290.032 50.528C290.032 51.572 290.752 52.112 291.4 52.328C292.3 52.688 293.2 52.868 294.424 52.868ZM331.746 47.432C335.526 47.432 338.55 46.136 340.71 44.696C341.754 44.048 342.258 43.148 342.258 41.888V35.156C342.258 33.896 341.286 32.924 340.026 32.924H333.006C331.926 32.924 331.026 33.788 331.026 34.868C331.026 35.948 331.926 36.776 333.006 36.776H337.974V41.492C336.426 42.644 334.266 43.4 331.89 43.4C326.742 43.4 323.322 39.584 323.322 34.4V34.328C323.322 29.504 326.85 25.436 331.494 25.436C334.23 25.436 335.994 26.228 337.614 27.416C337.974 27.668 338.406 27.92 338.982 27.92C340.206 27.92 341.178 26.912 341.178 25.724C341.178 24.86 340.71 24.248 340.278 23.924C337.974 22.268 335.454 21.368 331.674 21.368C324.078 21.368 318.678 27.344 318.678 34.4V34.472C318.678 41.816 323.862 47.432 331.746 47.432ZM348.996 36.164C349.392 33.212 351.264 31.16 353.928 31.16C356.808 31.16 358.464 33.356 358.752 36.164H348.996ZM361.272 44.912C361.596 44.588 361.848 44.12 361.848 43.58C361.848 42.572 361.092 41.816 360.12 41.816C359.616 41.816 359.328 41.96 359.004 42.212C357.78 43.22 356.34 43.868 354.504 43.868C351.696 43.868 349.5 42.14 349.032 39.044H360.948C362.064 39.044 363 38.18 363 36.956C363 32.564 360.012 27.596 353.964 27.596C348.528 27.596 344.676 32.06 344.676 37.496V37.568C344.676 43.436 348.924 47.432 354.432 47.432C357.384 47.432 359.544 46.46 361.272 44.912ZM365.647 45.02C365.647 46.244 366.619 47.18 367.807 47.18C369.031 47.18 370.003 46.244 370.003 45.02V36.272C370.003 33.32 371.767 31.556 374.287 31.556C376.879 31.556 378.355 33.248 378.355 36.2V45.02C378.355 46.244 379.327 47.18 380.551 47.18C381.775 47.18 382.711 46.244 382.711 45.02V34.868C382.711 30.476 380.227 27.596 375.943 27.596C372.991 27.596 371.227 29.144 370.003 30.908V29.972C370.003 28.748 369.031 27.776 367.807 27.776C366.583 27.776 365.647 28.748 365.647 29.972V45.02ZM389.447 36.164C389.843 33.212 391.715 31.16 394.379 31.16C397.259 31.16 398.915 33.356 399.203 36.164H389.447ZM401.723 44.912C402.047 44.588 402.299 44.12 402.299 43.58C402.299 42.572 401.543 41.816 400.571 41.816C400.067 41.816 399.779 41.96 399.455 42.212C398.231 43.22 396.791 43.868 394.955 43.868C392.147 43.868 389.951 42.14 389.483 39.044H401.399C402.515 39.044 403.451 38.18 403.451 36.956C403.451 32.564 400.463 27.596 394.415 27.596C388.979 27.596 385.127 32.06 385.127 37.496V37.568C385.127 43.436 389.375 47.432 394.883 47.432C397.835 47.432 399.995 46.46 401.723 44.912ZM406.098 45.02C406.098 46.244 407.07 47.18 408.258 47.18C409.482 47.18 410.454 46.208 410.454 45.02V39.404C410.454 34.904 412.578 32.528 415.674 31.988C416.646 31.808 417.402 31.052 417.402 29.9C417.402 28.64 416.61 27.74 415.242 27.74C413.334 27.74 411.462 29.54 410.454 31.916V29.972C410.454 28.748 409.482 27.776 408.258 27.776C407.034 27.776 406.098 28.748 406.098 29.972V45.02ZM423.727 47.396C426.643 47.396 428.623 46.172 429.919 44.624V45.344C429.919 46.316 430.783 47.18 432.043 47.18C433.231 47.18 434.167 46.28 434.167 45.092V35.732C434.167 33.248 433.519 31.232 432.115 29.864C430.783 28.496 428.659 27.74 425.815 27.74C423.331 27.74 421.495 28.172 419.695 28.856C419.047 29.108 418.507 29.792 418.507 30.584C418.507 31.592 419.335 32.384 420.343 32.384C420.559 32.384 420.775 32.348 421.027 32.276C422.215 31.808 423.583 31.52 425.239 31.52C428.299 31.52 429.955 32.96 429.955 35.66V36.128C428.479 35.66 426.967 35.336 424.843 35.336C420.199 35.336 416.995 37.352 416.995 41.456V41.528C416.995 45.344 420.163 47.396 423.727 47.396ZM424.951 44.228C422.863 44.228 421.243 43.184 421.243 41.348V41.276C421.243 39.296 422.899 38.108 425.707 38.108C427.435 38.108 428.911 38.432 430.027 38.864V40.16C430.027 42.572 427.831 44.228 424.951 44.228ZM443.78 47.324C444.932 47.324 445.832 47.144 446.768 46.82C447.38 46.568 447.92 45.92 447.92 45.128C447.92 44.12 447.056 43.328 446.084 43.328C445.94 43.328 445.508 43.436 445.004 43.436C443.528 43.436 442.664 42.752 442.664 41.06V31.736H446.084C447.128 31.736 447.992 30.908 447.992 29.864C447.992 28.82 447.128 27.992 446.084 27.992H442.664V24.752C442.664 23.564 441.692 22.592 440.504 22.592C439.28 22.592 438.308 23.564 438.308 24.752V27.992H437.588C436.544 27.992 435.716 28.82 435.716 29.864C435.716 30.908 436.544 31.736 437.588 31.736H438.308V41.744C438.308 45.92 440.576 47.324 443.78 47.324ZM450.337 23.096C450.337 24.392 451.417 25.256 452.821 25.256C454.225 25.256 455.305 24.392 455.305 23.096V22.88C455.305 21.584 454.225 20.756 452.821 20.756C451.417 20.756 450.337 21.584 450.337 22.88V23.096ZM450.661 45.02C450.661 46.244 451.633 47.18 452.821 47.18C454.045 47.18 455.017 46.244 455.017 45.02V29.972C455.017 28.748 454.045 27.776 452.821 27.776C451.597 27.776 450.661 28.748 450.661 29.972V45.02ZM467.945 47.432C473.813 47.432 478.133 42.932 478.133 37.532V37.46C478.133 32.024 473.849 27.596 468.017 27.596C462.185 27.596 457.865 32.096 457.865 37.532V37.604C457.865 43.004 462.149 47.432 467.945 47.432ZM468.017 43.616C464.633 43.616 462.221 40.844 462.221 37.532V37.46C462.221 34.148 464.453 31.412 467.945 31.412C471.365 31.412 473.777 34.184 473.777 37.532V37.604C473.777 40.88 471.545 43.616 468.017 43.616ZM480.77 45.02C480.77 46.244 481.742 47.18 482.93 47.18C484.154 47.18 485.126 46.244 485.126 45.02V36.272C485.126 33.32 486.89 31.556 489.41 31.556C492.002 31.556 493.478 33.248 493.478 36.2V45.02C493.478 46.244 494.45 47.18 495.674 47.18C496.898 47.18 497.834 46.244 497.834 45.02V34.868C497.834 30.476 495.35 27.596 491.066 27.596C488.114 27.596 486.35 29.144 485.126 30.908V29.972C485.126 28.748 484.154 27.776 482.93 27.776C481.706 27.776 480.77 28.748 480.77 29.972V45.02ZM513.023 47H527.855C528.935 47 529.835 46.136 529.835 45.02C529.835 43.94 528.935 43.04 527.855 43.04H515.219V36.272H526.055C527.135 36.272 528.035 35.408 528.035 34.328C528.035 33.212 527.135 32.312 526.055 32.312H515.219V25.76H527.675C528.755 25.76 529.655 24.896 529.655 23.78C529.655 22.7 528.755 21.8 527.675 21.8H513.023C511.763 21.8 510.791 22.772 510.791 24.032V44.768C510.791 46.028 511.763 47 513.023 47ZM542.656 45.452L548.992 30.908C549.1 30.692 549.244 30.26 549.244 29.864C549.244 28.676 548.308 27.776 547.12 27.776C545.968 27.776 545.392 28.532 545.068 29.288L540.1 41.96L535.204 29.36C534.844 28.46 534.232 27.776 533.044 27.776C531.856 27.776 530.884 28.784 530.884 29.864C530.884 30.26 531.028 30.62 531.136 30.944L537.472 45.452C537.976 46.604 538.768 47.36 539.956 47.36H540.172C541.36 47.36 542.152 46.568 542.656 45.452ZM554.014 36.164C554.41 33.212 556.282 31.16 558.946 31.16C561.826 31.16 563.482 33.356 563.77 36.164H554.014ZM566.29 44.912C566.614 44.588 566.866 44.12 566.866 43.58C566.866 42.572 566.11 41.816 565.138 41.816C564.634 41.816 564.346 41.96 564.022 42.212C562.798 43.22 561.358 43.868 559.522 43.868C556.714 43.868 554.518 42.14 554.05 39.044H565.966C567.082 39.044 568.018 38.18 568.018 36.956C568.018 32.564 565.03 27.596 558.982 27.596C553.546 27.596 549.694 32.06 549.694 37.496V37.568C549.694 43.436 553.942 47.432 559.45 47.432C562.402 47.432 564.562 46.46 566.29 44.912ZM570.664 45.02C570.664 46.244 571.636 47.18 572.824 47.18C574.048 47.18 575.02 46.244 575.02 45.02V36.272C575.02 33.32 576.784 31.556 579.304 31.556C581.896 31.556 583.372 33.248 583.372 36.2V45.02C583.372 46.244 584.344 47.18 585.568 47.18C586.792 47.18 587.728 46.244 587.728 45.02V34.868C587.728 30.476 585.244 27.596 580.96 27.596C578.008 27.596 576.244 29.144 575.02 30.908V29.972C575.02 28.748 574.048 27.776 572.824 27.776C571.6 27.776 570.664 28.748 570.664 29.972V45.02ZM597.56 47.324C598.712 47.324 599.612 47.144 600.548 46.82C601.16 46.568 601.7 45.92 601.7 45.128C601.7 44.12 600.836 43.328 599.864 43.328C599.72 43.328 599.288 43.436 598.784 43.436C597.308 43.436 596.444 42.752 596.444 41.06V31.736H599.864C600.908 31.736 601.772 30.908 601.772 29.864C601.772 28.82 600.908 27.992 599.864 27.992H596.444V24.752C596.444 23.564 595.472 22.592 594.284 22.592C593.06 22.592 592.088 23.564 592.088 24.752V27.992H591.368C590.324 27.992 589.496 28.82 589.496 29.864C589.496 30.908 590.324 31.736 591.368 31.736H592.088V41.744C592.088 45.92 594.356 47.324 597.56 47.324Z" fill="#FF0000"/>
</g>
<defs>
<filter id="filter0" x="0.124023" y="0.540039" width="621.648" height="72.4004" filterUnits="userSpaceOnUse" color-interpolation-filters="sRGB">
<feFlood flood-opacity="0" result="BackgroundImageFix"/>
<feBlend mode="normal" in="SourceGraphic" in2="BackgroundImageFix" result="shape"/>
<feGaussianBlur stdDeviation="10" result="effect1_foregroundBlur_803_97"/>
</filter>
</defs>
</svg>
