<svg width="502" height="68" fill="none" xmlns="http://www.w3.org/2000/svg"><path d="M20.24 49.768c0 1.26.972 2.232 2.232 2.232h7.164c7.92 0 13.392-5.508 13.392-12.6v-.072c0-7.092-5.472-12.528-13.392-12.528h-7.164c-1.26 0-2.232.972-2.232 2.232v20.736Zm4.428-1.8V30.832h4.968c5.292 0 8.748 3.636 8.748 8.568v.072c0 4.932-3.456 8.496-8.748 8.496h-4.968Zm21.356-19.872c0 1.296 1.08 2.16 2.484 2.16s2.484-.864 2.484-2.16v-.216c0-1.296-1.08-2.124-2.484-2.124s-2.484.828-2.484 2.124v.216Zm.324 21.924c0 1.224.972 2.16 2.16 2.16 1.224 0 2.196-.936 2.196-2.16V34.972a2.182 2.182 0 0 0-2.196-2.196c-1.224 0-2.16.972-2.16 2.196V50.02Zm14.765 2.34c3.96 0 7.056-1.98 7.056-5.976v-.072c0-3.42-3.132-4.68-5.904-5.544-2.232-.72-4.284-1.296-4.284-2.7v-.072c0-1.08.972-1.872 2.664-1.872 1.332 0 2.916.504 4.464 1.296.288.144.504.216.864.216 1.008 0 1.8-.756 1.8-1.764 0-.756-.432-1.332-1.044-1.656-1.836-.972-3.96-1.548-5.976-1.548-3.78 0-6.768 2.196-6.768 5.796v.072c0 3.636 3.132 4.788 5.94 5.58 2.232.684 4.248 1.188 4.248 2.664v.072c0 1.26-1.08 2.052-2.952 2.052-1.728 0-3.636-.612-5.472-1.836a1.9 1.9 0 0 0-.936-.252 1.744 1.744 0 0 0-1.764 1.764c0 .72.36 1.26.828 1.512 2.196 1.512 4.824 2.268 7.236 2.268Zm18.503.072c3.168 0 5.22-1.08 6.912-2.7.396-.324.612-.792.612-1.368 0-1.044-.828-1.908-1.872-1.908-.504 0-.936.252-1.188.468-1.188 1.008-2.52 1.692-4.248 1.692-3.348 0-5.688-2.7-5.688-6.084v-.072c0-3.312 2.34-6.048 5.508-6.048 1.728 0 2.952.684 4.068 1.62a2.22 2.22 0 0 0 1.296.432c1.116 0 2.016-.864 2.016-1.98 0-.72-.396-1.26-.684-1.512-1.62-1.404-3.672-2.376-6.66-2.376-5.724 0-9.9 4.536-9.9 9.936v.072c0 5.4 4.176 9.828 9.828 9.828Zm18.491 0c5.868 0 10.188-4.5 10.188-9.9v-.072c0-5.436-4.284-9.864-10.116-9.864s-10.152 4.5-10.152 9.936v.072c0 5.4 4.284 9.828 10.08 9.828Zm.072-3.816c-3.384 0-5.796-2.772-5.796-6.084v-.072c0-3.312 2.232-6.048 5.724-6.048 3.42 0 5.832 2.772 5.832 6.12v.072c0 3.276-2.232 6.012-5.76 6.012Zm22.348 1.836 6.336-14.544c.108-.216.252-.648.252-1.044 0-1.188-.936-2.088-2.124-2.088-1.152 0-1.728.756-2.052 1.512l-4.968 12.672-4.896-12.6c-.36-.9-.972-1.584-2.16-1.584-1.188 0-2.16 1.008-2.16 2.088 0 .396.144.756.252 1.08l6.336 14.508c.504 1.152 1.296 1.908 2.484 1.908h.216c1.188 0 1.98-.792 2.484-1.908Zm11.357-9.288c.396-2.952 2.268-5.004 4.932-5.004 2.88 0 4.536 2.196 4.824 5.004h-9.756Zm12.276 8.748c.324-.324.576-.792.576-1.332 0-1.008-.756-1.764-1.728-1.764-.504 0-.792.144-1.116.396-1.224 1.008-2.664 1.656-4.5 1.656-2.808 0-5.004-1.728-5.472-4.824h11.916c1.116 0 2.052-.864 2.052-2.088 0-4.392-2.988-9.36-9.036-9.36-5.436 0-9.288 4.464-9.288 9.9v.072c0 5.868 4.248 9.864 9.756 9.864 2.952 0 5.112-.972 6.84-2.52Zm4.374.108c0 1.224.972 2.16 2.16 2.16 1.224 0 2.196-.972 2.196-2.16v-5.616c0-4.5 2.124-6.876 5.22-7.416.972-.18 1.728-.936 1.728-2.088 0-1.26-.792-2.16-2.16-2.16-1.908 0-3.78 1.8-4.788 4.176v-1.944a2.182 2.182 0 0 0-2.196-2.196c-1.224 0-2.16.972-2.16 2.196V50.02Zm27.537 2.376c2.916 0 4.896-1.224 6.192-2.772v.72c0 .972.864 1.836 2.124 1.836 1.188 0 2.124-.9 2.124-2.088v-9.36c0-2.484-.648-4.5-2.052-5.868-1.332-1.368-3.456-2.124-6.3-2.124-2.484 0-4.32.432-6.12 1.116-.648.252-1.188.936-1.188 1.728 0 1.008.828 1.8 1.836 1.8.216 0 .432-.036.684-.108 1.188-.468 2.556-.756 4.212-.756 3.06 0 4.716 1.44 4.716 4.14v.468c-1.476-.468-2.988-.792-5.112-.792-4.644 0-7.848 2.016-7.848 6.12v.072c0 3.816 3.168 5.868 6.732 5.868Zm1.224-3.168c-2.088 0-3.708-1.044-3.708-2.88v-.072c0-1.98 1.656-3.168 4.464-3.168 1.728 0 3.204.324 4.32.756v1.296c0 2.412-2.196 4.068-5.076 4.068Zm12.632.792c0 1.224.972 2.16 2.16 2.16 1.224 0 2.196-.936 2.196-2.16v-8.748c0-2.952 1.764-4.716 4.284-4.716 2.592 0 4.068 1.692 4.068 4.644v8.82c0 1.224.972 2.16 2.196 2.16 1.224 0 2.16-.936 2.16-2.16V39.868c0-4.392-2.484-7.272-6.768-7.272-2.952 0-4.716 1.548-5.94 3.312v-.936a2.182 2.182 0 0 0-2.196-2.196c-1.224 0-2.16.972-2.16 2.196V50.02Zm30.274-.036c0 1.224.972 2.196 2.232 2.196a2.182 2.182 0 0 0 2.196-2.196V28.816a2.182 2.182 0 0 0-2.196-2.196c-1.26 0-2.232.972-2.232 2.196v21.168Zm8.869.036c0 1.224.972 2.16 2.16 2.16 1.224 0 2.196-.936 2.196-2.16v-8.748c0-2.952 1.764-4.716 4.284-4.716 2.592 0 4.068 1.692 4.068 4.644v8.82c0 1.224.972 2.16 2.196 2.16 1.224 0 2.16-.936 2.16-2.16V39.868c0-4.392-2.484-7.272-6.768-7.272-2.952 0-4.716 1.548-5.94 3.312v-.936a2.182 2.182 0 0 0-2.196-2.196c-1.224 0-2.16.972-2.16 2.196V50.02Zm30.472.432 6.336-14.544c.108-.216.252-.648.252-1.044 0-1.188-.936-2.088-2.124-2.088-1.152 0-1.728.756-2.052 1.512l-4.968 12.672-4.896-12.6c-.36-.9-.972-1.584-2.16-1.584-1.188 0-2.16 1.008-2.16 2.088 0 .396.144.756.252 1.08l6.336 14.508c.504 1.152 1.296 1.908 2.484 1.908h.216c1.188 0 1.98-.792 2.484-1.908Zm11.357-9.288c.396-2.952 2.268-5.004 4.932-5.004 2.88 0 4.536 2.196 4.824 5.004h-9.756Zm12.276 8.748c.324-.324.576-.792.576-1.332 0-1.008-.756-1.764-1.728-1.764-.504 0-.792.144-1.116.396-1.224 1.008-2.664 1.656-4.5 1.656-2.808 0-5.004-1.728-5.472-4.824h11.916c1.116 0 2.052-.864 2.052-2.088 0-4.392-2.988-9.36-9.036-9.36-5.436 0-9.288 4.464-9.288 9.9v.072c0 5.868 4.248 9.864 9.756 9.864 2.952 0 5.112-.972 6.84-2.52Zm10.89 2.448c3.96 0 7.056-1.98 7.056-5.976v-.072c0-3.42-3.132-4.68-5.904-5.544-2.232-.72-4.284-1.296-4.284-2.7v-.072c0-1.08.972-1.872 2.664-1.872 1.332 0 2.916.504 4.464 1.296.288.144.504.216.864.216 1.008 0 1.8-.756 1.8-1.764 0-.756-.432-1.332-1.044-1.656-1.836-.972-3.96-1.548-5.976-1.548-3.78 0-6.768 2.196-6.768 5.796v.072c0 3.636 3.132 4.788 5.94 5.58 2.232.684 4.248 1.188 4.248 2.664v.072c0 1.26-1.08 2.052-2.952 2.052-1.728 0-3.636-.612-5.472-1.836a1.9 1.9 0 0 0-.936-.252 1.744 1.744 0 0 0-1.764 1.764c0 .72.36 1.26.828 1.512 2.196 1.512 4.824 2.268 7.236 2.268Zm15.74-.036c1.152 0 2.052-.18 2.988-.504.612-.252 1.152-.9 1.152-1.692 0-1.008-.864-1.8-1.836-1.8-.144 0-.576.108-1.08.108-1.476 0-2.34-.684-2.34-2.376v-9.324h3.42c1.044 0 1.908-.828 1.908-1.872s-.864-1.872-1.908-1.872h-3.42v-3.24c0-1.188-.972-2.16-2.16-2.16-1.224 0-2.196.972-2.196 2.16v3.24h-.72a1.86 1.86 0 0 0-1.872 1.872 1.86 1.86 0 0 0 1.872 1.872h.72v10.008c0 4.176 2.268 5.58 5.472 5.58Zm6.629-2.304c0 1.224.972 2.16 2.16 2.16 1.224 0 2.196-.936 2.196-2.16v-8.748c0-2.916 1.656-4.716 4.068-4.716s3.852 1.656 3.852 4.608v8.856c0 1.224.972 2.16 2.196 2.16 1.188 0 2.16-.936 2.16-2.16v-8.748c0-3.06 1.692-4.716 4.068-4.716 2.448 0 3.852 1.62 3.852 4.644v8.82c0 1.224.972 2.16 2.196 2.16 1.224 0 2.16-.936 2.16-2.16V39.868c0-4.644-2.52-7.272-6.66-7.272-2.88 0-4.896 1.332-6.408 3.348-1.008-2.016-2.952-3.348-5.688-3.348-2.916 0-4.572 1.584-5.796 3.276v-.9a2.182 2.182 0 0 0-2.196-2.196c-1.224 0-2.16.972-2.16 2.196V50.02Zm35.683-8.856c.396-2.952 2.268-5.004 4.932-5.004 2.88 0 4.536 2.196 4.824 5.004h-9.756Zm12.276 8.748c.324-.324.576-.792.576-1.332 0-1.008-.756-1.764-1.728-1.764-.504 0-.792.144-1.116.396-1.224 1.008-2.664 1.656-4.5 1.656-2.808 0-5.004-1.728-5.472-4.824h11.916c1.116 0 2.052-.864 2.052-2.088 0-4.392-2.988-9.36-9.036-9.36-5.436 0-9.288 4.464-9.288 9.9v.072c0 5.868 4.248 9.864 9.756 9.864 2.952 0 5.112-.972 6.84-2.52Zm4.374.108c0 1.224.972 2.16 2.16 2.16 1.224 0 2.196-.936 2.196-2.16v-8.748c0-2.952 1.764-4.716 4.284-4.716 2.592 0 4.068 1.692 4.068 4.644v8.82c0 1.224.972 2.16 2.196 2.16 1.224 0 2.16-.936 2.16-2.16V39.868c0-4.392-2.484-7.272-6.768-7.272-2.952 0-4.716 1.548-5.94 3.312v-.936a2.182 2.182 0 0 0-2.196-2.196c-1.224 0-2.16.972-2.16 2.196V50.02Zm26.896 2.304c1.152 0 2.052-.18 2.988-.504.612-.252 1.152-.9 1.152-1.692 0-1.008-.864-1.8-1.836-1.8-.144 0-.576.108-1.08.108-1.476 0-2.34-.684-2.34-2.376v-9.324h3.42c1.044 0 1.908-.828 1.908-1.872s-.864-1.872-1.908-1.872h-3.42v-3.24c0-1.188-.972-2.16-2.16-2.16-1.224 0-2.196.972-2.196 2.16v3.24h-.72a1.86 1.86 0 0 0-1.872 1.872 1.86 1.86 0 0 0 1.872 1.872h.72v10.008c0 4.176 2.268 5.58 5.472 5.58Zm16.126-2.34c0 1.224.972 2.196 2.232 2.196a2.182 2.182 0 0 0 2.196-2.196V43.9h5.004c5.544 0 10.08-2.952 10.08-8.604v-.072c0-5.076-3.672-8.424-9.576-8.424h-7.704c-1.26 0-2.232.972-2.232 2.232v20.952Zm4.428-10.08v-9.072h5.148c3.312 0 5.436 1.548 5.436 4.5v.072c0 2.628-2.088 4.5-5.436 4.5h-5.148Zm26.175 12.528c5.868 0 10.188-4.5 10.188-9.9v-.072c0-5.436-4.284-9.864-10.116-9.864s-10.152 4.5-10.152 9.936v.072c0 5.4 4.284 9.828 10.08 9.828Zm.072-3.816c-3.384 0-5.796-2.772-5.796-6.084v-.072c0-3.312 2.232-6.048 5.724-6.048 3.42 0 5.832 2.772 5.832 6.12v.072c0 3.276-2.232 6.012-5.76 6.012Zm21.788 3.816c5.868 0 10.188-4.5 10.188-9.9v-.072c0-5.436-4.284-9.864-10.116-9.864s-10.152 4.5-10.152 9.936v.072c0 5.4 4.284 9.828 10.08 9.828Zm.072-3.816c-3.384 0-5.796-2.772-5.796-6.084v-.072c0-3.312 2.232-6.048 5.724-6.048 3.42 0 5.832 2.772 5.832 6.12v.072c0 3.276-2.232 6.012-5.76 6.012Zm13.005 1.404c0 1.224.972 2.16 2.16 2.16 1.224 0 2.196-.936 2.196-2.16V27.7c0-1.188-.972-2.16-2.196-2.16-1.224 0-2.16.972-2.16 2.16v22.32Z" fill="#000"/><path d="M20.24 44.768c0 1.26.972 2.232 2.232 2.232h7.164c7.92 0 13.392-5.508 13.392-12.6v-.072c0-7.092-5.472-12.528-13.392-12.528h-7.164c-1.26 0-2.232.972-2.232 2.232v20.736Zm4.428-1.8V25.832h4.968c5.292 0 8.748 3.636 8.748 8.568v.072c0 4.932-3.456 8.496-8.748 8.496h-4.968Zm21.356-19.872c0 1.296 1.08 2.16 2.484 2.16s2.484-.864 2.484-2.16v-.216c0-1.296-1.08-2.124-2.484-2.124s-2.484.828-2.484 2.124v.216Zm.324 21.924c0 1.224.972 2.16 2.16 2.16 1.224 0 2.196-.936 2.196-2.16V29.972a2.182 2.182 0 0 0-2.196-2.196c-1.224 0-2.16.972-2.16 2.196V45.02Zm14.765 2.34c3.96 0 7.056-1.98 7.056-5.976v-.072c0-3.42-3.132-4.68-5.904-5.544-2.232-.72-4.284-1.296-4.284-2.7v-.072c0-1.08.972-1.872 2.664-1.872 1.332 0 2.916.504 4.464 1.296.288.144.504.216.864.216 1.008 0 1.8-.756 1.8-1.764 0-.756-.432-1.332-1.044-1.656-1.836-.972-3.96-1.548-5.976-1.548-3.78 0-6.768 2.196-6.768 5.796v.072c0 3.636 3.132 4.788 5.94 5.58 2.232.684 4.248 1.188 4.248 2.664v.072c0 1.26-1.08 2.052-2.952 2.052-1.728 0-3.636-.612-5.472-1.836a1.9 1.9 0 0 0-.936-.252 1.744 1.744 0 0 0-1.764 1.764c0 .72.36 1.26.828 1.512 2.196 1.512 4.824 2.268 7.236 2.268Zm18.503.072c3.168 0 5.22-1.08 6.912-2.7.396-.324.612-.792.612-1.368 0-1.044-.828-1.908-1.872-1.908-.504 0-.936.252-1.188.468-1.188 1.008-2.52 1.692-4.248 1.692-3.348 0-5.688-2.7-5.688-6.084v-.072c0-3.312 2.34-6.048 5.508-6.048 1.728 0 2.952.684 4.068 1.62a2.22 2.22 0 0 0 1.296.432c1.116 0 2.016-.864 2.016-1.98 0-.72-.396-1.26-.684-1.512-1.62-1.404-3.672-2.376-6.66-2.376-5.724 0-9.9 4.536-9.9 9.936v.072c0 5.4 4.176 9.828 9.828 9.828Zm18.491 0c5.868 0 10.188-4.5 10.188-9.9v-.072c0-5.436-4.284-9.864-10.116-9.864s-10.152 4.5-10.152 9.936v.072c0 5.4 4.284 9.828 10.08 9.828Zm.072-3.816c-3.384 0-5.796-2.772-5.796-6.084v-.072c0-3.312 2.232-6.048 5.724-6.048 3.42 0 5.832 2.772 5.832 6.12v.072c0 3.276-2.232 6.012-5.76 6.012Zm22.348 1.836 6.336-14.544c.108-.216.252-.648.252-1.044 0-1.188-.936-2.088-2.124-2.088-1.152 0-1.728.756-2.052 1.512l-4.968 12.672-4.896-12.6c-.36-.9-.972-1.584-2.16-1.584-1.188 0-2.16 1.008-2.16 2.088 0 .396.144.756.252 1.08l6.336 14.508c.504 1.152 1.296 1.908 2.484 1.908h.216c1.188 0 1.98-.792 2.484-1.908Zm11.357-9.288c.396-2.952 2.268-5.004 4.932-5.004 2.88 0 4.536 2.196 4.824 5.004h-9.756Zm12.276 8.748c.324-.324.576-.792.576-1.332 0-1.008-.756-1.764-1.728-1.764-.504 0-.792.144-1.116.396-1.224 1.008-2.664 1.656-4.5 1.656-2.808 0-5.004-1.728-5.472-4.824h11.916c1.116 0 2.052-.864 2.052-2.088 0-4.392-2.988-9.36-9.036-9.36-5.436 0-9.288 4.464-9.288 9.9v.072c0 5.868 4.248 9.864 9.756 9.864 2.952 0 5.112-.972 6.84-2.52Zm4.374.108c0 1.224.972 2.16 2.16 2.16 1.224 0 2.196-.972 2.196-2.16v-5.616c0-4.5 2.124-6.876 5.22-7.416.972-.18 1.728-.936 1.728-2.088 0-1.26-.792-2.16-2.16-2.16-1.908 0-3.78 1.8-4.788 4.176v-1.944a2.182 2.182 0 0 0-2.196-2.196c-1.224 0-2.16.972-2.16 2.196V45.02Zm27.537 2.376c2.916 0 4.896-1.224 6.192-2.772v.72c0 .972.864 1.836 2.124 1.836 1.188 0 2.124-.9 2.124-2.088v-9.36c0-2.484-.648-4.5-2.052-5.868-1.332-1.368-3.456-2.124-6.3-2.124-2.484 0-4.32.432-6.12 1.116-.648.252-1.188.936-1.188 1.728 0 1.008.828 1.8 1.836 1.8.216 0 .432-.036.684-.108 1.188-.468 2.556-.756 4.212-.756 3.06 0 4.716 1.44 4.716 4.14v.468c-1.476-.468-2.988-.792-5.112-.792-4.644 0-7.848 2.016-7.848 6.12v.072c0 3.816 3.168 5.868 6.732 5.868Zm1.224-3.168c-2.088 0-3.708-1.044-3.708-2.88v-.072c0-1.98 1.656-3.168 4.464-3.168 1.728 0 3.204.324 4.32.756v1.296c0 2.412-2.196 4.068-5.076 4.068Zm12.632.792c0 1.224.972 2.16 2.16 2.16 1.224 0 2.196-.936 2.196-2.16v-8.748c0-2.952 1.764-4.716 4.284-4.716 2.592 0 4.068 1.692 4.068 4.644v8.82c0 1.224.972 2.16 2.196 2.16 1.224 0 2.16-.936 2.16-2.16V34.868c0-4.392-2.484-7.272-6.768-7.272-2.952 0-4.716 1.548-5.94 3.312v-.936a2.182 2.182 0 0 0-2.196-2.196c-1.224 0-2.16.972-2.16 2.196V45.02Z" fill="#00E59D"/><path d="M220.201 44.984c0 1.224.972 2.196 2.232 2.196a2.182 2.182 0 0 0 2.196-2.196V23.816a2.182 2.182 0 0 0-2.196-2.196c-1.26 0-2.232.972-2.232 2.196v21.168Zm8.869.036c0 1.224.972 2.16 2.16 2.16 1.224 0 2.196-.936 2.196-2.16v-8.748c0-2.952 1.764-4.716 4.284-4.716 2.592 0 4.068 1.692 4.068 4.644v8.82c0 1.224.972 2.16 2.196 2.16 1.224 0 2.16-.936 2.16-2.16V34.868c0-4.392-2.484-7.272-6.768-7.272-2.952 0-4.716 1.548-5.94 3.312v-.936a2.182 2.182 0 0 0-2.196-2.196c-1.224 0-2.16.972-2.16 2.196V45.02Zm30.472.432 6.336-14.544c.108-.216.252-.648.252-1.044 0-1.188-.936-2.088-2.124-2.088-1.152 0-1.728.756-2.052 1.512l-4.968 12.672-4.896-12.6c-.36-.9-.972-1.584-2.16-1.584-1.188 0-2.16 1.008-2.16 2.088 0 .396.144.756.252 1.08l6.336 14.508c.504 1.152 1.296 1.908 2.484 1.908h.216c1.188 0 1.98-.792 2.484-1.908Zm11.357-9.288c.396-2.952 2.268-5.004 4.932-5.004 2.88 0 4.536 2.196 4.824 5.004h-9.756Zm12.276 8.748c.324-.324.576-.792.576-1.332 0-1.008-.756-1.764-1.728-1.764-.504 0-.792.144-1.116.396-1.224 1.008-2.664 1.656-4.5 1.656-2.808 0-5.004-1.728-5.472-4.824h11.916c1.116 0 2.052-.864 2.052-2.088 0-4.392-2.988-9.36-9.036-9.36-5.436 0-9.288 4.464-9.288 9.9v.072c0 5.868 4.248 9.864 9.756 9.864 2.952 0 5.112-.972 6.84-2.52Zm10.89 2.448c3.96 0 7.056-1.98 7.056-5.976v-.072c0-3.42-3.132-4.68-5.904-5.544-2.232-.72-4.284-1.296-4.284-2.7v-.072c0-1.08.972-1.872 2.664-1.872 1.332 0 2.916.504 4.464 1.296.288.144.504.216.864.216 1.008 0 1.8-.756 1.8-1.764 0-.756-.432-1.332-1.044-1.656-1.836-.972-3.96-1.548-5.976-1.548-3.78 0-6.768 2.196-6.768 5.796v.072c0 3.636 3.132 4.788 5.94 5.58 2.232.684 4.248 1.188 4.248 2.664v.072c0 1.26-1.08 2.052-2.952 2.052-1.728 0-3.636-.612-5.472-1.836a1.9 1.9 0 0 0-.936-.252 1.744 1.744 0 0 0-1.764 1.764c0 .72.36 1.26.828 1.512 2.196 1.512 4.824 2.268 7.236 2.268Zm15.74-.036c1.152 0 2.052-.18 2.988-.504.612-.252 1.152-.9 1.152-1.692 0-1.008-.864-1.8-1.836-1.8-.144 0-.576.108-1.08.108-1.476 0-2.34-.684-2.34-2.376v-9.324h3.42c1.044 0 1.908-.828 1.908-1.872s-.864-1.872-1.908-1.872h-3.42v-3.24c0-1.188-.972-2.16-2.16-2.16-1.224 0-2.196.972-2.196 2.16v3.24h-.72a1.86 1.86 0 0 0-1.872 1.872 1.86 1.86 0 0 0 1.872 1.872h.72v10.008c0 4.176 2.268 5.58 5.472 5.58Zm6.629-2.304c0 1.224.972 2.16 2.16 2.16 1.224 0 2.196-.936 2.196-2.16v-8.748c0-2.916 1.656-4.716 4.068-4.716s3.852 1.656 3.852 4.608v8.856c0 1.224.972 2.16 2.196 2.16 1.188 0 2.16-.936 2.16-2.16v-8.748c0-3.06 1.692-4.716 4.068-4.716 2.448 0 3.852 1.62 3.852 4.644v8.82c0 1.224.972 2.16 2.196 2.16 1.224 0 2.16-.936 2.16-2.16V34.868c0-4.644-2.52-7.272-6.66-7.272-2.88 0-4.896 1.332-6.408 3.348-1.008-2.016-2.952-3.348-5.688-3.348-2.916 0-4.572 1.584-5.796 3.276v-.9a2.182 2.182 0 0 0-2.196-2.196c-1.224 0-2.16.972-2.16 2.196V45.02Zm35.683-8.856c.396-2.952 2.268-5.004 4.932-5.004 2.88 0 4.536 2.196 4.824 5.004h-9.756Zm12.276 8.748c.324-.324.576-.792.576-1.332 0-1.008-.756-1.764-1.728-1.764-.504 0-.792.144-1.116.396-1.224 1.008-2.664 1.656-4.5 1.656-2.808 0-5.004-1.728-5.472-4.824h11.916c1.116 0 2.052-.864 2.052-2.088 0-4.392-2.988-9.36-9.036-9.36-5.436 0-9.288 4.464-9.288 9.9v.072c0 5.868 4.248 9.864 9.756 9.864 2.952 0 5.112-.972 6.84-2.52Zm4.374.108c0 1.224.972 2.16 2.16 2.16 1.224 0 2.196-.936 2.196-2.16v-8.748c0-2.952 1.764-4.716 4.284-4.716 2.592 0 4.068 1.692 4.068 4.644v8.82c0 1.224.972 2.16 2.196 2.16 1.224 0 2.16-.936 2.16-2.16V34.868c0-4.392-2.484-7.272-6.768-7.272-2.952 0-4.716 1.548-5.94 3.312v-.936a2.182 2.182 0 0 0-2.196-2.196c-1.224 0-2.16.972-2.16 2.196V45.02Zm26.896 2.304c1.152 0 2.052-.18 2.988-.504.612-.252 1.152-.9 1.152-1.692 0-1.008-.864-1.8-1.836-1.8-.144 0-.576.108-1.08.108-1.476 0-2.34-.684-2.34-2.376v-9.324h3.42c1.044 0 1.908-.828 1.908-1.872s-.864-1.872-1.908-1.872h-3.42v-3.24c0-1.188-.972-2.16-2.16-2.16-1.224 0-2.196.972-2.196 2.16v3.24h-.72a1.86 1.86 0 0 0-1.872 1.872 1.86 1.86 0 0 0 1.872 1.872h.72v10.008c0 4.176 2.268 5.58 5.472 5.58Zm16.126-2.34c0 1.224.972 2.196 2.232 2.196a2.182 2.182 0 0 0 2.196-2.196V38.9h5.004c5.544 0 10.08-2.952 10.08-8.604v-.072c0-5.076-3.672-8.424-9.576-8.424h-7.704c-1.26 0-2.232.972-2.232 2.232v20.952Zm4.428-10.08v-9.072h5.148c3.312 0 5.436 1.548 5.436 4.5v.072c0 2.628-2.088 4.5-5.436 4.5h-5.148Zm26.175 12.528c5.868 0 10.188-4.5 10.188-9.9v-.072c0-5.436-4.284-9.864-10.116-9.864s-10.152 4.5-10.152 9.936v.072c0 5.4 4.284 9.828 10.08 9.828Zm.072-3.816c-3.384 0-5.796-2.772-5.796-6.084v-.072c0-3.312 2.232-6.048 5.724-6.048 3.42 0 5.832 2.772 5.832 6.12v.072c0 3.276-2.232 6.012-5.76 6.012Zm21.788 3.816c5.868 0 10.188-4.5 10.188-9.9v-.072c0-5.436-4.284-9.864-10.116-9.864s-10.152 4.5-10.152 9.936v.072c0 5.4 4.284 9.828 10.08 9.828Zm.072-3.816c-3.384 0-5.796-2.772-5.796-6.084v-.072c0-3.312 2.232-6.048 5.724-6.048 3.42 0 5.832 2.772 5.832 6.12v.072c0 3.276-2.232 6.012-5.76 6.012Zm13.005 1.404c0 1.224.972 2.16 2.16 2.16 1.224 0 2.196-.936 2.196-2.16V22.7c0-1.188-.972-2.16-2.196-2.16-1.224 0-2.16.972-2.16 2.16v22.32Z" fill="red"/><g filter="url(#a)"><path d="M20.24 44.768c0 1.26.972 2.232 2.232 2.232h7.164c7.92 0 13.392-5.508 13.392-12.6v-.072c0-7.092-5.472-12.528-13.392-12.528h-7.164c-1.26 0-2.232.972-2.232 2.232v20.736Zm4.428-1.8V25.832h4.968c5.292 0 8.748 3.636 8.748 8.568v.072c0 4.932-3.456 8.496-8.748 8.496h-4.968Zm21.356-19.872c0 1.296 1.08 2.16 2.484 2.16s2.484-.864 2.484-2.16v-.216c0-1.296-1.08-2.124-2.484-2.124s-2.484.828-2.484 2.124v.216Zm.324 21.924c0 1.224.972 2.16 2.16 2.16 1.224 0 2.196-.936 2.196-2.16V29.972a2.182 2.182 0 0 0-2.196-2.196c-1.224 0-2.16.972-2.16 2.196V45.02Zm14.765 2.34c3.96 0 7.056-1.98 7.056-5.976v-.072c0-3.42-3.132-4.68-5.904-5.544-2.232-.72-4.284-1.296-4.284-2.7v-.072c0-1.08.972-1.872 2.664-1.872 1.332 0 2.916.504 4.464 1.296.288.144.504.216.864.216 1.008 0 1.8-.756 1.8-1.764 0-.756-.432-1.332-1.044-1.656-1.836-.972-3.96-1.548-5.976-1.548-3.78 0-6.768 2.196-6.768 5.796v.072c0 3.636 3.132 4.788 5.94 5.58 2.232.684 4.248 1.188 4.248 2.664v.072c0 1.26-1.08 2.052-2.952 2.052-1.728 0-3.636-.612-5.472-1.836a1.9 1.9 0 0 0-.936-.252 1.744 1.744 0 0 0-1.764 1.764c0 .72.36 1.26.828 1.512 2.196 1.512 4.824 2.268 7.236 2.268Zm18.503.072c3.168 0 5.22-1.08 6.912-2.7.396-.324.612-.792.612-1.368 0-1.044-.828-1.908-1.872-1.908-.504 0-.936.252-1.188.468-1.188 1.008-2.52 1.692-4.248 1.692-3.348 0-5.688-2.7-5.688-6.084v-.072c0-3.312 2.34-6.048 5.508-6.048 1.728 0 2.952.684 4.068 1.62a2.22 2.22 0 0 0 1.296.432c1.116 0 2.016-.864 2.016-1.98 0-.72-.396-1.26-.684-1.512-1.62-1.404-3.672-2.376-6.66-2.376-5.724 0-9.9 4.536-9.9 9.936v.072c0 5.4 4.176 9.828 9.828 9.828Zm18.491 0c5.868 0 10.188-4.5 10.188-9.9v-.072c0-5.436-4.284-9.864-10.116-9.864s-10.152 4.5-10.152 9.936v.072c0 5.4 4.284 9.828 10.08 9.828Zm.072-3.816c-3.384 0-5.796-2.772-5.796-6.084v-.072c0-3.312 2.232-6.048 5.724-6.048 3.42 0 5.832 2.772 5.832 6.12v.072c0 3.276-2.232 6.012-5.76 6.012Zm22.348 1.836 6.336-14.544c.108-.216.252-.648.252-1.044 0-1.188-.936-2.088-2.124-2.088-1.152 0-1.728.756-2.052 1.512l-4.968 12.672-4.896-12.6c-.36-.9-.972-1.584-2.16-1.584-1.188 0-2.16 1.008-2.16 2.088 0 .396.144.756.252 1.08l6.336 14.508c.504 1.152 1.296 1.908 2.484 1.908h.216c1.188 0 1.98-.792 2.484-1.908Zm11.357-9.288c.396-2.952 2.268-5.004 4.932-5.004 2.88 0 4.536 2.196 4.824 5.004h-9.756Zm12.276 8.748c.324-.324.576-.792.576-1.332 0-1.008-.756-1.764-1.728-1.764-.504 0-.792.144-1.116.396-1.224 1.008-2.664 1.656-4.5 1.656-2.808 0-5.004-1.728-5.472-4.824h11.916c1.116 0 2.052-.864 2.052-2.088 0-4.392-2.988-9.36-9.036-9.36-5.436 0-9.288 4.464-9.288 9.9v.072c0 5.868 4.248 9.864 9.756 9.864 2.952 0 5.112-.972 6.84-2.52Zm4.374.108c0 1.224.972 2.16 2.16 2.16 1.224 0 2.196-.972 2.196-2.16v-5.616c0-4.5 2.124-6.876 5.22-7.416.972-.18 1.728-.936 1.728-2.088 0-1.26-.792-2.16-2.16-2.16-1.908 0-3.78 1.8-4.788 4.176v-1.944a2.182 2.182 0 0 0-2.196-2.196c-1.224 0-2.16.972-2.16 2.196V45.02Zm27.537 2.376c2.916 0 4.896-1.224 6.192-2.772v.72c0 .972.864 1.836 2.124 1.836 1.188 0 2.124-.9 2.124-2.088v-9.36c0-2.484-.648-4.5-2.052-5.868-1.332-1.368-3.456-2.124-6.3-2.124-2.484 0-4.32.432-6.12 1.116-.648.252-1.188.936-1.188 1.728 0 1.008.828 1.8 1.836 1.8.216 0 .432-.036.684-.108 1.188-.468 2.556-.756 4.212-.756 3.06 0 4.716 1.44 4.716 4.14v.468c-1.476-.468-2.988-.792-5.112-.792-4.644 0-7.848 2.016-7.848 6.12v.072c0 3.816 3.168 5.868 6.732 5.868Zm1.224-3.168c-2.088 0-3.708-1.044-3.708-2.88v-.072c0-1.98 1.656-3.168 4.464-3.168 1.728 0 3.204.324 4.32.756v1.296c0 2.412-2.196 4.068-5.076 4.068Zm12.632.792c0 1.224.972 2.16 2.16 2.16 1.224 0 2.196-.936 2.196-2.16v-8.748c0-2.952 1.764-4.716 4.284-4.716 2.592 0 4.068 1.692 4.068 4.644v8.82c0 1.224.972 2.16 2.196 2.16 1.224 0 2.16-.936 2.16-2.16V34.868c0-4.392-2.484-7.272-6.768-7.272-2.952 0-4.716 1.548-5.94 3.312v-.936a2.182 2.182 0 0 0-2.196-2.196c-1.224 0-2.16.972-2.16 2.196V45.02Z" fill="#00E59D"/><path d="M220.201 44.984c0 1.224.972 2.196 2.232 2.196a2.182 2.182 0 0 0 2.196-2.196V23.816a2.182 2.182 0 0 0-2.196-2.196c-1.26 0-2.232.972-2.232 2.196v21.168Zm8.869.036c0 1.224.972 2.16 2.16 2.16 1.224 0 2.196-.936 2.196-2.16v-8.748c0-2.952 1.764-4.716 4.284-4.716 2.592 0 4.068 1.692 4.068 4.644v8.82c0 1.224.972 2.16 2.196 2.16 1.224 0 2.16-.936 2.16-2.16V34.868c0-4.392-2.484-7.272-6.768-7.272-2.952 0-4.716 1.548-5.94 3.312v-.936a2.182 2.182 0 0 0-2.196-2.196c-1.224 0-2.16.972-2.16 2.196V45.02Zm30.472.432 6.336-14.544c.108-.216.252-.648.252-1.044 0-1.188-.936-2.088-2.124-2.088-1.152 0-1.728.756-2.052 1.512l-4.968 12.672-4.896-12.6c-.36-.9-.972-1.584-2.16-1.584-1.188 0-2.16 1.008-2.16 2.088 0 .396.144.756.252 1.08l6.336 14.508c.504 1.152 1.296 1.908 2.484 1.908h.216c1.188 0 1.98-.792 2.484-1.908Zm11.357-9.288c.396-2.952 2.268-5.004 4.932-5.004 2.88 0 4.536 2.196 4.824 5.004h-9.756Zm12.276 8.748c.324-.324.576-.792.576-1.332 0-1.008-.756-1.764-1.728-1.764-.504 0-.792.144-1.116.396-1.224 1.008-2.664 1.656-4.5 1.656-2.808 0-5.004-1.728-5.472-4.824h11.916c1.116 0 2.052-.864 2.052-2.088 0-4.392-2.988-9.36-9.036-9.36-5.436 0-9.288 4.464-9.288 9.9v.072c0 5.868 4.248 9.864 9.756 9.864 2.952 0 5.112-.972 6.84-2.52Zm10.89 2.448c3.96 0 7.056-1.98 7.056-5.976v-.072c0-3.42-3.132-4.68-5.904-5.544-2.232-.72-4.284-1.296-4.284-2.7v-.072c0-1.08.972-1.872 2.664-1.872 1.332 0 2.916.504 4.464 1.296.288.144.504.216.864.216 1.008 0 1.8-.756 1.8-1.764 0-.756-.432-1.332-1.044-1.656-1.836-.972-3.96-1.548-5.976-1.548-3.78 0-6.768 2.196-6.768 5.796v.072c0 3.636 3.132 4.788 5.94 5.58 2.232.684 4.248 1.188 4.248 2.664v.072c0 1.26-1.08 2.052-2.952 2.052-1.728 0-3.636-.612-5.472-1.836a1.9 1.9 0 0 0-.936-.252 1.744 1.744 0 0 0-1.764 1.764c0 .72.36 1.26.828 1.512 2.196 1.512 4.824 2.268 7.236 2.268Zm15.74-.036c1.152 0 2.052-.18 2.988-.504.612-.252 1.152-.9 1.152-1.692 0-1.008-.864-1.8-1.836-1.8-.144 0-.576.108-1.08.108-1.476 0-2.34-.684-2.34-2.376v-9.324h3.42c1.044 0 1.908-.828 1.908-1.872s-.864-1.872-1.908-1.872h-3.42v-3.24c0-1.188-.972-2.16-2.16-2.16-1.224 0-2.196.972-2.196 2.16v3.24h-.72a1.86 1.86 0 0 0-1.872 1.872 1.86 1.86 0 0 0 1.872 1.872h.72v10.008c0 4.176 2.268 5.58 5.472 5.58Zm6.629-2.304c0 1.224.972 2.16 2.16 2.16 1.224 0 2.196-.936 2.196-2.16v-8.748c0-2.916 1.656-4.716 4.068-4.716s3.852 1.656 3.852 4.608v8.856c0 1.224.972 2.16 2.196 2.16 1.188 0 2.16-.936 2.16-2.16v-8.748c0-3.06 1.692-4.716 4.068-4.716 2.448 0 3.852 1.62 3.852 4.644v8.82c0 1.224.972 2.16 2.196 2.16 1.224 0 2.16-.936 2.16-2.16V34.868c0-4.644-2.52-7.272-6.66-7.272-2.88 0-4.896 1.332-6.408 3.348-1.008-2.016-2.952-3.348-5.688-3.348-2.916 0-4.572 1.584-5.796 3.276v-.9a2.182 2.182 0 0 0-2.196-2.196c-1.224 0-2.16.972-2.16 2.196V45.02Zm35.683-8.856c.396-2.952 2.268-5.004 4.932-5.004 2.88 0 4.536 2.196 4.824 5.004h-9.756Zm12.276 8.748c.324-.324.576-.792.576-1.332 0-1.008-.756-1.764-1.728-1.764-.504 0-.792.144-1.116.396-1.224 1.008-2.664 1.656-4.5 1.656-2.808 0-5.004-1.728-5.472-4.824h11.916c1.116 0 2.052-.864 2.052-2.088 0-4.392-2.988-9.36-9.036-9.36-5.436 0-9.288 4.464-9.288 9.9v.072c0 5.868 4.248 9.864 9.756 9.864 2.952 0 5.112-.972 6.84-2.52Zm4.374.108c0 1.224.972 2.16 2.16 2.16 1.224 0 2.196-.936 2.196-2.16v-8.748c0-2.952 1.764-4.716 4.284-4.716 2.592 0 4.068 1.692 4.068 4.644v8.82c0 1.224.972 2.16 2.196 2.16 1.224 0 2.16-.936 2.16-2.16V34.868c0-4.392-2.484-7.272-6.768-7.272-2.952 0-4.716 1.548-5.94 3.312v-.936a2.182 2.182 0 0 0-2.196-2.196c-1.224 0-2.16.972-2.16 2.196V45.02Zm26.896 2.304c1.152 0 2.052-.18 2.988-.504.612-.252 1.152-.9 1.152-1.692 0-1.008-.864-1.8-1.836-1.8-.144 0-.576.108-1.08.108-1.476 0-2.34-.684-2.34-2.376v-9.324h3.42c1.044 0 1.908-.828 1.908-1.872s-.864-1.872-1.908-1.872h-3.42v-3.24c0-1.188-.972-2.16-2.16-2.16-1.224 0-2.196.972-2.196 2.16v3.24h-.72a1.86 1.86 0 0 0-1.872 1.872 1.86 1.86 0 0 0 1.872 1.872h.72v10.008c0 4.176 2.268 5.58 5.472 5.58Zm16.126-2.34c0 1.224.972 2.196 2.232 2.196a2.182 2.182 0 0 0 2.196-2.196V38.9h5.004c5.544 0 10.08-2.952 10.08-8.604v-.072c0-5.076-3.672-8.424-9.576-8.424h-7.704c-1.26 0-2.232.972-2.232 2.232v20.952Zm4.428-10.08v-9.072h5.148c3.312 0 5.436 1.548 5.436 4.5v.072c0 2.628-2.088 4.5-5.436 4.5h-5.148Zm26.175 12.528c5.868 0 10.188-4.5 10.188-9.9v-.072c0-5.436-4.284-9.864-10.116-9.864s-10.152 4.5-10.152 9.936v.072c0 5.4 4.284 9.828 10.08 9.828Zm.072-3.816c-3.384 0-5.796-2.772-5.796-6.084v-.072c0-3.312 2.232-6.048 5.724-6.048 3.42 0 5.832 2.772 5.832 6.12v.072c0 3.276-2.232 6.012-5.76 6.012Zm21.788 3.816c5.868 0 10.188-4.5 10.188-9.9v-.072c0-5.436-4.284-9.864-10.116-9.864s-10.152 4.5-10.152 9.936v.072c0 5.4 4.284 9.828 10.08 9.828Zm.072-3.816c-3.384 0-5.796-2.772-5.796-6.084v-.072c0-3.312 2.232-6.048 5.724-6.048 3.42 0 5.832 2.772 5.832 6.12v.072c0 3.276-2.232 6.012-5.76 6.012Zm13.005 1.404c0 1.224.972 2.16 2.16 2.16 1.224 0 2.196-.936 2.196-2.16V22.7c0-1.188-.972-2.16-2.196-2.16-1.224 0-2.16.972-2.16 2.16v22.32Z" fill="red"/></g><defs><filter id="a" x=".24" y=".54" width="501.444" height="66.892" filterUnits="userSpaceOnUse" color-interpolation-filters="sRGB"><feFlood flood-opacity="0" result="BackgroundImageFix"/><feBlend in="SourceGraphic" in2="BackgroundImageFix" result="shape"/><feGaussianBlur stdDeviation="10" result="effect1_foregroundBlur_929_117"/></filter></defs></svg>