<svg width="24" height="24" fill="none" xmlns="http://www.w3.org/2000/svg"><g clip-path="url(#a)"><path d="M20.317 4.37a19.791 19.791 0 0 0-4.885-1.515.074.074 0 0 0-.079.037c-.21.375-.444.865-.608 1.25a18.27 18.27 0 0 0-5.487 0 12.64 12.64 0 0 0-.617-1.25.077.077 0 0 0-.079-.037c-1.687.29-3.33.8-4.885 1.515a.07.07 0 0 0-.032.028C.533 9.046-.32 13.58.099 18.058a.082.082 0 0 0 .031.056 19.9 19.9 0 0 0 5.993 3.03.078.078 0 0 0 .084-.028c.462-.63.874-1.295 1.227-1.994a.076.076 0 0 0-.042-.106 13.107 13.107 0 0 1-1.872-.892.077.077 0 0 1-.008-.128 10.2 10.2 0 0 0 .372-.291.074.074 0 0 1 .077-.01c3.928 1.792 8.18 1.792 12.062 0a.075.075 0 0 1 .078.009c.12.099.246.198.373.292a.076.076 0 0 1 .03.066.078.078 0 0 1-.036.062c-.599.349-1.225.647-1.873.891a.076.076 0 0 0-.045.044.078.078 0 0 0 .004.063c.36.698.772 1.363 1.225 1.993a.077.077 0 0 0 .084.029 19.839 19.839 0 0 0 6.002-3.03.077.077 0 0 0 .032-.055c.5-5.177-.838-9.674-3.549-13.66a.06.06 0 0 0-.031-.03v.001ZM8.02 15.331c-1.182 0-2.157-1.085-2.157-2.419 0-1.333.956-2.419 2.157-2.419 1.21 0 2.176 1.096 2.157 2.42 0 1.333-.956 2.418-2.157 2.418Zm7.975 0c-1.183 0-2.157-1.085-2.157-2.419 0-1.333.955-2.419 2.157-2.419 1.21 0 2.176 1.096 2.157 2.42 0 1.333-.946 2.418-2.157 2.418Z" fill="#fff"/></g><defs><clipPath id="a"><path fill="#fff" d="M0 0h24v24H0z"/></clipPath></defs></svg>