<svg width="502" height="68" viewBox="0 0 502 68" fill="none" xmlns="http://www.w3.org/2000/svg">
<path d="M20.24 49.768C20.24 51.028 21.212 52 22.472 52H29.636C37.556 52 43.028 46.492 43.028 39.4V39.328C43.028 32.236 37.556 26.8 29.636 26.8H22.472C21.212 26.8 20.24 27.772 20.24 29.032V49.768ZM24.668 47.968V30.832H29.636C34.928 30.832 38.384 34.468 38.384 39.4V39.472C38.384 44.404 34.928 47.968 29.636 47.968H24.668ZM46.0242 28.096C46.0242 29.392 47.1042 30.256 48.5082 30.256C49.9122 30.256 50.9922 29.392 50.9922 28.096V27.88C50.9922 26.584 49.9122 25.756 48.5082 25.756C47.1042 25.756 46.0242 26.584 46.0242 27.88V28.096ZM46.3482 50.02C46.3482 51.244 47.3202 52.18 48.5082 52.18C49.7322 52.18 50.7042 51.244 50.7042 50.02V34.972C50.7042 33.748 49.7322 32.776 48.5082 32.776C47.2842 32.776 46.3482 33.748 46.3482 34.972V50.02ZM61.1129 52.36C65.0729 52.36 68.1689 50.38 68.1689 46.384V46.312C68.1689 42.892 65.0369 41.632 62.2649 40.768C60.0329 40.048 57.9809 39.472 57.9809 38.068V37.996C57.9809 36.916 58.9529 36.124 60.6449 36.124C61.9769 36.124 63.5609 36.628 65.1089 37.42C65.3969 37.564 65.6129 37.636 65.9729 37.636C66.9809 37.636 67.7729 36.88 67.7729 35.872C67.7729 35.116 67.3409 34.54 66.7289 34.216C64.8929 33.244 62.7689 32.668 60.7529 32.668C56.9729 32.668 53.9849 34.864 53.9849 38.464V38.536C53.9849 42.172 57.1169 43.324 59.9249 44.116C62.1569 44.8 64.1729 45.304 64.1729 46.78V46.852C64.1729 48.112 63.0929 48.904 61.2209 48.904C59.4929 48.904 57.5849 48.292 55.7489 47.068C55.4969 46.924 55.1729 46.816 54.8129 46.816C53.8049 46.816 53.0489 47.608 53.0489 48.58C53.0489 49.3 53.4089 49.84 53.8769 50.092C56.0729 51.604 58.7009 52.36 61.1129 52.36ZM79.6161 52.432C82.7841 52.432 84.8361 51.352 86.5281 49.732C86.9241 49.408 87.1401 48.94 87.1401 48.364C87.1401 47.32 86.3121 46.456 85.2681 46.456C84.7641 46.456 84.3321 46.708 84.0801 46.924C82.8921 47.932 81.5601 48.616 79.8321 48.616C76.4841 48.616 74.1441 45.916 74.1441 42.532V42.46C74.1441 39.148 76.4841 36.412 79.6521 36.412C81.3801 36.412 82.6041 37.096 83.7201 38.032C84.0081 38.248 84.4761 38.464 85.0161 38.464C86.1321 38.464 87.0321 37.6 87.0321 36.484C87.0321 35.764 86.6361 35.224 86.3481 34.972C84.7281 33.568 82.6761 32.596 79.6881 32.596C73.9641 32.596 69.7881 37.132 69.7881 42.532V42.604C69.7881 48.004 73.9641 52.432 79.6161 52.432ZM98.1072 52.432C103.975 52.432 108.295 47.932 108.295 42.532V42.46C108.295 37.024 104.011 32.596 98.1792 32.596C92.3472 32.596 88.0272 37.096 88.0272 42.532V42.604C88.0272 48.004 92.3112 52.432 98.1072 52.432ZM98.1792 48.616C94.7952 48.616 92.3832 45.844 92.3832 42.532V42.46C92.3832 39.148 94.6152 36.412 98.1072 36.412C101.527 36.412 103.939 39.184 103.939 42.532V42.604C103.939 45.88 101.707 48.616 98.1792 48.616ZM120.527 50.452L126.863 35.908C126.971 35.692 127.115 35.26 127.115 34.864C127.115 33.676 126.179 32.776 124.991 32.776C123.839 32.776 123.263 33.532 122.939 34.288L117.971 46.96L113.075 34.36C112.715 33.46 112.103 32.776 110.915 32.776C109.727 32.776 108.755 33.784 108.755 34.864C108.755 35.26 108.899 35.62 109.007 35.944L115.343 50.452C115.847 51.604 116.639 52.36 117.827 52.36H118.043C119.231 52.36 120.023 51.568 120.527 50.452ZM131.884 41.164C132.28 38.212 134.152 36.16 136.816 36.16C139.696 36.16 141.352 38.356 141.64 41.164H131.884ZM144.16 49.912C144.484 49.588 144.736 49.12 144.736 48.58C144.736 47.572 143.98 46.816 143.008 46.816C142.504 46.816 142.216 46.96 141.892 47.212C140.668 48.22 139.228 48.868 137.392 48.868C134.584 48.868 132.388 47.14 131.92 44.044H143.836C144.952 44.044 145.888 43.18 145.888 41.956C145.888 37.564 142.9 32.596 136.852 32.596C131.416 32.596 127.564 37.06 127.564 42.496V42.568C127.564 48.436 131.812 52.432 137.32 52.432C140.272 52.432 142.432 51.46 144.16 49.912ZM148.534 50.02C148.534 51.244 149.506 52.18 150.694 52.18C151.918 52.18 152.89 51.208 152.89 50.02V44.404C152.89 39.904 155.014 37.528 158.11 36.988C159.082 36.808 159.838 36.052 159.838 34.9C159.838 33.64 159.046 32.74 157.678 32.74C155.77 32.74 153.898 34.54 152.89 36.916V34.972C152.89 33.748 151.918 32.776 150.694 32.776C149.47 32.776 148.534 33.748 148.534 34.972V50.02ZM176.071 52.396C178.987 52.396 180.967 51.172 182.263 49.624V50.344C182.263 51.316 183.127 52.18 184.387 52.18C185.575 52.18 186.511 51.28 186.511 50.092V40.732C186.511 38.248 185.863 36.232 184.459 34.864C183.127 33.496 181.003 32.74 178.159 32.74C175.675 32.74 173.839 33.172 172.039 33.856C171.391 34.108 170.851 34.792 170.851 35.584C170.851 36.592 171.679 37.384 172.687 37.384C172.903 37.384 173.119 37.348 173.371 37.276C174.559 36.808 175.927 36.52 177.583 36.52C180.643 36.52 182.299 37.96 182.299 40.66V41.128C180.823 40.66 179.311 40.336 177.187 40.336C172.543 40.336 169.339 42.352 169.339 46.456V46.528C169.339 50.344 172.507 52.396 176.071 52.396ZM177.295 49.228C175.207 49.228 173.587 48.184 173.587 46.348V46.276C173.587 44.296 175.243 43.108 178.051 43.108C179.779 43.108 181.255 43.432 182.371 43.864V45.16C182.371 47.572 180.175 49.228 177.295 49.228ZM189.927 50.02C189.927 51.244 190.899 52.18 192.087 52.18C193.311 52.18 194.283 51.244 194.283 50.02V41.272C194.283 38.32 196.047 36.556 198.567 36.556C201.159 36.556 202.635 38.248 202.635 41.2V50.02C202.635 51.244 203.607 52.18 204.831 52.18C206.055 52.18 206.991 51.244 206.991 50.02V39.868C206.991 35.476 204.507 32.596 200.223 32.596C197.271 32.596 195.507 34.144 194.283 35.908V34.972C194.283 33.748 193.311 32.776 192.087 32.776C190.863 32.776 189.927 33.748 189.927 34.972V50.02ZM220.201 49.984C220.201 51.208 221.173 52.18 222.433 52.18C223.657 52.18 224.629 51.208 224.629 49.984V28.816C224.629 27.592 223.657 26.62 222.433 26.62C221.173 26.62 220.201 27.592 220.201 28.816V49.984ZM229.07 50.02C229.07 51.244 230.042 52.18 231.23 52.18C232.454 52.18 233.426 51.244 233.426 50.02V41.272C233.426 38.32 235.19 36.556 237.71 36.556C240.302 36.556 241.778 38.248 241.778 41.2V50.02C241.778 51.244 242.75 52.18 243.974 52.18C245.198 52.18 246.134 51.244 246.134 50.02V39.868C246.134 35.476 243.65 32.596 239.366 32.596C236.414 32.596 234.65 34.144 233.426 35.908V34.972C233.426 33.748 232.454 32.776 231.23 32.776C230.006 32.776 229.07 33.748 229.07 34.972V50.02ZM259.542 50.452L265.878 35.908C265.986 35.692 266.13 35.26 266.13 34.864C266.13 33.676 265.194 32.776 264.006 32.776C262.854 32.776 262.278 33.532 261.954 34.288L256.986 46.96L252.09 34.36C251.73 33.46 251.118 32.776 249.93 32.776C248.742 32.776 247.77 33.784 247.77 34.864C247.77 35.26 247.914 35.62 248.022 35.944L254.358 50.452C254.862 51.604 255.654 52.36 256.842 52.36H257.058C258.246 52.36 259.038 51.568 259.542 50.452ZM270.899 41.164C271.295 38.212 273.167 36.16 275.831 36.16C278.711 36.16 280.367 38.356 280.655 41.164H270.899ZM283.175 49.912C283.499 49.588 283.751 49.12 283.751 48.58C283.751 47.572 282.995 46.816 282.023 46.816C281.519 46.816 281.231 46.96 280.907 47.212C279.683 48.22 278.243 48.868 276.407 48.868C273.599 48.868 271.403 47.14 270.935 44.044H282.851C283.967 44.044 284.903 43.18 284.903 41.956C284.903 37.564 281.915 32.596 275.867 32.596C270.431 32.596 266.579 37.06 266.579 42.496V42.568C266.579 48.436 270.827 52.432 276.335 52.432C279.287 52.432 281.447 51.46 283.175 49.912ZM294.065 52.36C298.025 52.36 301.121 50.38 301.121 46.384V46.312C301.121 42.892 297.989 41.632 295.217 40.768C292.985 40.048 290.933 39.472 290.933 38.068V37.996C290.933 36.916 291.905 36.124 293.597 36.124C294.929 36.124 296.513 36.628 298.061 37.42C298.349 37.564 298.565 37.636 298.925 37.636C299.933 37.636 300.725 36.88 300.725 35.872C300.725 35.116 300.293 34.54 299.681 34.216C297.845 33.244 295.721 32.668 293.705 32.668C289.925 32.668 286.937 34.864 286.937 38.464V38.536C286.937 42.172 290.069 43.324 292.877 44.116C295.109 44.8 297.125 45.304 297.125 46.78V46.852C297.125 48.112 296.045 48.904 294.173 48.904C292.445 48.904 290.537 48.292 288.701 47.068C288.449 46.924 288.125 46.816 287.765 46.816C286.757 46.816 286.001 47.608 286.001 48.58C286.001 49.3 286.361 49.84 286.829 50.092C289.025 51.604 291.653 52.36 294.065 52.36ZM309.805 52.324C310.957 52.324 311.857 52.144 312.793 51.82C313.405 51.568 313.945 50.92 313.945 50.128C313.945 49.12 313.081 48.328 312.109 48.328C311.965 48.328 311.533 48.436 311.029 48.436C309.553 48.436 308.689 47.752 308.689 46.06V36.736H312.109C313.153 36.736 314.017 35.908 314.017 34.864C314.017 33.82 313.153 32.992 312.109 32.992H308.689V29.752C308.689 28.564 307.717 27.592 306.529 27.592C305.305 27.592 304.333 28.564 304.333 29.752V32.992H303.613C302.569 32.992 301.741 33.82 301.741 34.864C301.741 35.908 302.569 36.736 303.613 36.736H304.333V46.744C304.333 50.92 306.601 52.324 309.805 52.324ZM316.434 50.02C316.434 51.244 317.406 52.18 318.594 52.18C319.818 52.18 320.79 51.244 320.79 50.02V41.272C320.79 38.356 322.446 36.556 324.858 36.556C327.27 36.556 328.71 38.212 328.71 41.164V50.02C328.71 51.244 329.682 52.18 330.906 52.18C332.094 52.18 333.066 51.244 333.066 50.02V41.272C333.066 38.212 334.758 36.556 337.134 36.556C339.582 36.556 340.986 38.176 340.986 41.2V50.02C340.986 51.244 341.958 52.18 343.182 52.18C344.406 52.18 345.342 51.244 345.342 50.02V39.868C345.342 35.224 342.822 32.596 338.682 32.596C335.802 32.596 333.786 33.928 332.274 35.944C331.266 33.928 329.322 32.596 326.586 32.596C323.67 32.596 322.014 34.18 320.79 35.872V34.972C320.79 33.748 319.818 32.776 318.594 32.776C317.37 32.776 316.434 33.748 316.434 34.972V50.02ZM352.117 41.164C352.513 38.212 354.385 36.16 357.049 36.16C359.929 36.16 361.585 38.356 361.873 41.164H352.117ZM364.393 49.912C364.717 49.588 364.969 49.12 364.969 48.58C364.969 47.572 364.213 46.816 363.241 46.816C362.737 46.816 362.449 46.96 362.125 47.212C360.901 48.22 359.461 48.868 357.625 48.868C354.817 48.868 352.621 47.14 352.153 44.044H364.069C365.185 44.044 366.121 43.18 366.121 41.956C366.121 37.564 363.133 32.596 357.085 32.596C351.649 32.596 347.797 37.06 347.797 42.496V42.568C347.797 48.436 352.045 52.432 357.553 52.432C360.505 52.432 362.665 51.46 364.393 49.912ZM368.767 50.02C368.767 51.244 369.739 52.18 370.927 52.18C372.151 52.18 373.123 51.244 373.123 50.02V41.272C373.123 38.32 374.887 36.556 377.407 36.556C379.999 36.556 381.475 38.248 381.475 41.2V50.02C381.475 51.244 382.447 52.18 383.671 52.18C384.895 52.18 385.831 51.244 385.831 50.02V39.868C385.831 35.476 383.347 32.596 379.063 32.596C376.111 32.596 374.347 34.144 373.123 35.908V34.972C373.123 33.748 372.151 32.776 370.927 32.776C369.703 32.776 368.767 33.748 368.767 34.972V50.02ZM395.663 52.324C396.815 52.324 397.715 52.144 398.651 51.82C399.263 51.568 399.803 50.92 399.803 50.128C399.803 49.12 398.939 48.328 397.967 48.328C397.823 48.328 397.391 48.436 396.887 48.436C395.411 48.436 394.547 47.752 394.547 46.06V36.736H397.967C399.011 36.736 399.875 35.908 399.875 34.864C399.875 33.82 399.011 32.992 397.967 32.992H394.547V29.752C394.547 28.564 393.575 27.592 392.387 27.592C391.163 27.592 390.191 28.564 390.191 29.752V32.992H389.471C388.427 32.992 387.599 33.82 387.599 34.864C387.599 35.908 388.427 36.736 389.471 36.736H390.191V46.744C390.191 50.92 392.459 52.324 395.663 52.324ZM411.789 49.984C411.789 51.208 412.761 52.18 414.021 52.18C415.245 52.18 416.217 51.208 416.217 49.984V43.9H421.221C426.765 43.9 431.301 40.948 431.301 35.296V35.224C431.301 30.148 427.629 26.8 421.725 26.8H414.021C412.761 26.8 411.789 27.772 411.789 29.032V49.984ZM416.217 39.904V30.832H421.365C424.677 30.832 426.801 32.38 426.801 35.332V35.404C426.801 38.032 424.713 39.904 421.365 39.904H416.217ZM442.392 52.432C448.26 52.432 452.58 47.932 452.58 42.532V42.46C452.58 37.024 448.296 32.596 442.464 32.596C436.632 32.596 432.312 37.096 432.312 42.532V42.604C432.312 48.004 436.596 52.432 442.392 52.432ZM442.464 48.616C439.08 48.616 436.668 45.844 436.668 42.532V42.46C436.668 39.148 438.9 36.412 442.392 36.412C445.812 36.412 448.224 39.184 448.224 42.532V42.604C448.224 45.88 445.992 48.616 442.464 48.616ZM464.252 52.432C470.12 52.432 474.44 47.932 474.44 42.532V42.46C474.44 37.024 470.156 32.596 464.324 32.596C458.492 32.596 454.172 37.096 454.172 42.532V42.604C454.172 48.004 458.456 52.432 464.252 52.432ZM464.324 48.616C460.94 48.616 458.528 45.844 458.528 42.532V42.46C458.528 39.148 460.76 36.412 464.252 36.412C467.672 36.412 470.084 39.184 470.084 42.532V42.604C470.084 45.88 467.852 48.616 464.324 48.616ZM477.329 50.02C477.329 51.244 478.301 52.18 479.489 52.18C480.713 52.18 481.685 51.244 481.685 50.02V27.7C481.685 26.512 480.713 25.54 479.489 25.54C478.265 25.54 477.329 26.512 477.329 27.7V50.02Z" fill="black"/>
<path d="M20.24 44.768C20.24 46.028 21.212 47 22.472 47H29.636C37.556 47 43.028 41.492 43.028 34.4V34.328C43.028 27.236 37.556 21.8 29.636 21.8H22.472C21.212 21.8 20.24 22.772 20.24 24.032V44.768ZM24.668 42.968V25.832H29.636C34.928 25.832 38.384 29.468 38.384 34.4V34.472C38.384 39.404 34.928 42.968 29.636 42.968H24.668ZM46.0242 23.096C46.0242 24.392 47.1042 25.256 48.5082 25.256C49.9122 25.256 50.9922 24.392 50.9922 23.096V22.88C50.9922 21.584 49.9122 20.756 48.5082 20.756C47.1042 20.756 46.0242 21.584 46.0242 22.88V23.096ZM46.3482 45.02C46.3482 46.244 47.3202 47.18 48.5082 47.18C49.7322 47.18 50.7042 46.244 50.7042 45.02V29.972C50.7042 28.748 49.7322 27.776 48.5082 27.776C47.2842 27.776 46.3482 28.748 46.3482 29.972V45.02ZM61.1129 47.36C65.0729 47.36 68.1689 45.38 68.1689 41.384V41.312C68.1689 37.892 65.0369 36.632 62.2649 35.768C60.0329 35.048 57.9809 34.472 57.9809 33.068V32.996C57.9809 31.916 58.9529 31.124 60.6449 31.124C61.9769 31.124 63.5609 31.628 65.1089 32.42C65.3969 32.564 65.6129 32.636 65.9729 32.636C66.9809 32.636 67.7729 31.88 67.7729 30.872C67.7729 30.116 67.3409 29.54 66.7289 29.216C64.8929 28.244 62.7689 27.668 60.7529 27.668C56.9729 27.668 53.9849 29.864 53.9849 33.464V33.536C53.9849 37.172 57.1169 38.324 59.9249 39.116C62.1569 39.8 64.1729 40.304 64.1729 41.78V41.852C64.1729 43.112 63.0929 43.904 61.2209 43.904C59.4929 43.904 57.5849 43.292 55.7489 42.068C55.4969 41.924 55.1729 41.816 54.8129 41.816C53.8049 41.816 53.0489 42.608 53.0489 43.58C53.0489 44.3 53.4089 44.84 53.8769 45.092C56.0729 46.604 58.7009 47.36 61.1129 47.36ZM79.6161 47.432C82.7841 47.432 84.8361 46.352 86.5281 44.732C86.9241 44.408 87.1401 43.94 87.1401 43.364C87.1401 42.32 86.3121 41.456 85.2681 41.456C84.7641 41.456 84.3321 41.708 84.0801 41.924C82.8921 42.932 81.5601 43.616 79.8321 43.616C76.4841 43.616 74.1441 40.916 74.1441 37.532V37.46C74.1441 34.148 76.4841 31.412 79.6521 31.412C81.3801 31.412 82.6041 32.096 83.7201 33.032C84.0081 33.248 84.4761 33.464 85.0161 33.464C86.1321 33.464 87.0321 32.6 87.0321 31.484C87.0321 30.764 86.6361 30.224 86.3481 29.972C84.7281 28.568 82.6761 27.596 79.6881 27.596C73.9641 27.596 69.7881 32.132 69.7881 37.532V37.604C69.7881 43.004 73.9641 47.432 79.6161 47.432ZM98.1072 47.432C103.975 47.432 108.295 42.932 108.295 37.532V37.46C108.295 32.024 104.011 27.596 98.1792 27.596C92.3472 27.596 88.0272 32.096 88.0272 37.532V37.604C88.0272 43.004 92.3112 47.432 98.1072 47.432ZM98.1792 43.616C94.7952 43.616 92.3832 40.844 92.3832 37.532V37.46C92.3832 34.148 94.6152 31.412 98.1072 31.412C101.527 31.412 103.939 34.184 103.939 37.532V37.604C103.939 40.88 101.707 43.616 98.1792 43.616ZM120.527 45.452L126.863 30.908C126.971 30.692 127.115 30.26 127.115 29.864C127.115 28.676 126.179 27.776 124.991 27.776C123.839 27.776 123.263 28.532 122.939 29.288L117.971 41.96L113.075 29.36C112.715 28.46 112.103 27.776 110.915 27.776C109.727 27.776 108.755 28.784 108.755 29.864C108.755 30.26 108.899 30.62 109.007 30.944L115.343 45.452C115.847 46.604 116.639 47.36 117.827 47.36H118.043C119.231 47.36 120.023 46.568 120.527 45.452ZM131.884 36.164C132.28 33.212 134.152 31.16 136.816 31.16C139.696 31.16 141.352 33.356 141.64 36.164H131.884ZM144.16 44.912C144.484 44.588 144.736 44.12 144.736 43.58C144.736 42.572 143.98 41.816 143.008 41.816C142.504 41.816 142.216 41.96 141.892 42.212C140.668 43.22 139.228 43.868 137.392 43.868C134.584 43.868 132.388 42.14 131.92 39.044H143.836C144.952 39.044 145.888 38.18 145.888 36.956C145.888 32.564 142.9 27.596 136.852 27.596C131.416 27.596 127.564 32.06 127.564 37.496V37.568C127.564 43.436 131.812 47.432 137.32 47.432C140.272 47.432 142.432 46.46 144.16 44.912ZM148.534 45.02C148.534 46.244 149.506 47.18 150.694 47.18C151.918 47.18 152.89 46.208 152.89 45.02V39.404C152.89 34.904 155.014 32.528 158.11 31.988C159.082 31.808 159.838 31.052 159.838 29.9C159.838 28.64 159.046 27.74 157.678 27.74C155.77 27.74 153.898 29.54 152.89 31.916V29.972C152.89 28.748 151.918 27.776 150.694 27.776C149.47 27.776 148.534 28.748 148.534 29.972V45.02ZM176.071 47.396C178.987 47.396 180.967 46.172 182.263 44.624V45.344C182.263 46.316 183.127 47.18 184.387 47.18C185.575 47.18 186.511 46.28 186.511 45.092V35.732C186.511 33.248 185.863 31.232 184.459 29.864C183.127 28.496 181.003 27.74 178.159 27.74C175.675 27.74 173.839 28.172 172.039 28.856C171.391 29.108 170.851 29.792 170.851 30.584C170.851 31.592 171.679 32.384 172.687 32.384C172.903 32.384 173.119 32.348 173.371 32.276C174.559 31.808 175.927 31.52 177.583 31.52C180.643 31.52 182.299 32.96 182.299 35.66V36.128C180.823 35.66 179.311 35.336 177.187 35.336C172.543 35.336 169.339 37.352 169.339 41.456V41.528C169.339 45.344 172.507 47.396 176.071 47.396ZM177.295 44.228C175.207 44.228 173.587 43.184 173.587 41.348V41.276C173.587 39.296 175.243 38.108 178.051 38.108C179.779 38.108 181.255 38.432 182.371 38.864V40.16C182.371 42.572 180.175 44.228 177.295 44.228ZM189.927 45.02C189.927 46.244 190.899 47.18 192.087 47.18C193.311 47.18 194.283 46.244 194.283 45.02V36.272C194.283 33.32 196.047 31.556 198.567 31.556C201.159 31.556 202.635 33.248 202.635 36.2V45.02C202.635 46.244 203.607 47.18 204.831 47.18C206.055 47.18 206.991 46.244 206.991 45.02V34.868C206.991 30.476 204.507 27.596 200.223 27.596C197.271 27.596 195.507 29.144 194.283 30.908V29.972C194.283 28.748 193.311 27.776 192.087 27.776C190.863 27.776 189.927 28.748 189.927 29.972V45.02Z" fill="#00E59D"/>
<path d="M220.201 44.984C220.201 46.208 221.173 47.18 222.433 47.18C223.657 47.18 224.629 46.208 224.629 44.984V23.816C224.629 22.592 223.657 21.62 222.433 21.62C221.173 21.62 220.201 22.592 220.201 23.816V44.984ZM229.07 45.02C229.07 46.244 230.042 47.18 231.23 47.18C232.454 47.18 233.426 46.244 233.426 45.02V36.272C233.426 33.32 235.19 31.556 237.71 31.556C240.302 31.556 241.778 33.248 241.778 36.2V45.02C241.778 46.244 242.75 47.18 243.974 47.18C245.198 47.18 246.134 46.244 246.134 45.02V34.868C246.134 30.476 243.65 27.596 239.366 27.596C236.414 27.596 234.65 29.144 233.426 30.908V29.972C233.426 28.748 232.454 27.776 231.23 27.776C230.006 27.776 229.07 28.748 229.07 29.972V45.02ZM259.542 45.452L265.878 30.908C265.986 30.692 266.13 30.26 266.13 29.864C266.13 28.676 265.194 27.776 264.006 27.776C262.854 27.776 262.278 28.532 261.954 29.288L256.986 41.96L252.09 29.36C251.73 28.46 251.118 27.776 249.93 27.776C248.742 27.776 247.77 28.784 247.77 29.864C247.77 30.26 247.914 30.62 248.022 30.944L254.358 45.452C254.862 46.604 255.654 47.36 256.842 47.36H257.058C258.246 47.36 259.038 46.568 259.542 45.452ZM270.899 36.164C271.295 33.212 273.167 31.16 275.831 31.16C278.711 31.16 280.367 33.356 280.655 36.164H270.899ZM283.175 44.912C283.499 44.588 283.751 44.12 283.751 43.58C283.751 42.572 282.995 41.816 282.023 41.816C281.519 41.816 281.231 41.96 280.907 42.212C279.683 43.22 278.243 43.868 276.407 43.868C273.599 43.868 271.403 42.14 270.935 39.044H282.851C283.967 39.044 284.903 38.18 284.903 36.956C284.903 32.564 281.915 27.596 275.867 27.596C270.431 27.596 266.579 32.06 266.579 37.496V37.568C266.579 43.436 270.827 47.432 276.335 47.432C279.287 47.432 281.447 46.46 283.175 44.912ZM294.065 47.36C298.025 47.36 301.121 45.38 301.121 41.384V41.312C301.121 37.892 297.989 36.632 295.217 35.768C292.985 35.048 290.933 34.472 290.933 33.068V32.996C290.933 31.916 291.905 31.124 293.597 31.124C294.929 31.124 296.513 31.628 298.061 32.42C298.349 32.564 298.565 32.636 298.925 32.636C299.933 32.636 300.725 31.88 300.725 30.872C300.725 30.116 300.293 29.54 299.681 29.216C297.845 28.244 295.721 27.668 293.705 27.668C289.925 27.668 286.937 29.864 286.937 33.464V33.536C286.937 37.172 290.069 38.324 292.877 39.116C295.109 39.8 297.125 40.304 297.125 41.78V41.852C297.125 43.112 296.045 43.904 294.173 43.904C292.445 43.904 290.537 43.292 288.701 42.068C288.449 41.924 288.125 41.816 287.765 41.816C286.757 41.816 286.001 42.608 286.001 43.58C286.001 44.3 286.361 44.84 286.829 45.092C289.025 46.604 291.653 47.36 294.065 47.36ZM309.805 47.324C310.957 47.324 311.857 47.144 312.793 46.82C313.405 46.568 313.945 45.92 313.945 45.128C313.945 44.12 313.081 43.328 312.109 43.328C311.965 43.328 311.533 43.436 311.029 43.436C309.553 43.436 308.689 42.752 308.689 41.06V31.736H312.109C313.153 31.736 314.017 30.908 314.017 29.864C314.017 28.82 313.153 27.992 312.109 27.992H308.689V24.752C308.689 23.564 307.717 22.592 306.529 22.592C305.305 22.592 304.333 23.564 304.333 24.752V27.992H303.613C302.569 27.992 301.741 28.82 301.741 29.864C301.741 30.908 302.569 31.736 303.613 31.736H304.333V41.744C304.333 45.92 306.601 47.324 309.805 47.324ZM316.434 45.02C316.434 46.244 317.406 47.18 318.594 47.18C319.818 47.18 320.79 46.244 320.79 45.02V36.272C320.79 33.356 322.446 31.556 324.858 31.556C327.27 31.556 328.71 33.212 328.71 36.164V45.02C328.71 46.244 329.682 47.18 330.906 47.18C332.094 47.18 333.066 46.244 333.066 45.02V36.272C333.066 33.212 334.758 31.556 337.134 31.556C339.582 31.556 340.986 33.176 340.986 36.2V45.02C340.986 46.244 341.958 47.18 343.182 47.18C344.406 47.18 345.342 46.244 345.342 45.02V34.868C345.342 30.224 342.822 27.596 338.682 27.596C335.802 27.596 333.786 28.928 332.274 30.944C331.266 28.928 329.322 27.596 326.586 27.596C323.67 27.596 322.014 29.18 320.79 30.872V29.972C320.79 28.748 319.818 27.776 318.594 27.776C317.37 27.776 316.434 28.748 316.434 29.972V45.02ZM352.117 36.164C352.513 33.212 354.385 31.16 357.049 31.16C359.929 31.16 361.585 33.356 361.873 36.164H352.117ZM364.393 44.912C364.717 44.588 364.969 44.12 364.969 43.58C364.969 42.572 364.213 41.816 363.241 41.816C362.737 41.816 362.449 41.96 362.125 42.212C360.901 43.22 359.461 43.868 357.625 43.868C354.817 43.868 352.621 42.14 352.153 39.044H364.069C365.185 39.044 366.121 38.18 366.121 36.956C366.121 32.564 363.133 27.596 357.085 27.596C351.649 27.596 347.797 32.06 347.797 37.496V37.568C347.797 43.436 352.045 47.432 357.553 47.432C360.505 47.432 362.665 46.46 364.393 44.912ZM368.767 45.02C368.767 46.244 369.739 47.18 370.927 47.18C372.151 47.18 373.123 46.244 373.123 45.02V36.272C373.123 33.32 374.887 31.556 377.407 31.556C379.999 31.556 381.475 33.248 381.475 36.2V45.02C381.475 46.244 382.447 47.18 383.671 47.18C384.895 47.18 385.831 46.244 385.831 45.02V34.868C385.831 30.476 383.347 27.596 379.063 27.596C376.111 27.596 374.347 29.144 373.123 30.908V29.972C373.123 28.748 372.151 27.776 370.927 27.776C369.703 27.776 368.767 28.748 368.767 29.972V45.02ZM395.663 47.324C396.815 47.324 397.715 47.144 398.651 46.82C399.263 46.568 399.803 45.92 399.803 45.128C399.803 44.12 398.939 43.328 397.967 43.328C397.823 43.328 397.391 43.436 396.887 43.436C395.411 43.436 394.547 42.752 394.547 41.06V31.736H397.967C399.011 31.736 399.875 30.908 399.875 29.864C399.875 28.82 399.011 27.992 397.967 27.992H394.547V24.752C394.547 23.564 393.575 22.592 392.387 22.592C391.163 22.592 390.191 23.564 390.191 24.752V27.992H389.471C388.427 27.992 387.599 28.82 387.599 29.864C387.599 30.908 388.427 31.736 389.471 31.736H390.191V41.744C390.191 45.92 392.459 47.324 395.663 47.324ZM411.789 44.984C411.789 46.208 412.761 47.18 414.021 47.18C415.245 47.18 416.217 46.208 416.217 44.984V38.9H421.221C426.765 38.9 431.301 35.948 431.301 30.296V30.224C431.301 25.148 427.629 21.8 421.725 21.8H414.021C412.761 21.8 411.789 22.772 411.789 24.032V44.984ZM416.217 34.904V25.832H421.365C424.677 25.832 426.801 27.38 426.801 30.332V30.404C426.801 33.032 424.713 34.904 421.365 34.904H416.217ZM442.392 47.432C448.26 47.432 452.58 42.932 452.58 37.532V37.46C452.58 32.024 448.296 27.596 442.464 27.596C436.632 27.596 432.312 32.096 432.312 37.532V37.604C432.312 43.004 436.596 47.432 442.392 47.432ZM442.464 43.616C439.08 43.616 436.668 40.844 436.668 37.532V37.46C436.668 34.148 438.9 31.412 442.392 31.412C445.812 31.412 448.224 34.184 448.224 37.532V37.604C448.224 40.88 445.992 43.616 442.464 43.616ZM464.252 47.432C470.12 47.432 474.44 42.932 474.44 37.532V37.46C474.44 32.024 470.156 27.596 464.324 27.596C458.492 27.596 454.172 32.096 454.172 37.532V37.604C454.172 43.004 458.456 47.432 464.252 47.432ZM464.324 43.616C460.94 43.616 458.528 40.844 458.528 37.532V37.46C458.528 34.148 460.76 31.412 464.252 31.412C467.672 31.412 470.084 34.184 470.084 37.532V37.604C470.084 40.88 467.852 43.616 464.324 43.616ZM477.329 45.02C477.329 46.244 478.301 47.18 479.489 47.18C480.713 47.18 481.685 46.244 481.685 45.02V22.7C481.685 21.512 480.713 20.54 479.489 20.54C478.265 20.54 477.329 21.512 477.329 22.7V45.02Z" fill="#FF0000"/>
<g filter="url(#filter0)">
<path d="M20.24 44.768C20.24 46.028 21.212 47 22.472 47H29.636C37.556 47 43.028 41.492 43.028 34.4V34.328C43.028 27.236 37.556 21.8 29.636 21.8H22.472C21.212 21.8 20.24 22.772 20.24 24.032V44.768ZM24.668 42.968V25.832H29.636C34.928 25.832 38.384 29.468 38.384 34.4V34.472C38.384 39.404 34.928 42.968 29.636 42.968H24.668ZM46.0242 23.096C46.0242 24.392 47.1042 25.256 48.5082 25.256C49.9122 25.256 50.9922 24.392 50.9922 23.096V22.88C50.9922 21.584 49.9122 20.756 48.5082 20.756C47.1042 20.756 46.0242 21.584 46.0242 22.88V23.096ZM46.3482 45.02C46.3482 46.244 47.3202 47.18 48.5082 47.18C49.7322 47.18 50.7042 46.244 50.7042 45.02V29.972C50.7042 28.748 49.7322 27.776 48.5082 27.776C47.2842 27.776 46.3482 28.748 46.3482 29.972V45.02ZM61.1129 47.36C65.0729 47.36 68.1689 45.38 68.1689 41.384V41.312C68.1689 37.892 65.0369 36.632 62.2649 35.768C60.0329 35.048 57.9809 34.472 57.9809 33.068V32.996C57.9809 31.916 58.9529 31.124 60.6449 31.124C61.9769 31.124 63.5609 31.628 65.1089 32.42C65.3969 32.564 65.6129 32.636 65.9729 32.636C66.9809 32.636 67.7729 31.88 67.7729 30.872C67.7729 30.116 67.3409 29.54 66.7289 29.216C64.8929 28.244 62.7689 27.668 60.7529 27.668C56.9729 27.668 53.9849 29.864 53.9849 33.464V33.536C53.9849 37.172 57.1169 38.324 59.9249 39.116C62.1569 39.8 64.1729 40.304 64.1729 41.78V41.852C64.1729 43.112 63.0929 43.904 61.2209 43.904C59.4929 43.904 57.5849 43.292 55.7489 42.068C55.4969 41.924 55.1729 41.816 54.8129 41.816C53.8049 41.816 53.0489 42.608 53.0489 43.58C53.0489 44.3 53.4089 44.84 53.8769 45.092C56.0729 46.604 58.7009 47.36 61.1129 47.36ZM79.6161 47.432C82.7841 47.432 84.8361 46.352 86.5281 44.732C86.9241 44.408 87.1401 43.94 87.1401 43.364C87.1401 42.32 86.3121 41.456 85.2681 41.456C84.7641 41.456 84.3321 41.708 84.0801 41.924C82.8921 42.932 81.5601 43.616 79.8321 43.616C76.4841 43.616 74.1441 40.916 74.1441 37.532V37.46C74.1441 34.148 76.4841 31.412 79.6521 31.412C81.3801 31.412 82.6041 32.096 83.7201 33.032C84.0081 33.248 84.4761 33.464 85.0161 33.464C86.1321 33.464 87.0321 32.6 87.0321 31.484C87.0321 30.764 86.6361 30.224 86.3481 29.972C84.7281 28.568 82.6761 27.596 79.6881 27.596C73.9641 27.596 69.7881 32.132 69.7881 37.532V37.604C69.7881 43.004 73.9641 47.432 79.6161 47.432ZM98.1072 47.432C103.975 47.432 108.295 42.932 108.295 37.532V37.46C108.295 32.024 104.011 27.596 98.1792 27.596C92.3472 27.596 88.0272 32.096 88.0272 37.532V37.604C88.0272 43.004 92.3112 47.432 98.1072 47.432ZM98.1792 43.616C94.7952 43.616 92.3832 40.844 92.3832 37.532V37.46C92.3832 34.148 94.6152 31.412 98.1072 31.412C101.527 31.412 103.939 34.184 103.939 37.532V37.604C103.939 40.88 101.707 43.616 98.1792 43.616ZM120.527 45.452L126.863 30.908C126.971 30.692 127.115 30.26 127.115 29.864C127.115 28.676 126.179 27.776 124.991 27.776C123.839 27.776 123.263 28.532 122.939 29.288L117.971 41.96L113.075 29.36C112.715 28.46 112.103 27.776 110.915 27.776C109.727 27.776 108.755 28.784 108.755 29.864C108.755 30.26 108.899 30.62 109.007 30.944L115.343 45.452C115.847 46.604 116.639 47.36 117.827 47.36H118.043C119.231 47.36 120.023 46.568 120.527 45.452ZM131.884 36.164C132.28 33.212 134.152 31.16 136.816 31.16C139.696 31.16 141.352 33.356 141.64 36.164H131.884ZM144.16 44.912C144.484 44.588 144.736 44.12 144.736 43.58C144.736 42.572 143.98 41.816 143.008 41.816C142.504 41.816 142.216 41.96 141.892 42.212C140.668 43.22 139.228 43.868 137.392 43.868C134.584 43.868 132.388 42.14 131.92 39.044H143.836C144.952 39.044 145.888 38.18 145.888 36.956C145.888 32.564 142.9 27.596 136.852 27.596C131.416 27.596 127.564 32.06 127.564 37.496V37.568C127.564 43.436 131.812 47.432 137.32 47.432C140.272 47.432 142.432 46.46 144.16 44.912ZM148.534 45.02C148.534 46.244 149.506 47.18 150.694 47.18C151.918 47.18 152.89 46.208 152.89 45.02V39.404C152.89 34.904 155.014 32.528 158.11 31.988C159.082 31.808 159.838 31.052 159.838 29.9C159.838 28.64 159.046 27.74 157.678 27.74C155.77 27.74 153.898 29.54 152.89 31.916V29.972C152.89 28.748 151.918 27.776 150.694 27.776C149.47 27.776 148.534 28.748 148.534 29.972V45.02ZM176.071 47.396C178.987 47.396 180.967 46.172 182.263 44.624V45.344C182.263 46.316 183.127 47.18 184.387 47.18C185.575 47.18 186.511 46.28 186.511 45.092V35.732C186.511 33.248 185.863 31.232 184.459 29.864C183.127 28.496 181.003 27.74 178.159 27.74C175.675 27.74 173.839 28.172 172.039 28.856C171.391 29.108 170.851 29.792 170.851 30.584C170.851 31.592 171.679 32.384 172.687 32.384C172.903 32.384 173.119 32.348 173.371 32.276C174.559 31.808 175.927 31.52 177.583 31.52C180.643 31.52 182.299 32.96 182.299 35.66V36.128C180.823 35.66 179.311 35.336 177.187 35.336C172.543 35.336 169.339 37.352 169.339 41.456V41.528C169.339 45.344 172.507 47.396 176.071 47.396ZM177.295 44.228C175.207 44.228 173.587 43.184 173.587 41.348V41.276C173.587 39.296 175.243 38.108 178.051 38.108C179.779 38.108 181.255 38.432 182.371 38.864V40.16C182.371 42.572 180.175 44.228 177.295 44.228ZM189.927 45.02C189.927 46.244 190.899 47.18 192.087 47.18C193.311 47.18 194.283 46.244 194.283 45.02V36.272C194.283 33.32 196.047 31.556 198.567 31.556C201.159 31.556 202.635 33.248 202.635 36.2V45.02C202.635 46.244 203.607 47.18 204.831 47.18C206.055 47.18 206.991 46.244 206.991 45.02V34.868C206.991 30.476 204.507 27.596 200.223 27.596C197.271 27.596 195.507 29.144 194.283 30.908V29.972C194.283 28.748 193.311 27.776 192.087 27.776C190.863 27.776 189.927 28.748 189.927 29.972V45.02Z" fill="#00E59D"/>
<path d="M220.201 44.984C220.201 46.208 221.173 47.18 222.433 47.18C223.657 47.18 224.629 46.208 224.629 44.984V23.816C224.629 22.592 223.657 21.62 222.433 21.62C221.173 21.62 220.201 22.592 220.201 23.816V44.984ZM229.07 45.02C229.07 46.244 230.042 47.18 231.23 47.18C232.454 47.18 233.426 46.244 233.426 45.02V36.272C233.426 33.32 235.19 31.556 237.71 31.556C240.302 31.556 241.778 33.248 241.778 36.2V45.02C241.778 46.244 242.75 47.18 243.974 47.18C245.198 47.18 246.134 46.244 246.134 45.02V34.868C246.134 30.476 243.65 27.596 239.366 27.596C236.414 27.596 234.65 29.144 233.426 30.908V29.972C233.426 28.748 232.454 27.776 231.23 27.776C230.006 27.776 229.07 28.748 229.07 29.972V45.02ZM259.542 45.452L265.878 30.908C265.986 30.692 266.13 30.26 266.13 29.864C266.13 28.676 265.194 27.776 264.006 27.776C262.854 27.776 262.278 28.532 261.954 29.288L256.986 41.96L252.09 29.36C251.73 28.46 251.118 27.776 249.93 27.776C248.742 27.776 247.77 28.784 247.77 29.864C247.77 30.26 247.914 30.62 248.022 30.944L254.358 45.452C254.862 46.604 255.654 47.36 256.842 47.36H257.058C258.246 47.36 259.038 46.568 259.542 45.452ZM270.899 36.164C271.295 33.212 273.167 31.16 275.831 31.16C278.711 31.16 280.367 33.356 280.655 36.164H270.899ZM283.175 44.912C283.499 44.588 283.751 44.12 283.751 43.58C283.751 42.572 282.995 41.816 282.023 41.816C281.519 41.816 281.231 41.96 280.907 42.212C279.683 43.22 278.243 43.868 276.407 43.868C273.599 43.868 271.403 42.14 270.935 39.044H282.851C283.967 39.044 284.903 38.18 284.903 36.956C284.903 32.564 281.915 27.596 275.867 27.596C270.431 27.596 266.579 32.06 266.579 37.496V37.568C266.579 43.436 270.827 47.432 276.335 47.432C279.287 47.432 281.447 46.46 283.175 44.912ZM294.065 47.36C298.025 47.36 301.121 45.38 301.121 41.384V41.312C301.121 37.892 297.989 36.632 295.217 35.768C292.985 35.048 290.933 34.472 290.933 33.068V32.996C290.933 31.916 291.905 31.124 293.597 31.124C294.929 31.124 296.513 31.628 298.061 32.42C298.349 32.564 298.565 32.636 298.925 32.636C299.933 32.636 300.725 31.88 300.725 30.872C300.725 30.116 300.293 29.54 299.681 29.216C297.845 28.244 295.721 27.668 293.705 27.668C289.925 27.668 286.937 29.864 286.937 33.464V33.536C286.937 37.172 290.069 38.324 292.877 39.116C295.109 39.8 297.125 40.304 297.125 41.78V41.852C297.125 43.112 296.045 43.904 294.173 43.904C292.445 43.904 290.537 43.292 288.701 42.068C288.449 41.924 288.125 41.816 287.765 41.816C286.757 41.816 286.001 42.608 286.001 43.58C286.001 44.3 286.361 44.84 286.829 45.092C289.025 46.604 291.653 47.36 294.065 47.36ZM309.805 47.324C310.957 47.324 311.857 47.144 312.793 46.82C313.405 46.568 313.945 45.92 313.945 45.128C313.945 44.12 313.081 43.328 312.109 43.328C311.965 43.328 311.533 43.436 311.029 43.436C309.553 43.436 308.689 42.752 308.689 41.06V31.736H312.109C313.153 31.736 314.017 30.908 314.017 29.864C314.017 28.82 313.153 27.992 312.109 27.992H308.689V24.752C308.689 23.564 307.717 22.592 306.529 22.592C305.305 22.592 304.333 23.564 304.333 24.752V27.992H303.613C302.569 27.992 301.741 28.82 301.741 29.864C301.741 30.908 302.569 31.736 303.613 31.736H304.333V41.744C304.333 45.92 306.601 47.324 309.805 47.324ZM316.434 45.02C316.434 46.244 317.406 47.18 318.594 47.18C319.818 47.18 320.79 46.244 320.79 45.02V36.272C320.79 33.356 322.446 31.556 324.858 31.556C327.27 31.556 328.71 33.212 328.71 36.164V45.02C328.71 46.244 329.682 47.18 330.906 47.18C332.094 47.18 333.066 46.244 333.066 45.02V36.272C333.066 33.212 334.758 31.556 337.134 31.556C339.582 31.556 340.986 33.176 340.986 36.2V45.02C340.986 46.244 341.958 47.18 343.182 47.18C344.406 47.18 345.342 46.244 345.342 45.02V34.868C345.342 30.224 342.822 27.596 338.682 27.596C335.802 27.596 333.786 28.928 332.274 30.944C331.266 28.928 329.322 27.596 326.586 27.596C323.67 27.596 322.014 29.18 320.79 30.872V29.972C320.79 28.748 319.818 27.776 318.594 27.776C317.37 27.776 316.434 28.748 316.434 29.972V45.02ZM352.117 36.164C352.513 33.212 354.385 31.16 357.049 31.16C359.929 31.16 361.585 33.356 361.873 36.164H352.117ZM364.393 44.912C364.717 44.588 364.969 44.12 364.969 43.58C364.969 42.572 364.213 41.816 363.241 41.816C362.737 41.816 362.449 41.96 362.125 42.212C360.901 43.22 359.461 43.868 357.625 43.868C354.817 43.868 352.621 42.14 352.153 39.044H364.069C365.185 39.044 366.121 38.18 366.121 36.956C366.121 32.564 363.133 27.596 357.085 27.596C351.649 27.596 347.797 32.06 347.797 37.496V37.568C347.797 43.436 352.045 47.432 357.553 47.432C360.505 47.432 362.665 46.46 364.393 44.912ZM368.767 45.02C368.767 46.244 369.739 47.18 370.927 47.18C372.151 47.18 373.123 46.244 373.123 45.02V36.272C373.123 33.32 374.887 31.556 377.407 31.556C379.999 31.556 381.475 33.248 381.475 36.2V45.02C381.475 46.244 382.447 47.18 383.671 47.18C384.895 47.18 385.831 46.244 385.831 45.02V34.868C385.831 30.476 383.347 27.596 379.063 27.596C376.111 27.596 374.347 29.144 373.123 30.908V29.972C373.123 28.748 372.151 27.776 370.927 27.776C369.703 27.776 368.767 28.748 368.767 29.972V45.02ZM395.663 47.324C396.815 47.324 397.715 47.144 398.651 46.82C399.263 46.568 399.803 45.92 399.803 45.128C399.803 44.12 398.939 43.328 397.967 43.328C397.823 43.328 397.391 43.436 396.887 43.436C395.411 43.436 394.547 42.752 394.547 41.06V31.736H397.967C399.011 31.736 399.875 30.908 399.875 29.864C399.875 28.82 399.011 27.992 397.967 27.992H394.547V24.752C394.547 23.564 393.575 22.592 392.387 22.592C391.163 22.592 390.191 23.564 390.191 24.752V27.992H389.471C388.427 27.992 387.599 28.82 387.599 29.864C387.599 30.908 388.427 31.736 389.471 31.736H390.191V41.744C390.191 45.92 392.459 47.324 395.663 47.324ZM411.789 44.984C411.789 46.208 412.761 47.18 414.021 47.18C415.245 47.18 416.217 46.208 416.217 44.984V38.9H421.221C426.765 38.9 431.301 35.948 431.301 30.296V30.224C431.301 25.148 427.629 21.8 421.725 21.8H414.021C412.761 21.8 411.789 22.772 411.789 24.032V44.984ZM416.217 34.904V25.832H421.365C424.677 25.832 426.801 27.38 426.801 30.332V30.404C426.801 33.032 424.713 34.904 421.365 34.904H416.217ZM442.392 47.432C448.26 47.432 452.58 42.932 452.58 37.532V37.46C452.58 32.024 448.296 27.596 442.464 27.596C436.632 27.596 432.312 32.096 432.312 37.532V37.604C432.312 43.004 436.596 47.432 442.392 47.432ZM442.464 43.616C439.08 43.616 436.668 40.844 436.668 37.532V37.46C436.668 34.148 438.9 31.412 442.392 31.412C445.812 31.412 448.224 34.184 448.224 37.532V37.604C448.224 40.88 445.992 43.616 442.464 43.616ZM464.252 47.432C470.12 47.432 474.44 42.932 474.44 37.532V37.46C474.44 32.024 470.156 27.596 464.324 27.596C458.492 27.596 454.172 32.096 454.172 37.532V37.604C454.172 43.004 458.456 47.432 464.252 47.432ZM464.324 43.616C460.94 43.616 458.528 40.844 458.528 37.532V37.46C458.528 34.148 460.76 31.412 464.252 31.412C467.672 31.412 470.084 34.184 470.084 37.532V37.604C470.084 40.88 467.852 43.616 464.324 43.616ZM477.329 45.02C477.329 46.244 478.301 47.18 479.489 47.18C480.713 47.18 481.685 46.244 481.685 45.02V22.7C481.685 21.512 480.713 20.54 479.489 20.54C478.265 20.54 477.329 21.512 477.329 22.7V45.02Z" fill="#FF0000"/>
</g>
<defs>
<filter id="filter0" x="0.240234" y="0.540039" width="501.444" height="66.8916" filterUnits="userSpaceOnUse" color-interpolation-filters="sRGB">
<feFlood flood-opacity="0" result="BackgroundImageFix"/>
<feBlend mode="normal" in="SourceGraphic" in2="BackgroundImageFix" result="shape"/>
<feGaussianBlur stdDeviation="10" result="effect1_foregroundBlur_929_117"/>
</filter>
</defs>
</svg>
