<svg width="286" height="68" viewBox="0 0 286 68" fill="none" xmlns="http://www.w3.org/2000/svg">
<path d="M20.24 49.984C20.24 51.208 21.212 52.18 22.472 52.18C23.696 52.18 24.668 51.208 24.668 49.984V41.74H35.54C36.656 41.74 37.556 40.84 37.556 39.724C37.556 38.608 36.656 37.708 35.54 37.708H24.668V30.832H37.16C38.276 30.832 39.176 29.932 39.176 28.816C39.176 27.7 38.276 26.8 37.16 26.8H22.472C21.212 26.8 20.24 27.772 20.24 29.032V49.984ZM44.3097 41.164C44.7057 38.212 46.5777 36.16 49.2417 36.16C52.1217 36.16 53.7777 38.356 54.0657 41.164H44.3097ZM56.5857 49.912C56.9097 49.588 57.1617 49.12 57.1617 48.58C57.1617 47.572 56.4057 46.816 55.4337 46.816C54.9297 46.816 54.6417 46.96 54.3177 47.212C53.0937 48.22 51.6537 48.868 49.8177 48.868C47.0097 48.868 44.8137 47.14 44.3457 44.044H56.2617C57.3777 44.044 58.3137 43.18 58.3137 41.956C58.3137 37.564 55.3257 32.596 49.2777 32.596C43.8417 32.596 39.9897 37.06 39.9897 42.496V42.568C39.9897 48.436 44.2377 52.432 49.7457 52.432C52.6977 52.432 54.8577 51.46 56.5857 49.912ZM66.4322 52.396C69.3482 52.396 71.3282 51.172 72.6242 49.624V50.344C72.6242 51.316 73.4882 52.18 74.7482 52.18C75.9362 52.18 76.8722 51.28 76.8722 50.092V40.732C76.8722 38.248 76.2242 36.232 74.8202 34.864C73.4882 33.496 71.3642 32.74 68.5202 32.74C66.0362 32.74 64.2002 33.172 62.4002 33.856C61.7522 34.108 61.2122 34.792 61.2122 35.584C61.2122 36.592 62.0402 37.384 63.0482 37.384C63.2642 37.384 63.4802 37.348 63.7322 37.276C64.9202 36.808 66.2882 36.52 67.9442 36.52C71.0042 36.52 72.6602 37.96 72.6602 40.66V41.128C71.1842 40.66 69.6722 40.336 67.5482 40.336C62.9042 40.336 59.7002 42.352 59.7002 46.456V46.528C59.7002 50.344 62.8682 52.396 66.4322 52.396ZM67.6562 49.228C65.5682 49.228 63.9482 48.184 63.9482 46.348V46.276C63.9482 44.296 65.6042 43.108 68.4122 43.108C70.1402 43.108 71.6162 43.432 72.7322 43.864V45.16C72.7322 47.572 70.5362 49.228 67.6562 49.228ZM86.4853 52.324C87.6373 52.324 88.5373 52.144 89.4733 51.82C90.0853 51.568 90.6253 50.92 90.6253 50.128C90.6253 49.12 89.7613 48.328 88.7893 48.328C88.6453 48.328 88.2133 48.436 87.7093 48.436C86.2333 48.436 85.3693 47.752 85.3693 46.06V36.736H88.7893C89.8333 36.736 90.6973 35.908 90.6973 34.864C90.6973 33.82 89.8333 32.992 88.7893 32.992H85.3693V29.752C85.3693 28.564 84.3973 27.592 83.2093 27.592C81.9853 27.592 81.0133 28.564 81.0133 29.752V32.992H80.2933C79.2493 32.992 78.4213 33.82 78.4213 34.864C78.4213 35.908 79.2493 36.736 80.2933 36.736H81.0133V46.744C81.0133 50.92 83.2813 52.324 86.4853 52.324ZM109.998 34.972C109.998 33.748 108.99 32.776 107.802 32.776C106.578 32.776 105.606 33.748 105.606 34.972V43.72C105.606 46.672 103.842 48.4 101.322 48.4C98.7301 48.4 97.2541 46.744 97.2541 43.792V34.972C97.2541 33.748 96.2821 32.776 95.0581 32.776C93.8701 32.776 92.8981 33.748 92.8981 34.972V45.088C92.8981 49.516 95.3821 52.396 99.6661 52.396C102.618 52.396 104.382 50.848 105.606 49.048V50.02C105.606 51.244 106.614 52.18 107.802 52.18C109.026 52.18 109.998 51.208 109.998 50.02V34.972ZM113.638 50.02C113.638 51.244 114.61 52.18 115.798 52.18C117.022 52.18 117.994 51.208 117.994 50.02V44.404C117.994 39.904 120.118 37.528 123.214 36.988C124.186 36.808 124.942 36.052 124.942 34.9C124.942 33.64 124.15 32.74 122.782 32.74C120.874 32.74 119.002 34.54 117.994 36.916V34.972C117.994 33.748 117.022 32.776 115.798 32.776C114.574 32.776 113.638 33.748 113.638 34.972V50.02ZM129.353 41.164C129.749 38.212 131.621 36.16 134.285 36.16C137.165 36.16 138.821 38.356 139.109 41.164H129.353ZM141.629 49.912C141.953 49.588 142.205 49.12 142.205 48.58C142.205 47.572 141.449 46.816 140.477 46.816C139.973 46.816 139.685 46.96 139.361 47.212C138.137 48.22 136.697 48.868 134.861 48.868C132.053 48.868 129.857 47.14 129.389 44.044H141.305C142.421 44.044 143.357 43.18 143.357 41.956C143.357 37.564 140.369 32.596 134.321 32.596C128.885 32.596 125.033 37.06 125.033 42.496V42.568C125.033 48.436 129.281 52.432 134.789 52.432C137.741 52.432 139.901 51.46 141.629 49.912ZM164.687 27.7C164.687 26.476 163.715 25.54 162.491 25.54C161.303 25.54 160.331 26.476 160.331 27.7V35.944C158.963 34.144 156.983 32.596 153.851 32.596C149.315 32.596 145.031 36.16 145.031 42.46V42.532C145.031 48.832 149.387 52.396 153.851 52.396C156.947 52.396 158.927 50.812 160.331 48.832V50.02C160.331 51.244 161.303 52.18 162.527 52.18C163.715 52.18 164.687 51.244 164.687 50.02V27.7ZM154.895 36.376C157.811 36.376 160.403 38.788 160.403 42.46V42.532C160.403 46.168 157.811 48.616 154.895 48.616C151.943 48.616 149.423 46.204 149.423 42.532V42.46C149.423 38.68 151.907 36.376 154.895 36.376ZM177.853 49.984C177.853 51.208 178.825 52.18 180.085 52.18C181.309 52.18 182.281 51.208 182.281 49.984V43.9H187.285C192.829 43.9 197.365 40.948 197.365 35.296V35.224C197.365 30.148 193.693 26.8 187.789 26.8H180.085C178.825 26.8 177.853 27.772 177.853 29.032V49.984ZM182.281 39.904V30.832H187.429C190.741 30.832 192.865 32.38 192.865 35.332V35.404C192.865 38.032 190.777 39.904 187.429 39.904H182.281ZM208.456 52.432C214.324 52.432 218.644 47.932 218.644 42.532V42.46C218.644 37.024 214.36 32.596 208.528 32.596C202.696 32.596 198.376 37.096 198.376 42.532V42.604C198.376 48.004 202.66 52.432 208.456 52.432ZM208.528 48.616C205.144 48.616 202.732 45.844 202.732 42.532V42.46C202.732 39.148 204.964 36.412 208.456 36.412C211.876 36.412 214.288 39.184 214.288 42.532V42.604C214.288 45.88 212.056 48.616 208.528 48.616ZM230.316 52.432C236.184 52.432 240.504 47.932 240.504 42.532V42.46C240.504 37.024 236.22 32.596 230.388 32.596C224.556 32.596 220.236 37.096 220.236 42.532V42.604C220.236 48.004 224.52 52.432 230.316 52.432ZM230.388 48.616C227.004 48.616 224.592 45.844 224.592 42.532V42.46C224.592 39.148 226.824 36.412 230.316 36.412C233.736 36.412 236.148 39.184 236.148 42.532V42.604C236.148 45.88 233.916 48.616 230.388 48.616ZM243.392 50.02C243.392 51.244 244.364 52.18 245.552 52.18C246.776 52.18 247.748 51.244 247.748 50.02V27.7C247.748 26.512 246.776 25.54 245.552 25.54C244.328 25.54 243.392 26.512 243.392 27.7V50.02ZM258.157 52.36C262.117 52.36 265.213 50.38 265.213 46.384V46.312C265.213 42.892 262.081 41.632 259.309 40.768C257.077 40.048 255.025 39.472 255.025 38.068V37.996C255.025 36.916 255.997 36.124 257.689 36.124C259.021 36.124 260.605 36.628 262.153 37.42C262.441 37.564 262.657 37.636 263.017 37.636C264.025 37.636 264.817 36.88 264.817 35.872C264.817 35.116 264.385 34.54 263.773 34.216C261.937 33.244 259.813 32.668 257.797 32.668C254.017 32.668 251.029 34.864 251.029 38.464V38.536C251.029 42.172 254.161 43.324 256.969 44.116C259.201 44.8 261.217 45.304 261.217 46.78V46.852C261.217 48.112 260.137 48.904 258.265 48.904C256.537 48.904 254.629 48.292 252.793 47.068C252.541 46.924 252.217 46.816 251.857 46.816C250.849 46.816 250.093 47.608 250.093 48.58C250.093 49.3 250.453 49.84 250.921 50.092C253.117 51.604 255.745 52.36 258.157 52.36Z" fill="black"/>
<path d="M20.24 44.984C20.24 46.208 21.212 47.18 22.472 47.18C23.696 47.18 24.668 46.208 24.668 44.984V36.74H35.54C36.656 36.74 37.556 35.84 37.556 34.724C37.556 33.608 36.656 32.708 35.54 32.708H24.668V25.832H37.16C38.276 25.832 39.176 24.932 39.176 23.816C39.176 22.7 38.276 21.8 37.16 21.8H22.472C21.212 21.8 20.24 22.772 20.24 24.032V44.984ZM44.3097 36.164C44.7057 33.212 46.5777 31.16 49.2417 31.16C52.1217 31.16 53.7777 33.356 54.0657 36.164H44.3097ZM56.5857 44.912C56.9097 44.588 57.1617 44.12 57.1617 43.58C57.1617 42.572 56.4057 41.816 55.4337 41.816C54.9297 41.816 54.6417 41.96 54.3177 42.212C53.0937 43.22 51.6537 43.868 49.8177 43.868C47.0097 43.868 44.8137 42.14 44.3457 39.044H56.2617C57.3777 39.044 58.3137 38.18 58.3137 36.956C58.3137 32.564 55.3257 27.596 49.2777 27.596C43.8417 27.596 39.9897 32.06 39.9897 37.496V37.568C39.9897 43.436 44.2377 47.432 49.7457 47.432C52.6977 47.432 54.8577 46.46 56.5857 44.912ZM66.4322 47.396C69.3482 47.396 71.3282 46.172 72.6242 44.624V45.344C72.6242 46.316 73.4882 47.18 74.7482 47.18C75.9362 47.18 76.8722 46.28 76.8722 45.092V35.732C76.8722 33.248 76.2242 31.232 74.8202 29.864C73.4882 28.496 71.3642 27.74 68.5202 27.74C66.0362 27.74 64.2002 28.172 62.4002 28.856C61.7522 29.108 61.2122 29.792 61.2122 30.584C61.2122 31.592 62.0402 32.384 63.0482 32.384C63.2642 32.384 63.4802 32.348 63.7322 32.276C64.9202 31.808 66.2882 31.52 67.9442 31.52C71.0042 31.52 72.6602 32.96 72.6602 35.66V36.128C71.1842 35.66 69.6722 35.336 67.5482 35.336C62.9042 35.336 59.7002 37.352 59.7002 41.456V41.528C59.7002 45.344 62.8682 47.396 66.4322 47.396ZM67.6562 44.228C65.5682 44.228 63.9482 43.184 63.9482 41.348V41.276C63.9482 39.296 65.6042 38.108 68.4122 38.108C70.1402 38.108 71.6162 38.432 72.7322 38.864V40.16C72.7322 42.572 70.5362 44.228 67.6562 44.228ZM86.4853 47.324C87.6373 47.324 88.5373 47.144 89.4733 46.82C90.0853 46.568 90.6253 45.92 90.6253 45.128C90.6253 44.12 89.7613 43.328 88.7893 43.328C88.6453 43.328 88.2133 43.436 87.7093 43.436C86.2333 43.436 85.3693 42.752 85.3693 41.06V31.736H88.7893C89.8333 31.736 90.6973 30.908 90.6973 29.864C90.6973 28.82 89.8333 27.992 88.7893 27.992H85.3693V24.752C85.3693 23.564 84.3973 22.592 83.2093 22.592C81.9853 22.592 81.0133 23.564 81.0133 24.752V27.992H80.2933C79.2493 27.992 78.4213 28.82 78.4213 29.864C78.4213 30.908 79.2493 31.736 80.2933 31.736H81.0133V41.744C81.0133 45.92 83.2813 47.324 86.4853 47.324ZM109.998 29.972C109.998 28.748 108.99 27.776 107.802 27.776C106.578 27.776 105.606 28.748 105.606 29.972V38.72C105.606 41.672 103.842 43.4 101.322 43.4C98.7301 43.4 97.2541 41.744 97.2541 38.792V29.972C97.2541 28.748 96.2821 27.776 95.0581 27.776C93.8701 27.776 92.8981 28.748 92.8981 29.972V40.088C92.8981 44.516 95.3821 47.396 99.6661 47.396C102.618 47.396 104.382 45.848 105.606 44.048V45.02C105.606 46.244 106.614 47.18 107.802 47.18C109.026 47.18 109.998 46.208 109.998 45.02V29.972ZM113.638 45.02C113.638 46.244 114.61 47.18 115.798 47.18C117.022 47.18 117.994 46.208 117.994 45.02V39.404C117.994 34.904 120.118 32.528 123.214 31.988C124.186 31.808 124.942 31.052 124.942 29.9C124.942 28.64 124.15 27.74 122.782 27.74C120.874 27.74 119.002 29.54 117.994 31.916V29.972C117.994 28.748 117.022 27.776 115.798 27.776C114.574 27.776 113.638 28.748 113.638 29.972V45.02ZM129.353 36.164C129.749 33.212 131.621 31.16 134.285 31.16C137.165 31.16 138.821 33.356 139.109 36.164H129.353ZM141.629 44.912C141.953 44.588 142.205 44.12 142.205 43.58C142.205 42.572 141.449 41.816 140.477 41.816C139.973 41.816 139.685 41.96 139.361 42.212C138.137 43.22 136.697 43.868 134.861 43.868C132.053 43.868 129.857 42.14 129.389 39.044H141.305C142.421 39.044 143.357 38.18 143.357 36.956C143.357 32.564 140.369 27.596 134.321 27.596C128.885 27.596 125.033 32.06 125.033 37.496V37.568C125.033 43.436 129.281 47.432 134.789 47.432C137.741 47.432 139.901 46.46 141.629 44.912ZM164.687 22.7C164.687 21.476 163.715 20.54 162.491 20.54C161.303 20.54 160.331 21.476 160.331 22.7V30.944C158.963 29.144 156.983 27.596 153.851 27.596C149.315 27.596 145.031 31.16 145.031 37.46V37.532C145.031 43.832 149.387 47.396 153.851 47.396C156.947 47.396 158.927 45.812 160.331 43.832V45.02C160.331 46.244 161.303 47.18 162.527 47.18C163.715 47.18 164.687 46.244 164.687 45.02V22.7ZM154.895 31.376C157.811 31.376 160.403 33.788 160.403 37.46V37.532C160.403 41.168 157.811 43.616 154.895 43.616C151.943 43.616 149.423 41.204 149.423 37.532V37.46C149.423 33.68 151.907 31.376 154.895 31.376Z" fill="#00E59D"/>
<path d="M177.853 44.984C177.853 46.208 178.825 47.18 180.085 47.18C181.309 47.18 182.281 46.208 182.281 44.984V38.9H187.285C192.829 38.9 197.365 35.948 197.365 30.296V30.224C197.365 25.148 193.693 21.8 187.789 21.8H180.085C178.825 21.8 177.853 22.772 177.853 24.032V44.984ZM182.281 34.904V25.832H187.429C190.741 25.832 192.865 27.38 192.865 30.332V30.404C192.865 33.032 190.777 34.904 187.429 34.904H182.281ZM208.456 47.432C214.324 47.432 218.644 42.932 218.644 37.532V37.46C218.644 32.024 214.36 27.596 208.528 27.596C202.696 27.596 198.376 32.096 198.376 37.532V37.604C198.376 43.004 202.66 47.432 208.456 47.432ZM208.528 43.616C205.144 43.616 202.732 40.844 202.732 37.532V37.46C202.732 34.148 204.964 31.412 208.456 31.412C211.876 31.412 214.288 34.184 214.288 37.532V37.604C214.288 40.88 212.056 43.616 208.528 43.616ZM230.316 47.432C236.184 47.432 240.504 42.932 240.504 37.532V37.46C240.504 32.024 236.22 27.596 230.388 27.596C224.556 27.596 220.236 32.096 220.236 37.532V37.604C220.236 43.004 224.52 47.432 230.316 47.432ZM230.388 43.616C227.004 43.616 224.592 40.844 224.592 37.532V37.46C224.592 34.148 226.824 31.412 230.316 31.412C233.736 31.412 236.148 34.184 236.148 37.532V37.604C236.148 40.88 233.916 43.616 230.388 43.616ZM243.392 45.02C243.392 46.244 244.364 47.18 245.552 47.18C246.776 47.18 247.748 46.244 247.748 45.02V22.7C247.748 21.512 246.776 20.54 245.552 20.54C244.328 20.54 243.392 21.512 243.392 22.7V45.02ZM258.157 47.36C262.117 47.36 265.213 45.38 265.213 41.384V41.312C265.213 37.892 262.081 36.632 259.309 35.768C257.077 35.048 255.025 34.472 255.025 33.068V32.996C255.025 31.916 255.997 31.124 257.689 31.124C259.021 31.124 260.605 31.628 262.153 32.42C262.441 32.564 262.657 32.636 263.017 32.636C264.025 32.636 264.817 31.88 264.817 30.872C264.817 30.116 264.385 29.54 263.773 29.216C261.937 28.244 259.813 27.668 257.797 27.668C254.017 27.668 251.029 29.864 251.029 33.464V33.536C251.029 37.172 254.161 38.324 256.969 39.116C259.201 39.8 261.217 40.304 261.217 41.78V41.852C261.217 43.112 260.137 43.904 258.265 43.904C256.537 43.904 254.629 43.292 252.793 42.068C252.541 41.924 252.217 41.816 251.857 41.816C250.849 41.816 250.093 42.608 250.093 43.58C250.093 44.3 250.453 44.84 250.921 45.092C253.117 46.604 255.745 47.36 258.157 47.36Z" fill="#FF0000"/>
<g filter="url(#filter0)">
<path d="M20.24 44.984C20.24 46.208 21.212 47.18 22.472 47.18C23.696 47.18 24.668 46.208 24.668 44.984V36.74H35.54C36.656 36.74 37.556 35.84 37.556 34.724C37.556 33.608 36.656 32.708 35.54 32.708H24.668V25.832H37.16C38.276 25.832 39.176 24.932 39.176 23.816C39.176 22.7 38.276 21.8 37.16 21.8H22.472C21.212 21.8 20.24 22.772 20.24 24.032V44.984ZM44.3097 36.164C44.7057 33.212 46.5777 31.16 49.2417 31.16C52.1217 31.16 53.7777 33.356 54.0657 36.164H44.3097ZM56.5857 44.912C56.9097 44.588 57.1617 44.12 57.1617 43.58C57.1617 42.572 56.4057 41.816 55.4337 41.816C54.9297 41.816 54.6417 41.96 54.3177 42.212C53.0937 43.22 51.6537 43.868 49.8177 43.868C47.0097 43.868 44.8137 42.14 44.3457 39.044H56.2617C57.3777 39.044 58.3137 38.18 58.3137 36.956C58.3137 32.564 55.3257 27.596 49.2777 27.596C43.8417 27.596 39.9897 32.06 39.9897 37.496V37.568C39.9897 43.436 44.2377 47.432 49.7457 47.432C52.6977 47.432 54.8577 46.46 56.5857 44.912ZM66.4322 47.396C69.3482 47.396 71.3282 46.172 72.6242 44.624V45.344C72.6242 46.316 73.4882 47.18 74.7482 47.18C75.9362 47.18 76.8722 46.28 76.8722 45.092V35.732C76.8722 33.248 76.2242 31.232 74.8202 29.864C73.4882 28.496 71.3642 27.74 68.5202 27.74C66.0362 27.74 64.2002 28.172 62.4002 28.856C61.7522 29.108 61.2122 29.792 61.2122 30.584C61.2122 31.592 62.0402 32.384 63.0482 32.384C63.2642 32.384 63.4802 32.348 63.7322 32.276C64.9202 31.808 66.2882 31.52 67.9442 31.52C71.0042 31.52 72.6602 32.96 72.6602 35.66V36.128C71.1842 35.66 69.6722 35.336 67.5482 35.336C62.9042 35.336 59.7002 37.352 59.7002 41.456V41.528C59.7002 45.344 62.8682 47.396 66.4322 47.396ZM67.6562 44.228C65.5682 44.228 63.9482 43.184 63.9482 41.348V41.276C63.9482 39.296 65.6042 38.108 68.4122 38.108C70.1402 38.108 71.6162 38.432 72.7322 38.864V40.16C72.7322 42.572 70.5362 44.228 67.6562 44.228ZM86.4853 47.324C87.6373 47.324 88.5373 47.144 89.4733 46.82C90.0853 46.568 90.6253 45.92 90.6253 45.128C90.6253 44.12 89.7613 43.328 88.7893 43.328C88.6453 43.328 88.2133 43.436 87.7093 43.436C86.2333 43.436 85.3693 42.752 85.3693 41.06V31.736H88.7893C89.8333 31.736 90.6973 30.908 90.6973 29.864C90.6973 28.82 89.8333 27.992 88.7893 27.992H85.3693V24.752C85.3693 23.564 84.3973 22.592 83.2093 22.592C81.9853 22.592 81.0133 23.564 81.0133 24.752V27.992H80.2933C79.2493 27.992 78.4213 28.82 78.4213 29.864C78.4213 30.908 79.2493 31.736 80.2933 31.736H81.0133V41.744C81.0133 45.92 83.2813 47.324 86.4853 47.324ZM109.998 29.972C109.998 28.748 108.99 27.776 107.802 27.776C106.578 27.776 105.606 28.748 105.606 29.972V38.72C105.606 41.672 103.842 43.4 101.322 43.4C98.7301 43.4 97.2541 41.744 97.2541 38.792V29.972C97.2541 28.748 96.2821 27.776 95.0581 27.776C93.8701 27.776 92.8981 28.748 92.8981 29.972V40.088C92.8981 44.516 95.3821 47.396 99.6661 47.396C102.618 47.396 104.382 45.848 105.606 44.048V45.02C105.606 46.244 106.614 47.18 107.802 47.18C109.026 47.18 109.998 46.208 109.998 45.02V29.972ZM113.638 45.02C113.638 46.244 114.61 47.18 115.798 47.18C117.022 47.18 117.994 46.208 117.994 45.02V39.404C117.994 34.904 120.118 32.528 123.214 31.988C124.186 31.808 124.942 31.052 124.942 29.9C124.942 28.64 124.15 27.74 122.782 27.74C120.874 27.74 119.002 29.54 117.994 31.916V29.972C117.994 28.748 117.022 27.776 115.798 27.776C114.574 27.776 113.638 28.748 113.638 29.972V45.02ZM129.353 36.164C129.749 33.212 131.621 31.16 134.285 31.16C137.165 31.16 138.821 33.356 139.109 36.164H129.353ZM141.629 44.912C141.953 44.588 142.205 44.12 142.205 43.58C142.205 42.572 141.449 41.816 140.477 41.816C139.973 41.816 139.685 41.96 139.361 42.212C138.137 43.22 136.697 43.868 134.861 43.868C132.053 43.868 129.857 42.14 129.389 39.044H141.305C142.421 39.044 143.357 38.18 143.357 36.956C143.357 32.564 140.369 27.596 134.321 27.596C128.885 27.596 125.033 32.06 125.033 37.496V37.568C125.033 43.436 129.281 47.432 134.789 47.432C137.741 47.432 139.901 46.46 141.629 44.912ZM164.687 22.7C164.687 21.476 163.715 20.54 162.491 20.54C161.303 20.54 160.331 21.476 160.331 22.7V30.944C158.963 29.144 156.983 27.596 153.851 27.596C149.315 27.596 145.031 31.16 145.031 37.46V37.532C145.031 43.832 149.387 47.396 153.851 47.396C156.947 47.396 158.927 45.812 160.331 43.832V45.02C160.331 46.244 161.303 47.18 162.527 47.18C163.715 47.18 164.687 46.244 164.687 45.02V22.7ZM154.895 31.376C157.811 31.376 160.403 33.788 160.403 37.46V37.532C160.403 41.168 157.811 43.616 154.895 43.616C151.943 43.616 149.423 41.204 149.423 37.532V37.46C149.423 33.68 151.907 31.376 154.895 31.376Z" fill="#00E59D"/>
<path d="M177.853 44.984C177.853 46.208 178.825 47.18 180.085 47.18C181.309 47.18 182.281 46.208 182.281 44.984V38.9H187.285C192.829 38.9 197.365 35.948 197.365 30.296V30.224C197.365 25.148 193.693 21.8 187.789 21.8H180.085C178.825 21.8 177.853 22.772 177.853 24.032V44.984ZM182.281 34.904V25.832H187.429C190.741 25.832 192.865 27.38 192.865 30.332V30.404C192.865 33.032 190.777 34.904 187.429 34.904H182.281ZM208.456 47.432C214.324 47.432 218.644 42.932 218.644 37.532V37.46C218.644 32.024 214.36 27.596 208.528 27.596C202.696 27.596 198.376 32.096 198.376 37.532V37.604C198.376 43.004 202.66 47.432 208.456 47.432ZM208.528 43.616C205.144 43.616 202.732 40.844 202.732 37.532V37.46C202.732 34.148 204.964 31.412 208.456 31.412C211.876 31.412 214.288 34.184 214.288 37.532V37.604C214.288 40.88 212.056 43.616 208.528 43.616ZM230.316 47.432C236.184 47.432 240.504 42.932 240.504 37.532V37.46C240.504 32.024 236.22 27.596 230.388 27.596C224.556 27.596 220.236 32.096 220.236 37.532V37.604C220.236 43.004 224.52 47.432 230.316 47.432ZM230.388 43.616C227.004 43.616 224.592 40.844 224.592 37.532V37.46C224.592 34.148 226.824 31.412 230.316 31.412C233.736 31.412 236.148 34.184 236.148 37.532V37.604C236.148 40.88 233.916 43.616 230.388 43.616ZM243.392 45.02C243.392 46.244 244.364 47.18 245.552 47.18C246.776 47.18 247.748 46.244 247.748 45.02V22.7C247.748 21.512 246.776 20.54 245.552 20.54C244.328 20.54 243.392 21.512 243.392 22.7V45.02ZM258.157 47.36C262.117 47.36 265.213 45.38 265.213 41.384V41.312C265.213 37.892 262.081 36.632 259.309 35.768C257.077 35.048 255.025 34.472 255.025 33.068V32.996C255.025 31.916 255.997 31.124 257.689 31.124C259.021 31.124 260.605 31.628 262.153 32.42C262.441 32.564 262.657 32.636 263.017 32.636C264.025 32.636 264.817 31.88 264.817 30.872C264.817 30.116 264.385 29.54 263.773 29.216C261.937 28.244 259.813 27.668 257.797 27.668C254.017 27.668 251.029 29.864 251.029 33.464V33.536C251.029 37.172 254.161 38.324 256.969 39.116C259.201 39.8 261.217 40.304 261.217 41.78V41.852C261.217 43.112 260.137 43.904 258.265 43.904C256.537 43.904 254.629 43.292 252.793 42.068C252.541 41.924 252.217 41.816 251.857 41.816C250.849 41.816 250.093 42.608 250.093 43.58C250.093 44.3 250.453 44.84 250.921 45.092C253.117 46.604 255.745 47.36 258.157 47.36Z" fill="#FF0000"/>
</g>
<defs>
<filter id="filter0" x="0.240234" y="0.540039" width="284.973" height="66.8916" filterUnits="userSpaceOnUse" color-interpolation-filters="sRGB">
<feFlood flood-opacity="0" result="BackgroundImageFix"/>
<feBlend mode="normal" in="SourceGraphic" in2="BackgroundImageFix" result="shape"/>
<feGaussianBlur stdDeviation="10" result="effect1_foregroundBlur_745_97"/>
</filter>
</defs>
</svg>
