<svg width="259" height="68" viewBox="0 0 259 68" fill="none" xmlns="http://www.w3.org/2000/svg">
<path d="M20.24 49.984C20.24 51.208 21.212 52.18 22.472 52.18C23.696 52.18 24.668 51.208 24.668 49.984V41.74H35.54C36.656 41.74 37.556 40.84 37.556 39.724C37.556 38.608 36.656 37.708 35.54 37.708H24.668V30.832H37.16C38.276 30.832 39.176 29.932 39.176 28.816C39.176 27.7 38.276 26.8 37.16 26.8H22.472C21.212 26.8 20.24 27.772 20.24 29.032V49.984ZM50.0697 52.432C55.9377 52.432 60.2577 47.932 60.2577 42.532V42.46C60.2577 37.024 55.9737 32.596 50.1417 32.596C44.3097 32.596 39.9897 37.096 39.9897 42.532V42.604C39.9897 48.004 44.2737 52.432 50.0697 52.432ZM50.1417 48.616C46.7577 48.616 44.3457 45.844 44.3457 42.532V42.46C44.3457 39.148 46.5777 36.412 50.0697 36.412C53.4897 36.412 55.9017 39.184 55.9017 42.532V42.604C55.9017 45.88 53.6697 48.616 50.1417 48.616ZM62.8938 50.02C62.8938 51.244 63.8658 52.18 65.0538 52.18C66.2778 52.18 67.2498 51.208 67.2498 50.02V44.404C67.2498 39.904 69.3738 37.528 72.4698 36.988C73.4418 36.808 74.1978 36.052 74.1978 34.9C74.1978 33.64 73.4058 32.74 72.0378 32.74C70.1298 32.74 68.2578 34.54 67.2498 36.916V34.972C67.2498 33.748 66.2778 32.776 65.0538 32.776C63.8298 32.776 62.8938 33.748 62.8938 34.972V50.02ZM85.4619 49.984C85.4619 51.208 86.4339 52.18 87.6939 52.18C88.9179 52.18 89.8899 51.208 89.8899 49.984V43.9H94.8939C100.438 43.9 104.974 40.948 104.974 35.296V35.224C104.974 30.148 101.302 26.8 95.3979 26.8H87.6939C86.4339 26.8 85.4619 27.772 85.4619 29.032V49.984ZM89.8899 39.904V30.832H95.0379C98.3499 30.832 100.474 32.38 100.474 35.332V35.404C100.474 38.032 98.3859 39.904 95.0379 39.904H89.8899ZM107.205 50.02C107.205 51.244 108.177 52.18 109.365 52.18C110.589 52.18 111.561 51.208 111.561 50.02V44.404C111.561 39.904 113.685 37.528 116.781 36.988C117.753 36.808 118.509 36.052 118.509 34.9C118.509 33.64 117.717 32.74 116.349 32.74C114.441 32.74 112.569 34.54 111.561 36.916V34.972C111.561 33.748 110.589 32.776 109.365 32.776C108.141 32.776 107.205 33.748 107.205 34.972V50.02ZM128.679 52.432C134.547 52.432 138.867 47.932 138.867 42.532V42.46C138.867 37.024 134.583 32.596 128.751 32.596C122.919 32.596 118.599 37.096 118.599 42.532V42.604C118.599 48.004 122.883 52.432 128.679 52.432ZM128.751 48.616C125.367 48.616 122.955 45.844 122.955 42.532V42.46C122.955 39.148 125.187 36.412 128.679 36.412C132.099 36.412 134.511 39.184 134.511 42.532V42.604C134.511 45.88 132.279 48.616 128.751 48.616ZM147.875 52.324C149.027 52.324 149.927 52.144 150.863 51.82C151.475 51.568 152.015 50.92 152.015 50.128C152.015 49.12 151.151 48.328 150.179 48.328C150.035 48.328 149.603 48.436 149.099 48.436C147.623 48.436 146.759 47.752 146.759 46.06V36.736H150.179C151.223 36.736 152.087 35.908 152.087 34.864C152.087 33.82 151.223 32.992 150.179 32.992H146.759V29.752C146.759 28.564 145.787 27.592 144.599 27.592C143.375 27.592 142.403 28.564 142.403 29.752V32.992H141.683C140.639 32.992 139.811 33.82 139.811 34.864C139.811 35.908 140.639 36.736 141.683 36.736H142.403V46.744C142.403 50.92 144.671 52.324 147.875 52.324ZM163.013 52.432C168.881 52.432 173.201 47.932 173.201 42.532V42.46C173.201 37.024 168.917 32.596 163.085 32.596C157.253 32.596 152.933 37.096 152.933 42.532V42.604C152.933 48.004 157.217 52.432 163.013 52.432ZM163.085 48.616C159.701 48.616 157.289 45.844 157.289 42.532V42.46C157.289 39.148 159.521 36.412 163.013 36.412C166.433 36.412 168.845 39.184 168.845 42.532V42.604C168.845 45.88 166.613 48.616 163.085 48.616ZM184.621 52.432C187.789 52.432 189.841 51.352 191.533 49.732C191.929 49.408 192.145 48.94 192.145 48.364C192.145 47.32 191.317 46.456 190.273 46.456C189.769 46.456 189.337 46.708 189.085 46.924C187.897 47.932 186.565 48.616 184.837 48.616C181.489 48.616 179.149 45.916 179.149 42.532V42.46C179.149 39.148 181.489 36.412 184.657 36.412C186.385 36.412 187.609 37.096 188.725 38.032C189.013 38.248 189.481 38.464 190.021 38.464C191.137 38.464 192.037 37.6 192.037 36.484C192.037 35.764 191.641 35.224 191.353 34.972C189.733 33.568 187.681 32.596 184.693 32.596C178.969 32.596 174.793 37.132 174.793 42.532V42.604C174.793 48.004 178.969 52.432 184.621 52.432ZM203.112 52.432C208.98 52.432 213.3 47.932 213.3 42.532V42.46C213.3 37.024 209.016 32.596 203.184 32.596C197.352 32.596 193.032 37.096 193.032 42.532V42.604C193.032 48.004 197.316 52.432 203.112 52.432ZM203.184 48.616C199.8 48.616 197.388 45.844 197.388 42.532V42.46C197.388 39.148 199.62 36.412 203.112 36.412C206.532 36.412 208.944 39.184 208.944 42.532V42.604C208.944 45.88 206.712 48.616 203.184 48.616ZM216.188 50.02C216.188 51.244 217.16 52.18 218.348 52.18C219.572 52.18 220.544 51.244 220.544 50.02V27.7C220.544 26.512 219.572 25.54 218.348 25.54C217.124 25.54 216.188 26.512 216.188 27.7V50.02ZM230.953 52.36C234.913 52.36 238.009 50.38 238.009 46.384V46.312C238.009 42.892 234.877 41.632 232.105 40.768C229.873 40.048 227.821 39.472 227.821 38.068V37.996C227.821 36.916 228.793 36.124 230.485 36.124C231.817 36.124 233.401 36.628 234.949 37.42C235.237 37.564 235.453 37.636 235.813 37.636C236.821 37.636 237.613 36.88 237.613 35.872C237.613 35.116 237.181 34.54 236.569 34.216C234.733 33.244 232.609 32.668 230.593 32.668C226.813 32.668 223.825 34.864 223.825 38.464V38.536C223.825 42.172 226.957 43.324 229.765 44.116C231.997 44.8 234.013 45.304 234.013 46.78V46.852C234.013 48.112 232.933 48.904 231.061 48.904C229.333 48.904 227.425 48.292 225.589 47.068C225.337 46.924 225.013 46.816 224.653 46.816C223.645 46.816 222.889 47.608 222.889 48.58C222.889 49.3 223.249 49.84 223.717 50.092C225.913 51.604 228.541 52.36 230.953 52.36Z" fill="black"/>
<path d="M20.24 44.984C20.24 46.208 21.212 47.18 22.472 47.18C23.696 47.18 24.668 46.208 24.668 44.984V36.74H35.54C36.656 36.74 37.556 35.84 37.556 34.724C37.556 33.608 36.656 32.708 35.54 32.708H24.668V25.832H37.16C38.276 25.832 39.176 24.932 39.176 23.816C39.176 22.7 38.276 21.8 37.16 21.8H22.472C21.212 21.8 20.24 22.772 20.24 24.032V44.984ZM50.0697 47.432C55.9377 47.432 60.2577 42.932 60.2577 37.532V37.46C60.2577 32.024 55.9737 27.596 50.1417 27.596C44.3097 27.596 39.9897 32.096 39.9897 37.532V37.604C39.9897 43.004 44.2737 47.432 50.0697 47.432ZM50.1417 43.616C46.7577 43.616 44.3457 40.844 44.3457 37.532V37.46C44.3457 34.148 46.5777 31.412 50.0697 31.412C53.4897 31.412 55.9017 34.184 55.9017 37.532V37.604C55.9017 40.88 53.6697 43.616 50.1417 43.616ZM62.8938 45.02C62.8938 46.244 63.8658 47.18 65.0538 47.18C66.2778 47.18 67.2498 46.208 67.2498 45.02V39.404C67.2498 34.904 69.3738 32.528 72.4698 31.988C73.4418 31.808 74.1978 31.052 74.1978 29.9C74.1978 28.64 73.4058 27.74 72.0378 27.74C70.1298 27.74 68.2578 29.54 67.2498 31.916V29.972C67.2498 28.748 66.2778 27.776 65.0538 27.776C63.8298 27.776 62.8938 28.748 62.8938 29.972V45.02Z" fill="#00E59D"/>
<path d="M85.4619 44.984C85.4619 46.208 86.4339 47.18 87.6939 47.18C88.9179 47.18 89.8899 46.208 89.8899 44.984V38.9H94.8939C100.438 38.9 104.974 35.948 104.974 30.296V30.224C104.974 25.148 101.302 21.8 95.3979 21.8H87.6939C86.4339 21.8 85.4619 22.772 85.4619 24.032V44.984ZM89.8899 34.904V25.832H95.0379C98.3499 25.832 100.474 27.38 100.474 30.332V30.404C100.474 33.032 98.3859 34.904 95.0379 34.904H89.8899ZM107.205 45.02C107.205 46.244 108.177 47.18 109.365 47.18C110.589 47.18 111.561 46.208 111.561 45.02V39.404C111.561 34.904 113.685 32.528 116.781 31.988C117.753 31.808 118.509 31.052 118.509 29.9C118.509 28.64 117.717 27.74 116.349 27.74C114.441 27.74 112.569 29.54 111.561 31.916V29.972C111.561 28.748 110.589 27.776 109.365 27.776C108.141 27.776 107.205 28.748 107.205 29.972V45.02ZM128.679 47.432C134.547 47.432 138.867 42.932 138.867 37.532V37.46C138.867 32.024 134.583 27.596 128.751 27.596C122.919 27.596 118.599 32.096 118.599 37.532V37.604C118.599 43.004 122.883 47.432 128.679 47.432ZM128.751 43.616C125.367 43.616 122.955 40.844 122.955 37.532V37.46C122.955 34.148 125.187 31.412 128.679 31.412C132.099 31.412 134.511 34.184 134.511 37.532V37.604C134.511 40.88 132.279 43.616 128.751 43.616ZM147.875 47.324C149.027 47.324 149.927 47.144 150.863 46.82C151.475 46.568 152.015 45.92 152.015 45.128C152.015 44.12 151.151 43.328 150.179 43.328C150.035 43.328 149.603 43.436 149.099 43.436C147.623 43.436 146.759 42.752 146.759 41.06V31.736H150.179C151.223 31.736 152.087 30.908 152.087 29.864C152.087 28.82 151.223 27.992 150.179 27.992H146.759V24.752C146.759 23.564 145.787 22.592 144.599 22.592C143.375 22.592 142.403 23.564 142.403 24.752V27.992H141.683C140.639 27.992 139.811 28.82 139.811 29.864C139.811 30.908 140.639 31.736 141.683 31.736H142.403V41.744C142.403 45.92 144.671 47.324 147.875 47.324ZM163.013 47.432C168.881 47.432 173.201 42.932 173.201 37.532V37.46C173.201 32.024 168.917 27.596 163.085 27.596C157.253 27.596 152.933 32.096 152.933 37.532V37.604C152.933 43.004 157.217 47.432 163.013 47.432ZM163.085 43.616C159.701 43.616 157.289 40.844 157.289 37.532V37.46C157.289 34.148 159.521 31.412 163.013 31.412C166.433 31.412 168.845 34.184 168.845 37.532V37.604C168.845 40.88 166.613 43.616 163.085 43.616ZM184.621 47.432C187.789 47.432 189.841 46.352 191.533 44.732C191.929 44.408 192.145 43.94 192.145 43.364C192.145 42.32 191.317 41.456 190.273 41.456C189.769 41.456 189.337 41.708 189.085 41.924C187.897 42.932 186.565 43.616 184.837 43.616C181.489 43.616 179.149 40.916 179.149 37.532V37.46C179.149 34.148 181.489 31.412 184.657 31.412C186.385 31.412 187.609 32.096 188.725 33.032C189.013 33.248 189.481 33.464 190.021 33.464C191.137 33.464 192.037 32.6 192.037 31.484C192.037 30.764 191.641 30.224 191.353 29.972C189.733 28.568 187.681 27.596 184.693 27.596C178.969 27.596 174.793 32.132 174.793 37.532V37.604C174.793 43.004 178.969 47.432 184.621 47.432ZM203.112 47.432C208.98 47.432 213.3 42.932 213.3 37.532V37.46C213.3 32.024 209.016 27.596 203.184 27.596C197.352 27.596 193.032 32.096 193.032 37.532V37.604C193.032 43.004 197.316 47.432 203.112 47.432ZM203.184 43.616C199.8 43.616 197.388 40.844 197.388 37.532V37.46C197.388 34.148 199.62 31.412 203.112 31.412C206.532 31.412 208.944 34.184 208.944 37.532V37.604C208.944 40.88 206.712 43.616 203.184 43.616ZM216.188 45.02C216.188 46.244 217.16 47.18 218.348 47.18C219.572 47.18 220.544 46.244 220.544 45.02V22.7C220.544 21.512 219.572 20.54 218.348 20.54C217.124 20.54 216.188 21.512 216.188 22.7V45.02ZM230.953 47.36C234.913 47.36 238.009 45.38 238.009 41.384V41.312C238.009 37.892 234.877 36.632 232.105 35.768C229.873 35.048 227.821 34.472 227.821 33.068V32.996C227.821 31.916 228.793 31.124 230.485 31.124C231.817 31.124 233.401 31.628 234.949 32.42C235.237 32.564 235.453 32.636 235.813 32.636C236.821 32.636 237.613 31.88 237.613 30.872C237.613 30.116 237.181 29.54 236.569 29.216C234.733 28.244 232.609 27.668 230.593 27.668C226.813 27.668 223.825 29.864 223.825 33.464V33.536C223.825 37.172 226.957 38.324 229.765 39.116C231.997 39.8 234.013 40.304 234.013 41.78V41.852C234.013 43.112 232.933 43.904 231.061 43.904C229.333 43.904 227.425 43.292 225.589 42.068C225.337 41.924 225.013 41.816 224.653 41.816C223.645 41.816 222.889 42.608 222.889 43.58C222.889 44.3 223.249 44.84 223.717 45.092C225.913 46.604 228.541 47.36 230.953 47.36Z" fill="#FF0000"/>
<g filter="url(#filter0)">
<path d="M20.24 44.984C20.24 46.208 21.212 47.18 22.472 47.18C23.696 47.18 24.668 46.208 24.668 44.984V36.74H35.54C36.656 36.74 37.556 35.84 37.556 34.724C37.556 33.608 36.656 32.708 35.54 32.708H24.668V25.832H37.16C38.276 25.832 39.176 24.932 39.176 23.816C39.176 22.7 38.276 21.8 37.16 21.8H22.472C21.212 21.8 20.24 22.772 20.24 24.032V44.984ZM50.0697 47.432C55.9377 47.432 60.2577 42.932 60.2577 37.532V37.46C60.2577 32.024 55.9737 27.596 50.1417 27.596C44.3097 27.596 39.9897 32.096 39.9897 37.532V37.604C39.9897 43.004 44.2737 47.432 50.0697 47.432ZM50.1417 43.616C46.7577 43.616 44.3457 40.844 44.3457 37.532V37.46C44.3457 34.148 46.5777 31.412 50.0697 31.412C53.4897 31.412 55.9017 34.184 55.9017 37.532V37.604C55.9017 40.88 53.6697 43.616 50.1417 43.616ZM62.8938 45.02C62.8938 46.244 63.8658 47.18 65.0538 47.18C66.2778 47.18 67.2498 46.208 67.2498 45.02V39.404C67.2498 34.904 69.3738 32.528 72.4698 31.988C73.4418 31.808 74.1978 31.052 74.1978 29.9C74.1978 28.64 73.4058 27.74 72.0378 27.74C70.1298 27.74 68.2578 29.54 67.2498 31.916V29.972C67.2498 28.748 66.2778 27.776 65.0538 27.776C63.8298 27.776 62.8938 28.748 62.8938 29.972V45.02Z" fill="#00E59D"/>
<path d="M85.4619 44.984C85.4619 46.208 86.4339 47.18 87.6939 47.18C88.9179 47.18 89.8899 46.208 89.8899 44.984V38.9H94.8939C100.438 38.9 104.974 35.948 104.974 30.296V30.224C104.974 25.148 101.302 21.8 95.3979 21.8H87.6939C86.4339 21.8 85.4619 22.772 85.4619 24.032V44.984ZM89.8899 34.904V25.832H95.0379C98.3499 25.832 100.474 27.38 100.474 30.332V30.404C100.474 33.032 98.3859 34.904 95.0379 34.904H89.8899ZM107.205 45.02C107.205 46.244 108.177 47.18 109.365 47.18C110.589 47.18 111.561 46.208 111.561 45.02V39.404C111.561 34.904 113.685 32.528 116.781 31.988C117.753 31.808 118.509 31.052 118.509 29.9C118.509 28.64 117.717 27.74 116.349 27.74C114.441 27.74 112.569 29.54 111.561 31.916V29.972C111.561 28.748 110.589 27.776 109.365 27.776C108.141 27.776 107.205 28.748 107.205 29.972V45.02ZM128.679 47.432C134.547 47.432 138.867 42.932 138.867 37.532V37.46C138.867 32.024 134.583 27.596 128.751 27.596C122.919 27.596 118.599 32.096 118.599 37.532V37.604C118.599 43.004 122.883 47.432 128.679 47.432ZM128.751 43.616C125.367 43.616 122.955 40.844 122.955 37.532V37.46C122.955 34.148 125.187 31.412 128.679 31.412C132.099 31.412 134.511 34.184 134.511 37.532V37.604C134.511 40.88 132.279 43.616 128.751 43.616ZM147.875 47.324C149.027 47.324 149.927 47.144 150.863 46.82C151.475 46.568 152.015 45.92 152.015 45.128C152.015 44.12 151.151 43.328 150.179 43.328C150.035 43.328 149.603 43.436 149.099 43.436C147.623 43.436 146.759 42.752 146.759 41.06V31.736H150.179C151.223 31.736 152.087 30.908 152.087 29.864C152.087 28.82 151.223 27.992 150.179 27.992H146.759V24.752C146.759 23.564 145.787 22.592 144.599 22.592C143.375 22.592 142.403 23.564 142.403 24.752V27.992H141.683C140.639 27.992 139.811 28.82 139.811 29.864C139.811 30.908 140.639 31.736 141.683 31.736H142.403V41.744C142.403 45.92 144.671 47.324 147.875 47.324ZM163.013 47.432C168.881 47.432 173.201 42.932 173.201 37.532V37.46C173.201 32.024 168.917 27.596 163.085 27.596C157.253 27.596 152.933 32.096 152.933 37.532V37.604C152.933 43.004 157.217 47.432 163.013 47.432ZM163.085 43.616C159.701 43.616 157.289 40.844 157.289 37.532V37.46C157.289 34.148 159.521 31.412 163.013 31.412C166.433 31.412 168.845 34.184 168.845 37.532V37.604C168.845 40.88 166.613 43.616 163.085 43.616ZM184.621 47.432C187.789 47.432 189.841 46.352 191.533 44.732C191.929 44.408 192.145 43.94 192.145 43.364C192.145 42.32 191.317 41.456 190.273 41.456C189.769 41.456 189.337 41.708 189.085 41.924C187.897 42.932 186.565 43.616 184.837 43.616C181.489 43.616 179.149 40.916 179.149 37.532V37.46C179.149 34.148 181.489 31.412 184.657 31.412C186.385 31.412 187.609 32.096 188.725 33.032C189.013 33.248 189.481 33.464 190.021 33.464C191.137 33.464 192.037 32.6 192.037 31.484C192.037 30.764 191.641 30.224 191.353 29.972C189.733 28.568 187.681 27.596 184.693 27.596C178.969 27.596 174.793 32.132 174.793 37.532V37.604C174.793 43.004 178.969 47.432 184.621 47.432ZM203.112 47.432C208.98 47.432 213.3 42.932 213.3 37.532V37.46C213.3 32.024 209.016 27.596 203.184 27.596C197.352 27.596 193.032 32.096 193.032 37.532V37.604C193.032 43.004 197.316 47.432 203.112 47.432ZM203.184 43.616C199.8 43.616 197.388 40.844 197.388 37.532V37.46C197.388 34.148 199.62 31.412 203.112 31.412C206.532 31.412 208.944 34.184 208.944 37.532V37.604C208.944 40.88 206.712 43.616 203.184 43.616ZM216.188 45.02C216.188 46.244 217.16 47.18 218.348 47.18C219.572 47.18 220.544 46.244 220.544 45.02V22.7C220.544 21.512 219.572 20.54 218.348 20.54C217.124 20.54 216.188 21.512 216.188 22.7V45.02ZM230.953 47.36C234.913 47.36 238.009 45.38 238.009 41.384V41.312C238.009 37.892 234.877 36.632 232.105 35.768C229.873 35.048 227.821 34.472 227.821 33.068V32.996C227.821 31.916 228.793 31.124 230.485 31.124C231.817 31.124 233.401 31.628 234.949 32.42C235.237 32.564 235.453 32.636 235.813 32.636C236.821 32.636 237.613 31.88 237.613 30.872C237.613 30.116 237.181 29.54 236.569 29.216C234.733 28.244 232.609 27.668 230.593 27.668C226.813 27.668 223.825 29.864 223.825 33.464V33.536C223.825 37.172 226.957 38.324 229.765 39.116C231.997 39.8 234.013 40.304 234.013 41.78V41.852C234.013 43.112 232.933 43.904 231.061 43.904C229.333 43.904 227.425 43.292 225.589 42.068C225.337 41.924 225.013 41.816 224.653 41.816C223.645 41.816 222.889 42.608 222.889 43.58C222.889 44.3 223.249 44.84 223.717 45.092C225.913 46.604 228.541 47.36 230.953 47.36Z" fill="#FF0000"/>
</g>
<defs>
<filter id="filter0" x="0.240234" y="0.540039" width="257.769" height="66.8916" filterUnits="userSpaceOnUse" color-interpolation-filters="sRGB">
<feFlood flood-opacity="0" result="BackgroundImageFix"/>
<feBlend mode="normal" in="SourceGraphic" in2="BackgroundImageFix" result="shape"/>
<feGaussianBlur stdDeviation="10" result="effect1_foregroundBlur_921_113"/>
</filter>
</defs>
</svg>
