<svg width="225" height="68" viewBox="0 0 225 68" fill="none" xmlns="http://www.w3.org/2000/svg">
<path d="M20.24 49.984C20.24 51.208 21.212 52.18 22.472 52.18C23.696 52.18 24.668 51.208 24.668 49.984V41.74H35.54C36.656 41.74 37.556 40.84 37.556 39.724C37.556 38.608 36.656 37.708 35.54 37.708H24.668V30.832H37.16C38.276 30.832 39.176 29.932 39.176 28.816C39.176 27.7 38.276 26.8 37.16 26.8H22.472C21.212 26.8 20.24 27.772 20.24 29.032V49.984ZM50.0697 52.432C55.9377 52.432 60.2577 47.932 60.2577 42.532V42.46C60.2577 37.024 55.9737 32.596 50.1417 32.596C44.3097 32.596 39.9897 37.096 39.9897 42.532V42.604C39.9897 48.004 44.2737 52.432 50.0697 52.432ZM50.1417 48.616C46.7577 48.616 44.3457 45.844 44.3457 42.532V42.46C44.3457 39.148 46.5777 36.412 50.0697 36.412C53.4897 36.412 55.9017 39.184 55.9017 42.532V42.604C55.9017 45.88 53.6697 48.616 50.1417 48.616ZM62.8938 50.02C62.8938 51.244 63.8658 52.18 65.0538 52.18C66.2778 52.18 67.2498 51.208 67.2498 50.02V44.404C67.2498 39.904 69.3738 37.528 72.4698 36.988C73.4418 36.808 74.1978 36.052 74.1978 34.9C74.1978 33.64 73.4058 32.74 72.0378 32.74C70.1298 32.74 68.2578 34.54 67.2498 36.916V34.972C67.2498 33.748 66.2778 32.776 65.0538 32.776C63.8298 32.776 62.8938 33.748 62.8938 34.972V50.02ZM91.6539 49.984C91.6539 51.208 92.6619 52.18 93.8859 52.18C95.1099 52.18 96.1179 51.208 96.1179 49.984V30.904H102.274C103.39 30.904 104.29 29.968 104.29 28.852C104.29 27.736 103.39 26.8 102.274 26.8H85.5339C84.3819 26.8 83.4819 27.736 83.4819 28.852C83.4819 29.968 84.3819 30.904 85.5339 30.904H91.6539V49.984ZM103.9 50.02C103.9 51.244 104.872 52.18 106.06 52.18C107.284 52.18 108.256 51.208 108.256 50.02V44.404C108.256 39.904 110.38 37.528 113.476 36.988C114.448 36.808 115.204 36.052 115.204 34.9C115.204 33.64 114.412 32.74 113.044 32.74C111.136 32.74 109.264 34.54 108.256 36.916V34.972C108.256 33.748 107.284 32.776 106.06 32.776C104.836 32.776 103.9 33.748 103.9 34.972V50.02ZM121.529 52.396C124.445 52.396 126.425 51.172 127.721 49.624V50.344C127.721 51.316 128.585 52.18 129.845 52.18C131.033 52.18 131.969 51.28 131.969 50.092V40.732C131.969 38.248 131.321 36.232 129.917 34.864C128.585 33.496 126.461 32.74 123.617 32.74C121.133 32.74 119.297 33.172 117.497 33.856C116.849 34.108 116.309 34.792 116.309 35.584C116.309 36.592 117.137 37.384 118.145 37.384C118.361 37.384 118.577 37.348 118.829 37.276C120.017 36.808 121.385 36.52 123.041 36.52C126.101 36.52 127.757 37.96 127.757 40.66V41.128C126.281 40.66 124.769 40.336 122.645 40.336C118.001 40.336 114.797 42.352 114.797 46.456V46.528C114.797 50.344 117.965 52.396 121.529 52.396ZM122.753 49.228C120.665 49.228 119.045 48.184 119.045 46.348V46.276C119.045 44.296 120.701 43.108 123.509 43.108C125.237 43.108 126.713 43.432 127.829 43.864V45.16C127.829 47.572 125.633 49.228 122.753 49.228ZM154.07 27.7C154.07 26.476 153.098 25.54 151.874 25.54C150.686 25.54 149.714 26.476 149.714 27.7V35.944C148.346 34.144 146.366 32.596 143.234 32.596C138.698 32.596 134.414 36.16 134.414 42.46V42.532C134.414 48.832 138.77 52.396 143.234 52.396C146.33 52.396 148.31 50.812 149.714 48.832V50.02C149.714 51.244 150.686 52.18 151.91 52.18C153.098 52.18 154.07 51.244 154.07 50.02V27.7ZM144.278 36.376C147.194 36.376 149.786 38.788 149.786 42.46V42.532C149.786 46.168 147.194 48.616 144.278 48.616C141.326 48.616 138.806 46.204 138.806 42.532V42.46C138.806 38.68 141.29 36.376 144.278 36.376ZM161.014 41.164C161.41 38.212 163.282 36.16 165.946 36.16C168.826 36.16 170.482 38.356 170.77 41.164H161.014ZM173.29 49.912C173.614 49.588 173.866 49.12 173.866 48.58C173.866 47.572 173.11 46.816 172.138 46.816C171.634 46.816 171.346 46.96 171.022 47.212C169.798 48.22 168.358 48.868 166.522 48.868C163.714 48.868 161.518 47.14 161.05 44.044H172.966C174.082 44.044 175.018 43.18 175.018 41.956C175.018 37.564 172.03 32.596 165.982 32.596C160.546 32.596 156.694 37.06 156.694 42.496V42.568C156.694 48.436 160.942 52.432 166.45 52.432C169.402 52.432 171.562 51.46 173.29 49.912ZM177.665 50.02C177.665 51.244 178.637 52.18 179.825 52.18C181.049 52.18 182.021 51.208 182.021 50.02V44.404C182.021 39.904 184.145 37.528 187.241 36.988C188.213 36.808 188.969 36.052 188.969 34.9C188.969 33.64 188.177 32.74 186.809 32.74C184.901 32.74 183.029 34.54 182.021 36.916V34.972C182.021 33.748 181.049 32.776 179.825 32.776C178.601 32.776 177.665 33.748 177.665 34.972V50.02ZM197.252 52.36C201.212 52.36 204.308 50.38 204.308 46.384V46.312C204.308 42.892 201.176 41.632 198.404 40.768C196.172 40.048 194.12 39.472 194.12 38.068V37.996C194.12 36.916 195.092 36.124 196.784 36.124C198.116 36.124 199.7 36.628 201.248 37.42C201.536 37.564 201.752 37.636 202.112 37.636C203.12 37.636 203.912 36.88 203.912 35.872C203.912 35.116 203.48 34.54 202.868 34.216C201.032 33.244 198.908 32.668 196.892 32.668C193.112 32.668 190.124 34.864 190.124 38.464V38.536C190.124 42.172 193.256 43.324 196.064 44.116C198.296 44.8 200.312 45.304 200.312 46.78V46.852C200.312 48.112 199.232 48.904 197.36 48.904C195.632 48.904 193.724 48.292 191.888 47.068C191.636 46.924 191.312 46.816 190.952 46.816C189.944 46.816 189.188 47.608 189.188 48.58C189.188 49.3 189.548 49.84 190.016 50.092C192.212 51.604 194.84 52.36 197.252 52.36Z" fill="black"/>
<path d="M20.24 44.984C20.24 46.208 21.212 47.18 22.472 47.18C23.696 47.18 24.668 46.208 24.668 44.984V36.74H35.54C36.656 36.74 37.556 35.84 37.556 34.724C37.556 33.608 36.656 32.708 35.54 32.708H24.668V25.832H37.16C38.276 25.832 39.176 24.932 39.176 23.816C39.176 22.7 38.276 21.8 37.16 21.8H22.472C21.212 21.8 20.24 22.772 20.24 24.032V44.984ZM50.0697 47.432C55.9377 47.432 60.2577 42.932 60.2577 37.532V37.46C60.2577 32.024 55.9737 27.596 50.1417 27.596C44.3097 27.596 39.9897 32.096 39.9897 37.532V37.604C39.9897 43.004 44.2737 47.432 50.0697 47.432ZM50.1417 43.616C46.7577 43.616 44.3457 40.844 44.3457 37.532V37.46C44.3457 34.148 46.5777 31.412 50.0697 31.412C53.4897 31.412 55.9017 34.184 55.9017 37.532V37.604C55.9017 40.88 53.6697 43.616 50.1417 43.616ZM62.8938 45.02C62.8938 46.244 63.8658 47.18 65.0538 47.18C66.2778 47.18 67.2498 46.208 67.2498 45.02V39.404C67.2498 34.904 69.3738 32.528 72.4698 31.988C73.4418 31.808 74.1978 31.052 74.1978 29.9C74.1978 28.64 73.4058 27.74 72.0378 27.74C70.1298 27.74 68.2578 29.54 67.2498 31.916V29.972C67.2498 28.748 66.2778 27.776 65.0538 27.776C63.8298 27.776 62.8938 28.748 62.8938 29.972V45.02Z" fill="#00E59D"/>
<path d="M91.6539 44.984C91.6539 46.208 92.6619 47.18 93.8859 47.18C95.1099 47.18 96.1179 46.208 96.1179 44.984V25.904H102.274C103.39 25.904 104.29 24.968 104.29 23.852C104.29 22.736 103.39 21.8 102.274 21.8H85.5339C84.3819 21.8 83.4819 22.736 83.4819 23.852C83.4819 24.968 84.3819 25.904 85.5339 25.904H91.6539V44.984ZM103.9 45.02C103.9 46.244 104.872 47.18 106.06 47.18C107.284 47.18 108.256 46.208 108.256 45.02V39.404C108.256 34.904 110.38 32.528 113.476 31.988C114.448 31.808 115.204 31.052 115.204 29.9C115.204 28.64 114.412 27.74 113.044 27.74C111.136 27.74 109.264 29.54 108.256 31.916V29.972C108.256 28.748 107.284 27.776 106.06 27.776C104.836 27.776 103.9 28.748 103.9 29.972V45.02ZM121.529 47.396C124.445 47.396 126.425 46.172 127.721 44.624V45.344C127.721 46.316 128.585 47.18 129.845 47.18C131.033 47.18 131.969 46.28 131.969 45.092V35.732C131.969 33.248 131.321 31.232 129.917 29.864C128.585 28.496 126.461 27.74 123.617 27.74C121.133 27.74 119.297 28.172 117.497 28.856C116.849 29.108 116.309 29.792 116.309 30.584C116.309 31.592 117.137 32.384 118.145 32.384C118.361 32.384 118.577 32.348 118.829 32.276C120.017 31.808 121.385 31.52 123.041 31.52C126.101 31.52 127.757 32.96 127.757 35.66V36.128C126.281 35.66 124.769 35.336 122.645 35.336C118.001 35.336 114.797 37.352 114.797 41.456V41.528C114.797 45.344 117.965 47.396 121.529 47.396ZM122.753 44.228C120.665 44.228 119.045 43.184 119.045 41.348V41.276C119.045 39.296 120.701 38.108 123.509 38.108C125.237 38.108 126.713 38.432 127.829 38.864V40.16C127.829 42.572 125.633 44.228 122.753 44.228ZM154.07 22.7C154.07 21.476 153.098 20.54 151.874 20.54C150.686 20.54 149.714 21.476 149.714 22.7V30.944C148.346 29.144 146.366 27.596 143.234 27.596C138.698 27.596 134.414 31.16 134.414 37.46V37.532C134.414 43.832 138.77 47.396 143.234 47.396C146.33 47.396 148.31 45.812 149.714 43.832V45.02C149.714 46.244 150.686 47.18 151.91 47.18C153.098 47.18 154.07 46.244 154.07 45.02V22.7ZM144.278 31.376C147.194 31.376 149.786 33.788 149.786 37.46V37.532C149.786 41.168 147.194 43.616 144.278 43.616C141.326 43.616 138.806 41.204 138.806 37.532V37.46C138.806 33.68 141.29 31.376 144.278 31.376ZM161.014 36.164C161.41 33.212 163.282 31.16 165.946 31.16C168.826 31.16 170.482 33.356 170.77 36.164H161.014ZM173.29 44.912C173.614 44.588 173.866 44.12 173.866 43.58C173.866 42.572 173.11 41.816 172.138 41.816C171.634 41.816 171.346 41.96 171.022 42.212C169.798 43.22 168.358 43.868 166.522 43.868C163.714 43.868 161.518 42.14 161.05 39.044H172.966C174.082 39.044 175.018 38.18 175.018 36.956C175.018 32.564 172.03 27.596 165.982 27.596C160.546 27.596 156.694 32.06 156.694 37.496V37.568C156.694 43.436 160.942 47.432 166.45 47.432C169.402 47.432 171.562 46.46 173.29 44.912ZM177.665 45.02C177.665 46.244 178.637 47.18 179.825 47.18C181.049 47.18 182.021 46.208 182.021 45.02V39.404C182.021 34.904 184.145 32.528 187.241 31.988C188.213 31.808 188.969 31.052 188.969 29.9C188.969 28.64 188.177 27.74 186.809 27.74C184.901 27.74 183.029 29.54 182.021 31.916V29.972C182.021 28.748 181.049 27.776 179.825 27.776C178.601 27.776 177.665 28.748 177.665 29.972V45.02ZM197.252 47.36C201.212 47.36 204.308 45.38 204.308 41.384V41.312C204.308 37.892 201.176 36.632 198.404 35.768C196.172 35.048 194.12 34.472 194.12 33.068V32.996C194.12 31.916 195.092 31.124 196.784 31.124C198.116 31.124 199.7 31.628 201.248 32.42C201.536 32.564 201.752 32.636 202.112 32.636C203.12 32.636 203.912 31.88 203.912 30.872C203.912 30.116 203.48 29.54 202.868 29.216C201.032 28.244 198.908 27.668 196.892 27.668C193.112 27.668 190.124 29.864 190.124 33.464V33.536C190.124 37.172 193.256 38.324 196.064 39.116C198.296 39.8 200.312 40.304 200.312 41.78V41.852C200.312 43.112 199.232 43.904 197.36 43.904C195.632 43.904 193.724 43.292 191.888 42.068C191.636 41.924 191.312 41.816 190.952 41.816C189.944 41.816 189.188 42.608 189.188 43.58C189.188 44.3 189.548 44.84 190.016 45.092C192.212 46.604 194.84 47.36 197.252 47.36Z" fill="#FF0000"/>
<g filter="url(#filter0)">
<path d="M20.24 44.984C20.24 46.208 21.212 47.18 22.472 47.18C23.696 47.18 24.668 46.208 24.668 44.984V36.74H35.54C36.656 36.74 37.556 35.84 37.556 34.724C37.556 33.608 36.656 32.708 35.54 32.708H24.668V25.832H37.16C38.276 25.832 39.176 24.932 39.176 23.816C39.176 22.7 38.276 21.8 37.16 21.8H22.472C21.212 21.8 20.24 22.772 20.24 24.032V44.984ZM50.0697 47.432C55.9377 47.432 60.2577 42.932 60.2577 37.532V37.46C60.2577 32.024 55.9737 27.596 50.1417 27.596C44.3097 27.596 39.9897 32.096 39.9897 37.532V37.604C39.9897 43.004 44.2737 47.432 50.0697 47.432ZM50.1417 43.616C46.7577 43.616 44.3457 40.844 44.3457 37.532V37.46C44.3457 34.148 46.5777 31.412 50.0697 31.412C53.4897 31.412 55.9017 34.184 55.9017 37.532V37.604C55.9017 40.88 53.6697 43.616 50.1417 43.616ZM62.8938 45.02C62.8938 46.244 63.8658 47.18 65.0538 47.18C66.2778 47.18 67.2498 46.208 67.2498 45.02V39.404C67.2498 34.904 69.3738 32.528 72.4698 31.988C73.4418 31.808 74.1978 31.052 74.1978 29.9C74.1978 28.64 73.4058 27.74 72.0378 27.74C70.1298 27.74 68.2578 29.54 67.2498 31.916V29.972C67.2498 28.748 66.2778 27.776 65.0538 27.776C63.8298 27.776 62.8938 28.748 62.8938 29.972V45.02Z" fill="#00E59D"/>
<path d="M91.6539 44.984C91.6539 46.208 92.6619 47.18 93.8859 47.18C95.1099 47.18 96.1179 46.208 96.1179 44.984V25.904H102.274C103.39 25.904 104.29 24.968 104.29 23.852C104.29 22.736 103.39 21.8 102.274 21.8H85.5339C84.3819 21.8 83.4819 22.736 83.4819 23.852C83.4819 24.968 84.3819 25.904 85.5339 25.904H91.6539V44.984ZM103.9 45.02C103.9 46.244 104.872 47.18 106.06 47.18C107.284 47.18 108.256 46.208 108.256 45.02V39.404C108.256 34.904 110.38 32.528 113.476 31.988C114.448 31.808 115.204 31.052 115.204 29.9C115.204 28.64 114.412 27.74 113.044 27.74C111.136 27.74 109.264 29.54 108.256 31.916V29.972C108.256 28.748 107.284 27.776 106.06 27.776C104.836 27.776 103.9 28.748 103.9 29.972V45.02ZM121.529 47.396C124.445 47.396 126.425 46.172 127.721 44.624V45.344C127.721 46.316 128.585 47.18 129.845 47.18C131.033 47.18 131.969 46.28 131.969 45.092V35.732C131.969 33.248 131.321 31.232 129.917 29.864C128.585 28.496 126.461 27.74 123.617 27.74C121.133 27.74 119.297 28.172 117.497 28.856C116.849 29.108 116.309 29.792 116.309 30.584C116.309 31.592 117.137 32.384 118.145 32.384C118.361 32.384 118.577 32.348 118.829 32.276C120.017 31.808 121.385 31.52 123.041 31.52C126.101 31.52 127.757 32.96 127.757 35.66V36.128C126.281 35.66 124.769 35.336 122.645 35.336C118.001 35.336 114.797 37.352 114.797 41.456V41.528C114.797 45.344 117.965 47.396 121.529 47.396ZM122.753 44.228C120.665 44.228 119.045 43.184 119.045 41.348V41.276C119.045 39.296 120.701 38.108 123.509 38.108C125.237 38.108 126.713 38.432 127.829 38.864V40.16C127.829 42.572 125.633 44.228 122.753 44.228ZM154.07 22.7C154.07 21.476 153.098 20.54 151.874 20.54C150.686 20.54 149.714 21.476 149.714 22.7V30.944C148.346 29.144 146.366 27.596 143.234 27.596C138.698 27.596 134.414 31.16 134.414 37.46V37.532C134.414 43.832 138.77 47.396 143.234 47.396C146.33 47.396 148.31 45.812 149.714 43.832V45.02C149.714 46.244 150.686 47.18 151.91 47.18C153.098 47.18 154.07 46.244 154.07 45.02V22.7ZM144.278 31.376C147.194 31.376 149.786 33.788 149.786 37.46V37.532C149.786 41.168 147.194 43.616 144.278 43.616C141.326 43.616 138.806 41.204 138.806 37.532V37.46C138.806 33.68 141.29 31.376 144.278 31.376ZM161.014 36.164C161.41 33.212 163.282 31.16 165.946 31.16C168.826 31.16 170.482 33.356 170.77 36.164H161.014ZM173.29 44.912C173.614 44.588 173.866 44.12 173.866 43.58C173.866 42.572 173.11 41.816 172.138 41.816C171.634 41.816 171.346 41.96 171.022 42.212C169.798 43.22 168.358 43.868 166.522 43.868C163.714 43.868 161.518 42.14 161.05 39.044H172.966C174.082 39.044 175.018 38.18 175.018 36.956C175.018 32.564 172.03 27.596 165.982 27.596C160.546 27.596 156.694 32.06 156.694 37.496V37.568C156.694 43.436 160.942 47.432 166.45 47.432C169.402 47.432 171.562 46.46 173.29 44.912ZM177.665 45.02C177.665 46.244 178.637 47.18 179.825 47.18C181.049 47.18 182.021 46.208 182.021 45.02V39.404C182.021 34.904 184.145 32.528 187.241 31.988C188.213 31.808 188.969 31.052 188.969 29.9C188.969 28.64 188.177 27.74 186.809 27.74C184.901 27.74 183.029 29.54 182.021 31.916V29.972C182.021 28.748 181.049 27.776 179.825 27.776C178.601 27.776 177.665 28.748 177.665 29.972V45.02ZM197.252 47.36C201.212 47.36 204.308 45.38 204.308 41.384V41.312C204.308 37.892 201.176 36.632 198.404 35.768C196.172 35.048 194.12 34.472 194.12 33.068V32.996C194.12 31.916 195.092 31.124 196.784 31.124C198.116 31.124 199.7 31.628 201.248 32.42C201.536 32.564 201.752 32.636 202.112 32.636C203.12 32.636 203.912 31.88 203.912 30.872C203.912 30.116 203.48 29.54 202.868 29.216C201.032 28.244 198.908 27.668 196.892 27.668C193.112 27.668 190.124 29.864 190.124 33.464V33.536C190.124 37.172 193.256 38.324 196.064 39.116C198.296 39.8 200.312 40.304 200.312 41.78V41.852C200.312 43.112 199.232 43.904 197.36 43.904C195.632 43.904 193.724 43.292 191.888 42.068C191.636 41.924 191.312 41.816 190.952 41.816C189.944 41.816 189.188 42.608 189.188 43.58C189.188 44.3 189.548 44.84 190.016 45.092C192.212 46.604 194.84 47.36 197.252 47.36Z" fill="#FF0000"/>
</g>
<defs>
<filter id="filter0" x="0.240234" y="0.540039" width="224.067" height="66.8916" filterUnits="userSpaceOnUse" color-interpolation-filters="sRGB">
<feFlood flood-opacity="0" result="BackgroundImageFix"/>
<feBlend mode="normal" in="SourceGraphic" in2="BackgroundImageFix" result="shape"/>
<feGaussianBlur stdDeviation="10" result="effect1_foregroundBlur_921_109"/>
</filter>
</defs>
</svg>
