<svg width="250" height="67" viewBox="0 0 250 67" fill="none" xmlns="http://www.w3.org/2000/svg">
<path d="M20.24 48.984C20.24 50.208 21.212 51.18 22.472 51.18C23.696 51.18 24.668 50.208 24.668 48.984V40.74H35.54C36.656 40.74 37.556 39.84 37.556 38.724C37.556 37.608 36.656 36.708 35.54 36.708H24.668V29.832H37.16C38.276 29.832 39.176 28.932 39.176 27.816C39.176 26.7 38.276 25.8 37.16 25.8H22.472C21.212 25.8 20.24 26.772 20.24 28.032V48.984ZM50.0697 51.432C55.9377 51.432 60.2577 46.932 60.2577 41.532V41.46C60.2577 36.024 55.9737 31.596 50.1417 31.596C44.3097 31.596 39.9897 36.096 39.9897 41.532V41.604C39.9897 47.004 44.2737 51.432 50.0697 51.432ZM50.1417 47.616C46.7577 47.616 44.3457 44.844 44.3457 41.532V41.46C44.3457 38.148 46.5777 35.412 50.0697 35.412C53.4897 35.412 55.9017 38.184 55.9017 41.532V41.604C55.9017 44.88 53.6697 47.616 50.1417 47.616ZM62.8938 49.02C62.8938 50.244 63.8658 51.18 65.0538 51.18C66.2778 51.18 67.2498 50.208 67.2498 49.02V43.404C67.2498 38.904 69.3738 36.528 72.4698 35.988C73.4418 35.808 74.1978 35.052 74.1978 33.9C74.1978 32.64 73.4058 31.74 72.0378 31.74C70.1298 31.74 68.2578 33.54 67.2498 35.916V33.972C67.2498 32.748 66.2778 31.776 65.0538 31.776C63.8298 31.776 62.8938 32.748 62.8938 33.972V49.02ZM85.7139 48.984C85.7139 50.208 86.6859 51.18 87.9459 51.18C89.1699 51.18 90.1419 50.208 90.1419 48.984V27.816C90.1419 26.592 89.1699 25.62 87.9459 25.62C86.6859 25.62 85.7139 26.592 85.7139 27.816V48.984ZM94.5837 49.02C94.5837 50.244 95.5557 51.18 96.7437 51.18C97.9677 51.18 98.9397 50.244 98.9397 49.02V40.272C98.9397 37.32 100.704 35.556 103.224 35.556C105.816 35.556 107.292 37.248 107.292 40.2V49.02C107.292 50.244 108.264 51.18 109.488 51.18C110.712 51.18 111.648 50.244 111.648 49.02V38.868C111.648 34.476 109.164 31.596 104.88 31.596C101.928 31.596 100.164 33.144 98.9397 34.908V33.972C98.9397 32.748 97.9677 31.776 96.7437 31.776C95.5197 31.776 94.5837 32.748 94.5837 33.972V49.02ZM125.055 49.452L131.391 34.908C131.499 34.692 131.643 34.26 131.643 33.864C131.643 32.676 130.707 31.776 129.519 31.776C128.367 31.776 127.791 32.532 127.467 33.288L122.499 45.96L117.603 33.36C117.243 32.46 116.631 31.776 115.443 31.776C114.255 31.776 113.283 32.784 113.283 33.864C113.283 34.26 113.427 34.62 113.535 34.944L119.871 49.452C120.375 50.604 121.167 51.36 122.355 51.36H122.571C123.759 51.36 124.551 50.568 125.055 49.452ZM136.412 40.164C136.808 37.212 138.68 35.16 141.344 35.16C144.224 35.16 145.88 37.356 146.168 40.164H136.412ZM148.688 48.912C149.012 48.588 149.264 48.12 149.264 47.58C149.264 46.572 148.508 45.816 147.536 45.816C147.032 45.816 146.744 45.96 146.42 46.212C145.196 47.22 143.756 47.868 141.92 47.868C139.112 47.868 136.916 46.14 136.448 43.044H148.364C149.48 43.044 150.416 42.18 150.416 40.956C150.416 36.564 147.428 31.596 141.38 31.596C135.944 31.596 132.092 36.06 132.092 41.496V41.568C132.092 47.436 136.34 51.432 141.848 51.432C144.8 51.432 146.96 50.46 148.688 48.912ZM159.579 51.36C163.539 51.36 166.635 49.38 166.635 45.384V45.312C166.635 41.892 163.503 40.632 160.731 39.768C158.499 39.048 156.447 38.472 156.447 37.068V36.996C156.447 35.916 157.419 35.124 159.111 35.124C160.443 35.124 162.027 35.628 163.575 36.42C163.863 36.564 164.079 36.636 164.439 36.636C165.447 36.636 166.239 35.88 166.239 34.872C166.239 34.116 165.807 33.54 165.195 33.216C163.359 32.244 161.235 31.668 159.219 31.668C155.439 31.668 152.451 33.864 152.451 37.464V37.536C152.451 41.172 155.583 42.324 158.391 43.116C160.623 43.8 162.639 44.304 162.639 45.78V45.852C162.639 47.112 161.559 47.904 159.687 47.904C157.959 47.904 156.051 47.292 154.215 46.068C153.963 45.924 153.639 45.816 153.279 45.816C152.271 45.816 151.515 46.608 151.515 47.58C151.515 48.3 151.875 48.84 152.343 49.092C154.539 50.604 157.167 51.36 159.579 51.36ZM175.318 51.324C176.47 51.324 177.37 51.144 178.306 50.82C178.918 50.568 179.458 49.92 179.458 49.128C179.458 48.12 178.594 47.328 177.622 47.328C177.478 47.328 177.046 47.436 176.542 47.436C175.066 47.436 174.202 46.752 174.202 45.06V35.736H177.622C178.666 35.736 179.53 34.908 179.53 33.864C179.53 32.82 178.666 31.992 177.622 31.992H174.202V28.752C174.202 27.564 173.23 26.592 172.042 26.592C170.818 26.592 169.846 27.564 169.846 28.752V31.992H169.126C168.082 31.992 167.254 32.82 167.254 33.864C167.254 34.908 168.082 35.736 169.126 35.736H169.846V45.744C169.846 49.92 172.114 51.324 175.318 51.324ZM190.456 51.432C196.324 51.432 200.644 46.932 200.644 41.532V41.46C200.644 36.024 196.36 31.596 190.528 31.596C184.696 31.596 180.376 36.096 180.376 41.532V41.604C180.376 47.004 184.66 51.432 190.456 51.432ZM190.528 47.616C187.144 47.616 184.732 44.844 184.732 41.532V41.46C184.732 38.148 186.964 35.412 190.456 35.412C193.876 35.412 196.288 38.184 196.288 41.532V41.604C196.288 44.88 194.056 47.616 190.528 47.616ZM203.28 49.02C203.28 50.244 204.252 51.18 205.44 51.18C206.664 51.18 207.636 50.208 207.636 49.02V43.404C207.636 38.904 209.76 36.528 212.856 35.988C213.828 35.808 214.584 35.052 214.584 33.9C214.584 32.64 213.792 31.74 212.424 31.74C210.516 31.74 208.644 33.54 207.636 35.916V33.972C207.636 32.748 206.664 31.776 205.44 31.776C204.216 31.776 203.28 32.748 203.28 33.972V49.02ZM222.867 51.36C226.827 51.36 229.923 49.38 229.923 45.384V45.312C229.923 41.892 226.791 40.632 224.019 39.768C221.787 39.048 219.735 38.472 219.735 37.068V36.996C219.735 35.916 220.707 35.124 222.399 35.124C223.731 35.124 225.315 35.628 226.863 36.42C227.151 36.564 227.367 36.636 227.727 36.636C228.735 36.636 229.527 35.88 229.527 34.872C229.527 34.116 229.095 33.54 228.483 33.216C226.647 32.244 224.523 31.668 222.507 31.668C218.727 31.668 215.739 33.864 215.739 37.464V37.536C215.739 41.172 218.871 42.324 221.679 43.116C223.911 43.8 225.927 44.304 225.927 45.78V45.852C225.927 47.112 224.847 47.904 222.975 47.904C221.247 47.904 219.339 47.292 217.503 46.068C217.251 45.924 216.927 45.816 216.567 45.816C215.559 45.816 214.803 46.608 214.803 47.58C214.803 48.3 215.163 48.84 215.631 49.092C217.827 50.604 220.455 51.36 222.867 51.36Z" fill="black"/>
<path d="M20.24 43.984C20.24 45.208 21.212 46.18 22.472 46.18C23.696 46.18 24.668 45.208 24.668 43.984V35.74H35.54C36.656 35.74 37.556 34.84 37.556 33.724C37.556 32.608 36.656 31.708 35.54 31.708H24.668V24.832H37.16C38.276 24.832 39.176 23.932 39.176 22.816C39.176 21.7 38.276 20.8 37.16 20.8H22.472C21.212 20.8 20.24 21.772 20.24 23.032V43.984ZM50.0697 46.432C55.9377 46.432 60.2577 41.932 60.2577 36.532V36.46C60.2577 31.024 55.9737 26.596 50.1417 26.596C44.3097 26.596 39.9897 31.096 39.9897 36.532V36.604C39.9897 42.004 44.2737 46.432 50.0697 46.432ZM50.1417 42.616C46.7577 42.616 44.3457 39.844 44.3457 36.532V36.46C44.3457 33.148 46.5777 30.412 50.0697 30.412C53.4897 30.412 55.9017 33.184 55.9017 36.532V36.604C55.9017 39.88 53.6697 42.616 50.1417 42.616ZM62.8938 44.02C62.8938 45.244 63.8658 46.18 65.0538 46.18C66.2778 46.18 67.2498 45.208 67.2498 44.02V38.404C67.2498 33.904 69.3738 31.528 72.4698 30.988C73.4418 30.808 74.1978 30.052 74.1978 28.9C74.1978 27.64 73.4058 26.74 72.0378 26.74C70.1298 26.74 68.2578 28.54 67.2498 30.916V28.972C67.2498 27.748 66.2778 26.776 65.0538 26.776C63.8298 26.776 62.8938 27.748 62.8938 28.972V44.02Z" fill="#00E59D"/>
<path d="M85.7139 43.984C85.7139 45.208 86.6859 46.18 87.9459 46.18C89.1699 46.18 90.1419 45.208 90.1419 43.984V22.816C90.1419 21.592 89.1699 20.62 87.9459 20.62C86.6859 20.62 85.7139 21.592 85.7139 22.816V43.984ZM94.5837 44.02C94.5837 45.244 95.5557 46.18 96.7437 46.18C97.9677 46.18 98.9397 45.244 98.9397 44.02V35.272C98.9397 32.32 100.704 30.556 103.224 30.556C105.816 30.556 107.292 32.248 107.292 35.2V44.02C107.292 45.244 108.264 46.18 109.488 46.18C110.712 46.18 111.648 45.244 111.648 44.02V33.868C111.648 29.476 109.164 26.596 104.88 26.596C101.928 26.596 100.164 28.144 98.9397 29.908V28.972C98.9397 27.748 97.9677 26.776 96.7437 26.776C95.5197 26.776 94.5837 27.748 94.5837 28.972V44.02ZM125.055 44.452L131.391 29.908C131.499 29.692 131.643 29.26 131.643 28.864C131.643 27.676 130.707 26.776 129.519 26.776C128.367 26.776 127.791 27.532 127.467 28.288L122.499 40.96L117.603 28.36C117.243 27.46 116.631 26.776 115.443 26.776C114.255 26.776 113.283 27.784 113.283 28.864C113.283 29.26 113.427 29.62 113.535 29.944L119.871 44.452C120.375 45.604 121.167 46.36 122.355 46.36H122.571C123.759 46.36 124.551 45.568 125.055 44.452ZM136.412 35.164C136.808 32.212 138.68 30.16 141.344 30.16C144.224 30.16 145.88 32.356 146.168 35.164H136.412ZM148.688 43.912C149.012 43.588 149.264 43.12 149.264 42.58C149.264 41.572 148.508 40.816 147.536 40.816C147.032 40.816 146.744 40.96 146.42 41.212C145.196 42.22 143.756 42.868 141.92 42.868C139.112 42.868 136.916 41.14 136.448 38.044H148.364C149.48 38.044 150.416 37.18 150.416 35.956C150.416 31.564 147.428 26.596 141.38 26.596C135.944 26.596 132.092 31.06 132.092 36.496V36.568C132.092 42.436 136.34 46.432 141.848 46.432C144.8 46.432 146.96 45.46 148.688 43.912ZM159.579 46.36C163.539 46.36 166.635 44.38 166.635 40.384V40.312C166.635 36.892 163.503 35.632 160.731 34.768C158.499 34.048 156.447 33.472 156.447 32.068V31.996C156.447 30.916 157.419 30.124 159.111 30.124C160.443 30.124 162.027 30.628 163.575 31.42C163.863 31.564 164.079 31.636 164.439 31.636C165.447 31.636 166.239 30.88 166.239 29.872C166.239 29.116 165.807 28.54 165.195 28.216C163.359 27.244 161.235 26.668 159.219 26.668C155.439 26.668 152.451 28.864 152.451 32.464V32.536C152.451 36.172 155.583 37.324 158.391 38.116C160.623 38.8 162.639 39.304 162.639 40.78V40.852C162.639 42.112 161.559 42.904 159.687 42.904C157.959 42.904 156.051 42.292 154.215 41.068C153.963 40.924 153.639 40.816 153.279 40.816C152.271 40.816 151.515 41.608 151.515 42.58C151.515 43.3 151.875 43.84 152.343 44.092C154.539 45.604 157.167 46.36 159.579 46.36ZM175.318 46.324C176.47 46.324 177.37 46.144 178.306 45.82C178.918 45.568 179.458 44.92 179.458 44.128C179.458 43.12 178.594 42.328 177.622 42.328C177.478 42.328 177.046 42.436 176.542 42.436C175.066 42.436 174.202 41.752 174.202 40.06V30.736H177.622C178.666 30.736 179.53 29.908 179.53 28.864C179.53 27.82 178.666 26.992 177.622 26.992H174.202V23.752C174.202 22.564 173.23 21.592 172.042 21.592C170.818 21.592 169.846 22.564 169.846 23.752V26.992H169.126C168.082 26.992 167.254 27.82 167.254 28.864C167.254 29.908 168.082 30.736 169.126 30.736H169.846V40.744C169.846 44.92 172.114 46.324 175.318 46.324ZM190.456 46.432C196.324 46.432 200.644 41.932 200.644 36.532V36.46C200.644 31.024 196.36 26.596 190.528 26.596C184.696 26.596 180.376 31.096 180.376 36.532V36.604C180.376 42.004 184.66 46.432 190.456 46.432ZM190.528 42.616C187.144 42.616 184.732 39.844 184.732 36.532V36.46C184.732 33.148 186.964 30.412 190.456 30.412C193.876 30.412 196.288 33.184 196.288 36.532V36.604C196.288 39.88 194.056 42.616 190.528 42.616ZM203.28 44.02C203.28 45.244 204.252 46.18 205.44 46.18C206.664 46.18 207.636 45.208 207.636 44.02V38.404C207.636 33.904 209.76 31.528 212.856 30.988C213.828 30.808 214.584 30.052 214.584 28.9C214.584 27.64 213.792 26.74 212.424 26.74C210.516 26.74 208.644 28.54 207.636 30.916V28.972C207.636 27.748 206.664 26.776 205.44 26.776C204.216 26.776 203.28 27.748 203.28 28.972V44.02ZM222.867 46.36C226.827 46.36 229.923 44.38 229.923 40.384V40.312C229.923 36.892 226.791 35.632 224.019 34.768C221.787 34.048 219.735 33.472 219.735 32.068V31.996C219.735 30.916 220.707 30.124 222.399 30.124C223.731 30.124 225.315 30.628 226.863 31.42C227.151 31.564 227.367 31.636 227.727 31.636C228.735 31.636 229.527 30.88 229.527 29.872C229.527 29.116 229.095 28.54 228.483 28.216C226.647 27.244 224.523 26.668 222.507 26.668C218.727 26.668 215.739 28.864 215.739 32.464V32.536C215.739 36.172 218.871 37.324 221.679 38.116C223.911 38.8 225.927 39.304 225.927 40.78V40.852C225.927 42.112 224.847 42.904 222.975 42.904C221.247 42.904 219.339 42.292 217.503 41.068C217.251 40.924 216.927 40.816 216.567 40.816C215.559 40.816 214.803 41.608 214.803 42.58C214.803 43.3 215.163 43.84 215.631 44.092C217.827 45.604 220.455 46.36 222.867 46.36Z" fill="#FF0000"/>
<g filter="url(#filter0)">
<path d="M20.24 43.984C20.24 45.208 21.212 46.18 22.472 46.18C23.696 46.18 24.668 45.208 24.668 43.984V35.74H35.54C36.656 35.74 37.556 34.84 37.556 33.724C37.556 32.608 36.656 31.708 35.54 31.708H24.668V24.832H37.16C38.276 24.832 39.176 23.932 39.176 22.816C39.176 21.7 38.276 20.8 37.16 20.8H22.472C21.212 20.8 20.24 21.772 20.24 23.032V43.984ZM50.0697 46.432C55.9377 46.432 60.2577 41.932 60.2577 36.532V36.46C60.2577 31.024 55.9737 26.596 50.1417 26.596C44.3097 26.596 39.9897 31.096 39.9897 36.532V36.604C39.9897 42.004 44.2737 46.432 50.0697 46.432ZM50.1417 42.616C46.7577 42.616 44.3457 39.844 44.3457 36.532V36.46C44.3457 33.148 46.5777 30.412 50.0697 30.412C53.4897 30.412 55.9017 33.184 55.9017 36.532V36.604C55.9017 39.88 53.6697 42.616 50.1417 42.616ZM62.8938 44.02C62.8938 45.244 63.8658 46.18 65.0538 46.18C66.2778 46.18 67.2498 45.208 67.2498 44.02V38.404C67.2498 33.904 69.3738 31.528 72.4698 30.988C73.4418 30.808 74.1978 30.052 74.1978 28.9C74.1978 27.64 73.4058 26.74 72.0378 26.74C70.1298 26.74 68.2578 28.54 67.2498 30.916V28.972C67.2498 27.748 66.2778 26.776 65.0538 26.776C63.8298 26.776 62.8938 27.748 62.8938 28.972V44.02Z" fill="#00E59D"/>
<path d="M85.7139 43.984C85.7139 45.208 86.6859 46.18 87.9459 46.18C89.1699 46.18 90.1419 45.208 90.1419 43.984V22.816C90.1419 21.592 89.1699 20.62 87.9459 20.62C86.6859 20.62 85.7139 21.592 85.7139 22.816V43.984ZM94.5837 44.02C94.5837 45.244 95.5557 46.18 96.7437 46.18C97.9677 46.18 98.9397 45.244 98.9397 44.02V35.272C98.9397 32.32 100.704 30.556 103.224 30.556C105.816 30.556 107.292 32.248 107.292 35.2V44.02C107.292 45.244 108.264 46.18 109.488 46.18C110.712 46.18 111.648 45.244 111.648 44.02V33.868C111.648 29.476 109.164 26.596 104.88 26.596C101.928 26.596 100.164 28.144 98.9397 29.908V28.972C98.9397 27.748 97.9677 26.776 96.7437 26.776C95.5197 26.776 94.5837 27.748 94.5837 28.972V44.02ZM125.055 44.452L131.391 29.908C131.499 29.692 131.643 29.26 131.643 28.864C131.643 27.676 130.707 26.776 129.519 26.776C128.367 26.776 127.791 27.532 127.467 28.288L122.499 40.96L117.603 28.36C117.243 27.46 116.631 26.776 115.443 26.776C114.255 26.776 113.283 27.784 113.283 28.864C113.283 29.26 113.427 29.62 113.535 29.944L119.871 44.452C120.375 45.604 121.167 46.36 122.355 46.36H122.571C123.759 46.36 124.551 45.568 125.055 44.452ZM136.412 35.164C136.808 32.212 138.68 30.16 141.344 30.16C144.224 30.16 145.88 32.356 146.168 35.164H136.412ZM148.688 43.912C149.012 43.588 149.264 43.12 149.264 42.58C149.264 41.572 148.508 40.816 147.536 40.816C147.032 40.816 146.744 40.96 146.42 41.212C145.196 42.22 143.756 42.868 141.92 42.868C139.112 42.868 136.916 41.14 136.448 38.044H148.364C149.48 38.044 150.416 37.18 150.416 35.956C150.416 31.564 147.428 26.596 141.38 26.596C135.944 26.596 132.092 31.06 132.092 36.496V36.568C132.092 42.436 136.34 46.432 141.848 46.432C144.8 46.432 146.96 45.46 148.688 43.912ZM159.579 46.36C163.539 46.36 166.635 44.38 166.635 40.384V40.312C166.635 36.892 163.503 35.632 160.731 34.768C158.499 34.048 156.447 33.472 156.447 32.068V31.996C156.447 30.916 157.419 30.124 159.111 30.124C160.443 30.124 162.027 30.628 163.575 31.42C163.863 31.564 164.079 31.636 164.439 31.636C165.447 31.636 166.239 30.88 166.239 29.872C166.239 29.116 165.807 28.54 165.195 28.216C163.359 27.244 161.235 26.668 159.219 26.668C155.439 26.668 152.451 28.864 152.451 32.464V32.536C152.451 36.172 155.583 37.324 158.391 38.116C160.623 38.8 162.639 39.304 162.639 40.78V40.852C162.639 42.112 161.559 42.904 159.687 42.904C157.959 42.904 156.051 42.292 154.215 41.068C153.963 40.924 153.639 40.816 153.279 40.816C152.271 40.816 151.515 41.608 151.515 42.58C151.515 43.3 151.875 43.84 152.343 44.092C154.539 45.604 157.167 46.36 159.579 46.36ZM175.318 46.324C176.47 46.324 177.37 46.144 178.306 45.82C178.918 45.568 179.458 44.92 179.458 44.128C179.458 43.12 178.594 42.328 177.622 42.328C177.478 42.328 177.046 42.436 176.542 42.436C175.066 42.436 174.202 41.752 174.202 40.06V30.736H177.622C178.666 30.736 179.53 29.908 179.53 28.864C179.53 27.82 178.666 26.992 177.622 26.992H174.202V23.752C174.202 22.564 173.23 21.592 172.042 21.592C170.818 21.592 169.846 22.564 169.846 23.752V26.992H169.126C168.082 26.992 167.254 27.82 167.254 28.864C167.254 29.908 168.082 30.736 169.126 30.736H169.846V40.744C169.846 44.92 172.114 46.324 175.318 46.324ZM190.456 46.432C196.324 46.432 200.644 41.932 200.644 36.532V36.46C200.644 31.024 196.36 26.596 190.528 26.596C184.696 26.596 180.376 31.096 180.376 36.532V36.604C180.376 42.004 184.66 46.432 190.456 46.432ZM190.528 42.616C187.144 42.616 184.732 39.844 184.732 36.532V36.46C184.732 33.148 186.964 30.412 190.456 30.412C193.876 30.412 196.288 33.184 196.288 36.532V36.604C196.288 39.88 194.056 42.616 190.528 42.616ZM203.28 44.02C203.28 45.244 204.252 46.18 205.44 46.18C206.664 46.18 207.636 45.208 207.636 44.02V38.404C207.636 33.904 209.76 31.528 212.856 30.988C213.828 30.808 214.584 30.052 214.584 28.9C214.584 27.64 213.792 26.74 212.424 26.74C210.516 26.74 208.644 28.54 207.636 30.916V28.972C207.636 27.748 206.664 26.776 205.44 26.776C204.216 26.776 203.28 27.748 203.28 28.972V44.02ZM222.867 46.36C226.827 46.36 229.923 44.38 229.923 40.384V40.312C229.923 36.892 226.791 35.632 224.019 34.768C221.787 34.048 219.735 33.472 219.735 32.068V31.996C219.735 30.916 220.707 30.124 222.399 30.124C223.731 30.124 225.315 30.628 226.863 31.42C227.151 31.564 227.367 31.636 227.727 31.636C228.735 31.636 229.527 30.88 229.527 29.872C229.527 29.116 229.095 28.54 228.483 28.216C226.647 27.244 224.523 26.668 222.507 26.668C218.727 26.668 215.739 28.864 215.739 32.464V32.536C215.739 36.172 218.871 37.324 221.679 38.116C223.911 38.8 225.927 39.304 225.927 40.78V40.852C225.927 42.112 224.847 42.904 222.975 42.904C221.247 42.904 219.339 42.292 217.503 41.068C217.251 40.924 216.927 40.816 216.567 40.816C215.559 40.816 214.803 41.608 214.803 42.58C214.803 43.3 215.163 43.84 215.631 44.092C217.827 45.604 220.455 46.36 222.867 46.36Z" fill="#FF0000"/>
</g>
<defs>
<filter id="filter0" x="0.240234" y="0.620117" width="249.683" height="65.8115" filterUnits="userSpaceOnUse" color-interpolation-filters="sRGB">
<feFlood flood-opacity="0" result="BackgroundImageFix"/>
<feBlend mode="normal" in="SourceGraphic" in2="BackgroundImageFix" result="shape"/>
<feGaussianBlur stdDeviation="10" result="effect1_foregroundBlur_921_105"/>
</filter>
</defs>
</svg>
