<svg width="250" height="67" fill="none" xmlns="http://www.w3.org/2000/svg"><path d="M20.24 48.984c0 1.224.972 2.196 2.232 2.196a2.182 2.182 0 0 0 2.196-2.196V40.74H35.54c1.116 0 2.016-.9 2.016-2.016s-.9-2.016-2.016-2.016H24.668v-6.876H37.16c1.116 0 2.016-.9 2.016-2.016s-.9-2.016-2.016-2.016H22.472c-1.26 0-2.232.972-2.232 2.232v20.952Zm29.83 2.448c5.868 0 10.188-4.5 10.188-9.9v-.072c0-5.436-4.284-9.864-10.116-9.864s-10.152 4.5-10.152 9.936v.072c0 5.4 4.284 9.828 10.08 9.828Zm.072-3.816c-3.384 0-5.796-2.772-5.796-6.084v-.072c0-3.312 2.232-6.048 5.724-6.048 3.42 0 5.832 2.772 5.832 6.12v.072c0 3.276-2.232 6.012-5.76 6.012Zm12.752 1.404c0 1.224.972 2.16 2.16 2.16 1.224 0 2.196-.972 2.196-2.16v-5.616c0-4.5 2.124-6.876 5.22-7.416.972-.18 1.728-.936 1.728-2.088 0-1.26-.792-2.16-2.16-2.16-1.908 0-3.78 1.8-4.788 4.176v-1.944a2.182 2.182 0 0 0-2.196-2.196c-1.224 0-2.16.972-2.16 2.196V49.02Zm22.82-.036c0 1.224.972 2.196 2.232 2.196a2.182 2.182 0 0 0 2.196-2.196V27.816a2.182 2.182 0 0 0-2.196-2.196c-1.26 0-2.232.972-2.232 2.196v21.168Zm8.87.036c0 1.224.972 2.16 2.16 2.16 1.224 0 2.196-.936 2.196-2.16v-8.748c0-2.952 1.764-4.716 4.284-4.716 2.592 0 4.068 1.692 4.068 4.644v8.82c0 1.224.972 2.16 2.196 2.16 1.224 0 2.16-.936 2.16-2.16V38.868c0-4.392-2.484-7.272-6.768-7.272-2.952 0-4.716 1.548-5.94 3.312v-.936a2.182 2.182 0 0 0-2.196-2.196c-1.224 0-2.16.972-2.16 2.196V49.02Zm30.471.432 6.336-14.544c.108-.216.252-.648.252-1.044 0-1.188-.936-2.088-2.124-2.088-1.152 0-1.728.756-2.052 1.512l-4.968 12.672-4.896-12.6c-.36-.9-.972-1.584-2.16-1.584-1.188 0-2.16 1.008-2.16 2.088 0 .396.144.756.252 1.08l6.336 14.508c.504 1.152 1.296 1.908 2.484 1.908h.216c1.188 0 1.98-.792 2.484-1.908Zm11.357-9.288c.396-2.952 2.268-5.004 4.932-5.004 2.88 0 4.536 2.196 4.824 5.004h-9.756Zm12.276 8.748c.324-.324.576-.792.576-1.332 0-1.008-.756-1.764-1.728-1.764-.504 0-.792.144-1.116.396-1.224 1.008-2.664 1.656-4.5 1.656-2.808 0-5.004-1.728-5.472-4.824h11.916c1.116 0 2.052-.864 2.052-2.088 0-4.392-2.988-9.36-9.036-9.36-5.436 0-9.288 4.464-9.288 9.9v.072c0 5.868 4.248 9.864 9.756 9.864 2.952 0 5.112-.972 6.84-2.52Zm10.891 2.448c3.96 0 7.056-1.98 7.056-5.976v-.072c0-3.42-3.132-4.68-5.904-5.544-2.232-.72-4.284-1.296-4.284-2.7v-.072c0-1.08.972-1.872 2.664-1.872 1.332 0 2.916.504 4.464 1.296.288.144.504.216.864.216 1.008 0 1.8-.756 1.8-1.764 0-.756-.432-1.332-1.044-1.656-1.836-.972-3.96-1.548-5.976-1.548-3.78 0-6.768 2.196-6.768 5.796v.072c0 3.636 3.132 4.788 5.94 5.58 2.232.684 4.248 1.188 4.248 2.664v.072c0 1.26-1.08 2.052-2.952 2.052-1.728 0-3.636-.612-5.472-1.836a1.9 1.9 0 0 0-.936-.252 1.744 1.744 0 0 0-1.764 1.764c0 .72.36 1.26.828 1.512 2.196 1.512 4.824 2.268 7.236 2.268Zm15.739-.036c1.152 0 2.052-.18 2.988-.504.612-.252 1.152-.9 1.152-1.692 0-1.008-.864-1.8-1.836-1.8-.144 0-.576.108-1.08.108-1.476 0-2.34-.684-2.34-2.376v-9.324h3.42c1.044 0 1.908-.828 1.908-1.872s-.864-1.872-1.908-1.872h-3.42v-3.24c0-1.188-.972-2.16-2.16-2.16-1.224 0-2.196.972-2.196 2.16v3.24h-.72a1.86 1.86 0 0 0-1.872 1.872 1.86 1.86 0 0 0 1.872 1.872h.72v10.008c0 4.176 2.268 5.58 5.472 5.58Zm15.138.108c5.868 0 10.188-4.5 10.188-9.9v-.072c0-5.436-4.284-9.864-10.116-9.864s-10.152 4.5-10.152 9.936v.072c0 5.4 4.284 9.828 10.08 9.828Zm.072-3.816c-3.384 0-5.796-2.772-5.796-6.084v-.072c0-3.312 2.232-6.048 5.724-6.048 3.42 0 5.832 2.772 5.832 6.12v.072c0 3.276-2.232 6.012-5.76 6.012Zm12.752 1.404c0 1.224.972 2.16 2.16 2.16 1.224 0 2.196-.972 2.196-2.16v-5.616c0-4.5 2.124-6.876 5.22-7.416.972-.18 1.728-.936 1.728-2.088 0-1.26-.792-2.16-2.16-2.16-1.908 0-3.78 1.8-4.788 4.176v-1.944a2.182 2.182 0 0 0-2.196-2.196c-1.224 0-2.16.972-2.16 2.196V49.02Zm19.587 2.34c3.96 0 7.056-1.98 7.056-5.976v-.072c0-3.42-3.132-4.68-5.904-5.544-2.232-.72-4.284-1.296-4.284-2.7v-.072c0-1.08.972-1.872 2.664-1.872 1.332 0 2.916.504 4.464 1.296.288.144.504.216.864.216 1.008 0 1.8-.756 1.8-1.764 0-.756-.432-1.332-1.044-1.656-1.836-.972-3.96-1.548-5.976-1.548-3.78 0-6.768 2.196-6.768 5.796v.072c0 3.636 3.132 4.788 5.94 5.58 2.232.684 4.248 1.188 4.248 2.664v.072c0 1.26-1.08 2.052-2.952 2.052-1.728 0-3.636-.612-5.472-1.836a1.9 1.9 0 0 0-.936-.252 1.744 1.744 0 0 0-1.764 1.764c0 .72.36 1.26.828 1.512 2.196 1.512 4.824 2.268 7.236 2.268Z" fill="#000"/><path d="M20.24 43.984c0 1.224.972 2.196 2.232 2.196a2.182 2.182 0 0 0 2.196-2.196V35.74H35.54c1.116 0 2.016-.9 2.016-2.016s-.9-2.016-2.016-2.016H24.668v-6.876H37.16c1.116 0 2.016-.9 2.016-2.016s-.9-2.016-2.016-2.016H22.472c-1.26 0-2.232.972-2.232 2.232v20.952Zm29.83 2.448c5.868 0 10.188-4.5 10.188-9.9v-.072c0-5.436-4.284-9.864-10.116-9.864s-10.152 4.5-10.152 9.936v.072c0 5.4 4.284 9.828 10.08 9.828Zm.072-3.816c-3.384 0-5.796-2.772-5.796-6.084v-.072c0-3.312 2.232-6.048 5.724-6.048 3.42 0 5.832 2.772 5.832 6.12v.072c0 3.276-2.232 6.012-5.76 6.012Zm12.752 1.404c0 1.224.972 2.16 2.16 2.16 1.224 0 2.196-.972 2.196-2.16v-5.616c0-4.5 2.124-6.876 5.22-7.416.972-.18 1.728-.936 1.728-2.088 0-1.26-.792-2.16-2.16-2.16-1.908 0-3.78 1.8-4.788 4.176v-1.944a2.182 2.182 0 0 0-2.196-2.196c-1.224 0-2.16.972-2.16 2.196V44.02Z" fill="#00E59D"/><path d="M85.714 43.984c0 1.224.972 2.196 2.232 2.196a2.182 2.182 0 0 0 2.196-2.196V22.816a2.182 2.182 0 0 0-2.196-2.196c-1.26 0-2.232.972-2.232 2.196v21.168Zm8.87.036c0 1.224.972 2.16 2.16 2.16 1.224 0 2.196-.936 2.196-2.16v-8.748c0-2.952 1.764-4.716 4.284-4.716 2.592 0 4.068 1.692 4.068 4.644v8.82c0 1.224.972 2.16 2.196 2.16 1.224 0 2.16-.936 2.16-2.16V33.868c0-4.392-2.484-7.272-6.768-7.272-2.952 0-4.716 1.548-5.94 3.312v-.936a2.182 2.182 0 0 0-2.196-2.196c-1.224 0-2.16.972-2.16 2.196V44.02Zm30.471.432 6.336-14.544c.108-.216.252-.648.252-1.044 0-1.188-.936-2.088-2.124-2.088-1.152 0-1.728.756-2.052 1.512l-4.968 12.672-4.896-12.6c-.36-.9-.972-1.584-2.16-1.584-1.188 0-2.16 1.008-2.16 2.088 0 .396.144.756.252 1.08l6.336 14.508c.504 1.152 1.296 1.908 2.484 1.908h.216c1.188 0 1.98-.792 2.484-1.908Zm11.357-9.288c.396-2.952 2.268-5.004 4.932-5.004 2.88 0 4.536 2.196 4.824 5.004h-9.756Zm12.276 8.748c.324-.324.576-.792.576-1.332 0-1.008-.756-1.764-1.728-1.764-.504 0-.792.144-1.116.396-1.224 1.008-2.664 1.656-4.5 1.656-2.808 0-5.004-1.728-5.472-4.824h11.916c1.116 0 2.052-.864 2.052-2.088 0-4.392-2.988-9.36-9.036-9.36-5.436 0-9.288 4.464-9.288 9.9v.072c0 5.868 4.248 9.864 9.756 9.864 2.952 0 5.112-.972 6.84-2.52Zm10.891 2.448c3.96 0 7.056-1.98 7.056-5.976v-.072c0-3.42-3.132-4.68-5.904-5.544-2.232-.72-4.284-1.296-4.284-2.7v-.072c0-1.08.972-1.872 2.664-1.872 1.332 0 2.916.504 4.464 1.296.288.144.504.216.864.216 1.008 0 1.8-.756 1.8-1.764 0-.756-.432-1.332-1.044-1.656-1.836-.972-3.96-1.548-5.976-1.548-3.78 0-6.768 2.196-6.768 5.796v.072c0 3.636 3.132 4.788 5.94 5.58 2.232.684 4.248 1.188 4.248 2.664v.072c0 1.26-1.08 2.052-2.952 2.052-1.728 0-3.636-.612-5.472-1.836a1.9 1.9 0 0 0-.936-.252 1.744 1.744 0 0 0-1.764 1.764c0 .72.36 1.26.828 1.512 2.196 1.512 4.824 2.268 7.236 2.268Zm15.739-.036c1.152 0 2.052-.18 2.988-.504.612-.252 1.152-.9 1.152-1.692 0-1.008-.864-1.8-1.836-1.8-.144 0-.576.108-1.08.108-1.476 0-2.34-.684-2.34-2.376v-9.324h3.42c1.044 0 1.908-.828 1.908-1.872s-.864-1.872-1.908-1.872h-3.42v-3.24c0-1.188-.972-2.16-2.16-2.16-1.224 0-2.196.972-2.196 2.16v3.24h-.72a1.86 1.86 0 0 0-1.872 1.872 1.86 1.86 0 0 0 1.872 1.872h.72v10.008c0 4.176 2.268 5.58 5.472 5.58Zm15.138.108c5.868 0 10.188-4.5 10.188-9.9v-.072c0-5.436-4.284-9.864-10.116-9.864s-10.152 4.5-10.152 9.936v.072c0 5.4 4.284 9.828 10.08 9.828Zm.072-3.816c-3.384 0-5.796-2.772-5.796-6.084v-.072c0-3.312 2.232-6.048 5.724-6.048 3.42 0 5.832 2.772 5.832 6.12v.072c0 3.276-2.232 6.012-5.76 6.012Zm12.752 1.404c0 1.224.972 2.16 2.16 2.16 1.224 0 2.196-.972 2.196-2.16v-5.616c0-4.5 2.124-6.876 5.22-7.416.972-.18 1.728-.936 1.728-2.088 0-1.26-.792-2.16-2.16-2.16-1.908 0-3.78 1.8-4.788 4.176v-1.944a2.182 2.182 0 0 0-2.196-2.196c-1.224 0-2.16.972-2.16 2.196V44.02Zm19.587 2.34c3.96 0 7.056-1.98 7.056-5.976v-.072c0-3.42-3.132-4.68-5.904-5.544-2.232-.72-4.284-1.296-4.284-2.7v-.072c0-1.08.972-1.872 2.664-1.872 1.332 0 2.916.504 4.464 1.296.288.144.504.216.864.216 1.008 0 1.8-.756 1.8-1.764 0-.756-.432-1.332-1.044-1.656-1.836-.972-3.96-1.548-5.976-1.548-3.78 0-6.768 2.196-6.768 5.796v.072c0 3.636 3.132 4.788 5.94 5.58 2.232.684 4.248 1.188 4.248 2.664v.072c0 1.26-1.08 2.052-2.952 2.052-1.728 0-3.636-.612-5.472-1.836a1.9 1.9 0 0 0-.936-.252 1.744 1.744 0 0 0-1.764 1.764c0 .72.36 1.26.828 1.512 2.196 1.512 4.824 2.268 7.236 2.268Z" fill="red"/><g filter="url(#a)"><path d="M20.24 43.984c0 1.224.972 2.196 2.232 2.196a2.182 2.182 0 0 0 2.196-2.196V35.74H35.54c1.116 0 2.016-.9 2.016-2.016s-.9-2.016-2.016-2.016H24.668v-6.876H37.16c1.116 0 2.016-.9 2.016-2.016s-.9-2.016-2.016-2.016H22.472c-1.26 0-2.232.972-2.232 2.232v20.952Zm29.83 2.448c5.868 0 10.188-4.5 10.188-9.9v-.072c0-5.436-4.284-9.864-10.116-9.864s-10.152 4.5-10.152 9.936v.072c0 5.4 4.284 9.828 10.08 9.828Zm.072-3.816c-3.384 0-5.796-2.772-5.796-6.084v-.072c0-3.312 2.232-6.048 5.724-6.048 3.42 0 5.832 2.772 5.832 6.12v.072c0 3.276-2.232 6.012-5.76 6.012Zm12.752 1.404c0 1.224.972 2.16 2.16 2.16 1.224 0 2.196-.972 2.196-2.16v-5.616c0-4.5 2.124-6.876 5.22-7.416.972-.18 1.728-.936 1.728-2.088 0-1.26-.792-2.16-2.16-2.16-1.908 0-3.78 1.8-4.788 4.176v-1.944a2.182 2.182 0 0 0-2.196-2.196c-1.224 0-2.16.972-2.16 2.196V44.02Z" fill="#00E59D"/><path d="M85.714 43.984c0 1.224.972 2.196 2.232 2.196a2.182 2.182 0 0 0 2.196-2.196V22.816a2.182 2.182 0 0 0-2.196-2.196c-1.26 0-2.232.972-2.232 2.196v21.168Zm8.87.036c0 1.224.972 2.16 2.16 2.16 1.224 0 2.196-.936 2.196-2.16v-8.748c0-2.952 1.764-4.716 4.284-4.716 2.592 0 4.068 1.692 4.068 4.644v8.82c0 1.224.972 2.16 2.196 2.16 1.224 0 2.16-.936 2.16-2.16V33.868c0-4.392-2.484-7.272-6.768-7.272-2.952 0-4.716 1.548-5.94 3.312v-.936a2.182 2.182 0 0 0-2.196-2.196c-1.224 0-2.16.972-2.16 2.196V44.02Zm30.471.432 6.336-14.544c.108-.216.252-.648.252-1.044 0-1.188-.936-2.088-2.124-2.088-1.152 0-1.728.756-2.052 1.512l-4.968 12.672-4.896-12.6c-.36-.9-.972-1.584-2.16-1.584-1.188 0-2.16 1.008-2.16 2.088 0 .396.144.756.252 1.08l6.336 14.508c.504 1.152 1.296 1.908 2.484 1.908h.216c1.188 0 1.98-.792 2.484-1.908Zm11.357-9.288c.396-2.952 2.268-5.004 4.932-5.004 2.88 0 4.536 2.196 4.824 5.004h-9.756Zm12.276 8.748c.324-.324.576-.792.576-1.332 0-1.008-.756-1.764-1.728-1.764-.504 0-.792.144-1.116.396-1.224 1.008-2.664 1.656-4.5 1.656-2.808 0-5.004-1.728-5.472-4.824h11.916c1.116 0 2.052-.864 2.052-2.088 0-4.392-2.988-9.36-9.036-9.36-5.436 0-9.288 4.464-9.288 9.9v.072c0 5.868 4.248 9.864 9.756 9.864 2.952 0 5.112-.972 6.84-2.52Zm10.891 2.448c3.96 0 7.056-1.98 7.056-5.976v-.072c0-3.42-3.132-4.68-5.904-5.544-2.232-.72-4.284-1.296-4.284-2.7v-.072c0-1.08.972-1.872 2.664-1.872 1.332 0 2.916.504 4.464 1.296.288.144.504.216.864.216 1.008 0 1.8-.756 1.8-1.764 0-.756-.432-1.332-1.044-1.656-1.836-.972-3.96-1.548-5.976-1.548-3.78 0-6.768 2.196-6.768 5.796v.072c0 3.636 3.132 4.788 5.94 5.58 2.232.684 4.248 1.188 4.248 2.664v.072c0 1.26-1.08 2.052-2.952 2.052-1.728 0-3.636-.612-5.472-1.836a1.9 1.9 0 0 0-.936-.252 1.744 1.744 0 0 0-1.764 1.764c0 .72.36 1.26.828 1.512 2.196 1.512 4.824 2.268 7.236 2.268Zm15.739-.036c1.152 0 2.052-.18 2.988-.504.612-.252 1.152-.9 1.152-1.692 0-1.008-.864-1.8-1.836-1.8-.144 0-.576.108-1.08.108-1.476 0-2.34-.684-2.34-2.376v-9.324h3.42c1.044 0 1.908-.828 1.908-1.872s-.864-1.872-1.908-1.872h-3.42v-3.24c0-1.188-.972-2.16-2.16-2.16-1.224 0-2.196.972-2.196 2.16v3.24h-.72a1.86 1.86 0 0 0-1.872 1.872 1.86 1.86 0 0 0 1.872 1.872h.72v10.008c0 4.176 2.268 5.58 5.472 5.58Zm15.138.108c5.868 0 10.188-4.5 10.188-9.9v-.072c0-5.436-4.284-9.864-10.116-9.864s-10.152 4.5-10.152 9.936v.072c0 5.4 4.284 9.828 10.08 9.828Zm.072-3.816c-3.384 0-5.796-2.772-5.796-6.084v-.072c0-3.312 2.232-6.048 5.724-6.048 3.42 0 5.832 2.772 5.832 6.12v.072c0 3.276-2.232 6.012-5.76 6.012Zm12.752 1.404c0 1.224.972 2.16 2.16 2.16 1.224 0 2.196-.972 2.196-2.16v-5.616c0-4.5 2.124-6.876 5.22-7.416.972-.18 1.728-.936 1.728-2.088 0-1.26-.792-2.16-2.16-2.16-1.908 0-3.78 1.8-4.788 4.176v-1.944a2.182 2.182 0 0 0-2.196-2.196c-1.224 0-2.16.972-2.16 2.196V44.02Zm19.587 2.34c3.96 0 7.056-1.98 7.056-5.976v-.072c0-3.42-3.132-4.68-5.904-5.544-2.232-.72-4.284-1.296-4.284-2.7v-.072c0-1.08.972-1.872 2.664-1.872 1.332 0 2.916.504 4.464 1.296.288.144.504.216.864.216 1.008 0 1.8-.756 1.8-1.764 0-.756-.432-1.332-1.044-1.656-1.836-.972-3.96-1.548-5.976-1.548-3.78 0-6.768 2.196-6.768 5.796v.072c0 3.636 3.132 4.788 5.94 5.58 2.232.684 4.248 1.188 4.248 2.664v.072c0 1.26-1.08 2.052-2.952 2.052-1.728 0-3.636-.612-5.472-1.836a1.9 1.9 0 0 0-.936-.252 1.744 1.744 0 0 0-1.764 1.764c0 .72.36 1.26.828 1.512 2.196 1.512 4.824 2.268 7.236 2.268Z" fill="red"/></g><defs><filter id="a" x=".24" y=".62" width="249.683" height="65.811" filterUnits="userSpaceOnUse" color-interpolation-filters="sRGB"><feFlood flood-opacity="0" result="BackgroundImageFix"/><feBlend in="SourceGraphic" in2="BackgroundImageFix" result="shape"/><feGaussianBlur stdDeviation="10" result="effect1_foregroundBlur_921_105"/></filter></defs></svg>