<svg width="225" height="68" fill="none" xmlns="http://www.w3.org/2000/svg"><path d="M20.24 49.984c0 1.224.972 2.196 2.232 2.196a2.182 2.182 0 0 0 2.196-2.196V41.74H35.54c1.116 0 2.016-.9 2.016-2.016s-.9-2.016-2.016-2.016H24.668v-6.876H37.16c1.116 0 2.016-.9 2.016-2.016s-.9-2.016-2.016-2.016H22.472c-1.26 0-2.232.972-2.232 2.232v20.952Zm29.83 2.448c5.868 0 10.188-4.5 10.188-9.9v-.072c0-5.436-4.284-9.864-10.116-9.864s-10.152 4.5-10.152 9.936v.072c0 5.4 4.284 9.828 10.08 9.828Zm.072-3.816c-3.384 0-5.796-2.772-5.796-6.084v-.072c0-3.312 2.232-6.048 5.724-6.048 3.42 0 5.832 2.772 5.832 6.12v.072c0 3.276-2.232 6.012-5.76 6.012Zm12.752 1.404c0 1.224.972 2.16 2.16 2.16 1.224 0 2.196-.972 2.196-2.16v-5.616c0-4.5 2.124-6.876 5.22-7.416.972-.18 1.728-.936 1.728-2.088 0-1.26-.792-2.16-2.16-2.16-1.908 0-3.78 1.8-4.788 4.176v-1.944a2.182 2.182 0 0 0-2.196-2.196c-1.224 0-2.16.972-2.16 2.196V50.02Zm28.76-.036c0 1.224 1.008 2.196 2.232 2.196 1.224 0 2.232-.972 2.232-2.196v-19.08h6.156c1.116 0 2.016-.936 2.016-2.052s-.9-2.052-2.016-2.052h-16.74a2.051 2.051 0 0 0-2.052 2.052c0 1.116.9 2.052 2.052 2.052h6.12v19.08Zm12.246.036c0 1.224.972 2.16 2.16 2.16 1.224 0 2.196-.972 2.196-2.16v-5.616c0-4.5 2.124-6.876 5.22-7.416.972-.18 1.728-.936 1.728-2.088 0-1.26-.792-2.16-2.16-2.16-1.908 0-3.78 1.8-4.788 4.176v-1.944a2.182 2.182 0 0 0-2.196-2.196c-1.224 0-2.16.972-2.16 2.196V50.02Zm17.629 2.376c2.916 0 4.896-1.224 6.192-2.772v.72c0 .972.864 1.836 2.124 1.836 1.188 0 2.124-.9 2.124-2.088v-9.36c0-2.484-.648-4.5-2.052-5.868-1.332-1.368-3.456-2.124-6.3-2.124-2.484 0-4.32.432-6.12 1.116-.648.252-1.188.936-1.188 1.728 0 1.008.828 1.8 1.836 1.8.216 0 .432-.036.684-.108 1.188-.468 2.556-.756 4.212-.756 3.06 0 4.716 1.44 4.716 4.14v.468c-1.476-.468-2.988-.792-5.112-.792-4.644 0-7.848 2.016-7.848 6.12v.072c0 3.816 3.168 5.868 6.732 5.868Zm1.224-3.168c-2.088 0-3.708-1.044-3.708-2.88v-.072c0-1.98 1.656-3.168 4.464-3.168 1.728 0 3.204.324 4.32.756v1.296c0 2.412-2.196 4.068-5.076 4.068ZM154.07 27.7c0-1.224-.972-2.16-2.196-2.16-1.188 0-2.16.936-2.16 2.16v8.244c-1.368-1.8-3.348-3.348-6.48-3.348-4.536 0-8.82 3.564-8.82 9.864v.072c0 6.3 4.356 9.864 8.82 9.864 3.096 0 5.076-1.584 6.48-3.564v1.188c0 1.224.972 2.16 2.196 2.16 1.188 0 2.16-.936 2.16-2.16V27.7Zm-9.792 8.676c2.916 0 5.508 2.412 5.508 6.084v.072c0 3.636-2.592 6.084-5.508 6.084-2.952 0-5.472-2.412-5.472-6.084v-.072c0-3.78 2.484-6.084 5.472-6.084Zm16.736 4.788c.396-2.952 2.268-5.004 4.932-5.004 2.88 0 4.536 2.196 4.824 5.004h-9.756Zm12.276 8.748c.324-.324.576-.792.576-1.332 0-1.008-.756-1.764-1.728-1.764-.504 0-.792.144-1.116.396-1.224 1.008-2.664 1.656-4.5 1.656-2.808 0-5.004-1.728-5.472-4.824h11.916c1.116 0 2.052-.864 2.052-2.088 0-4.392-2.988-9.36-9.036-9.36-5.436 0-9.288 4.464-9.288 9.9v.072c0 5.868 4.248 9.864 9.756 9.864 2.952 0 5.112-.972 6.84-2.52Zm4.375.108c0 1.224.972 2.16 2.16 2.16 1.224 0 2.196-.972 2.196-2.16v-5.616c0-4.5 2.124-6.876 5.22-7.416.972-.18 1.728-.936 1.728-2.088 0-1.26-.792-2.16-2.16-2.16-1.908 0-3.78 1.8-4.788 4.176v-1.944a2.182 2.182 0 0 0-2.196-2.196c-1.224 0-2.16.972-2.16 2.196V50.02Zm19.587 2.34c3.96 0 7.056-1.98 7.056-5.976v-.072c0-3.42-3.132-4.68-5.904-5.544-2.232-.72-4.284-1.296-4.284-2.7v-.072c0-1.08.972-1.872 2.664-1.872 1.332 0 2.916.504 4.464 1.296.288.144.504.216.864.216 1.008 0 1.8-.756 1.8-1.764 0-.756-.432-1.332-1.044-1.656-1.836-.972-3.96-1.548-5.976-1.548-3.78 0-6.768 2.196-6.768 5.796v.072c0 3.636 3.132 4.788 5.94 5.58 2.232.684 4.248 1.188 4.248 2.664v.072c0 1.26-1.08 2.052-2.952 2.052-1.728 0-3.636-.612-5.472-1.836a1.9 1.9 0 0 0-.936-.252 1.744 1.744 0 0 0-1.764 1.764c0 .72.36 1.26.828 1.512 2.196 1.512 4.824 2.268 7.236 2.268Z" fill="#000"/><path d="M20.24 44.984c0 1.224.972 2.196 2.232 2.196a2.182 2.182 0 0 0 2.196-2.196V36.74H35.54c1.116 0 2.016-.9 2.016-2.016s-.9-2.016-2.016-2.016H24.668v-6.876H37.16c1.116 0 2.016-.9 2.016-2.016s-.9-2.016-2.016-2.016H22.472c-1.26 0-2.232.972-2.232 2.232v20.952Zm29.83 2.448c5.868 0 10.188-4.5 10.188-9.9v-.072c0-5.436-4.284-9.864-10.116-9.864s-10.152 4.5-10.152 9.936v.072c0 5.4 4.284 9.828 10.08 9.828Zm.072-3.816c-3.384 0-5.796-2.772-5.796-6.084v-.072c0-3.312 2.232-6.048 5.724-6.048 3.42 0 5.832 2.772 5.832 6.12v.072c0 3.276-2.232 6.012-5.76 6.012Zm12.752 1.404c0 1.224.972 2.16 2.16 2.16 1.224 0 2.196-.972 2.196-2.16v-5.616c0-4.5 2.124-6.876 5.22-7.416.972-.18 1.728-.936 1.728-2.088 0-1.26-.792-2.16-2.16-2.16-1.908 0-3.78 1.8-4.788 4.176v-1.944a2.182 2.182 0 0 0-2.196-2.196c-1.224 0-2.16.972-2.16 2.196V45.02Z" fill="#00E59D"/><path d="M91.654 44.984c0 1.224 1.008 2.196 2.232 2.196 1.224 0 2.232-.972 2.232-2.196v-19.08h6.156c1.116 0 2.016-.936 2.016-2.052s-.9-2.052-2.016-2.052h-16.74a2.051 2.051 0 0 0-2.052 2.052c0 1.116.9 2.052 2.052 2.052h6.12v19.08Zm12.246.036c0 1.224.972 2.16 2.16 2.16 1.224 0 2.196-.972 2.196-2.16v-5.616c0-4.5 2.124-6.876 5.22-7.416.972-.18 1.728-.936 1.728-2.088 0-1.26-.792-2.16-2.16-2.16-1.908 0-3.78 1.8-4.788 4.176v-1.944a2.182 2.182 0 0 0-2.196-2.196c-1.224 0-2.16.972-2.16 2.196V45.02Zm17.629 2.376c2.916 0 4.896-1.224 6.192-2.772v.72c0 .972.864 1.836 2.124 1.836 1.188 0 2.124-.9 2.124-2.088v-9.36c0-2.484-.648-4.5-2.052-5.868-1.332-1.368-3.456-2.124-6.3-2.124-2.484 0-4.32.432-6.12 1.116-.648.252-1.188.936-1.188 1.728 0 1.008.828 1.8 1.836 1.8.216 0 .432-.036.684-.108 1.188-.468 2.556-.756 4.212-.756 3.06 0 4.716 1.44 4.716 4.14v.468c-1.476-.468-2.988-.792-5.112-.792-4.644 0-7.848 2.016-7.848 6.12v.072c0 3.816 3.168 5.868 6.732 5.868Zm1.224-3.168c-2.088 0-3.708-1.044-3.708-2.88v-.072c0-1.98 1.656-3.168 4.464-3.168 1.728 0 3.204.324 4.32.756v1.296c0 2.412-2.196 4.068-5.076 4.068ZM154.07 22.7c0-1.224-.972-2.16-2.196-2.16-1.188 0-2.16.936-2.16 2.16v8.244c-1.368-1.8-3.348-3.348-6.48-3.348-4.536 0-8.82 3.564-8.82 9.864v.072c0 6.3 4.356 9.864 8.82 9.864 3.096 0 5.076-1.584 6.48-3.564v1.188c0 1.224.972 2.16 2.196 2.16 1.188 0 2.16-.936 2.16-2.16V22.7Zm-9.792 8.676c2.916 0 5.508 2.412 5.508 6.084v.072c0 3.636-2.592 6.084-5.508 6.084-2.952 0-5.472-2.412-5.472-6.084v-.072c0-3.78 2.484-6.084 5.472-6.084Zm16.736 4.788c.396-2.952 2.268-5.004 4.932-5.004 2.88 0 4.536 2.196 4.824 5.004h-9.756Zm12.276 8.748c.324-.324.576-.792.576-1.332 0-1.008-.756-1.764-1.728-1.764-.504 0-.792.144-1.116.396-1.224 1.008-2.664 1.656-4.5 1.656-2.808 0-5.004-1.728-5.472-4.824h11.916c1.116 0 2.052-.864 2.052-2.088 0-4.392-2.988-9.36-9.036-9.36-5.436 0-9.288 4.464-9.288 9.9v.072c0 5.868 4.248 9.864 9.756 9.864 2.952 0 5.112-.972 6.84-2.52Zm4.375.108c0 1.224.972 2.16 2.16 2.16 1.224 0 2.196-.972 2.196-2.16v-5.616c0-4.5 2.124-6.876 5.22-7.416.972-.18 1.728-.936 1.728-2.088 0-1.26-.792-2.16-2.16-2.16-1.908 0-3.78 1.8-4.788 4.176v-1.944a2.182 2.182 0 0 0-2.196-2.196c-1.224 0-2.16.972-2.16 2.196V45.02Zm19.587 2.34c3.96 0 7.056-1.98 7.056-5.976v-.072c0-3.42-3.132-4.68-5.904-5.544-2.232-.72-4.284-1.296-4.284-2.7v-.072c0-1.08.972-1.872 2.664-1.872 1.332 0 2.916.504 4.464 1.296.288.144.504.216.864.216 1.008 0 1.8-.756 1.8-1.764 0-.756-.432-1.332-1.044-1.656-1.836-.972-3.96-1.548-5.976-1.548-3.78 0-6.768 2.196-6.768 5.796v.072c0 3.636 3.132 4.788 5.94 5.58 2.232.684 4.248 1.188 4.248 2.664v.072c0 1.26-1.08 2.052-2.952 2.052-1.728 0-3.636-.612-5.472-1.836a1.9 1.9 0 0 0-.936-.252 1.744 1.744 0 0 0-1.764 1.764c0 .72.36 1.26.828 1.512 2.196 1.512 4.824 2.268 7.236 2.268Z" fill="red"/><g filter="url(#a)"><path d="M20.24 44.984c0 1.224.972 2.196 2.232 2.196a2.182 2.182 0 0 0 2.196-2.196V36.74H35.54c1.116 0 2.016-.9 2.016-2.016s-.9-2.016-2.016-2.016H24.668v-6.876H37.16c1.116 0 2.016-.9 2.016-2.016s-.9-2.016-2.016-2.016H22.472c-1.26 0-2.232.972-2.232 2.232v20.952Zm29.83 2.448c5.868 0 10.188-4.5 10.188-9.9v-.072c0-5.436-4.284-9.864-10.116-9.864s-10.152 4.5-10.152 9.936v.072c0 5.4 4.284 9.828 10.08 9.828Zm.072-3.816c-3.384 0-5.796-2.772-5.796-6.084v-.072c0-3.312 2.232-6.048 5.724-6.048 3.42 0 5.832 2.772 5.832 6.12v.072c0 3.276-2.232 6.012-5.76 6.012Zm12.752 1.404c0 1.224.972 2.16 2.16 2.16 1.224 0 2.196-.972 2.196-2.16v-5.616c0-4.5 2.124-6.876 5.22-7.416.972-.18 1.728-.936 1.728-2.088 0-1.26-.792-2.16-2.16-2.16-1.908 0-3.78 1.8-4.788 4.176v-1.944a2.182 2.182 0 0 0-2.196-2.196c-1.224 0-2.16.972-2.16 2.196V45.02Z" fill="#00E59D"/><path d="M91.654 44.984c0 1.224 1.008 2.196 2.232 2.196 1.224 0 2.232-.972 2.232-2.196v-19.08h6.156c1.116 0 2.016-.936 2.016-2.052s-.9-2.052-2.016-2.052h-16.74a2.051 2.051 0 0 0-2.052 2.052c0 1.116.9 2.052 2.052 2.052h6.12v19.08Zm12.246.036c0 1.224.972 2.16 2.16 2.16 1.224 0 2.196-.972 2.196-2.16v-5.616c0-4.5 2.124-6.876 5.22-7.416.972-.18 1.728-.936 1.728-2.088 0-1.26-.792-2.16-2.16-2.16-1.908 0-3.78 1.8-4.788 4.176v-1.944a2.182 2.182 0 0 0-2.196-2.196c-1.224 0-2.16.972-2.16 2.196V45.02Zm17.629 2.376c2.916 0 4.896-1.224 6.192-2.772v.72c0 .972.864 1.836 2.124 1.836 1.188 0 2.124-.9 2.124-2.088v-9.36c0-2.484-.648-4.5-2.052-5.868-1.332-1.368-3.456-2.124-6.3-2.124-2.484 0-4.32.432-6.12 1.116-.648.252-1.188.936-1.188 1.728 0 1.008.828 1.8 1.836 1.8.216 0 .432-.036.684-.108 1.188-.468 2.556-.756 4.212-.756 3.06 0 4.716 1.44 4.716 4.14v.468c-1.476-.468-2.988-.792-5.112-.792-4.644 0-7.848 2.016-7.848 6.12v.072c0 3.816 3.168 5.868 6.732 5.868Zm1.224-3.168c-2.088 0-3.708-1.044-3.708-2.88v-.072c0-1.98 1.656-3.168 4.464-3.168 1.728 0 3.204.324 4.32.756v1.296c0 2.412-2.196 4.068-5.076 4.068ZM154.07 22.7c0-1.224-.972-2.16-2.196-2.16-1.188 0-2.16.936-2.16 2.16v8.244c-1.368-1.8-3.348-3.348-6.48-3.348-4.536 0-8.82 3.564-8.82 9.864v.072c0 6.3 4.356 9.864 8.82 9.864 3.096 0 5.076-1.584 6.48-3.564v1.188c0 1.224.972 2.16 2.196 2.16 1.188 0 2.16-.936 2.16-2.16V22.7Zm-9.792 8.676c2.916 0 5.508 2.412 5.508 6.084v.072c0 3.636-2.592 6.084-5.508 6.084-2.952 0-5.472-2.412-5.472-6.084v-.072c0-3.78 2.484-6.084 5.472-6.084Zm16.736 4.788c.396-2.952 2.268-5.004 4.932-5.004 2.88 0 4.536 2.196 4.824 5.004h-9.756Zm12.276 8.748c.324-.324.576-.792.576-1.332 0-1.008-.756-1.764-1.728-1.764-.504 0-.792.144-1.116.396-1.224 1.008-2.664 1.656-4.5 1.656-2.808 0-5.004-1.728-5.472-4.824h11.916c1.116 0 2.052-.864 2.052-2.088 0-4.392-2.988-9.36-9.036-9.36-5.436 0-9.288 4.464-9.288 9.9v.072c0 5.868 4.248 9.864 9.756 9.864 2.952 0 5.112-.972 6.84-2.52Zm4.375.108c0 1.224.972 2.16 2.16 2.16 1.224 0 2.196-.972 2.196-2.16v-5.616c0-4.5 2.124-6.876 5.22-7.416.972-.18 1.728-.936 1.728-2.088 0-1.26-.792-2.16-2.16-2.16-1.908 0-3.78 1.8-4.788 4.176v-1.944a2.182 2.182 0 0 0-2.196-2.196c-1.224 0-2.16.972-2.16 2.196V45.02Zm19.587 2.34c3.96 0 7.056-1.98 7.056-5.976v-.072c0-3.42-3.132-4.68-5.904-5.544-2.232-.72-4.284-1.296-4.284-2.7v-.072c0-1.08.972-1.872 2.664-1.872 1.332 0 2.916.504 4.464 1.296.288.144.504.216.864.216 1.008 0 1.8-.756 1.8-1.764 0-.756-.432-1.332-1.044-1.656-1.836-.972-3.96-1.548-5.976-1.548-3.78 0-6.768 2.196-6.768 5.796v.072c0 3.636 3.132 4.788 5.94 5.58 2.232.684 4.248 1.188 4.248 2.664v.072c0 1.26-1.08 2.052-2.952 2.052-1.728 0-3.636-.612-5.472-1.836a1.9 1.9 0 0 0-.936-.252 1.744 1.744 0 0 0-1.764 1.764c0 .72.36 1.26.828 1.512 2.196 1.512 4.824 2.268 7.236 2.268Z" fill="red"/></g><defs><filter id="a" x=".24" y=".54" width="224.067" height="66.892" filterUnits="userSpaceOnUse" color-interpolation-filters="sRGB"><feFlood flood-opacity="0" result="BackgroundImageFix"/><feBlend in="SourceGraphic" in2="BackgroundImageFix" result="shape"/><feGaussianBlur stdDeviation="10" result="effect1_foregroundBlur_921_109"/></filter></defs></svg>