<svg width="473" height="268" viewBox="0 0 473 268" fill="none" xmlns="http://www.w3.org/2000/svg">
<path d="M53.45 131.7C63.74 131.7 70.95 126.24 70.95 117.07V116.93C70.95 108.81 65.63 105.1 55.27 102.58C45.82 100.34 43.58 98.66 43.58 94.88V94.74C43.58 91.52 46.52 88.93 51.56 88.93C55.41 88.93 59.05 90.19 62.83 92.64C63.53 93.06 64.23 93.27 65.07 93.27C67.31 93.27 69.13 91.52 69.13 89.28C69.13 87.6 68.22 86.41 67.24 85.85C62.83 82.91 57.86 81.3 51.7 81.3C41.97 81.3 34.97 87.11 34.97 95.51V95.65C34.97 104.68 40.85 107.76 51.28 110.28C60.38 112.38 62.34 114.27 62.34 117.77V117.91C62.34 121.55 58.98 124.07 53.66 124.07C48.34 124.07 44 122.25 39.94 119.03C39.38 118.61 38.61 118.26 37.42 118.26C35.18 118.26 33.36 120.01 33.36 122.25C33.36 123.65 34.06 124.84 35.04 125.54C40.5 129.6 46.8 131.7 53.45 131.7ZM89.7248 127.08C89.7248 129.46 91.6148 131.35 93.9948 131.35C96.4448 131.35 98.3348 129.46 98.3348 127.08V111.75L115.065 88.86C115.695 88.02 116.255 86.97 116.255 85.78C116.255 83.47 114.575 81.58 112.055 81.58C110.235 81.58 108.975 82.63 107.925 84.17L94.0648 103.91L80.4148 84.24C79.3648 82.7 78.1048 81.65 76.2148 81.65C73.7648 81.65 71.8748 83.47 71.8748 85.78C71.8748 86.97 72.2948 87.95 72.8548 88.79L89.7248 111.96V127.08ZM121.175 127.15C121.175 129.53 122.995 131.35 125.375 131.35C127.755 131.35 129.645 129.53 129.645 127.15V97.82L141.545 115.67C142.455 117.07 143.575 117.91 145.115 117.91C146.725 117.91 147.845 117.07 148.755 115.67L160.725 97.68V127.08C160.725 129.39 162.685 131.35 164.995 131.35C167.445 131.35 169.335 129.46 169.335 127.08V86.06C169.335 83.68 167.445 81.72 164.995 81.72H164.085C162.335 81.72 161.075 82.49 160.165 83.96L145.255 107.27L130.415 84.03C129.575 82.7 128.315 81.72 126.425 81.72H125.515C123.065 81.72 121.175 83.68 121.175 86.06V127.15ZM178.446 127.08C178.446 129.46 180.336 131.35 182.786 131.35C185.166 131.35 187.056 129.46 187.056 127.08V115.25H196.786C207.566 115.25 216.386 109.51 216.386 98.52V98.38C216.386 88.51 209.246 82 197.766 82H182.786C180.336 82 178.446 83.89 178.446 86.34V127.08ZM187.056 107.48V89.84H197.066C203.506 89.84 207.636 92.85 207.636 98.59V98.73C207.636 103.84 203.576 107.48 197.066 107.48H187.056ZM221.704 127.08C221.704 129.46 223.594 131.35 226.044 131.35C228.424 131.35 230.314 129.46 230.314 127.08V110.35H253.694V127.08C253.694 129.46 255.584 131.35 257.964 131.35C260.414 131.35 262.304 129.46 262.304 127.08V85.92C262.304 83.54 260.414 81.65 257.964 81.65C255.584 81.65 253.694 83.54 253.694 85.92V102.37H230.314V85.92C230.314 83.54 228.424 81.65 226.044 81.65C223.594 81.65 221.704 83.54 221.704 85.92V127.08ZM294.768 131.84C309.818 131.84 320.458 120.29 320.458 106.5V106.36C320.458 92.57 309.958 81.16 294.908 81.16C279.858 81.16 269.218 92.71 269.218 106.5V106.64C269.218 120.43 279.718 131.84 294.768 131.84ZM294.908 123.86C285.178 123.86 278.248 116.02 278.248 106.5V106.36C278.248 96.84 285.038 89.07 294.768 89.07C304.498 89.07 311.428 96.98 311.428 106.5V106.64C311.428 116.16 304.638 123.86 294.908 123.86ZM327.361 127.15C327.361 129.46 329.251 131.35 331.631 131.35C333.941 131.35 335.831 129.46 335.831 127.15V96.07L361.031 128.69C362.221 130.23 363.481 131.28 365.511 131.28H365.861C368.241 131.28 370.061 129.39 370.061 127.01V85.85C370.061 83.54 368.171 81.65 365.791 81.65C363.481 81.65 361.591 83.54 361.591 85.85V115.95L337.091 84.24C335.901 82.77 334.711 81.72 332.611 81.72H331.701C329.251 81.72 327.361 83.68 327.361 86.06V127.15ZM379.653 127.08C379.653 129.46 381.543 131.35 383.993 131.35C386.373 131.35 388.263 129.46 388.263 127.08V85.92C388.263 83.54 386.373 81.65 383.993 81.65C381.543 81.65 379.653 83.54 379.653 85.92V127.08ZM420.63 131.84C428.54 131.84 433.79 129.32 438.41 125.26C439.18 124.56 439.81 123.51 439.81 122.18C439.81 120.01 437.92 118.19 435.75 118.19C434.7 118.19 433.79 118.61 433.16 119.17C429.59 122.18 426.09 123.86 420.91 123.86C411.53 123.86 404.74 116.09 404.74 106.5V106.36C404.74 96.77 411.6 89.07 420.91 89.07C425.6 89.07 429.24 90.75 432.6 93.48C433.16 93.9 434 94.32 435.19 94.32C437.57 94.32 439.46 92.5 439.46 90.12C439.46 88.58 438.69 87.39 437.78 86.69C433.51 83.4 428.54 81.16 420.98 81.16C406.14 81.16 395.71 92.57 395.71 106.5V106.64C395.71 120.71 406.35 131.84 420.63 131.84Z" fill="black"/>
<path d="M53.45 126.7C63.74 126.7 70.95 121.24 70.95 112.07V111.93C70.95 103.81 65.63 100.1 55.27 97.58C45.82 95.34 43.58 93.66 43.58 89.88V89.74C43.58 86.52 46.52 83.93 51.56 83.93C55.41 83.93 59.05 85.19 62.83 87.64C63.53 88.06 64.23 88.27 65.07 88.27C67.31 88.27 69.13 86.52 69.13 84.28C69.13 82.6 68.22 81.41 67.24 80.85C62.83 77.91 57.86 76.3 51.7 76.3C41.97 76.3 34.97 82.11 34.97 90.51V90.65C34.97 99.68 40.85 102.76 51.28 105.28C60.38 107.38 62.34 109.27 62.34 112.77V112.91C62.34 116.55 58.98 119.07 53.66 119.07C48.34 119.07 44 117.25 39.94 114.03C39.38 113.61 38.61 113.26 37.42 113.26C35.18 113.26 33.36 115.01 33.36 117.25C33.36 118.65 34.06 119.84 35.04 120.54C40.5 124.6 46.8 126.7 53.45 126.7ZM89.7248 122.08C89.7248 124.46 91.6148 126.35 93.9948 126.35C96.4448 126.35 98.3348 124.46 98.3348 122.08V106.75L115.065 83.86C115.695 83.02 116.255 81.97 116.255 80.78C116.255 78.47 114.575 76.58 112.055 76.58C110.235 76.58 108.975 77.63 107.925 79.17L94.0648 98.91L80.4148 79.24C79.3648 77.7 78.1048 76.65 76.2148 76.65C73.7648 76.65 71.8748 78.47 71.8748 80.78C71.8748 81.97 72.2948 82.95 72.8548 83.79L89.7248 106.96V122.08ZM121.175 122.15C121.175 124.53 122.995 126.35 125.375 126.35C127.755 126.35 129.645 124.53 129.645 122.15V92.82L141.545 110.67C142.455 112.07 143.575 112.91 145.115 112.91C146.725 112.91 147.845 112.07 148.755 110.67L160.725 92.68V122.08C160.725 124.39 162.685 126.35 164.995 126.35C167.445 126.35 169.335 124.46 169.335 122.08V81.06C169.335 78.68 167.445 76.72 164.995 76.72H164.085C162.335 76.72 161.075 77.49 160.165 78.96L145.255 102.27L130.415 79.03C129.575 77.7 128.315 76.72 126.425 76.72H125.515C123.065 76.72 121.175 78.68 121.175 81.06V122.15ZM178.446 122.08C178.446 124.46 180.336 126.35 182.786 126.35C185.166 126.35 187.056 124.46 187.056 122.08V110.25H196.786C207.566 110.25 216.386 104.51 216.386 93.52V93.38C216.386 83.51 209.246 77 197.766 77H182.786C180.336 77 178.446 78.89 178.446 81.34V122.08ZM187.056 102.48V84.84H197.066C203.506 84.84 207.636 87.85 207.636 93.59V93.73C207.636 98.84 203.576 102.48 197.066 102.48H187.056ZM221.704 122.08C221.704 124.46 223.594 126.35 226.044 126.35C228.424 126.35 230.314 124.46 230.314 122.08V105.35H253.694V122.08C253.694 124.46 255.584 126.35 257.964 126.35C260.414 126.35 262.304 124.46 262.304 122.08V80.92C262.304 78.54 260.414 76.65 257.964 76.65C255.584 76.65 253.694 78.54 253.694 80.92V97.37H230.314V80.92C230.314 78.54 228.424 76.65 226.044 76.65C223.594 76.65 221.704 78.54 221.704 80.92V122.08ZM294.768 126.84C309.818 126.84 320.458 115.29 320.458 101.5V101.36C320.458 87.57 309.958 76.16 294.908 76.16C279.858 76.16 269.218 87.71 269.218 101.5V101.64C269.218 115.43 279.718 126.84 294.768 126.84ZM294.908 118.86C285.178 118.86 278.248 111.02 278.248 101.5V101.36C278.248 91.84 285.038 84.07 294.768 84.07C304.498 84.07 311.428 91.98 311.428 101.5V101.64C311.428 111.16 304.638 118.86 294.908 118.86ZM327.361 122.15C327.361 124.46 329.251 126.35 331.631 126.35C333.941 126.35 335.831 124.46 335.831 122.15V91.07L361.031 123.69C362.221 125.23 363.481 126.28 365.511 126.28H365.861C368.241 126.28 370.061 124.39 370.061 122.01V80.85C370.061 78.54 368.171 76.65 365.791 76.65C363.481 76.65 361.591 78.54 361.591 80.85V110.95L337.091 79.24C335.901 77.77 334.711 76.72 332.611 76.72H331.701C329.251 76.72 327.361 78.68 327.361 81.06V122.15ZM379.653 122.08C379.653 124.46 381.543 126.35 383.993 126.35C386.373 126.35 388.263 124.46 388.263 122.08V80.92C388.263 78.54 386.373 76.65 383.993 76.65C381.543 76.65 379.653 78.54 379.653 80.92V122.08ZM420.63 126.84C428.54 126.84 433.79 124.32 438.41 120.26C439.18 119.56 439.81 118.51 439.81 117.18C439.81 115.01 437.92 113.19 435.75 113.19C434.7 113.19 433.79 113.61 433.16 114.17C429.59 117.18 426.09 118.86 420.91 118.86C411.53 118.86 404.74 111.09 404.74 101.5V101.36C404.74 91.77 411.6 84.07 420.91 84.07C425.6 84.07 429.24 85.75 432.6 88.48C433.16 88.9 434 89.32 435.19 89.32C437.57 89.32 439.46 87.5 439.46 85.12C439.46 83.58 438.69 82.39 437.78 81.69C433.51 78.4 428.54 76.16 420.98 76.16C406.14 76.16 395.71 87.57 395.71 101.5V101.64C395.71 115.71 406.35 126.84 420.63 126.84Z" fill="#FF0000"/>
<g filter="url(#filter0_f)">
<path d="M53.45 126.7C63.74 126.7 70.95 121.24 70.95 112.07V111.93C70.95 103.81 65.63 100.1 55.27 97.58C45.82 95.34 43.58 93.66 43.58 89.88V89.74C43.58 86.52 46.52 83.93 51.56 83.93C55.41 83.93 59.05 85.19 62.83 87.64C63.53 88.06 64.23 88.27 65.07 88.27C67.31 88.27 69.13 86.52 69.13 84.28C69.13 82.6 68.22 81.41 67.24 80.85C62.83 77.91 57.86 76.3 51.7 76.3C41.97 76.3 34.97 82.11 34.97 90.51V90.65C34.97 99.68 40.85 102.76 51.28 105.28C60.38 107.38 62.34 109.27 62.34 112.77V112.91C62.34 116.55 58.98 119.07 53.66 119.07C48.34 119.07 44 117.25 39.94 114.03C39.38 113.61 38.61 113.26 37.42 113.26C35.18 113.26 33.36 115.01 33.36 117.25C33.36 118.65 34.06 119.84 35.04 120.54C40.5 124.6 46.8 126.7 53.45 126.7ZM89.7248 122.08C89.7248 124.46 91.6148 126.35 93.9948 126.35C96.4448 126.35 98.3348 124.46 98.3348 122.08V106.75L115.065 83.86C115.695 83.02 116.255 81.97 116.255 80.78C116.255 78.47 114.575 76.58 112.055 76.58C110.235 76.58 108.975 77.63 107.925 79.17L94.0648 98.91L80.4148 79.24C79.3648 77.7 78.1048 76.65 76.2148 76.65C73.7648 76.65 71.8748 78.47 71.8748 80.78C71.8748 81.97 72.2948 82.95 72.8548 83.79L89.7248 106.96V122.08ZM121.175 122.15C121.175 124.53 122.995 126.35 125.375 126.35C127.755 126.35 129.645 124.53 129.645 122.15V92.82L141.545 110.67C142.455 112.07 143.575 112.91 145.115 112.91C146.725 112.91 147.845 112.07 148.755 110.67L160.725 92.68V122.08C160.725 124.39 162.685 126.35 164.995 126.35C167.445 126.35 169.335 124.46 169.335 122.08V81.06C169.335 78.68 167.445 76.72 164.995 76.72H164.085C162.335 76.72 161.075 77.49 160.165 78.96L145.255 102.27L130.415 79.03C129.575 77.7 128.315 76.72 126.425 76.72H125.515C123.065 76.72 121.175 78.68 121.175 81.06V122.15ZM178.446 122.08C178.446 124.46 180.336 126.35 182.786 126.35C185.166 126.35 187.056 124.46 187.056 122.08V110.25H196.786C207.566 110.25 216.386 104.51 216.386 93.52V93.38C216.386 83.51 209.246 77 197.766 77H182.786C180.336 77 178.446 78.89 178.446 81.34V122.08ZM187.056 102.48V84.84H197.066C203.506 84.84 207.636 87.85 207.636 93.59V93.73C207.636 98.84 203.576 102.48 197.066 102.48H187.056ZM221.704 122.08C221.704 124.46 223.594 126.35 226.044 126.35C228.424 126.35 230.314 124.46 230.314 122.08V105.35H253.694V122.08C253.694 124.46 255.584 126.35 257.964 126.35C260.414 126.35 262.304 124.46 262.304 122.08V80.92C262.304 78.54 260.414 76.65 257.964 76.65C255.584 76.65 253.694 78.54 253.694 80.92V97.37H230.314V80.92C230.314 78.54 228.424 76.65 226.044 76.65C223.594 76.65 221.704 78.54 221.704 80.92V122.08ZM294.768 126.84C309.818 126.84 320.458 115.29 320.458 101.5V101.36C320.458 87.57 309.958 76.16 294.908 76.16C279.858 76.16 269.218 87.71 269.218 101.5V101.64C269.218 115.43 279.718 126.84 294.768 126.84ZM294.908 118.86C285.178 118.86 278.248 111.02 278.248 101.5V101.36C278.248 91.84 285.038 84.07 294.768 84.07C304.498 84.07 311.428 91.98 311.428 101.5V101.64C311.428 111.16 304.638 118.86 294.908 118.86ZM327.361 122.15C327.361 124.46 329.251 126.35 331.631 126.35C333.941 126.35 335.831 124.46 335.831 122.15V91.07L361.031 123.69C362.221 125.23 363.481 126.28 365.511 126.28H365.861C368.241 126.28 370.061 124.39 370.061 122.01V80.85C370.061 78.54 368.171 76.65 365.791 76.65C363.481 76.65 361.591 78.54 361.591 80.85V110.95L337.091 79.24C335.901 77.77 334.711 76.72 332.611 76.72H331.701C329.251 76.72 327.361 78.68 327.361 81.06V122.15ZM379.653 122.08C379.653 124.46 381.543 126.35 383.993 126.35C386.373 126.35 388.263 124.46 388.263 122.08V80.92C388.263 78.54 386.373 76.65 383.993 76.65C381.543 76.65 379.653 78.54 379.653 80.92V122.08ZM420.63 126.84C428.54 126.84 433.79 124.32 438.41 120.26C439.18 119.56 439.81 118.51 439.81 117.18C439.81 115.01 437.92 113.19 435.75 113.19C434.7 113.19 433.79 113.61 433.16 114.17C429.59 117.18 426.09 118.86 420.91 118.86C411.53 118.86 404.74 111.09 404.74 101.5V101.36C404.74 91.77 411.6 84.07 420.91 84.07C425.6 84.07 429.24 85.75 432.6 88.48C433.16 88.9 434 89.32 435.19 89.32C437.57 89.32 439.46 87.5 439.46 85.12C439.46 83.58 438.69 82.39 437.78 81.69C433.51 78.4 428.54 76.16 420.98 76.16C406.14 76.16 395.71 87.57 395.71 101.5V101.64C395.71 115.71 406.35 126.84 420.63 126.84Z" fill="#FF0000"/>
</g>
<path d="M20.3 194.66C20.3 197.11 22.19 199 24.64 199H38.57C53.97 199 64.61 188.29 64.61 174.5V174.36C64.61 160.57 53.97 150 38.57 150H24.64C22.19 150 20.3 151.89 20.3 154.34V194.66ZM28.91 191.16V157.84H38.57C48.86 157.84 55.58 164.91 55.58 174.5V174.64C55.58 184.23 48.86 191.16 38.57 191.16H28.91ZM76.9459 177.93C77.7159 172.19 81.3559 168.2 86.5359 168.2C92.1359 168.2 95.3559 172.47 95.9159 177.93H76.9459ZM100.816 194.94C101.446 194.31 101.936 193.4 101.936 192.35C101.936 190.39 100.466 188.92 98.5759 188.92C97.5959 188.92 97.0359 189.2 96.4059 189.69C94.0259 191.65 91.2259 192.91 87.6559 192.91C82.1959 192.91 77.9259 189.55 77.0159 183.53H100.186C102.356 183.53 104.176 181.85 104.176 179.47C104.176 170.93 98.3659 161.27 86.6059 161.27C76.0359 161.27 68.5459 169.95 68.5459 180.52V180.66C68.5459 192.07 76.8059 199.84 87.5159 199.84C93.2559 199.84 97.4559 197.95 100.816 194.94ZM126.402 199.84C132.562 199.84 136.552 197.74 139.842 194.59C140.612 193.96 141.032 193.05 141.032 191.93C141.032 189.9 139.422 188.22 137.392 188.22C136.412 188.22 135.572 188.71 135.082 189.13C132.772 191.09 130.182 192.42 126.822 192.42C120.312 192.42 115.762 187.17 115.762 180.59V180.45C115.762 174.01 120.312 168.69 126.472 168.69C129.832 168.69 132.212 170.02 134.382 171.84C134.942 172.26 135.852 172.68 136.902 172.68C139.072 172.68 140.822 171 140.822 168.83C140.822 167.43 140.052 166.38 139.492 165.89C136.342 163.16 132.352 161.27 126.542 161.27C115.412 161.27 107.292 170.09 107.292 180.59V180.73C107.292 191.23 115.412 199.84 126.402 199.84ZM151.157 177.93C151.927 172.19 155.567 168.2 160.747 168.2C166.347 168.2 169.567 172.47 170.127 177.93H151.157ZM175.027 194.94C175.657 194.31 176.147 193.4 176.147 192.35C176.147 190.39 174.677 188.92 172.787 188.92C171.807 188.92 171.247 189.2 170.617 189.69C168.237 191.65 165.437 192.91 161.867 192.91C156.407 192.91 152.137 189.55 151.227 183.53H174.397C176.567 183.53 178.387 181.85 178.387 179.47C178.387 170.93 172.577 161.27 160.817 161.27C150.247 161.27 142.757 169.95 142.757 180.52V180.66C142.757 192.07 151.017 199.84 161.727 199.84C167.467 199.84 171.667 197.95 175.027 194.94ZM183.533 195.15C183.533 197.53 185.423 199.35 187.733 199.35C190.113 199.35 192.003 197.53 192.003 195.15V178.14C192.003 172.4 195.433 168.97 200.333 168.97C205.373 168.97 208.243 172.26 208.243 178V195.15C208.243 197.53 210.133 199.35 212.513 199.35C214.893 199.35 216.713 197.53 216.713 195.15V175.41C216.713 166.87 211.883 161.27 203.553 161.27C197.813 161.27 194.383 164.28 192.003 167.71V165.89C192.003 163.51 190.113 161.62 187.733 161.62C185.353 161.62 183.533 163.51 183.533 165.89V195.15ZM235.831 199.63C238.071 199.63 239.821 199.28 241.641 198.65C242.831 198.16 243.881 196.9 243.881 195.36C243.881 193.4 242.201 191.86 240.311 191.86C240.031 191.86 239.191 192.07 238.211 192.07C235.341 192.07 233.661 190.74 233.661 187.45V169.32H240.311C242.341 169.32 244.021 167.71 244.021 165.68C244.021 163.65 242.341 162.04 240.311 162.04H233.661V155.74C233.661 153.43 231.771 151.54 229.461 151.54C227.081 151.54 225.191 153.43 225.191 155.74V162.04H223.791C221.761 162.04 220.151 163.65 220.151 165.68C220.151 167.71 221.761 169.32 223.791 169.32H225.191V188.78C225.191 196.9 229.601 199.63 235.831 199.63ZM248.72 195.15C248.72 197.53 250.61 199.35 252.92 199.35C255.3 199.35 257.19 197.46 257.19 195.15V184.23C257.19 175.48 261.32 170.86 267.34 169.81C269.23 169.46 270.7 167.99 270.7 165.75C270.7 163.3 269.16 161.55 266.5 161.55C262.79 161.55 259.15 165.05 257.19 169.67V165.89C257.19 163.51 255.3 161.62 252.92 161.62C250.54 161.62 248.72 163.51 248.72 165.89V195.15ZM282.999 199.77C288.669 199.77 292.519 197.39 295.039 194.38V195.78C295.039 197.67 296.719 199.35 299.169 199.35C301.479 199.35 303.299 197.6 303.299 195.29V177.09C303.299 172.26 302.039 168.34 299.309 165.68C296.719 163.02 292.589 161.55 287.059 161.55C282.229 161.55 278.659 162.39 275.159 163.72C273.899 164.21 272.849 165.54 272.849 167.08C272.849 169.04 274.459 170.58 276.419 170.58C276.839 170.58 277.259 170.51 277.749 170.37C280.059 169.46 282.719 168.9 285.939 168.9C291.889 168.9 295.109 171.7 295.109 176.95V177.86C292.239 176.95 289.299 176.32 285.169 176.32C276.139 176.32 269.909 180.24 269.909 188.22V188.36C269.909 195.78 276.069 199.77 282.999 199.77ZM285.379 193.61C281.319 193.61 278.169 191.58 278.169 188.01V187.87C278.169 184.02 281.389 181.71 286.849 181.71C290.209 181.71 293.079 182.34 295.249 183.18V185.7C295.249 190.39 290.979 193.61 285.379 193.61ZM310.433 195.15C310.433 197.53 312.323 199.35 314.633 199.35C317.013 199.35 318.903 197.53 318.903 195.15V151.75C318.903 149.44 317.013 147.55 314.633 147.55C312.253 147.55 310.433 149.44 310.433 151.75V195.15ZM326.332 152.52C326.332 155.04 328.432 156.72 331.162 156.72C333.892 156.72 335.992 155.04 335.992 152.52V152.1C335.992 149.58 333.892 147.97 331.162 147.97C328.432 147.97 326.332 149.58 326.332 152.1V152.52ZM326.962 195.15C326.962 197.53 328.852 199.35 331.162 199.35C333.542 199.35 335.432 197.53 335.432 195.15V165.89C335.432 163.51 333.542 161.62 331.162 161.62C328.782 161.62 326.962 163.51 326.962 165.89V195.15ZM345.242 199H370.302C372.262 199 373.802 197.46 373.802 195.57C373.802 193.61 372.262 192.07 370.302 192.07H352.102L371.842 169.67C373.102 168.27 373.662 167.22 373.662 165.61V165.4C373.662 163.44 371.912 162.04 369.602 162.04H345.242C343.282 162.04 341.742 163.58 341.742 165.54C341.742 167.43 343.282 168.97 345.242 168.97H362.672L343.002 191.37C341.672 192.77 341.112 193.82 341.112 195.43V195.57C341.112 197.53 342.862 199 345.242 199ZM384.016 177.93C384.786 172.19 388.426 168.2 393.606 168.2C399.206 168.2 402.426 172.47 402.986 177.93H384.016ZM407.886 194.94C408.516 194.31 409.006 193.4 409.006 192.35C409.006 190.39 407.536 188.92 405.646 188.92C404.666 188.92 404.106 189.2 403.476 189.69C401.096 191.65 398.296 192.91 394.726 192.91C389.266 192.91 384.996 189.55 384.086 183.53H407.256C409.426 183.53 411.246 181.85 411.246 179.47C411.246 170.93 405.436 161.27 393.676 161.27C383.106 161.27 375.616 169.95 375.616 180.52V180.66C375.616 192.07 383.876 199.84 394.586 199.84C400.326 199.84 404.526 197.95 407.886 194.94ZM452.722 151.75C452.722 149.37 450.832 147.55 448.452 147.55C446.142 147.55 444.252 149.37 444.252 151.75V167.78C441.592 164.28 437.742 161.27 431.652 161.27C422.832 161.27 414.502 168.2 414.502 180.45V180.59C414.502 192.84 422.972 199.77 431.652 199.77C437.672 199.77 441.522 196.69 444.252 192.84V195.15C444.252 197.53 446.142 199.35 448.522 199.35C450.832 199.35 452.722 197.53 452.722 195.15V151.75ZM433.682 168.62C439.352 168.62 444.392 173.31 444.392 180.45V180.59C444.392 187.66 439.352 192.42 433.682 192.42C427.942 192.42 423.042 187.73 423.042 180.59V180.45C423.042 173.1 427.872 168.62 433.682 168.62Z" fill="black"/>
<path d="M20.3 189.66C20.3 192.11 22.19 194 24.64 194H38.57C53.97 194 64.61 183.29 64.61 169.5V169.36C64.61 155.57 53.97 145 38.57 145H24.64C22.19 145 20.3 146.89 20.3 149.34V189.66ZM28.91 186.16V152.84H38.57C48.86 152.84 55.58 159.91 55.58 169.5V169.64C55.58 179.23 48.86 186.16 38.57 186.16H28.91ZM76.9459 172.93C77.7159 167.19 81.3559 163.2 86.5359 163.2C92.1359 163.2 95.3559 167.47 95.9159 172.93H76.9459ZM100.816 189.94C101.446 189.31 101.936 188.4 101.936 187.35C101.936 185.39 100.466 183.92 98.5759 183.92C97.5959 183.92 97.0359 184.2 96.4059 184.69C94.0259 186.65 91.2259 187.91 87.6559 187.91C82.1959 187.91 77.9259 184.55 77.0159 178.53H100.186C102.356 178.53 104.176 176.85 104.176 174.47C104.176 165.93 98.3659 156.27 86.6059 156.27C76.0359 156.27 68.5459 164.95 68.5459 175.52V175.66C68.5459 187.07 76.8059 194.84 87.5159 194.84C93.2559 194.84 97.4559 192.95 100.816 189.94ZM126.402 194.84C132.562 194.84 136.552 192.74 139.842 189.59C140.612 188.96 141.032 188.05 141.032 186.93C141.032 184.9 139.422 183.22 137.392 183.22C136.412 183.22 135.572 183.71 135.082 184.13C132.772 186.09 130.182 187.42 126.822 187.42C120.312 187.42 115.762 182.17 115.762 175.59V175.45C115.762 169.01 120.312 163.69 126.472 163.69C129.832 163.69 132.212 165.02 134.382 166.84C134.942 167.26 135.852 167.68 136.902 167.68C139.072 167.68 140.822 166 140.822 163.83C140.822 162.43 140.052 161.38 139.492 160.89C136.342 158.16 132.352 156.27 126.542 156.27C115.412 156.27 107.292 165.09 107.292 175.59V175.73C107.292 186.23 115.412 194.84 126.402 194.84ZM151.157 172.93C151.927 167.19 155.567 163.2 160.747 163.2C166.347 163.2 169.567 167.47 170.127 172.93H151.157ZM175.027 189.94C175.657 189.31 176.147 188.4 176.147 187.35C176.147 185.39 174.677 183.92 172.787 183.92C171.807 183.92 171.247 184.2 170.617 184.69C168.237 186.65 165.437 187.91 161.867 187.91C156.407 187.91 152.137 184.55 151.227 178.53H174.397C176.567 178.53 178.387 176.85 178.387 174.47C178.387 165.93 172.577 156.27 160.817 156.27C150.247 156.27 142.757 164.95 142.757 175.52V175.66C142.757 187.07 151.017 194.84 161.727 194.84C167.467 194.84 171.667 192.95 175.027 189.94ZM183.533 190.15C183.533 192.53 185.423 194.35 187.733 194.35C190.113 194.35 192.003 192.53 192.003 190.15V173.14C192.003 167.4 195.433 163.97 200.333 163.97C205.373 163.97 208.243 167.26 208.243 173V190.15C208.243 192.53 210.133 194.35 212.513 194.35C214.893 194.35 216.713 192.53 216.713 190.15V170.41C216.713 161.87 211.883 156.27 203.553 156.27C197.813 156.27 194.383 159.28 192.003 162.71V160.89C192.003 158.51 190.113 156.62 187.733 156.62C185.353 156.62 183.533 158.51 183.533 160.89V190.15ZM235.831 194.63C238.071 194.63 239.821 194.28 241.641 193.65C242.831 193.16 243.881 191.9 243.881 190.36C243.881 188.4 242.201 186.86 240.311 186.86C240.031 186.86 239.191 187.07 238.211 187.07C235.341 187.07 233.661 185.74 233.661 182.45V164.32H240.311C242.341 164.32 244.021 162.71 244.021 160.68C244.021 158.65 242.341 157.04 240.311 157.04H233.661V150.74C233.661 148.43 231.771 146.54 229.461 146.54C227.081 146.54 225.191 148.43 225.191 150.74V157.04H223.791C221.761 157.04 220.151 158.65 220.151 160.68C220.151 162.71 221.761 164.32 223.791 164.32H225.191V183.78C225.191 191.9 229.601 194.63 235.831 194.63ZM248.72 190.15C248.72 192.53 250.61 194.35 252.92 194.35C255.3 194.35 257.19 192.46 257.19 190.15V179.23C257.19 170.48 261.32 165.86 267.34 164.81C269.23 164.46 270.7 162.99 270.7 160.75C270.7 158.3 269.16 156.55 266.5 156.55C262.79 156.55 259.15 160.05 257.19 164.67V160.89C257.19 158.51 255.3 156.62 252.92 156.62C250.54 156.62 248.72 158.51 248.72 160.89V190.15ZM282.999 194.77C288.669 194.77 292.519 192.39 295.039 189.38V190.78C295.039 192.67 296.719 194.35 299.169 194.35C301.479 194.35 303.299 192.6 303.299 190.29V172.09C303.299 167.26 302.039 163.34 299.309 160.68C296.719 158.02 292.589 156.55 287.059 156.55C282.229 156.55 278.659 157.39 275.159 158.72C273.899 159.21 272.849 160.54 272.849 162.08C272.849 164.04 274.459 165.58 276.419 165.58C276.839 165.58 277.259 165.51 277.749 165.37C280.059 164.46 282.719 163.9 285.939 163.9C291.889 163.9 295.109 166.7 295.109 171.95V172.86C292.239 171.95 289.299 171.32 285.169 171.32C276.139 171.32 269.909 175.24 269.909 183.22V183.36C269.909 190.78 276.069 194.77 282.999 194.77ZM285.379 188.61C281.319 188.61 278.169 186.58 278.169 183.01V182.87C278.169 179.02 281.389 176.71 286.849 176.71C290.209 176.71 293.079 177.34 295.249 178.18V180.7C295.249 185.39 290.979 188.61 285.379 188.61ZM310.433 190.15C310.433 192.53 312.323 194.35 314.633 194.35C317.013 194.35 318.903 192.53 318.903 190.15V146.75C318.903 144.44 317.013 142.55 314.633 142.55C312.253 142.55 310.433 144.44 310.433 146.75V190.15ZM326.332 147.52C326.332 150.04 328.432 151.72 331.162 151.72C333.892 151.72 335.992 150.04 335.992 147.52V147.1C335.992 144.58 333.892 142.97 331.162 142.97C328.432 142.97 326.332 144.58 326.332 147.1V147.52ZM326.962 190.15C326.962 192.53 328.852 194.35 331.162 194.35C333.542 194.35 335.432 192.53 335.432 190.15V160.89C335.432 158.51 333.542 156.62 331.162 156.62C328.782 156.62 326.962 158.51 326.962 160.89V190.15ZM345.242 194H370.302C372.262 194 373.802 192.46 373.802 190.57C373.802 188.61 372.262 187.07 370.302 187.07H352.102L371.842 164.67C373.102 163.27 373.662 162.22 373.662 160.61V160.4C373.662 158.44 371.912 157.04 369.602 157.04H345.242C343.282 157.04 341.742 158.58 341.742 160.54C341.742 162.43 343.282 163.97 345.242 163.97H362.672L343.002 186.37C341.672 187.77 341.112 188.82 341.112 190.43V190.57C341.112 192.53 342.862 194 345.242 194ZM384.016 172.93C384.786 167.19 388.426 163.2 393.606 163.2C399.206 163.2 402.426 167.47 402.986 172.93H384.016ZM407.886 189.94C408.516 189.31 409.006 188.4 409.006 187.35C409.006 185.39 407.536 183.92 405.646 183.92C404.666 183.92 404.106 184.2 403.476 184.69C401.096 186.65 398.296 187.91 394.726 187.91C389.266 187.91 384.996 184.55 384.086 178.53H407.256C409.426 178.53 411.246 176.85 411.246 174.47C411.246 165.93 405.436 156.27 393.676 156.27C383.106 156.27 375.616 164.95 375.616 175.52V175.66C375.616 187.07 383.876 194.84 394.586 194.84C400.326 194.84 404.526 192.95 407.886 189.94ZM452.722 146.75C452.722 144.37 450.832 142.55 448.452 142.55C446.142 142.55 444.252 144.37 444.252 146.75V162.78C441.592 159.28 437.742 156.27 431.652 156.27C422.832 156.27 414.502 163.2 414.502 175.45V175.59C414.502 187.84 422.972 194.77 431.652 194.77C437.672 194.77 441.522 191.69 444.252 187.84V190.15C444.252 192.53 446.142 194.35 448.522 194.35C450.832 194.35 452.722 192.53 452.722 190.15V146.75ZM433.682 163.62C439.352 163.62 444.392 168.31 444.392 175.45V175.59C444.392 182.66 439.352 187.42 433.682 187.42C427.942 187.42 423.042 182.73 423.042 175.59V175.45C423.042 168.1 427.872 163.62 433.682 163.62Z" fill="#00E59D"/>
<g filter="url(#filter1_f)">
<path d="M20.3 189.66C20.3 192.11 22.19 194 24.64 194H38.57C53.97 194 64.61 183.29 64.61 169.5V169.36C64.61 155.57 53.97 145 38.57 145H24.64C22.19 145 20.3 146.89 20.3 149.34V189.66ZM28.91 186.16V152.84H38.57C48.86 152.84 55.58 159.91 55.58 169.5V169.64C55.58 179.23 48.86 186.16 38.57 186.16H28.91ZM76.9459 172.93C77.7159 167.19 81.3559 163.2 86.5359 163.2C92.1359 163.2 95.3559 167.47 95.9159 172.93H76.9459ZM100.816 189.94C101.446 189.31 101.936 188.4 101.936 187.35C101.936 185.39 100.466 183.92 98.5759 183.92C97.5959 183.92 97.0359 184.2 96.4059 184.69C94.0259 186.65 91.2259 187.91 87.6559 187.91C82.1959 187.91 77.9259 184.55 77.0159 178.53H100.186C102.356 178.53 104.176 176.85 104.176 174.47C104.176 165.93 98.3659 156.27 86.6059 156.27C76.0359 156.27 68.5459 164.95 68.5459 175.52V175.66C68.5459 187.07 76.8059 194.84 87.5159 194.84C93.2559 194.84 97.4559 192.95 100.816 189.94ZM126.402 194.84C132.562 194.84 136.552 192.74 139.842 189.59C140.612 188.96 141.032 188.05 141.032 186.93C141.032 184.9 139.422 183.22 137.392 183.22C136.412 183.22 135.572 183.71 135.082 184.13C132.772 186.09 130.182 187.42 126.822 187.42C120.312 187.42 115.762 182.17 115.762 175.59V175.45C115.762 169.01 120.312 163.69 126.472 163.69C129.832 163.69 132.212 165.02 134.382 166.84C134.942 167.26 135.852 167.68 136.902 167.68C139.072 167.68 140.822 166 140.822 163.83C140.822 162.43 140.052 161.38 139.492 160.89C136.342 158.16 132.352 156.27 126.542 156.27C115.412 156.27 107.292 165.09 107.292 175.59V175.73C107.292 186.23 115.412 194.84 126.402 194.84ZM151.157 172.93C151.927 167.19 155.567 163.2 160.747 163.2C166.347 163.2 169.567 167.47 170.127 172.93H151.157ZM175.027 189.94C175.657 189.31 176.147 188.4 176.147 187.35C176.147 185.39 174.677 183.92 172.787 183.92C171.807 183.92 171.247 184.2 170.617 184.69C168.237 186.65 165.437 187.91 161.867 187.91C156.407 187.91 152.137 184.55 151.227 178.53H174.397C176.567 178.53 178.387 176.85 178.387 174.47C178.387 165.93 172.577 156.27 160.817 156.27C150.247 156.27 142.757 164.95 142.757 175.52V175.66C142.757 187.07 151.017 194.84 161.727 194.84C167.467 194.84 171.667 192.95 175.027 189.94ZM183.533 190.15C183.533 192.53 185.423 194.35 187.733 194.35C190.113 194.35 192.003 192.53 192.003 190.15V173.14C192.003 167.4 195.433 163.97 200.333 163.97C205.373 163.97 208.243 167.26 208.243 173V190.15C208.243 192.53 210.133 194.35 212.513 194.35C214.893 194.35 216.713 192.53 216.713 190.15V170.41C216.713 161.87 211.883 156.27 203.553 156.27C197.813 156.27 194.383 159.28 192.003 162.71V160.89C192.003 158.51 190.113 156.62 187.733 156.62C185.353 156.62 183.533 158.51 183.533 160.89V190.15ZM235.831 194.63C238.071 194.63 239.821 194.28 241.641 193.65C242.831 193.16 243.881 191.9 243.881 190.36C243.881 188.4 242.201 186.86 240.311 186.86C240.031 186.86 239.191 187.07 238.211 187.07C235.341 187.07 233.661 185.74 233.661 182.45V164.32H240.311C242.341 164.32 244.021 162.71 244.021 160.68C244.021 158.65 242.341 157.04 240.311 157.04H233.661V150.74C233.661 148.43 231.771 146.54 229.461 146.54C227.081 146.54 225.191 148.43 225.191 150.74V157.04H223.791C221.761 157.04 220.151 158.65 220.151 160.68C220.151 162.71 221.761 164.32 223.791 164.32H225.191V183.78C225.191 191.9 229.601 194.63 235.831 194.63ZM248.72 190.15C248.72 192.53 250.61 194.35 252.92 194.35C255.3 194.35 257.19 192.46 257.19 190.15V179.23C257.19 170.48 261.32 165.86 267.34 164.81C269.23 164.46 270.7 162.99 270.7 160.75C270.7 158.3 269.16 156.55 266.5 156.55C262.79 156.55 259.15 160.05 257.19 164.67V160.89C257.19 158.51 255.3 156.62 252.92 156.62C250.54 156.62 248.72 158.51 248.72 160.89V190.15ZM282.999 194.77C288.669 194.77 292.519 192.39 295.039 189.38V190.78C295.039 192.67 296.719 194.35 299.169 194.35C301.479 194.35 303.299 192.6 303.299 190.29V172.09C303.299 167.26 302.039 163.34 299.309 160.68C296.719 158.02 292.589 156.55 287.059 156.55C282.229 156.55 278.659 157.39 275.159 158.72C273.899 159.21 272.849 160.54 272.849 162.08C272.849 164.04 274.459 165.58 276.419 165.58C276.839 165.58 277.259 165.51 277.749 165.37C280.059 164.46 282.719 163.9 285.939 163.9C291.889 163.9 295.109 166.7 295.109 171.95V172.86C292.239 171.95 289.299 171.32 285.169 171.32C276.139 171.32 269.909 175.24 269.909 183.22V183.36C269.909 190.78 276.069 194.77 282.999 194.77ZM285.379 188.61C281.319 188.61 278.169 186.58 278.169 183.01V182.87C278.169 179.02 281.389 176.71 286.849 176.71C290.209 176.71 293.079 177.34 295.249 178.18V180.7C295.249 185.39 290.979 188.61 285.379 188.61ZM310.433 190.15C310.433 192.53 312.323 194.35 314.633 194.35C317.013 194.35 318.903 192.53 318.903 190.15V146.75C318.903 144.44 317.013 142.55 314.633 142.55C312.253 142.55 310.433 144.44 310.433 146.75V190.15ZM326.332 147.52C326.332 150.04 328.432 151.72 331.162 151.72C333.892 151.72 335.992 150.04 335.992 147.52V147.1C335.992 144.58 333.892 142.97 331.162 142.97C328.432 142.97 326.332 144.58 326.332 147.1V147.52ZM326.962 190.15C326.962 192.53 328.852 194.35 331.162 194.35C333.542 194.35 335.432 192.53 335.432 190.15V160.89C335.432 158.51 333.542 156.62 331.162 156.62C328.782 156.62 326.962 158.51 326.962 160.89V190.15ZM345.242 194H370.302C372.262 194 373.802 192.46 373.802 190.57C373.802 188.61 372.262 187.07 370.302 187.07H352.102L371.842 164.67C373.102 163.27 373.662 162.22 373.662 160.61V160.4C373.662 158.44 371.912 157.04 369.602 157.04H345.242C343.282 157.04 341.742 158.58 341.742 160.54C341.742 162.43 343.282 163.97 345.242 163.97H362.672L343.002 186.37C341.672 187.77 341.112 188.82 341.112 190.43V190.57C341.112 192.53 342.862 194 345.242 194ZM384.016 172.93C384.786 167.19 388.426 163.2 393.606 163.2C399.206 163.2 402.426 167.47 402.986 172.93H384.016ZM407.886 189.94C408.516 189.31 409.006 188.4 409.006 187.35C409.006 185.39 407.536 183.92 405.646 183.92C404.666 183.92 404.106 184.2 403.476 184.69C401.096 186.65 398.296 187.91 394.726 187.91C389.266 187.91 384.996 184.55 384.086 178.53H407.256C409.426 178.53 411.246 176.85 411.246 174.47C411.246 165.93 405.436 156.27 393.676 156.27C383.106 156.27 375.616 164.95 375.616 175.52V175.66C375.616 187.07 383.876 194.84 394.586 194.84C400.326 194.84 404.526 192.95 407.886 189.94ZM452.722 146.75C452.722 144.37 450.832 142.55 448.452 142.55C446.142 142.55 444.252 144.37 444.252 146.75V162.78C441.592 159.28 437.742 156.27 431.652 156.27C422.832 156.27 414.502 163.2 414.502 175.45V175.59C414.502 187.84 422.972 194.77 431.652 194.77C437.672 194.77 441.522 191.69 444.252 187.84V190.15C444.252 192.53 446.142 194.35 448.522 194.35C450.832 194.35 452.722 192.53 452.722 190.15V146.75ZM433.682 163.62C439.352 163.62 444.392 168.31 444.392 175.45V175.59C444.392 182.66 439.352 187.42 433.682 187.42C427.942 187.42 423.042 182.73 423.042 175.59V175.45C423.042 168.1 427.872 163.62 433.682 163.62Z" fill="#00E59D"/>
</g>
<path d="M67.492 249.984C67.492 251.208 68.464 252.18 69.724 252.18C70.948 252.18 71.92 251.208 71.92 249.984V228.816C71.92 227.592 70.948 226.62 69.724 226.62C68.464 226.62 67.492 227.592 67.492 228.816V249.984ZM76.3618 250.02C76.3618 251.244 77.3338 252.18 78.5218 252.18C79.7458 252.18 80.7178 251.244 80.7178 250.02V241.272C80.7178 238.32 82.4818 236.556 85.0018 236.556C87.5938 236.556 89.0698 238.248 89.0698 241.2V250.02C89.0698 251.244 90.0418 252.18 91.2658 252.18C92.4898 252.18 93.4258 251.244 93.4258 250.02V239.868C93.4258 235.476 90.9418 232.596 86.6578 232.596C83.7058 232.596 81.9418 234.144 80.7178 235.908V234.972C80.7178 233.748 79.7458 232.776 78.5218 232.776C77.2978 232.776 76.3618 233.748 76.3618 234.972V250.02ZM106.833 250.452L113.169 235.908C113.277 235.692 113.421 235.26 113.421 234.864C113.421 233.676 112.485 232.776 111.297 232.776C110.145 232.776 109.569 233.532 109.245 234.288L104.277 246.96L99.381 234.36C99.021 233.46 98.409 232.776 97.221 232.776C96.033 232.776 95.061 233.784 95.061 234.864C95.061 235.26 95.205 235.62 95.313 235.944L101.649 250.452C102.153 251.604 102.945 252.36 104.133 252.36H104.349C105.537 252.36 106.329 251.568 106.833 250.452ZM118.296 241.164C118.692 238.212 120.564 236.16 123.228 236.16C126.108 236.16 127.764 238.356 128.052 241.164H118.296ZM130.572 249.912C130.896 249.588 131.148 249.12 131.148 248.58C131.148 247.572 130.392 246.816 129.42 246.816C128.916 246.816 128.628 246.96 128.304 247.212C127.08 248.22 125.64 248.868 123.804 248.868C120.996 248.868 118.8 247.14 118.332 244.044H130.248C131.364 244.044 132.3 243.18 132.3 241.956C132.3 237.564 129.312 232.596 123.264 232.596C117.828 232.596 113.976 237.06 113.976 242.496V242.568C113.976 248.436 118.224 252.432 123.732 252.432C126.684 252.432 128.844 251.46 130.572 249.912ZM141.462 252.36C145.422 252.36 148.518 250.38 148.518 246.384V246.312C148.518 242.892 145.386 241.632 142.614 240.768C140.382 240.048 138.33 239.472 138.33 238.068V237.996C138.33 236.916 139.302 236.124 140.994 236.124C142.326 236.124 143.91 236.628 145.458 237.42C145.746 237.564 145.962 237.636 146.322 237.636C147.33 237.636 148.122 236.88 148.122 235.872C148.122 235.116 147.69 234.54 147.078 234.216C145.242 233.244 143.118 232.668 141.102 232.668C137.322 232.668 134.334 234.864 134.334 238.464V238.536C134.334 242.172 137.466 243.324 140.274 244.116C142.506 244.8 144.522 245.304 144.522 246.78V246.852C144.522 248.112 143.442 248.904 141.57 248.904C139.842 248.904 137.934 248.292 136.098 247.068C135.846 246.924 135.522 246.816 135.162 246.816C134.154 246.816 133.398 247.608 133.398 248.58C133.398 249.3 133.758 249.84 134.226 250.092C136.422 251.604 139.05 252.36 141.462 252.36ZM157.202 252.324C158.354 252.324 159.254 252.144 160.19 251.82C160.802 251.568 161.342 250.92 161.342 250.128C161.342 249.12 160.478 248.328 159.506 248.328C159.362 248.328 158.93 248.436 158.426 248.436C156.95 248.436 156.086 247.752 156.086 246.06V236.736H159.506C160.55 236.736 161.414 235.908 161.414 234.864C161.414 233.82 160.55 232.992 159.506 232.992H156.086V229.752C156.086 228.564 155.114 227.592 153.926 227.592C152.702 227.592 151.73 228.564 151.73 229.752V232.992H151.01C149.966 232.992 149.138 233.82 149.138 234.864C149.138 235.908 149.966 236.736 151.01 236.736H151.73V246.744C151.73 250.92 153.998 252.324 157.202 252.324ZM163.831 250.02C163.831 251.244 164.803 252.18 165.991 252.18C167.215 252.18 168.187 251.244 168.187 250.02V241.272C168.187 238.356 169.843 236.556 172.255 236.556C174.667 236.556 176.107 238.212 176.107 241.164V250.02C176.107 251.244 177.079 252.18 178.303 252.18C179.491 252.18 180.463 251.244 180.463 250.02V241.272C180.463 238.212 182.155 236.556 184.531 236.556C186.979 236.556 188.383 238.176 188.383 241.2V250.02C188.383 251.244 189.355 252.18 190.579 252.18C191.803 252.18 192.739 251.244 192.739 250.02V239.868C192.739 235.224 190.219 232.596 186.079 232.596C183.199 232.596 181.183 233.928 179.671 235.944C178.663 233.928 176.719 232.596 173.983 232.596C171.067 232.596 169.411 234.18 168.187 235.872V234.972C168.187 233.748 167.215 232.776 165.991 232.776C164.767 232.776 163.831 233.748 163.831 234.972V250.02ZM199.514 241.164C199.91 238.212 201.782 236.16 204.446 236.16C207.326 236.16 208.982 238.356 209.27 241.164H199.514ZM211.79 249.912C212.114 249.588 212.366 249.12 212.366 248.58C212.366 247.572 211.61 246.816 210.638 246.816C210.134 246.816 209.846 246.96 209.522 247.212C208.298 248.22 206.858 248.868 205.022 248.868C202.214 248.868 200.018 247.14 199.55 244.044H211.466C212.582 244.044 213.518 243.18 213.518 241.956C213.518 237.564 210.53 232.596 204.482 232.596C199.046 232.596 195.194 237.06 195.194 242.496V242.568C195.194 248.436 199.442 252.432 204.95 252.432C207.902 252.432 210.062 251.46 211.79 249.912ZM216.164 250.02C216.164 251.244 217.136 252.18 218.324 252.18C219.548 252.18 220.52 251.244 220.52 250.02V241.272C220.52 238.32 222.284 236.556 224.804 236.556C227.396 236.556 228.872 238.248 228.872 241.2V250.02C228.872 251.244 229.844 252.18 231.068 252.18C232.292 252.18 233.228 251.244 233.228 250.02V239.868C233.228 235.476 230.744 232.596 226.46 232.596C223.508 232.596 221.744 234.144 220.52 235.908V234.972C220.52 233.748 219.548 232.776 218.324 232.776C217.1 232.776 216.164 233.748 216.164 234.972V250.02ZM243.06 252.324C244.212 252.324 245.112 252.144 246.048 251.82C246.66 251.568 247.2 250.92 247.2 250.128C247.2 249.12 246.336 248.328 245.364 248.328C245.22 248.328 244.788 248.436 244.284 248.436C242.808 248.436 241.944 247.752 241.944 246.06V236.736H245.364C246.408 236.736 247.272 235.908 247.272 234.864C247.272 233.82 246.408 232.992 245.364 232.992H241.944V229.752C241.944 228.564 240.972 227.592 239.784 227.592C238.56 227.592 237.588 228.564 237.588 229.752V232.992H236.868C235.824 232.992 234.996 233.82 234.996 234.864C234.996 235.908 235.824 236.736 236.868 236.736H237.588V246.744C237.588 250.92 239.856 252.324 243.06 252.324ZM259.186 249.984C259.186 251.208 260.158 252.18 261.418 252.18C262.642 252.18 263.614 251.208 263.614 249.984V243.9H268.618C274.162 243.9 278.698 240.948 278.698 235.296V235.224C278.698 230.148 275.026 226.8 269.122 226.8H261.418C260.158 226.8 259.186 227.772 259.186 229.032V249.984ZM263.614 239.904V230.832H268.762C272.074 230.832 274.198 232.38 274.198 235.332V235.404C274.198 238.032 272.11 239.904 268.762 239.904H263.614ZM281.181 250.02C281.181 251.244 282.153 252.18 283.341 252.18C284.565 252.18 285.537 251.244 285.537 250.02V227.7C285.537 226.512 284.565 225.54 283.341 225.54C282.117 225.54 281.181 226.512 281.181 227.7V250.02ZM294.902 252.396C297.818 252.396 299.798 251.172 301.094 249.624V250.344C301.094 251.316 301.958 252.18 303.218 252.18C304.406 252.18 305.342 251.28 305.342 250.092V240.732C305.342 238.248 304.694 236.232 303.29 234.864C301.958 233.496 299.834 232.74 296.99 232.74C294.506 232.74 292.67 233.172 290.87 233.856C290.222 234.108 289.682 234.792 289.682 235.584C289.682 236.592 290.51 237.384 291.518 237.384C291.734 237.384 291.95 237.348 292.202 237.276C293.39 236.808 294.758 236.52 296.414 236.52C299.474 236.52 301.13 237.96 301.13 240.66V241.128C299.654 240.66 298.142 240.336 296.018 240.336C291.374 240.336 288.17 242.352 288.17 246.456V246.528C288.17 250.344 291.338 252.396 294.902 252.396ZM296.126 249.228C294.038 249.228 292.418 248.184 292.418 246.348V246.276C292.418 244.296 294.074 243.108 296.882 243.108C298.61 243.108 300.086 243.432 301.202 243.864V245.16C301.202 247.572 299.006 249.228 296.126 249.228ZM314.955 252.324C316.107 252.324 317.007 252.144 317.943 251.82C318.555 251.568 319.095 250.92 319.095 250.128C319.095 249.12 318.231 248.328 317.259 248.328C317.115 248.328 316.683 248.436 316.179 248.436C314.703 248.436 313.839 247.752 313.839 246.06V236.736H317.259C318.303 236.736 319.167 235.908 319.167 234.864C319.167 233.82 318.303 232.992 317.259 232.992H313.839V229.752C313.839 228.564 312.867 227.592 311.679 227.592C310.455 227.592 309.483 228.564 309.483 229.752V232.992H308.763C307.719 232.992 306.891 233.82 306.891 234.864C306.891 235.908 307.719 236.736 308.763 236.736H309.483V246.744C309.483 250.92 311.751 252.324 314.955 252.324ZM322.556 250.02C322.556 251.208 323.528 252.18 324.716 252.18C325.94 252.18 326.912 251.208 326.912 250.02V236.736H330.224C331.232 236.736 332.06 235.944 332.06 234.936C332.06 233.928 331.268 233.136 330.224 233.136H326.84V232.092C326.84 230.112 327.704 229.212 329.36 229.212C329.648 229.212 330.008 229.248 330.26 229.284C331.268 229.32 332.096 228.492 332.096 227.484C332.096 226.512 331.376 225.792 330.584 225.684C329.972 225.576 329.252 225.504 328.388 225.504C326.516 225.504 325.112 226.008 324.104 227.016C323.096 228.024 322.556 229.608 322.556 231.696V233.1H321.8C320.792 233.1 319.964 233.928 319.964 234.936C319.964 235.944 320.792 236.736 321.8 236.736H322.556V250.02ZM342.003 252.432C347.871 252.432 352.191 247.932 352.191 242.532V242.46C352.191 237.024 347.907 232.596 342.075 232.596C336.243 232.596 331.923 237.096 331.923 242.532V242.604C331.923 248.004 336.207 252.432 342.003 252.432ZM342.075 248.616C338.691 248.616 336.279 245.844 336.279 242.532V242.46C336.279 239.148 338.511 236.412 342.003 236.412C345.423 236.412 347.835 239.184 347.835 242.532V242.604C347.835 245.88 345.603 248.616 342.075 248.616ZM354.827 250.02C354.827 251.244 355.799 252.18 356.987 252.18C358.211 252.18 359.183 251.208 359.183 250.02V244.404C359.183 239.904 361.307 237.528 364.403 236.988C365.375 236.808 366.131 236.052 366.131 234.9C366.131 233.64 365.339 232.74 363.971 232.74C362.063 232.74 360.191 234.54 359.183 236.916V234.972C359.183 233.748 358.211 232.776 356.987 232.776C355.763 232.776 354.827 233.748 354.827 234.972V250.02ZM367.899 250.02C367.899 251.244 368.871 252.18 370.059 252.18C371.283 252.18 372.255 251.244 372.255 250.02V241.272C372.255 238.356 373.911 236.556 376.323 236.556C378.735 236.556 380.175 238.212 380.175 241.164V250.02C380.175 251.244 381.147 252.18 382.371 252.18C383.559 252.18 384.531 251.244 384.531 250.02V241.272C384.531 238.212 386.223 236.556 388.599 236.556C391.047 236.556 392.451 238.176 392.451 241.2V250.02C392.451 251.244 393.423 252.18 394.647 252.18C395.871 252.18 396.807 251.244 396.807 250.02V239.868C396.807 235.224 394.287 232.596 390.147 232.596C387.267 232.596 385.251 233.928 383.739 235.944C382.731 233.928 380.787 232.596 378.051 232.596C375.135 232.596 373.479 234.18 372.255 235.872V234.972C372.255 233.748 371.283 232.776 370.059 232.776C368.835 232.776 367.899 233.748 367.899 234.972V250.02Z" fill="black"/>
<path d="M67.492 244.984C67.492 246.208 68.464 247.18 69.724 247.18C70.948 247.18 71.92 246.208 71.92 244.984V223.816C71.92 222.592 70.948 221.62 69.724 221.62C68.464 221.62 67.492 222.592 67.492 223.816V244.984ZM76.3618 245.02C76.3618 246.244 77.3338 247.18 78.5218 247.18C79.7458 247.18 80.7178 246.244 80.7178 245.02V236.272C80.7178 233.32 82.4818 231.556 85.0018 231.556C87.5938 231.556 89.0698 233.248 89.0698 236.2V245.02C89.0698 246.244 90.0418 247.18 91.2658 247.18C92.4898 247.18 93.4258 246.244 93.4258 245.02V234.868C93.4258 230.476 90.9418 227.596 86.6578 227.596C83.7058 227.596 81.9418 229.144 80.7178 230.908V229.972C80.7178 228.748 79.7458 227.776 78.5218 227.776C77.2978 227.776 76.3618 228.748 76.3618 229.972V245.02ZM106.833 245.452L113.169 230.908C113.277 230.692 113.421 230.26 113.421 229.864C113.421 228.676 112.485 227.776 111.297 227.776C110.145 227.776 109.569 228.532 109.245 229.288L104.277 241.96L99.381 229.36C99.021 228.46 98.409 227.776 97.221 227.776C96.033 227.776 95.061 228.784 95.061 229.864C95.061 230.26 95.205 230.62 95.313 230.944L101.649 245.452C102.153 246.604 102.945 247.36 104.133 247.36H104.349C105.537 247.36 106.329 246.568 106.833 245.452ZM118.296 236.164C118.692 233.212 120.564 231.16 123.228 231.16C126.108 231.16 127.764 233.356 128.052 236.164H118.296ZM130.572 244.912C130.896 244.588 131.148 244.12 131.148 243.58C131.148 242.572 130.392 241.816 129.42 241.816C128.916 241.816 128.628 241.96 128.304 242.212C127.08 243.22 125.64 243.868 123.804 243.868C120.996 243.868 118.8 242.14 118.332 239.044H130.248C131.364 239.044 132.3 238.18 132.3 236.956C132.3 232.564 129.312 227.596 123.264 227.596C117.828 227.596 113.976 232.06 113.976 237.496V237.568C113.976 243.436 118.224 247.432 123.732 247.432C126.684 247.432 128.844 246.46 130.572 244.912ZM141.462 247.36C145.422 247.36 148.518 245.38 148.518 241.384V241.312C148.518 237.892 145.386 236.632 142.614 235.768C140.382 235.048 138.33 234.472 138.33 233.068V232.996C138.33 231.916 139.302 231.124 140.994 231.124C142.326 231.124 143.91 231.628 145.458 232.42C145.746 232.564 145.962 232.636 146.322 232.636C147.33 232.636 148.122 231.88 148.122 230.872C148.122 230.116 147.69 229.54 147.078 229.216C145.242 228.244 143.118 227.668 141.102 227.668C137.322 227.668 134.334 229.864 134.334 233.464V233.536C134.334 237.172 137.466 238.324 140.274 239.116C142.506 239.8 144.522 240.304 144.522 241.78V241.852C144.522 243.112 143.442 243.904 141.57 243.904C139.842 243.904 137.934 243.292 136.098 242.068C135.846 241.924 135.522 241.816 135.162 241.816C134.154 241.816 133.398 242.608 133.398 243.58C133.398 244.3 133.758 244.84 134.226 245.092C136.422 246.604 139.05 247.36 141.462 247.36ZM157.202 247.324C158.354 247.324 159.254 247.144 160.19 246.82C160.802 246.568 161.342 245.92 161.342 245.128C161.342 244.12 160.478 243.328 159.506 243.328C159.362 243.328 158.93 243.436 158.426 243.436C156.95 243.436 156.086 242.752 156.086 241.06V231.736H159.506C160.55 231.736 161.414 230.908 161.414 229.864C161.414 228.82 160.55 227.992 159.506 227.992H156.086V224.752C156.086 223.564 155.114 222.592 153.926 222.592C152.702 222.592 151.73 223.564 151.73 224.752V227.992H151.01C149.966 227.992 149.138 228.82 149.138 229.864C149.138 230.908 149.966 231.736 151.01 231.736H151.73V241.744C151.73 245.92 153.998 247.324 157.202 247.324ZM163.831 245.02C163.831 246.244 164.803 247.18 165.991 247.18C167.215 247.18 168.187 246.244 168.187 245.02V236.272C168.187 233.356 169.843 231.556 172.255 231.556C174.667 231.556 176.107 233.212 176.107 236.164V245.02C176.107 246.244 177.079 247.18 178.303 247.18C179.491 247.18 180.463 246.244 180.463 245.02V236.272C180.463 233.212 182.155 231.556 184.531 231.556C186.979 231.556 188.383 233.176 188.383 236.2V245.02C188.383 246.244 189.355 247.18 190.579 247.18C191.803 247.18 192.739 246.244 192.739 245.02V234.868C192.739 230.224 190.219 227.596 186.079 227.596C183.199 227.596 181.183 228.928 179.671 230.944C178.663 228.928 176.719 227.596 173.983 227.596C171.067 227.596 169.411 229.18 168.187 230.872V229.972C168.187 228.748 167.215 227.776 165.991 227.776C164.767 227.776 163.831 228.748 163.831 229.972V245.02ZM199.514 236.164C199.91 233.212 201.782 231.16 204.446 231.16C207.326 231.16 208.982 233.356 209.27 236.164H199.514ZM211.79 244.912C212.114 244.588 212.366 244.12 212.366 243.58C212.366 242.572 211.61 241.816 210.638 241.816C210.134 241.816 209.846 241.96 209.522 242.212C208.298 243.22 206.858 243.868 205.022 243.868C202.214 243.868 200.018 242.14 199.55 239.044H211.466C212.582 239.044 213.518 238.18 213.518 236.956C213.518 232.564 210.53 227.596 204.482 227.596C199.046 227.596 195.194 232.06 195.194 237.496V237.568C195.194 243.436 199.442 247.432 204.95 247.432C207.902 247.432 210.062 246.46 211.79 244.912ZM216.164 245.02C216.164 246.244 217.136 247.18 218.324 247.18C219.548 247.18 220.52 246.244 220.52 245.02V236.272C220.52 233.32 222.284 231.556 224.804 231.556C227.396 231.556 228.872 233.248 228.872 236.2V245.02C228.872 246.244 229.844 247.18 231.068 247.18C232.292 247.18 233.228 246.244 233.228 245.02V234.868C233.228 230.476 230.744 227.596 226.46 227.596C223.508 227.596 221.744 229.144 220.52 230.908V229.972C220.52 228.748 219.548 227.776 218.324 227.776C217.1 227.776 216.164 228.748 216.164 229.972V245.02ZM243.06 247.324C244.212 247.324 245.112 247.144 246.048 246.82C246.66 246.568 247.2 245.92 247.2 245.128C247.2 244.12 246.336 243.328 245.364 243.328C245.22 243.328 244.788 243.436 244.284 243.436C242.808 243.436 241.944 242.752 241.944 241.06V231.736H245.364C246.408 231.736 247.272 230.908 247.272 229.864C247.272 228.82 246.408 227.992 245.364 227.992H241.944V224.752C241.944 223.564 240.972 222.592 239.784 222.592C238.56 222.592 237.588 223.564 237.588 224.752V227.992H236.868C235.824 227.992 234.996 228.82 234.996 229.864C234.996 230.908 235.824 231.736 236.868 231.736H237.588V241.744C237.588 245.92 239.856 247.324 243.06 247.324ZM259.186 244.984C259.186 246.208 260.158 247.18 261.418 247.18C262.642 247.18 263.614 246.208 263.614 244.984V238.9H268.618C274.162 238.9 278.698 235.948 278.698 230.296V230.224C278.698 225.148 275.026 221.8 269.122 221.8H261.418C260.158 221.8 259.186 222.772 259.186 224.032V244.984ZM263.614 234.904V225.832H268.762C272.074 225.832 274.198 227.38 274.198 230.332V230.404C274.198 233.032 272.11 234.904 268.762 234.904H263.614ZM281.181 245.02C281.181 246.244 282.153 247.18 283.341 247.18C284.565 247.18 285.537 246.244 285.537 245.02V222.7C285.537 221.512 284.565 220.54 283.341 220.54C282.117 220.54 281.181 221.512 281.181 222.7V245.02ZM294.902 247.396C297.818 247.396 299.798 246.172 301.094 244.624V245.344C301.094 246.316 301.958 247.18 303.218 247.18C304.406 247.18 305.342 246.28 305.342 245.092V235.732C305.342 233.248 304.694 231.232 303.29 229.864C301.958 228.496 299.834 227.74 296.99 227.74C294.506 227.74 292.67 228.172 290.87 228.856C290.222 229.108 289.682 229.792 289.682 230.584C289.682 231.592 290.51 232.384 291.518 232.384C291.734 232.384 291.95 232.348 292.202 232.276C293.39 231.808 294.758 231.52 296.414 231.52C299.474 231.52 301.13 232.96 301.13 235.66V236.128C299.654 235.66 298.142 235.336 296.018 235.336C291.374 235.336 288.17 237.352 288.17 241.456V241.528C288.17 245.344 291.338 247.396 294.902 247.396ZM296.126 244.228C294.038 244.228 292.418 243.184 292.418 241.348V241.276C292.418 239.296 294.074 238.108 296.882 238.108C298.61 238.108 300.086 238.432 301.202 238.864V240.16C301.202 242.572 299.006 244.228 296.126 244.228ZM314.955 247.324C316.107 247.324 317.007 247.144 317.943 246.82C318.555 246.568 319.095 245.92 319.095 245.128C319.095 244.12 318.231 243.328 317.259 243.328C317.115 243.328 316.683 243.436 316.179 243.436C314.703 243.436 313.839 242.752 313.839 241.06V231.736H317.259C318.303 231.736 319.167 230.908 319.167 229.864C319.167 228.82 318.303 227.992 317.259 227.992H313.839V224.752C313.839 223.564 312.867 222.592 311.679 222.592C310.455 222.592 309.483 223.564 309.483 224.752V227.992H308.763C307.719 227.992 306.891 228.82 306.891 229.864C306.891 230.908 307.719 231.736 308.763 231.736H309.483V241.744C309.483 245.92 311.751 247.324 314.955 247.324ZM322.556 245.02C322.556 246.208 323.528 247.18 324.716 247.18C325.94 247.18 326.912 246.208 326.912 245.02V231.736H330.224C331.232 231.736 332.06 230.944 332.06 229.936C332.06 228.928 331.268 228.136 330.224 228.136H326.84V227.092C326.84 225.112 327.704 224.212 329.36 224.212C329.648 224.212 330.008 224.248 330.26 224.284C331.268 224.32 332.096 223.492 332.096 222.484C332.096 221.512 331.376 220.792 330.584 220.684C329.972 220.576 329.252 220.504 328.388 220.504C326.516 220.504 325.112 221.008 324.104 222.016C323.096 223.024 322.556 224.608 322.556 226.696V228.1H321.8C320.792 228.1 319.964 228.928 319.964 229.936C319.964 230.944 320.792 231.736 321.8 231.736H322.556V245.02ZM342.003 247.432C347.871 247.432 352.191 242.932 352.191 237.532V237.46C352.191 232.024 347.907 227.596 342.075 227.596C336.243 227.596 331.923 232.096 331.923 237.532V237.604C331.923 243.004 336.207 247.432 342.003 247.432ZM342.075 243.616C338.691 243.616 336.279 240.844 336.279 237.532V237.46C336.279 234.148 338.511 231.412 342.003 231.412C345.423 231.412 347.835 234.184 347.835 237.532V237.604C347.835 240.88 345.603 243.616 342.075 243.616ZM354.827 245.02C354.827 246.244 355.799 247.18 356.987 247.18C358.211 247.18 359.183 246.208 359.183 245.02V239.404C359.183 234.904 361.307 232.528 364.403 231.988C365.375 231.808 366.131 231.052 366.131 229.9C366.131 228.64 365.339 227.74 363.971 227.74C362.063 227.74 360.191 229.54 359.183 231.916V229.972C359.183 228.748 358.211 227.776 356.987 227.776C355.763 227.776 354.827 228.748 354.827 229.972V245.02ZM367.899 245.02C367.899 246.244 368.871 247.18 370.059 247.18C371.283 247.18 372.255 246.244 372.255 245.02V236.272C372.255 233.356 373.911 231.556 376.323 231.556C378.735 231.556 380.175 233.212 380.175 236.164V245.02C380.175 246.244 381.147 247.18 382.371 247.18C383.559 247.18 384.531 246.244 384.531 245.02V236.272C384.531 233.212 386.223 231.556 388.599 231.556C391.047 231.556 392.451 233.176 392.451 236.2V245.02C392.451 246.244 393.423 247.18 394.647 247.18C395.871 247.18 396.807 246.244 396.807 245.02V234.868C396.807 230.224 394.287 227.596 390.147 227.596C387.267 227.596 385.251 228.928 383.739 230.944C382.731 228.928 380.787 227.596 378.051 227.596C375.135 227.596 373.479 229.18 372.255 230.872V229.972C372.255 228.748 371.283 227.776 370.059 227.776C368.835 227.776 367.899 228.748 367.899 229.972V245.02Z" fill="#00E59D"/>
<g filter="url(#filter2_f)">
<path d="M67.492 244.984C67.492 246.208 68.464 247.18 69.724 247.18C70.948 247.18 71.92 246.208 71.92 244.984V223.816C71.92 222.592 70.948 221.62 69.724 221.62C68.464 221.62 67.492 222.592 67.492 223.816V244.984ZM76.3618 245.02C76.3618 246.244 77.3338 247.18 78.5218 247.18C79.7458 247.18 80.7178 246.244 80.7178 245.02V236.272C80.7178 233.32 82.4818 231.556 85.0018 231.556C87.5938 231.556 89.0698 233.248 89.0698 236.2V245.02C89.0698 246.244 90.0418 247.18 91.2658 247.18C92.4898 247.18 93.4258 246.244 93.4258 245.02V234.868C93.4258 230.476 90.9418 227.596 86.6578 227.596C83.7058 227.596 81.9418 229.144 80.7178 230.908V229.972C80.7178 228.748 79.7458 227.776 78.5218 227.776C77.2978 227.776 76.3618 228.748 76.3618 229.972V245.02ZM106.833 245.452L113.169 230.908C113.277 230.692 113.421 230.26 113.421 229.864C113.421 228.676 112.485 227.776 111.297 227.776C110.145 227.776 109.569 228.532 109.245 229.288L104.277 241.96L99.381 229.36C99.021 228.46 98.409 227.776 97.221 227.776C96.033 227.776 95.061 228.784 95.061 229.864C95.061 230.26 95.205 230.62 95.313 230.944L101.649 245.452C102.153 246.604 102.945 247.36 104.133 247.36H104.349C105.537 247.36 106.329 246.568 106.833 245.452ZM118.296 236.164C118.692 233.212 120.564 231.16 123.228 231.16C126.108 231.16 127.764 233.356 128.052 236.164H118.296ZM130.572 244.912C130.896 244.588 131.148 244.12 131.148 243.58C131.148 242.572 130.392 241.816 129.42 241.816C128.916 241.816 128.628 241.96 128.304 242.212C127.08 243.22 125.64 243.868 123.804 243.868C120.996 243.868 118.8 242.14 118.332 239.044H130.248C131.364 239.044 132.3 238.18 132.3 236.956C132.3 232.564 129.312 227.596 123.264 227.596C117.828 227.596 113.976 232.06 113.976 237.496V237.568C113.976 243.436 118.224 247.432 123.732 247.432C126.684 247.432 128.844 246.46 130.572 244.912ZM141.462 247.36C145.422 247.36 148.518 245.38 148.518 241.384V241.312C148.518 237.892 145.386 236.632 142.614 235.768C140.382 235.048 138.33 234.472 138.33 233.068V232.996C138.33 231.916 139.302 231.124 140.994 231.124C142.326 231.124 143.91 231.628 145.458 232.42C145.746 232.564 145.962 232.636 146.322 232.636C147.33 232.636 148.122 231.88 148.122 230.872C148.122 230.116 147.69 229.54 147.078 229.216C145.242 228.244 143.118 227.668 141.102 227.668C137.322 227.668 134.334 229.864 134.334 233.464V233.536C134.334 237.172 137.466 238.324 140.274 239.116C142.506 239.8 144.522 240.304 144.522 241.78V241.852C144.522 243.112 143.442 243.904 141.57 243.904C139.842 243.904 137.934 243.292 136.098 242.068C135.846 241.924 135.522 241.816 135.162 241.816C134.154 241.816 133.398 242.608 133.398 243.58C133.398 244.3 133.758 244.84 134.226 245.092C136.422 246.604 139.05 247.36 141.462 247.36ZM157.202 247.324C158.354 247.324 159.254 247.144 160.19 246.82C160.802 246.568 161.342 245.92 161.342 245.128C161.342 244.12 160.478 243.328 159.506 243.328C159.362 243.328 158.93 243.436 158.426 243.436C156.95 243.436 156.086 242.752 156.086 241.06V231.736H159.506C160.55 231.736 161.414 230.908 161.414 229.864C161.414 228.82 160.55 227.992 159.506 227.992H156.086V224.752C156.086 223.564 155.114 222.592 153.926 222.592C152.702 222.592 151.73 223.564 151.73 224.752V227.992H151.01C149.966 227.992 149.138 228.82 149.138 229.864C149.138 230.908 149.966 231.736 151.01 231.736H151.73V241.744C151.73 245.92 153.998 247.324 157.202 247.324ZM163.831 245.02C163.831 246.244 164.803 247.18 165.991 247.18C167.215 247.18 168.187 246.244 168.187 245.02V236.272C168.187 233.356 169.843 231.556 172.255 231.556C174.667 231.556 176.107 233.212 176.107 236.164V245.02C176.107 246.244 177.079 247.18 178.303 247.18C179.491 247.18 180.463 246.244 180.463 245.02V236.272C180.463 233.212 182.155 231.556 184.531 231.556C186.979 231.556 188.383 233.176 188.383 236.2V245.02C188.383 246.244 189.355 247.18 190.579 247.18C191.803 247.18 192.739 246.244 192.739 245.02V234.868C192.739 230.224 190.219 227.596 186.079 227.596C183.199 227.596 181.183 228.928 179.671 230.944C178.663 228.928 176.719 227.596 173.983 227.596C171.067 227.596 169.411 229.18 168.187 230.872V229.972C168.187 228.748 167.215 227.776 165.991 227.776C164.767 227.776 163.831 228.748 163.831 229.972V245.02ZM199.514 236.164C199.91 233.212 201.782 231.16 204.446 231.16C207.326 231.16 208.982 233.356 209.27 236.164H199.514ZM211.79 244.912C212.114 244.588 212.366 244.12 212.366 243.58C212.366 242.572 211.61 241.816 210.638 241.816C210.134 241.816 209.846 241.96 209.522 242.212C208.298 243.22 206.858 243.868 205.022 243.868C202.214 243.868 200.018 242.14 199.55 239.044H211.466C212.582 239.044 213.518 238.18 213.518 236.956C213.518 232.564 210.53 227.596 204.482 227.596C199.046 227.596 195.194 232.06 195.194 237.496V237.568C195.194 243.436 199.442 247.432 204.95 247.432C207.902 247.432 210.062 246.46 211.79 244.912ZM216.164 245.02C216.164 246.244 217.136 247.18 218.324 247.18C219.548 247.18 220.52 246.244 220.52 245.02V236.272C220.52 233.32 222.284 231.556 224.804 231.556C227.396 231.556 228.872 233.248 228.872 236.2V245.02C228.872 246.244 229.844 247.18 231.068 247.18C232.292 247.18 233.228 246.244 233.228 245.02V234.868C233.228 230.476 230.744 227.596 226.46 227.596C223.508 227.596 221.744 229.144 220.52 230.908V229.972C220.52 228.748 219.548 227.776 218.324 227.776C217.1 227.776 216.164 228.748 216.164 229.972V245.02ZM243.06 247.324C244.212 247.324 245.112 247.144 246.048 246.82C246.66 246.568 247.2 245.92 247.2 245.128C247.2 244.12 246.336 243.328 245.364 243.328C245.22 243.328 244.788 243.436 244.284 243.436C242.808 243.436 241.944 242.752 241.944 241.06V231.736H245.364C246.408 231.736 247.272 230.908 247.272 229.864C247.272 228.82 246.408 227.992 245.364 227.992H241.944V224.752C241.944 223.564 240.972 222.592 239.784 222.592C238.56 222.592 237.588 223.564 237.588 224.752V227.992H236.868C235.824 227.992 234.996 228.82 234.996 229.864C234.996 230.908 235.824 231.736 236.868 231.736H237.588V241.744C237.588 245.92 239.856 247.324 243.06 247.324ZM259.186 244.984C259.186 246.208 260.158 247.18 261.418 247.18C262.642 247.18 263.614 246.208 263.614 244.984V238.9H268.618C274.162 238.9 278.698 235.948 278.698 230.296V230.224C278.698 225.148 275.026 221.8 269.122 221.8H261.418C260.158 221.8 259.186 222.772 259.186 224.032V244.984ZM263.614 234.904V225.832H268.762C272.074 225.832 274.198 227.38 274.198 230.332V230.404C274.198 233.032 272.11 234.904 268.762 234.904H263.614ZM281.181 245.02C281.181 246.244 282.153 247.18 283.341 247.18C284.565 247.18 285.537 246.244 285.537 245.02V222.7C285.537 221.512 284.565 220.54 283.341 220.54C282.117 220.54 281.181 221.512 281.181 222.7V245.02ZM294.902 247.396C297.818 247.396 299.798 246.172 301.094 244.624V245.344C301.094 246.316 301.958 247.18 303.218 247.18C304.406 247.18 305.342 246.28 305.342 245.092V235.732C305.342 233.248 304.694 231.232 303.29 229.864C301.958 228.496 299.834 227.74 296.99 227.74C294.506 227.74 292.67 228.172 290.87 228.856C290.222 229.108 289.682 229.792 289.682 230.584C289.682 231.592 290.51 232.384 291.518 232.384C291.734 232.384 291.95 232.348 292.202 232.276C293.39 231.808 294.758 231.52 296.414 231.52C299.474 231.52 301.13 232.96 301.13 235.66V236.128C299.654 235.66 298.142 235.336 296.018 235.336C291.374 235.336 288.17 237.352 288.17 241.456V241.528C288.17 245.344 291.338 247.396 294.902 247.396ZM296.126 244.228C294.038 244.228 292.418 243.184 292.418 241.348V241.276C292.418 239.296 294.074 238.108 296.882 238.108C298.61 238.108 300.086 238.432 301.202 238.864V240.16C301.202 242.572 299.006 244.228 296.126 244.228ZM314.955 247.324C316.107 247.324 317.007 247.144 317.943 246.82C318.555 246.568 319.095 245.92 319.095 245.128C319.095 244.12 318.231 243.328 317.259 243.328C317.115 243.328 316.683 243.436 316.179 243.436C314.703 243.436 313.839 242.752 313.839 241.06V231.736H317.259C318.303 231.736 319.167 230.908 319.167 229.864C319.167 228.82 318.303 227.992 317.259 227.992H313.839V224.752C313.839 223.564 312.867 222.592 311.679 222.592C310.455 222.592 309.483 223.564 309.483 224.752V227.992H308.763C307.719 227.992 306.891 228.82 306.891 229.864C306.891 230.908 307.719 231.736 308.763 231.736H309.483V241.744C309.483 245.92 311.751 247.324 314.955 247.324ZM322.556 245.02C322.556 246.208 323.528 247.18 324.716 247.18C325.94 247.18 326.912 246.208 326.912 245.02V231.736H330.224C331.232 231.736 332.06 230.944 332.06 229.936C332.06 228.928 331.268 228.136 330.224 228.136H326.84V227.092C326.84 225.112 327.704 224.212 329.36 224.212C329.648 224.212 330.008 224.248 330.26 224.284C331.268 224.32 332.096 223.492 332.096 222.484C332.096 221.512 331.376 220.792 330.584 220.684C329.972 220.576 329.252 220.504 328.388 220.504C326.516 220.504 325.112 221.008 324.104 222.016C323.096 223.024 322.556 224.608 322.556 226.696V228.1H321.8C320.792 228.1 319.964 228.928 319.964 229.936C319.964 230.944 320.792 231.736 321.8 231.736H322.556V245.02ZM342.003 247.432C347.871 247.432 352.191 242.932 352.191 237.532V237.46C352.191 232.024 347.907 227.596 342.075 227.596C336.243 227.596 331.923 232.096 331.923 237.532V237.604C331.923 243.004 336.207 247.432 342.003 247.432ZM342.075 243.616C338.691 243.616 336.279 240.844 336.279 237.532V237.46C336.279 234.148 338.511 231.412 342.003 231.412C345.423 231.412 347.835 234.184 347.835 237.532V237.604C347.835 240.88 345.603 243.616 342.075 243.616ZM354.827 245.02C354.827 246.244 355.799 247.18 356.987 247.18C358.211 247.18 359.183 246.208 359.183 245.02V239.404C359.183 234.904 361.307 232.528 364.403 231.988C365.375 231.808 366.131 231.052 366.131 229.9C366.131 228.64 365.339 227.74 363.971 227.74C362.063 227.74 360.191 229.54 359.183 231.916V229.972C359.183 228.748 358.211 227.776 356.987 227.776C355.763 227.776 354.827 228.748 354.827 229.972V245.02ZM367.899 245.02C367.899 246.244 368.871 247.18 370.059 247.18C371.283 247.18 372.255 246.244 372.255 245.02V236.272C372.255 233.356 373.911 231.556 376.323 231.556C378.735 231.556 380.175 233.212 380.175 236.164V245.02C380.175 246.244 381.147 247.18 382.371 247.18C383.559 247.18 384.531 246.244 384.531 245.02V236.272C384.531 233.212 386.223 231.556 388.599 231.556C391.047 231.556 392.451 233.176 392.451 236.2V245.02C392.451 246.244 393.423 247.18 394.647 247.18C395.871 247.18 396.807 246.244 396.807 245.02V234.868C396.807 230.224 394.287 227.596 390.147 227.596C387.267 227.596 385.251 228.928 383.739 230.944C382.731 228.928 380.787 227.596 378.051 227.596C375.135 227.596 373.479 229.18 372.255 230.872V229.972C372.255 228.748 371.283 227.776 370.059 227.776C368.835 227.776 367.899 228.748 367.899 229.972V245.02Z" fill="#00E59D"/>
</g>
<path d="M119.332 49.984C119.332 51.208 120.304 52.18 121.528 52.18C122.788 52.18 123.76 51.208 123.76 49.984V42.1L132.364 30.328C132.688 29.896 132.976 29.356 132.976 28.744C132.976 27.556 132.112 26.584 130.816 26.584C129.88 26.584 129.232 27.124 128.692 27.916L121.564 38.068L114.544 27.952C114.004 27.16 113.356 26.62 112.384 26.62C111.124 26.62 110.152 27.556 110.152 28.744C110.152 29.356 110.368 29.86 110.656 30.292L119.332 42.208V49.984ZM141.191 52.432C147.059 52.432 151.379 47.932 151.379 42.532V42.46C151.379 37.024 147.095 32.596 141.263 32.596C135.431 32.596 131.111 37.096 131.111 42.532V42.604C131.111 48.004 135.395 52.432 141.191 52.432ZM141.263 48.616C137.879 48.616 135.467 45.844 135.467 42.532V42.46C135.467 39.148 137.699 36.412 141.191 36.412C144.611 36.412 147.023 39.184 147.023 42.532V42.604C147.023 45.88 144.791 48.616 141.263 48.616ZM170.899 34.972C170.899 33.748 169.891 32.776 168.703 32.776C167.479 32.776 166.507 33.748 166.507 34.972V43.72C166.507 46.672 164.743 48.4 162.223 48.4C159.631 48.4 158.155 46.744 158.155 43.792V34.972C158.155 33.748 157.183 32.776 155.959 32.776C154.771 32.776 153.799 33.748 153.799 34.972V45.088C153.799 49.516 156.283 52.396 160.567 52.396C163.519 52.396 165.283 50.848 166.507 49.048V50.02C166.507 51.244 167.515 52.18 168.703 52.18C169.927 52.18 170.899 51.208 170.899 50.02V34.972ZM174.539 50.02C174.539 51.244 175.511 52.18 176.699 52.18C177.923 52.18 178.895 51.208 178.895 50.02V44.404C178.895 39.904 181.019 37.528 184.115 36.988C185.087 36.808 185.843 36.052 185.843 34.9C185.843 33.64 185.051 32.74 183.683 32.74C181.775 32.74 179.903 34.54 178.895 36.916V34.972C178.895 33.748 177.923 32.776 176.699 32.776C175.475 32.776 174.539 33.748 174.539 34.972V50.02ZM203.119 52.36C207.079 52.36 210.175 50.38 210.175 46.384V46.312C210.175 42.892 207.043 41.632 204.271 40.768C202.039 40.048 199.987 39.472 199.987 38.068V37.996C199.987 36.916 200.959 36.124 202.651 36.124C203.983 36.124 205.567 36.628 207.115 37.42C207.403 37.564 207.619 37.636 207.979 37.636C208.987 37.636 209.779 36.88 209.779 35.872C209.779 35.116 209.347 34.54 208.735 34.216C206.899 33.244 204.775 32.668 202.759 32.668C198.979 32.668 195.991 34.864 195.991 38.464V38.536C195.991 42.172 199.123 43.324 201.931 44.116C204.163 44.8 206.179 45.304 206.179 46.78V46.852C206.179 48.112 205.099 48.904 203.227 48.904C201.499 48.904 199.591 48.292 197.755 47.068C197.503 46.924 197.179 46.816 196.819 46.816C195.811 46.816 195.055 47.608 195.055 48.58C195.055 49.3 195.415 49.84 195.883 50.092C198.079 51.604 200.707 52.36 203.119 52.36ZM212.838 55.78C212.838 57.004 213.81 57.94 214.998 57.94C216.222 57.94 217.194 57.004 217.194 55.78V49.048C218.526 50.812 220.506 52.396 223.674 52.396C228.174 52.396 232.494 48.832 232.494 42.532V42.46C232.494 36.124 228.138 32.596 223.674 32.596C220.578 32.596 218.598 34.18 217.194 36.16V34.972C217.194 33.748 216.222 32.776 214.998 32.776C213.774 32.776 212.838 33.748 212.838 34.972V55.78ZM222.63 48.616C219.678 48.616 217.086 46.168 217.086 42.532V42.46C217.086 38.824 219.678 36.376 222.63 36.376C225.582 36.376 228.066 38.788 228.066 42.46V42.532C228.066 46.276 225.618 48.616 222.63 48.616ZM235.119 28.096C235.119 29.392 236.199 30.256 237.603 30.256C239.007 30.256 240.087 29.392 240.087 28.096V27.88C240.087 26.584 239.007 25.756 237.603 25.756C236.199 25.756 235.119 26.584 235.119 27.88V28.096ZM235.443 50.02C235.443 51.244 236.415 52.18 237.603 52.18C238.827 52.18 239.799 51.244 239.799 50.02V34.972C239.799 33.748 238.827 32.776 237.603 32.776C236.379 32.776 235.443 33.748 235.443 34.972V50.02ZM243.691 50.02C243.691 51.244 244.663 52.18 245.851 52.18C247.075 52.18 248.047 51.208 248.047 50.02V44.404C248.047 39.904 250.171 37.528 253.267 36.988C254.239 36.808 254.995 36.052 254.995 34.9C254.995 33.64 254.203 32.74 252.835 32.74C250.927 32.74 249.055 34.54 248.047 36.916V34.972C248.047 33.748 247.075 32.776 245.851 32.776C244.627 32.776 243.691 33.748 243.691 34.972V50.02ZM256.691 28.096C256.691 29.392 257.771 30.256 259.175 30.256C260.579 30.256 261.659 29.392 261.659 28.096V27.88C261.659 26.584 260.579 25.756 259.175 25.756C257.771 25.756 256.691 26.584 256.691 27.88V28.096ZM257.015 50.02C257.015 51.244 257.987 52.18 259.175 52.18C260.399 52.18 261.371 51.244 261.371 50.02V34.972C261.371 33.748 260.399 32.776 259.175 32.776C257.951 32.776 257.015 33.748 257.015 34.972V50.02ZM271.635 52.324C272.787 52.324 273.687 52.144 274.623 51.82C275.235 51.568 275.775 50.92 275.775 50.128C275.775 49.12 274.911 48.328 273.939 48.328C273.795 48.328 273.363 48.436 272.859 48.436C271.383 48.436 270.519 47.752 270.519 46.06V36.736H273.939C274.983 36.736 275.847 35.908 275.847 34.864C275.847 33.82 274.983 32.992 273.939 32.992H270.519V29.752C270.519 28.564 269.547 27.592 268.359 27.592C267.135 27.592 266.163 28.564 266.163 29.752V32.992H265.443C264.399 32.992 263.571 33.82 263.571 34.864C263.571 35.908 264.399 36.736 265.443 36.736H266.163V46.744C266.163 50.92 268.431 52.324 271.635 52.324ZM295.148 34.972C295.148 33.748 294.14 32.776 292.952 32.776C291.728 32.776 290.756 33.748 290.756 34.972V43.72C290.756 46.672 288.992 48.4 286.472 48.4C283.88 48.4 282.404 46.744 282.404 43.792V34.972C282.404 33.748 281.432 32.776 280.208 32.776C279.02 32.776 278.048 33.748 278.048 34.972V45.088C278.048 49.516 280.532 52.396 284.816 52.396C287.768 52.396 289.532 50.848 290.756 49.048V50.02C290.756 51.244 291.764 52.18 292.952 52.18C294.176 52.18 295.148 51.208 295.148 50.02V34.972ZM304.26 52.396C307.176 52.396 309.156 51.172 310.452 49.624V50.344C310.452 51.316 311.316 52.18 312.576 52.18C313.764 52.18 314.7 51.28 314.7 50.092V40.732C314.7 38.248 314.052 36.232 312.648 34.864C311.316 33.496 309.192 32.74 306.348 32.74C303.864 32.74 302.028 33.172 300.228 33.856C299.58 34.108 299.04 34.792 299.04 35.584C299.04 36.592 299.868 37.384 300.876 37.384C301.092 37.384 301.308 37.348 301.56 37.276C302.748 36.808 304.116 36.52 305.772 36.52C308.832 36.52 310.488 37.96 310.488 40.66V41.128C309.012 40.66 307.5 40.336 305.376 40.336C300.732 40.336 297.528 42.352 297.528 46.456V46.528C297.528 50.344 300.696 52.396 304.26 52.396ZM305.484 49.228C303.396 49.228 301.776 48.184 301.776 46.348V46.276C301.776 44.296 303.432 43.108 306.24 43.108C307.968 43.108 309.444 43.432 310.56 43.864V45.16C310.56 47.572 308.364 49.228 305.484 49.228ZM318.369 50.02C318.369 51.244 319.341 52.18 320.529 52.18C321.753 52.18 322.725 51.244 322.725 50.02V27.7C322.725 26.512 321.753 25.54 320.529 25.54C319.305 25.54 318.369 26.512 318.369 27.7V50.02ZM326.87 50.02C326.87 51.244 327.842 52.18 329.03 52.18C330.254 52.18 331.226 51.244 331.226 50.02V27.7C331.226 26.512 330.254 25.54 329.03 25.54C327.806 25.54 326.87 26.512 326.87 27.7V50.02ZM338.575 57.868C341.635 57.868 343.363 56.428 344.983 52.54L351.931 35.872C352.003 35.656 352.111 35.188 352.111 34.828C352.111 33.676 351.175 32.776 350.023 32.776C348.907 32.776 348.295 33.532 347.935 34.432L343.183 47.068L338.071 34.432C337.675 33.424 337.063 32.776 335.947 32.776C334.723 32.776 333.787 33.676 333.787 34.9C333.787 35.188 333.895 35.62 334.039 35.944L341.095 51.712L340.951 52.108C340.231 53.584 339.547 54.124 338.251 54.124C337.639 54.124 337.243 54.016 336.739 53.872C336.523 53.8 336.307 53.728 335.947 53.728C335.011 53.728 334.183 54.448 334.183 55.528C334.183 56.572 334.903 57.112 335.551 57.328C336.451 57.688 337.351 57.868 338.575 57.868Z" fill="black"/>
<path d="M119.332 44.984C119.332 46.208 120.304 47.18 121.528 47.18C122.788 47.18 123.76 46.208 123.76 44.984V37.1L132.364 25.328C132.688 24.896 132.976 24.356 132.976 23.744C132.976 22.556 132.112 21.584 130.816 21.584C129.88 21.584 129.232 22.124 128.692 22.916L121.564 33.068L114.544 22.952C114.004 22.16 113.356 21.62 112.384 21.62C111.124 21.62 110.152 22.556 110.152 23.744C110.152 24.356 110.368 24.86 110.656 25.292L119.332 37.208V44.984ZM141.191 47.432C147.059 47.432 151.379 42.932 151.379 37.532V37.46C151.379 32.024 147.095 27.596 141.263 27.596C135.431 27.596 131.111 32.096 131.111 37.532V37.604C131.111 43.004 135.395 47.432 141.191 47.432ZM141.263 43.616C137.879 43.616 135.467 40.844 135.467 37.532V37.46C135.467 34.148 137.699 31.412 141.191 31.412C144.611 31.412 147.023 34.184 147.023 37.532V37.604C147.023 40.88 144.791 43.616 141.263 43.616ZM170.899 29.972C170.899 28.748 169.891 27.776 168.703 27.776C167.479 27.776 166.507 28.748 166.507 29.972V38.72C166.507 41.672 164.743 43.4 162.223 43.4C159.631 43.4 158.155 41.744 158.155 38.792V29.972C158.155 28.748 157.183 27.776 155.959 27.776C154.771 27.776 153.799 28.748 153.799 29.972V40.088C153.799 44.516 156.283 47.396 160.567 47.396C163.519 47.396 165.283 45.848 166.507 44.048V45.02C166.507 46.244 167.515 47.18 168.703 47.18C169.927 47.18 170.899 46.208 170.899 45.02V29.972ZM174.539 45.02C174.539 46.244 175.511 47.18 176.699 47.18C177.923 47.18 178.895 46.208 178.895 45.02V39.404C178.895 34.904 181.019 32.528 184.115 31.988C185.087 31.808 185.843 31.052 185.843 29.9C185.843 28.64 185.051 27.74 183.683 27.74C181.775 27.74 179.903 29.54 178.895 31.916V29.972C178.895 28.748 177.923 27.776 176.699 27.776C175.475 27.776 174.539 28.748 174.539 29.972V45.02ZM203.119 47.36C207.079 47.36 210.175 45.38 210.175 41.384V41.312C210.175 37.892 207.043 36.632 204.271 35.768C202.039 35.048 199.987 34.472 199.987 33.068V32.996C199.987 31.916 200.959 31.124 202.651 31.124C203.983 31.124 205.567 31.628 207.115 32.42C207.403 32.564 207.619 32.636 207.979 32.636C208.987 32.636 209.779 31.88 209.779 30.872C209.779 30.116 209.347 29.54 208.735 29.216C206.899 28.244 204.775 27.668 202.759 27.668C198.979 27.668 195.991 29.864 195.991 33.464V33.536C195.991 37.172 199.123 38.324 201.931 39.116C204.163 39.8 206.179 40.304 206.179 41.78V41.852C206.179 43.112 205.099 43.904 203.227 43.904C201.499 43.904 199.591 43.292 197.755 42.068C197.503 41.924 197.179 41.816 196.819 41.816C195.811 41.816 195.055 42.608 195.055 43.58C195.055 44.3 195.415 44.84 195.883 45.092C198.079 46.604 200.707 47.36 203.119 47.36ZM212.838 50.78C212.838 52.004 213.81 52.94 214.998 52.94C216.222 52.94 217.194 52.004 217.194 50.78V44.048C218.526 45.812 220.506 47.396 223.674 47.396C228.174 47.396 232.494 43.832 232.494 37.532V37.46C232.494 31.124 228.138 27.596 223.674 27.596C220.578 27.596 218.598 29.18 217.194 31.16V29.972C217.194 28.748 216.222 27.776 214.998 27.776C213.774 27.776 212.838 28.748 212.838 29.972V50.78ZM222.63 43.616C219.678 43.616 217.086 41.168 217.086 37.532V37.46C217.086 33.824 219.678 31.376 222.63 31.376C225.582 31.376 228.066 33.788 228.066 37.46V37.532C228.066 41.276 225.618 43.616 222.63 43.616ZM235.119 23.096C235.119 24.392 236.199 25.256 237.603 25.256C239.007 25.256 240.087 24.392 240.087 23.096V22.88C240.087 21.584 239.007 20.756 237.603 20.756C236.199 20.756 235.119 21.584 235.119 22.88V23.096ZM235.443 45.02C235.443 46.244 236.415 47.18 237.603 47.18C238.827 47.18 239.799 46.244 239.799 45.02V29.972C239.799 28.748 238.827 27.776 237.603 27.776C236.379 27.776 235.443 28.748 235.443 29.972V45.02ZM243.691 45.02C243.691 46.244 244.663 47.18 245.851 47.18C247.075 47.18 248.047 46.208 248.047 45.02V39.404C248.047 34.904 250.171 32.528 253.267 31.988C254.239 31.808 254.995 31.052 254.995 29.9C254.995 28.64 254.203 27.74 252.835 27.74C250.927 27.74 249.055 29.54 248.047 31.916V29.972C248.047 28.748 247.075 27.776 245.851 27.776C244.627 27.776 243.691 28.748 243.691 29.972V45.02ZM256.691 23.096C256.691 24.392 257.771 25.256 259.175 25.256C260.579 25.256 261.659 24.392 261.659 23.096V22.88C261.659 21.584 260.579 20.756 259.175 20.756C257.771 20.756 256.691 21.584 256.691 22.88V23.096ZM257.015 45.02C257.015 46.244 257.987 47.18 259.175 47.18C260.399 47.18 261.371 46.244 261.371 45.02V29.972C261.371 28.748 260.399 27.776 259.175 27.776C257.951 27.776 257.015 28.748 257.015 29.972V45.02ZM271.635 47.324C272.787 47.324 273.687 47.144 274.623 46.82C275.235 46.568 275.775 45.92 275.775 45.128C275.775 44.12 274.911 43.328 273.939 43.328C273.795 43.328 273.363 43.436 272.859 43.436C271.383 43.436 270.519 42.752 270.519 41.06V31.736H273.939C274.983 31.736 275.847 30.908 275.847 29.864C275.847 28.82 274.983 27.992 273.939 27.992H270.519V24.752C270.519 23.564 269.547 22.592 268.359 22.592C267.135 22.592 266.163 23.564 266.163 24.752V27.992H265.443C264.399 27.992 263.571 28.82 263.571 29.864C263.571 30.908 264.399 31.736 265.443 31.736H266.163V41.744C266.163 45.92 268.431 47.324 271.635 47.324ZM295.148 29.972C295.148 28.748 294.14 27.776 292.952 27.776C291.728 27.776 290.756 28.748 290.756 29.972V38.72C290.756 41.672 288.992 43.4 286.472 43.4C283.88 43.4 282.404 41.744 282.404 38.792V29.972C282.404 28.748 281.432 27.776 280.208 27.776C279.02 27.776 278.048 28.748 278.048 29.972V40.088C278.048 44.516 280.532 47.396 284.816 47.396C287.768 47.396 289.532 45.848 290.756 44.048V45.02C290.756 46.244 291.764 47.18 292.952 47.18C294.176 47.18 295.148 46.208 295.148 45.02V29.972ZM304.26 47.396C307.176 47.396 309.156 46.172 310.452 44.624V45.344C310.452 46.316 311.316 47.18 312.576 47.18C313.764 47.18 314.7 46.28 314.7 45.092V35.732C314.7 33.248 314.052 31.232 312.648 29.864C311.316 28.496 309.192 27.74 306.348 27.74C303.864 27.74 302.028 28.172 300.228 28.856C299.58 29.108 299.04 29.792 299.04 30.584C299.04 31.592 299.868 32.384 300.876 32.384C301.092 32.384 301.308 32.348 301.56 32.276C302.748 31.808 304.116 31.52 305.772 31.52C308.832 31.52 310.488 32.96 310.488 35.66V36.128C309.012 35.66 307.5 35.336 305.376 35.336C300.732 35.336 297.528 37.352 297.528 41.456V41.528C297.528 45.344 300.696 47.396 304.26 47.396ZM305.484 44.228C303.396 44.228 301.776 43.184 301.776 41.348V41.276C301.776 39.296 303.432 38.108 306.24 38.108C307.968 38.108 309.444 38.432 310.56 38.864V40.16C310.56 42.572 308.364 44.228 305.484 44.228ZM318.369 45.02C318.369 46.244 319.341 47.18 320.529 47.18C321.753 47.18 322.725 46.244 322.725 45.02V22.7C322.725 21.512 321.753 20.54 320.529 20.54C319.305 20.54 318.369 21.512 318.369 22.7V45.02ZM326.87 45.02C326.87 46.244 327.842 47.18 329.03 47.18C330.254 47.18 331.226 46.244 331.226 45.02V22.7C331.226 21.512 330.254 20.54 329.03 20.54C327.806 20.54 326.87 21.512 326.87 22.7V45.02ZM338.575 52.868C341.635 52.868 343.363 51.428 344.983 47.54L351.931 30.872C352.003 30.656 352.111 30.188 352.111 29.828C352.111 28.676 351.175 27.776 350.023 27.776C348.907 27.776 348.295 28.532 347.935 29.432L343.183 42.068L338.071 29.432C337.675 28.424 337.063 27.776 335.947 27.776C334.723 27.776 333.787 28.676 333.787 29.9C333.787 30.188 333.895 30.62 334.039 30.944L341.095 46.712L340.951 47.108C340.231 48.584 339.547 49.124 338.251 49.124C337.639 49.124 337.243 49.016 336.739 48.872C336.523 48.8 336.307 48.728 335.947 48.728C335.011 48.728 334.183 49.448 334.183 50.528C334.183 51.572 334.903 52.112 335.551 52.328C336.451 52.688 337.351 52.868 338.575 52.868Z" fill="#00E59D"/>
<g filter="url(#filter3_f)">
<path d="M119.332 44.984C119.332 46.208 120.304 47.18 121.528 47.18C122.788 47.18 123.76 46.208 123.76 44.984V37.1L132.364 25.328C132.688 24.896 132.976 24.356 132.976 23.744C132.976 22.556 132.112 21.584 130.816 21.584C129.88 21.584 129.232 22.124 128.692 22.916L121.564 33.068L114.544 22.952C114.004 22.16 113.356 21.62 112.384 21.62C111.124 21.62 110.152 22.556 110.152 23.744C110.152 24.356 110.368 24.86 110.656 25.292L119.332 37.208V44.984ZM141.191 47.432C147.059 47.432 151.379 42.932 151.379 37.532V37.46C151.379 32.024 147.095 27.596 141.263 27.596C135.431 27.596 131.111 32.096 131.111 37.532V37.604C131.111 43.004 135.395 47.432 141.191 47.432ZM141.263 43.616C137.879 43.616 135.467 40.844 135.467 37.532V37.46C135.467 34.148 137.699 31.412 141.191 31.412C144.611 31.412 147.023 34.184 147.023 37.532V37.604C147.023 40.88 144.791 43.616 141.263 43.616ZM170.899 29.972C170.899 28.748 169.891 27.776 168.703 27.776C167.479 27.776 166.507 28.748 166.507 29.972V38.72C166.507 41.672 164.743 43.4 162.223 43.4C159.631 43.4 158.155 41.744 158.155 38.792V29.972C158.155 28.748 157.183 27.776 155.959 27.776C154.771 27.776 153.799 28.748 153.799 29.972V40.088C153.799 44.516 156.283 47.396 160.567 47.396C163.519 47.396 165.283 45.848 166.507 44.048V45.02C166.507 46.244 167.515 47.18 168.703 47.18C169.927 47.18 170.899 46.208 170.899 45.02V29.972ZM174.539 45.02C174.539 46.244 175.511 47.18 176.699 47.18C177.923 47.18 178.895 46.208 178.895 45.02V39.404C178.895 34.904 181.019 32.528 184.115 31.988C185.087 31.808 185.843 31.052 185.843 29.9C185.843 28.64 185.051 27.74 183.683 27.74C181.775 27.74 179.903 29.54 178.895 31.916V29.972C178.895 28.748 177.923 27.776 176.699 27.776C175.475 27.776 174.539 28.748 174.539 29.972V45.02ZM203.119 47.36C207.079 47.36 210.175 45.38 210.175 41.384V41.312C210.175 37.892 207.043 36.632 204.271 35.768C202.039 35.048 199.987 34.472 199.987 33.068V32.996C199.987 31.916 200.959 31.124 202.651 31.124C203.983 31.124 205.567 31.628 207.115 32.42C207.403 32.564 207.619 32.636 207.979 32.636C208.987 32.636 209.779 31.88 209.779 30.872C209.779 30.116 209.347 29.54 208.735 29.216C206.899 28.244 204.775 27.668 202.759 27.668C198.979 27.668 195.991 29.864 195.991 33.464V33.536C195.991 37.172 199.123 38.324 201.931 39.116C204.163 39.8 206.179 40.304 206.179 41.78V41.852C206.179 43.112 205.099 43.904 203.227 43.904C201.499 43.904 199.591 43.292 197.755 42.068C197.503 41.924 197.179 41.816 196.819 41.816C195.811 41.816 195.055 42.608 195.055 43.58C195.055 44.3 195.415 44.84 195.883 45.092C198.079 46.604 200.707 47.36 203.119 47.36ZM212.838 50.78C212.838 52.004 213.81 52.94 214.998 52.94C216.222 52.94 217.194 52.004 217.194 50.78V44.048C218.526 45.812 220.506 47.396 223.674 47.396C228.174 47.396 232.494 43.832 232.494 37.532V37.46C232.494 31.124 228.138 27.596 223.674 27.596C220.578 27.596 218.598 29.18 217.194 31.16V29.972C217.194 28.748 216.222 27.776 214.998 27.776C213.774 27.776 212.838 28.748 212.838 29.972V50.78ZM222.63 43.616C219.678 43.616 217.086 41.168 217.086 37.532V37.46C217.086 33.824 219.678 31.376 222.63 31.376C225.582 31.376 228.066 33.788 228.066 37.46V37.532C228.066 41.276 225.618 43.616 222.63 43.616ZM235.119 23.096C235.119 24.392 236.199 25.256 237.603 25.256C239.007 25.256 240.087 24.392 240.087 23.096V22.88C240.087 21.584 239.007 20.756 237.603 20.756C236.199 20.756 235.119 21.584 235.119 22.88V23.096ZM235.443 45.02C235.443 46.244 236.415 47.18 237.603 47.18C238.827 47.18 239.799 46.244 239.799 45.02V29.972C239.799 28.748 238.827 27.776 237.603 27.776C236.379 27.776 235.443 28.748 235.443 29.972V45.02ZM243.691 45.02C243.691 46.244 244.663 47.18 245.851 47.18C247.075 47.18 248.047 46.208 248.047 45.02V39.404C248.047 34.904 250.171 32.528 253.267 31.988C254.239 31.808 254.995 31.052 254.995 29.9C254.995 28.64 254.203 27.74 252.835 27.74C250.927 27.74 249.055 29.54 248.047 31.916V29.972C248.047 28.748 247.075 27.776 245.851 27.776C244.627 27.776 243.691 28.748 243.691 29.972V45.02ZM256.691 23.096C256.691 24.392 257.771 25.256 259.175 25.256C260.579 25.256 261.659 24.392 261.659 23.096V22.88C261.659 21.584 260.579 20.756 259.175 20.756C257.771 20.756 256.691 21.584 256.691 22.88V23.096ZM257.015 45.02C257.015 46.244 257.987 47.18 259.175 47.18C260.399 47.18 261.371 46.244 261.371 45.02V29.972C261.371 28.748 260.399 27.776 259.175 27.776C257.951 27.776 257.015 28.748 257.015 29.972V45.02ZM271.635 47.324C272.787 47.324 273.687 47.144 274.623 46.82C275.235 46.568 275.775 45.92 275.775 45.128C275.775 44.12 274.911 43.328 273.939 43.328C273.795 43.328 273.363 43.436 272.859 43.436C271.383 43.436 270.519 42.752 270.519 41.06V31.736H273.939C274.983 31.736 275.847 30.908 275.847 29.864C275.847 28.82 274.983 27.992 273.939 27.992H270.519V24.752C270.519 23.564 269.547 22.592 268.359 22.592C267.135 22.592 266.163 23.564 266.163 24.752V27.992H265.443C264.399 27.992 263.571 28.82 263.571 29.864C263.571 30.908 264.399 31.736 265.443 31.736H266.163V41.744C266.163 45.92 268.431 47.324 271.635 47.324ZM295.148 29.972C295.148 28.748 294.14 27.776 292.952 27.776C291.728 27.776 290.756 28.748 290.756 29.972V38.72C290.756 41.672 288.992 43.4 286.472 43.4C283.88 43.4 282.404 41.744 282.404 38.792V29.972C282.404 28.748 281.432 27.776 280.208 27.776C279.02 27.776 278.048 28.748 278.048 29.972V40.088C278.048 44.516 280.532 47.396 284.816 47.396C287.768 47.396 289.532 45.848 290.756 44.048V45.02C290.756 46.244 291.764 47.18 292.952 47.18C294.176 47.18 295.148 46.208 295.148 45.02V29.972ZM304.26 47.396C307.176 47.396 309.156 46.172 310.452 44.624V45.344C310.452 46.316 311.316 47.18 312.576 47.18C313.764 47.18 314.7 46.28 314.7 45.092V35.732C314.7 33.248 314.052 31.232 312.648 29.864C311.316 28.496 309.192 27.74 306.348 27.74C303.864 27.74 302.028 28.172 300.228 28.856C299.58 29.108 299.04 29.792 299.04 30.584C299.04 31.592 299.868 32.384 300.876 32.384C301.092 32.384 301.308 32.348 301.56 32.276C302.748 31.808 304.116 31.52 305.772 31.52C308.832 31.52 310.488 32.96 310.488 35.66V36.128C309.012 35.66 307.5 35.336 305.376 35.336C300.732 35.336 297.528 37.352 297.528 41.456V41.528C297.528 45.344 300.696 47.396 304.26 47.396ZM305.484 44.228C303.396 44.228 301.776 43.184 301.776 41.348V41.276C301.776 39.296 303.432 38.108 306.24 38.108C307.968 38.108 309.444 38.432 310.56 38.864V40.16C310.56 42.572 308.364 44.228 305.484 44.228ZM318.369 45.02C318.369 46.244 319.341 47.18 320.529 47.18C321.753 47.18 322.725 46.244 322.725 45.02V22.7C322.725 21.512 321.753 20.54 320.529 20.54C319.305 20.54 318.369 21.512 318.369 22.7V45.02ZM326.87 45.02C326.87 46.244 327.842 47.18 329.03 47.18C330.254 47.18 331.226 46.244 331.226 45.02V22.7C331.226 21.512 330.254 20.54 329.03 20.54C327.806 20.54 326.87 21.512 326.87 22.7V45.02ZM338.575 52.868C341.635 52.868 343.363 51.428 344.983 47.54L351.931 30.872C352.003 30.656 352.111 30.188 352.111 29.828C352.111 28.676 351.175 27.776 350.023 27.776C348.907 27.776 348.295 28.532 347.935 29.432L343.183 42.068L338.071 29.432C337.675 28.424 337.063 27.776 335.947 27.776C334.723 27.776 333.787 28.676 333.787 29.9C333.787 30.188 333.895 30.62 334.039 30.944L341.095 46.712L340.951 47.108C340.231 48.584 339.547 49.124 338.251 49.124C337.639 49.124 337.243 49.016 336.739 48.872C336.523 48.8 336.307 48.728 335.947 48.728C335.011 48.728 334.183 49.448 334.183 50.528C334.183 51.572 334.903 52.112 335.551 52.328C336.451 52.688 337.351 52.868 338.575 52.868Z" fill="#00E59D"/>
</g>
<defs>
<filter id="filter0_f" x="13.3604" y="56.1602" width="446.45" height="90.68" filterUnits="userSpaceOnUse" color-interpolation-filters="sRGB">
<feFlood flood-opacity="0" result="BackgroundImageFix"/>
<feBlend mode="normal" in="SourceGraphic" in2="BackgroundImageFix" result="shape"/>
<feGaussianBlur stdDeviation="10" result="effect1_foregroundBlur"/>
</filter>
<filter id="filter1_f" x="0.299805" y="122.55" width="472.422" height="92.29" filterUnits="userSpaceOnUse" color-interpolation-filters="sRGB">
<feFlood flood-opacity="0" result="BackgroundImageFix"/>
<feBlend mode="normal" in="SourceGraphic" in2="BackgroundImageFix" result="shape"/>
<feGaussianBlur stdDeviation="10" result="effect1_foregroundBlur"/>
</filter>
<filter id="filter2_f" x="47.4922" y="200.504" width="369.315" height="66.928" filterUnits="userSpaceOnUse" color-interpolation-filters="sRGB">
<feFlood flood-opacity="0" result="BackgroundImageFix"/>
<feBlend mode="normal" in="SourceGraphic" in2="BackgroundImageFix" result="shape"/>
<feGaussianBlur stdDeviation="10" result="effect1_foregroundBlur"/>
</filter>
<filter id="filter3_f" x="90.1523" y="0.540039" width="281.959" height="72.4" filterUnits="userSpaceOnUse" color-interpolation-filters="sRGB">
<feFlood flood-opacity="0" result="BackgroundImageFix"/>
<feBlend mode="normal" in="SourceGraphic" in2="BackgroundImageFix" result="shape"/>
<feGaussianBlur stdDeviation="10" result="effect1_foregroundBlur"/>
</filter>
</defs>
</svg>
