<svg data-name="Layer 3" xmlns="http://www.w3.org/2000/svg" viewBox="0 0 1000 1000" style="width:80px;height:80px"><path class="cls-1" style="fill:none;stroke:#fff;stroke-linecap:round;stroke-miterlimit:10;stroke-width:25.32px" d="M45.85 239.67v387.14"/><path class="cls-2" d="M368.77 238c105.71 0 155.94 55.88 179.47 102.75 25 49.86 25.31 99.17 25.31 101.25 0 .41.41 45.48 22.69 89.44 29 57.19 80.44 86.19 153 86.19 96.94 0 175.8-78.87 175.8-175.8q0-2.21-.06-4.41c-2.35 94.9-80.28 171.39-175.74 171.39-72.51 0-124-29-153-86.19-22.28-44-22.69-89-22.69-89.45 0-2.07-.28-51.38-25.31-101.24-23.53-46.87-73.76-102.75-179.47-102.75-54.42 0-105.81 21.42-144.7 60.32s-60.32 90.28-60.32 144.7c0 1.47 0 2.94.06 4.41 1.12-52.78 22.42-102.45 60.26-140.29C263 259.46 314.35 238 368.77 238Z" style="fill:#11a2ea"/><path class="cls-3" d="M893.9 297.17c-38.9-38.9-90.29-60.31-144.71-60.31a204.7 204.7 0 0 0-109.8 31.88A14.61 14.61 0 0 0 655 293.42a175.5 175.5 0 0 1 94.15-27.35c95.46 0 173.39 76.48 175.74 171.39q.06 2.21.06 4.41c0 96.93-78.86 175.8-175.8 175.8-72.51 0-124-29-153-86.19-22.28-44-22.69-89-22.69-89.44 0-2.08-.28-51.39-25.31-101.25C524.71 293.92 474.48 238 368.77 238c-54.42 0-105.81 21.42-144.7 60.32-37.84 37.84-59.14 87.51-60.26 140.29 1.12 52.78 22.42 102.45 60.26 140.29 38.89 38.89 90.28 60.31 144.7 60.31a204.47 204.47 0 0 0 112.44-33.58 14.61 14.61 0 1 0-16-24.44A175.3 175.3 0 0 1 368.77 610c-95.46 0-173.39-76.45-175.77-171.35q-.06-2.2-.06-4.41c0-96.94 78.87-175.8 175.8-175.8 72.52 0 124 28.86 152.92 85.77 22.24 43.73 22.64 88.57 22.64 89 0 2.09.3 51.59 25.34 101.66 23.55 47.08 73.8 103.19 179.52 103.19 54.42 0 105.81-21.42 144.71-60.31 37.84-37.84 59.13-87.51 60.25-140.29C953 384.68 931.74 335 893.9 297.17ZM497.58 764.41v-95c0-4.2 2.17-6.37 6.52-6.37 4.19 0 6.21 2.17 6.21 6.37v34.93c5.43-4.19 11-5.75 17.7-5.75a30.22 30.22 0 0 1 30 30.12v35.71c0 3.57-2.17 6.37-6.36 6.37s-6.52-2.8-6.52-6.37V728.7a17.39 17.39 0 0 0-34.78 0v35.71c0 3.57-2 6.37-6.21 6.37a6.43 6.43 0 0 1-6.56-6.37ZM624.11 705v59.46a6.3 6.3 0 0 1-6.37 6.37c-4.19 0-6.36-2.49-6.52-6.06-5.43 3.88-11.17 6.06-17.23 6.06a30.28 30.28 0 0 1-30.27-30.12V705a6.33 6.33 0 0 1 6.52-6.37c4.19 0 6.36 2.18 6.36 6.37v35.71a17.31 17.31 0 1 0 34.62 0V705c0-4.19 2.18-6.37 6.52-6.37a6.3 6.3 0 0 1 6.37 6.37ZM631.87 764.41V705a6.3 6.3 0 0 1 6.37-6.37c4 0 6.21 2 6.36 5.9a28.7 28.7 0 0 1 17.39-5.9 30.18 30.18 0 0 1 30.27 30.12v35.71a6.44 6.44 0 0 1-12.88 0V728.7a17.39 17.39 0 0 0-34.78 0v35.71a6.21 6.21 0 0 1-6.36 6.37 6.3 6.3 0 0 1-6.37-6.37ZM697.85 740.66v-12a30.19 30.19 0 0 1 30.28-30.12c6 0 11.8 2.18 17.23 6.06v-35.2c0-4.2 2.17-6.37 6.52-6.37 4.19 0 6.37 2.17 6.37 6.37v71.26a30.2 30.2 0 0 1-60.4 0Zm12.89 0a17.31 17.31 0 1 0 34.62 0v-12a17.31 17.31 0 0 0-34.62 0ZM816.15 714.73l.16-.16c-2.95 3.73-6.83 3.26-9.32 1.25a16.62 16.62 0 0 0-11-4A17.3 17.3 0 0 0 778.74 729v35.4a6.21 6.21 0 0 1-6.37 6.37c-4.34 0-6.52-2.18-6.52-6.37v-59.14c0-4.19 2.18-6.37 6.52-6.37a6.38 6.38 0 0 1 6.37 5.44 30 30 0 0 1 36.48 1.55 6.83 6.83 0 0 1 .93 8.85ZM825 752.46a33.13 33.13 0 0 1-2.17-11.8v-12a29.69 29.69 0 0 1 18.47-27.63h-.15a27.69 27.69 0 0 1 11.8-2.49 30 30 0 0 1 27.63 18.48 25.62 25.62 0 0 1 2.48 11.64 6.86 6.86 0 0 1-1.86 4.66 7.21 7.21 0 0 1-4.5 1.86h-41v5.44c0 7.29 4.19 13 10.56 16A15.6 15.6 0 0 0 853 758a17.5 17.5 0 0 0 12.26-5.27 18.62 18.62 0 0 0 3.73-5.44c1.24-2.48 1.86-4 6-4 3.57 0 6.37 1.86 6.37 6.05a4.82 4.82 0 0 1-.62 2.33 31.56 31.56 0 0 1-6.52 10.4 29.52 29.52 0 0 1-21.27 8.7A30.64 30.64 0 0 1 825 752.46Zm12.58-31.21-.62 1.24h32c-3-6.67-9-11-16-11-6.69-.02-12.28 3.71-15.38 9.76ZM888.19 740.66v-12a30.18 30.18 0 0 1 30.27-30.12c6.06 0 11.8 2.18 17.23 6.06v-35.2c0-4.2 2.18-6.37 6.52-6.37 4.19 0 6.37 2.17 6.37 6.37v71.26a30.2 30.2 0 0 1-60.39 0Zm12.88 0a17.31 17.31 0 1 0 34.62 0v-12a17.31 17.31 0 0 0-34.62 0Z" style="fill:#fff"/></svg>