<svg width="513" height="152" viewBox="0 0 513 152" fill="none" xmlns="http://www.w3.org/2000/svg">
<path d="M20.79 127.08C20.79 129.46 22.68 131.35 25.13 131.35C27.51 131.35 29.4 129.46 29.4 127.08V85.92C29.4 83.54 27.51 81.65 25.13 81.65C22.68 81.65 20.79 83.54 20.79 85.92V127.08ZM39.0168 127.15C39.0168 129.46 40.9068 131.35 43.2868 131.35C45.5968 131.35 47.4868 129.46 47.4868 127.15V96.07L72.6868 128.69C73.8768 130.23 75.1368 131.28 77.1668 131.28H77.5168C79.8968 131.28 81.7168 129.39 81.7168 127.01V85.85C81.7168 83.54 79.8268 81.65 77.4468 81.65C75.1368 81.65 73.2468 83.54 73.2468 85.85V115.95L48.7468 84.24C47.5568 82.77 46.3668 81.72 44.2668 81.72H43.3568C40.9068 81.72 39.0168 83.68 39.0168 86.06V127.15ZM109.93 131.7H110.42C112.87 131.7 114.48 130.37 115.39 128.2L132.61 87.6C132.82 87.11 133.03 86.41 133.03 85.78C133.03 83.47 131.14 81.65 128.76 81.65C126.73 81.65 125.19 82.98 124.63 84.45L110.28 120.08L96.1395 84.73C95.4395 82.91 93.9695 81.65 91.7295 81.65C89.2795 81.65 87.3895 83.54 87.3895 85.85C87.3895 86.62 87.5995 87.25 87.8795 87.88L105.03 128.2C105.94 130.37 107.55 131.7 109.93 131.7ZM142.997 131H171.837C173.937 131 175.687 129.32 175.687 127.15C175.687 125.05 173.937 123.3 171.837 123.3H147.267V110.14H168.337C170.437 110.14 172.187 108.46 172.187 106.36C172.187 104.19 170.437 102.44 168.337 102.44H147.267V89.7H171.487C173.587 89.7 175.337 88.02 175.337 85.85C175.337 83.75 173.587 82 171.487 82H142.997C140.547 82 138.657 83.89 138.657 86.34V126.66C138.657 129.11 140.547 131 142.997 131ZM199.202 131.7C209.492 131.7 216.702 126.24 216.702 117.07V116.93C216.702 108.81 211.382 105.1 201.022 102.58C191.572 100.34 189.332 98.66 189.332 94.88V94.74C189.332 91.52 192.272 88.93 197.312 88.93C201.162 88.93 204.802 90.19 208.582 92.64C209.282 93.06 209.982 93.27 210.822 93.27C213.062 93.27 214.882 91.52 214.882 89.28C214.882 87.6 213.972 86.41 212.992 85.85C208.582 82.91 203.612 81.3 197.452 81.3C187.722 81.3 180.722 87.11 180.722 95.51V95.65C180.722 104.68 186.602 107.76 197.032 110.28C206.132 112.38 208.092 114.27 208.092 117.77V117.91C208.092 121.55 204.732 124.07 199.412 124.07C194.092 124.07 189.752 122.25 185.692 119.03C185.132 118.61 184.362 118.26 183.172 118.26C180.932 118.26 179.112 120.01 179.112 122.25C179.112 123.65 179.812 124.84 180.792 125.54C186.252 129.6 192.552 131.7 199.202 131.7ZM234.342 127.08C234.342 129.46 236.302 131.35 238.682 131.35C241.062 131.35 243.022 129.46 243.022 127.08V89.98H254.992C257.162 89.98 258.912 88.16 258.912 85.99C258.912 83.82 257.162 82 254.992 82H222.442C220.202 82 218.452 83.82 218.452 85.99C218.452 88.16 220.202 89.98 222.442 89.98H234.342V127.08ZM264.193 127.15C264.193 129.53 266.013 131.35 268.393 131.35C270.773 131.35 272.663 129.53 272.663 127.15V97.82L284.563 115.67C285.473 117.07 286.593 117.91 288.133 117.91C289.743 117.91 290.863 117.07 291.773 115.67L303.743 97.68V127.08C303.743 129.39 305.703 131.35 308.013 131.35C310.463 131.35 312.353 129.46 312.353 127.08V86.06C312.353 83.68 310.463 81.72 308.013 81.72H307.103C305.353 81.72 304.093 82.49 303.183 83.96L288.273 107.27L273.433 84.03C272.593 82.7 271.333 81.72 269.443 81.72H268.533C266.083 81.72 264.193 83.68 264.193 86.06V127.15ZM325.804 131H354.644C356.744 131 358.494 129.32 358.494 127.15C358.494 125.05 356.744 123.3 354.644 123.3H330.074V110.14H351.144C353.244 110.14 354.994 108.46 354.994 106.36C354.994 104.19 353.244 102.44 351.144 102.44H330.074V89.7H354.294C356.394 89.7 358.144 88.02 358.144 85.85C358.144 83.75 356.394 82 354.294 82H325.804C323.354 82 321.464 83.89 321.464 86.34V126.66C321.464 129.11 323.354 131 325.804 131ZM364.859 127.15C364.859 129.46 366.749 131.35 369.129 131.35C371.439 131.35 373.329 129.46 373.329 127.15V96.07L398.529 128.69C399.719 130.23 400.979 131.28 403.009 131.28H403.359C405.739 131.28 407.559 129.39 407.559 127.01V85.85C407.559 83.54 405.669 81.65 403.289 81.65C400.979 81.65 399.089 83.54 399.089 85.85V115.95L374.589 84.24C373.399 82.77 372.209 81.72 370.109 81.72H369.199C366.749 81.72 364.859 83.68 364.859 86.06V127.15ZM428.701 127.08C428.701 129.46 430.661 131.35 433.041 131.35C435.421 131.35 437.381 129.46 437.381 127.08V89.98H449.351C451.521 89.98 453.271 88.16 453.271 85.99C453.271 83.82 451.521 82 449.351 82H416.801C414.561 82 412.811 83.82 412.811 85.99C412.811 88.16 414.561 89.98 416.801 89.98H428.701V127.08ZM474.677 131.7C484.967 131.7 492.177 126.24 492.177 117.07V116.93C492.177 108.81 486.857 105.1 476.497 102.58C467.047 100.34 464.807 98.66 464.807 94.88V94.74C464.807 91.52 467.747 88.93 472.787 88.93C476.637 88.93 480.277 90.19 484.057 92.64C484.757 93.06 485.457 93.27 486.297 93.27C488.537 93.27 490.357 91.52 490.357 89.28C490.357 87.6 489.447 86.41 488.467 85.85C484.057 82.91 479.087 81.3 472.927 81.3C463.197 81.3 456.197 87.11 456.197 95.51V95.65C456.197 104.68 462.077 107.76 472.507 110.28C481.607 112.38 483.567 114.27 483.567 117.77V117.91C483.567 121.55 480.207 124.07 474.887 124.07C469.567 124.07 465.227 122.25 461.167 119.03C460.607 118.61 459.837 118.26 458.647 118.26C456.407 118.26 454.587 120.01 454.587 122.25C454.587 123.65 455.287 124.84 456.267 125.54C461.727 129.6 468.027 131.7 474.677 131.7Z" fill="black"/>
<path d="M20.79 122.08C20.79 124.46 22.68 126.35 25.13 126.35C27.51 126.35 29.4 124.46 29.4 122.08V80.92C29.4 78.54 27.51 76.65 25.13 76.65C22.68 76.65 20.79 78.54 20.79 80.92V122.08ZM39.0168 122.15C39.0168 124.46 40.9068 126.35 43.2868 126.35C45.5968 126.35 47.4868 124.46 47.4868 122.15V91.07L72.6868 123.69C73.8768 125.23 75.1368 126.28 77.1668 126.28H77.5168C79.8968 126.28 81.7168 124.39 81.7168 122.01V80.85C81.7168 78.54 79.8268 76.65 77.4468 76.65C75.1368 76.65 73.2468 78.54 73.2468 80.85V110.95L48.7468 79.24C47.5568 77.77 46.3668 76.72 44.2668 76.72H43.3568C40.9068 76.72 39.0168 78.68 39.0168 81.06V122.15ZM109.93 126.7H110.42C112.87 126.7 114.48 125.37 115.39 123.2L132.61 82.6C132.82 82.11 133.03 81.41 133.03 80.78C133.03 78.47 131.14 76.65 128.76 76.65C126.73 76.65 125.19 77.98 124.63 79.45L110.28 115.08L96.1395 79.73C95.4395 77.91 93.9695 76.65 91.7295 76.65C89.2795 76.65 87.3895 78.54 87.3895 80.85C87.3895 81.62 87.5995 82.25 87.8795 82.88L105.03 123.2C105.94 125.37 107.55 126.7 109.93 126.7ZM142.997 126H171.837C173.937 126 175.687 124.32 175.687 122.15C175.687 120.05 173.937 118.3 171.837 118.3H147.267V105.14H168.337C170.437 105.14 172.187 103.46 172.187 101.36C172.187 99.19 170.437 97.44 168.337 97.44H147.267V84.7H171.487C173.587 84.7 175.337 83.02 175.337 80.85C175.337 78.75 173.587 77 171.487 77H142.997C140.547 77 138.657 78.89 138.657 81.34V121.66C138.657 124.11 140.547 126 142.997 126ZM199.202 126.7C209.492 126.7 216.702 121.24 216.702 112.07V111.93C216.702 103.81 211.382 100.1 201.022 97.58C191.572 95.34 189.332 93.66 189.332 89.88V89.74C189.332 86.52 192.272 83.93 197.312 83.93C201.162 83.93 204.802 85.19 208.582 87.64C209.282 88.06 209.982 88.27 210.822 88.27C213.062 88.27 214.882 86.52 214.882 84.28C214.882 82.6 213.972 81.41 212.992 80.85C208.582 77.91 203.612 76.3 197.452 76.3C187.722 76.3 180.722 82.11 180.722 90.51V90.65C180.722 99.68 186.602 102.76 197.032 105.28C206.132 107.38 208.092 109.27 208.092 112.77V112.91C208.092 116.55 204.732 119.07 199.412 119.07C194.092 119.07 189.752 117.25 185.692 114.03C185.132 113.61 184.362 113.26 183.172 113.26C180.932 113.26 179.112 115.01 179.112 117.25C179.112 118.65 179.812 119.84 180.792 120.54C186.252 124.6 192.552 126.7 199.202 126.7ZM234.342 122.08C234.342 124.46 236.302 126.35 238.682 126.35C241.062 126.35 243.022 124.46 243.022 122.08V84.98H254.992C257.162 84.98 258.912 83.16 258.912 80.99C258.912 78.82 257.162 77 254.992 77H222.442C220.202 77 218.452 78.82 218.452 80.99C218.452 83.16 220.202 84.98 222.442 84.98H234.342V122.08ZM264.193 122.15C264.193 124.53 266.013 126.35 268.393 126.35C270.773 126.35 272.663 124.53 272.663 122.15V92.82L284.563 110.67C285.473 112.07 286.593 112.91 288.133 112.91C289.743 112.91 290.863 112.07 291.773 110.67L303.743 92.68V122.08C303.743 124.39 305.703 126.35 308.013 126.35C310.463 126.35 312.353 124.46 312.353 122.08V81.06C312.353 78.68 310.463 76.72 308.013 76.72H307.103C305.353 76.72 304.093 77.49 303.183 78.96L288.273 102.27L273.433 79.03C272.593 77.7 271.333 76.72 269.443 76.72H268.533C266.083 76.72 264.193 78.68 264.193 81.06V122.15ZM325.804 126H354.644C356.744 126 358.494 124.32 358.494 122.15C358.494 120.05 356.744 118.3 354.644 118.3H330.074V105.14H351.144C353.244 105.14 354.994 103.46 354.994 101.36C354.994 99.19 353.244 97.44 351.144 97.44H330.074V84.7H354.294C356.394 84.7 358.144 83.02 358.144 80.85C358.144 78.75 356.394 77 354.294 77H325.804C323.354 77 321.464 78.89 321.464 81.34V121.66C321.464 124.11 323.354 126 325.804 126ZM364.859 122.15C364.859 124.46 366.749 126.35 369.129 126.35C371.439 126.35 373.329 124.46 373.329 122.15V91.07L398.529 123.69C399.719 125.23 400.979 126.28 403.009 126.28H403.359C405.739 126.28 407.559 124.39 407.559 122.01V80.85C407.559 78.54 405.669 76.65 403.289 76.65C400.979 76.65 399.089 78.54 399.089 80.85V110.95L374.589 79.24C373.399 77.77 372.209 76.72 370.109 76.72H369.199C366.749 76.72 364.859 78.68 364.859 81.06V122.15ZM428.701 122.08C428.701 124.46 430.661 126.35 433.041 126.35C435.421 126.35 437.381 124.46 437.381 122.08V84.98H449.351C451.521 84.98 453.271 83.16 453.271 80.99C453.271 78.82 451.521 77 449.351 77H416.801C414.561 77 412.811 78.82 412.811 80.99C412.811 83.16 414.561 84.98 416.801 84.98H428.701V122.08ZM474.677 126.7C484.967 126.7 492.177 121.24 492.177 112.07V111.93C492.177 103.81 486.857 100.1 476.497 97.58C467.047 95.34 464.807 93.66 464.807 89.88V89.74C464.807 86.52 467.747 83.93 472.787 83.93C476.637 83.93 480.277 85.19 484.057 87.64C484.757 88.06 485.457 88.27 486.297 88.27C488.537 88.27 490.357 86.52 490.357 84.28C490.357 82.6 489.447 81.41 488.467 80.85C484.057 77.91 479.087 76.3 472.927 76.3C463.197 76.3 456.197 82.11 456.197 90.51V90.65C456.197 99.68 462.077 102.76 472.507 105.28C481.607 107.38 483.567 109.27 483.567 112.77V112.91C483.567 116.55 480.207 119.07 474.887 119.07C469.567 119.07 465.227 117.25 461.167 114.03C460.607 113.61 459.837 113.26 458.647 113.26C456.407 113.26 454.587 115.01 454.587 117.25C454.587 118.65 455.287 119.84 456.267 120.54C461.727 124.6 468.027 126.7 474.677 126.7Z" fill="#FF0000"/>
<g filter="url(#filter0_f)">
<path d="M20.79 122.08C20.79 124.46 22.68 126.35 25.13 126.35C27.51 126.35 29.4 124.46 29.4 122.08V80.92C29.4 78.54 27.51 76.65 25.13 76.65C22.68 76.65 20.79 78.54 20.79 80.92V122.08ZM39.0168 122.15C39.0168 124.46 40.9068 126.35 43.2868 126.35C45.5968 126.35 47.4868 124.46 47.4868 122.15V91.07L72.6868 123.69C73.8768 125.23 75.1368 126.28 77.1668 126.28H77.5168C79.8968 126.28 81.7168 124.39 81.7168 122.01V80.85C81.7168 78.54 79.8268 76.65 77.4468 76.65C75.1368 76.65 73.2468 78.54 73.2468 80.85V110.95L48.7468 79.24C47.5568 77.77 46.3668 76.72 44.2668 76.72H43.3568C40.9068 76.72 39.0168 78.68 39.0168 81.06V122.15ZM109.93 126.7H110.42C112.87 126.7 114.48 125.37 115.39 123.2L132.61 82.6C132.82 82.11 133.03 81.41 133.03 80.78C133.03 78.47 131.14 76.65 128.76 76.65C126.73 76.65 125.19 77.98 124.63 79.45L110.28 115.08L96.1395 79.73C95.4395 77.91 93.9695 76.65 91.7295 76.65C89.2795 76.65 87.3895 78.54 87.3895 80.85C87.3895 81.62 87.5995 82.25 87.8795 82.88L105.03 123.2C105.94 125.37 107.55 126.7 109.93 126.7ZM142.997 126H171.837C173.937 126 175.687 124.32 175.687 122.15C175.687 120.05 173.937 118.3 171.837 118.3H147.267V105.14H168.337C170.437 105.14 172.187 103.46 172.187 101.36C172.187 99.19 170.437 97.44 168.337 97.44H147.267V84.7H171.487C173.587 84.7 175.337 83.02 175.337 80.85C175.337 78.75 173.587 77 171.487 77H142.997C140.547 77 138.657 78.89 138.657 81.34V121.66C138.657 124.11 140.547 126 142.997 126ZM199.202 126.7C209.492 126.7 216.702 121.24 216.702 112.07V111.93C216.702 103.81 211.382 100.1 201.022 97.58C191.572 95.34 189.332 93.66 189.332 89.88V89.74C189.332 86.52 192.272 83.93 197.312 83.93C201.162 83.93 204.802 85.19 208.582 87.64C209.282 88.06 209.982 88.27 210.822 88.27C213.062 88.27 214.882 86.52 214.882 84.28C214.882 82.6 213.972 81.41 212.992 80.85C208.582 77.91 203.612 76.3 197.452 76.3C187.722 76.3 180.722 82.11 180.722 90.51V90.65C180.722 99.68 186.602 102.76 197.032 105.28C206.132 107.38 208.092 109.27 208.092 112.77V112.91C208.092 116.55 204.732 119.07 199.412 119.07C194.092 119.07 189.752 117.25 185.692 114.03C185.132 113.61 184.362 113.26 183.172 113.26C180.932 113.26 179.112 115.01 179.112 117.25C179.112 118.65 179.812 119.84 180.792 120.54C186.252 124.6 192.552 126.7 199.202 126.7ZM234.342 122.08C234.342 124.46 236.302 126.35 238.682 126.35C241.062 126.35 243.022 124.46 243.022 122.08V84.98H254.992C257.162 84.98 258.912 83.16 258.912 80.99C258.912 78.82 257.162 77 254.992 77H222.442C220.202 77 218.452 78.82 218.452 80.99C218.452 83.16 220.202 84.98 222.442 84.98H234.342V122.08ZM264.193 122.15C264.193 124.53 266.013 126.35 268.393 126.35C270.773 126.35 272.663 124.53 272.663 122.15V92.82L284.563 110.67C285.473 112.07 286.593 112.91 288.133 112.91C289.743 112.91 290.863 112.07 291.773 110.67L303.743 92.68V122.08C303.743 124.39 305.703 126.35 308.013 126.35C310.463 126.35 312.353 124.46 312.353 122.08V81.06C312.353 78.68 310.463 76.72 308.013 76.72H307.103C305.353 76.72 304.093 77.49 303.183 78.96L288.273 102.27L273.433 79.03C272.593 77.7 271.333 76.72 269.443 76.72H268.533C266.083 76.72 264.193 78.68 264.193 81.06V122.15ZM325.804 126H354.644C356.744 126 358.494 124.32 358.494 122.15C358.494 120.05 356.744 118.3 354.644 118.3H330.074V105.14H351.144C353.244 105.14 354.994 103.46 354.994 101.36C354.994 99.19 353.244 97.44 351.144 97.44H330.074V84.7H354.294C356.394 84.7 358.144 83.02 358.144 80.85C358.144 78.75 356.394 77 354.294 77H325.804C323.354 77 321.464 78.89 321.464 81.34V121.66C321.464 124.11 323.354 126 325.804 126ZM364.859 122.15C364.859 124.46 366.749 126.35 369.129 126.35C371.439 126.35 373.329 124.46 373.329 122.15V91.07L398.529 123.69C399.719 125.23 400.979 126.28 403.009 126.28H403.359C405.739 126.28 407.559 124.39 407.559 122.01V80.85C407.559 78.54 405.669 76.65 403.289 76.65C400.979 76.65 399.089 78.54 399.089 80.85V110.95L374.589 79.24C373.399 77.77 372.209 76.72 370.109 76.72H369.199C366.749 76.72 364.859 78.68 364.859 81.06V122.15ZM428.701 122.08C428.701 124.46 430.661 126.35 433.041 126.35C435.421 126.35 437.381 124.46 437.381 122.08V84.98H449.351C451.521 84.98 453.271 83.16 453.271 80.99C453.271 78.82 451.521 77 449.351 77H416.801C414.561 77 412.811 78.82 412.811 80.99C412.811 83.16 414.561 84.98 416.801 84.98H428.701V122.08ZM474.677 126.7C484.967 126.7 492.177 121.24 492.177 112.07V111.93C492.177 103.81 486.857 100.1 476.497 97.58C467.047 95.34 464.807 93.66 464.807 89.88V89.74C464.807 86.52 467.747 83.93 472.787 83.93C476.637 83.93 480.277 85.19 484.057 87.64C484.757 88.06 485.457 88.27 486.297 88.27C488.537 88.27 490.357 86.52 490.357 84.28C490.357 82.6 489.447 81.41 488.467 80.85C484.057 77.91 479.087 76.3 472.927 76.3C463.197 76.3 456.197 82.11 456.197 90.51V90.65C456.197 99.68 462.077 102.76 472.507 105.28C481.607 107.38 483.567 109.27 483.567 112.77V112.91C483.567 116.55 480.207 119.07 474.887 119.07C469.567 119.07 465.227 117.25 461.167 114.03C460.607 113.61 459.837 113.26 458.647 113.26C456.407 113.26 454.587 115.01 454.587 117.25C454.587 118.65 455.287 119.84 456.267 120.54C461.727 124.6 468.027 126.7 474.677 126.7Z" fill="#FF0000"/>
</g>
<path d="M125.24 50.02C125.24 51.244 126.176 52.18 127.4 52.18C128.624 52.18 129.596 51.244 129.596 50.02V34.936L135.716 44.116C136.184 44.836 136.76 45.268 137.552 45.268C138.38 45.268 138.956 44.836 139.424 44.116L145.58 34.864V49.984C145.58 51.172 146.588 52.18 147.776 52.18C149.036 52.18 150.008 51.208 150.008 49.984V28.888C150.008 27.664 149.036 26.656 147.776 26.656H147.308C146.408 26.656 145.76 27.052 145.292 27.808L137.624 39.796L129.992 27.844C129.56 27.16 128.912 26.656 127.94 26.656H127.472C126.212 26.656 125.24 27.664 125.24 28.888V50.02ZM157.646 57.868C160.706 57.868 162.434 56.428 164.054 52.54L171.002 35.872C171.074 35.656 171.182 35.188 171.182 34.828C171.182 33.676 170.246 32.776 169.094 32.776C167.978 32.776 167.366 33.532 167.006 34.432L162.254 47.068L157.142 34.432C156.746 33.424 156.134 32.776 155.018 32.776C153.794 32.776 152.858 33.676 152.858 34.9C152.858 35.188 152.966 35.62 153.11 35.944L160.166 51.712L160.022 52.108C159.302 53.584 158.618 54.124 157.322 54.124C156.71 54.124 156.314 54.016 155.81 53.872C155.594 53.8 155.378 53.728 155.018 53.728C154.082 53.728 153.254 54.448 153.254 55.528C153.254 56.572 153.974 57.112 154.622 57.328C155.522 57.688 156.422 57.868 157.646 57.868ZM182.512 50.02C182.512 51.208 183.484 52.18 184.672 52.18C185.896 52.18 186.868 51.208 186.868 50.02V49.048C188.2 50.812 190.18 52.396 193.348 52.396C197.848 52.396 202.168 48.832 202.168 42.532V42.46C202.168 36.124 197.812 32.596 193.348 32.596C190.252 32.596 188.272 34.18 186.868 36.16V27.7C186.868 26.476 185.896 25.54 184.672 25.54C183.448 25.54 182.512 26.476 182.512 27.7V50.02ZM192.304 48.616C189.352 48.616 186.76 46.168 186.76 42.532V42.46C186.76 38.824 189.352 36.376 192.304 36.376C195.256 36.376 197.74 38.788 197.74 42.46V42.532C197.74 46.276 195.292 48.616 192.304 48.616ZM208.14 41.164C208.536 38.212 210.408 36.16 213.072 36.16C215.952 36.16 217.608 38.356 217.896 41.164H208.14ZM220.416 49.912C220.74 49.588 220.992 49.12 220.992 48.58C220.992 47.572 220.236 46.816 219.264 46.816C218.76 46.816 218.472 46.96 218.148 47.212C216.924 48.22 215.484 48.868 213.648 48.868C210.84 48.868 208.644 47.14 208.176 44.044H220.092C221.208 44.044 222.144 43.18 222.144 41.956C222.144 37.564 219.156 32.596 213.108 32.596C207.672 32.596 203.82 37.06 203.82 42.496V42.568C203.82 48.436 208.068 52.432 213.576 52.432C216.528 52.432 218.688 51.46 220.416 49.912ZM228.067 41.164C228.463 38.212 230.335 36.16 232.999 36.16C235.879 36.16 237.535 38.356 237.823 41.164H228.067ZM240.343 49.912C240.667 49.588 240.919 49.12 240.919 48.58C240.919 47.572 240.163 46.816 239.191 46.816C238.687 46.816 238.399 46.96 238.075 47.212C236.851 48.22 235.411 48.868 233.575 48.868C230.767 48.868 228.571 47.14 228.103 44.044H240.019C241.135 44.044 242.071 43.18 242.071 41.956C242.071 37.564 239.083 32.596 233.035 32.596C227.599 32.596 223.747 37.06 223.747 42.496V42.568C223.747 48.436 227.995 52.432 233.503 52.432C236.455 52.432 238.615 51.46 240.343 49.912ZM251.089 52.324C252.241 52.324 253.141 52.144 254.077 51.82C254.689 51.568 255.229 50.92 255.229 50.128C255.229 49.12 254.365 48.328 253.393 48.328C253.249 48.328 252.817 48.436 252.313 48.436C250.837 48.436 249.973 47.752 249.973 46.06V36.736H253.393C254.437 36.736 255.301 35.908 255.301 34.864C255.301 33.82 254.437 32.992 253.393 32.992H249.973V29.752C249.973 28.564 249.001 27.592 247.813 27.592C246.589 27.592 245.617 28.564 245.617 29.752V32.992H244.897C243.853 32.992 243.025 33.82 243.025 34.864C243.025 35.908 243.853 36.736 244.897 36.736H245.617V46.744C245.617 50.92 247.885 52.324 251.089 52.324ZM257.718 50.02C257.718 51.244 258.69 52.18 259.878 52.18C261.102 52.18 262.074 51.244 262.074 50.02V41.272C262.074 38.32 263.838 36.556 266.358 36.556C268.95 36.556 270.426 38.248 270.426 41.2V50.02C270.426 51.244 271.398 52.18 272.622 52.18C273.846 52.18 274.782 51.244 274.782 50.02V39.868C274.782 35.476 272.298 32.596 268.014 32.596C265.062 32.596 263.298 34.144 262.074 35.908V27.7C262.074 26.512 261.102 25.54 259.878 25.54C258.654 25.54 257.718 26.512 257.718 27.7V50.02ZM287.278 52.432C293.146 52.432 297.466 47.932 297.466 42.532V42.46C297.466 37.024 293.182 32.596 287.35 32.596C281.518 32.596 277.198 37.096 277.198 42.532V42.604C277.198 48.004 281.482 52.432 287.278 52.432ZM287.35 48.616C283.966 48.616 281.554 45.844 281.554 42.532V42.46C281.554 39.148 283.786 36.412 287.278 36.412C290.698 36.412 293.11 39.184 293.11 42.532V42.604C293.11 45.88 290.878 48.616 287.35 48.616ZM309.803 50.452L316.139 35.908C316.247 35.692 316.391 35.26 316.391 34.864C316.391 33.676 315.455 32.776 314.267 32.776C313.115 32.776 312.539 33.532 312.215 34.288L307.247 46.96L302.351 34.36C301.991 33.46 301.379 32.776 300.191 32.776C299.003 32.776 298.031 33.784 298.031 34.864C298.031 35.26 298.175 35.62 298.283 35.944L304.619 50.452C305.123 51.604 305.915 52.36 307.103 52.36H307.319C308.507 52.36 309.299 51.568 309.803 50.452ZM321.266 41.164C321.662 38.212 323.534 36.16 326.198 36.16C329.078 36.16 330.734 38.356 331.022 41.164H321.266ZM333.542 49.912C333.866 49.588 334.118 49.12 334.118 48.58C334.118 47.572 333.362 46.816 332.39 46.816C331.886 46.816 331.598 46.96 331.274 47.212C330.05 48.22 328.61 48.868 326.774 48.868C323.966 48.868 321.77 47.14 321.302 44.044H333.218C334.334 44.044 335.27 43.18 335.27 41.956C335.27 37.564 332.282 32.596 326.234 32.596C320.798 32.596 316.946 37.06 316.946 42.496V42.568C316.946 48.436 321.194 52.432 326.702 52.432C329.654 52.432 331.814 51.46 333.542 49.912ZM337.916 50.02C337.916 51.244 338.888 52.18 340.076 52.18C341.3 52.18 342.272 51.244 342.272 50.02V41.272C342.272 38.32 344.036 36.556 346.556 36.556C349.148 36.556 350.624 38.248 350.624 41.2V50.02C350.624 51.244 351.596 52.18 352.82 52.18C354.044 52.18 354.98 51.244 354.98 50.02V39.868C354.98 35.476 352.496 32.596 348.212 32.596C345.26 32.596 343.496 34.144 342.272 35.908V34.972C342.272 33.748 341.3 32.776 340.076 32.776C338.852 32.776 337.916 33.748 337.916 34.972V50.02ZM359.665 43.108H366.433C367.585 43.108 368.557 42.136 368.557 40.984C368.557 39.796 367.585 38.824 366.433 38.824H359.665C358.513 38.824 357.541 39.796 357.541 40.984C357.541 42.136 358.513 43.108 359.665 43.108ZM369.238 50.344C369.238 51.424 370.138 52.252 371.254 52.252C372.046 52.252 372.658 51.748 373.162 51.136L377.77 45.196L382.378 51.136C382.918 51.856 383.53 52.252 384.394 52.252C385.474 52.252 386.41 51.46 386.41 50.236C386.41 49.66 386.158 49.156 385.69 48.58L380.362 42.28L385.51 36.124C385.87 35.692 386.122 35.26 386.122 34.648C386.122 33.568 385.222 32.74 384.07 32.74C383.314 32.74 382.702 33.208 382.198 33.856L377.842 39.436L373.558 33.82C373.018 33.136 372.406 32.74 371.542 32.74C370.462 32.74 369.526 33.532 369.526 34.756C369.526 35.332 369.778 35.836 370.246 36.412L375.25 42.352L369.85 48.832C369.454 49.264 369.238 49.732 369.238 50.344Z" fill="black"/>
<path d="M125.24 45.02C125.24 46.244 126.176 47.18 127.4 47.18C128.624 47.18 129.596 46.244 129.596 45.02V29.936L135.716 39.116C136.184 39.836 136.76 40.268 137.552 40.268C138.38 40.268 138.956 39.836 139.424 39.116L145.58 29.864V44.984C145.58 46.172 146.588 47.18 147.776 47.18C149.036 47.18 150.008 46.208 150.008 44.984V23.888C150.008 22.664 149.036 21.656 147.776 21.656H147.308C146.408 21.656 145.76 22.052 145.292 22.808L137.624 34.796L129.992 22.844C129.56 22.16 128.912 21.656 127.94 21.656H127.472C126.212 21.656 125.24 22.664 125.24 23.888V45.02ZM157.646 52.868C160.706 52.868 162.434 51.428 164.054 47.54L171.002 30.872C171.074 30.656 171.182 30.188 171.182 29.828C171.182 28.676 170.246 27.776 169.094 27.776C167.978 27.776 167.366 28.532 167.006 29.432L162.254 42.068L157.142 29.432C156.746 28.424 156.134 27.776 155.018 27.776C153.794 27.776 152.858 28.676 152.858 29.9C152.858 30.188 152.966 30.62 153.11 30.944L160.166 46.712L160.022 47.108C159.302 48.584 158.618 49.124 157.322 49.124C156.71 49.124 156.314 49.016 155.81 48.872C155.594 48.8 155.378 48.728 155.018 48.728C154.082 48.728 153.254 49.448 153.254 50.528C153.254 51.572 153.974 52.112 154.622 52.328C155.522 52.688 156.422 52.868 157.646 52.868ZM182.512 45.02C182.512 46.208 183.484 47.18 184.672 47.18C185.896 47.18 186.868 46.208 186.868 45.02V44.048C188.2 45.812 190.18 47.396 193.348 47.396C197.848 47.396 202.168 43.832 202.168 37.532V37.46C202.168 31.124 197.812 27.596 193.348 27.596C190.252 27.596 188.272 29.18 186.868 31.16V22.7C186.868 21.476 185.896 20.54 184.672 20.54C183.448 20.54 182.512 21.476 182.512 22.7V45.02ZM192.304 43.616C189.352 43.616 186.76 41.168 186.76 37.532V37.46C186.76 33.824 189.352 31.376 192.304 31.376C195.256 31.376 197.74 33.788 197.74 37.46V37.532C197.74 41.276 195.292 43.616 192.304 43.616ZM208.14 36.164C208.536 33.212 210.408 31.16 213.072 31.16C215.952 31.16 217.608 33.356 217.896 36.164H208.14ZM220.416 44.912C220.74 44.588 220.992 44.12 220.992 43.58C220.992 42.572 220.236 41.816 219.264 41.816C218.76 41.816 218.472 41.96 218.148 42.212C216.924 43.22 215.484 43.868 213.648 43.868C210.84 43.868 208.644 42.14 208.176 39.044H220.092C221.208 39.044 222.144 38.18 222.144 36.956C222.144 32.564 219.156 27.596 213.108 27.596C207.672 27.596 203.82 32.06 203.82 37.496V37.568C203.82 43.436 208.068 47.432 213.576 47.432C216.528 47.432 218.688 46.46 220.416 44.912ZM228.067 36.164C228.463 33.212 230.335 31.16 232.999 31.16C235.879 31.16 237.535 33.356 237.823 36.164H228.067ZM240.343 44.912C240.667 44.588 240.919 44.12 240.919 43.58C240.919 42.572 240.163 41.816 239.191 41.816C238.687 41.816 238.399 41.96 238.075 42.212C236.851 43.22 235.411 43.868 233.575 43.868C230.767 43.868 228.571 42.14 228.103 39.044H240.019C241.135 39.044 242.071 38.18 242.071 36.956C242.071 32.564 239.083 27.596 233.035 27.596C227.599 27.596 223.747 32.06 223.747 37.496V37.568C223.747 43.436 227.995 47.432 233.503 47.432C236.455 47.432 238.615 46.46 240.343 44.912ZM251.089 47.324C252.241 47.324 253.141 47.144 254.077 46.82C254.689 46.568 255.229 45.92 255.229 45.128C255.229 44.12 254.365 43.328 253.393 43.328C253.249 43.328 252.817 43.436 252.313 43.436C250.837 43.436 249.973 42.752 249.973 41.06V31.736H253.393C254.437 31.736 255.301 30.908 255.301 29.864C255.301 28.82 254.437 27.992 253.393 27.992H249.973V24.752C249.973 23.564 249.001 22.592 247.813 22.592C246.589 22.592 245.617 23.564 245.617 24.752V27.992H244.897C243.853 27.992 243.025 28.82 243.025 29.864C243.025 30.908 243.853 31.736 244.897 31.736H245.617V41.744C245.617 45.92 247.885 47.324 251.089 47.324ZM257.718 45.02C257.718 46.244 258.69 47.18 259.878 47.18C261.102 47.18 262.074 46.244 262.074 45.02V36.272C262.074 33.32 263.838 31.556 266.358 31.556C268.95 31.556 270.426 33.248 270.426 36.2V45.02C270.426 46.244 271.398 47.18 272.622 47.18C273.846 47.18 274.782 46.244 274.782 45.02V34.868C274.782 30.476 272.298 27.596 268.014 27.596C265.062 27.596 263.298 29.144 262.074 30.908V22.7C262.074 21.512 261.102 20.54 259.878 20.54C258.654 20.54 257.718 21.512 257.718 22.7V45.02ZM287.278 47.432C293.146 47.432 297.466 42.932 297.466 37.532V37.46C297.466 32.024 293.182 27.596 287.35 27.596C281.518 27.596 277.198 32.096 277.198 37.532V37.604C277.198 43.004 281.482 47.432 287.278 47.432ZM287.35 43.616C283.966 43.616 281.554 40.844 281.554 37.532V37.46C281.554 34.148 283.786 31.412 287.278 31.412C290.698 31.412 293.11 34.184 293.11 37.532V37.604C293.11 40.88 290.878 43.616 287.35 43.616ZM309.803 45.452L316.139 30.908C316.247 30.692 316.391 30.26 316.391 29.864C316.391 28.676 315.455 27.776 314.267 27.776C313.115 27.776 312.539 28.532 312.215 29.288L307.247 41.96L302.351 29.36C301.991 28.46 301.379 27.776 300.191 27.776C299.003 27.776 298.031 28.784 298.031 29.864C298.031 30.26 298.175 30.62 298.283 30.944L304.619 45.452C305.123 46.604 305.915 47.36 307.103 47.36H307.319C308.507 47.36 309.299 46.568 309.803 45.452ZM321.266 36.164C321.662 33.212 323.534 31.16 326.198 31.16C329.078 31.16 330.734 33.356 331.022 36.164H321.266ZM333.542 44.912C333.866 44.588 334.118 44.12 334.118 43.58C334.118 42.572 333.362 41.816 332.39 41.816C331.886 41.816 331.598 41.96 331.274 42.212C330.05 43.22 328.61 43.868 326.774 43.868C323.966 43.868 321.77 42.14 321.302 39.044H333.218C334.334 39.044 335.27 38.18 335.27 36.956C335.27 32.564 332.282 27.596 326.234 27.596C320.798 27.596 316.946 32.06 316.946 37.496V37.568C316.946 43.436 321.194 47.432 326.702 47.432C329.654 47.432 331.814 46.46 333.542 44.912ZM337.916 45.02C337.916 46.244 338.888 47.18 340.076 47.18C341.3 47.18 342.272 46.244 342.272 45.02V36.272C342.272 33.32 344.036 31.556 346.556 31.556C349.148 31.556 350.624 33.248 350.624 36.2V45.02C350.624 46.244 351.596 47.18 352.82 47.18C354.044 47.18 354.98 46.244 354.98 45.02V34.868C354.98 30.476 352.496 27.596 348.212 27.596C345.26 27.596 343.496 29.144 342.272 30.908V29.972C342.272 28.748 341.3 27.776 340.076 27.776C338.852 27.776 337.916 28.748 337.916 29.972V45.02ZM359.665 38.108H366.433C367.585 38.108 368.557 37.136 368.557 35.984C368.557 34.796 367.585 33.824 366.433 33.824H359.665C358.513 33.824 357.541 34.796 357.541 35.984C357.541 37.136 358.513 38.108 359.665 38.108Z" fill="#00E59D"/>
<path d="M370.328 45.344C370.328 46.424 371.228 47.252 372.344 47.252C373.136 47.252 373.748 46.748 374.252 46.136L378.86 40.196L383.468 46.136C384.008 46.856 384.62 47.252 385.484 47.252C386.564 47.252 387.5 46.46 387.5 45.236C387.5 44.66 387.248 44.156 386.78 43.58L381.452 37.28L386.6 31.124C386.96 30.692 387.212 30.26 387.212 29.648C387.212 28.568 386.312 27.74 385.16 27.74C384.404 27.74 383.792 28.208 383.288 28.856L378.932 34.436L374.648 28.82C374.108 28.136 373.496 27.74 372.632 27.74C371.552 27.74 370.616 28.532 370.616 29.756C370.616 30.332 370.868 30.836 371.336 31.412L376.34 37.352L370.94 43.832C370.544 44.264 370.328 44.732 370.328 45.344Z" fill="#FF0000"/>
<g filter="url(#filter1_f)">
<path d="M125.24 45.02C125.24 46.244 126.176 47.18 127.4 47.18C128.624 47.18 129.596 46.244 129.596 45.02V29.936L135.716 39.116C136.184 39.836 136.76 40.268 137.552 40.268C138.38 40.268 138.956 39.836 139.424 39.116L145.58 29.864V44.984C145.58 46.172 146.588 47.18 147.776 47.18C149.036 47.18 150.008 46.208 150.008 44.984V23.888C150.008 22.664 149.036 21.656 147.776 21.656H147.308C146.408 21.656 145.76 22.052 145.292 22.808L137.624 34.796L129.992 22.844C129.56 22.16 128.912 21.656 127.94 21.656H127.472C126.212 21.656 125.24 22.664 125.24 23.888V45.02ZM157.646 52.868C160.706 52.868 162.434 51.428 164.054 47.54L171.002 30.872C171.074 30.656 171.182 30.188 171.182 29.828C171.182 28.676 170.246 27.776 169.094 27.776C167.978 27.776 167.366 28.532 167.006 29.432L162.254 42.068L157.142 29.432C156.746 28.424 156.134 27.776 155.018 27.776C153.794 27.776 152.858 28.676 152.858 29.9C152.858 30.188 152.966 30.62 153.11 30.944L160.166 46.712L160.022 47.108C159.302 48.584 158.618 49.124 157.322 49.124C156.71 49.124 156.314 49.016 155.81 48.872C155.594 48.8 155.378 48.728 155.018 48.728C154.082 48.728 153.254 49.448 153.254 50.528C153.254 51.572 153.974 52.112 154.622 52.328C155.522 52.688 156.422 52.868 157.646 52.868ZM182.512 45.02C182.512 46.208 183.484 47.18 184.672 47.18C185.896 47.18 186.868 46.208 186.868 45.02V44.048C188.2 45.812 190.18 47.396 193.348 47.396C197.848 47.396 202.168 43.832 202.168 37.532V37.46C202.168 31.124 197.812 27.596 193.348 27.596C190.252 27.596 188.272 29.18 186.868 31.16V22.7C186.868 21.476 185.896 20.54 184.672 20.54C183.448 20.54 182.512 21.476 182.512 22.7V45.02ZM192.304 43.616C189.352 43.616 186.76 41.168 186.76 37.532V37.46C186.76 33.824 189.352 31.376 192.304 31.376C195.256 31.376 197.74 33.788 197.74 37.46V37.532C197.74 41.276 195.292 43.616 192.304 43.616ZM208.14 36.164C208.536 33.212 210.408 31.16 213.072 31.16C215.952 31.16 217.608 33.356 217.896 36.164H208.14ZM220.416 44.912C220.74 44.588 220.992 44.12 220.992 43.58C220.992 42.572 220.236 41.816 219.264 41.816C218.76 41.816 218.472 41.96 218.148 42.212C216.924 43.22 215.484 43.868 213.648 43.868C210.84 43.868 208.644 42.14 208.176 39.044H220.092C221.208 39.044 222.144 38.18 222.144 36.956C222.144 32.564 219.156 27.596 213.108 27.596C207.672 27.596 203.82 32.06 203.82 37.496V37.568C203.82 43.436 208.068 47.432 213.576 47.432C216.528 47.432 218.688 46.46 220.416 44.912ZM228.067 36.164C228.463 33.212 230.335 31.16 232.999 31.16C235.879 31.16 237.535 33.356 237.823 36.164H228.067ZM240.343 44.912C240.667 44.588 240.919 44.12 240.919 43.58C240.919 42.572 240.163 41.816 239.191 41.816C238.687 41.816 238.399 41.96 238.075 42.212C236.851 43.22 235.411 43.868 233.575 43.868C230.767 43.868 228.571 42.14 228.103 39.044H240.019C241.135 39.044 242.071 38.18 242.071 36.956C242.071 32.564 239.083 27.596 233.035 27.596C227.599 27.596 223.747 32.06 223.747 37.496V37.568C223.747 43.436 227.995 47.432 233.503 47.432C236.455 47.432 238.615 46.46 240.343 44.912ZM251.089 47.324C252.241 47.324 253.141 47.144 254.077 46.82C254.689 46.568 255.229 45.92 255.229 45.128C255.229 44.12 254.365 43.328 253.393 43.328C253.249 43.328 252.817 43.436 252.313 43.436C250.837 43.436 249.973 42.752 249.973 41.06V31.736H253.393C254.437 31.736 255.301 30.908 255.301 29.864C255.301 28.82 254.437 27.992 253.393 27.992H249.973V24.752C249.973 23.564 249.001 22.592 247.813 22.592C246.589 22.592 245.617 23.564 245.617 24.752V27.992H244.897C243.853 27.992 243.025 28.82 243.025 29.864C243.025 30.908 243.853 31.736 244.897 31.736H245.617V41.744C245.617 45.92 247.885 47.324 251.089 47.324ZM257.718 45.02C257.718 46.244 258.69 47.18 259.878 47.18C261.102 47.18 262.074 46.244 262.074 45.02V36.272C262.074 33.32 263.838 31.556 266.358 31.556C268.95 31.556 270.426 33.248 270.426 36.2V45.02C270.426 46.244 271.398 47.18 272.622 47.18C273.846 47.18 274.782 46.244 274.782 45.02V34.868C274.782 30.476 272.298 27.596 268.014 27.596C265.062 27.596 263.298 29.144 262.074 30.908V22.7C262.074 21.512 261.102 20.54 259.878 20.54C258.654 20.54 257.718 21.512 257.718 22.7V45.02ZM287.278 47.432C293.146 47.432 297.466 42.932 297.466 37.532V37.46C297.466 32.024 293.182 27.596 287.35 27.596C281.518 27.596 277.198 32.096 277.198 37.532V37.604C277.198 43.004 281.482 47.432 287.278 47.432ZM287.35 43.616C283.966 43.616 281.554 40.844 281.554 37.532V37.46C281.554 34.148 283.786 31.412 287.278 31.412C290.698 31.412 293.11 34.184 293.11 37.532V37.604C293.11 40.88 290.878 43.616 287.35 43.616ZM309.803 45.452L316.139 30.908C316.247 30.692 316.391 30.26 316.391 29.864C316.391 28.676 315.455 27.776 314.267 27.776C313.115 27.776 312.539 28.532 312.215 29.288L307.247 41.96L302.351 29.36C301.991 28.46 301.379 27.776 300.191 27.776C299.003 27.776 298.031 28.784 298.031 29.864C298.031 30.26 298.175 30.62 298.283 30.944L304.619 45.452C305.123 46.604 305.915 47.36 307.103 47.36H307.319C308.507 47.36 309.299 46.568 309.803 45.452ZM321.266 36.164C321.662 33.212 323.534 31.16 326.198 31.16C329.078 31.16 330.734 33.356 331.022 36.164H321.266ZM333.542 44.912C333.866 44.588 334.118 44.12 334.118 43.58C334.118 42.572 333.362 41.816 332.39 41.816C331.886 41.816 331.598 41.96 331.274 42.212C330.05 43.22 328.61 43.868 326.774 43.868C323.966 43.868 321.77 42.14 321.302 39.044H333.218C334.334 39.044 335.27 38.18 335.27 36.956C335.27 32.564 332.282 27.596 326.234 27.596C320.798 27.596 316.946 32.06 316.946 37.496V37.568C316.946 43.436 321.194 47.432 326.702 47.432C329.654 47.432 331.814 46.46 333.542 44.912ZM337.916 45.02C337.916 46.244 338.888 47.18 340.076 47.18C341.3 47.18 342.272 46.244 342.272 45.02V36.272C342.272 33.32 344.036 31.556 346.556 31.556C349.148 31.556 350.624 33.248 350.624 36.2V45.02C350.624 46.244 351.596 47.18 352.82 47.18C354.044 47.18 354.98 46.244 354.98 45.02V34.868C354.98 30.476 352.496 27.596 348.212 27.596C345.26 27.596 343.496 29.144 342.272 30.908V29.972C342.272 28.748 341.3 27.776 340.076 27.776C338.852 27.776 337.916 28.748 337.916 29.972V45.02ZM359.665 38.108H366.433C367.585 38.108 368.557 37.136 368.557 35.984C368.557 34.796 367.585 33.824 366.433 33.824H359.665C358.513 33.824 357.541 34.796 357.541 35.984C357.541 37.136 358.513 38.108 359.665 38.108Z" fill="#00E59D"/>
<path d="M370.328 45.344C370.328 46.424 371.228 47.252 372.344 47.252C373.136 47.252 373.748 46.748 374.252 46.136L378.86 40.196L383.468 46.136C384.008 46.856 384.62 47.252 385.484 47.252C386.564 47.252 387.5 46.46 387.5 45.236C387.5 44.66 387.248 44.156 386.78 43.58L381.452 37.28L386.6 31.124C386.96 30.692 387.212 30.26 387.212 29.648C387.212 28.568 386.312 27.74 385.16 27.74C384.404 27.74 383.792 28.208 383.288 28.856L378.932 34.436L374.648 28.82C374.108 28.136 373.496 27.74 372.632 27.74C371.552 27.74 370.616 28.532 370.616 29.756C370.616 30.332 370.868 30.836 371.336 31.412L376.34 37.352L370.94 43.832C370.544 44.264 370.328 44.732 370.328 45.344Z" fill="#FF0000"/>
</g>
<defs>
<filter id="filter0_f" x="0.790039" y="56.2998" width="511.387" height="90.4" filterUnits="userSpaceOnUse" color-interpolation-filters="sRGB">
<feFlood flood-opacity="0" result="BackgroundImageFix"/>
<feBlend mode="normal" in="SourceGraphic" in2="BackgroundImageFix" result="shape"/>
<feGaussianBlur stdDeviation="10" result="effect1_foregroundBlur"/>
</filter>
<filter id="filter1_f" x="105.24" y="0.540039" width="302.26" height="72.328" filterUnits="userSpaceOnUse" color-interpolation-filters="sRGB">
<feFlood flood-opacity="0" result="BackgroundImageFix"/>
<feBlend mode="normal" in="SourceGraphic" in2="BackgroundImageFix" result="shape"/>
<feGaussianBlur stdDeviation="10" result="effect1_foregroundBlur"/>
</filter>
</defs>
</svg>
