<svg width="294" height="73" viewBox="0 0 294 73" fill="none" xmlns="http://www.w3.org/2000/svg">
<path d="M20.24 49.768C20.24 51.028 21.212 52 22.472 52H36.08C37.196 52 38.096 51.1 38.096 49.984C38.096 48.868 37.196 47.968 36.08 47.968H24.668V28.816C24.668 27.592 23.696 26.62 22.472 26.62C21.212 26.62 20.24 27.592 20.24 28.816V49.768ZM45.6971 52.396C48.6131 52.396 50.5931 51.172 51.8891 49.624V50.344C51.8891 51.316 52.7531 52.18 54.0131 52.18C55.2011 52.18 56.1371 51.28 56.1371 50.092V40.732C56.1371 38.248 55.4891 36.232 54.0851 34.864C52.7531 33.496 50.6291 32.74 47.7851 32.74C45.3011 32.74 43.4651 33.172 41.6651 33.856C41.0171 34.108 40.4771 34.792 40.4771 35.584C40.4771 36.592 41.3051 37.384 42.3131 37.384C42.5291 37.384 42.7451 37.348 42.9971 37.276C44.1851 36.808 45.5531 36.52 47.2091 36.52C50.2691 36.52 51.9251 37.96 51.9251 40.66V41.128C50.4491 40.66 48.9371 40.336 46.8131 40.336C42.1691 40.336 38.9651 42.352 38.9651 46.456V46.528C38.9651 50.344 42.1331 52.396 45.6971 52.396ZM46.9211 49.228C44.8331 49.228 43.2131 48.184 43.2131 46.348V46.276C43.2131 44.296 44.8691 43.108 47.6771 43.108C49.4051 43.108 50.8811 43.432 51.9971 43.864V45.16C51.9971 47.572 49.8011 49.228 46.9211 49.228ZM65.7502 52.324C66.9022 52.324 67.8022 52.144 68.7382 51.82C69.3502 51.568 69.8902 50.92 69.8902 50.128C69.8902 49.12 69.0262 48.328 68.0542 48.328C67.9102 48.328 67.4782 48.436 66.9742 48.436C65.4982 48.436 64.6342 47.752 64.6342 46.06V36.736H68.0542C69.0982 36.736 69.9622 35.908 69.9622 34.864C69.9622 33.82 69.0982 32.992 68.0542 32.992H64.6342V29.752C64.6342 28.564 63.6622 27.592 62.4742 27.592C61.2502 27.592 60.2782 28.564 60.2782 29.752V32.992H59.5582C58.5142 32.992 57.6862 33.82 57.6862 34.864C57.6862 35.908 58.5142 36.736 59.5582 36.736H60.2782V46.744C60.2782 50.92 62.5462 52.324 65.7502 52.324ZM75.1276 41.164C75.5236 38.212 77.3956 36.16 80.0596 36.16C82.9396 36.16 84.5956 38.356 84.8836 41.164H75.1276ZM87.4036 49.912C87.7276 49.588 87.9796 49.12 87.9796 48.58C87.9796 47.572 87.2236 46.816 86.2516 46.816C85.7476 46.816 85.4596 46.96 85.1356 47.212C83.9116 48.22 82.4716 48.868 80.6356 48.868C77.8276 48.868 75.6316 47.14 75.1636 44.044H87.0796C88.1956 44.044 89.1316 43.18 89.1316 41.956C89.1316 37.564 86.1436 32.596 80.0956 32.596C74.6596 32.596 70.8076 37.06 70.8076 42.496V42.568C70.8076 48.436 75.0556 52.432 80.5636 52.432C83.5156 52.432 85.6756 51.46 87.4036 49.912ZM98.2942 52.36C102.254 52.36 105.35 50.38 105.35 46.384V46.312C105.35 42.892 102.218 41.632 99.4462 40.768C97.2142 40.048 95.1622 39.472 95.1622 38.068V37.996C95.1622 36.916 96.1342 36.124 97.8262 36.124C99.1582 36.124 100.742 36.628 102.29 37.42C102.578 37.564 102.794 37.636 103.154 37.636C104.162 37.636 104.954 36.88 104.954 35.872C104.954 35.116 104.522 34.54 103.91 34.216C102.074 33.244 99.9502 32.668 97.9342 32.668C94.1542 32.668 91.1662 34.864 91.1662 38.464V38.536C91.1662 42.172 94.2982 43.324 97.1062 44.116C99.3382 44.8 101.354 45.304 101.354 46.78V46.852C101.354 48.112 100.274 48.904 98.4022 48.904C96.6742 48.904 94.7662 48.292 92.9302 47.068C92.6782 46.924 92.3542 46.816 91.9942 46.816C90.9862 46.816 90.2302 47.608 90.2302 48.58C90.2302 49.3 90.5902 49.84 91.0582 50.092C93.2542 51.604 95.8822 52.36 98.2942 52.36ZM114.034 52.324C115.186 52.324 116.086 52.144 117.022 51.82C117.634 51.568 118.174 50.92 118.174 50.128C118.174 49.12 117.31 48.328 116.338 48.328C116.194 48.328 115.762 48.436 115.258 48.436C113.782 48.436 112.918 47.752 112.918 46.06V36.736H116.338C117.382 36.736 118.246 35.908 118.246 34.864C118.246 33.82 117.382 32.992 116.338 32.992H112.918V29.752C112.918 28.564 111.946 27.592 110.758 27.592C109.534 27.592 108.562 28.564 108.562 29.752V32.992H107.842C106.798 32.992 105.97 33.82 105.97 34.864C105.97 35.908 106.798 36.736 107.842 36.736H108.562V46.744C108.562 50.92 110.83 52.324 114.034 52.324ZM140.492 52.396C147.08 52.396 151.328 48.616 151.328 41.092V28.816C151.328 27.592 150.356 26.62 149.132 26.62C147.872 26.62 146.9 27.592 146.9 28.816V41.308C146.9 45.952 144.488 48.292 140.564 48.292C136.604 48.292 134.192 45.808 134.192 41.128V28.816C134.192 27.592 133.22 26.62 131.996 26.62C130.736 26.62 129.764 27.592 129.764 28.816V41.308C129.764 48.616 133.94 52.396 140.492 52.396ZM155.102 55.78C155.102 57.004 156.074 57.94 157.262 57.94C158.486 57.94 159.458 57.004 159.458 55.78V49.048C160.79 50.812 162.77 52.396 165.938 52.396C170.438 52.396 174.758 48.832 174.758 42.532V42.46C174.758 36.124 170.402 32.596 165.938 32.596C162.842 32.596 160.862 34.18 159.458 36.16V34.972C159.458 33.748 158.486 32.776 157.262 32.776C156.038 32.776 155.102 33.748 155.102 34.972V55.78ZM164.894 48.616C161.942 48.616 159.35 46.168 159.35 42.532V42.46C159.35 38.824 161.942 36.376 164.894 36.376C167.846 36.376 170.33 38.788 170.33 42.46V42.532C170.33 46.276 167.882 48.616 164.894 48.616ZM196.138 27.7C196.138 26.476 195.166 25.54 193.942 25.54C192.754 25.54 191.782 26.476 191.782 27.7V35.944C190.414 34.144 188.434 32.596 185.302 32.596C180.766 32.596 176.482 36.16 176.482 42.46V42.532C176.482 48.832 180.838 52.396 185.302 52.396C188.398 52.396 190.378 50.812 191.782 48.832V50.02C191.782 51.244 192.754 52.18 193.978 52.18C195.166 52.18 196.138 51.244 196.138 50.02V27.7ZM186.346 36.376C189.262 36.376 191.854 38.788 191.854 42.46V42.532C191.854 46.168 189.262 48.616 186.346 48.616C183.394 48.616 180.874 46.204 180.874 42.532V42.46C180.874 38.68 183.358 36.376 186.346 36.376ZM205.278 52.396C208.194 52.396 210.174 51.172 211.47 49.624V50.344C211.47 51.316 212.334 52.18 213.594 52.18C214.782 52.18 215.718 51.28 215.718 50.092V40.732C215.718 38.248 215.07 36.232 213.666 34.864C212.334 33.496 210.21 32.74 207.366 32.74C204.882 32.74 203.046 33.172 201.246 33.856C200.598 34.108 200.058 34.792 200.058 35.584C200.058 36.592 200.886 37.384 201.894 37.384C202.11 37.384 202.326 37.348 202.578 37.276C203.766 36.808 205.134 36.52 206.79 36.52C209.85 36.52 211.506 37.96 211.506 40.66V41.128C210.03 40.66 208.518 40.336 206.394 40.336C201.75 40.336 198.546 42.352 198.546 46.456V46.528C198.546 50.344 201.714 52.396 205.278 52.396ZM206.502 49.228C204.414 49.228 202.794 48.184 202.794 46.348V46.276C202.794 44.296 204.45 43.108 207.258 43.108C208.986 43.108 210.462 43.432 211.578 43.864V45.16C211.578 47.572 209.382 49.228 206.502 49.228ZM225.331 52.324C226.483 52.324 227.383 52.144 228.319 51.82C228.931 51.568 229.471 50.92 229.471 50.128C229.471 49.12 228.607 48.328 227.635 48.328C227.491 48.328 227.059 48.436 226.555 48.436C225.079 48.436 224.215 47.752 224.215 46.06V36.736H227.635C228.679 36.736 229.543 35.908 229.543 34.864C229.543 33.82 228.679 32.992 227.635 32.992H224.215V29.752C224.215 28.564 223.243 27.592 222.055 27.592C220.831 27.592 219.859 28.564 219.859 29.752V32.992H219.139C218.095 32.992 217.267 33.82 217.267 34.864C217.267 35.908 218.095 36.736 219.139 36.736H219.859V46.744C219.859 50.92 222.127 52.324 225.331 52.324ZM234.709 41.164C235.105 38.212 236.977 36.16 239.641 36.16C242.521 36.16 244.177 38.356 244.465 41.164H234.709ZM246.985 49.912C247.309 49.588 247.561 49.12 247.561 48.58C247.561 47.572 246.805 46.816 245.833 46.816C245.329 46.816 245.041 46.96 244.717 47.212C243.493 48.22 242.053 48.868 240.217 48.868C237.409 48.868 235.213 47.14 234.745 44.044H246.661C247.777 44.044 248.713 43.18 248.713 41.956C248.713 37.564 245.725 32.596 239.677 32.596C234.241 32.596 230.389 37.06 230.389 42.496V42.568C230.389 48.436 234.637 52.432 240.145 52.432C243.097 52.432 245.257 51.46 246.985 49.912ZM257.875 52.36C261.835 52.36 264.931 50.38 264.931 46.384V46.312C264.931 42.892 261.799 41.632 259.027 40.768C256.795 40.048 254.743 39.472 254.743 38.068V37.996C254.743 36.916 255.715 36.124 257.407 36.124C258.739 36.124 260.323 36.628 261.871 37.42C262.159 37.564 262.375 37.636 262.735 37.636C263.743 37.636 264.535 36.88 264.535 35.872C264.535 35.116 264.103 34.54 263.491 34.216C261.655 33.244 259.531 32.668 257.515 32.668C253.735 32.668 250.747 34.864 250.747 38.464V38.536C250.747 42.172 253.879 43.324 256.687 44.116C258.919 44.8 260.935 45.304 260.935 46.78V46.852C260.935 48.112 259.855 48.904 257.983 48.904C256.255 48.904 254.347 48.292 252.511 47.068C252.259 46.924 251.935 46.816 251.575 46.816C250.567 46.816 249.811 47.608 249.811 48.58C249.811 49.3 250.171 49.84 250.639 50.092C252.835 51.604 255.463 52.36 257.875 52.36Z" fill="black"/>
<path d="M20.24 44.768C20.24 46.028 21.212 47 22.472 47H36.08C37.196 47 38.096 46.1 38.096 44.984C38.096 43.868 37.196 42.968 36.08 42.968H24.668V23.816C24.668 22.592 23.696 21.62 22.472 21.62C21.212 21.62 20.24 22.592 20.24 23.816V44.768ZM45.6971 47.396C48.6131 47.396 50.5931 46.172 51.8891 44.624V45.344C51.8891 46.316 52.7531 47.18 54.0131 47.18C55.2011 47.18 56.1371 46.28 56.1371 45.092V35.732C56.1371 33.248 55.4891 31.232 54.0851 29.864C52.7531 28.496 50.6291 27.74 47.7851 27.74C45.3011 27.74 43.4651 28.172 41.6651 28.856C41.0171 29.108 40.4771 29.792 40.4771 30.584C40.4771 31.592 41.3051 32.384 42.3131 32.384C42.5291 32.384 42.7451 32.348 42.9971 32.276C44.1851 31.808 45.5531 31.52 47.2091 31.52C50.2691 31.52 51.9251 32.96 51.9251 35.66V36.128C50.4491 35.66 48.9371 35.336 46.8131 35.336C42.1691 35.336 38.9651 37.352 38.9651 41.456V41.528C38.9651 45.344 42.1331 47.396 45.6971 47.396ZM46.9211 44.228C44.8331 44.228 43.2131 43.184 43.2131 41.348V41.276C43.2131 39.296 44.8691 38.108 47.6771 38.108C49.4051 38.108 50.8811 38.432 51.9971 38.864V40.16C51.9971 42.572 49.8011 44.228 46.9211 44.228ZM65.7502 47.324C66.9022 47.324 67.8022 47.144 68.7382 46.82C69.3502 46.568 69.8902 45.92 69.8902 45.128C69.8902 44.12 69.0262 43.328 68.0542 43.328C67.9102 43.328 67.4782 43.436 66.9742 43.436C65.4982 43.436 64.6342 42.752 64.6342 41.06V31.736H68.0542C69.0982 31.736 69.9622 30.908 69.9622 29.864C69.9622 28.82 69.0982 27.992 68.0542 27.992H64.6342V24.752C64.6342 23.564 63.6622 22.592 62.4742 22.592C61.2502 22.592 60.2782 23.564 60.2782 24.752V27.992H59.5582C58.5142 27.992 57.6862 28.82 57.6862 29.864C57.6862 30.908 58.5142 31.736 59.5582 31.736H60.2782V41.744C60.2782 45.92 62.5462 47.324 65.7502 47.324ZM75.1276 36.164C75.5236 33.212 77.3956 31.16 80.0596 31.16C82.9396 31.16 84.5956 33.356 84.8836 36.164H75.1276ZM87.4036 44.912C87.7276 44.588 87.9796 44.12 87.9796 43.58C87.9796 42.572 87.2236 41.816 86.2516 41.816C85.7476 41.816 85.4596 41.96 85.1356 42.212C83.9116 43.22 82.4716 43.868 80.6356 43.868C77.8276 43.868 75.6316 42.14 75.1636 39.044H87.0796C88.1956 39.044 89.1316 38.18 89.1316 36.956C89.1316 32.564 86.1436 27.596 80.0956 27.596C74.6596 27.596 70.8076 32.06 70.8076 37.496V37.568C70.8076 43.436 75.0556 47.432 80.5636 47.432C83.5156 47.432 85.6756 46.46 87.4036 44.912ZM98.2942 47.36C102.254 47.36 105.35 45.38 105.35 41.384V41.312C105.35 37.892 102.218 36.632 99.4462 35.768C97.2142 35.048 95.1622 34.472 95.1622 33.068V32.996C95.1622 31.916 96.1342 31.124 97.8262 31.124C99.1582 31.124 100.742 31.628 102.29 32.42C102.578 32.564 102.794 32.636 103.154 32.636C104.162 32.636 104.954 31.88 104.954 30.872C104.954 30.116 104.522 29.54 103.91 29.216C102.074 28.244 99.9502 27.668 97.9342 27.668C94.1542 27.668 91.1662 29.864 91.1662 33.464V33.536C91.1662 37.172 94.2982 38.324 97.1062 39.116C99.3382 39.8 101.354 40.304 101.354 41.78V41.852C101.354 43.112 100.274 43.904 98.4022 43.904C96.6742 43.904 94.7662 43.292 92.9302 42.068C92.6782 41.924 92.3542 41.816 91.9942 41.816C90.9862 41.816 90.2302 42.608 90.2302 43.58C90.2302 44.3 90.5902 44.84 91.0582 45.092C93.2542 46.604 95.8822 47.36 98.2942 47.36ZM114.034 47.324C115.186 47.324 116.086 47.144 117.022 46.82C117.634 46.568 118.174 45.92 118.174 45.128C118.174 44.12 117.31 43.328 116.338 43.328C116.194 43.328 115.762 43.436 115.258 43.436C113.782 43.436 112.918 42.752 112.918 41.06V31.736H116.338C117.382 31.736 118.246 30.908 118.246 29.864C118.246 28.82 117.382 27.992 116.338 27.992H112.918V24.752C112.918 23.564 111.946 22.592 110.758 22.592C109.534 22.592 108.562 23.564 108.562 24.752V27.992H107.842C106.798 27.992 105.97 28.82 105.97 29.864C105.97 30.908 106.798 31.736 107.842 31.736H108.562V41.744C108.562 45.92 110.83 47.324 114.034 47.324Z" fill="#00E59D"/>
<path d="M140.492 47.396C147.08 47.396 151.328 43.616 151.328 36.092V23.816C151.328 22.592 150.356 21.62 149.132 21.62C147.872 21.62 146.9 22.592 146.9 23.816V36.308C146.9 40.952 144.488 43.292 140.564 43.292C136.604 43.292 134.192 40.808 134.192 36.128V23.816C134.192 22.592 133.22 21.62 131.996 21.62C130.736 21.62 129.764 22.592 129.764 23.816V36.308C129.764 43.616 133.94 47.396 140.492 47.396ZM155.102 50.78C155.102 52.004 156.074 52.94 157.262 52.94C158.486 52.94 159.458 52.004 159.458 50.78V44.048C160.79 45.812 162.77 47.396 165.938 47.396C170.438 47.396 174.758 43.832 174.758 37.532V37.46C174.758 31.124 170.402 27.596 165.938 27.596C162.842 27.596 160.862 29.18 159.458 31.16V29.972C159.458 28.748 158.486 27.776 157.262 27.776C156.038 27.776 155.102 28.748 155.102 29.972V50.78ZM164.894 43.616C161.942 43.616 159.35 41.168 159.35 37.532V37.46C159.35 33.824 161.942 31.376 164.894 31.376C167.846 31.376 170.33 33.788 170.33 37.46V37.532C170.33 41.276 167.882 43.616 164.894 43.616ZM196.138 22.7C196.138 21.476 195.166 20.54 193.942 20.54C192.754 20.54 191.782 21.476 191.782 22.7V30.944C190.414 29.144 188.434 27.596 185.302 27.596C180.766 27.596 176.482 31.16 176.482 37.46V37.532C176.482 43.832 180.838 47.396 185.302 47.396C188.398 47.396 190.378 45.812 191.782 43.832V45.02C191.782 46.244 192.754 47.18 193.978 47.18C195.166 47.18 196.138 46.244 196.138 45.02V22.7ZM186.346 31.376C189.262 31.376 191.854 33.788 191.854 37.46V37.532C191.854 41.168 189.262 43.616 186.346 43.616C183.394 43.616 180.874 41.204 180.874 37.532V37.46C180.874 33.68 183.358 31.376 186.346 31.376ZM205.278 47.396C208.194 47.396 210.174 46.172 211.47 44.624V45.344C211.47 46.316 212.334 47.18 213.594 47.18C214.782 47.18 215.718 46.28 215.718 45.092V35.732C215.718 33.248 215.07 31.232 213.666 29.864C212.334 28.496 210.21 27.74 207.366 27.74C204.882 27.74 203.046 28.172 201.246 28.856C200.598 29.108 200.058 29.792 200.058 30.584C200.058 31.592 200.886 32.384 201.894 32.384C202.11 32.384 202.326 32.348 202.578 32.276C203.766 31.808 205.134 31.52 206.79 31.52C209.85 31.52 211.506 32.96 211.506 35.66V36.128C210.03 35.66 208.518 35.336 206.394 35.336C201.75 35.336 198.546 37.352 198.546 41.456V41.528C198.546 45.344 201.714 47.396 205.278 47.396ZM206.502 44.228C204.414 44.228 202.794 43.184 202.794 41.348V41.276C202.794 39.296 204.45 38.108 207.258 38.108C208.986 38.108 210.462 38.432 211.578 38.864V40.16C211.578 42.572 209.382 44.228 206.502 44.228ZM225.331 47.324C226.483 47.324 227.383 47.144 228.319 46.82C228.931 46.568 229.471 45.92 229.471 45.128C229.471 44.12 228.607 43.328 227.635 43.328C227.491 43.328 227.059 43.436 226.555 43.436C225.079 43.436 224.215 42.752 224.215 41.06V31.736H227.635C228.679 31.736 229.543 30.908 229.543 29.864C229.543 28.82 228.679 27.992 227.635 27.992H224.215V24.752C224.215 23.564 223.243 22.592 222.055 22.592C220.831 22.592 219.859 23.564 219.859 24.752V27.992H219.139C218.095 27.992 217.267 28.82 217.267 29.864C217.267 30.908 218.095 31.736 219.139 31.736H219.859V41.744C219.859 45.92 222.127 47.324 225.331 47.324ZM234.709 36.164C235.105 33.212 236.977 31.16 239.641 31.16C242.521 31.16 244.177 33.356 244.465 36.164H234.709ZM246.985 44.912C247.309 44.588 247.561 44.12 247.561 43.58C247.561 42.572 246.805 41.816 245.833 41.816C245.329 41.816 245.041 41.96 244.717 42.212C243.493 43.22 242.053 43.868 240.217 43.868C237.409 43.868 235.213 42.14 234.745 39.044H246.661C247.777 39.044 248.713 38.18 248.713 36.956C248.713 32.564 245.725 27.596 239.677 27.596C234.241 27.596 230.389 32.06 230.389 37.496V37.568C230.389 43.436 234.637 47.432 240.145 47.432C243.097 47.432 245.257 46.46 246.985 44.912ZM257.875 47.36C261.835 47.36 264.931 45.38 264.931 41.384V41.312C264.931 37.892 261.799 36.632 259.027 35.768C256.795 35.048 254.743 34.472 254.743 33.068V32.996C254.743 31.916 255.715 31.124 257.407 31.124C258.739 31.124 260.323 31.628 261.871 32.42C262.159 32.564 262.375 32.636 262.735 32.636C263.743 32.636 264.535 31.88 264.535 30.872C264.535 30.116 264.103 29.54 263.491 29.216C261.655 28.244 259.531 27.668 257.515 27.668C253.735 27.668 250.747 29.864 250.747 33.464V33.536C250.747 37.172 253.879 38.324 256.687 39.116C258.919 39.8 260.935 40.304 260.935 41.78V41.852C260.935 43.112 259.855 43.904 257.983 43.904C256.255 43.904 254.347 43.292 252.511 42.068C252.259 41.924 251.935 41.816 251.575 41.816C250.567 41.816 249.811 42.608 249.811 43.58C249.811 44.3 250.171 44.84 250.639 45.092C252.835 46.604 255.463 47.36 257.875 47.36Z" fill="#FF0000"/>
<g filter="url(#filter0)">
<path d="M20.24 44.768C20.24 46.028 21.212 47 22.472 47H36.08C37.196 47 38.096 46.1 38.096 44.984C38.096 43.868 37.196 42.968 36.08 42.968H24.668V23.816C24.668 22.592 23.696 21.62 22.472 21.62C21.212 21.62 20.24 22.592 20.24 23.816V44.768ZM45.6971 47.396C48.6131 47.396 50.5931 46.172 51.8891 44.624V45.344C51.8891 46.316 52.7531 47.18 54.0131 47.18C55.2011 47.18 56.1371 46.28 56.1371 45.092V35.732C56.1371 33.248 55.4891 31.232 54.0851 29.864C52.7531 28.496 50.6291 27.74 47.7851 27.74C45.3011 27.74 43.4651 28.172 41.6651 28.856C41.0171 29.108 40.4771 29.792 40.4771 30.584C40.4771 31.592 41.3051 32.384 42.3131 32.384C42.5291 32.384 42.7451 32.348 42.9971 32.276C44.1851 31.808 45.5531 31.52 47.2091 31.52C50.2691 31.52 51.9251 32.96 51.9251 35.66V36.128C50.4491 35.66 48.9371 35.336 46.8131 35.336C42.1691 35.336 38.9651 37.352 38.9651 41.456V41.528C38.9651 45.344 42.1331 47.396 45.6971 47.396ZM46.9211 44.228C44.8331 44.228 43.2131 43.184 43.2131 41.348V41.276C43.2131 39.296 44.8691 38.108 47.6771 38.108C49.4051 38.108 50.8811 38.432 51.9971 38.864V40.16C51.9971 42.572 49.8011 44.228 46.9211 44.228ZM65.7502 47.324C66.9022 47.324 67.8022 47.144 68.7382 46.82C69.3502 46.568 69.8902 45.92 69.8902 45.128C69.8902 44.12 69.0262 43.328 68.0542 43.328C67.9102 43.328 67.4782 43.436 66.9742 43.436C65.4982 43.436 64.6342 42.752 64.6342 41.06V31.736H68.0542C69.0982 31.736 69.9622 30.908 69.9622 29.864C69.9622 28.82 69.0982 27.992 68.0542 27.992H64.6342V24.752C64.6342 23.564 63.6622 22.592 62.4742 22.592C61.2502 22.592 60.2782 23.564 60.2782 24.752V27.992H59.5582C58.5142 27.992 57.6862 28.82 57.6862 29.864C57.6862 30.908 58.5142 31.736 59.5582 31.736H60.2782V41.744C60.2782 45.92 62.5462 47.324 65.7502 47.324ZM75.1276 36.164C75.5236 33.212 77.3956 31.16 80.0596 31.16C82.9396 31.16 84.5956 33.356 84.8836 36.164H75.1276ZM87.4036 44.912C87.7276 44.588 87.9796 44.12 87.9796 43.58C87.9796 42.572 87.2236 41.816 86.2516 41.816C85.7476 41.816 85.4596 41.96 85.1356 42.212C83.9116 43.22 82.4716 43.868 80.6356 43.868C77.8276 43.868 75.6316 42.14 75.1636 39.044H87.0796C88.1956 39.044 89.1316 38.18 89.1316 36.956C89.1316 32.564 86.1436 27.596 80.0956 27.596C74.6596 27.596 70.8076 32.06 70.8076 37.496V37.568C70.8076 43.436 75.0556 47.432 80.5636 47.432C83.5156 47.432 85.6756 46.46 87.4036 44.912ZM98.2942 47.36C102.254 47.36 105.35 45.38 105.35 41.384V41.312C105.35 37.892 102.218 36.632 99.4462 35.768C97.2142 35.048 95.1622 34.472 95.1622 33.068V32.996C95.1622 31.916 96.1342 31.124 97.8262 31.124C99.1582 31.124 100.742 31.628 102.29 32.42C102.578 32.564 102.794 32.636 103.154 32.636C104.162 32.636 104.954 31.88 104.954 30.872C104.954 30.116 104.522 29.54 103.91 29.216C102.074 28.244 99.9502 27.668 97.9342 27.668C94.1542 27.668 91.1662 29.864 91.1662 33.464V33.536C91.1662 37.172 94.2982 38.324 97.1062 39.116C99.3382 39.8 101.354 40.304 101.354 41.78V41.852C101.354 43.112 100.274 43.904 98.4022 43.904C96.6742 43.904 94.7662 43.292 92.9302 42.068C92.6782 41.924 92.3542 41.816 91.9942 41.816C90.9862 41.816 90.2302 42.608 90.2302 43.58C90.2302 44.3 90.5902 44.84 91.0582 45.092C93.2542 46.604 95.8822 47.36 98.2942 47.36ZM114.034 47.324C115.186 47.324 116.086 47.144 117.022 46.82C117.634 46.568 118.174 45.92 118.174 45.128C118.174 44.12 117.31 43.328 116.338 43.328C116.194 43.328 115.762 43.436 115.258 43.436C113.782 43.436 112.918 42.752 112.918 41.06V31.736H116.338C117.382 31.736 118.246 30.908 118.246 29.864C118.246 28.82 117.382 27.992 116.338 27.992H112.918V24.752C112.918 23.564 111.946 22.592 110.758 22.592C109.534 22.592 108.562 23.564 108.562 24.752V27.992H107.842C106.798 27.992 105.97 28.82 105.97 29.864C105.97 30.908 106.798 31.736 107.842 31.736H108.562V41.744C108.562 45.92 110.83 47.324 114.034 47.324Z" fill="#00E59D"/>
<path d="M149.484 47.396C156.072 47.396 160.32 43.616 160.32 36.092V23.816C160.32 22.592 159.348 21.62 158.125 21.62C156.864 21.62 155.892 22.592 155.892 23.816V36.308C155.892 40.952 153.48 43.292 149.556 43.292C145.596 43.292 143.184 40.808 143.184 36.128V23.816C143.184 22.592 142.212 21.62 140.988 21.62C139.728 21.62 138.756 22.592 138.756 23.816V36.308C138.756 43.616 142.932 47.396 149.484 47.396ZM164.095 50.78C164.095 52.004 165.067 52.94 166.255 52.94C167.479 52.94 168.451 52.004 168.451 50.78V44.048C169.783 45.812 171.763 47.396 174.931 47.396C179.431 47.396 183.751 43.832 183.751 37.532V37.46C183.751 31.124 179.395 27.596 174.931 27.596C171.835 27.596 169.855 29.18 168.451 31.16V29.972C168.451 28.748 167.479 27.776 166.255 27.776C165.031 27.776 164.095 28.748 164.095 29.972V50.78ZM173.887 43.616C170.935 43.616 168.343 41.168 168.343 37.532V37.46C168.343 33.824 170.935 31.376 173.887 31.376C176.839 31.376 179.323 33.788 179.323 37.46V37.532C179.323 41.276 176.875 43.616 173.887 43.616ZM205.131 22.7C205.131 21.476 204.159 20.54 202.935 20.54C201.747 20.54 200.775 21.476 200.775 22.7V30.944C199.407 29.144 197.427 27.596 194.295 27.596C189.759 27.596 185.475 31.16 185.475 37.46V37.532C185.475 43.832 189.831 47.396 194.295 47.396C197.391 47.396 199.371 45.812 200.775 43.832V45.02C200.775 46.244 201.747 47.18 202.971 47.18C204.159 47.18 205.131 46.244 205.131 45.02V22.7ZM195.339 31.376C198.255 31.376 200.847 33.788 200.847 37.46V37.532C200.847 41.168 198.255 43.616 195.339 43.616C192.387 43.616 189.867 41.204 189.867 37.532V37.46C189.867 33.68 192.351 31.376 195.339 31.376ZM214.271 47.396C217.187 47.396 219.167 46.172 220.463 44.624V45.344C220.463 46.316 221.327 47.18 222.587 47.18C223.775 47.18 224.711 46.28 224.711 45.092V35.732C224.711 33.248 224.063 31.232 222.659 29.864C221.327 28.496 219.203 27.74 216.359 27.74C213.875 27.74 212.039 28.172 210.239 28.856C209.591 29.108 209.051 29.792 209.051 30.584C209.051 31.592 209.879 32.384 210.887 32.384C211.103 32.384 211.319 32.348 211.571 32.276C212.759 31.808 214.127 31.52 215.783 31.52C218.843 31.52 220.499 32.96 220.499 35.66V36.128C219.023 35.66 217.511 35.336 215.387 35.336C210.743 35.336 207.539 37.352 207.539 41.456V41.528C207.539 45.344 210.707 47.396 214.271 47.396ZM215.495 44.228C213.407 44.228 211.787 43.184 211.787 41.348V41.276C211.787 39.296 213.443 38.108 216.251 38.108C217.979 38.108 219.455 38.432 220.571 38.864V40.16C220.571 42.572 218.375 44.228 215.495 44.228ZM234.324 47.324C235.476 47.324 236.376 47.144 237.312 46.82C237.924 46.568 238.464 45.92 238.464 45.128C238.464 44.12 237.6 43.328 236.628 43.328C236.484 43.328 236.052 43.436 235.548 43.436C234.072 43.436 233.208 42.752 233.208 41.06V31.736H236.628C237.672 31.736 238.536 30.908 238.536 29.864C238.536 28.82 237.672 27.992 236.628 27.992H233.208V24.752C233.208 23.564 232.236 22.592 231.048 22.592C229.824 22.592 228.852 23.564 228.852 24.752V27.992H228.132C227.088 27.992 226.26 28.82 226.26 29.864C226.26 30.908 227.088 31.736 228.132 31.736H228.852V41.744C228.852 45.92 231.12 47.324 234.324 47.324ZM243.702 36.164C244.098 33.212 245.97 31.16 248.634 31.16C251.514 31.16 253.17 33.356 253.458 36.164H243.702ZM255.978 44.912C256.302 44.588 256.554 44.12 256.554 43.58C256.554 42.572 255.798 41.816 254.826 41.816C254.322 41.816 254.034 41.96 253.71 42.212C252.486 43.22 251.046 43.868 249.21 43.868C246.402 43.868 244.206 42.14 243.738 39.044H255.654C256.77 39.044 257.706 38.18 257.706 36.956C257.706 32.564 254.718 27.596 248.67 27.596C243.234 27.596 239.382 32.06 239.382 37.496V37.568C239.382 43.436 243.63 47.432 249.138 47.432C252.09 47.432 254.25 46.46 255.978 44.912ZM266.868 47.36C270.828 47.36 273.924 45.38 273.924 41.384V41.312C273.924 37.892 270.792 36.632 268.02 35.768C265.788 35.048 263.736 34.472 263.736 33.068V32.996C263.736 31.916 264.708 31.124 266.4 31.124C267.732 31.124 269.316 31.628 270.864 32.42C271.152 32.564 271.368 32.636 271.728 32.636C272.736 32.636 273.528 31.88 273.528 30.872C273.528 30.116 273.096 29.54 272.484 29.216C270.648 28.244 268.524 27.668 266.508 27.668C262.728 27.668 259.74 29.864 259.74 33.464V33.536C259.74 37.172 262.872 38.324 265.68 39.116C267.912 39.8 269.928 40.304 269.928 41.78V41.852C269.928 43.112 268.848 43.904 266.976 43.904C265.248 43.904 263.34 43.292 261.504 42.068C261.252 41.924 260.928 41.816 260.568 41.816C259.56 41.816 258.804 42.608 258.804 43.58C258.804 44.3 259.164 44.84 259.632 45.092C261.828 46.604 264.456 47.36 266.868 47.36Z" fill="#FF0000"/>
</g>
<defs>
<filter id="filter0" x="0.240234" y="0.540039" width="293.685" height="72.4004" filterUnits="userSpaceOnUse" color-interpolation-filters="sRGB">
<feFlood flood-opacity="0" result="BackgroundImageFix"/>
<feBlend mode="normal" in="SourceGraphic" in2="BackgroundImageFix" result="shape"/>
<feGaussianBlur stdDeviation="10" result="effect1_foregroundBlur_944_109"/>
</filter>
</defs>
</svg>
