<svg width="294" height="73" fill="none" xmlns="http://www.w3.org/2000/svg"><path d="M20.24 49.768c0 1.26.972 2.232 2.232 2.232H36.08c1.116 0 2.016-.9 2.016-2.016s-.9-2.016-2.016-2.016H24.668V28.816a2.182 2.182 0 0 0-2.196-2.196c-1.26 0-2.232.972-2.232 2.196v20.952Zm25.457 2.628c2.916 0 4.896-1.224 6.192-2.772v.72c0 .972.864 1.836 2.124 1.836 1.188 0 2.124-.9 2.124-2.088v-9.36c0-2.484-.648-4.5-2.052-5.868-1.332-1.368-3.456-2.124-6.3-2.124-2.484 0-4.32.432-6.12 1.116-.648.252-1.188.936-1.188 1.728 0 1.008.828 1.8 1.836 1.8.216 0 .432-.036.684-.108 1.188-.468 2.556-.756 4.212-.756 3.06 0 4.716 1.44 4.716 4.14v.468c-1.476-.468-2.988-.792-5.112-.792-4.644 0-7.848 2.016-7.848 6.12v.072c0 3.816 3.168 5.868 6.732 5.868Zm1.224-3.168c-2.088 0-3.708-1.044-3.708-2.88v-.072c0-1.98 1.656-3.168 4.464-3.168 1.728 0 3.204.324 4.32.756v1.296c0 2.412-2.196 4.068-5.076 4.068Zm18.83 3.096c1.151 0 2.051-.18 2.987-.504.612-.252 1.152-.9 1.152-1.692 0-1.008-.864-1.8-1.836-1.8-.144 0-.576.108-1.08.108-1.476 0-2.34-.684-2.34-2.376v-9.324h3.42c1.044 0 1.908-.828 1.908-1.872s-.864-1.872-1.908-1.872h-3.42v-3.24c0-1.188-.972-2.16-2.16-2.16-1.224 0-2.196.972-2.196 2.16v3.24h-.72a1.86 1.86 0 0 0-1.872 1.872 1.86 1.86 0 0 0 1.872 1.872h.72v10.008c0 4.176 2.268 5.58 5.472 5.58Zm9.377-11.16c.396-2.952 2.268-5.004 4.932-5.004 2.88 0 4.536 2.196 4.824 5.004h-9.756Zm12.276 8.748c.324-.324.576-.792.576-1.332 0-1.008-.756-1.764-1.728-1.764-.504 0-.792.144-1.116.396-1.224 1.008-2.664 1.656-4.5 1.656-2.808 0-5.004-1.728-5.472-4.824H87.08c1.116 0 2.052-.864 2.052-2.088 0-4.392-2.988-9.36-9.036-9.36-5.436 0-9.288 4.464-9.288 9.9v.072c0 5.868 4.248 9.864 9.756 9.864 2.952 0 5.112-.972 6.84-2.52Zm10.89 2.448c3.96 0 7.056-1.98 7.056-5.976v-.072c0-3.42-3.132-4.68-5.904-5.544-2.232-.72-4.284-1.296-4.284-2.7v-.072c0-1.08.972-1.872 2.664-1.872 1.332 0 2.916.504 4.464 1.296.288.144.504.216.864.216 1.008 0 1.8-.756 1.8-1.764 0-.756-.432-1.332-1.044-1.656-1.836-.972-3.96-1.548-5.976-1.548-3.78 0-6.768 2.196-6.768 5.796v.072c0 3.636 3.132 4.788 5.94 5.58 2.232.684 4.248 1.188 4.248 2.664v.072c0 1.26-1.08 2.052-2.952 2.052-1.728 0-3.636-.612-5.472-1.836a1.9 1.9 0 0 0-.936-.252 1.744 1.744 0 0 0-1.764 1.764c0 .72.36 1.26.828 1.512 2.196 1.512 4.824 2.268 7.236 2.268Zm15.74-.036c1.152 0 2.052-.18 2.988-.504.612-.252 1.152-.9 1.152-1.692 0-1.008-.864-1.8-1.836-1.8-.144 0-.576.108-1.08.108-1.476 0-2.34-.684-2.34-2.376v-9.324h3.42c1.044 0 1.908-.828 1.908-1.872s-.864-1.872-1.908-1.872h-3.42v-3.24c0-1.188-.972-2.16-2.16-2.16-1.224 0-2.196.972-2.196 2.16v3.24h-.72a1.86 1.86 0 0 0-1.872 1.872 1.86 1.86 0 0 0 1.872 1.872h.72v10.008c0 4.176 2.268 5.58 5.472 5.58Zm26.458.072c6.588 0 10.836-3.78 10.836-11.304V28.816a2.182 2.182 0 0 0-2.196-2.196c-1.26 0-2.232.972-2.232 2.196v12.492c0 4.644-2.412 6.984-6.336 6.984-3.96 0-6.372-2.484-6.372-7.164V28.816a2.182 2.182 0 0 0-2.196-2.196c-1.26 0-2.232.972-2.232 2.196v12.492c0 7.308 4.176 11.088 10.728 11.088Zm14.61 3.384c0 1.224.972 2.16 2.16 2.16 1.224 0 2.196-.936 2.196-2.16v-6.732c1.332 1.764 3.312 3.348 6.48 3.348 4.5 0 8.82-3.564 8.82-9.864v-.072c0-6.336-4.356-9.864-8.82-9.864-3.096 0-5.076 1.584-6.48 3.564v-1.188a2.182 2.182 0 0 0-2.196-2.196c-1.224 0-2.16.972-2.16 2.196V55.78Zm9.792-7.164c-2.952 0-5.544-2.448-5.544-6.084v-.072c0-3.636 2.592-6.084 5.544-6.084 2.952 0 5.436 2.412 5.436 6.084v.072c0 3.744-2.448 6.084-5.436 6.084ZM196.138 27.7c0-1.224-.972-2.16-2.196-2.16-1.188 0-2.16.936-2.16 2.16v8.244c-1.368-1.8-3.348-3.348-6.48-3.348-4.536 0-8.82 3.564-8.82 9.864v.072c0 6.3 4.356 9.864 8.82 9.864 3.096 0 5.076-1.584 6.48-3.564v1.188c0 1.224.972 2.16 2.196 2.16 1.188 0 2.16-.936 2.16-2.16V27.7Zm-9.792 8.676c2.916 0 5.508 2.412 5.508 6.084v.072c0 3.636-2.592 6.084-5.508 6.084-2.952 0-5.472-2.412-5.472-6.084v-.072c0-3.78 2.484-6.084 5.472-6.084Zm18.932 16.02c2.916 0 4.896-1.224 6.192-2.772v.72c0 .972.864 1.836 2.124 1.836 1.188 0 2.124-.9 2.124-2.088v-9.36c0-2.484-.648-4.5-2.052-5.868-1.332-1.368-3.456-2.124-6.3-2.124-2.484 0-4.32.432-6.12 1.116-.648.252-1.188.936-1.188 1.728 0 1.008.828 1.8 1.836 1.8.216 0 .432-.036.684-.108 1.188-.468 2.556-.756 4.212-.756 3.06 0 4.716 1.44 4.716 4.14v.468c-1.476-.468-2.988-.792-5.112-.792-4.644 0-7.848 2.016-7.848 6.12v.072c0 3.816 3.168 5.868 6.732 5.868Zm1.224-3.168c-2.088 0-3.708-1.044-3.708-2.88v-.072c0-1.98 1.656-3.168 4.464-3.168 1.728 0 3.204.324 4.32.756v1.296c0 2.412-2.196 4.068-5.076 4.068Zm18.829 3.096c1.152 0 2.052-.18 2.988-.504.612-.252 1.152-.9 1.152-1.692 0-1.008-.864-1.8-1.836-1.8-.144 0-.576.108-1.08.108-1.476 0-2.34-.684-2.34-2.376v-9.324h3.42c1.044 0 1.908-.828 1.908-1.872s-.864-1.872-1.908-1.872h-3.42v-3.24c0-1.188-.972-2.16-2.16-2.16-1.224 0-2.196.972-2.196 2.16v3.24h-.72a1.86 1.86 0 0 0-1.872 1.872 1.86 1.86 0 0 0 1.872 1.872h.72v10.008c0 4.176 2.268 5.58 5.472 5.58Zm9.378-11.16c.396-2.952 2.268-5.004 4.932-5.004 2.88 0 4.536 2.196 4.824 5.004h-9.756Zm12.276 8.748c.324-.324.576-.792.576-1.332 0-1.008-.756-1.764-1.728-1.764-.504 0-.792.144-1.116.396-1.224 1.008-2.664 1.656-4.5 1.656-2.808 0-5.004-1.728-5.472-4.824h11.916c1.116 0 2.052-.864 2.052-2.088 0-4.392-2.988-9.36-9.036-9.36-5.436 0-9.288 4.464-9.288 9.9v.072c0 5.868 4.248 9.864 9.756 9.864 2.952 0 5.112-.972 6.84-2.52Zm10.89 2.448c3.96 0 7.056-1.98 7.056-5.976v-.072c0-3.42-3.132-4.68-5.904-5.544-2.232-.72-4.284-1.296-4.284-2.7v-.072c0-1.08.972-1.872 2.664-1.872 1.332 0 2.916.504 4.464 1.296.288.144.504.216.864.216 1.008 0 1.8-.756 1.8-1.764 0-.756-.432-1.332-1.044-1.656-1.836-.972-3.96-1.548-5.976-1.548-3.78 0-6.768 2.196-6.768 5.796v.072c0 3.636 3.132 4.788 5.94 5.58 2.232.684 4.248 1.188 4.248 2.664v.072c0 1.26-1.08 2.052-2.952 2.052-1.728 0-3.636-.612-5.472-1.836a1.9 1.9 0 0 0-.936-.252 1.744 1.744 0 0 0-1.764 1.764c0 .72.36 1.26.828 1.512 2.196 1.512 4.824 2.268 7.236 2.268Z" fill="#000"/><path d="M20.24 44.768c0 1.26.972 2.232 2.232 2.232H36.08c1.116 0 2.016-.9 2.016-2.016s-.9-2.016-2.016-2.016H24.668V23.816a2.182 2.182 0 0 0-2.196-2.196c-1.26 0-2.232.972-2.232 2.196v20.952Zm25.457 2.628c2.916 0 4.896-1.224 6.192-2.772v.72c0 .972.864 1.836 2.124 1.836 1.188 0 2.124-.9 2.124-2.088v-9.36c0-2.484-.648-4.5-2.052-5.868-1.332-1.368-3.456-2.124-6.3-2.124-2.484 0-4.32.432-6.12 1.116-.648.252-1.188.936-1.188 1.728 0 1.008.828 1.8 1.836 1.8.216 0 .432-.036.684-.108 1.188-.468 2.556-.756 4.212-.756 3.06 0 4.716 1.44 4.716 4.14v.468c-1.476-.468-2.988-.792-5.112-.792-4.644 0-7.848 2.016-7.848 6.12v.072c0 3.816 3.168 5.868 6.732 5.868Zm1.224-3.168c-2.088 0-3.708-1.044-3.708-2.88v-.072c0-1.98 1.656-3.168 4.464-3.168 1.728 0 3.204.324 4.32.756v1.296c0 2.412-2.196 4.068-5.076 4.068Zm18.83 3.096c1.151 0 2.051-.18 2.987-.504.612-.252 1.152-.9 1.152-1.692 0-1.008-.864-1.8-1.836-1.8-.144 0-.576.108-1.08.108-1.476 0-2.34-.684-2.34-2.376v-9.324h3.42c1.044 0 1.908-.828 1.908-1.872s-.864-1.872-1.908-1.872h-3.42v-3.24c0-1.188-.972-2.16-2.16-2.16-1.224 0-2.196.972-2.196 2.16v3.24h-.72a1.86 1.86 0 0 0-1.872 1.872 1.86 1.86 0 0 0 1.872 1.872h.72v10.008c0 4.176 2.268 5.58 5.472 5.58Zm9.377-11.16c.396-2.952 2.268-5.004 4.932-5.004 2.88 0 4.536 2.196 4.824 5.004h-9.756Zm12.276 8.748c.324-.324.576-.792.576-1.332 0-1.008-.756-1.764-1.728-1.764-.504 0-.792.144-1.116.396-1.224 1.008-2.664 1.656-4.5 1.656-2.808 0-5.004-1.728-5.472-4.824H87.08c1.116 0 2.052-.864 2.052-2.088 0-4.392-2.988-9.36-9.036-9.36-5.436 0-9.288 4.464-9.288 9.9v.072c0 5.868 4.248 9.864 9.756 9.864 2.952 0 5.112-.972 6.84-2.52Zm10.89 2.448c3.96 0 7.056-1.98 7.056-5.976v-.072c0-3.42-3.132-4.68-5.904-5.544-2.232-.72-4.284-1.296-4.284-2.7v-.072c0-1.08.972-1.872 2.664-1.872 1.332 0 2.916.504 4.464 1.296.288.144.504.216.864.216 1.008 0 1.8-.756 1.8-1.764 0-.756-.432-1.332-1.044-1.656-1.836-.972-3.96-1.548-5.976-1.548-3.78 0-6.768 2.196-6.768 5.796v.072c0 3.636 3.132 4.788 5.94 5.58 2.232.684 4.248 1.188 4.248 2.664v.072c0 1.26-1.08 2.052-2.952 2.052-1.728 0-3.636-.612-5.472-1.836a1.9 1.9 0 0 0-.936-.252 1.744 1.744 0 0 0-1.764 1.764c0 .72.36 1.26.828 1.512 2.196 1.512 4.824 2.268 7.236 2.268Zm15.74-.036c1.152 0 2.052-.18 2.988-.504.612-.252 1.152-.9 1.152-1.692 0-1.008-.864-1.8-1.836-1.8-.144 0-.576.108-1.08.108-1.476 0-2.34-.684-2.34-2.376v-9.324h3.42c1.044 0 1.908-.828 1.908-1.872s-.864-1.872-1.908-1.872h-3.42v-3.24c0-1.188-.972-2.16-2.16-2.16-1.224 0-2.196.972-2.196 2.16v3.24h-.72a1.86 1.86 0 0 0-1.872 1.872 1.86 1.86 0 0 0 1.872 1.872h.72v10.008c0 4.176 2.268 5.58 5.472 5.58Z" fill="#00E59D"/><path d="M140.492 47.396c6.588 0 10.836-3.78 10.836-11.304V23.816a2.182 2.182 0 0 0-2.196-2.196c-1.26 0-2.232.972-2.232 2.196v12.492c0 4.644-2.412 6.984-6.336 6.984-3.96 0-6.372-2.484-6.372-7.164V23.816a2.182 2.182 0 0 0-2.196-2.196c-1.26 0-2.232.972-2.232 2.196v12.492c0 7.308 4.176 11.088 10.728 11.088Zm14.61 3.384c0 1.224.972 2.16 2.16 2.16 1.224 0 2.196-.936 2.196-2.16v-6.732c1.332 1.764 3.312 3.348 6.48 3.348 4.5 0 8.82-3.564 8.82-9.864v-.072c0-6.336-4.356-9.864-8.82-9.864-3.096 0-5.076 1.584-6.48 3.564v-1.188a2.182 2.182 0 0 0-2.196-2.196c-1.224 0-2.16.972-2.16 2.196V50.78Zm9.792-7.164c-2.952 0-5.544-2.448-5.544-6.084v-.072c0-3.636 2.592-6.084 5.544-6.084 2.952 0 5.436 2.412 5.436 6.084v.072c0 3.744-2.448 6.084-5.436 6.084ZM196.138 22.7c0-1.224-.972-2.16-2.196-2.16-1.188 0-2.16.936-2.16 2.16v8.244c-1.368-1.8-3.348-3.348-6.48-3.348-4.536 0-8.82 3.564-8.82 9.864v.072c0 6.3 4.356 9.864 8.82 9.864 3.096 0 5.076-1.584 6.48-3.564v1.188c0 1.224.972 2.16 2.196 2.16 1.188 0 2.16-.936 2.16-2.16V22.7Zm-9.792 8.676c2.916 0 5.508 2.412 5.508 6.084v.072c0 3.636-2.592 6.084-5.508 6.084-2.952 0-5.472-2.412-5.472-6.084v-.072c0-3.78 2.484-6.084 5.472-6.084Zm18.932 16.02c2.916 0 4.896-1.224 6.192-2.772v.72c0 .972.864 1.836 2.124 1.836 1.188 0 2.124-.9 2.124-2.088v-9.36c0-2.484-.648-4.5-2.052-5.868-1.332-1.368-3.456-2.124-6.3-2.124-2.484 0-4.32.432-6.12 1.116-.648.252-1.188.936-1.188 1.728 0 1.008.828 1.8 1.836 1.8.216 0 .432-.036.684-.108 1.188-.468 2.556-.756 4.212-.756 3.06 0 4.716 1.44 4.716 4.14v.468c-1.476-.468-2.988-.792-5.112-.792-4.644 0-7.848 2.016-7.848 6.12v.072c0 3.816 3.168 5.868 6.732 5.868Zm1.224-3.168c-2.088 0-3.708-1.044-3.708-2.88v-.072c0-1.98 1.656-3.168 4.464-3.168 1.728 0 3.204.324 4.32.756v1.296c0 2.412-2.196 4.068-5.076 4.068Zm18.829 3.096c1.152 0 2.052-.18 2.988-.504.612-.252 1.152-.9 1.152-1.692 0-1.008-.864-1.8-1.836-1.8-.144 0-.576.108-1.08.108-1.476 0-2.34-.684-2.34-2.376v-9.324h3.42c1.044 0 1.908-.828 1.908-1.872s-.864-1.872-1.908-1.872h-3.42v-3.24c0-1.188-.972-2.16-2.16-2.16-1.224 0-2.196.972-2.196 2.16v3.24h-.72a1.86 1.86 0 0 0-1.872 1.872 1.86 1.86 0 0 0 1.872 1.872h.72v10.008c0 4.176 2.268 5.58 5.472 5.58Zm9.378-11.16c.396-2.952 2.268-5.004 4.932-5.004 2.88 0 4.536 2.196 4.824 5.004h-9.756Zm12.276 8.748c.324-.324.576-.792.576-1.332 0-1.008-.756-1.764-1.728-1.764-.504 0-.792.144-1.116.396-1.224 1.008-2.664 1.656-4.5 1.656-2.808 0-5.004-1.728-5.472-4.824h11.916c1.116 0 2.052-.864 2.052-2.088 0-4.392-2.988-9.36-9.036-9.36-5.436 0-9.288 4.464-9.288 9.9v.072c0 5.868 4.248 9.864 9.756 9.864 2.952 0 5.112-.972 6.84-2.52Zm10.89 2.448c3.96 0 7.056-1.98 7.056-5.976v-.072c0-3.42-3.132-4.68-5.904-5.544-2.232-.72-4.284-1.296-4.284-2.7v-.072c0-1.08.972-1.872 2.664-1.872 1.332 0 2.916.504 4.464 1.296.288.144.504.216.864.216 1.008 0 1.8-.756 1.8-1.764 0-.756-.432-1.332-1.044-1.656-1.836-.972-3.96-1.548-5.976-1.548-3.78 0-6.768 2.196-6.768 5.796v.072c0 3.636 3.132 4.788 5.94 5.58 2.232.684 4.248 1.188 4.248 2.664v.072c0 1.26-1.08 2.052-2.952 2.052-1.728 0-3.636-.612-5.472-1.836a1.9 1.9 0 0 0-.936-.252 1.744 1.744 0 0 0-1.764 1.764c0 .72.36 1.26.828 1.512 2.196 1.512 4.824 2.268 7.236 2.268Z" fill="red"/><g filter="url(#a)"><path d="M20.24 44.768c0 1.26.972 2.232 2.232 2.232H36.08c1.116 0 2.016-.9 2.016-2.016s-.9-2.016-2.016-2.016H24.668V23.816a2.182 2.182 0 0 0-2.196-2.196c-1.26 0-2.232.972-2.232 2.196v20.952Zm25.457 2.628c2.916 0 4.896-1.224 6.192-2.772v.72c0 .972.864 1.836 2.124 1.836 1.188 0 2.124-.9 2.124-2.088v-9.36c0-2.484-.648-4.5-2.052-5.868-1.332-1.368-3.456-2.124-6.3-2.124-2.484 0-4.32.432-6.12 1.116-.648.252-1.188.936-1.188 1.728 0 1.008.828 1.8 1.836 1.8.216 0 .432-.036.684-.108 1.188-.468 2.556-.756 4.212-.756 3.06 0 4.716 1.44 4.716 4.14v.468c-1.476-.468-2.988-.792-5.112-.792-4.644 0-7.848 2.016-7.848 6.12v.072c0 3.816 3.168 5.868 6.732 5.868Zm1.224-3.168c-2.088 0-3.708-1.044-3.708-2.88v-.072c0-1.98 1.656-3.168 4.464-3.168 1.728 0 3.204.324 4.32.756v1.296c0 2.412-2.196 4.068-5.076 4.068Zm18.83 3.096c1.151 0 2.051-.18 2.987-.504.612-.252 1.152-.9 1.152-1.692 0-1.008-.864-1.8-1.836-1.8-.144 0-.576.108-1.08.108-1.476 0-2.34-.684-2.34-2.376v-9.324h3.42c1.044 0 1.908-.828 1.908-1.872s-.864-1.872-1.908-1.872h-3.42v-3.24c0-1.188-.972-2.16-2.16-2.16-1.224 0-2.196.972-2.196 2.16v3.24h-.72a1.86 1.86 0 0 0-1.872 1.872 1.86 1.86 0 0 0 1.872 1.872h.72v10.008c0 4.176 2.268 5.58 5.472 5.58Zm9.377-11.16c.396-2.952 2.268-5.004 4.932-5.004 2.88 0 4.536 2.196 4.824 5.004h-9.756Zm12.276 8.748c.324-.324.576-.792.576-1.332 0-1.008-.756-1.764-1.728-1.764-.504 0-.792.144-1.116.396-1.224 1.008-2.664 1.656-4.5 1.656-2.808 0-5.004-1.728-5.472-4.824H87.08c1.116 0 2.052-.864 2.052-2.088 0-4.392-2.988-9.36-9.036-9.36-5.436 0-9.288 4.464-9.288 9.9v.072c0 5.868 4.248 9.864 9.756 9.864 2.952 0 5.112-.972 6.84-2.52Zm10.89 2.448c3.96 0 7.056-1.98 7.056-5.976v-.072c0-3.42-3.132-4.68-5.904-5.544-2.232-.72-4.284-1.296-4.284-2.7v-.072c0-1.08.972-1.872 2.664-1.872 1.332 0 2.916.504 4.464 1.296.288.144.504.216.864.216 1.008 0 1.8-.756 1.8-1.764 0-.756-.432-1.332-1.044-1.656-1.836-.972-3.96-1.548-5.976-1.548-3.78 0-6.768 2.196-6.768 5.796v.072c0 3.636 3.132 4.788 5.94 5.58 2.232.684 4.248 1.188 4.248 2.664v.072c0 1.26-1.08 2.052-2.952 2.052-1.728 0-3.636-.612-5.472-1.836a1.9 1.9 0 0 0-.936-.252 1.744 1.744 0 0 0-1.764 1.764c0 .72.36 1.26.828 1.512 2.196 1.512 4.824 2.268 7.236 2.268Zm15.74-.036c1.152 0 2.052-.18 2.988-.504.612-.252 1.152-.9 1.152-1.692 0-1.008-.864-1.8-1.836-1.8-.144 0-.576.108-1.08.108-1.476 0-2.34-.684-2.34-2.376v-9.324h3.42c1.044 0 1.908-.828 1.908-1.872s-.864-1.872-1.908-1.872h-3.42v-3.24c0-1.188-.972-2.16-2.16-2.16-1.224 0-2.196.972-2.196 2.16v3.24h-.72a1.86 1.86 0 0 0-1.872 1.872 1.86 1.86 0 0 0 1.872 1.872h.72v10.008c0 4.176 2.268 5.58 5.472 5.58Z" fill="#00E59D"/><path d="M149.484 47.396c6.588 0 10.836-3.78 10.836-11.304V23.816a2.182 2.182 0 0 0-2.195-2.196c-1.261 0-2.233.972-2.233 2.196v12.492c0 4.644-2.412 6.984-6.336 6.984-3.96 0-6.372-2.484-6.372-7.164V23.816a2.182 2.182 0 0 0-2.196-2.196c-1.26 0-2.232.972-2.232 2.196v12.492c0 7.308 4.176 11.088 10.728 11.088Zm14.611 3.384c0 1.224.972 2.16 2.16 2.16 1.224 0 2.196-.936 2.196-2.16v-6.732c1.332 1.764 3.312 3.348 6.48 3.348 4.5 0 8.82-3.564 8.82-9.864v-.072c0-6.336-4.356-9.864-8.82-9.864-3.096 0-5.076 1.584-6.48 3.564v-1.188a2.182 2.182 0 0 0-2.196-2.196c-1.224 0-2.16.972-2.16 2.196V50.78Zm9.792-7.164c-2.952 0-5.544-2.448-5.544-6.084v-.072c0-3.636 2.592-6.084 5.544-6.084 2.952 0 5.436 2.412 5.436 6.084v.072c0 3.744-2.448 6.084-5.436 6.084ZM205.131 22.7c0-1.224-.972-2.16-2.196-2.16-1.188 0-2.16.936-2.16 2.16v8.244c-1.368-1.8-3.348-3.348-6.48-3.348-4.536 0-8.82 3.564-8.82 9.864v.072c0 6.3 4.356 9.864 8.82 9.864 3.096 0 5.076-1.584 6.48-3.564v1.188c0 1.224.972 2.16 2.196 2.16 1.188 0 2.16-.936 2.16-2.16V22.7Zm-9.792 8.676c2.916 0 5.508 2.412 5.508 6.084v.072c0 3.636-2.592 6.084-5.508 6.084-2.952 0-5.472-2.412-5.472-6.084v-.072c0-3.78 2.484-6.084 5.472-6.084Zm18.932 16.02c2.916 0 4.896-1.224 6.192-2.772v.72c0 .972.864 1.836 2.124 1.836 1.188 0 2.124-.9 2.124-2.088v-9.36c0-2.484-.648-4.5-2.052-5.868-1.332-1.368-3.456-2.124-6.3-2.124-2.484 0-4.32.432-6.12 1.116-.648.252-1.188.936-1.188 1.728 0 1.008.828 1.8 1.836 1.8.216 0 .432-.036.684-.108 1.188-.468 2.556-.756 4.212-.756 3.06 0 4.716 1.44 4.716 4.14v.468c-1.476-.468-2.988-.792-5.112-.792-4.644 0-7.848 2.016-7.848 6.12v.072c0 3.816 3.168 5.868 6.732 5.868Zm1.224-3.168c-2.088 0-3.708-1.044-3.708-2.88v-.072c0-1.98 1.656-3.168 4.464-3.168 1.728 0 3.204.324 4.32.756v1.296c0 2.412-2.196 4.068-5.076 4.068Zm18.829 3.096c1.152 0 2.052-.18 2.988-.504.612-.252 1.152-.9 1.152-1.692 0-1.008-.864-1.8-1.836-1.8-.144 0-.576.108-1.08.108-1.476 0-2.34-.684-2.34-2.376v-9.324h3.42c1.044 0 1.908-.828 1.908-1.872s-.864-1.872-1.908-1.872h-3.42v-3.24c0-1.188-.972-2.16-2.16-2.16-1.224 0-2.196.972-2.196 2.16v3.24h-.72a1.86 1.86 0 0 0-1.872 1.872 1.86 1.86 0 0 0 1.872 1.872h.72v10.008c0 4.176 2.268 5.58 5.472 5.58Zm9.378-11.16c.396-2.952 2.268-5.004 4.932-5.004 2.88 0 4.536 2.196 4.824 5.004h-9.756Zm12.276 8.748c.324-.324.576-.792.576-1.332 0-1.008-.756-1.764-1.728-1.764-.504 0-.792.144-1.116.396-1.224 1.008-2.664 1.656-4.5 1.656-2.808 0-5.004-1.728-5.472-4.824h11.916c1.116 0 2.052-.864 2.052-2.088 0-4.392-2.988-9.36-9.036-9.36-5.436 0-9.288 4.464-9.288 9.9v.072c0 5.868 4.248 9.864 9.756 9.864 2.952 0 5.112-.972 6.84-2.52Zm10.89 2.448c3.96 0 7.056-1.98 7.056-5.976v-.072c0-3.42-3.132-4.68-5.904-5.544-2.232-.72-4.284-1.296-4.284-2.7v-.072c0-1.08.972-1.872 2.664-1.872 1.332 0 2.916.504 4.464 1.296.288.144.504.216.864.216 1.008 0 1.8-.756 1.8-1.764 0-.756-.432-1.332-1.044-1.656-1.836-.972-3.96-1.548-5.976-1.548-3.78 0-6.768 2.196-6.768 5.796v.072c0 3.636 3.132 4.788 5.94 5.58 2.232.684 4.248 1.188 4.248 2.664v.072c0 1.26-1.08 2.052-2.952 2.052-1.728 0-3.636-.612-5.472-1.836a1.9 1.9 0 0 0-.936-.252 1.744 1.744 0 0 0-1.764 1.764c0 .72.36 1.26.828 1.512 2.196 1.512 4.824 2.268 7.236 2.268Z" fill="red"/></g><defs><filter id="a" x=".24" y=".54" width="293.685" height="72.4" filterUnits="userSpaceOnUse" color-interpolation-filters="sRGB"><feFlood flood-opacity="0" result="BackgroundImageFix"/><feBlend in="SourceGraphic" in2="BackgroundImageFix" result="shape"/><feGaussianBlur stdDeviation="10" result="effect1_foregroundBlur_944_109"/></filter></defs></svg>