<svg width="351" height="73" viewBox="0 0 351 73" fill="none" xmlns="http://www.w3.org/2000/svg">
<path d="M20.24 49.768C20.24 51.028 21.212 52 22.472 52H36.08C37.196 52 38.096 51.1 38.096 49.984C38.096 48.868 37.196 47.968 36.08 47.968H24.668V28.816C24.668 27.592 23.696 26.62 22.472 26.62C21.212 26.62 20.24 27.592 20.24 28.816V49.768ZM43.1495 41.164C43.5455 38.212 45.4175 36.16 48.0815 36.16C50.9615 36.16 52.6175 38.356 52.9055 41.164H43.1495ZM55.4255 49.912C55.7495 49.588 56.0015 49.12 56.0015 48.58C56.0015 47.572 55.2455 46.816 54.2735 46.816C53.7695 46.816 53.4815 46.96 53.1575 47.212C51.9335 48.22 50.4935 48.868 48.6575 48.868C45.8495 48.868 43.6535 47.14 43.1855 44.044H55.1015C56.2175 44.044 57.1535 43.18 57.1535 41.956C57.1535 37.564 54.1655 32.596 48.1175 32.596C42.6815 32.596 38.8295 37.06 38.8295 42.496V42.568C38.8295 48.436 43.0775 52.432 48.5855 52.432C51.5375 52.432 53.6975 51.46 55.4255 49.912ZM65.2721 52.396C68.1881 52.396 70.1681 51.172 71.4641 49.624V50.344C71.4641 51.316 72.3281 52.18 73.5881 52.18C74.7761 52.18 75.7121 51.28 75.7121 50.092V40.732C75.7121 38.248 75.0641 36.232 73.6601 34.864C72.3281 33.496 70.2041 32.74 67.3601 32.74C64.8761 32.74 63.0401 33.172 61.2401 33.856C60.5921 34.108 60.0521 34.792 60.0521 35.584C60.0521 36.592 60.8801 37.384 61.8881 37.384C62.1041 37.384 62.3201 37.348 62.5721 37.276C63.7601 36.808 65.1281 36.52 66.7841 36.52C69.8441 36.52 71.5001 37.96 71.5001 40.66V41.128C70.0241 40.66 68.5121 40.336 66.3881 40.336C61.7441 40.336 58.5401 42.352 58.5401 46.456V46.528C58.5401 50.344 61.7081 52.396 65.2721 52.396ZM66.4961 49.228C64.4081 49.228 62.7881 48.184 62.7881 46.348V46.276C62.7881 44.296 64.4441 43.108 67.2521 43.108C68.9801 43.108 70.4561 43.432 71.5721 43.864V45.16C71.5721 47.572 69.3761 49.228 66.4961 49.228ZM79.129 50.02C79.129 51.244 80.101 52.18 81.289 52.18C82.513 52.18 83.485 51.208 83.485 50.02V44.404C83.485 39.904 85.609 37.528 88.705 36.988C89.677 36.808 90.433 36.052 90.433 34.9C90.433 33.64 89.641 32.74 88.273 32.74C86.365 32.74 84.493 34.54 83.485 36.916V34.972C83.485 33.748 82.513 32.776 81.289 32.776C80.065 32.776 79.129 33.748 79.129 34.972V50.02ZM92.2001 50.02C92.2001 51.244 93.1721 52.18 94.3601 52.18C95.5841 52.18 96.5561 51.244 96.5561 50.02V41.272C96.5561 38.32 98.3201 36.556 100.84 36.556C103.432 36.556 104.908 38.248 104.908 41.2V50.02C104.908 51.244 105.88 52.18 107.104 52.18C108.328 52.18 109.264 51.244 109.264 50.02V39.868C109.264 35.476 106.78 32.596 102.496 32.596C99.5441 32.596 97.7801 34.144 96.5561 35.908V34.972C96.5561 33.748 95.5841 32.776 94.3601 32.776C93.1361 32.776 92.2001 33.748 92.2001 34.972V50.02ZM112.652 28.096C112.652 29.392 113.732 30.256 115.136 30.256C116.54 30.256 117.62 29.392 117.62 28.096V27.88C117.62 26.584 116.54 25.756 115.136 25.756C113.732 25.756 112.652 26.584 112.652 27.88V28.096ZM112.976 50.02C112.976 51.244 113.948 52.18 115.136 52.18C116.36 52.18 117.332 51.244 117.332 50.02V34.972C117.332 33.748 116.36 32.776 115.136 32.776C113.912 32.776 112.976 33.748 112.976 34.972V50.02ZM121.225 50.02C121.225 51.244 122.197 52.18 123.385 52.18C124.609 52.18 125.581 51.244 125.581 50.02V41.272C125.581 38.32 127.345 36.556 129.865 36.556C132.457 36.556 133.933 38.248 133.933 41.2V50.02C133.933 51.244 134.905 52.18 136.129 52.18C137.353 52.18 138.289 51.244 138.289 50.02V39.868C138.289 35.476 135.805 32.596 131.521 32.596C128.569 32.596 126.805 34.144 125.581 35.908V34.972C125.581 33.748 124.609 32.776 123.385 32.776C122.161 32.776 121.225 33.748 121.225 34.972V50.02ZM150.209 57.832C153.629 57.832 156.293 57.004 158.021 55.276C159.605 53.692 160.433 51.316 160.433 48.112V34.972C160.433 33.748 159.461 32.776 158.237 32.776C157.049 32.776 156.077 33.748 156.077 34.936V35.836C154.601 34.072 152.621 32.596 149.417 32.596C144.989 32.596 140.777 35.908 140.777 41.524V41.596C140.777 47.176 144.953 50.488 149.417 50.488C152.549 50.488 154.529 49.048 156.113 46.996V48.472C156.113 52.288 153.989 54.304 150.101 54.304C147.905 54.304 145.997 53.764 144.269 52.792C144.053 52.684 143.801 52.612 143.477 52.612C142.469 52.612 141.641 53.44 141.641 54.412C141.641 55.24 142.109 55.852 142.865 56.14C145.169 57.256 147.545 57.832 150.209 57.832ZM150.569 46.78C147.581 46.78 145.169 44.656 145.169 41.56V41.488C145.169 38.356 147.545 36.268 150.569 36.268C153.593 36.268 156.149 38.392 156.149 41.488V41.56C156.149 44.656 153.593 46.78 150.569 46.78ZM179.467 52.324C180.619 52.324 181.519 52.144 182.455 51.82C183.067 51.568 183.607 50.92 183.607 50.128C183.607 49.12 182.743 48.328 181.771 48.328C181.627 48.328 181.195 48.436 180.691 48.436C179.215 48.436 178.351 47.752 178.351 46.06V36.736H181.771C182.815 36.736 183.679 35.908 183.679 34.864C183.679 33.82 182.815 32.992 181.771 32.992H178.351V29.752C178.351 28.564 177.379 27.592 176.191 27.592C174.967 27.592 173.995 28.564 173.995 29.752V32.992H173.275C172.231 32.992 171.403 33.82 171.403 34.864C171.403 35.908 172.231 36.736 173.275 36.736H173.995V46.744C173.995 50.92 176.263 52.324 179.467 52.324ZM186.095 50.02C186.095 51.244 187.067 52.18 188.255 52.18C189.479 52.18 190.451 51.244 190.451 50.02V41.272C190.451 38.32 192.215 36.556 194.735 36.556C197.327 36.556 198.803 38.248 198.803 41.2V50.02C198.803 51.244 199.775 52.18 200.999 52.18C202.223 52.18 203.159 51.244 203.159 50.02V39.868C203.159 35.476 200.675 32.596 196.391 32.596C193.439 32.596 191.675 34.144 190.451 35.908V27.7C190.451 26.512 189.479 25.54 188.255 25.54C187.031 25.54 186.095 26.512 186.095 27.7V50.02ZM209.896 41.164C210.292 38.212 212.164 36.16 214.828 36.16C217.708 36.16 219.364 38.356 219.652 41.164H209.896ZM222.172 49.912C222.496 49.588 222.748 49.12 222.748 48.58C222.748 47.572 221.992 46.816 221.02 46.816C220.516 46.816 220.228 46.96 219.904 47.212C218.68 48.22 217.24 48.868 215.404 48.868C212.596 48.868 210.4 47.14 209.932 44.044H221.848C222.964 44.044 223.9 43.18 223.9 41.956C223.9 37.564 220.912 32.596 214.864 32.596C209.428 32.596 205.576 37.06 205.576 42.496V42.568C205.576 48.436 209.824 52.432 215.332 52.432C218.284 52.432 220.444 51.46 222.172 49.912ZM236.043 50.02C236.043 51.208 237.015 52.18 238.239 52.18C239.427 52.18 240.399 51.208 240.399 50.02V34.036L253.359 50.812C253.971 51.604 254.619 52.144 255.663 52.144H255.843C257.067 52.144 258.003 51.172 258.003 49.948V28.78C258.003 27.592 257.031 26.62 255.807 26.62C254.619 26.62 253.647 27.592 253.647 28.78V44.26L241.047 27.952C240.435 27.196 239.823 26.656 238.743 26.656H238.275C237.015 26.656 236.043 27.664 236.043 28.888V50.02ZM271.217 52.432C277.085 52.432 281.405 47.932 281.405 42.532V42.46C281.405 37.024 277.121 32.596 271.289 32.596C265.457 32.596 261.137 37.096 261.137 42.532V42.604C261.137 48.004 265.421 52.432 271.217 52.432ZM271.289 48.616C267.905 48.616 265.493 45.844 265.493 42.532V42.46C265.493 39.148 267.725 36.412 271.217 36.412C274.637 36.412 277.049 39.184 277.049 42.532V42.604C277.049 45.88 274.817 48.616 271.289 48.616ZM290.413 52.324C291.565 52.324 292.465 52.144 293.401 51.82C294.013 51.568 294.553 50.92 294.553 50.128C294.553 49.12 293.689 48.328 292.717 48.328C292.573 48.328 292.141 48.436 291.637 48.436C290.161 48.436 289.297 47.752 289.297 46.06V36.736H292.717C293.761 36.736 294.625 35.908 294.625 34.864C294.625 33.82 293.761 32.992 292.717 32.992H289.297V29.752C289.297 28.564 288.325 27.592 287.137 27.592C285.913 27.592 284.941 28.564 284.941 29.752V32.992H284.221C283.177 32.992 282.349 33.82 282.349 34.864C282.349 35.908 283.177 36.736 284.221 36.736H284.941V46.744C284.941 50.92 287.209 52.324 290.413 52.324ZM299.79 41.164C300.186 38.212 302.058 36.16 304.722 36.16C307.602 36.16 309.258 38.356 309.546 41.164H299.79ZM312.066 49.912C312.39 49.588 312.642 49.12 312.642 48.58C312.642 47.572 311.886 46.816 310.914 46.816C310.41 46.816 310.122 46.96 309.798 47.212C308.574 48.22 307.134 48.868 305.298 48.868C302.49 48.868 300.294 47.14 299.826 44.044H311.742C312.858 44.044 313.794 43.18 313.794 41.956C313.794 37.564 310.806 32.596 304.758 32.596C299.322 32.596 295.47 37.06 295.47 42.496V42.568C295.47 48.436 299.718 52.432 305.226 52.432C308.178 52.432 310.338 51.46 312.066 49.912ZM322.957 52.36C326.917 52.36 330.013 50.38 330.013 46.384V46.312C330.013 42.892 326.881 41.632 324.109 40.768C321.877 40.048 319.825 39.472 319.825 38.068V37.996C319.825 36.916 320.797 36.124 322.489 36.124C323.821 36.124 325.405 36.628 326.953 37.42C327.241 37.564 327.457 37.636 327.817 37.636C328.825 37.636 329.617 36.88 329.617 35.872C329.617 35.116 329.185 34.54 328.573 34.216C326.737 33.244 324.613 32.668 322.597 32.668C318.817 32.668 315.829 34.864 315.829 38.464V38.536C315.829 42.172 318.961 43.324 321.769 44.116C324.001 44.8 326.017 45.304 326.017 46.78V46.852C326.017 48.112 324.937 48.904 323.065 48.904C321.337 48.904 319.429 48.292 317.593 47.068C317.341 46.924 317.017 46.816 316.657 46.816C315.649 46.816 314.893 47.608 314.893 48.58C314.893 49.3 315.253 49.84 315.721 50.092C317.917 51.604 320.545 52.36 322.957 52.36Z" fill="black"/>
<path d="M20.24 44.768C20.24 46.028 21.212 47 22.472 47H36.08C37.196 47 38.096 46.1 38.096 44.984C38.096 43.868 37.196 42.968 36.08 42.968H24.668V23.816C24.668 22.592 23.696 21.62 22.472 21.62C21.212 21.62 20.24 22.592 20.24 23.816V44.768ZM43.1495 36.164C43.5455 33.212 45.4175 31.16 48.0815 31.16C50.9615 31.16 52.6175 33.356 52.9055 36.164H43.1495ZM55.4255 44.912C55.7495 44.588 56.0015 44.12 56.0015 43.58C56.0015 42.572 55.2455 41.816 54.2735 41.816C53.7695 41.816 53.4815 41.96 53.1575 42.212C51.9335 43.22 50.4935 43.868 48.6575 43.868C45.8495 43.868 43.6535 42.14 43.1855 39.044H55.1015C56.2175 39.044 57.1535 38.18 57.1535 36.956C57.1535 32.564 54.1655 27.596 48.1175 27.596C42.6815 27.596 38.8295 32.06 38.8295 37.496V37.568C38.8295 43.436 43.0775 47.432 48.5855 47.432C51.5375 47.432 53.6975 46.46 55.4255 44.912ZM65.2721 47.396C68.1881 47.396 70.1681 46.172 71.4641 44.624V45.344C71.4641 46.316 72.3281 47.18 73.5881 47.18C74.7761 47.18 75.7121 46.28 75.7121 45.092V35.732C75.7121 33.248 75.0641 31.232 73.6601 29.864C72.3281 28.496 70.2041 27.74 67.3601 27.74C64.8761 27.74 63.0401 28.172 61.2401 28.856C60.5921 29.108 60.0521 29.792 60.0521 30.584C60.0521 31.592 60.8801 32.384 61.8881 32.384C62.1041 32.384 62.3201 32.348 62.5721 32.276C63.7601 31.808 65.1281 31.52 66.7841 31.52C69.8441 31.52 71.5001 32.96 71.5001 35.66V36.128C70.0241 35.66 68.5121 35.336 66.3881 35.336C61.7441 35.336 58.5401 37.352 58.5401 41.456V41.528C58.5401 45.344 61.7081 47.396 65.2721 47.396ZM66.4961 44.228C64.4081 44.228 62.7881 43.184 62.7881 41.348V41.276C62.7881 39.296 64.4441 38.108 67.2521 38.108C68.9801 38.108 70.4561 38.432 71.5721 38.864V40.16C71.5721 42.572 69.3761 44.228 66.4961 44.228ZM79.129 45.02C79.129 46.244 80.101 47.18 81.289 47.18C82.513 47.18 83.485 46.208 83.485 45.02V39.404C83.485 34.904 85.609 32.528 88.705 31.988C89.677 31.808 90.433 31.052 90.433 29.9C90.433 28.64 89.641 27.74 88.273 27.74C86.365 27.74 84.493 29.54 83.485 31.916V29.972C83.485 28.748 82.513 27.776 81.289 27.776C80.065 27.776 79.129 28.748 79.129 29.972V45.02ZM92.2001 45.02C92.2001 46.244 93.1721 47.18 94.3601 47.18C95.5841 47.18 96.5561 46.244 96.5561 45.02V36.272C96.5561 33.32 98.3201 31.556 100.84 31.556C103.432 31.556 104.908 33.248 104.908 36.2V45.02C104.908 46.244 105.88 47.18 107.104 47.18C108.328 47.18 109.264 46.244 109.264 45.02V34.868C109.264 30.476 106.78 27.596 102.496 27.596C99.5441 27.596 97.7801 29.144 96.5561 30.908V29.972C96.5561 28.748 95.5841 27.776 94.3601 27.776C93.1361 27.776 92.2001 28.748 92.2001 29.972V45.02ZM112.652 23.096C112.652 24.392 113.732 25.256 115.136 25.256C116.54 25.256 117.62 24.392 117.62 23.096V22.88C117.62 21.584 116.54 20.756 115.136 20.756C113.732 20.756 112.652 21.584 112.652 22.88V23.096ZM112.976 45.02C112.976 46.244 113.948 47.18 115.136 47.18C116.36 47.18 117.332 46.244 117.332 45.02V29.972C117.332 28.748 116.36 27.776 115.136 27.776C113.912 27.776 112.976 28.748 112.976 29.972V45.02ZM121.225 45.02C121.225 46.244 122.197 47.18 123.385 47.18C124.609 47.18 125.581 46.244 125.581 45.02V36.272C125.581 33.32 127.345 31.556 129.865 31.556C132.457 31.556 133.933 33.248 133.933 36.2V45.02C133.933 46.244 134.905 47.18 136.129 47.18C137.353 47.18 138.289 46.244 138.289 45.02V34.868C138.289 30.476 135.805 27.596 131.521 27.596C128.569 27.596 126.805 29.144 125.581 30.908V29.972C125.581 28.748 124.609 27.776 123.385 27.776C122.161 27.776 121.225 28.748 121.225 29.972V45.02ZM150.209 52.832C153.629 52.832 156.293 52.004 158.021 50.276C159.605 48.692 160.433 46.316 160.433 43.112V29.972C160.433 28.748 159.461 27.776 158.237 27.776C157.049 27.776 156.077 28.748 156.077 29.936V30.836C154.601 29.072 152.621 27.596 149.417 27.596C144.989 27.596 140.777 30.908 140.777 36.524V36.596C140.777 42.176 144.953 45.488 149.417 45.488C152.549 45.488 154.529 44.048 156.113 41.996V43.472C156.113 47.288 153.989 49.304 150.101 49.304C147.905 49.304 145.997 48.764 144.269 47.792C144.053 47.684 143.801 47.612 143.477 47.612C142.469 47.612 141.641 48.44 141.641 49.412C141.641 50.24 142.109 50.852 142.865 51.14C145.169 52.256 147.545 52.832 150.209 52.832ZM150.569 41.78C147.581 41.78 145.169 39.656 145.169 36.56V36.488C145.169 33.356 147.545 31.268 150.569 31.268C153.593 31.268 156.149 33.392 156.149 36.488V36.56C156.149 39.656 153.593 41.78 150.569 41.78ZM179.467 47.324C180.619 47.324 181.519 47.144 182.455 46.82C183.067 46.568 183.607 45.92 183.607 45.128C183.607 44.12 182.743 43.328 181.771 43.328C181.627 43.328 181.195 43.436 180.691 43.436C179.215 43.436 178.351 42.752 178.351 41.06V31.736H181.771C182.815 31.736 183.679 30.908 183.679 29.864C183.679 28.82 182.815 27.992 181.771 27.992H178.351V24.752C178.351 23.564 177.379 22.592 176.191 22.592C174.967 22.592 173.995 23.564 173.995 24.752V27.992H173.275C172.231 27.992 171.403 28.82 171.403 29.864C171.403 30.908 172.231 31.736 173.275 31.736H173.995V41.744C173.995 45.92 176.263 47.324 179.467 47.324ZM186.095 45.02C186.095 46.244 187.067 47.18 188.255 47.18C189.479 47.18 190.451 46.244 190.451 45.02V36.272C190.451 33.32 192.215 31.556 194.735 31.556C197.327 31.556 198.803 33.248 198.803 36.2V45.02C198.803 46.244 199.775 47.18 200.999 47.18C202.223 47.18 203.159 46.244 203.159 45.02V34.868C203.159 30.476 200.675 27.596 196.391 27.596C193.439 27.596 191.675 29.144 190.451 30.908V22.7C190.451 21.512 189.479 20.54 188.255 20.54C187.031 20.54 186.095 21.512 186.095 22.7V45.02ZM209.896 36.164C210.292 33.212 212.164 31.16 214.828 31.16C217.708 31.16 219.364 33.356 219.652 36.164H209.896ZM222.172 44.912C222.496 44.588 222.748 44.12 222.748 43.58C222.748 42.572 221.992 41.816 221.02 41.816C220.516 41.816 220.228 41.96 219.904 42.212C218.68 43.22 217.24 43.868 215.404 43.868C212.596 43.868 210.4 42.14 209.932 39.044H221.848C222.964 39.044 223.9 38.18 223.9 36.956C223.9 32.564 220.912 27.596 214.864 27.596C209.428 27.596 205.576 32.06 205.576 37.496V37.568C205.576 43.436 209.824 47.432 215.332 47.432C218.284 47.432 220.444 46.46 222.172 44.912Z" fill="#00E59D"/>
<path d="M236.043 45.02C236.043 46.208 237.015 47.18 238.239 47.18C239.427 47.18 240.399 46.208 240.399 45.02V29.036L253.359 45.812C253.971 46.604 254.619 47.144 255.663 47.144H255.843C257.067 47.144 258.003 46.172 258.003 44.948V23.78C258.003 22.592 257.031 21.62 255.807 21.62C254.619 21.62 253.647 22.592 253.647 23.78V39.26L241.047 22.952C240.435 22.196 239.823 21.656 238.743 21.656H238.275C237.015 21.656 236.043 22.664 236.043 23.888V45.02ZM271.217 47.432C277.085 47.432 281.405 42.932 281.405 37.532V37.46C281.405 32.024 277.121 27.596 271.289 27.596C265.457 27.596 261.137 32.096 261.137 37.532V37.604C261.137 43.004 265.421 47.432 271.217 47.432ZM271.289 43.616C267.905 43.616 265.493 40.844 265.493 37.532V37.46C265.493 34.148 267.725 31.412 271.217 31.412C274.637 31.412 277.049 34.184 277.049 37.532V37.604C277.049 40.88 274.817 43.616 271.289 43.616ZM290.413 47.324C291.565 47.324 292.465 47.144 293.401 46.82C294.013 46.568 294.553 45.92 294.553 45.128C294.553 44.12 293.689 43.328 292.717 43.328C292.573 43.328 292.141 43.436 291.637 43.436C290.161 43.436 289.297 42.752 289.297 41.06V31.736H292.717C293.761 31.736 294.625 30.908 294.625 29.864C294.625 28.82 293.761 27.992 292.717 27.992H289.297V24.752C289.297 23.564 288.325 22.592 287.137 22.592C285.913 22.592 284.941 23.564 284.941 24.752V27.992H284.221C283.177 27.992 282.349 28.82 282.349 29.864C282.349 30.908 283.177 31.736 284.221 31.736H284.941V41.744C284.941 45.92 287.209 47.324 290.413 47.324ZM299.79 36.164C300.186 33.212 302.058 31.16 304.722 31.16C307.602 31.16 309.258 33.356 309.546 36.164H299.79ZM312.066 44.912C312.39 44.588 312.642 44.12 312.642 43.58C312.642 42.572 311.886 41.816 310.914 41.816C310.41 41.816 310.122 41.96 309.798 42.212C308.574 43.22 307.134 43.868 305.298 43.868C302.49 43.868 300.294 42.14 299.826 39.044H311.742C312.858 39.044 313.794 38.18 313.794 36.956C313.794 32.564 310.806 27.596 304.758 27.596C299.322 27.596 295.47 32.06 295.47 37.496V37.568C295.47 43.436 299.718 47.432 305.226 47.432C308.178 47.432 310.338 46.46 312.066 44.912ZM322.957 47.36C326.917 47.36 330.013 45.38 330.013 41.384V41.312C330.013 37.892 326.881 36.632 324.109 35.768C321.877 35.048 319.825 34.472 319.825 33.068V32.996C319.825 31.916 320.797 31.124 322.489 31.124C323.821 31.124 325.405 31.628 326.953 32.42C327.241 32.564 327.457 32.636 327.817 32.636C328.825 32.636 329.617 31.88 329.617 30.872C329.617 30.116 329.185 29.54 328.573 29.216C326.737 28.244 324.613 27.668 322.597 27.668C318.817 27.668 315.829 29.864 315.829 33.464V33.536C315.829 37.172 318.961 38.324 321.769 39.116C324.001 39.8 326.017 40.304 326.017 41.78V41.852C326.017 43.112 324.937 43.904 323.065 43.904C321.337 43.904 319.429 43.292 317.593 42.068C317.341 41.924 317.017 41.816 316.657 41.816C315.649 41.816 314.893 42.608 314.893 43.58C314.893 44.3 315.253 44.84 315.721 45.092C317.917 46.604 320.545 47.36 322.957 47.36Z" fill="#FF0000"/>
<g filter="url(#filter0)">
<path d="M20.24 44.768C20.24 46.028 21.212 47 22.472 47H36.08C37.196 47 38.096 46.1 38.096 44.984C38.096 43.868 37.196 42.968 36.08 42.968H24.668V23.816C24.668 22.592 23.696 21.62 22.472 21.62C21.212 21.62 20.24 22.592 20.24 23.816V44.768ZM43.1495 36.164C43.5455 33.212 45.4175 31.16 48.0815 31.16C50.9615 31.16 52.6175 33.356 52.9055 36.164H43.1495ZM55.4255 44.912C55.7495 44.588 56.0015 44.12 56.0015 43.58C56.0015 42.572 55.2455 41.816 54.2735 41.816C53.7695 41.816 53.4815 41.96 53.1575 42.212C51.9335 43.22 50.4935 43.868 48.6575 43.868C45.8495 43.868 43.6535 42.14 43.1855 39.044H55.1015C56.2175 39.044 57.1535 38.18 57.1535 36.956C57.1535 32.564 54.1655 27.596 48.1175 27.596C42.6815 27.596 38.8295 32.06 38.8295 37.496V37.568C38.8295 43.436 43.0775 47.432 48.5855 47.432C51.5375 47.432 53.6975 46.46 55.4255 44.912ZM65.2721 47.396C68.1881 47.396 70.1681 46.172 71.4641 44.624V45.344C71.4641 46.316 72.3281 47.18 73.5881 47.18C74.7761 47.18 75.7121 46.28 75.7121 45.092V35.732C75.7121 33.248 75.0641 31.232 73.6601 29.864C72.3281 28.496 70.2041 27.74 67.3601 27.74C64.8761 27.74 63.0401 28.172 61.2401 28.856C60.5921 29.108 60.0521 29.792 60.0521 30.584C60.0521 31.592 60.8801 32.384 61.8881 32.384C62.1041 32.384 62.3201 32.348 62.5721 32.276C63.7601 31.808 65.1281 31.52 66.7841 31.52C69.8441 31.52 71.5001 32.96 71.5001 35.66V36.128C70.0241 35.66 68.5121 35.336 66.3881 35.336C61.7441 35.336 58.5401 37.352 58.5401 41.456V41.528C58.5401 45.344 61.7081 47.396 65.2721 47.396ZM66.4961 44.228C64.4081 44.228 62.7881 43.184 62.7881 41.348V41.276C62.7881 39.296 64.4441 38.108 67.2521 38.108C68.9801 38.108 70.4561 38.432 71.5721 38.864V40.16C71.5721 42.572 69.3761 44.228 66.4961 44.228ZM79.129 45.02C79.129 46.244 80.101 47.18 81.289 47.18C82.513 47.18 83.485 46.208 83.485 45.02V39.404C83.485 34.904 85.609 32.528 88.705 31.988C89.677 31.808 90.433 31.052 90.433 29.9C90.433 28.64 89.641 27.74 88.273 27.74C86.365 27.74 84.493 29.54 83.485 31.916V29.972C83.485 28.748 82.513 27.776 81.289 27.776C80.065 27.776 79.129 28.748 79.129 29.972V45.02ZM92.2001 45.02C92.2001 46.244 93.1721 47.18 94.3601 47.18C95.5841 47.18 96.5561 46.244 96.5561 45.02V36.272C96.5561 33.32 98.3201 31.556 100.84 31.556C103.432 31.556 104.908 33.248 104.908 36.2V45.02C104.908 46.244 105.88 47.18 107.104 47.18C108.328 47.18 109.264 46.244 109.264 45.02V34.868C109.264 30.476 106.78 27.596 102.496 27.596C99.5441 27.596 97.7801 29.144 96.5561 30.908V29.972C96.5561 28.748 95.5841 27.776 94.3601 27.776C93.1361 27.776 92.2001 28.748 92.2001 29.972V45.02ZM112.652 23.096C112.652 24.392 113.732 25.256 115.136 25.256C116.54 25.256 117.62 24.392 117.62 23.096V22.88C117.62 21.584 116.54 20.756 115.136 20.756C113.732 20.756 112.652 21.584 112.652 22.88V23.096ZM112.976 45.02C112.976 46.244 113.948 47.18 115.136 47.18C116.36 47.18 117.332 46.244 117.332 45.02V29.972C117.332 28.748 116.36 27.776 115.136 27.776C113.912 27.776 112.976 28.748 112.976 29.972V45.02ZM121.225 45.02C121.225 46.244 122.197 47.18 123.385 47.18C124.609 47.18 125.581 46.244 125.581 45.02V36.272C125.581 33.32 127.345 31.556 129.865 31.556C132.457 31.556 133.933 33.248 133.933 36.2V45.02C133.933 46.244 134.905 47.18 136.129 47.18C137.353 47.18 138.289 46.244 138.289 45.02V34.868C138.289 30.476 135.805 27.596 131.521 27.596C128.569 27.596 126.805 29.144 125.581 30.908V29.972C125.581 28.748 124.609 27.776 123.385 27.776C122.161 27.776 121.225 28.748 121.225 29.972V45.02ZM150.209 52.832C153.629 52.832 156.293 52.004 158.021 50.276C159.605 48.692 160.433 46.316 160.433 43.112V29.972C160.433 28.748 159.461 27.776 158.237 27.776C157.049 27.776 156.077 28.748 156.077 29.936V30.836C154.601 29.072 152.621 27.596 149.417 27.596C144.989 27.596 140.777 30.908 140.777 36.524V36.596C140.777 42.176 144.953 45.488 149.417 45.488C152.549 45.488 154.529 44.048 156.113 41.996V43.472C156.113 47.288 153.989 49.304 150.101 49.304C147.905 49.304 145.997 48.764 144.269 47.792C144.053 47.684 143.801 47.612 143.477 47.612C142.469 47.612 141.641 48.44 141.641 49.412C141.641 50.24 142.109 50.852 142.865 51.14C145.169 52.256 147.545 52.832 150.209 52.832ZM150.569 41.78C147.581 41.78 145.169 39.656 145.169 36.56V36.488C145.169 33.356 147.545 31.268 150.569 31.268C153.593 31.268 156.149 33.392 156.149 36.488V36.56C156.149 39.656 153.593 41.78 150.569 41.78ZM179.467 47.324C180.619 47.324 181.519 47.144 182.455 46.82C183.067 46.568 183.607 45.92 183.607 45.128C183.607 44.12 182.743 43.328 181.771 43.328C181.627 43.328 181.195 43.436 180.691 43.436C179.215 43.436 178.351 42.752 178.351 41.06V31.736H181.771C182.815 31.736 183.679 30.908 183.679 29.864C183.679 28.82 182.815 27.992 181.771 27.992H178.351V24.752C178.351 23.564 177.379 22.592 176.191 22.592C174.967 22.592 173.995 23.564 173.995 24.752V27.992H173.275C172.231 27.992 171.403 28.82 171.403 29.864C171.403 30.908 172.231 31.736 173.275 31.736H173.995V41.744C173.995 45.92 176.263 47.324 179.467 47.324ZM186.095 45.02C186.095 46.244 187.067 47.18 188.255 47.18C189.479 47.18 190.451 46.244 190.451 45.02V36.272C190.451 33.32 192.215 31.556 194.735 31.556C197.327 31.556 198.803 33.248 198.803 36.2V45.02C198.803 46.244 199.775 47.18 200.999 47.18C202.223 47.18 203.159 46.244 203.159 45.02V34.868C203.159 30.476 200.675 27.596 196.391 27.596C193.439 27.596 191.675 29.144 190.451 30.908V22.7C190.451 21.512 189.479 20.54 188.255 20.54C187.031 20.54 186.095 21.512 186.095 22.7V45.02ZM209.896 36.164C210.292 33.212 212.164 31.16 214.828 31.16C217.708 31.16 219.364 33.356 219.652 36.164H209.896ZM222.172 44.912C222.496 44.588 222.748 44.12 222.748 43.58C222.748 42.572 221.992 41.816 221.02 41.816C220.516 41.816 220.228 41.96 219.904 42.212C218.68 43.22 217.24 43.868 215.404 43.868C212.596 43.868 210.4 42.14 209.932 39.044H221.848C222.964 39.044 223.9 38.18 223.9 36.956C223.9 32.564 220.912 27.596 214.864 27.596C209.428 27.596 205.576 32.06 205.576 37.496V37.568C205.576 43.436 209.824 47.432 215.332 47.432C218.284 47.432 220.444 46.46 222.172 44.912Z" fill="#00E59D"/>
<path d="M236.043 45.02C236.043 46.208 237.015 47.18 238.239 47.18C239.427 47.18 240.399 46.208 240.399 45.02V29.036L253.359 45.812C253.971 46.604 254.619 47.144 255.663 47.144H255.843C257.067 47.144 258.003 46.172 258.003 44.948V23.78C258.003 22.592 257.031 21.62 255.807 21.62C254.619 21.62 253.647 22.592 253.647 23.78V39.26L241.047 22.952C240.435 22.196 239.823 21.656 238.743 21.656H238.275C237.015 21.656 236.043 22.664 236.043 23.888V45.02ZM271.217 47.432C277.085 47.432 281.405 42.932 281.405 37.532V37.46C281.405 32.024 277.121 27.596 271.289 27.596C265.457 27.596 261.137 32.096 261.137 37.532V37.604C261.137 43.004 265.421 47.432 271.217 47.432ZM271.289 43.616C267.905 43.616 265.493 40.844 265.493 37.532V37.46C265.493 34.148 267.725 31.412 271.217 31.412C274.637 31.412 277.049 34.184 277.049 37.532V37.604C277.049 40.88 274.817 43.616 271.289 43.616ZM290.413 47.324C291.565 47.324 292.465 47.144 293.401 46.82C294.013 46.568 294.553 45.92 294.553 45.128C294.553 44.12 293.689 43.328 292.717 43.328C292.573 43.328 292.141 43.436 291.637 43.436C290.161 43.436 289.297 42.752 289.297 41.06V31.736H292.717C293.761 31.736 294.625 30.908 294.625 29.864C294.625 28.82 293.761 27.992 292.717 27.992H289.297V24.752C289.297 23.564 288.325 22.592 287.137 22.592C285.913 22.592 284.941 23.564 284.941 24.752V27.992H284.221C283.177 27.992 282.349 28.82 282.349 29.864C282.349 30.908 283.177 31.736 284.221 31.736H284.941V41.744C284.941 45.92 287.209 47.324 290.413 47.324ZM299.79 36.164C300.186 33.212 302.058 31.16 304.722 31.16C307.602 31.16 309.258 33.356 309.546 36.164H299.79ZM312.066 44.912C312.39 44.588 312.642 44.12 312.642 43.58C312.642 42.572 311.886 41.816 310.914 41.816C310.41 41.816 310.122 41.96 309.798 42.212C308.574 43.22 307.134 43.868 305.298 43.868C302.49 43.868 300.294 42.14 299.826 39.044H311.742C312.858 39.044 313.794 38.18 313.794 36.956C313.794 32.564 310.806 27.596 304.758 27.596C299.322 27.596 295.47 32.06 295.47 37.496V37.568C295.47 43.436 299.718 47.432 305.226 47.432C308.178 47.432 310.338 46.46 312.066 44.912ZM322.957 47.36C326.917 47.36 330.013 45.38 330.013 41.384V41.312C330.013 37.892 326.881 36.632 324.109 35.768C321.877 35.048 319.825 34.472 319.825 33.068V32.996C319.825 31.916 320.797 31.124 322.489 31.124C323.821 31.124 325.405 31.628 326.953 32.42C327.241 32.564 327.457 32.636 327.817 32.636C328.825 32.636 329.617 31.88 329.617 30.872C329.617 30.116 329.185 29.54 328.573 29.216C326.737 28.244 324.613 27.668 322.597 27.668C318.817 27.668 315.829 29.864 315.829 33.464V33.536C315.829 37.172 318.961 38.324 321.769 39.116C324.001 39.8 326.017 40.304 326.017 41.78V41.852C326.017 43.112 324.937 43.904 323.065 43.904C321.337 43.904 319.429 43.292 317.593 42.068C317.341 41.924 317.017 41.816 316.657 41.816C315.649 41.816 314.893 42.608 314.893 43.58C314.893 44.3 315.253 44.84 315.721 45.092C317.917 46.604 320.545 47.36 322.957 47.36Z" fill="#FF0000"/>
</g>
<defs>
<filter id="filter0" x="0.240234" y="0.540039" width="349.772" height="72.292" filterUnits="userSpaceOnUse" color-interpolation-filters="sRGB">
<feFlood flood-opacity="0" result="BackgroundImageFix"/>
<feBlend mode="normal" in="SourceGraphic" in2="BackgroundImageFix" result="shape"/>
<feGaussianBlur stdDeviation="10" result="effect1_foregroundBlur_1318_97"/>
</filter>
</defs>
</svg>
