<svg width="246" height="68" viewBox="0 0 246 68" fill="none" xmlns="http://www.w3.org/2000/svg">
<path d="M20.736 50.02C20.736 51.208 21.708 52.18 22.896 52.18C24.12 52.18 25.092 51.208 25.092 50.02V49.048C26.424 50.812 28.404 52.396 31.572 52.396C36.072 52.396 40.392 48.832 40.392 42.532V42.46C40.392 36.124 36.036 32.596 31.572 32.596C28.476 32.596 26.496 34.18 25.092 36.16V27.7C25.092 26.476 24.12 25.54 22.896 25.54C21.672 25.54 20.736 26.476 20.736 27.7V50.02ZM30.528 48.616C27.576 48.616 24.984 46.168 24.984 42.532V42.46C24.984 38.824 27.576 36.376 30.528 36.376C33.48 36.376 35.964 38.788 35.964 42.46V42.532C35.964 46.276 33.516 48.616 30.528 48.616ZM46.3643 41.164C46.7603 38.212 48.6323 36.16 51.2963 36.16C54.1763 36.16 55.8323 38.356 56.1203 41.164H46.3643ZM58.6403 49.912C58.9643 49.588 59.2163 49.12 59.2163 48.58C59.2163 47.572 58.4603 46.816 57.4883 46.816C56.9843 46.816 56.6963 46.96 56.3723 47.212C55.1483 48.22 53.7083 48.868 51.8723 48.868C49.0643 48.868 46.8683 47.14 46.4003 44.044H58.3163C59.4323 44.044 60.3683 43.18 60.3683 41.956C60.3683 37.564 57.3803 32.596 51.3323 32.596C45.8963 32.596 42.0443 37.06 42.0443 42.496V42.568C42.0443 48.436 46.2923 52.432 51.8003 52.432C54.7523 52.432 56.9123 51.46 58.6403 49.912ZM66.2909 41.164C66.6869 38.212 68.5589 36.16 71.2229 36.16C74.1029 36.16 75.7589 38.356 76.0469 41.164H66.2909ZM78.5669 49.912C78.8909 49.588 79.1429 49.12 79.1429 48.58C79.1429 47.572 78.3869 46.816 77.4149 46.816C76.9109 46.816 76.6229 46.96 76.2989 47.212C75.0749 48.22 73.6349 48.868 71.7989 48.868C68.9909 48.868 66.7949 47.14 66.3269 44.044H78.2429C79.3589 44.044 80.2949 43.18 80.2949 41.956C80.2949 37.564 77.3069 32.596 71.2589 32.596C65.8229 32.596 61.9709 37.06 61.9709 42.496V42.568C61.9709 48.436 66.2189 52.432 71.7269 52.432C74.6789 52.432 76.8389 51.46 78.5669 49.912ZM89.3135 52.324C90.4655 52.324 91.3655 52.144 92.3015 51.82C92.9135 51.568 93.4535 50.92 93.4535 50.128C93.4535 49.12 92.5895 48.328 91.6175 48.328C91.4735 48.328 91.0415 48.436 90.5375 48.436C89.0615 48.436 88.1975 47.752 88.1975 46.06V36.736H91.6175C92.6615 36.736 93.5255 35.908 93.5255 34.864C93.5255 33.82 92.6615 32.992 91.6175 32.992H88.1975V29.752C88.1975 28.564 87.2255 27.592 86.0375 27.592C84.8135 27.592 83.8415 28.564 83.8415 29.752V32.992H83.1215C82.0775 32.992 81.2495 33.82 81.2495 34.864C81.2495 35.908 82.0775 36.736 83.1215 36.736H83.8415V46.744C83.8415 50.92 86.1095 52.324 89.3135 52.324ZM95.9423 50.02C95.9423 51.244 96.9143 52.18 98.1023 52.18C99.3263 52.18 100.298 51.244 100.298 50.02V41.272C100.298 38.32 102.062 36.556 104.582 36.556C107.174 36.556 108.65 38.248 108.65 41.2V50.02C108.65 51.244 109.622 52.18 110.846 52.18C112.07 52.18 113.006 51.244 113.006 50.02V39.868C113.006 35.476 110.522 32.596 106.238 32.596C103.286 32.596 101.522 34.144 100.298 35.908V27.7C100.298 26.512 99.3263 25.54 98.1023 25.54C96.8783 25.54 95.9423 26.512 95.9423 27.7V50.02ZM125.502 52.432C131.37 52.432 135.69 47.932 135.69 42.532V42.46C135.69 37.024 131.406 32.596 125.574 32.596C119.742 32.596 115.422 37.096 115.422 42.532V42.604C115.422 48.004 119.706 52.432 125.502 52.432ZM125.574 48.616C122.19 48.616 119.778 45.844 119.778 42.532V42.46C119.778 39.148 122.01 36.412 125.502 36.412C128.922 36.412 131.334 39.184 131.334 42.532V42.604C131.334 45.88 129.102 48.616 125.574 48.616ZM148.027 50.452L154.363 35.908C154.471 35.692 154.615 35.26 154.615 34.864C154.615 33.676 153.679 32.776 152.491 32.776C151.339 32.776 150.763 33.532 150.439 34.288L145.471 46.96L140.575 34.36C140.215 33.46 139.603 32.776 138.415 32.776C137.227 32.776 136.255 33.784 136.255 34.864C136.255 35.26 136.399 35.62 136.507 35.944L142.843 50.452C143.347 51.604 144.139 52.36 145.327 52.36H145.543C146.731 52.36 147.523 51.568 148.027 50.452ZM159.49 41.164C159.886 38.212 161.758 36.16 164.422 36.16C167.302 36.16 168.958 38.356 169.246 41.164H159.49ZM171.766 49.912C172.09 49.588 172.342 49.12 172.342 48.58C172.342 47.572 171.586 46.816 170.614 46.816C170.11 46.816 169.822 46.96 169.498 47.212C168.274 48.22 166.834 48.868 164.998 48.868C162.19 48.868 159.994 47.14 159.526 44.044H171.442C172.558 44.044 173.494 43.18 173.494 41.956C173.494 37.564 170.506 32.596 164.458 32.596C159.022 32.596 155.17 37.06 155.17 42.496V42.568C155.17 48.436 159.418 52.432 164.926 52.432C167.878 52.432 170.038 51.46 171.766 49.912ZM176.141 50.02C176.141 51.244 177.113 52.18 178.301 52.18C179.525 52.18 180.497 51.244 180.497 50.02V41.272C180.497 38.32 182.261 36.556 184.781 36.556C187.373 36.556 188.849 38.248 188.849 41.2V50.02C188.849 51.244 189.821 52.18 191.045 52.18C192.269 52.18 193.205 51.244 193.205 50.02V39.868C193.205 35.476 190.721 32.596 186.437 32.596C183.485 32.596 181.721 34.144 180.497 35.908V34.972C180.497 33.748 179.525 32.776 178.301 32.776C177.077 32.776 176.141 33.748 176.141 34.972V50.02ZM197.889 43.108H204.657C205.809 43.108 206.781 42.136 206.781 40.984C206.781 39.796 205.809 38.824 204.657 38.824H197.889C196.737 38.824 195.765 39.796 195.765 40.984C195.765 42.136 196.737 43.108 197.889 43.108ZM207.462 50.344C207.462 51.424 208.362 52.252 209.478 52.252C210.27 52.252 210.882 51.748 211.386 51.136L215.994 45.196L220.602 51.136C221.142 51.856 221.754 52.252 222.618 52.252C223.698 52.252 224.634 51.46 224.634 50.236C224.634 49.66 224.382 49.156 223.914 48.58L218.586 42.28L223.734 36.124C224.094 35.692 224.346 35.26 224.346 34.648C224.346 33.568 223.446 32.74 222.294 32.74C221.538 32.74 220.926 33.208 220.422 33.856L216.066 39.436L211.782 33.82C211.242 33.136 210.63 32.74 209.766 32.74C208.686 32.74 207.75 33.532 207.75 34.756C207.75 35.332 208.002 35.836 208.47 36.412L213.474 42.352L208.074 48.832C207.678 49.264 207.462 49.732 207.462 50.344Z" fill="black"/>
<path d="M20.736 45.02C20.736 46.208 21.708 47.18 22.896 47.18C24.12 47.18 25.092 46.208 25.092 45.02V44.048C26.424 45.812 28.404 47.396 31.572 47.396C36.072 47.396 40.392 43.832 40.392 37.532V37.46C40.392 31.124 36.036 27.596 31.572 27.596C28.476 27.596 26.496 29.18 25.092 31.16V22.7C25.092 21.476 24.12 20.54 22.896 20.54C21.672 20.54 20.736 21.476 20.736 22.7V45.02ZM30.528 43.616C27.576 43.616 24.984 41.168 24.984 37.532V37.46C24.984 33.824 27.576 31.376 30.528 31.376C33.48 31.376 35.964 33.788 35.964 37.46V37.532C35.964 41.276 33.516 43.616 30.528 43.616ZM46.3643 36.164C46.7603 33.212 48.6323 31.16 51.2963 31.16C54.1763 31.16 55.8323 33.356 56.1203 36.164H46.3643ZM58.6403 44.912C58.9643 44.588 59.2163 44.12 59.2163 43.58C59.2163 42.572 58.4603 41.816 57.4883 41.816C56.9843 41.816 56.6963 41.96 56.3723 42.212C55.1483 43.22 53.7083 43.868 51.8723 43.868C49.0643 43.868 46.8683 42.14 46.4003 39.044H58.3163C59.4323 39.044 60.3683 38.18 60.3683 36.956C60.3683 32.564 57.3803 27.596 51.3323 27.596C45.8963 27.596 42.0443 32.06 42.0443 37.496V37.568C42.0443 43.436 46.2923 47.432 51.8003 47.432C54.7523 47.432 56.9123 46.46 58.6403 44.912ZM66.2909 36.164C66.6869 33.212 68.5589 31.16 71.2229 31.16C74.1029 31.16 75.7589 33.356 76.0469 36.164H66.2909ZM78.5669 44.912C78.8909 44.588 79.1429 44.12 79.1429 43.58C79.1429 42.572 78.3869 41.816 77.4149 41.816C76.9109 41.816 76.6229 41.96 76.2989 42.212C75.0749 43.22 73.6349 43.868 71.7989 43.868C68.9909 43.868 66.7949 42.14 66.3269 39.044H78.2429C79.3589 39.044 80.2949 38.18 80.2949 36.956C80.2949 32.564 77.3069 27.596 71.2589 27.596C65.8229 27.596 61.9709 32.06 61.9709 37.496V37.568C61.9709 43.436 66.2189 47.432 71.7269 47.432C74.6789 47.432 76.8389 46.46 78.5669 44.912ZM89.3135 47.324C90.4655 47.324 91.3655 47.144 92.3015 46.82C92.9135 46.568 93.4535 45.92 93.4535 45.128C93.4535 44.12 92.5895 43.328 91.6175 43.328C91.4735 43.328 91.0415 43.436 90.5375 43.436C89.0615 43.436 88.1975 42.752 88.1975 41.06V31.736H91.6175C92.6615 31.736 93.5255 30.908 93.5255 29.864C93.5255 28.82 92.6615 27.992 91.6175 27.992H88.1975V24.752C88.1975 23.564 87.2255 22.592 86.0375 22.592C84.8135 22.592 83.8415 23.564 83.8415 24.752V27.992H83.1215C82.0775 27.992 81.2495 28.82 81.2495 29.864C81.2495 30.908 82.0775 31.736 83.1215 31.736H83.8415V41.744C83.8415 45.92 86.1095 47.324 89.3135 47.324ZM95.9423 45.02C95.9423 46.244 96.9143 47.18 98.1023 47.18C99.3263 47.18 100.298 46.244 100.298 45.02V36.272C100.298 33.32 102.062 31.556 104.582 31.556C107.174 31.556 108.65 33.248 108.65 36.2V45.02C108.65 46.244 109.622 47.18 110.846 47.18C112.07 47.18 113.006 46.244 113.006 45.02V34.868C113.006 30.476 110.522 27.596 106.238 27.596C103.286 27.596 101.522 29.144 100.298 30.908V22.7C100.298 21.512 99.3263 20.54 98.1023 20.54C96.8783 20.54 95.9423 21.512 95.9423 22.7V45.02ZM125.502 47.432C131.37 47.432 135.69 42.932 135.69 37.532V37.46C135.69 32.024 131.406 27.596 125.574 27.596C119.742 27.596 115.422 32.096 115.422 37.532V37.604C115.422 43.004 119.706 47.432 125.502 47.432ZM125.574 43.616C122.19 43.616 119.778 40.844 119.778 37.532V37.46C119.778 34.148 122.01 31.412 125.502 31.412C128.922 31.412 131.334 34.184 131.334 37.532V37.604C131.334 40.88 129.102 43.616 125.574 43.616ZM148.027 45.452L154.363 30.908C154.471 30.692 154.615 30.26 154.615 29.864C154.615 28.676 153.679 27.776 152.491 27.776C151.339 27.776 150.763 28.532 150.439 29.288L145.471 41.96L140.575 29.36C140.215 28.46 139.603 27.776 138.415 27.776C137.227 27.776 136.255 28.784 136.255 29.864C136.255 30.26 136.399 30.62 136.507 30.944L142.843 45.452C143.347 46.604 144.139 47.36 145.327 47.36H145.543C146.731 47.36 147.523 46.568 148.027 45.452ZM159.49 36.164C159.886 33.212 161.758 31.16 164.422 31.16C167.302 31.16 168.958 33.356 169.246 36.164H159.49ZM171.766 44.912C172.09 44.588 172.342 44.12 172.342 43.58C172.342 42.572 171.586 41.816 170.614 41.816C170.11 41.816 169.822 41.96 169.498 42.212C168.274 43.22 166.834 43.868 164.998 43.868C162.19 43.868 159.994 42.14 159.526 39.044H171.442C172.558 39.044 173.494 38.18 173.494 36.956C173.494 32.564 170.506 27.596 164.458 27.596C159.022 27.596 155.17 32.06 155.17 37.496V37.568C155.17 43.436 159.418 47.432 164.926 47.432C167.878 47.432 170.038 46.46 171.766 44.912ZM176.141 45.02C176.141 46.244 177.113 47.18 178.301 47.18C179.525 47.18 180.497 46.244 180.497 45.02V36.272C180.497 33.32 182.261 31.556 184.781 31.556C187.373 31.556 188.849 33.248 188.849 36.2V45.02C188.849 46.244 189.821 47.18 191.045 47.18C192.269 47.18 193.205 46.244 193.205 45.02V34.868C193.205 30.476 190.721 27.596 186.437 27.596C183.485 27.596 181.721 29.144 180.497 30.908V29.972C180.497 28.748 179.525 27.776 178.301 27.776C177.077 27.776 176.141 28.748 176.141 29.972V45.02ZM197.889 38.108H204.657C205.809 38.108 206.781 37.136 206.781 35.984C206.781 34.796 205.809 33.824 204.657 33.824H197.889C196.737 33.824 195.765 34.796 195.765 35.984C195.765 37.136 196.737 38.108 197.889 38.108Z" fill="#00E59D"/>
<path d="M208.552 45.344C208.552 46.424 209.452 47.252 210.568 47.252C211.36 47.252 211.972 46.748 212.476 46.136L217.084 40.196L221.692 46.136C222.232 46.856 222.844 47.252 223.708 47.252C224.788 47.252 225.724 46.46 225.724 45.236C225.724 44.66 225.472 44.156 225.004 43.58L219.676 37.28L224.824 31.124C225.184 30.692 225.436 30.26 225.436 29.648C225.436 28.568 224.536 27.74 223.384 27.74C222.628 27.74 222.016 28.208 221.512 28.856L217.156 34.436L212.872 28.82C212.332 28.136 211.72 27.74 210.856 27.74C209.776 27.74 208.84 28.532 208.84 29.756C208.84 30.332 209.092 30.836 209.56 31.412L214.564 37.352L209.164 43.832C208.768 44.264 208.552 44.732 208.552 45.344Z" fill="#FF0000"/>
<g filter="url(#filter0_f)">
<path d="M20.736 45.02C20.736 46.208 21.708 47.18 22.896 47.18C24.12 47.18 25.092 46.208 25.092 45.02V44.048C26.424 45.812 28.404 47.396 31.572 47.396C36.072 47.396 40.392 43.832 40.392 37.532V37.46C40.392 31.124 36.036 27.596 31.572 27.596C28.476 27.596 26.496 29.18 25.092 31.16V22.7C25.092 21.476 24.12 20.54 22.896 20.54C21.672 20.54 20.736 21.476 20.736 22.7V45.02ZM30.528 43.616C27.576 43.616 24.984 41.168 24.984 37.532V37.46C24.984 33.824 27.576 31.376 30.528 31.376C33.48 31.376 35.964 33.788 35.964 37.46V37.532C35.964 41.276 33.516 43.616 30.528 43.616ZM46.3643 36.164C46.7603 33.212 48.6323 31.16 51.2963 31.16C54.1763 31.16 55.8323 33.356 56.1203 36.164H46.3643ZM58.6403 44.912C58.9643 44.588 59.2163 44.12 59.2163 43.58C59.2163 42.572 58.4603 41.816 57.4883 41.816C56.9843 41.816 56.6963 41.96 56.3723 42.212C55.1483 43.22 53.7083 43.868 51.8723 43.868C49.0643 43.868 46.8683 42.14 46.4003 39.044H58.3163C59.4323 39.044 60.3683 38.18 60.3683 36.956C60.3683 32.564 57.3803 27.596 51.3323 27.596C45.8963 27.596 42.0443 32.06 42.0443 37.496V37.568C42.0443 43.436 46.2923 47.432 51.8003 47.432C54.7523 47.432 56.9123 46.46 58.6403 44.912ZM66.2909 36.164C66.6869 33.212 68.5589 31.16 71.2229 31.16C74.1029 31.16 75.7589 33.356 76.0469 36.164H66.2909ZM78.5669 44.912C78.8909 44.588 79.1429 44.12 79.1429 43.58C79.1429 42.572 78.3869 41.816 77.4149 41.816C76.9109 41.816 76.6229 41.96 76.2989 42.212C75.0749 43.22 73.6349 43.868 71.7989 43.868C68.9909 43.868 66.7949 42.14 66.3269 39.044H78.2429C79.3589 39.044 80.2949 38.18 80.2949 36.956C80.2949 32.564 77.3069 27.596 71.2589 27.596C65.8229 27.596 61.9709 32.06 61.9709 37.496V37.568C61.9709 43.436 66.2189 47.432 71.7269 47.432C74.6789 47.432 76.8389 46.46 78.5669 44.912ZM89.3135 47.324C90.4655 47.324 91.3655 47.144 92.3015 46.82C92.9135 46.568 93.4535 45.92 93.4535 45.128C93.4535 44.12 92.5895 43.328 91.6175 43.328C91.4735 43.328 91.0415 43.436 90.5375 43.436C89.0615 43.436 88.1975 42.752 88.1975 41.06V31.736H91.6175C92.6615 31.736 93.5255 30.908 93.5255 29.864C93.5255 28.82 92.6615 27.992 91.6175 27.992H88.1975V24.752C88.1975 23.564 87.2255 22.592 86.0375 22.592C84.8135 22.592 83.8415 23.564 83.8415 24.752V27.992H83.1215C82.0775 27.992 81.2495 28.82 81.2495 29.864C81.2495 30.908 82.0775 31.736 83.1215 31.736H83.8415V41.744C83.8415 45.92 86.1095 47.324 89.3135 47.324ZM95.9423 45.02C95.9423 46.244 96.9143 47.18 98.1023 47.18C99.3263 47.18 100.298 46.244 100.298 45.02V36.272C100.298 33.32 102.062 31.556 104.582 31.556C107.174 31.556 108.65 33.248 108.65 36.2V45.02C108.65 46.244 109.622 47.18 110.846 47.18C112.07 47.18 113.006 46.244 113.006 45.02V34.868C113.006 30.476 110.522 27.596 106.238 27.596C103.286 27.596 101.522 29.144 100.298 30.908V22.7C100.298 21.512 99.3263 20.54 98.1023 20.54C96.8783 20.54 95.9423 21.512 95.9423 22.7V45.02ZM125.502 47.432C131.37 47.432 135.69 42.932 135.69 37.532V37.46C135.69 32.024 131.406 27.596 125.574 27.596C119.742 27.596 115.422 32.096 115.422 37.532V37.604C115.422 43.004 119.706 47.432 125.502 47.432ZM125.574 43.616C122.19 43.616 119.778 40.844 119.778 37.532V37.46C119.778 34.148 122.01 31.412 125.502 31.412C128.922 31.412 131.334 34.184 131.334 37.532V37.604C131.334 40.88 129.102 43.616 125.574 43.616ZM148.027 45.452L154.363 30.908C154.471 30.692 154.615 30.26 154.615 29.864C154.615 28.676 153.679 27.776 152.491 27.776C151.339 27.776 150.763 28.532 150.439 29.288L145.471 41.96L140.575 29.36C140.215 28.46 139.603 27.776 138.415 27.776C137.227 27.776 136.255 28.784 136.255 29.864C136.255 30.26 136.399 30.62 136.507 30.944L142.843 45.452C143.347 46.604 144.139 47.36 145.327 47.36H145.543C146.731 47.36 147.523 46.568 148.027 45.452ZM159.49 36.164C159.886 33.212 161.758 31.16 164.422 31.16C167.302 31.16 168.958 33.356 169.246 36.164H159.49ZM171.766 44.912C172.09 44.588 172.342 44.12 172.342 43.58C172.342 42.572 171.586 41.816 170.614 41.816C170.11 41.816 169.822 41.96 169.498 42.212C168.274 43.22 166.834 43.868 164.998 43.868C162.19 43.868 159.994 42.14 159.526 39.044H171.442C172.558 39.044 173.494 38.18 173.494 36.956C173.494 32.564 170.506 27.596 164.458 27.596C159.022 27.596 155.17 32.06 155.17 37.496V37.568C155.17 43.436 159.418 47.432 164.926 47.432C167.878 47.432 170.038 46.46 171.766 44.912ZM176.141 45.02C176.141 46.244 177.113 47.18 178.301 47.18C179.525 47.18 180.497 46.244 180.497 45.02V36.272C180.497 33.32 182.261 31.556 184.781 31.556C187.373 31.556 188.849 33.248 188.849 36.2V45.02C188.849 46.244 189.821 47.18 191.045 47.18C192.269 47.18 193.205 46.244 193.205 45.02V34.868C193.205 30.476 190.721 27.596 186.437 27.596C183.485 27.596 181.721 29.144 180.497 30.908V29.972C180.497 28.748 179.525 27.776 178.301 27.776C177.077 27.776 176.141 28.748 176.141 29.972V45.02ZM197.889 38.108H204.657C205.809 38.108 206.781 37.136 206.781 35.984C206.781 34.796 205.809 33.824 204.657 33.824H197.889C196.737 33.824 195.765 34.796 195.765 35.984C195.765 37.136 196.737 38.108 197.889 38.108Z" fill="#00E59D"/>
<path d="M208.552 45.344C208.552 46.424 209.452 47.252 210.568 47.252C211.36 47.252 211.972 46.748 212.476 46.136L217.084 40.196L221.692 46.136C222.232 46.856 222.844 47.252 223.708 47.252C224.788 47.252 225.724 46.46 225.724 45.236C225.724 44.66 225.472 44.156 225.004 43.58L219.676 37.28L224.824 31.124C225.184 30.692 225.436 30.26 225.436 29.648C225.436 28.568 224.536 27.74 223.384 27.74C222.628 27.74 222.016 28.208 221.512 28.856L217.156 34.436L212.872 28.82C212.332 28.136 211.72 27.74 210.856 27.74C209.776 27.74 208.84 28.532 208.84 29.756C208.84 30.332 209.092 30.836 209.56 31.412L214.564 37.352L209.164 43.832C208.768 44.264 208.552 44.732 208.552 45.344Z" fill="#FF0000"/>
</g>
<defs>
<filter id="filter0_f" x="0.736328" y="0.540039" width="244.988" height="66.892" filterUnits="userSpaceOnUse" color-interpolation-filters="sRGB">
<feFlood flood-opacity="0" result="BackgroundImageFix"/>
<feBlend mode="normal" in="SourceGraphic" in2="BackgroundImageFix" result="shape"/>
<feGaussianBlur stdDeviation="10" result="effect1_foregroundBlur"/>
</filter>
</defs>
</svg>
