<svg width="246" height="68" fill="none" xmlns="http://www.w3.org/2000/svg"><path d="M20.736 50.02c0 1.188.972 2.16 2.16 2.16 1.224 0 2.196-.972 2.196-2.16v-.972c1.332 1.764 3.312 3.348 6.48 3.348 4.5 0 8.82-3.564 8.82-9.864v-.072c0-6.336-4.356-9.864-8.82-9.864-3.096 0-5.076 1.584-6.48 3.564V27.7c0-1.224-.972-2.16-2.196-2.16-1.224 0-2.16.936-2.16 2.16v22.32Zm9.792-1.404c-2.952 0-5.544-2.448-5.544-6.084v-.072c0-3.636 2.592-6.084 5.544-6.084 2.952 0 5.436 2.412 5.436 6.084v.072c0 3.744-2.448 6.084-5.436 6.084Zm15.836-7.452c.396-2.952 2.268-5.004 4.932-5.004 2.88 0 4.536 2.196 4.824 5.004h-9.756Zm12.276 8.748c.324-.324.576-.792.576-1.332 0-1.008-.756-1.764-1.728-1.764-.504 0-.792.144-1.116.396-1.224 1.008-2.664 1.656-4.5 1.656-2.808 0-5.004-1.728-5.472-4.824h11.916c1.116 0 2.052-.864 2.052-2.088 0-4.392-2.988-9.36-9.036-9.36-5.436 0-9.288 4.464-9.288 9.9v.072c0 5.868 4.248 9.864 9.756 9.864 2.952 0 5.112-.972 6.84-2.52Zm7.65-8.748c.397-2.952 2.269-5.004 4.933-5.004 2.88 0 4.536 2.196 4.824 5.004H66.29Zm12.277 8.748c.324-.324.576-.792.576-1.332 0-1.008-.756-1.764-1.728-1.764-.504 0-.792.144-1.116.396-1.224 1.008-2.664 1.656-4.5 1.656-2.808 0-5.004-1.728-5.472-4.824h11.916c1.116 0 2.052-.864 2.052-2.088 0-4.392-2.988-9.36-9.036-9.36-5.436 0-9.288 4.464-9.288 9.9v.072c0 5.868 4.248 9.864 9.756 9.864 2.952 0 5.112-.972 6.84-2.52Zm10.747 2.412c1.152 0 2.052-.18 2.988-.504.611-.252 1.151-.9 1.151-1.692 0-1.008-.864-1.8-1.835-1.8-.144 0-.576.108-1.08.108-1.477 0-2.34-.684-2.34-2.376v-9.324h3.42c1.044 0 1.907-.828 1.907-1.872s-.864-1.872-1.907-1.872h-3.42v-3.24c0-1.188-.972-2.16-2.16-2.16-1.224 0-2.197.972-2.197 2.16v3.24h-.72a1.86 1.86 0 0 0-1.871 1.872 1.86 1.86 0 0 0 1.871 1.872h.72v10.008c0 4.176 2.269 5.58 5.473 5.58Zm6.628-2.304c0 1.224.972 2.16 2.16 2.16 1.224 0 2.196-.936 2.196-2.16v-8.748c0-2.952 1.764-4.716 4.284-4.716 2.592 0 4.068 1.692 4.068 4.644v8.82c0 1.224.972 2.16 2.196 2.16 1.224 0 2.16-.936 2.16-2.16V39.868c0-4.392-2.484-7.272-6.768-7.272-2.952 0-4.716 1.548-5.94 3.312V27.7c0-1.188-.972-2.16-2.196-2.16-1.224 0-2.16.972-2.16 2.16v22.32Zm29.56 2.412c5.868 0 10.188-4.5 10.188-9.9v-.072c0-5.436-4.284-9.864-10.116-9.864s-10.152 4.5-10.152 9.936v.072c0 5.4 4.284 9.828 10.08 9.828Zm.072-3.816c-3.384 0-5.796-2.772-5.796-6.084v-.072c0-3.312 2.232-6.048 5.724-6.048 3.42 0 5.832 2.772 5.832 6.12v.072c0 3.276-2.232 6.012-5.76 6.012Zm22.453 1.836 6.336-14.544c.108-.216.252-.648.252-1.044 0-1.188-.936-2.088-2.124-2.088-1.152 0-1.728.756-2.052 1.512l-4.968 12.672-4.896-12.6c-.36-.9-.972-1.584-2.16-1.584-1.188 0-2.16 1.008-2.16 2.088 0 .396.144.756.252 1.08l6.336 14.508c.504 1.152 1.296 1.908 2.484 1.908h.216c1.188 0 1.98-.792 2.484-1.908Zm11.463-9.288c.396-2.952 2.268-5.004 4.932-5.004 2.88 0 4.536 2.196 4.824 5.004h-9.756Zm12.276 8.748c.324-.324.576-.792.576-1.332 0-1.008-.756-1.764-1.728-1.764-.504 0-.792.144-1.116.396-1.224 1.008-2.664 1.656-4.5 1.656-2.808 0-5.004-1.728-5.472-4.824h11.916c1.116 0 2.052-.864 2.052-2.088 0-4.392-2.988-9.36-9.036-9.36-5.436 0-9.288 4.464-9.288 9.9v.072c0 5.868 4.248 9.864 9.756 9.864 2.952 0 5.112-.972 6.84-2.52Zm4.375.108c0 1.224.972 2.16 2.16 2.16 1.224 0 2.196-.936 2.196-2.16v-8.748c0-2.952 1.764-4.716 4.284-4.716 2.592 0 4.068 1.692 4.068 4.644v8.82c0 1.224.972 2.16 2.196 2.16 1.224 0 2.16-.936 2.16-2.16V39.868c0-4.392-2.484-7.272-6.768-7.272-2.952 0-4.716 1.548-5.94 3.312v-.936a2.182 2.182 0 0 0-2.196-2.196c-1.224 0-2.16.972-2.16 2.196V50.02Zm21.748-6.912h6.768c1.152 0 2.124-.972 2.124-2.124 0-1.188-.972-2.16-2.124-2.16h-6.768c-1.152 0-2.124.972-2.124 2.16 0 1.152.972 2.124 2.124 2.124Zm9.573 7.236c0 1.08.9 1.908 2.016 1.908.792 0 1.404-.504 1.908-1.116l4.608-5.94 4.608 5.94c.54.72 1.152 1.116 2.016 1.116 1.08 0 2.016-.792 2.016-2.016 0-.576-.252-1.08-.72-1.656l-5.328-6.3 5.148-6.156c.36-.432.612-.864.612-1.476 0-1.08-.9-1.908-2.052-1.908-.756 0-1.368.468-1.872 1.116l-4.356 5.58-4.284-5.616c-.54-.684-1.152-1.08-2.016-1.08-1.08 0-2.016.792-2.016 2.016 0 .576.252 1.08.72 1.656l5.004 5.94-5.4 6.48c-.396.432-.612.9-.612 1.512Z" fill="#000"/><path d="M20.736 45.02c0 1.188.972 2.16 2.16 2.16 1.224 0 2.196-.972 2.196-2.16v-.972c1.332 1.764 3.312 3.348 6.48 3.348 4.5 0 8.82-3.564 8.82-9.864v-.072c0-6.336-4.356-9.864-8.82-9.864-3.096 0-5.076 1.584-6.48 3.564V22.7c0-1.224-.972-2.16-2.196-2.16-1.224 0-2.16.936-2.16 2.16v22.32Zm9.792-1.404c-2.952 0-5.544-2.448-5.544-6.084v-.072c0-3.636 2.592-6.084 5.544-6.084 2.952 0 5.436 2.412 5.436 6.084v.072c0 3.744-2.448 6.084-5.436 6.084Zm15.836-7.452c.396-2.952 2.268-5.004 4.932-5.004 2.88 0 4.536 2.196 4.824 5.004h-9.756Zm12.276 8.748c.324-.324.576-.792.576-1.332 0-1.008-.756-1.764-1.728-1.764-.504 0-.792.144-1.116.396-1.224 1.008-2.664 1.656-4.5 1.656-2.808 0-5.004-1.728-5.472-4.824h11.916c1.116 0 2.052-.864 2.052-2.088 0-4.392-2.988-9.36-9.036-9.36-5.436 0-9.288 4.464-9.288 9.9v.072c0 5.868 4.248 9.864 9.756 9.864 2.952 0 5.112-.972 6.84-2.52Zm7.65-8.748c.397-2.952 2.269-5.004 4.933-5.004 2.88 0 4.536 2.196 4.824 5.004H66.29Zm12.277 8.748c.324-.324.576-.792.576-1.332 0-1.008-.756-1.764-1.728-1.764-.504 0-.792.144-1.116.396-1.224 1.008-2.664 1.656-4.5 1.656-2.808 0-5.004-1.728-5.472-4.824h11.916c1.116 0 2.052-.864 2.052-2.088 0-4.392-2.988-9.36-9.036-9.36-5.436 0-9.288 4.464-9.288 9.9v.072c0 5.868 4.248 9.864 9.756 9.864 2.952 0 5.112-.972 6.84-2.52Zm10.747 2.412c1.152 0 2.052-.18 2.988-.504.611-.252 1.151-.9 1.151-1.692 0-1.008-.864-1.8-1.835-1.8-.144 0-.576.108-1.08.108-1.477 0-2.34-.684-2.34-2.376v-9.324h3.42c1.044 0 1.907-.828 1.907-1.872s-.864-1.872-1.907-1.872h-3.42v-3.24c0-1.188-.972-2.16-2.16-2.16-1.224 0-2.197.972-2.197 2.16v3.24h-.72a1.86 1.86 0 0 0-1.871 1.872 1.86 1.86 0 0 0 1.871 1.872h.72v10.008c0 4.176 2.269 5.58 5.473 5.58Zm6.628-2.304c0 1.224.972 2.16 2.16 2.16 1.224 0 2.196-.936 2.196-2.16v-8.748c0-2.952 1.764-4.716 4.284-4.716 2.592 0 4.068 1.692 4.068 4.644v8.82c0 1.224.972 2.16 2.196 2.16 1.224 0 2.16-.936 2.16-2.16V34.868c0-4.392-2.484-7.272-6.768-7.272-2.952 0-4.716 1.548-5.94 3.312V22.7c0-1.188-.972-2.16-2.196-2.16-1.224 0-2.16.972-2.16 2.16v22.32Zm29.56 2.412c5.868 0 10.188-4.5 10.188-9.9v-.072c0-5.436-4.284-9.864-10.116-9.864s-10.152 4.5-10.152 9.936v.072c0 5.4 4.284 9.828 10.08 9.828Zm.072-3.816c-3.384 0-5.796-2.772-5.796-6.084v-.072c0-3.312 2.232-6.048 5.724-6.048 3.42 0 5.832 2.772 5.832 6.12v.072c0 3.276-2.232 6.012-5.76 6.012Zm22.453 1.836 6.336-14.544c.108-.216.252-.648.252-1.044 0-1.188-.936-2.088-2.124-2.088-1.152 0-1.728.756-2.052 1.512l-4.968 12.672-4.896-12.6c-.36-.9-.972-1.584-2.16-1.584-1.188 0-2.16 1.008-2.16 2.088 0 .396.144.756.252 1.08l6.336 14.508c.504 1.152 1.296 1.908 2.484 1.908h.216c1.188 0 1.98-.792 2.484-1.908Zm11.463-9.288c.396-2.952 2.268-5.004 4.932-5.004 2.88 0 4.536 2.196 4.824 5.004h-9.756Zm12.276 8.748c.324-.324.576-.792.576-1.332 0-1.008-.756-1.764-1.728-1.764-.504 0-.792.144-1.116.396-1.224 1.008-2.664 1.656-4.5 1.656-2.808 0-5.004-1.728-5.472-4.824h11.916c1.116 0 2.052-.864 2.052-2.088 0-4.392-2.988-9.36-9.036-9.36-5.436 0-9.288 4.464-9.288 9.9v.072c0 5.868 4.248 9.864 9.756 9.864 2.952 0 5.112-.972 6.84-2.52Zm4.375.108c0 1.224.972 2.16 2.16 2.16 1.224 0 2.196-.936 2.196-2.16v-8.748c0-2.952 1.764-4.716 4.284-4.716 2.592 0 4.068 1.692 4.068 4.644v8.82c0 1.224.972 2.16 2.196 2.16 1.224 0 2.16-.936 2.16-2.16V34.868c0-4.392-2.484-7.272-6.768-7.272-2.952 0-4.716 1.548-5.94 3.312v-.936a2.182 2.182 0 0 0-2.196-2.196c-1.224 0-2.16.972-2.16 2.196V45.02Zm21.748-6.912h6.768c1.152 0 2.124-.972 2.124-2.124 0-1.188-.972-2.16-2.124-2.16h-6.768c-1.152 0-2.124.972-2.124 2.16 0 1.152.972 2.124 2.124 2.124Z" fill="#00E59D"/><path d="M208.552 45.344c0 1.08.9 1.908 2.016 1.908.792 0 1.404-.504 1.908-1.116l4.608-5.94 4.608 5.94c.54.72 1.152 1.116 2.016 1.116 1.08 0 2.016-.792 2.016-2.016 0-.576-.252-1.08-.72-1.656l-5.328-6.3 5.148-6.156c.36-.432.612-.864.612-1.476 0-1.08-.9-1.908-2.052-1.908-.756 0-1.368.468-1.872 1.116l-4.356 5.58-4.284-5.616c-.54-.684-1.152-1.08-2.016-1.08-1.08 0-2.016.792-2.016 2.016 0 .576.252 1.08.72 1.656l5.004 5.94-5.4 6.48c-.396.432-.612.9-.612 1.512Z" fill="red"/><g filter="url(#a)"><path d="M20.736 45.02c0 1.188.972 2.16 2.16 2.16 1.224 0 2.196-.972 2.196-2.16v-.972c1.332 1.764 3.312 3.348 6.48 3.348 4.5 0 8.82-3.564 8.82-9.864v-.072c0-6.336-4.356-9.864-8.82-9.864-3.096 0-5.076 1.584-6.48 3.564V22.7c0-1.224-.972-2.16-2.196-2.16-1.224 0-2.16.936-2.16 2.16v22.32Zm9.792-1.404c-2.952 0-5.544-2.448-5.544-6.084v-.072c0-3.636 2.592-6.084 5.544-6.084 2.952 0 5.436 2.412 5.436 6.084v.072c0 3.744-2.448 6.084-5.436 6.084Zm15.836-7.452c.396-2.952 2.268-5.004 4.932-5.004 2.88 0 4.536 2.196 4.824 5.004h-9.756Zm12.276 8.748c.324-.324.576-.792.576-1.332 0-1.008-.756-1.764-1.728-1.764-.504 0-.792.144-1.116.396-1.224 1.008-2.664 1.656-4.5 1.656-2.808 0-5.004-1.728-5.472-4.824h11.916c1.116 0 2.052-.864 2.052-2.088 0-4.392-2.988-9.36-9.036-9.36-5.436 0-9.288 4.464-9.288 9.9v.072c0 5.868 4.248 9.864 9.756 9.864 2.952 0 5.112-.972 6.84-2.52Zm7.65-8.748c.397-2.952 2.269-5.004 4.933-5.004 2.88 0 4.536 2.196 4.824 5.004H66.29Zm12.277 8.748c.324-.324.576-.792.576-1.332 0-1.008-.756-1.764-1.728-1.764-.504 0-.792.144-1.116.396-1.224 1.008-2.664 1.656-4.5 1.656-2.808 0-5.004-1.728-5.472-4.824h11.916c1.116 0 2.052-.864 2.052-2.088 0-4.392-2.988-9.36-9.036-9.36-5.436 0-9.288 4.464-9.288 9.9v.072c0 5.868 4.248 9.864 9.756 9.864 2.952 0 5.112-.972 6.84-2.52Zm10.747 2.412c1.152 0 2.052-.18 2.988-.504.611-.252 1.151-.9 1.151-1.692 0-1.008-.864-1.8-1.835-1.8-.144 0-.576.108-1.08.108-1.477 0-2.34-.684-2.34-2.376v-9.324h3.42c1.044 0 1.907-.828 1.907-1.872s-.864-1.872-1.907-1.872h-3.42v-3.24c0-1.188-.972-2.16-2.16-2.16-1.224 0-2.197.972-2.197 2.16v3.24h-.72a1.86 1.86 0 0 0-1.871 1.872 1.86 1.86 0 0 0 1.871 1.872h.72v10.008c0 4.176 2.269 5.58 5.473 5.58Zm6.628-2.304c0 1.224.972 2.16 2.16 2.16 1.224 0 2.196-.936 2.196-2.16v-8.748c0-2.952 1.764-4.716 4.284-4.716 2.592 0 4.068 1.692 4.068 4.644v8.82c0 1.224.972 2.16 2.196 2.16 1.224 0 2.16-.936 2.16-2.16V34.868c0-4.392-2.484-7.272-6.768-7.272-2.952 0-4.716 1.548-5.94 3.312V22.7c0-1.188-.972-2.16-2.196-2.16-1.224 0-2.16.972-2.16 2.16v22.32Zm29.56 2.412c5.868 0 10.188-4.5 10.188-9.9v-.072c0-5.436-4.284-9.864-10.116-9.864s-10.152 4.5-10.152 9.936v.072c0 5.4 4.284 9.828 10.08 9.828Zm.072-3.816c-3.384 0-5.796-2.772-5.796-6.084v-.072c0-3.312 2.232-6.048 5.724-6.048 3.42 0 5.832 2.772 5.832 6.12v.072c0 3.276-2.232 6.012-5.76 6.012Zm22.453 1.836 6.336-14.544c.108-.216.252-.648.252-1.044 0-1.188-.936-2.088-2.124-2.088-1.152 0-1.728.756-2.052 1.512l-4.968 12.672-4.896-12.6c-.36-.9-.972-1.584-2.16-1.584-1.188 0-2.16 1.008-2.16 2.088 0 .396.144.756.252 1.08l6.336 14.508c.504 1.152 1.296 1.908 2.484 1.908h.216c1.188 0 1.98-.792 2.484-1.908Zm11.463-9.288c.396-2.952 2.268-5.004 4.932-5.004 2.88 0 4.536 2.196 4.824 5.004h-9.756Zm12.276 8.748c.324-.324.576-.792.576-1.332 0-1.008-.756-1.764-1.728-1.764-.504 0-.792.144-1.116.396-1.224 1.008-2.664 1.656-4.5 1.656-2.808 0-5.004-1.728-5.472-4.824h11.916c1.116 0 2.052-.864 2.052-2.088 0-4.392-2.988-9.36-9.036-9.36-5.436 0-9.288 4.464-9.288 9.9v.072c0 5.868 4.248 9.864 9.756 9.864 2.952 0 5.112-.972 6.84-2.52Zm4.375.108c0 1.224.972 2.16 2.16 2.16 1.224 0 2.196-.936 2.196-2.16v-8.748c0-2.952 1.764-4.716 4.284-4.716 2.592 0 4.068 1.692 4.068 4.644v8.82c0 1.224.972 2.16 2.196 2.16 1.224 0 2.16-.936 2.16-2.16V34.868c0-4.392-2.484-7.272-6.768-7.272-2.952 0-4.716 1.548-5.94 3.312v-.936a2.182 2.182 0 0 0-2.196-2.196c-1.224 0-2.16.972-2.16 2.196V45.02Zm21.748-6.912h6.768c1.152 0 2.124-.972 2.124-2.124 0-1.188-.972-2.16-2.124-2.16h-6.768c-1.152 0-2.124.972-2.124 2.16 0 1.152.972 2.124 2.124 2.124Z" fill="#00E59D"/><path d="M208.552 45.344c0 1.08.9 1.908 2.016 1.908.792 0 1.404-.504 1.908-1.116l4.608-5.94 4.608 5.94c.54.72 1.152 1.116 2.016 1.116 1.08 0 2.016-.792 2.016-2.016 0-.576-.252-1.08-.72-1.656l-5.328-6.3 5.148-6.156c.36-.432.612-.864.612-1.476 0-1.08-.9-1.908-2.052-1.908-.756 0-1.368.468-1.872 1.116l-4.356 5.58-4.284-5.616c-.54-.684-1.152-1.08-2.016-1.08-1.08 0-2.016.792-2.016 2.016 0 .576.252 1.08.72 1.656l5.004 5.94-5.4 6.48c-.396.432-.612.9-.612 1.512Z" fill="red"/></g><defs><filter id="a" x=".736" y=".54" width="244.988" height="66.892" filterUnits="userSpaceOnUse" color-interpolation-filters="sRGB"><feFlood flood-opacity="0" result="BackgroundImageFix"/><feBlend in="SourceGraphic" in2="BackgroundImageFix" result="shape"/><feGaussianBlur stdDeviation="10" result="effect1_foregroundBlur"/></filter></defs></svg>