<svg width="926" height="497" fill="none" xmlns="http://www.w3.org/2000/svg"><g filter="url(#a)"><rect x="229" y="30" width="667" height="437" rx="50" fill="#2E3192"/></g><g clip-path="url(#b)"><path d="M131.573 112.248h-18.617v82.127h18.617v-82.127Z" fill="#000"/><path d="M113.314 111.995v18.616h58.579v-18.616h-58.579Z" fill="#000"/><path d="M79.558 229.82h5.473v-44.894h-5.473v44.894Z" fill="#CFC" stroke="#000" stroke-width="2.753" stroke-miterlimit="10"/><path d="M82.294 240.775a6.022 6.022 0 1 0 0-12.044 6.022 6.022 0 0 0 0 12.044ZM97.076 395.164h-5.473v44.894h5.473v-44.894Z" fill="#CFC" stroke="#000" stroke-width="2.753" stroke-miterlimit="10"/><path d="M94.339 396.262a6.023 6.023 0 1 0-.001-12.045 6.023 6.023 0 0 0 0 12.045Z" fill="#CFC" stroke="#000" stroke-width="2.753" stroke-miterlimit="10"/><path d="M129.933 357.94h-95.27V198.069l47.09 6.571 48.18-8.767V357.94Z" fill="#000"/><path d="M81.753 226.534a45.76 45.76 0 0 1-45.714-45.714h19.158a26.556 26.556 0 1 0 53.112 0h19.158a45.762 45.762 0 0 1-45.714 45.714Z" fill="red" stroke="#000" stroke-width="3.441" stroke-miterlimit="10"/><path d="m31.336 192.419-17.29 6.901 30.561 76.564 17.29-6.902-30.561-76.563Z" fill="#000"/><path d="M171.097 274.419v-18.616H46.032v18.616h125.065ZM103.656 287.857H85.039v134.684h18.617V287.857Z" fill="#000"/><path d="M104.952 143.316h-8.966v60.226l57.361-10.255-48.395-49.971Z" fill="#fff"/><path d="M95.986 201.354H67.513v35.037h28.473v-35.037Z" fill="red" stroke="#000" stroke-width="3.212" stroke-miterlimit="10"/><path d="M58.546 148.789h8.966v60.225L7.987 198.767l50.56-49.978Z" fill="#fff"/><path d="M104.952 143.316h-8.966v60.226l57.361-10.255-48.395-49.971ZM58.546 148.789h8.966v60.225L7.987 198.767l50.56-49.978Z" stroke="#000" stroke-width="3.441" stroke-miterlimit="10"/><path d="M85.04 434.586h34.623a12.459 12.459 0 0 1 12.458 12.459v7.247H86.312a1.275 1.275 0 0 1-1.273-1.273v-18.433Z" fill="#fff" stroke="#000" stroke-width="3.441" stroke-miterlimit="10"/><path d="m115.693 434.586-19.158 19.165M122.264 434.586l-19.158 19.165M109.129 434.586l-19.165 19.165" stroke="#000" stroke-width="3.441" stroke-miterlimit="10"/><path d="M58.188 394.48h-5.473v44.895h5.473V394.48Z" fill="#CFC" stroke="#000" stroke-width="2.753" stroke-miterlimit="10"/><path d="M55.451 395.578a6.022 6.022 0 1 0 .001-12.044 6.022 6.022 0 0 0 0 12.044Z" fill="#CFC" stroke="#000" stroke-width="2.753" stroke-miterlimit="10"/><path d="M65.858 287.172H47.24v134.683h18.617V287.172Z" fill="#000"/><path d="M48.339 433.9h34.623a12.46 12.46 0 0 1 12.46 12.459v7.248h-45.81a1.272 1.272 0 0 1-1.273-1.273V433.9Z" fill="#fff" stroke="#000" stroke-width="3.441" stroke-miterlimit="10"/><path d="m78.993 433.9-19.158 19.166M85.564 433.9l-19.158 19.166M72.43 433.9l-19.166 19.166" stroke="#000" stroke-width="3.441" stroke-miterlimit="10"/><path d="M129.933 357.94h-95.27l20.804-119.36 74.466-42.707V357.94Z" fill="#000"/><path d="M177.612 255.284v3.278c0 .607.492 1.098 1.098 1.098h5.466c.606 0 1.098-.491 1.098-1.098v-3.278c0-.606-.492-1.097-1.098-1.097h-5.466c-.606 0-1.098.491-1.098 1.097Z" fill="#CFC" stroke="#000" stroke-width="2.409" stroke-miterlimit="10"/><path d="M187.621 255.748v2.14c0 .391.317.708.708.708h3.564a.708.708 0 0 0 .708-.708v-2.14a.708.708 0 0 0-.708-.709h-3.564a.708.708 0 0 0-.708.709ZM194.2 255.874v2.141c0 .391.317.708.708.708h3.564a.709.709 0 0 0 .709-.708v-2.141a.709.709 0 0 0-.709-.708h-3.564a.708.708 0 0 0-.708.708Z" fill="#CFC" stroke="#000" stroke-width="2.065" stroke-miterlimit="10"/><path d="M177.612 263.242v3.277c0 .607.492 1.098 1.098 1.098h5.466c.606 0 1.098-.491 1.098-1.098v-3.277c0-.607-.492-1.098-1.098-1.098h-5.466c-.606 0-1.098.491-1.098 1.098ZM177.612 271.197v3.277c0 .607.492 1.098 1.098 1.098h5.466c.606 0 1.098-.491 1.098-1.098v-3.277c0-.607-.492-1.098-1.098-1.098h-5.466c-.606 0-1.098.491-1.098 1.098ZM177.612 112.079v3.278c0 .607.492 1.098 1.098 1.098h5.466c.606 0 1.098-.491 1.098-1.098v-3.278c0-.606-.492-1.097-1.098-1.097h-5.466c-.606 0-1.098.491-1.098 1.097Z" fill="#CFC" stroke="#000" stroke-width="2.409" stroke-miterlimit="10"/><path d="M187.621 112.542v2.141c0 .391.317.708.708.708h3.564a.708.708 0 0 0 .708-.708v-2.141a.708.708 0 0 0-.708-.708h-3.564a.708.708 0 0 0-.708.708ZM194.2 112.669v2.141c0 .391.317.708.708.708h3.564a.708.708 0 0 0 .709-.708v-2.141a.708.708 0 0 0-.709-.708h-3.564a.708.708 0 0 0-.708.708Z" fill="#CFC" stroke="#000" stroke-width="2.065" stroke-miterlimit="10"/><path d="M177.612 120.036v3.278c0 .607.492 1.098 1.098 1.098h5.466c.606 0 1.098-.491 1.098-1.098v-3.278c0-.606-.492-1.097-1.098-1.097h-5.466c-.606 0-1.098.491-1.098 1.097ZM177.612 127.992v3.277c0 .607.492 1.098 1.098 1.098h5.466c.606 0 1.098-.491 1.098-1.098v-3.277c0-.607-.492-1.098-1.098-1.098h-5.466c-.606 0-1.098.491-1.098 1.098Z" fill="#CFC" stroke="#000" stroke-width="2.409" stroke-miterlimit="10"/><path d="m84.466 148.774 14.527-1.957a13.214 13.214 0 0 0 10.342-18.338L96.694 99.241a16.206 16.206 0 0 0-16.135-9.737l-21.584 1.694a13.199 13.199 0 0 0-11.758 9.913L37.16 140.818a10.343 10.343 0 0 0 10.86 12.873l13.62-1.838" fill="#CFC"/><path d="m94.395 147.43 4.774 32.785a8.879 8.879 0 0 1-1.957 7.272 21.482 21.482 0 0 1-13.175 6.762 15.114 15.114 0 0 1-15.18-9.3l-13-32.324" fill="#CFC"/><path d="m84.466 148.774 14.527-1.957a13.214 13.214 0 0 0 10.342-18.338L96.694 99.241a16.206 16.206 0 0 0-16.135-9.737l-21.584 1.694a13.199 13.199 0 0 0-11.758 9.913L37.16 140.818a10.343 10.343 0 0 0 10.86 12.873l13.62-1.838" stroke="#000" stroke-width="3.441" stroke-miterlimit="10"/><path d="m94.395 147.43 4.774 32.785a8.879 8.879 0 0 1-1.957 7.272 21.482 21.482 0 0 1-13.175 6.762 15.114 15.114 0 0 1-15.18-9.3l-13-32.324" stroke="#000" stroke-width="3.441" stroke-miterlimit="10"/><path d="m91.054 135.862 3.389-1.4c4.033-1.671 4.05-6.723 3.278-10.868a11.794 11.794 0 0 0-2.292-5.068l-6.81-8.751c-2.585-3.389-7.248-4.941-11.87-3.978-3.874.796-6.476 4.272-5.816 7.725l2.761 14.567c1.36 7.105 9.802 10.907 17.36 7.773ZM72.91 143.187a2.737 2.737 0 0 0-3.48 4.224l5.917 4.878a2.737 2.737 0 0 0 3.482-4.223l-5.918-4.879Z" fill="#000"/><path d="M73.927 145.73a2.737 2.737 0 1 0-5.398-.904l-1.266 7.564a2.736 2.736 0 1 0 5.398.904l1.266-7.564ZM54.337 140.022l5.362.223a8.062 8.062 0 0 0 7.733-4.876c.428-.996.65-2.068.653-3.151l.064-20.797a4.044 4.044 0 0 0-3.82-4.049l-3.516-.199a11.513 11.513 0 0 0-11.496 7.622l-4.153 11.631a10.182 10.182 0 0 0 9.173 13.596Z" fill="#000"/><path d="M81.904 117.668a9.272 9.272 0 0 1 9.731 3.398 9.272 9.272 0 0 1 1.573 3.26l.31 1.201a6.462 6.462 0 0 1-4.636 7.872l-4.106 1.062a5.06 5.06 0 0 1-6.165-3.632l-1.359-5.253a6.49 6.49 0 0 1 4.66-7.91l-.008.002Z" fill="#fff"/><path d="M89.05 130.475a4.79 4.79 0 1 0 0-9.578 4.79 4.79 0 0 0 0 9.578Z" fill="#000"/><path d="M85.716 127.723a.82.82 0 1 0 0-1.64.82.82 0 0 0 0 1.64ZM89.05 127.874a2.188 2.188 0 1 0-.001-4.376 2.188 2.188 0 0 0 0 4.376Z" fill="#fff"/><path d="m74.724 167.715 4.342-.805.848 4.576a.796.796 0 0 1-.638.928l-1.885.349a1.64 1.64 0 0 1-1.91-1.313l-.699-3.77-.058.035ZM84.302 171.185l-1.864.448a.798.798 0 0 1-.96-.588l-1.086-4.526 4.263-1.023.895 3.729a1.64 1.64 0 0 1-1.211 1.976l-.037-.016ZM91.176 168.487l-1.547.371a.68.68 0 0 1-.825-.505l-.904-3.768 3.566-.856.743 3.094a1.361 1.361 0 0 1-1.033 1.664ZM85.119 190.86a2.736 2.736 0 1 0 0-5.473 2.736 2.736 0 0 0 0 5.473Z" fill="#000"/><path d="M24.329 80.307c-5.57 4.224-10.343 26.819-10.343 26.819l8.41-5.999-7.67 18.02 10.66-5.044L2.61 136.379s7.829.247 13.613-3.811C22.006 128.511 5.8 152.641 5.8 152.641l11.933-1.822-7.176 14.662s19.89-7.892 22.953-13.389c9.626-17.232 8.632-57.799 19.937-62.055 8.823-3.35 30.908-3.636 30.908-3.636s-39.031-21.958-60.026-6.094Z" fill="#96BD96" stroke="#000" stroke-width="2.753" stroke-miterlimit="10"/><path d="M56.98 90.259c-11.544-.51-22.93-17.869-15.069-28.06 7.86-10.192 14.265-13.628 14.265-13.628-2.737 3.11-5.338 12.785-2.252 15.187l1.05.796s8.832-11.25 10.12-16.453c.94-3.81-.318 10.343-.318 10.343l13.525-12.165-3.827 8.616 11.83-7.16-1.249 7.646 12.849-5.848-2.427 10.223 15.991-5.656-9.586 7.43s5.354-3.898 14.702.462c9.348 4.36 17.137 18.497 20.072 25.912 4.774 12.069 26.016 35.395 26.016 35.395l-16.158-3.182 5.943 18.529-12.316-9.762 4.423 19.961-13.174-13.755-2.976 19.634-8.003-10.891-2.864 17.009-13.088-40.105-5.887-20.176c-3.779-9.77-6.921-9.904-19.26-10.342 0-.016-15.864.318-22.333.04Z" fill="#96BD96" stroke="#000" stroke-width="2.753" stroke-miterlimit="10"/><path d="m64.274 134.064-.374.437-.358.462-.398.421-.183.16-.318.27-.31.048-.223-.056-.358-.215-.517-.35-.573-.533-.366-.358-.557-.565-.517-.445-.302-.167-.255-.08-.23.072-.374.27-.2.231-.357.366-.923 1.217-.382.39-.199.239-.358.318-.366.056-.422-.191-.548-.462-.653-.604-.398-.382-.612-.438-.39-.382-.143-.207-.27-.366-.08-.358.262-.413.35-.462.334-.437.963-.971.31-.414.128-.159.206-.453-.047-.358-.295-.294-1.71-1.464-.398-.382-.23-.199-.303-.438-.103-.358.238-.382.175-.254.406-.422.382-.342.382-.398.501-.692.43-.398.39-.294.357-.056.382.239.653.557.795.795.907.685.358.214.223.104.286-.072.295-.246.342-.342.302-.406.86-1.114.556-.652.342-.295.279-.119h.239l.278.199.207.127.366.358.58.637.422.358.637.453.604.517.239.295.096.254-.056.271-.215.358-.756.883-.382.398-.557.548-.286.39-.183.207-.16.35-.055.279.088.207.246.294.62.533 1.417 1.082.398.382.183.199.294.342.056.406-.175.477-.382.445-.557.645Zm-10.55-9.237.192.295v-.215l-.08-.12-.111.04Zm-.986 1.361v-.048h-.127v.048l.08.063.047-.063Zm.613-.295v-.095h-.096l-.047.055v.048h.071l.072-.008Zm.334-.286v-.056h-.096v.048h.096v.008Zm-.167.302v.143l.103.088.605-.287-.613-.079-.095.135Zm-.27.581.04-.151h-.08l-.088.103v.143l.127-.095Zm.97-1.289v.096h.095l.088-.104-.127-.064-.056.072Zm.103.398-.135-.112h-.12l.04.215h.176l.04-.103Zm-.517 1.138h.239l-.127-.16-.207-.127v-.119l-.183-.104.143.255h.048l.087.255Zm-.294 0-.08-.072-.143.064.04.119h.072l.11-.111Zm.565-.557v.167h.199v.151l.127-.199-.326-.119Zm.477-.35v.119l.446.064v-.048l-.35-.167-.096.032Zm.23.732.128-.255-.167-.231h-.175l-.064.128.279.358Zm-1.01.493.231.151-.056-.143-.08-.064-.095.056Zm1.345-1.154v.271l.135.254h.12l.08-.254-.168-.223-.167-.048Zm-.86 1.066h-.047v.08l.08.063.095-.055-.127-.088Zm-.047.684-.127-.063.167-.358-.374.127.167.279.167.015Zm1.21-1.949.254.39.063.239-.198.238-.669.144-.04.151.112.183.31-.096v-.119l.112-.08.238.199.263-.047.04-.096-.056-.095-.096.055-.08-.063.208-.454v-.119l.103-.231-.565-.199Zm-.669 1.003h-.103v.127l.071.064.032-.191Zm-.056.533H54.862l.406-.056v-.095h-.676l-.056.175H54.68l.016-.024Zm0 .461-.055-.095v-.12l-.128-.063h-.143l-.239.334.048.048h.438l.08-.104Zm.247-.286v.167l-.12.087v.096h.12l.183-.207v-.199l-.183.056Zm2.92 4.113v-.294l.159-.136-.127-.111-.168.087h-.095l-.04-.214h.072v-.199l-.104-.04-.111.08h-.056l-.103-.088.063-.072v-.071l.247-.287.127.064.048-.056v-.095h-.08l.048-.056-.04-.167h-.119l-.111.135-.072-.071v-.096l.112-.079v-.143l-.136-.112.088-.151-.064.127.263.215.04-.048v-.119l-.104-.088v-.238l.127-.207h.144l.135-.103h.127v.19h-.008v.048h.12l.087.12-.199.549h.064v.079h.12v-.199h-.049l.231-.215h.096l.278.152.04.262h.175v-.072h.095l.056.048.207-.095v-.12l-.907-.413-.072-.287.167-.397-.063-.144h-.167l-.136.112-.262-.494-.223.167-.239-.198h-.047v-.072l.167-.088.08-.198v-.048l-.048-.048.19-.064-.127-.063-.12.087-.158-.183-.263-.27v-.366l-.127-.111.087-.152h-.15l-.112.08h-.048l-.103-.088-.064-.191-.087.152.095.31-.422.183.08.064h.485l.104.087h-.97v.151l-.255.239.159.445.31-.047.151.079-.422.183.04.12-.127.254-.398.247h-.12l-.206-.175v-.128h.12l.063-.079v-.096l-.334.08v-.247l-.167.04-.064.08h-.095v.103l.795.796.064-.08.19-.064-.039.152.183.469.143-.111-.127-.327-.111-.206-.04-.215.238-.334h.223l.088-.152.047.048.223-.215.056-.222-.056-.144h-.12l.144-.373.207-.096.111.191-.055.127H56.7l-.04.056h.796l.056.095-.096.056-.063.127-.088.104V128.081h-.39l-.207.183.136.111.063.191.128.064h.119l.087-.103v-.048h.128l.087-.112-.072-.23.12-.088v-.071l.167.278v.271l-.16.175h-.476l-.088.151.16.183h.118l-.183.063-.238-.198-.143.055-.08.151-.143.064-.056-.095.143-.374-.43.087v-.071h-.095v.071h.104l.087.167v.12l.056.095h.072v.509l.373-.493.366.048-.04.047v.048h-.166l-.223.255.12.238v.072l-.136.111-.04.144h.199l.16-.175h.047l.103.135v.175l-.183.111.12.064.167-.088.087.159-.111.183h-.072l-.151-.039-.135.063-.136-.111-.11.079.055.096.127.064-.064.437h-.167l-.063.175.35-.199v-.222h.071l-.04-.12h-.095l.088-.111.15.04.112-.08-.127.199.048.318.08.064.063-.08v-.167l.048-.056.127.064.063-.079v-.12h.144v.215h-.064l-.103.223-.31.143-.08.159.254-.095.191.199.287-.064.04-.104h.119v.096h.095l-.055-.175Zm-1.918-4.964v.071l.08.064h.048l-.056-.143-.072.008Zm-.66 1.185v.072h.072l.087-.104v-.095h-.072l-.095.055.008.072Zm1.432.056.103.047.096-.055v-.08l-.127-.064-.112.088.04.064Zm2.594-2.554-.064.127v.119l.255-.191-.056-.095-.135.04Zm.294-.191v.071l.08.072h.031l.04-.048-.103-.095h-.048Zm1.233 3.349.048-.055.167-.04.064-.072h-.454l-.23-.421-.048.588-.096.104-.135-.525.12-.295v-.167l-.367-.31-.445.151v.342l-.088.151-.175-.421-.374-.144-.302-.389.072-.08v-.064l.063-.127.263-.048v.12l.103.095.12-.04-.072-.334.263-.04v-.167l-.08-.071v-.096l-.127-.063-.064.127-.088.056-.302.199-.095.318-.231.167.08.064.063.19-.127-.063-.47.183.112.135.668-.095.255.175.071.278.183.111-.047.048.214.231.223.056.135-.064v-.119l.398.159.064.191-.183.159-.104-.088v-.095l-.095-.048-.048.684.215.183.04-.055h.048l.294-.295h.199l.302-.143.08.064h.047v-.152l-.08-.111-.047-.032Zm-5.466 2.292.327.198h.04l.318.358H56.206l-.325-.676v-.151l-.175-.103-.16.183.104.039.087-.055-.183.111-.047.048v-.048h-.12l-.08-.072v-.071H55.166l-.072.35h.127l.151-.111Zm5.068-6.19v.048l.056.039h.072v-.047l-.128-.04Zm-1.066 1.249v.477l.08.072.302-.199v-.119l-.366-.263-.016.032Zm.533-.31-.302.143-.04.199.151-.088.16.136h.198l-.167-.39Zm-1.63 2.068-.128-.063-.23.159v.071l.095.04.207-.135.055-.072Zm2.577-3.238v.072h.12l.11-.135.104.047.112-.039-.279-.144-.167.199Zm-4.734 5.76.167-.04-.08-.111-.103-.04.016.191Zm4.503-5.06-.111-.071h-.143v.047l.127.16.127-.136Zm-5.871 6.818.151-.23H54.735l-.111.079v.12l.127.031Zm6.166-7.009.047-.055-.127-.112h-.151l.064.144.175.063-.008-.04Zm-.653.342-.063.072v.096l.175-.207-.112.039Zm-4.932 6.039v-.223l-.27.263.055.095h.095l.12-.135Zm-1.894 2.156v-.111h-.087v.103l.08.064.007-.056Zm6.77-7.956-.15.223.23-.159-.08-.064Zm-4.168 5.251.278-.167.08-.207-.151-.08-.183.16-.024.294Zm3.81-3.938-.055-.096h-.12l-.047-.039h-.056v-.12h-.12v.128l.375.183.024-.056Zm-1.272 1.066h-.12l-.063.079h-.104l-.087.056-.08.247.104.04.087-.104.374.191-.056-.453h.072v-.096h-.08l-.047.04Zm-4.432 5.195v-.119l-.19.063-.04.096v.071h.103l.127-.111Zm3.047-3.787.112.191-.088.056h-.222l.198-.247Zm3.525-3.978v.048l-.23.119v.287l.508-.549-.278.095Zm-6.023 7.001.183.151h.096l.207.183.85-.843v-.247l-.548.701h-.151l-.128-.112.064-.127-.207-.127-.366.421Zm.867-.97v.071h.12v-.071l-.104-.088-.016.088Zm4.583-5.259h.048l.087-.104v-.047h-.08l-.087.103.032.048Zm-.08.247-.15-.08-.064.08v.095h.071l.056.095-.072.295.088.215h.048l.023-.7Zm-.517.795v-.071h-.071l-.096.055v.048l.104.087h.047l.016-.119Zm-5.76 6.667h.12l.159-.183h-.048l-.048.056-.167.04-.016.087Zm3.82-4.519-.088.151.087-.151Zm3.73-4.328v.08l.048.04h.096v-.096h-.048l-.096-.024Zm.27-.262h.224l.111-.08v-.048l-.056-.047-.278.175Zm-6.03 7.16.096.048v-.048l-.08-.119-.047.055.031.064Zm6.46-7.614v.128h.064v-.128h-.063Zm-8.226 9.929v-.072h-.055l-.112.08.072.064h.095v-.072Zm7.55-8.887h-.143l-.087.104.294.66.063-.66-.127-.104Zm-6.42 7.622v-.072h-.103v.048l.103.024Zm3.031-3.389-.19.111.166.231.088-.103v-.629l-.183.159.12.231Zm2.466-3.111-.111.088.127.063.112-.087-.128-.064Zm.581-.358h-.239l.175.112.215-.358h-.167l.016.246Zm0 1.48h-.095l-.255-.175v-.263l-.167-.183v-.294l-.31.096.047.31h.144l.087.111-.207.239.048.262.127.064.064-.08-.056-.095.072-.08h.095l.382.231.112-.079.254.127.207-.501-.549.31Zm-6.213 5.8.19-.064.04-.103-.15-.08h-.072l-.064.127.056.12Zm6.818-8.036v.096h.047v-.048l-.047-.048Zm-2.443 4.121.2.088.135.159h.198l.112-.087.063.191h.048v-.096l-.08-.111-.222-.056-.056-.095h-.095l-.255-.072-.103-.135v-.295l-.207-.175-.064.128-.056-.048h-.047v.119h-.096v.295l.175.055.112-.079v-.072l.063-.079.223.373h-.199l.143.207.088-.055-.08-.16Zm-4.487 4.312v-.047h-.08l-.063.079v.048l.143-.08Zm6.524-7.43-.127-.064-.366.326.254.12.231-.159v-.048l.008-.175Zm-4.956 5.919-.167-.183-.31.31.103.048.198-.191.176.016Zm.453-.064-.072-.286h-.318l.342.342.048-.056Zm1.297-1.997v-.167h-.048l-.056.128.104.039Zm3.572-4.28v.143h.072l.143-.103v-.064h-.12l-.095.024Zm-3.978 4.774h.199l.167.278h.072l.047-.056.08.112h.072l.119.278.318.048-.684-.724.16-.08.373-.175-.056.223.319-.262v-.048l.167-.088-.796-.111-.151-.135.04.215-.048.055v.12l-.398.35Zm-2.251 2.577.103.04.207-.135v-.191l-.127.199h-.096l-.087.087Zm3.977-4.558.056.095.056.04.111-.127-.055-.088h-.128l-.04.08Zm2.172-2.276-.127-.063h-.048l-.04.055v.358h.048l.167-.35Zm-7.025 8.211v-.08h-.119v.08h.12Zm6.906-7.558v-.144l-.19-.039-.359.151.064.143.246.08.24-.191Zm-2.991 2.975h.119l.064-.079-.08-.064-.111.079.008.064Zm-2.037 2.538v-.048h-.12l-.063.072.096.04.087-.064Zm5.64-6.603-.04.103.104.088.048-.056v-.167l-.111.032Zm-1.948 2.339v-.048.048Zm.612-.509h-.072l-.11.135.166-.04.016-.095Zm-4.51 5.226-.112.08.103.096h.2l.174-.16-.334.072-.032-.088Zm-.717 1.369v-.143l-.087-.12h-.144l-.063.128.08.063h.095l.12.072Zm1.719-2.172-.104-.088h-.095l-.064.072.263.016Zm-.478.35-.12.08v.103h.049l.063-.072.008-.111Zm2.355-1.496.151-.23-.405-.255v.191h.214l.04.294Zm-3.747 4.129v-.071l-.056-.096v-.071.246l.056-.008Zm4.256-5.044h-.071l-.096.056v.072l.056.143h.485v-.048l-.374-.223Zm.08.971.143-.326-.223-.326h-.19l-.088.151.286.246.072.255Zm-.987.732-.063-.143-.128-.112-.11.08.301.175Zm.191.613-.103-.136.175-.207v-.198l-.47.135v.095l.112.088.064.191.222.032Zm.231-.796-.103-.088-.12.08.136.111h.095l-.008-.103Zm1.034-1.368.12.652.167-.04.135-.286-.223-.271-.199-.055Zm.86 1.368v-.151l-.056-.088h-.215l.27-.58-.063-.144.175-.302-.605-.294.064.238.127.112.16.445-.796.525-.295-.008.112.406.382-.079-.04-.168.183-.111.247.294.35-.095Zm-1.353-.207v-.119h-.095l-.04.143.08.119.055-.143Zm.597.509v-.095l-.191-.04-.191.119-.47-.087-.063.079.064.183h.095l.183-.167.103.096.47-.088Zm-.724.637-.072-.287-.151-.079h-.143l-.04.151-.135.151-.12.04-.04.095.08.072.581-.048.04-.095Zm.517-.183v-.247h-.048l-.12.08V132.329l-.134.064v.143h.119l.064-.127h.047l.072-.135Zm1.257-1.003-.04-.167-.095-.04v.152l.135.055Zm-1.003 1.178v.071l.056.096h.072l.111-.135v-.064h-.103l-.136.032Zm.327.986.04-.095-.112-.135.239-.438-.533.048-.056-.096h-.096l-.04.104.12.063.04.112.103.095-.087.151.08.112.302.079Zm.549-1.909v.072h.214l.072-.08-.183-.103-.103.111Zm0 1.702V133.085l-.096-.047-.143.111v.071l.103.04.136-.032Zm1.018-.254-.16-.183-.19.064-.557.604v.143l.072.072.533-.676.15.04.152-.064Zm.43-.446v-.119l-.16-.135h-.119v.127l.088.111h.095l.095.016Zm-.191 1.329-.167-.279v-.294l-.191.334.294.295.064-.056Zm-.621.414v-.048l-.056-.048-.111.08v.071h.08l.087-.055Zm1.138-.963h.071v-.048h-.071l-.096.056.096-.008Zm-.852 1.52-.055-.144-.175-.055.159.23h.048l.023-.031Zm1.592-2.069v.103l.063.144h.064v-.175l-.056-.04-.071-.032Zm-1.027 1.695.064-.128v-.071h-.048l-.056.127v.072h.04Z" fill="red"/><path d="m93.29 139.648 4.263-1.759c5.076-2.108 5.1-8.473 4.122-13.692a14.858 14.858 0 0 0-2.88-6.364l-8.577-11.067c-3.254-4.256-9.125-6.213-14.94-4.98" stroke="#39B54A" stroke-width="3.441" stroke-miterlimit="10" stroke-dasharray="1.38 1.38"/><path d="M44.066 137.914c.104.151.207.302.319.446" stroke="red" stroke-width="3.441" stroke-miterlimit="10"/><path d="M45.093 139.227a12.156 12.156 0 0 0 8.648 4.081l5.346.223" stroke="red" stroke-width="3.441" stroke-miterlimit="10" stroke-dasharray="1.41 1.41"/><path d="m59.651 143.562.541.016" stroke="red" stroke-width="3.441" stroke-miterlimit="10"/><path d="m95.508 163.523-27.105 4.495-1.106-.079-1.432-4.28" stroke="#000" stroke-width="3.441" stroke-miterlimit="10"/><g filter="url(#c)"><path d="M24.329 80.307c-5.57 4.224-10.343 26.819-10.343 26.819l8.41-5.999-7.67 18.02 10.66-5.044L2.61 136.379s7.829.247 13.613-3.811C22.006 128.511 5.8 152.641 5.8 152.641l11.933-1.822-7.176 14.662s19.89-7.892 22.953-13.389c9.626-17.232 8.632-57.799 19.937-62.055 8.823-3.35 30.908-3.636 30.908-3.636s-39.031-21.958-60.026-6.094Z" fill="#00E59D"/></g><g filter="url(#d)"><path d="M56.98 90.26C45.435 89.753 34.05 72.393 41.91 62.2c7.86-10.19 14.265-13.628 14.265-13.628-2.737 3.111-5.338 12.785-2.252 15.188l1.05.796s8.832-11.25 10.12-16.453c.94-3.81-.318 10.343-.318 10.343L78.301 46.28l-3.827 8.616 11.83-7.16-1.249 7.646 12.849-5.848-2.427 10.223 15.991-5.656-9.586 7.43s5.354-3.898 14.702.462c9.348 4.36 17.137 18.497 20.072 25.912 4.774 12.069 26.016 35.395 26.016 35.395l-16.158-3.182 5.943 18.529-12.316-9.762 4.423 19.961-13.174-13.756-2.976 19.635-8.003-10.891-2.864 17.009-13.088-40.105-5.887-20.176c-3.779-9.77-6.921-9.904-19.26-10.342 0-.016-15.864.318-22.333.04Z" fill="#00E59D"/></g></g><path d="M276.75 123.35c0 2.625 2.025 4.65 4.65 4.65h28.35c2.325 0 4.2-1.875 4.2-4.2s-1.875-4.2-4.2-4.2h-23.775V79.7a4.546 4.546 0 0 0-4.575-4.575c-2.625 0-4.65 2.025-4.65 4.575v43.65Zm76.811-30.825c0-2.55-2.1-4.575-4.575-4.575a4.546 4.546 0 0 0-4.575 4.575v18.225c0 6.15-3.675 9.75-8.925 9.75-5.4 0-8.475-3.45-8.475-9.6V92.525a4.546 4.546 0 0 0-4.575-4.575c-2.475 0-4.5 2.025-4.5 4.575V113.6c0 9.225 5.175 15.225 14.1 15.225 6.15 0 9.825-3.225 12.375-6.975v2.025c0 2.55 2.1 4.5 4.575 4.5 2.55 0 4.575-2.025 4.575-4.5v-31.35Zm46.508-15.15c0-2.55-2.025-4.5-4.575-4.5-2.475 0-4.5 1.95-4.5 4.5V94.55c-2.85-3.75-6.975-6.975-13.5-6.975-9.45 0-18.375 7.425-18.375 20.55v.15c0 13.125 9.075 20.55 18.375 20.55 6.45 0 10.575-3.3 13.5-7.425v2.475c0 2.55 2.025 4.5 4.575 4.5 2.475 0 4.5-1.95 4.5-4.5v-46.5Zm-20.4 18.075c6.075 0 11.475 5.025 11.475 12.675v.15c0 7.575-5.4 12.675-11.475 12.675-6.15 0-11.4-5.025-11.4-12.675v-.15c0-7.875 5.175-12.675 11.4-12.675Zm41.318 33.225h.3c2.175 0 4.05-1.275 4.875-3.9l7.8-23.55 7.725 23.55c.825 2.625 2.7 3.9 4.95 3.9h.3c2.175 0 4.05-1.275 5.025-4.05l10.8-30.45c.15-.45.375-1.35.375-2.025 0-2.25-1.8-4.2-4.275-4.2-2.4 0-3.825 1.575-4.425 3.525l-7.725 24.075-7.8-24c-.675-2.1-2.325-3.6-4.65-3.6h-.525c-2.325 0-3.975 1.5-4.65 3.6l-7.725 24-7.65-24c-.675-2.1-2.175-3.6-4.425-3.6-2.7 0-4.425 2.025-4.425 4.2 0 .75.225 1.725.45 2.325l10.65 30.15c.9 2.775 2.775 4.05 5.025 4.05ZM467.752 78.2c0 2.7 2.25 4.5 5.175 4.5s5.175-1.8 5.175-4.5v-.45c0-2.7-2.25-4.425-5.175-4.425s-5.175 1.725-5.175 4.425v.45Zm.675 45.675c0 2.55 2.025 4.5 4.5 4.5 2.55 0 4.575-1.95 4.575-4.5v-31.35a4.546 4.546 0 0 0-4.575-4.575c-2.55 0-4.5 2.025-4.5 4.575v31.35Zm34.81 16.275c7.125 0 12.675-1.725 16.275-5.325 3.3-3.3 5.025-8.25 5.025-14.925V92.525a4.546 4.546 0 0 0-4.575-4.575 4.513 4.513 0 0 0-4.5 4.5v1.875c-3.075-3.675-7.2-6.75-13.875-6.75-9.225 0-18 6.9-18 18.6v.15c0 11.625 8.7 18.525 18 18.525 6.525 0 10.65-3 13.95-7.275v3.075c0 7.95-4.425 12.15-12.525 12.15-4.575 0-8.55-1.125-12.15-3.15a3.575 3.575 0 0 0-1.65-.375c-2.1 0-3.825 1.725-3.825 3.75 0 1.725.975 3 2.55 3.6 4.8 2.325 9.75 3.525 15.3 3.525Zm.75-23.025c-6.225 0-11.25-4.425-11.25-10.875v-.15c0-6.525 4.95-10.875 11.25-10.875s11.625 4.425 11.625 10.875v.15c0 6.45-5.325 10.875-11.625 10.875Zm60.503 11.625c8.25 0 14.7-4.125 14.7-12.45v-.15c0-7.125-6.525-9.75-12.3-11.55-4.65-1.5-8.925-2.7-8.925-5.625v-.15c0-2.25 2.025-3.9 5.55-3.9 2.775 0 6.075 1.05 9.3 2.7.6.3 1.05.45 1.8.45 2.1 0 3.75-1.575 3.75-3.675 0-1.575-.9-2.775-2.175-3.45-3.825-2.025-8.25-3.225-12.45-3.225-7.875 0-14.1 4.575-14.1 12.075v.15c0 7.575 6.525 9.975 12.375 11.625 4.65 1.425 8.85 2.475 8.85 5.55v.15c0 2.625-2.25 4.275-6.15 4.275-3.6 0-7.575-1.275-11.4-3.825a3.96 3.96 0 0 0-1.95-.525c-2.1 0-3.675 1.65-3.675 3.675 0 1.5.75 2.625 1.725 3.15 4.575 3.15 10.05 4.725 15.075 4.725Zm31.648.075c6.075 0 10.2-2.55 12.9-5.775v1.5c0 2.025 1.8 3.825 4.425 3.825 2.475 0 4.425-1.875 4.425-4.35v-19.5c0-5.175-1.35-9.375-4.275-12.225-2.775-2.85-7.2-4.425-13.125-4.425-5.175 0-9 .9-12.75 2.325-1.35.525-2.475 1.95-2.475 3.6 0 2.1 1.725 3.75 3.825 3.75.45 0 .9-.075 1.425-.225 2.475-.975 5.325-1.575 8.775-1.575 6.375 0 9.825 3 9.825 8.625v.975c-3.075-.975-6.225-1.65-10.65-1.65-9.675 0-16.35 4.2-16.35 12.75v.15c0 7.95 6.6 12.225 14.025 12.225Zm2.55-6.6c-4.35 0-7.725-2.175-7.725-6v-.15c0-4.125 3.45-6.6 9.3-6.6 3.6 0 6.675.675 9 1.575v2.7c0 5.025-4.575 8.475-10.575 8.475Zm32.566 18c6.375 0 9.975-3 13.35-11.1L659.079 94.4c.15-.45.375-1.425.375-2.175 0-2.4-1.95-4.275-4.35-4.275-2.325 0-3.6 1.575-4.35 3.45l-9.9 26.325-10.65-26.325c-.825-2.1-2.1-3.45-4.425-3.45-2.55 0-4.5 1.875-4.5 4.425 0 .6.225 1.5.525 2.175l14.7 32.85-.3.825c-1.5 3.075-2.925 4.2-5.625 4.2-1.275 0-2.1-.225-3.15-.525-.45-.15-.9-.3-1.65-.3-1.95 0-3.675 1.5-3.675 3.75 0 2.175 1.5 3.3 2.85 3.75 1.875.75 3.75 1.125 6.3 1.125Zm45.692-11.475c8.25 0 14.7-4.125 14.7-12.45v-.15c0-7.125-6.525-9.75-12.3-11.55-4.65-1.5-8.925-2.7-8.925-5.625v-.15c0-2.25 2.025-3.9 5.55-3.9 2.775 0 6.075 1.05 9.3 2.7.6.3 1.05.45 1.8.45 2.1 0 3.75-1.575 3.75-3.675 0-1.575-.9-2.775-2.175-3.45-3.825-2.025-8.25-3.225-12.45-3.225-7.875 0-14.1 4.575-14.1 12.075v.15c0 7.575 6.525 9.975 12.375 11.625 4.65 1.425 8.85 2.475 8.85 5.55v.15c0 2.625-2.25 4.275-6.15 4.275-3.6 0-7.575-1.275-11.4-3.825a3.96 3.96 0 0 0-1.95-.525c-2.1 0-3.675 1.65-3.675 3.675 0 1.5.75 2.625 1.725 3.15 4.575 3.15 10.05 4.725 15.075 4.725Zm19.348-6.3v.75c0 2.925 2.25 5.175 5.325 5.175 3 0 5.25-2.25 5.25-5.175v-.75c0-2.925-2.25-5.175-5.25-5.175-3.075 0-5.325 2.25-5.325 5.175Zm16.392 0v.75c0 2.925 2.25 5.175 5.325 5.175 3 0 5.25-2.25 5.25-5.175v-.75c0-2.925-2.25-5.175-5.25-5.175-3.075 0-5.325 2.25-5.325 5.175Zm16.391 0v.75c0 2.925 2.25 5.175 5.325 5.175 3 0 5.25-2.25 5.25-5.175v-.75c0-2.925-2.25-5.175-5.25-5.175-3.075 0-5.325 2.25-5.325 5.175Z" fill="#000"/><path d="M276.75 118.35c0 2.625 2.025 4.65 4.65 4.65h28.35c2.325 0 4.2-1.875 4.2-4.2s-1.875-4.2-4.2-4.2h-23.775V74.7a4.546 4.546 0 0 0-4.575-4.575c-2.625 0-4.65 2.025-4.65 4.575v43.65Zm76.811-30.825c0-2.55-2.1-4.575-4.575-4.575a4.546 4.546 0 0 0-4.575 4.575v18.225c0 6.15-3.675 9.75-8.925 9.75-5.4 0-8.475-3.45-8.475-9.6V87.525a4.546 4.546 0 0 0-4.575-4.575c-2.475 0-4.5 2.025-4.5 4.575V108.6c0 9.225 5.175 15.225 14.1 15.225 6.15 0 9.825-3.225 12.375-6.975v2.025c0 2.55 2.1 4.5 4.575 4.5 2.55 0 4.575-2.025 4.575-4.5v-31.35Zm46.508-15.15c0-2.55-2.025-4.5-4.575-4.5-2.475 0-4.5 1.95-4.5 4.5V89.55c-2.85-3.75-6.975-6.975-13.5-6.975-9.45 0-18.375 7.425-18.375 20.55v.15c0 13.125 9.075 20.55 18.375 20.55 6.45 0 10.575-3.3 13.5-7.425v2.475c0 2.55 2.025 4.5 4.575 4.5 2.475 0 4.5-1.95 4.5-4.5v-46.5Zm-20.4 18.075c6.075 0 11.475 5.025 11.475 12.675v.15c0 7.575-5.4 12.675-11.475 12.675-6.15 0-11.4-5.025-11.4-12.675v-.15c0-7.875 5.175-12.675 11.4-12.675Zm41.318 33.225h.3c2.175 0 4.05-1.275 4.875-3.9l7.8-23.55 7.725 23.55c.825 2.625 2.7 3.9 4.95 3.9h.3c2.175 0 4.05-1.275 5.025-4.05l10.8-30.45c.15-.45.375-1.35.375-2.025 0-2.25-1.8-4.2-4.275-4.2-2.4 0-3.825 1.575-4.425 3.525l-7.725 24.075-7.8-24c-.675-2.1-2.325-3.6-4.65-3.6h-.525c-2.325 0-3.975 1.5-4.65 3.6l-7.725 24-7.65-24c-.675-2.1-2.175-3.6-4.425-3.6-2.7 0-4.425 2.025-4.425 4.2 0 .75.225 1.725.45 2.325l10.65 30.15c.9 2.775 2.775 4.05 5.025 4.05ZM467.752 73.2c0 2.7 2.25 4.5 5.175 4.5s5.175-1.8 5.175-4.5v-.45c0-2.7-2.25-4.425-5.175-4.425s-5.175 1.725-5.175 4.425v.45Zm.675 45.675c0 2.55 2.025 4.5 4.5 4.5 2.55 0 4.575-1.95 4.575-4.5v-31.35a4.546 4.546 0 0 0-4.575-4.575c-2.55 0-4.5 2.025-4.5 4.575v31.35Zm34.81 16.275c7.125 0 12.675-1.725 16.275-5.325 3.3-3.3 5.025-8.25 5.025-14.925V87.525a4.546 4.546 0 0 0-4.575-4.575 4.513 4.513 0 0 0-4.5 4.5v1.875c-3.075-3.675-7.2-6.75-13.875-6.75-9.225 0-18 6.9-18 18.6v.15c0 11.625 8.7 18.525 18 18.525 6.525 0 10.65-3 13.95-7.275v3.075c0 7.95-4.425 12.15-12.525 12.15-4.575 0-8.55-1.125-12.15-3.15a3.575 3.575 0 0 0-1.65-.375c-2.1 0-3.825 1.725-3.825 3.75 0 1.725.975 3 2.55 3.6 4.8 2.325 9.75 3.525 15.3 3.525Zm.75-23.025c-6.225 0-11.25-4.425-11.25-10.875v-.15c0-6.525 4.95-10.875 11.25-10.875s11.625 4.425 11.625 10.875v.15c0 6.45-5.325 10.875-11.625 10.875Zm60.503 11.625c8.25 0 14.7-4.125 14.7-12.45v-.15c0-7.125-6.525-9.75-12.3-11.55-4.65-1.5-8.925-2.7-8.925-5.625v-.15c0-2.25 2.025-3.9 5.55-3.9 2.775 0 6.075 1.05 9.3 2.7.6.3 1.05.45 1.8.45 2.1 0 3.75-1.575 3.75-3.675 0-1.575-.9-2.775-2.175-3.45-3.825-2.025-8.25-3.225-12.45-3.225-7.875 0-14.1 4.575-14.1 12.075v.15c0 7.575 6.525 9.975 12.375 11.625 4.65 1.425 8.85 2.475 8.85 5.55v.15c0 2.625-2.25 4.275-6.15 4.275-3.6 0-7.575-1.275-11.4-3.825a3.96 3.96 0 0 0-1.95-.525c-2.1 0-3.675 1.65-3.675 3.675 0 1.5.75 2.625 1.725 3.15 4.575 3.15 10.05 4.725 15.075 4.725Zm31.648.075c6.075 0 10.2-2.55 12.9-5.775v1.5c0 2.025 1.8 3.825 4.425 3.825 2.475 0 4.425-1.875 4.425-4.35v-19.5c0-5.175-1.35-9.375-4.275-12.225-2.775-2.85-7.2-4.425-13.125-4.425-5.175 0-9 .9-12.75 2.325-1.35.525-2.475 1.95-2.475 3.6 0 2.1 1.725 3.75 3.825 3.75.45 0 .9-.075 1.425-.225 2.475-.975 5.325-1.575 8.775-1.575 6.375 0 9.825 3 9.825 8.625v.975c-3.075-.975-6.225-1.65-10.65-1.65-9.675 0-16.35 4.2-16.35 12.75v.15c0 7.95 6.6 12.225 14.025 12.225Zm2.55-6.6c-4.35 0-7.725-2.175-7.725-6v-.15c0-4.125 3.45-6.6 9.3-6.6 3.6 0 6.675.675 9 1.575v2.7c0 5.025-4.575 8.475-10.575 8.475Zm32.566 18c6.375 0 9.975-3 13.35-11.1L659.079 89.4c.15-.45.375-1.425.375-2.175 0-2.4-1.95-4.275-4.35-4.275-2.325 0-3.6 1.575-4.35 3.45l-9.9 26.325-10.65-26.325c-.825-2.1-2.1-3.45-4.425-3.45-2.55 0-4.5 1.875-4.5 4.425 0 .6.225 1.5.525 2.175l14.7 32.85-.3.825c-1.5 3.075-2.925 4.2-5.625 4.2-1.275 0-2.1-.225-3.15-.525-.45-.15-.9-.3-1.65-.3-1.95 0-3.675 1.5-3.675 3.75 0 2.175 1.5 3.3 2.85 3.75 1.875.75 3.75 1.125 6.3 1.125Zm45.692-11.475c8.25 0 14.7-4.125 14.7-12.45v-.15c0-7.125-6.525-9.75-12.3-11.55-4.65-1.5-8.925-2.7-8.925-5.625v-.15c0-2.25 2.025-3.9 5.55-3.9 2.775 0 6.075 1.05 9.3 2.7.6.3 1.05.45 1.8.45 2.1 0 3.75-1.575 3.75-3.675 0-1.575-.9-2.775-2.175-3.45-3.825-2.025-8.25-3.225-12.45-3.225-7.875 0-14.1 4.575-14.1 12.075v.15c0 7.575 6.525 9.975 12.375 11.625 4.65 1.425 8.85 2.475 8.85 5.55v.15c0 2.625-2.25 4.275-6.15 4.275-3.6 0-7.575-1.275-11.4-3.825a3.96 3.96 0 0 0-1.95-.525c-2.1 0-3.675 1.65-3.675 3.675 0 1.5.75 2.625 1.725 3.15 4.575 3.15 10.05 4.725 15.075 4.725Zm19.348-6.3v.75c0 2.925 2.25 5.175 5.325 5.175 3 0 5.25-2.25 5.25-5.175v-.75c0-2.925-2.25-5.175-5.25-5.175-3.075 0-5.325 2.25-5.325 5.175Zm16.392 0v.75c0 2.925 2.25 5.175 5.325 5.175 3 0 5.25-2.25 5.25-5.175v-.75c0-2.925-2.25-5.175-5.25-5.175-3.075 0-5.325 2.25-5.325 5.175Zm16.391 0v.75c0 2.925 2.25 5.175 5.325 5.175 3 0 5.25-2.25 5.25-5.175v-.75c0-2.925-2.25-5.175-5.25-5.175-3.075 0-5.325 2.25-5.325 5.175Z" fill="red"/><g filter="url(#e)"><path d="M276.75 118.35c0 2.625 2.025 4.65 4.65 4.65h28.35c2.325 0 4.2-1.875 4.2-4.2s-1.875-4.2-4.2-4.2h-23.775V74.7a4.546 4.546 0 0 0-4.575-4.575c-2.625 0-4.65 2.025-4.65 4.575v43.65Zm76.811-30.825c0-2.55-2.1-4.575-4.575-4.575a4.546 4.546 0 0 0-4.575 4.575v18.225c0 6.15-3.675 9.75-8.925 9.75-5.4 0-8.475-3.45-8.475-9.6V87.525a4.546 4.546 0 0 0-4.575-4.575c-2.475 0-4.5 2.025-4.5 4.575V108.6c0 9.225 5.175 15.225 14.1 15.225 6.15 0 9.825-3.225 12.375-6.975v2.025c0 2.55 2.1 4.5 4.575 4.5 2.55 0 4.575-2.025 4.575-4.5v-31.35Zm46.508-15.15c0-2.55-2.025-4.5-4.575-4.5-2.475 0-4.5 1.95-4.5 4.5V89.55c-2.85-3.75-6.975-6.975-13.5-6.975-9.45 0-18.375 7.425-18.375 20.55v.15c0 13.125 9.075 20.55 18.375 20.55 6.45 0 10.575-3.3 13.5-7.425v2.475c0 2.55 2.025 4.5 4.575 4.5 2.475 0 4.5-1.95 4.5-4.5v-46.5Zm-20.4 18.075c6.075 0 11.475 5.025 11.475 12.675v.15c0 7.575-5.4 12.675-11.475 12.675-6.15 0-11.4-5.025-11.4-12.675v-.15c0-7.875 5.175-12.675 11.4-12.675Zm41.318 33.225h.3c2.175 0 4.05-1.275 4.875-3.9l7.8-23.55 7.725 23.55c.825 2.625 2.7 3.9 4.95 3.9h.3c2.175 0 4.05-1.275 5.025-4.05l10.8-30.45c.15-.45.375-1.35.375-2.025 0-2.25-1.8-4.2-4.275-4.2-2.4 0-3.825 1.575-4.425 3.525l-7.725 24.075-7.8-24c-.675-2.1-2.325-3.6-4.65-3.6h-.525c-2.325 0-3.975 1.5-4.65 3.6l-7.725 24-7.65-24c-.675-2.1-2.175-3.6-4.425-3.6-2.7 0-4.425 2.025-4.425 4.2 0 .75.225 1.725.45 2.325l10.65 30.15c.9 2.775 2.775 4.05 5.025 4.05ZM467.752 73.2c0 2.7 2.25 4.5 5.175 4.5s5.175-1.8 5.175-4.5v-.45c0-2.7-2.25-4.425-5.175-4.425s-5.175 1.725-5.175 4.425v.45Zm.675 45.675c0 2.55 2.025 4.5 4.5 4.5 2.55 0 4.575-1.95 4.575-4.5v-31.35a4.546 4.546 0 0 0-4.575-4.575c-2.55 0-4.5 2.025-4.5 4.575v31.35Zm34.81 16.275c7.125 0 12.675-1.725 16.275-5.325 3.3-3.3 5.025-8.25 5.025-14.925V87.525a4.546 4.546 0 0 0-4.575-4.575 4.513 4.513 0 0 0-4.5 4.5v1.875c-3.075-3.675-7.2-6.75-13.875-6.75-9.225 0-18 6.9-18 18.6v.15c0 11.625 8.7 18.525 18 18.525 6.525 0 10.65-3 13.95-7.275v3.075c0 7.95-4.425 12.15-12.525 12.15-4.575 0-8.55-1.125-12.15-3.15a3.575 3.575 0 0 0-1.65-.375c-2.1 0-3.825 1.725-3.825 3.75 0 1.725.975 3 2.55 3.6 4.8 2.325 9.75 3.525 15.3 3.525Zm.75-23.025c-6.225 0-11.25-4.425-11.25-10.875v-.15c0-6.525 4.95-10.875 11.25-10.875s11.625 4.425 11.625 10.875v.15c0 6.45-5.325 10.875-11.625 10.875Zm60.503 11.625c8.25 0 14.7-4.125 14.7-12.45v-.15c0-7.125-6.525-9.75-12.3-11.55-4.65-1.5-8.925-2.7-8.925-5.625v-.15c0-2.25 2.025-3.9 5.55-3.9 2.775 0 6.075 1.05 9.3 2.7.6.3 1.05.45 1.8.45 2.1 0 3.75-1.575 3.75-3.675 0-1.575-.9-2.775-2.175-3.45-3.825-2.025-8.25-3.225-12.45-3.225-7.875 0-14.1 4.575-14.1 12.075v.15c0 7.575 6.525 9.975 12.375 11.625 4.65 1.425 8.85 2.475 8.85 5.55v.15c0 2.625-2.25 4.275-6.15 4.275-3.6 0-7.575-1.275-11.4-3.825a3.96 3.96 0 0 0-1.95-.525c-2.1 0-3.675 1.65-3.675 3.675 0 1.5.75 2.625 1.725 3.15 4.575 3.15 10.05 4.725 15.075 4.725Zm31.648.075c6.075 0 10.2-2.55 12.9-5.775v1.5c0 2.025 1.8 3.825 4.425 3.825 2.475 0 4.425-1.875 4.425-4.35v-19.5c0-5.175-1.35-9.375-4.275-12.225-2.775-2.85-7.2-4.425-13.125-4.425-5.175 0-9 .9-12.75 2.325-1.35.525-2.475 1.95-2.475 3.6 0 2.1 1.725 3.75 3.825 3.75.45 0 .9-.075 1.425-.225 2.475-.975 5.325-1.575 8.775-1.575 6.375 0 9.825 3 9.825 8.625v.975c-3.075-.975-6.225-1.65-10.65-1.65-9.675 0-16.35 4.2-16.35 12.75v.15c0 7.95 6.6 12.225 14.025 12.225Zm2.55-6.6c-4.35 0-7.725-2.175-7.725-6v-.15c0-4.125 3.45-6.6 9.3-6.6 3.6 0 6.675.675 9 1.575v2.7c0 5.025-4.575 8.475-10.575 8.475Zm32.566 18c6.375 0 9.975-3 13.35-11.1L659.079 89.4c.15-.45.375-1.425.375-2.175 0-2.4-1.95-4.275-4.35-4.275-2.325 0-3.6 1.575-4.35 3.45l-9.9 26.325-10.65-26.325c-.825-2.1-2.1-3.45-4.425-3.45-2.55 0-4.5 1.875-4.5 4.425 0 .6.225 1.5.525 2.175l14.7 32.85-.3.825c-1.5 3.075-2.925 4.2-5.625 4.2-1.275 0-2.1-.225-3.15-.525-.45-.15-.9-.3-1.65-.3-1.95 0-3.675 1.5-3.675 3.75 0 2.175 1.5 3.3 2.85 3.75 1.875.75 3.75 1.125 6.3 1.125Zm45.692-11.475c8.25 0 14.7-4.125 14.7-12.45v-.15c0-7.125-6.525-9.75-12.3-11.55-4.65-1.5-8.925-2.7-8.925-5.625v-.15c0-2.25 2.025-3.9 5.55-3.9 2.775 0 6.075 1.05 9.3 2.7.6.3 1.05.45 1.8.45 2.1 0 3.75-1.575 3.75-3.675 0-1.575-.9-2.775-2.175-3.45-3.825-2.025-8.25-3.225-12.45-3.225-7.875 0-14.1 4.575-14.1 12.075v.15c0 7.575 6.525 9.975 12.375 11.625 4.65 1.425 8.85 2.475 8.85 5.55v.15c0 2.625-2.25 4.275-6.15 4.275-3.6 0-7.575-1.275-11.4-3.825a3.96 3.96 0 0 0-1.95-.525c-2.1 0-3.675 1.65-3.675 3.675 0 1.5.75 2.625 1.725 3.15 4.575 3.15 10.05 4.725 15.075 4.725Zm19.348-6.3v.75c0 2.925 2.25 5.175 5.325 5.175 3 0 5.25-2.25 5.25-5.175v-.75c0-2.925-2.25-5.175-5.25-5.175-3.075 0-5.325 2.25-5.325 5.175Zm16.392 0v.75c0 2.925 2.25 5.175 5.325 5.175 3 0 5.25-2.25 5.25-5.175v-.75c0-2.925-2.25-5.175-5.25-5.175-3.075 0-5.325 2.25-5.325 5.175Zm16.391 0v.75c0 2.925 2.25 5.175 5.325 5.175 3 0 5.25-2.25 5.25-5.175v-.75c0-2.925-2.25-5.175-5.25-5.175-3.075 0-5.325 2.25-5.325 5.175Zm16.392 0v.75c0 2.925 2.25 5.175 5.325 5.175 3 0 5.25-2.25 5.25-5.175v-.75c0-2.925-2.25-5.175-5.25-5.175-3.075 0-5.325 2.25-5.325 5.175Z" fill="red"/></g><path d="M308.6 206.8c0 1.32 1.08 2.4 2.44 2.4 1.32 0 2.4-1.08 2.4-2.4v-17.76l14.4 18.64c.68.88 1.4 1.48 2.56 1.48h.2c1.36 0 2.4-1.08 2.4-2.44V183.2c0-1.32-1.08-2.4-2.44-2.4-1.32 0-2.4 1.08-2.4 2.4v17.2l-14-18.12c-.68-.84-1.36-1.44-2.56-1.44h-.52c-1.4 0-2.48 1.12-2.48 2.48v23.48Zm41.082 2.68c6.52 0 11.32-5 11.32-11v-.08c0-6.04-4.76-10.96-11.24-10.96s-11.28 5-11.28 11.04v.08c0 6 4.76 10.92 11.2 10.92Zm.08-4.24c-3.76 0-6.44-3.08-6.44-6.76v-.08c0-3.68 2.48-6.72 6.36-6.72 3.8 0 6.48 3.08 6.48 6.8v.08c0 3.64-2.48 6.68-6.4 6.68Zm28.161 1.56c0 1.36 1.08 2.4 2.4 2.4 1.36 0 2.44-1.08 2.44-2.4v-6.24c0-5 2.36-7.64 5.8-8.24 1.08-.2 1.92-1.04 1.92-2.32 0-1.4-.88-2.4-2.4-2.4-2.12 0-4.2 2-5.32 4.64v-2.16c0-1.36-1.08-2.44-2.44-2.44-1.36 0-2.4 1.08-2.4 2.44v16.72Zm19.46-9.84c.44-3.28 2.52-5.56 5.48-5.56 3.2 0 5.04 2.44 5.36 5.56h-10.84Zm13.64 9.72c.36-.36.64-.88.64-1.48 0-1.12-.84-1.96-1.92-1.96-.56 0-.88.16-1.24.44-1.36 1.12-2.96 1.84-5 1.84-3.12 0-5.56-1.92-6.08-5.36h13.24c1.24 0 2.28-.96 2.28-2.32 0-4.88-3.32-10.4-10.04-10.4-6.04 0-10.32 4.96-10.32 11v.08c0 6.52 4.72 10.96 10.84 10.96 3.28 0 5.68-1.08 7.6-2.8Zm6.861.12c0 1.32 1.08 2.4 2.4 2.4 1.36 0 2.44-1.08 2.44-2.4v-1.08c1.48 1.96 3.68 3.72 7.2 3.72 5 0 9.8-3.96 9.8-10.96v-.08c0-7.04-4.84-10.96-9.8-10.96-3.44 0-5.64 1.76-7.2 3.96V182c0-1.36-1.08-2.4-2.44-2.4-1.36 0-2.4 1.04-2.4 2.4v24.8Zm10.88-1.56c-3.28 0-6.16-2.72-6.16-6.76v-.08c0-4.04 2.88-6.76 6.16-6.76 3.28 0 6.04 2.68 6.04 6.76v.08c0 4.16-2.72 6.76-6.04 6.76Zm22.036 4.2c3.24 0 5.44-1.36 6.88-3.08v.8c0 1.08.96 2.04 2.36 2.04 1.32 0 2.36-1 2.36-2.32v-10.4c0-2.76-.72-5-2.28-6.52-1.48-1.52-3.84-2.36-7-2.36-2.76 0-4.8.48-6.8 1.24-.72.28-1.32 1.04-1.32 1.92 0 1.12.92 2 2.04 2 .24 0 .48-.04.76-.12 1.32-.52 2.84-.84 4.68-.84 3.4 0 5.24 1.6 5.24 4.6v.52c-1.64-.52-3.32-.88-5.68-.88-5.16 0-8.72 2.24-8.72 6.8v.08c0 4.24 3.52 6.52 7.48 6.52Zm1.36-3.52c-2.32 0-4.12-1.16-4.12-3.2v-.08c0-2.2 1.84-3.52 4.96-3.52 1.92 0 3.56.36 4.8.84v1.44c0 2.68-2.44 4.52-5.64 4.52Zm23.276 3.48c4.4 0 7.84-2.2 7.84-6.64v-.08c0-3.8-3.48-5.2-6.56-6.16-2.48-.8-4.76-1.44-4.76-3v-.08c0-1.2 1.08-2.08 2.96-2.08 1.48 0 3.24.56 4.96 1.44.32.16.56.24.96.24 1.12 0 2-.84 2-1.96 0-.84-.48-1.48-1.16-1.84-2.04-1.08-4.4-1.72-6.64-1.72-4.2 0-7.52 2.44-7.52 6.44v.08c0 4.04 3.48 5.32 6.6 6.2 2.48.76 4.72 1.32 4.72 2.96v.08c0 1.4-1.2 2.28-3.28 2.28-1.92 0-4.04-.68-6.08-2.04-.28-.16-.64-.28-1.04-.28-1.12 0-1.96.88-1.96 1.96 0 .8.4 1.4.92 1.68 2.44 1.68 5.36 2.52 8.04 2.52Zm16.439-12.44c.44-3.28 2.52-5.56 5.48-5.56 3.2 0 5.04 2.44 5.36 5.56h-10.84Zm13.64 9.72c.36-.36.64-.88.64-1.48 0-1.12-.84-1.96-1.92-1.96-.56 0-.88.16-1.24.44-1.36 1.12-2.96 1.84-5 1.84-3.12 0-5.56-1.92-6.08-5.36h13.24c1.24 0 2.28-.96 2.28-2.32 0-4.88-3.32-10.4-10.04-10.4-6.04 0-10.32 4.96-10.32 11v.08c0 6.52 4.72 10.96 10.84 10.96 3.28 0 5.68-1.08 7.6-2.8Zm25.933 2.68c1.28 0 2.28-.2 3.32-.56.68-.28 1.28-1 1.28-1.88 0-1.12-.96-2-2.04-2-.16 0-.64.12-1.2.12-1.64 0-2.6-.76-2.6-2.64v-10.36h3.8c1.16 0 2.12-.92 2.12-2.08 0-1.16-.96-2.08-2.12-2.08h-3.8v-3.6c0-1.32-1.08-2.4-2.4-2.4-1.36 0-2.44 1.08-2.44 2.4v3.6h-.8c-1.16 0-2.08.92-2.08 2.08 0 1.16.92 2.08 2.08 2.08h.8v11.12c0 4.64 2.52 6.2 6.08 6.2Zm18.82.12c6.52 0 11.32-5 11.32-11v-.08c0-6.04-4.76-10.96-11.24-10.96s-11.28 5-11.28 11.04v.08c0 6 4.76 10.92 11.2 10.92Zm.08-4.24c-3.76 0-6.44-3.08-6.44-6.76v-.08c0-3.68 2.48-6.72 6.36-6.72 3.8 0 6.48 3.08 6.48 6.8v.08c0 3.64-2.48 6.68-6.4 6.68Zm16.169 1.56c0 1.36 1.08 2.4 2.4 2.4 1.36 0 2.44-1.04 2.44-2.4v-3.68l3.2-3.04 6.04 8.04c.6.76 1.16 1.08 2.12 1.08 1.24 0 2.28-.88 2.28-2.2 0-.56-.2-1-.64-1.6l-6.4-8.36 5.6-5.16c.68-.64 1.08-1.24 1.08-2.04 0-1.16-.84-2.2-2.12-2.2-.84 0-1.44.4-2.08 1.04l-9.08 8.92V182c0-1.32-1.08-2.4-2.44-2.4-1.36 0-2.4 1.08-2.4 2.4v24.8Zm26.257-9.84c.44-3.28 2.52-5.56 5.48-5.56 3.2 0 5.04 2.44 5.36 5.56h-10.84Zm13.64 9.72c.36-.36.64-.88.64-1.48 0-1.12-.84-1.96-1.92-1.96-.56 0-.88.16-1.24.44-1.36 1.12-2.96 1.84-5 1.84-3.12 0-5.56-1.92-6.08-5.36h13.24c1.24 0 2.28-.96 2.28-2.32 0-4.88-3.32-10.4-10.04-10.4-6.04 0-10.32 4.96-10.32 11v.08c0 6.52 4.72 10.96 10.84 10.96 3.28 0 5.68-1.08 7.6-2.8Zm6.86.12c0 1.36 1.08 2.4 2.4 2.4 1.36 0 2.44-1.04 2.44-2.4v-9.72c0-3.28 1.96-5.24 4.76-5.24 2.88 0 4.52 1.88 4.52 5.16v9.8c0 1.36 1.08 2.4 2.44 2.4 1.36 0 2.4-1.04 2.4-2.4v-11.28c0-4.88-2.76-8.08-7.52-8.08-3.28 0-5.24 1.72-6.6 3.68v-1.04c0-1.36-1.08-2.44-2.44-2.44-1.36 0-2.4 1.08-2.4 2.44v16.72Zm32.045 2.6c4.4 0 7.84-2.2 7.84-6.64v-.08c0-3.8-3.48-5.2-6.56-6.16-2.48-.8-4.76-1.44-4.76-3v-.08c0-1.2 1.08-2.08 2.96-2.08 1.48 0 3.24.56 4.96 1.44.32.16.56.24.96.24 1.12 0 2-.84 2-1.96 0-.84-.48-1.48-1.16-1.84-2.04-1.08-4.4-1.72-6.64-1.72-4.2 0-7.52 2.44-7.52 6.44v.08c0 4.04 3.48 5.32 6.6 6.2 2.48.76 4.72 1.32 4.72 2.96v.08c0 1.4-1.2 2.28-3.28 2.28-1.92 0-4.04-.68-6.08-2.04-.28-.16-.64-.28-1.04-.28-1.12 0-1.96.88-1.96 1.96 0 .8.4 1.4.92 1.68 2.44 1.68 5.36 2.52 8.04 2.52ZM308.6 275.8c0 1.32 1.08 2.4 2.44 2.4 1.32 0 2.4-1.08 2.4-2.4v-17.76l14.4 18.64c.68.88 1.4 1.48 2.56 1.48h.2c1.36 0 2.4-1.08 2.4-2.44V252.2c0-1.32-1.08-2.4-2.44-2.4-1.32 0-2.4 1.08-2.4 2.4v17.2l-14-18.12c-.68-.84-1.36-1.44-2.56-1.44h-.52c-1.4 0-2.48 1.12-2.48 2.48v23.48Zm41.082 2.68c6.52 0 11.32-5 11.32-11v-.08c0-6.04-4.76-10.96-11.24-10.96s-11.28 5-11.28 11.04v.08c0 6 4.76 10.92 11.2 10.92Zm.08-4.24c-3.76 0-6.44-3.08-6.44-6.76v-.08c0-3.68 2.48-6.72 6.36-6.72 3.8 0 6.48 3.08 6.48 6.8v.08c0 3.64-2.48 6.68-6.4 6.68Zm35.241 4.12c1.28 0 2.28-.2 3.32-.56.68-.28 1.28-1 1.28-1.88 0-1.12-.96-2-2.04-2-.16 0-.64.12-1.2.12-1.64 0-2.6-.76-2.6-2.64v-10.36h3.8c1.16 0 2.12-.92 2.12-2.08 0-1.16-.96-2.08-2.12-2.08h-3.8v-3.6c0-1.32-1.08-2.4-2.4-2.4-1.36 0-2.44 1.08-2.44 2.4v3.6h-.8c-1.16 0-2.08.92-2.08 2.08 0 1.16.92 2.08 2.08 2.08h.8v11.12c0 4.64 2.52 6.2 6.08 6.2Zm18.819.12c6.52 0 11.32-5 11.32-11v-.08c0-6.04-4.76-10.96-11.24-10.96s-11.28 5-11.28 11.04v.08c0 6 4.76 10.92 11.2 10.92Zm.08-4.24c-3.76 0-6.44-3.08-6.44-6.76v-.08c0-3.68 2.48-6.72 6.36-6.72 3.8 0 6.48 3.08 6.48 6.8v.08c0 3.64-2.48 6.68-6.4 6.68Zm16.169 1.56c0 1.36 1.08 2.4 2.4 2.4 1.36 0 2.44-1.04 2.44-2.4v-3.68l3.2-3.04 6.04 8.04c.6.76 1.16 1.08 2.12 1.08 1.24 0 2.28-.88 2.28-2.2 0-.56-.2-1-.64-1.6l-6.4-8.36 5.6-5.16c.68-.64 1.08-1.24 1.08-2.04 0-1.16-.84-2.2-2.12-2.2-.84 0-1.44.4-2.08 1.04l-9.08 8.92V251c0-1.32-1.08-2.4-2.44-2.4-1.36 0-2.4 1.08-2.4 2.4v24.8Zm26.257-9.84c.44-3.28 2.52-5.56 5.48-5.56 3.2 0 5.04 2.44 5.36 5.56h-10.84Zm13.64 9.72c.36-.36.64-.88.64-1.48 0-1.12-.84-1.96-1.92-1.96-.56 0-.88.16-1.24.44-1.36 1.12-2.96 1.84-5 1.84-3.12 0-5.56-1.92-6.08-5.36h13.24c1.24 0 2.28-.96 2.28-2.32 0-4.88-3.32-10.4-10.04-10.4-6.04 0-10.32 4.96-10.32 11v.08c0 6.52 4.72 10.96 10.84 10.96 3.28 0 5.68-1.08 7.6-2.8Zm6.861.12c0 1.36 1.08 2.4 2.4 2.4 1.36 0 2.44-1.04 2.44-2.4v-9.72c0-3.28 1.96-5.24 4.76-5.24 2.88 0 4.52 1.88 4.52 5.16v9.8c0 1.36 1.08 2.4 2.44 2.4 1.36 0 2.4-1.04 2.4-2.4v-11.28c0-4.88-2.76-8.08-7.52-8.08-3.28 0-5.24 1.72-6.6 3.68v-1.04c0-1.36-1.08-2.44-2.44-2.44-1.36 0-2.4 1.08-2.4 2.44v16.72Zm32.045 2.6c4.4 0 7.84-2.2 7.84-6.64v-.08c0-3.8-3.48-5.2-6.56-6.16-2.48-.8-4.76-1.44-4.76-3v-.08c0-1.2 1.08-2.08 2.96-2.08 1.48 0 3.24.56 4.96 1.44.32.16.56.24.96.24 1.12 0 2-.84 2-1.96 0-.84-.48-1.48-1.16-1.84-2.04-1.08-4.4-1.72-6.64-1.72-4.2 0-7.52 2.44-7.52 6.44v.08c0 4.04 3.48 5.32 6.6 6.2 2.48.76 4.72 1.32 4.72 2.96v.08c0 1.4-1.2 2.28-3.28 2.28-1.92 0-4.04-.68-6.08-2.04-.28-.16-.64-.28-1.04-.28-1.12 0-1.96.88-1.96 1.96 0 .8.4 1.4.92 1.68 2.44 1.68 5.36 2.52 8.04 2.52Zm31.871-.04h.16c1.16 0 2.16-.68 2.6-2.08l4.16-12.56 4.12 12.56c.44 1.4 1.44 2.08 2.64 2.08h.16c1.16 0 2.16-.68 2.68-2.16l5.76-16.24c.08-.24.2-.72.2-1.08 0-1.2-.96-2.24-2.28-2.24-1.28 0-2.04.84-2.36 1.88l-4.12 12.84-4.16-12.8c-.36-1.12-1.24-1.92-2.48-1.92h-.28c-1.24 0-2.12.8-2.48 1.92l-4.12 12.8-4.08-12.8c-.36-1.12-1.16-1.92-2.36-1.92-1.44 0-2.36 1.08-2.36 2.24 0 .4.12.92.24 1.24l5.68 16.08c.48 1.48 1.48 2.16 2.68 2.16Zm26.942-26.92c0 1.44 1.2 2.4 2.76 2.4 1.56 0 2.76-.96 2.76-2.4v-.24c0-1.44-1.2-2.36-2.76-2.36-1.56 0-2.76.92-2.76 2.36v.24Zm.36 24.36c0 1.36 1.08 2.4 2.4 2.4 1.36 0 2.44-1.04 2.44-2.4v-16.72c0-1.36-1.08-2.44-2.44-2.44-1.36 0-2.4 1.08-2.4 2.44v16.72Zm18.245 2.56c1.28 0 2.28-.2 3.32-.56.68-.28 1.28-1 1.28-1.88 0-1.12-.96-2-2.04-2-.16 0-.64.12-1.2.12-1.64 0-2.6-.76-2.6-2.64v-10.36h3.8c1.16 0 2.12-.92 2.12-2.08 0-1.16-.96-2.08-2.12-2.08h-3.8v-3.6c0-1.32-1.08-2.4-2.4-2.4-1.36 0-2.44 1.08-2.44 2.4v3.6h-.8c-1.16 0-2.08.92-2.08 2.08 0 1.16.92 2.08 2.08 2.08h.8v11.12c0 4.64 2.52 6.2 6.08 6.2Zm9.365-2.56c0 1.36 1.08 2.4 2.4 2.4 1.36 0 2.44-1.04 2.44-2.4v-9.72c0-3.28 1.96-5.24 4.76-5.24 2.88 0 4.52 1.88 4.52 5.16v9.8c0 1.36 1.08 2.4 2.44 2.4 1.36 0 2.4-1.04 2.4-2.4v-11.28c0-4.88-2.76-8.08-7.52-8.08-3.28 0-5.24 1.72-6.6 3.68V251c0-1.32-1.08-2.4-2.44-2.4-1.36 0-2.4 1.08-2.4 2.4v24.8Zm43.877 2.56c1.28 0 2.28-.2 3.32-.56.68-.28 1.28-1 1.28-1.88 0-1.12-.96-2-2.04-2-.16 0-.64.12-1.2.12-1.64 0-2.6-.76-2.6-2.64v-10.36h3.8c1.16 0 2.12-.92 2.12-2.08 0-1.16-.96-2.08-2.12-2.08h-3.8v-3.6c0-1.32-1.08-2.4-2.4-2.4-1.36 0-2.44 1.08-2.44 2.4v3.6h-.8c-1.16 0-2.08.92-2.08 2.08 0 1.16.92 2.08 2.08 2.08h.8v11.12c0 4.64 2.52 6.2 6.08 6.2Zm8.245-2.2c0 1.2 1 2.12 2.24 2.12.88 0 1.56-.56 2.12-1.24l5.12-6.6 5.12 6.6c.6.8 1.28 1.24 2.24 1.24 1.2 0 2.24-.88 2.24-2.24 0-.64-.28-1.2-.8-1.84l-5.92-7 5.72-6.84c.4-.48.68-.96.68-1.64 0-1.2-1-2.12-2.28-2.12-.84 0-1.52.52-2.08 1.24l-4.84 6.2-4.76-6.24c-.6-.76-1.28-1.2-2.24-1.2-1.2 0-2.24.88-2.24 2.24 0 .64.28 1.2.8 1.84l5.56 6.6-6 7.2c-.44.48-.68 1-.68 1.68Zm43.122 2.2c1.28 0 2.28-.2 3.32-.56.68-.28 1.28-1 1.28-1.88 0-1.12-.96-2-2.04-2-.16 0-.64.12-1.2.12-1.64 0-2.6-.76-2.6-2.64v-10.36h3.8c1.16 0 2.12-.92 2.12-2.08 0-1.16-.96-2.08-2.12-2.08h-3.8v-3.6c0-1.32-1.08-2.4-2.4-2.4-1.36 0-2.44 1.08-2.44 2.4v3.6h-.8c-1.16 0-2.08.92-2.08 2.08 0 1.16.92 2.08 2.08 2.08h.8v11.12c0 4.64 2.52 6.2 6.08 6.2Zm15.446.08c3.24 0 5.44-1.36 6.88-3.08v.8c0 1.08.96 2.04 2.36 2.04 1.32 0 2.36-1 2.36-2.32v-10.4c0-2.76-.72-5-2.28-6.52-1.48-1.52-3.84-2.36-7-2.36-2.76 0-4.8.48-6.8 1.24-.72.28-1.32 1.04-1.32 1.92 0 1.12.92 2 2.04 2 .24 0 .48-.04.76-.12 1.32-.52 2.84-.84 4.68-.84 3.4 0 5.24 1.6 5.24 4.6v.52c-1.64-.52-3.32-.88-5.68-.88-5.16 0-8.72 2.24-8.72 6.8v.08c0 4.24 3.52 6.52 7.48 6.52Zm1.36-3.52c-2.32 0-4.12-1.16-4.12-3.2v-.08c0-2.2 1.84-3.52 4.96-3.52 1.92 0 3.56.36 4.8.84v1.44c0 2.68-2.44 4.52-5.64 4.52Zm14.916 1.24c0 1.2 1 2.12 2.24 2.12.88 0 1.56-.56 2.12-1.24l5.12-6.6 5.12 6.6c.6.8 1.28 1.24 2.24 1.24 1.2 0 2.24-.88 2.24-2.24 0-.64-.28-1.2-.8-1.84l-5.92-7 5.72-6.84c.4-.48.68-.96.68-1.64 0-1.2-1-2.12-2.28-2.12-.84 0-1.52.52-2.08 1.24l-4.84 6.2-4.76-6.24c-.6-.76-1.28-1.2-2.24-1.2-1.2 0-2.24.88-2.24 2.24 0 .64.28 1.2.8 1.84l5.56 6.6-6 7.2c-.44.48-.68 1-.68 1.68Zm26.83-10.2c.44-3.28 2.52-5.56 5.48-5.56 3.2 0 5.04 2.44 5.36 5.56h-10.84Zm13.64 9.72c.36-.36.64-.88.64-1.48 0-1.12-.84-1.96-1.92-1.96-.56 0-.88.16-1.24.44-1.36 1.12-2.96 1.84-5 1.84-3.12 0-5.56-1.92-6.08-5.36h13.24c1.24 0 2.28-.96 2.28-2.32 0-4.88-3.32-10.4-10.04-10.4-6.04 0-10.32 4.96-10.32 11v.08c0 6.52 4.72 10.96 10.84 10.96 3.28 0 5.68-1.08 7.6-2.8Zm14.101 2.72c4.4 0 7.84-2.2 7.84-6.64v-.08c0-3.8-3.48-5.2-6.56-6.16-2.48-.8-4.76-1.44-4.76-3v-.08c0-1.2 1.08-2.08 2.96-2.08 1.48 0 3.24.56 4.96 1.44.32.16.56.24.96.24 1.12 0 2-.84 2-1.96 0-.84-.48-1.48-1.16-1.84-2.04-1.08-4.4-1.72-6.64-1.72-4.2 0-7.52 2.44-7.52 6.44v.08c0 4.04 3.48 5.32 6.6 6.2 2.48.76 4.72 1.32 4.72 2.96v.08c0 1.4-1.2 2.28-3.28 2.28-1.92 0-4.04-.68-6.08-2.04-.28-.16-.64-.28-1.04-.28-1.12 0-1.96.88-1.96 1.96 0 .8.4 1.4.92 1.68 2.44 1.68 5.36 2.52 8.04 2.52ZM314.12 402.44c3.24 0 5.44-1.36 6.88-3.08v.8c0 1.08.96 2.04 2.36 2.04 1.32 0 2.36-1 2.36-2.32v-10.4c0-2.76-.72-5-2.28-6.52-1.48-1.52-3.84-2.36-7-2.36-2.76 0-4.8.48-6.8 1.24-.72.28-1.32 1.04-1.32 1.92 0 1.12.92 2 2.04 2 .24 0 .48-.04.76-.12 1.32-.52 2.84-.84 4.68-.84 3.4 0 5.24 1.6 5.24 4.6v.52c-1.64-.52-3.32-.88-5.68-.88-5.16 0-8.72 2.24-8.72 6.8v.08c0 4.24 3.52 6.52 7.48 6.52Zm1.36-3.52c-2.32 0-4.12-1.16-4.12-3.2v-.08c0-2.2 1.84-3.52 4.96-3.52 1.92 0 3.56.36 4.8.84v1.44c0 2.68-2.44 4.52-5.64 4.52Zm16.317.88c0 1.36 1.08 2.4 2.4 2.4 1.36 0 2.44-1.04 2.44-2.4V375c0-1.32-1.08-2.4-2.44-2.4-1.36 0-2.4 1.08-2.4 2.4v24.8Zm11.085-24.36c0 1.44 1.2 2.4 2.76 2.4 1.56 0 2.76-.96 2.76-2.4v-.24c0-1.44-1.2-2.36-2.76-2.36-1.56 0-2.76.92-2.76 2.36v.24Zm.36 24.36c0 1.36 1.08 2.4 2.4 2.4 1.36 0 2.44-1.04 2.44-2.4v-16.72c0-1.36-1.08-2.44-2.44-2.44-1.36 0-2.4 1.08-2.4 2.44v16.72Zm20.565 8.68c3.8 0 6.76-.92 8.68-2.84 1.76-1.76 2.68-4.4 2.68-7.96v-14.6c0-1.36-1.08-2.44-2.44-2.44-1.32 0-2.4 1.08-2.4 2.4v1c-1.64-1.96-3.84-3.6-7.4-3.6-4.92 0-9.6 3.68-9.6 9.92v.08c0 6.2 4.64 9.88 9.6 9.88 3.48 0 5.68-1.6 7.44-3.88v1.64c0 4.24-2.36 6.48-6.68 6.48-2.44 0-4.56-.6-6.48-1.68-.24-.12-.52-.2-.88-.2-1.12 0-2.04.92-2.04 2 0 .92.52 1.6 1.36 1.92 2.56 1.24 5.2 1.88 8.16 1.88Zm.4-12.28c-3.32 0-6-2.36-6-5.8v-.08c0-3.48 2.64-5.8 6-5.8s6.2 2.36 6.2 5.8v.08c0 3.44-2.84 5.8-6.2 5.8Zm17.036 3.6c0 1.36 1.08 2.4 2.4 2.4 1.36 0 2.44-1.04 2.44-2.4v-9.72c0-3.28 1.96-5.24 4.76-5.24 2.88 0 4.52 1.88 4.52 5.16v9.8c0 1.36 1.08 2.4 2.44 2.4 1.36 0 2.4-1.04 2.4-2.4v-11.28c0-4.88-2.76-8.08-7.52-8.08-3.28 0-5.24 1.72-6.6 3.68v-1.04c0-1.36-1.08-2.44-2.44-2.44-1.36 0-2.4 1.08-2.4 2.44v16.72Zm43.877 2.56h.16c1.16 0 2.16-.68 2.6-2.08l4.16-12.56 4.12 12.56c.44 1.4 1.44 2.08 2.64 2.08h.16c1.16 0 2.16-.68 2.68-2.16l5.76-16.24c.08-.24.2-.72.2-1.08 0-1.2-.96-2.24-2.28-2.24-1.28 0-2.04.84-2.36 1.88l-4.12 12.84-4.16-12.8c-.36-1.12-1.24-1.92-2.48-1.92h-.28c-1.24 0-2.12.8-2.48 1.92l-4.12 12.8-4.08-12.8c-.36-1.12-1.16-1.92-2.36-1.92-1.44 0-2.36 1.08-2.36 2.24 0 .4.12.92.24 1.24l5.68 16.08c.48 1.48 1.48 2.16 2.68 2.16Zm26.942-26.92c0 1.44 1.2 2.4 2.76 2.4 1.56 0 2.76-.96 2.76-2.4v-.24c0-1.44-1.2-2.36-2.76-2.36-1.56 0-2.76.92-2.76 2.36v.24Zm.36 24.36c0 1.36 1.08 2.4 2.4 2.4 1.36 0 2.44-1.04 2.44-2.4v-16.72c0-1.36-1.08-2.44-2.44-2.44-1.36 0-2.4 1.08-2.4 2.44v16.72Zm18.245 2.56c1.28 0 2.28-.2 3.32-.56.68-.28 1.28-1 1.28-1.88 0-1.12-.96-2-2.04-2-.16 0-.64.12-1.2.12-1.64 0-2.6-.76-2.6-2.64v-10.36h3.8c1.16 0 2.12-.92 2.12-2.08 0-1.16-.96-2.08-2.12-2.08h-3.8v-3.6c0-1.32-1.08-2.4-2.4-2.4-1.36 0-2.44 1.08-2.44 2.4v3.6h-.8c-1.16 0-2.08.92-2.08 2.08 0 1.16.92 2.08 2.08 2.08h.8v11.12c0 4.64 2.52 6.2 6.08 6.2Zm9.365-2.56c0 1.36 1.08 2.4 2.4 2.4 1.36 0 2.44-1.04 2.44-2.4v-9.72c0-3.28 1.96-5.24 4.76-5.24 2.88 0 4.52 1.88 4.52 5.16v9.8c0 1.36 1.08 2.4 2.44 2.4 1.36 0 2.4-1.04 2.4-2.4v-11.28c0-4.88-2.76-8.08-7.52-8.08-3.28 0-5.24 1.72-6.6 3.68V375c0-1.32-1.08-2.4-2.44-2.4-1.36 0-2.4 1.08-2.4 2.4v24.8Zm40.637 8.72c3.4 0 5.32-1.6 7.12-5.92l7.72-18.52c.08-.24.2-.76.2-1.16 0-1.28-1.04-2.28-2.32-2.28-1.24 0-1.92.84-2.32 1.84l-5.28 14.04-5.68-14.04c-.44-1.12-1.12-1.84-2.36-1.84-1.36 0-2.4 1-2.4 2.36 0 .32.12.8.28 1.16l7.84 17.52-.16.44c-.8 1.64-1.56 2.24-3 2.24-.68 0-1.12-.12-1.68-.28-.24-.08-.48-.16-.88-.16-1.04 0-1.96.8-1.96 2 0 1.16.8 1.76 1.52 2 1 .4 2 .6 3.36.6Zm28.895-6.04c6.52 0 11.32-5 11.32-11v-.08c0-6.04-4.76-10.96-11.24-10.96s-11.28 5-11.28 11.04v.08c0 6 4.76 10.92 11.2 10.92Zm.08-4.24c-3.76 0-6.44-3.08-6.44-6.76v-.08c0-3.68 2.48-6.72 6.36-6.72 3.8 0 6.48 3.08 6.48 6.8v.08c0 3.64-2.48 6.68-6.4 6.68Zm34.929-15.16a2.45 2.45 0 0 0-2.44-2.44c-1.36 0-2.44 1.08-2.44 2.44v9.72c0 3.28-1.96 5.2-4.76 5.2-2.88 0-4.52-1.84-4.52-5.12v-9.8c0-1.36-1.08-2.44-2.44-2.44-1.32 0-2.4 1.08-2.4 2.44v11.24c0 4.92 2.76 8.12 7.52 8.12 3.28 0 5.24-1.72 6.6-3.72v1.08c0 1.36 1.12 2.4 2.44 2.4 1.36 0 2.44-1.08 2.44-2.4v-16.72Zm6.045 16.72c0 1.36 1.08 2.4 2.4 2.4 1.36 0 2.44-1.08 2.44-2.4v-6.24c0-5 2.36-7.64 5.8-8.24 1.08-.2 1.92-1.04 1.92-2.32 0-1.4-.88-2.4-2.4-2.4-2.12 0-4.2 2-5.32 4.64v-2.16c0-1.36-1.08-2.44-2.44-2.44-1.36 0-2.4 1.08-2.4 2.44v16.72Zm28.516 6.4c0 1.36 1.08 2.4 2.4 2.4 1.36 0 2.44-1.04 2.44-2.4v-7.48c1.48 1.96 3.68 3.72 7.2 3.72 5 0 9.8-3.96 9.8-10.96v-.08c0-7.04-4.84-10.96-9.8-10.96-3.44 0-5.64 1.76-7.2 3.96v-1.32c0-1.36-1.08-2.44-2.44-2.44-1.36 0-2.4 1.08-2.4 2.44v23.12Zm10.88-7.96c-3.28 0-6.16-2.72-6.16-6.76v-.08c0-4.04 2.88-6.76 6.16-6.76 3.28 0 6.04 2.68 6.04 6.76v.08c0 4.16-2.72 6.76-6.04 6.76Zm25.996 4.24c6.52 0 11.32-5 11.32-11v-.08c0-6.04-4.76-10.96-11.24-10.96s-11.28 5-11.28 11.04v.08c0 6 4.76 10.92 11.2 10.92Zm.08-4.24c-3.76 0-6.44-3.08-6.44-6.76v-.08c0-3.68 2.48-6.72 6.36-6.72 3.8 0 6.48 3.08 6.48 6.8v.08c0 3.64-2.48 6.68-6.4 6.68Zm26.209 4.24c6.52 0 11.32-5 11.32-11v-.08c0-6.04-4.76-10.96-11.24-10.96s-11.28 5-11.28 11.04v.08c0 6 4.76 10.92 11.2 10.92Zm.08-4.24c-3.76 0-6.44-3.08-6.44-6.76v-.08c0-3.68 2.48-6.72 6.36-6.72 3.8 0 6.48 3.08 6.48 6.8v.08c0 3.64-2.48 6.68-6.4 6.68Zm16.449 1.56c0 1.36 1.08 2.4 2.4 2.4 1.36 0 2.44-1.04 2.44-2.4V375c0-1.32-1.08-2.4-2.44-2.4-1.36 0-2.4 1.08-2.4 2.4v24.8Zm30.237 2.56h.16c1.16 0 2.16-.68 2.6-2.08l4.16-12.56 4.12 12.56c.44 1.4 1.44 2.08 2.64 2.08h.16c1.16 0 2.16-.68 2.68-2.16l5.76-16.24c.08-.24.2-.72.2-1.08 0-1.2-.96-2.24-2.28-2.24-1.28 0-2.04.84-2.36 1.88l-4.12 12.84-4.16-12.8c-.36-1.12-1.24-1.92-2.48-1.92h-.28c-1.24 0-2.12.8-2.48 1.92l-4.12 12.8-4.08-12.8c-.36-1.12-1.16-1.92-2.36-1.92-1.44 0-2.36 1.08-2.36 2.24 0 .4.12.92.24 1.24l5.68 16.08c.48 1.48 1.48 2.16 2.68 2.16Zm30.076-12.4c.44-3.28 2.52-5.56 5.48-5.56 3.2 0 5.04 2.44 5.36 5.56h-10.84Zm13.64 9.72c.36-.36.64-.88.64-1.48 0-1.12-.84-1.96-1.92-1.96-.56 0-.88.16-1.24.44-1.36 1.12-2.96 1.84-5 1.84-3.12 0-5.56-1.92-6.08-5.36h13.24c1.24 0 2.28-.96 2.28-2.32 0-4.88-3.32-10.4-10.04-10.4-6.04 0-10.32 4.96-10.32 11v.08c0 6.52 4.72 10.96 10.84 10.96 3.28 0 5.68-1.08 7.6-2.8Zm6.781-24.24c0 1.44 1.2 2.4 2.76 2.4 1.56 0 2.76-.96 2.76-2.4v-.24c0-1.44-1.2-2.36-2.76-2.36-1.56 0-2.76.92-2.76 2.36v.24Zm.36 24.36c0 1.36 1.08 2.4 2.4 2.4 1.36 0 2.44-1.04 2.44-2.4v-16.72c0-1.36-1.08-2.44-2.44-2.44-1.36 0-2.4 1.08-2.4 2.44v16.72Zm20.565 8.68c3.8 0 6.76-.92 8.68-2.84 1.76-1.76 2.68-4.4 2.68-7.96v-14.6c0-1.36-1.08-2.44-2.44-2.44-1.32 0-2.4 1.08-2.4 2.4v1c-1.64-1.96-3.84-3.6-7.4-3.6-4.92 0-9.6 3.68-9.6 9.92v.08c0 6.2 4.64 9.88 9.6 9.88 3.48 0 5.68-1.6 7.44-3.88v1.64c0 4.24-2.36 6.48-6.68 6.48-2.44 0-4.56-.6-6.48-1.68-.24-.12-.52-.2-.88-.2-1.12 0-2.04.92-2.04 2 0 .92.52 1.6 1.36 1.92 2.56 1.24 5.2 1.88 8.16 1.88Zm.4-12.28c-3.32 0-6-2.36-6-5.8v-.08c0-3.48 2.64-5.8 6-5.8s6.2 2.36 6.2 5.8v.08c0 3.44-2.84 5.8-6.2 5.8Zm17.036 3.6c0 1.36 1.08 2.4 2.4 2.4 1.36 0 2.44-1.04 2.44-2.4v-9.72c0-3.28 1.96-5.24 4.76-5.24 2.88 0 4.52 1.88 4.52 5.16v9.8c0 1.36 1.08 2.4 2.44 2.4 1.36 0 2.4-1.04 2.4-2.4v-11.28c0-4.88-2.76-8.08-7.52-8.08-3.28 0-5.24 1.72-6.6 3.68V375c0-1.32-1.08-2.4-2.44-2.4-1.36 0-2.4 1.08-2.4 2.4v24.8Zm31.885 2.56c1.28 0 2.28-.2 3.32-.56.68-.28 1.28-1 1.28-1.88 0-1.12-.96-2-2.04-2-.16 0-.64.12-1.2.12-1.64 0-2.6-.76-2.6-2.64v-10.36h3.8c1.16 0 2.12-.92 2.12-2.08 0-1.16-.96-2.08-2.12-2.08h-3.8v-3.6c0-1.32-1.08-2.4-2.4-2.4-1.36 0-2.44 1.08-2.44 2.4v3.6h-.8c-1.16 0-2.08.92-2.08 2.08 0 1.16.92 2.08 2.08 2.08h.8v11.12c0 4.64 2.52 6.2 6.08 6.2Zm16.605.04c4.4 0 7.84-2.2 7.84-6.64v-.08c0-3.8-3.48-5.2-6.56-6.16-2.48-.8-4.76-1.44-4.76-3v-.08c0-1.2 1.08-2.08 2.96-2.08 1.48 0 3.24.56 4.96 1.44.32.16.56.24.96.24 1.12 0 2-.84 2-1.96 0-.84-.48-1.48-1.16-1.84-2.04-1.08-4.4-1.72-6.64-1.72-4.2 0-7.52 2.44-7.52 6.44v.08c0 4.04 3.48 5.32 6.6 6.2 2.48.76 4.72 1.32 4.72 2.96v.08c0 1.4-1.2 2.28-3.28 2.28-1.92 0-4.04-.68-6.08-2.04-.28-.16-.64-.28-1.04-.28-1.12 0-1.96.88-1.96 1.96 0 .8.4 1.4.92 1.68 2.44 1.68 5.36 2.52 8.04 2.52ZM316.48 351.76c0 1.36 1.08 2.44 2.44 2.44 1.4 0 2.48-1.08 2.48-2.44V343l9.56-13.08c.36-.48.68-1.08.68-1.76 0-1.32-.96-2.4-2.4-2.4-1.04 0-1.76.6-2.36 1.48l-7.92 11.28-7.8-11.24c-.6-.88-1.32-1.48-2.4-1.48-1.4 0-2.48 1.04-2.48 2.36 0 .68.24 1.24.56 1.72l9.64 13.24v8.64Zm26.288 2.72c6.52 0 11.32-5 11.32-11v-.08c0-6.04-4.76-10.96-11.24-10.96s-11.28 5-11.28 11.04v.08c0 6 4.76 10.92 11.2 10.92Zm.08-4.24c-3.76 0-6.44-3.08-6.44-6.76v-.08c0-3.68 2.48-6.72 6.36-6.72 3.8 0 6.48 3.08 6.48 6.8v.08c0 3.64-2.48 6.68-6.4 6.68Zm34.929-15.16a2.45 2.45 0 0 0-2.44-2.44c-1.36 0-2.44 1.08-2.44 2.44v9.72c0 3.28-1.96 5.2-4.76 5.2-2.88 0-4.52-1.84-4.52-5.12v-9.8c0-1.36-1.08-2.44-2.44-2.44-1.32 0-2.4 1.08-2.4 2.44v11.24c0 4.92 2.76 8.12 7.52 8.12 3.28 0 5.24-1.72 6.6-3.72v1.08c0 1.36 1.12 2.4 2.44 2.4 1.36 0 2.44-1.08 2.44-2.4v-16.72Zm6.044 16.72c0 1.36 1.08 2.4 2.4 2.4 1.36 0 2.44-1.08 2.44-2.4v-6.24c0-5 2.36-7.64 5.8-8.24 1.08-.2 1.92-1.04 1.92-2.32 0-1.4-.88-2.4-2.4-2.4-2.12 0-4.2 2-5.32 4.64v-2.16c0-1.36-1.08-2.44-2.44-2.44-1.36 0-2.4 1.08-2.4 2.44v16.72Zm28.436-24.36c0 1.44 1.2 2.4 2.76 2.4 1.56 0 2.76-.96 2.76-2.4v-.24c0-1.44-1.2-2.36-2.76-2.36-1.56 0-2.76.92-2.76 2.36v.24Zm.36 24.36c0 1.36 1.08 2.4 2.4 2.4 1.36 0 2.44-1.04 2.44-2.4v-16.72c0-1.36-1.08-2.44-2.44-2.44-1.36 0-2.4 1.08-2.4 2.44v16.72Zm11.165 0c0 1.36 1.08 2.4 2.4 2.4 1.36 0 2.44-1.04 2.44-2.4v-9.72c0-3.28 1.96-5.24 4.76-5.24 2.88 0 4.52 1.88 4.52 5.16v9.8c0 1.36 1.08 2.4 2.44 2.4 1.36 0 2.4-1.04 2.4-2.4v-11.28c0-4.88-2.76-8.08-7.52-8.08-3.28 0-5.24 1.72-6.6 3.68v-1.04c0-1.36-1.08-2.44-2.44-2.44-1.36 0-2.4 1.08-2.4 2.44v16.72Zm24.725-24.36c0 1.44 1.2 2.4 2.76 2.4 1.56 0 2.76-.96 2.76-2.4v-.24c0-1.44-1.2-2.36-2.76-2.36-1.56 0-2.76.92-2.76 2.36v.24Zm.36 24.36c0 1.36 1.08 2.4 2.4 2.4 1.36 0 2.44-1.04 2.44-2.4v-16.72c0-1.36-1.08-2.44-2.44-2.44-1.36 0-2.4 1.08-2.4 2.44v16.72Zm18.245 2.56c1.28 0 2.28-.2 3.32-.56.68-.28 1.28-1 1.28-1.88 0-1.12-.96-2-2.04-2-.16 0-.64.12-1.2.12-1.64 0-2.6-.76-2.6-2.64v-10.36h3.8c1.16 0 2.12-.92 2.12-2.08 0-1.16-.96-2.08-2.12-2.08h-3.8v-3.6c0-1.32-1.08-2.4-2.4-2.4-1.36 0-2.44 1.08-2.44 2.4v3.6h-.8c-1.16 0-2.08.92-2.08 2.08 0 1.16.92 2.08 2.08 2.08h.8v11.12c0 4.64 2.52 6.2 6.08 6.2Zm9.286-26.92c0 1.44 1.2 2.4 2.76 2.4 1.56 0 2.76-.96 2.76-2.4v-.24c0-1.44-1.2-2.36-2.76-2.36-1.56 0-2.76.92-2.76 2.36v.24Zm.36 24.36c0 1.36 1.08 2.4 2.4 2.4 1.36 0 2.44-1.04 2.44-2.4v-16.72c0-1.36-1.08-2.44-2.44-2.44-1.36 0-2.4 1.08-2.4 2.44v16.72Zm17.245 2.64c3.24 0 5.44-1.36 6.88-3.08v.8c0 1.08.96 2.04 2.36 2.04 1.32 0 2.36-1 2.36-2.32v-10.4c0-2.76-.72-5-2.28-6.52-1.48-1.52-3.84-2.36-7-2.36-2.76 0-4.8.48-6.8 1.24-.72.28-1.32 1.04-1.32 1.92 0 1.12.92 2 2.04 2 .24 0 .48-.04.76-.12 1.32-.52 2.84-.84 4.68-.84 3.4 0 5.24 1.6 5.24 4.6v.52c-1.64-.52-3.32-.88-5.68-.88-5.16 0-8.72 2.24-8.72 6.8v.08c0 4.24 3.52 6.52 7.48 6.52Zm1.36-3.52c-2.32 0-4.12-1.16-4.12-3.2v-.08c0-2.2 1.84-3.52 4.96-3.52 1.92 0 3.56.36 4.8.84v1.44c0 2.68-2.44 4.52-5.64 4.52Zm16.316.88c0 1.36 1.08 2.4 2.4 2.4 1.36 0 2.44-1.04 2.44-2.4V327c0-1.32-1.08-2.4-2.44-2.4-1.36 0-2.4 1.08-2.4 2.4v24.8Zm23.158 0c0 1.32 1.08 2.4 2.4 2.4 1.36 0 2.44-1.08 2.44-2.4v-1.08c1.48 1.96 3.68 3.72 7.2 3.72 5 0 9.8-3.96 9.8-10.96v-.08c0-7.04-4.84-10.96-9.8-10.96-3.44 0-5.64 1.76-7.2 3.96V327c0-1.36-1.08-2.4-2.44-2.4-1.36 0-2.4 1.04-2.4 2.4v24.8Zm10.88-1.56c-3.28 0-6.16-2.72-6.16-6.76v-.08c0-4.04 2.88-6.76 6.16-6.76 3.28 0 6.04 2.68 6.04 6.76v.08c0 4.16-2.72 6.76-6.04 6.76Zm22.036 4.2c3.24 0 5.44-1.36 6.88-3.08v.8c0 1.08.96 2.04 2.36 2.04 1.32 0 2.36-1 2.36-2.32v-10.4c0-2.76-.72-5-2.28-6.52-1.48-1.52-3.84-2.36-7-2.36-2.76 0-4.8.48-6.8 1.24-.72.28-1.32 1.04-1.32 1.92 0 1.12.92 2 2.04 2 .24 0 .48-.04.76-.12 1.32-.52 2.84-.84 4.68-.84 3.4 0 5.24 1.6 5.24 4.6v.52c-1.64-.52-3.32-.88-5.68-.88-5.16 0-8.72 2.24-8.72 6.8v.08c0 4.24 3.52 6.52 7.48 6.52Zm1.36-3.52c-2.32 0-4.12-1.16-4.12-3.2v-.08c0-2.2 1.84-3.52 4.96-3.52 1.92 0 3.56.36 4.8.84v1.44c0 2.68-2.44 4.52-5.64 4.52Zm16.316.88c0 1.36 1.08 2.4 2.4 2.4 1.36 0 2.44-1.04 2.44-2.4V327c0-1.32-1.08-2.4-2.44-2.4-1.36 0-2.4 1.08-2.4 2.4v24.8Zm17.246 2.64c3.24 0 5.44-1.36 6.88-3.08v.8c0 1.08.96 2.04 2.36 2.04 1.32 0 2.36-1 2.36-2.32v-10.4c0-2.76-.72-5-2.28-6.52-1.48-1.52-3.84-2.36-7-2.36-2.76 0-4.8.48-6.8 1.24-.72.28-1.32 1.04-1.32 1.92 0 1.12.92 2 2.04 2 .24 0 .48-.04.76-.12 1.32-.52 2.84-.84 4.68-.84 3.4 0 5.24 1.6 5.24 4.6v.52c-1.64-.52-3.32-.88-5.68-.88-5.16 0-8.72 2.24-8.72 6.8v.08c0 4.24 3.52 6.52 7.48 6.52Zm1.36-3.52c-2.32 0-4.12-1.16-4.12-3.2v-.08c0-2.2 1.84-3.52 4.96-3.52 1.92 0 3.56.36 4.8.84v1.44c0 2.68-2.44 4.52-5.64 4.52Zm16.036.88c0 1.36 1.08 2.4 2.4 2.4 1.36 0 2.44-1.04 2.44-2.4v-9.72c0-3.28 1.96-5.24 4.76-5.24 2.88 0 4.52 1.88 4.52 5.16v9.8c0 1.36 1.08 2.4 2.44 2.4 1.36 0 2.4-1.04 2.4-2.4v-11.28c0-4.88-2.76-8.08-7.52-8.08-3.28 0-5.24 1.72-6.6 3.68v-1.04c0-1.36-1.08-2.44-2.44-2.44-1.36 0-2.4 1.08-2.4 2.44v16.72Zm34.565 2.68c3.52 0 5.8-1.2 7.68-3 .44-.36.68-.88.68-1.52 0-1.16-.92-2.12-2.08-2.12-.56 0-1.04.28-1.32.52-1.32 1.12-2.8 1.88-4.72 1.88-3.72 0-6.32-3-6.32-6.76v-.08c0-3.68 2.6-6.72 6.12-6.72 1.92 0 3.28.76 4.52 1.8.32.24.84.48 1.44.48 1.24 0 2.24-.96 2.24-2.2 0-.8-.44-1.4-.76-1.68-1.8-1.56-4.08-2.64-7.4-2.64-6.36 0-11 5.04-11 11.04v.08c0 6 4.64 10.92 10.92 10.92Zm16.146-12.52c.44-3.28 2.52-5.56 5.48-5.56 3.2 0 5.04 2.44 5.36 5.56h-10.84Zm13.64 9.72c.36-.36.64-.88.64-1.48 0-1.12-.84-1.96-1.92-1.96-.56 0-.88.16-1.24.44-1.36 1.12-2.96 1.84-5 1.84-3.12 0-5.56-1.92-6.08-5.36h13.24c1.24 0 2.28-.96 2.28-2.32 0-4.88-3.32-10.4-10.04-10.4-6.04 0-10.32 4.96-10.32 11v.08c0 6.52 4.72 10.96 10.84 10.96 3.28 0 5.68-1.08 7.6-2.8Zm14.1 2.72c4.4 0 7.84-2.2 7.84-6.64v-.08c0-3.8-3.48-5.2-6.56-6.16-2.48-.8-4.76-1.44-4.76-3v-.08c0-1.2 1.08-2.08 2.96-2.08 1.48 0 3.24.56 4.96 1.44.32.16.56.24.96.24 1.12 0 2-.84 2-1.96 0-.84-.48-1.48-1.16-1.84-2.04-1.08-4.4-1.72-6.64-1.72-4.2 0-7.52 2.44-7.52 6.44v.08c0 4.04 3.48 5.32 6.6 6.2 2.48.76 4.72 1.32 4.72 2.96v.08c0 1.4-1.2 2.28-3.28 2.28-1.92 0-4.04-.68-6.08-2.04-.28-.16-.64-.28-1.04-.28-1.12 0-1.96.88-1.96 1.96 0 .8.4 1.4.92 1.68 2.44 1.68 5.36 2.52 8.04 2.52Zm24.791-2.6c0 1.36 1.08 2.4 2.4 2.4 1.36 0 2.44-1.04 2.44-2.4v-9.72c0-3.24 1.84-5.24 4.52-5.24 2.68 0 4.28 1.84 4.28 5.12v9.84c0 1.36 1.08 2.4 2.44 2.4 1.32 0 2.4-1.04 2.4-2.4v-9.72c0-3.4 1.88-5.24 4.52-5.24 2.72 0 4.28 1.8 4.28 5.16v9.8c0 1.36 1.08 2.4 2.44 2.4 1.36 0 2.4-1.04 2.4-2.4v-11.28c0-5.16-2.8-8.08-7.4-8.08-3.2 0-5.44 1.48-7.12 3.72-1.12-2.24-3.28-3.72-6.32-3.72-3.24 0-5.08 1.76-6.44 3.64v-1c0-1.36-1.08-2.44-2.44-2.44-1.36 0-2.4 1.08-2.4 2.44v16.72Zm56.768-16.72a2.45 2.45 0 0 0-2.44-2.44c-1.36 0-2.44 1.08-2.44 2.44v9.72c0 3.28-1.96 5.2-4.76 5.2-2.88 0-4.52-1.84-4.52-5.12v-9.8c0-1.36-1.08-2.44-2.44-2.44-1.32 0-2.4 1.08-2.4 2.44v11.24c0 4.92 2.76 8.12 7.52 8.12 3.28 0 5.24-1.72 6.6-3.72v1.08c0 1.36 1.12 2.4 2.44 2.4 1.36 0 2.44-1.08 2.44-2.4v-16.72Zm13.285 19.32c4.4 0 7.84-2.2 7.84-6.64v-.08c0-3.8-3.48-5.2-6.56-6.16-2.48-.8-4.76-1.44-4.76-3v-.08c0-1.2 1.08-2.08 2.96-2.08 1.48 0 3.24.56 4.96 1.44.32.16.56.24.96.24 1.12 0 2-.84 2-1.96 0-.84-.48-1.48-1.16-1.84-2.04-1.08-4.4-1.72-6.64-1.72-4.2 0-7.52 2.44-7.52 6.44v.08c0 4.04 3.48 5.32 6.6 6.2 2.48.76 4.72 1.32 4.72 2.96v.08c0 1.4-1.2 2.28-3.28 2.28-1.92 0-4.04-.68-6.08-2.04-.28-.16-.64-.28-1.04-.28-1.12 0-1.96.88-1.96 1.96 0 .8.4 1.4.92 1.68 2.44 1.68 5.36 2.52 8.04 2.52Zm19.488-.04c1.28 0 2.28-.2 3.32-.56.68-.28 1.28-1 1.28-1.88 0-1.12-.96-2-2.04-2-.16 0-.64.12-1.2.12-1.64 0-2.6-.76-2.6-2.64v-10.36h3.8c1.16 0 2.12-.92 2.12-2.08 0-1.16-.96-2.08-2.12-2.08h-3.8v-3.6c0-1.32-1.08-2.4-2.4-2.4-1.36 0-2.44 1.08-2.44 2.4v3.6h-.8c-1.16 0-2.08.92-2.08 2.08 0 1.16.92 2.08 2.08 2.08h.8v11.12c0 4.64 2.52 6.2 6.08 6.2Z" fill="#00E59D"/><rect x="277" y="189" width="12" height="12" rx="6" fill="#00E59D"/><rect x="277" y="258" width="12" height="12" rx="6" fill="#00E59D"/><rect x="277" y="336" width="12" height="12" rx="6" fill="#00E59D"/><defs><filter id="a" x="199" y="0" width="727" height="497" filterUnits="userSpaceOnUse" color-interpolation-filters="sRGB"><feFlood flood-opacity="0" result="BackgroundImageFix"/><feColorMatrix in="SourceAlpha" values="0 0 0 0 0 0 0 0 0 0 0 0 0 0 0 0 0 0 127 0" result="hardAlpha"/><feOffset/><feGaussianBlur stdDeviation="15"/><feComposite in2="hardAlpha" operator="out"/><feColorMatrix values="0 0 0 0 0 0 0 0 0 0 0 0 0 0 0 0 0 0 0.5 0"/><feBlend in2="BackgroundImageFix" result="effect1_dropShadow"/><feBlend in="SourceGraphic" in2="effect1_dropShadow" result="shape"/></filter><filter id="c" x="-8.391" y="63.551" width="103.745" height="112.93" filterUnits="userSpaceOnUse" color-interpolation-filters="sRGB"><feFlood flood-opacity="0" result="BackgroundImageFix"/><feBlend in="SourceGraphic" in2="BackgroundImageFix" result="shape"/><feGaussianBlur stdDeviation="5.5" result="effect1_foregroundBlur"/></filter><filter id="d" x="28.31" y="35.281" width="145.362" height="136.562" filterUnits="userSpaceOnUse" color-interpolation-filters="sRGB"><feFlood flood-opacity="0" result="BackgroundImageFix"/><feBlend in="SourceGraphic" in2="BackgroundImageFix" result="shape"/><feGaussianBlur stdDeviation="5.5" result="effect1_foregroundBlur"/></filter><filter id="e" x="256.75" y="47.875" width="519.294" height="107.35" filterUnits="userSpaceOnUse" color-interpolation-filters="sRGB"><feFlood flood-opacity="0" result="BackgroundImageFix"/><feBlend in="SourceGraphic" in2="BackgroundImageFix" result="shape"/><feGaussianBlur stdDeviation="10" result="effect1_foregroundBlur"/></filter><clipPath id="b"><path fill="#fff" transform="translate(0 42)" d="M0 0h200v413.668H0z"/></clipPath></defs></svg>