<svg width="926" height="497" viewBox="0 0 926 497" fill="none" xmlns="http://www.w3.org/2000/svg">
<g filter="url(#filter0_d)">
<rect x="229" y="30" width="667" height="437" rx="50" fill="#2E3192"/>
</g>
<g clip-path="url(#clip0)">
<path d="M131.573 112.248H112.956V194.375H131.573V112.248Z" fill="black"/>
<path d="M113.314 111.995V130.611H171.893V111.995H113.314Z" fill="black"/>
<path d="M79.5577 229.82H85.0312V184.926H79.5577V229.82Z" fill="#CCFFCC" stroke="black" stroke-width="2.75274" stroke-miterlimit="10"/>
<path d="M82.294 240.775C85.6201 240.775 88.3165 238.079 88.3165 234.753C88.3165 231.427 85.6201 228.73 82.294 228.73C78.9679 228.73 76.2715 231.427 76.2715 234.753C76.2715 238.079 78.9679 240.775 82.294 240.775Z" fill="#CCFFCC" stroke="black" stroke-width="2.75274" stroke-miterlimit="10"/>
<path d="M97.0761 395.164H91.6025V440.058H97.0761V395.164Z" fill="#CCFFCC" stroke="black" stroke-width="2.75274" stroke-miterlimit="10"/>
<path d="M94.3389 396.262C97.6651 396.262 100.361 393.565 100.361 390.239C100.361 386.913 97.6651 384.217 94.3389 384.217C91.0128 384.217 88.3164 386.913 88.3164 390.239C88.3164 393.565 91.0128 396.262 94.3389 396.262Z" fill="#CCFFCC" stroke="black" stroke-width="2.75274" stroke-miterlimit="10"/>
<path d="M129.933 357.94H34.6631V198.069L81.7533 204.64L129.933 195.873V357.94Z" fill="black"/>
<path d="M81.7529 226.534C69.6327 226.522 58.0126 221.701 49.4423 213.131C40.872 204.561 36.0517 192.94 36.0391 180.82H55.1966C55.1966 187.863 57.9944 194.618 62.9747 199.598C67.955 204.579 74.7097 207.377 81.7529 207.377C88.7961 207.377 95.5508 204.579 100.531 199.598C105.511 194.618 108.309 187.863 108.309 180.82H127.467C127.454 192.94 122.634 204.561 114.063 213.131C105.493 221.701 93.8731 226.522 81.7529 226.534V226.534Z" fill="#FF0000" stroke="black" stroke-width="3.44092" stroke-miterlimit="10"/>
<path d="M31.3359 192.419L14.0459 199.32L44.6072 275.884L61.8971 268.982L31.3359 192.419Z" fill="black"/>
<path d="M171.097 274.419V255.803H46.0321V274.419H171.097Z" fill="black"/>
<path d="M103.656 287.857H85.0391V422.541H103.656V287.857Z" fill="black"/>
<path d="M104.952 143.316H95.9863V203.542L153.347 193.287L104.952 143.316Z" fill="white"/>
<path d="M95.9864 201.354H67.5127V236.391H95.9864V201.354Z" fill="#FF0000" stroke="black" stroke-width="3.21153" stroke-miterlimit="10"/>
<path d="M58.5462 148.789H67.5124V209.014L7.9873 198.767L58.5462 148.789Z" fill="white"/>
<path d="M104.952 143.316H95.9863V203.542L153.347 193.287L104.952 143.316Z" stroke="black" stroke-width="3.44092" stroke-miterlimit="10"/>
<path d="M58.5462 148.789H67.5124V209.014L7.9873 198.767L58.5462 148.789Z" stroke="black" stroke-width="3.44092" stroke-miterlimit="10"/>
<path d="M85.0391 434.586H119.663C122.967 434.586 126.136 435.899 128.472 438.235C130.809 440.572 132.121 443.74 132.121 447.045V454.292H86.312C85.9744 454.292 85.6506 454.158 85.4119 453.92C85.1732 453.681 85.0391 453.357 85.0391 453.019V434.586Z" fill="white" stroke="black" stroke-width="3.44092" stroke-miterlimit="10"/>
<path d="M115.693 434.586L96.5352 453.751" stroke="black" stroke-width="3.44092" stroke-miterlimit="10"/>
<path d="M122.264 434.586L103.106 453.751" stroke="black" stroke-width="3.44092" stroke-miterlimit="10"/>
<path d="M109.129 434.586L89.9639 453.751" stroke="black" stroke-width="3.44092" stroke-miterlimit="10"/>
<path d="M58.1884 394.48H52.7148V439.375H58.1884V394.48Z" fill="#CCFFCC" stroke="black" stroke-width="2.75274" stroke-miterlimit="10"/>
<path d="M55.4512 395.578C58.7774 395.578 61.4737 392.882 61.4737 389.556C61.4737 386.23 58.7774 383.533 55.4512 383.533C52.1251 383.533 49.4287 386.23 49.4287 389.556C49.4287 392.882 52.1251 395.578 55.4512 395.578Z" fill="#CCFFCC" stroke="black" stroke-width="2.75274" stroke-miterlimit="10"/>
<path d="M65.8577 287.172H47.2412V421.855H65.8577V287.172Z" fill="black"/>
<path d="M48.3389 433.9H82.9624C86.2666 433.9 89.4356 435.213 91.772 437.549C94.1085 439.886 95.4211 443.055 95.4211 446.359V453.607H49.6118C49.2742 453.607 48.9504 453.473 48.7117 453.234C48.473 452.995 48.3389 452.672 48.3389 452.334V433.9Z" fill="white" stroke="black" stroke-width="3.44092" stroke-miterlimit="10"/>
<path d="M78.9925 433.9L59.835 453.066" stroke="black" stroke-width="3.44092" stroke-miterlimit="10"/>
<path d="M85.5637 433.9L66.4062 453.066" stroke="black" stroke-width="3.44092" stroke-miterlimit="10"/>
<path d="M72.4291 433.9L53.2637 453.066" stroke="black" stroke-width="3.44092" stroke-miterlimit="10"/>
<path d="M129.933 357.94H34.6631L55.4674 238.58L129.933 195.873V357.94Z" fill="black"/>
<path d="M177.612 255.284V258.562C177.612 259.169 178.104 259.66 178.71 259.66H184.176C184.782 259.66 185.274 259.169 185.274 258.562V255.284C185.274 254.678 184.782 254.187 184.176 254.187H178.71C178.104 254.187 177.612 254.678 177.612 255.284Z" fill="#CCFFCC" stroke="black" stroke-width="2.40865" stroke-miterlimit="10"/>
<path d="M187.621 255.748V257.888C187.621 258.279 187.938 258.596 188.329 258.596H191.893C192.284 258.596 192.601 258.279 192.601 257.888V255.748C192.601 255.356 192.284 255.039 191.893 255.039H188.329C187.938 255.039 187.621 255.356 187.621 255.748Z" fill="#CCFFCC" stroke="black" stroke-width="2.06455" stroke-miterlimit="10"/>
<path d="M194.2 255.874V258.015C194.2 258.406 194.517 258.723 194.908 258.723H198.472C198.863 258.723 199.181 258.406 199.181 258.015V255.874C199.181 255.483 198.863 255.166 198.472 255.166H194.908C194.517 255.166 194.2 255.483 194.2 255.874Z" fill="#CCFFCC" stroke="black" stroke-width="2.06455" stroke-miterlimit="10"/>
<path d="M177.612 263.242V266.519C177.612 267.126 178.104 267.617 178.71 267.617H184.176C184.782 267.617 185.274 267.126 185.274 266.519V263.242C185.274 262.635 184.782 262.144 184.176 262.144H178.71C178.104 262.144 177.612 262.635 177.612 263.242Z" fill="#CCFFCC" stroke="black" stroke-width="2.40865" stroke-miterlimit="10"/>
<path d="M177.612 271.197V274.474C177.612 275.081 178.104 275.572 178.71 275.572H184.176C184.782 275.572 185.274 275.081 185.274 274.474V271.197C185.274 270.59 184.782 270.099 184.176 270.099H178.71C178.104 270.099 177.612 270.59 177.612 271.197Z" fill="#CCFFCC" stroke="black" stroke-width="2.40865" stroke-miterlimit="10"/>
<path d="M177.612 112.079V115.357C177.612 115.964 178.104 116.455 178.71 116.455H184.176C184.782 116.455 185.274 115.964 185.274 115.357V112.079C185.274 111.473 184.782 110.982 184.176 110.982H178.71C178.104 110.982 177.612 111.473 177.612 112.079Z" fill="#CCFFCC" stroke="black" stroke-width="2.40865" stroke-miterlimit="10"/>
<path d="M187.621 112.542V114.683C187.621 115.074 187.938 115.391 188.329 115.391H191.893C192.284 115.391 192.601 115.074 192.601 114.683V112.542C192.601 112.151 192.284 111.834 191.893 111.834H188.329C187.938 111.834 187.621 112.151 187.621 112.542Z" fill="#CCFFCC" stroke="black" stroke-width="2.06455" stroke-miterlimit="10"/>
<path d="M194.2 112.669V114.81C194.2 115.201 194.517 115.518 194.908 115.518H198.472C198.864 115.518 199.181 115.201 199.181 114.81V112.669C199.181 112.278 198.864 111.961 198.472 111.961H194.908C194.517 111.961 194.2 112.278 194.2 112.669Z" fill="#CCFFCC" stroke="black" stroke-width="2.06455" stroke-miterlimit="10"/>
<path d="M177.612 120.036V123.314C177.612 123.921 178.104 124.412 178.71 124.412H184.176C184.782 124.412 185.274 123.921 185.274 123.314V120.036C185.274 119.43 184.782 118.939 184.176 118.939H178.71C178.104 118.939 177.612 119.43 177.612 120.036Z" fill="#CCFFCC" stroke="black" stroke-width="2.40865" stroke-miterlimit="10"/>
<path d="M177.612 127.992V131.269C177.612 131.876 178.104 132.367 178.71 132.367H184.176C184.782 132.367 185.274 131.876 185.274 131.269V127.992C185.274 127.385 184.782 126.894 184.176 126.894H178.71C178.104 126.894 177.612 127.385 177.612 127.992Z" fill="#CCFFCC" stroke="black" stroke-width="2.40865" stroke-miterlimit="10"/>
<path d="M84.4657 148.774L98.993 146.817C101.013 146.541 102.942 145.802 104.629 144.657C106.316 143.511 107.715 141.991 108.716 140.215C109.718 138.439 110.295 136.456 110.403 134.42C110.51 132.384 110.145 130.35 109.335 128.479L96.6938 99.2415C95.3553 96.139 93.0805 93.5323 90.1876 91.7863C87.2947 90.0403 83.9283 89.2422 80.5595 89.5037L58.9755 91.1983C56.2254 91.4146 53.6123 92.4871 51.5032 94.2651C49.3941 96.0431 47.8951 98.4373 47.2169 101.111L37.1608 140.818C36.7523 142.415 36.7311 144.085 37.0989 145.691C37.4667 147.297 38.2128 148.792 39.2753 150.052C40.3377 151.311 41.6856 152.298 43.2067 152.931C44.7279 153.564 46.3782 153.825 48.0204 153.691L61.6407 151.853" fill="#CCFFCC"/>
<path d="M94.3952 147.43L99.1686 180.215C99.3952 181.497 99.3374 182.812 98.9991 184.069C98.6609 185.326 98.0507 186.492 97.2115 187.487C93.7603 191.231 89.0911 193.628 84.0368 194.249C80.848 194.505 77.6604 193.742 74.9326 192.071C72.2049 190.4 70.0777 187.906 68.8571 184.949L55.8574 152.625" fill="#CCFFCC"/>
<path d="M84.4657 148.774L98.993 146.817C101.013 146.541 102.942 145.802 104.629 144.657C106.316 143.511 107.715 141.991 108.716 140.215C109.718 138.439 110.295 136.456 110.403 134.42C110.51 132.384 110.145 130.35 109.335 128.479L96.6938 99.2415C95.3553 96.139 93.0805 93.5323 90.1876 91.7863C87.2947 90.0403 83.9283 89.2422 80.5595 89.5037L58.9755 91.1983C56.2254 91.4146 53.6123 92.4871 51.5032 94.2651C49.3941 96.0431 47.8951 98.4373 47.2169 101.111L37.1608 140.818C36.7523 142.415 36.7311 144.085 37.0989 145.691C37.4667 147.297 38.2128 148.792 39.2753 150.052C40.3377 151.311 41.6856 152.298 43.2067 152.931C44.7279 153.564 46.3782 153.825 48.0204 153.691L61.6407 151.853" stroke="black" stroke-width="3.44092" stroke-miterlimit="10"/>
<path d="M94.3952 147.43L99.1686 180.215C99.3952 181.497 99.3374 182.812 98.9991 184.069C98.6609 185.326 98.0507 186.492 97.2115 187.487C93.7603 191.231 89.0911 193.628 84.0368 194.249C80.848 194.505 77.6604 193.742 74.9326 192.071C72.2049 190.4 70.0777 187.906 68.8571 184.949L55.8574 152.625" stroke="black" stroke-width="3.44092" stroke-miterlimit="10"/>
<path d="M91.0536 135.862L94.4428 134.462C98.4763 132.791 98.4922 127.739 97.7205 123.594C97.3718 121.746 96.5862 120.009 95.4293 118.526L88.6191 109.775C86.0335 106.386 81.3714 104.834 76.7491 105.797C72.8747 106.593 70.2731 110.069 70.9335 113.522L73.6941 128.089C75.0546 135.194 83.4956 138.996 91.0536 135.862Z" fill="black"/>
<path d="M72.9108 143.187C71.7445 142.226 70.0196 142.392 69.0582 143.558C68.0968 144.724 68.2629 146.449 69.4292 147.411L75.347 152.289C76.5133 153.25 78.2382 153.084 79.1996 151.918C80.161 150.752 79.9949 149.027 78.8286 148.066L72.9108 143.187Z" fill="black"/>
<path d="M73.9273 145.73C74.1767 144.239 73.1705 142.828 71.6797 142.579C70.189 142.329 68.7782 143.335 68.5288 144.826L67.263 152.39C67.0135 153.881 68.0198 155.292 69.5105 155.541C71.0013 155.791 72.412 154.785 72.6615 153.294L73.9273 145.73Z" fill="black"/>
<path d="M54.3373 140.022L59.6995 140.245C60.7823 140.289 61.8628 140.114 62.8764 139.731C63.8901 139.347 64.816 138.763 65.5988 138.014C66.3816 137.265 67.0053 136.365 67.4324 135.369C67.8596 134.373 68.0815 133.301 68.0849 132.218L68.1485 111.421C68.1521 110.386 67.758 109.388 67.0473 108.634C66.3367 107.881 65.3639 107.429 64.3297 107.372L60.8133 107.173C58.331 107.032 55.8697 107.698 53.7974 109.071C51.7252 110.445 50.1534 112.453 49.3172 114.795L45.1643 126.426C44.628 127.929 44.4526 129.538 44.6523 131.121C44.8519 132.705 45.4211 134.22 46.3138 135.543C47.2066 136.866 48.3979 137.961 49.7916 138.739C51.1853 139.517 52.7424 139.957 54.3373 140.022Z" fill="black"/>
<path d="M81.9044 117.668C83.0838 117.363 84.3117 117.293 85.518 117.462C86.7244 117.632 87.8855 118.037 88.9351 118.656C89.9848 119.274 90.9024 120.093 91.6355 121.066C92.3686 122.039 92.903 123.146 93.208 124.326L93.5187 125.527C93.9477 127.186 93.7002 128.947 92.8306 130.424C91.961 131.9 90.5406 132.97 88.8819 133.399L84.7765 134.461C83.4773 134.797 82.0978 134.603 80.9416 133.922C79.7853 133.241 78.9469 132.128 78.6109 130.829L77.2524 125.576C76.8213 123.909 77.07 122.139 77.9439 120.656C78.8178 119.172 80.2452 118.097 81.9121 117.666L81.9044 117.668Z" fill="white"/>
<path d="M89.0491 130.475C91.6942 130.475 93.8385 128.331 93.8385 125.686C93.8385 123.041 91.6942 120.896 89.0491 120.896C86.404 120.896 84.2598 123.041 84.2598 125.686C84.2598 128.331 86.404 130.475 89.0491 130.475Z" fill="black"/>
<path d="M85.7159 127.723C86.1685 127.723 86.5354 127.356 86.5354 126.903C86.5354 126.451 86.1685 126.084 85.7159 126.084C85.2634 126.084 84.8965 126.451 84.8965 126.903C84.8965 127.356 85.2634 127.723 85.7159 127.723Z" fill="white"/>
<path d="M89.0492 127.874C90.2575 127.874 91.237 126.894 91.237 125.686C91.237 124.478 90.2575 123.498 89.0492 123.498C87.8409 123.498 86.8613 124.478 86.8613 125.686C86.8613 126.894 87.8409 127.874 89.0492 127.874Z" fill="white"/>
<path d="M74.7241 167.715L79.0656 166.91L79.9137 171.486C79.9522 171.694 79.9066 171.908 79.7871 172.082C79.6676 172.256 79.4839 172.375 79.2765 172.414L77.3912 172.763C76.9638 172.842 76.5225 172.748 76.1643 172.502C75.8061 172.256 75.5603 171.878 75.4811 171.45L74.7823 167.68L74.7241 167.715Z" fill="black"/>
<path d="M84.3025 171.185L82.4381 171.633C82.233 171.682 82.0166 171.648 81.8367 171.538C81.6568 171.427 81.5281 171.25 81.4788 171.045L80.3923 166.519L84.6548 165.496L85.55 169.225C85.6515 169.647 85.5809 170.093 85.3538 170.464C85.1267 170.834 84.7617 171.099 84.339 171.201L84.3025 171.185Z" fill="black"/>
<path d="M91.1763 168.487L89.6291 168.858C89.4527 168.901 89.2666 168.871 89.1119 168.776C88.9572 168.682 88.8465 168.529 88.8041 168.353L87.8996 164.585L91.4659 163.729L92.2088 166.823C92.2536 167.001 92.2622 167.185 92.2342 167.365C92.2062 167.546 92.1421 167.719 92.0457 167.874C91.9493 168.03 91.8227 168.164 91.6733 168.269C91.5239 168.374 91.3549 168.448 91.1763 168.487V168.487Z" fill="black"/>
<path d="M85.1186 190.86C86.6301 190.86 87.8554 189.635 87.8554 188.124C87.8554 186.612 86.6301 185.387 85.1186 185.387C83.6071 185.387 82.3818 186.612 82.3818 188.124C82.3818 189.635 83.6071 190.86 85.1186 190.86Z" fill="black"/>
<path d="M24.3286 80.3069C18.7596 84.5314 13.9861 107.126 13.9861 107.126L22.3954 101.127L14.726 119.147L25.3867 114.103L2.60938 136.379C2.60938 136.379 10.4378 136.626 16.2217 132.568C22.0055 128.511 5.79964 152.641 5.79964 152.641L17.7333 150.819L10.5572 165.481C10.5572 165.481 30.4466 157.589 33.5096 152.092C43.136 134.86 42.1416 94.2931 53.4467 90.0368C62.2697 86.6874 84.3549 86.401 84.3549 86.401C84.3549 86.401 45.3239 64.4431 24.3286 80.3069Z" fill="#96BD96" stroke="black" stroke-width="2.75274" stroke-miterlimit="10"/>
<path d="M56.9794 90.2588C45.4356 89.7496 34.0509 72.3901 41.9112 62.1988C49.7715 52.0074 56.1759 48.5706 56.1759 48.5706C53.4391 51.6813 50.8376 61.3555 53.9244 63.7581L54.9746 64.5537C54.9746 64.5537 63.8055 53.3042 65.0943 48.1012C66.0331 44.2904 64.7761 58.4437 64.7761 58.4437L78.3009 46.2793L74.4742 54.8954L86.3044 47.7352L85.0554 55.3807L97.9039 49.5332L95.4774 59.7564L111.468 54.0998L101.882 61.5305C101.882 61.5305 107.236 57.6322 116.584 61.9919C125.932 66.3517 133.721 80.4891 136.656 87.9039C141.43 99.9728 162.672 123.299 162.672 123.299L146.514 120.117L152.457 138.646L140.141 128.884L144.564 148.845L131.39 135.09L128.414 154.724L120.411 143.833L117.547 160.842L104.459 120.737L98.5722 100.561C94.7932 90.7918 91.6507 90.6566 79.3113 90.219C79.3113 90.2031 63.4475 90.5372 56.9794 90.2588Z" fill="#96BD96" stroke="black" stroke-width="2.75274" stroke-miterlimit="10"/>
<path d="M64.274 134.064L63.9001 134.501L63.5421 134.963L63.1443 135.384L62.9613 135.544L62.6431 135.814L62.3328 135.862L62.1101 135.806L61.752 135.591L61.2349 135.241L60.6621 134.708L60.2962 134.35L59.7392 133.785L59.2221 133.34L58.9198 133.173L58.6652 133.093L58.4345 133.165L58.0606 133.435L57.8617 133.666L57.5037 134.032L56.5808 135.249L56.1989 135.639L56 135.878L55.642 136.196L55.2761 136.252L54.8544 136.061L54.3055 135.599L53.6531 134.995L53.2553 134.613L52.6427 134.175L52.2529 133.793L52.1097 133.586L51.8392 133.22L51.7596 132.862L52.0221 132.449L52.3722 131.987L52.7063 131.55L53.669 130.579L53.9793 130.165L54.1066 130.006L54.3134 129.553L54.2657 129.195L53.9713 128.901L52.2608 127.437L51.863 127.055L51.6323 126.856L51.33 126.418L51.2266 126.06L51.4653 125.678L51.6403 125.424L52.046 125.002L52.4279 124.66L52.8098 124.262L53.311 123.57L53.7406 123.172L54.1304 122.878L54.4884 122.822L54.8703 123.061L55.5227 123.618L56.3183 124.413L57.2252 125.098L57.5832 125.312L57.806 125.416L58.0924 125.344L58.3868 125.098L58.7289 124.756L59.0312 124.35L59.8904 123.236L60.4473 122.584L60.7894 122.289L61.0679 122.17H61.3065L61.585 122.369L61.7918 122.496L62.1578 122.854L62.7386 123.491L63.1602 123.849L63.7967 124.302L64.4013 124.819L64.64 125.114L64.7355 125.368L64.6798 125.639L64.465 125.997L63.7092 126.88L63.3273 127.278L62.7704 127.826L62.484 128.216L62.301 128.423L62.1419 128.773L62.0862 129.052L62.1737 129.259L62.4203 129.553L63.0409 130.086L64.457 131.168L64.8548 131.55L65.0378 131.749L65.3321 132.091L65.3878 132.497L65.2128 132.974L64.8309 133.419L64.274 134.064ZM53.7247 124.827L53.9156 125.122V124.907L53.8361 124.787L53.7247 124.827ZM52.7382 126.188V126.14H52.6109V126.188L52.6904 126.251L52.7382 126.188ZM53.3508 125.893V125.798H53.2553L53.2076 125.853V125.901H53.2792L53.3508 125.893ZM53.6849 125.607V125.551H53.5894V125.599H53.6849V125.607ZM53.5178 125.909V126.052L53.6213 126.14L54.2259 125.853L53.6133 125.774L53.5178 125.909ZM53.2473 126.49L53.2871 126.339H53.2076L53.12 126.442V126.585L53.2473 126.49ZM54.2179 125.201V125.297H54.3134L54.4009 125.193L54.2736 125.129L54.2179 125.201ZM54.3214 125.599L54.1861 125.487H54.0668L54.1066 125.702H54.2816L54.3214 125.599ZM53.8042 126.737H54.0429L53.9156 126.577L53.7088 126.45V126.331L53.5258 126.227L53.669 126.482H53.7167L53.8042 126.737ZM53.5099 126.737L53.4303 126.665L53.2871 126.729L53.3269 126.848H53.3985L53.5099 126.737ZM54.0747 126.18V126.347H54.2736V126.498L54.4009 126.299L54.0747 126.18ZM54.5521 125.83V125.949L54.9976 126.013V125.965L54.6476 125.798L54.5521 125.83ZM54.7828 126.562L54.9101 126.307L54.743 126.076H54.6953H54.568L54.5044 126.204L54.7828 126.562ZM53.7724 127.055L54.0031 127.206L53.9474 127.063L53.8679 126.999L53.7724 127.055ZM55.1169 125.901V126.172L55.2522 126.426H55.3715L55.4511 126.172L55.284 125.949L55.1169 125.901ZM54.2577 126.967H54.21V127.047L54.2895 127.11L54.385 127.055L54.2577 126.967ZM54.21 127.651L54.0827 127.588L54.2498 127.23L53.8758 127.357L54.0429 127.636L54.21 127.651ZM55.4193 125.702L55.6739 126.092L55.7375 126.331L55.5386 126.569L54.8703 126.713L54.8305 126.864L54.9419 127.047L55.2522 126.951V126.832L55.3636 126.752L55.6022 126.951L55.8648 126.904L55.9046 126.808L55.8489 126.713L55.7534 126.768L55.6739 126.705L55.8807 126.251V126.132L55.9841 125.901L55.4193 125.702ZM54.751 126.705H54.6476V126.832L54.7192 126.896L54.751 126.705ZM54.6953 127.238H54.8146H54.8624L55.2681 127.182V127.087H54.5919L54.5362 127.262H54.5839H54.6794L54.6953 127.238ZM54.6953 127.699L54.6396 127.604V127.484L54.5123 127.421H54.3691L54.1304 127.755L54.1782 127.803H54.6157L54.6953 127.699ZM54.9419 127.413V127.58L54.8226 127.667V127.763H54.9419L55.1249 127.556V127.357L54.9419 127.413ZM57.8617 131.526V131.232L58.0208 131.096L57.8935 130.985L57.7264 131.072H57.631L57.5912 130.858H57.6628V130.659L57.5594 130.619L57.448 130.699H57.3923L57.2889 130.611L57.3525 130.539V130.468L57.5991 130.181L57.7264 130.245L57.7742 130.189V130.094H57.6946L57.7423 130.038L57.7026 129.871H57.5832L57.4718 130.006L57.4002 129.935V129.839L57.5116 129.76V129.617L57.3764 129.505L57.4639 129.354L57.4002 129.481L57.6628 129.696L57.7026 129.648V129.529L57.5991 129.441V129.203L57.7264 128.996H57.8696L58.0049 128.893H58.1322V129.083H58.1242V129.131H58.2436L58.3311 129.251L58.1322 129.8H58.1958V129.879H58.3152V129.68H58.2674L58.4981 129.465H58.5936L58.8721 129.617L58.9118 129.879H59.0869V129.807H59.1823L59.238 129.855L59.4449 129.76V129.64L58.5379 129.227L58.4663 128.94L58.6334 128.543L58.5697 128.399H58.4027L58.2674 128.511L58.0049 128.017L57.7821 128.184L57.5434 127.986H57.4957V127.914L57.6628 127.826L57.7423 127.628V127.58L57.6946 127.532L57.8856 127.468L57.7583 127.405L57.6389 127.492L57.4798 127.309L57.2173 127.039V126.673L57.09 126.562L57.1775 126.41H57.0263L56.915 126.49H56.8672L56.7638 126.402L56.7001 126.211L56.6126 126.363L56.7081 126.673L56.2864 126.856L56.366 126.92H56.8513L56.9547 127.007H55.9841V127.158L55.7295 127.397L55.8887 127.842L56.1989 127.795L56.3501 127.874L55.9284 128.057L55.9682 128.177L55.8409 128.431L55.4431 128.678H55.3238L55.1169 128.503V128.375H55.2363L55.2999 128.296V128.2L54.9658 128.28V128.033L54.7987 128.073L54.7351 128.153H54.6396V128.256L55.4352 129.052L55.4988 128.972L55.6898 128.908L55.65 129.06L55.833 129.529L55.9762 129.418L55.8489 129.091L55.7375 128.885L55.6977 128.67L55.9364 128.336H56.1591L56.2467 128.184L56.2944 128.232L56.5172 128.017L56.5728 127.795L56.5172 127.651H56.3978L56.541 127.278L56.7479 127.182L56.8593 127.373L56.8036 127.5H56.7001L56.6604 127.556H57.4559L57.5116 127.651L57.4161 127.707L57.3525 127.834L57.265 127.938V128.033V128.081H56.8752L56.6683 128.264L56.8036 128.375L56.8672 128.566L56.9945 128.63H57.1138L57.2014 128.527V128.479H57.3286L57.4161 128.367L57.3445 128.137L57.4639 128.049V127.978L57.631 128.256V128.527L57.4718 128.702H56.9945L56.907 128.853L57.0661 129.036H57.1854L57.0025 129.099L56.7638 128.901L56.6206 128.956L56.541 129.107L56.3978 129.171L56.3421 129.076L56.4853 128.702L56.0557 128.789V128.718H55.9603V128.789H56.0637L56.1512 128.956V129.076L56.2069 129.171H56.2785V129.68L56.6524 129.187L57.0184 129.235L56.9786 129.282V129.33H56.8115L56.5888 129.585L56.7081 129.823V129.895L56.5728 130.006L56.5331 130.15H56.732L56.8911 129.975H56.9388L57.0422 130.11V130.285L56.8593 130.396L56.9786 130.46L57.1457 130.372L57.2332 130.531L57.1218 130.714H57.0502L56.899 130.675L56.7638 130.738L56.6285 130.627L56.5172 130.706L56.5728 130.802L56.7001 130.866L56.6365 131.303H56.4694L56.4058 131.478L56.7558 131.279V131.057H56.8274L56.7877 130.937H56.6922L56.7797 130.826L56.9309 130.866L57.0422 130.786L56.915 130.985L56.9627 131.303L57.0422 131.367L57.1059 131.287V131.12L57.1536 131.064L57.2809 131.128L57.3445 131.049V130.929H57.4161H57.4878V131.144H57.4241L57.3207 131.367L57.0104 131.51L56.9309 131.669L57.1854 131.574L57.3764 131.773L57.6628 131.709L57.7026 131.605H57.8219V131.701H57.9174L57.8617 131.526ZM55.9444 126.562V126.633L56.0239 126.697H56.0716L56.0159 126.554L55.9444 126.562ZM55.284 127.747V127.819H55.3556L55.4431 127.715V127.62H55.3715L55.2761 127.675L55.284 127.747ZM56.7161 127.803L56.8195 127.85L56.915 127.795V127.715L56.7877 127.651L56.6763 127.739L56.7161 127.803ZM59.3096 125.249L59.246 125.376V125.495L59.5006 125.304L59.4449 125.209L59.3096 125.249ZM59.604 125.058V125.129L59.6835 125.201H59.7154L59.7551 125.153L59.6517 125.058H59.604ZM60.8371 128.407L60.8849 128.352L61.0519 128.312L61.1156 128.24H60.6621L60.4314 127.819L60.3837 128.407L60.2882 128.511L60.1529 127.986L60.2723 127.691V127.524L59.9063 127.214L59.4608 127.365V127.707L59.3733 127.858L59.1983 127.437L58.8243 127.293L58.522 126.904L58.5936 126.824V126.76L58.6573 126.633L58.9198 126.585V126.705L59.0232 126.8L59.1426 126.76L59.071 126.426L59.3335 126.386V126.219L59.254 126.148V126.052L59.1267 125.989L59.063 126.116L58.9755 126.172L58.6732 126.371L58.5777 126.689L58.347 126.856L58.4265 126.92L58.4902 127.11L58.3629 127.047L57.8935 127.23L58.0049 127.365L58.6732 127.27L58.9278 127.445L58.9994 127.723L59.1823 127.834L59.1346 127.882L59.3494 128.113L59.5722 128.169L59.7074 128.105V127.986L60.1052 128.145L60.1689 128.336L59.9859 128.495L59.8824 128.407V128.312L59.787 128.264L59.7392 128.948L59.954 129.131L59.9938 129.076H60.0416L60.3359 128.781H60.5348L60.8371 128.638L60.9167 128.702H60.9644V128.55L60.8849 128.439L60.8371 128.407ZM55.3715 130.699L55.6977 130.897H55.7375L56.0557 131.255H56.1353H56.2069L55.8807 130.579V130.428L55.7057 130.325L55.5466 130.508L55.65 130.547L55.7375 130.492L55.5545 130.603L55.5068 130.651V130.603H55.3874L55.3079 130.531V130.46H55.2363H55.1647L55.0931 130.81H55.2204L55.3715 130.699ZM60.4394 124.509V124.557L60.495 124.596H60.5666V124.549L60.4394 124.509ZM59.3733 125.758V126.235L59.4528 126.307L59.7551 126.108V125.989L59.3892 125.726L59.3733 125.758ZM59.9063 125.448L59.604 125.591L59.5642 125.79L59.7154 125.702L59.8745 125.838H60.0734L59.9063 125.448ZM58.2754 127.516L58.1481 127.453L57.9174 127.612V127.683L58.0128 127.723L58.2197 127.588L58.2754 127.516ZM60.853 124.278V124.35H60.9724L61.0838 124.215L61.1872 124.262L61.2986 124.223L61.0201 124.079L60.853 124.278ZM56.1194 130.038L56.2864 129.998L56.2069 129.887L56.1035 129.847L56.1194 130.038ZM60.6223 124.978L60.511 124.907H60.3678V124.954L60.495 125.114L60.6223 124.978ZM54.751 131.796L54.9021 131.566H54.7828H54.7351L54.6237 131.645V131.765L54.751 131.796ZM60.9167 124.787L60.9644 124.732L60.8371 124.62H60.686L60.7496 124.764L60.9246 124.827L60.9167 124.787ZM60.2643 125.129L60.2007 125.201V125.297L60.3757 125.09L60.2643 125.129ZM55.3317 131.168V130.945L55.0612 131.208L55.1169 131.303H55.2124L55.3317 131.168ZM53.4383 133.324V133.213H53.3508V133.316L53.4303 133.38L53.4383 133.324ZM60.2086 125.368L60.0575 125.591L60.2882 125.432L60.2086 125.368ZM56.0398 130.619L56.3183 130.452L56.3978 130.245L56.2467 130.165L56.0637 130.325L56.0398 130.619ZM59.8506 126.681L59.7949 126.585H59.6756L59.6279 126.546H59.5722V126.426H59.4528V126.554L59.8268 126.737L59.8506 126.681ZM58.5777 127.747H58.4584L58.3947 127.826H58.2913L58.2038 127.882L58.1242 128.129L58.2277 128.169L58.3152 128.065L58.6891 128.256L58.6334 127.803H58.705V127.707H58.6254L58.5777 127.747ZM54.1463 132.942V132.823L53.9554 132.886L53.9156 132.982V133.053H54.019L54.1463 132.942ZM57.1934 129.155L57.3048 129.346L57.2173 129.402H56.9945L57.1934 129.155ZM60.7178 125.177V125.225L60.4871 125.344V125.631L60.9962 125.082L60.7178 125.177ZM54.6953 132.178L54.8783 132.329H54.9737L55.1806 132.512L56.0319 131.669V131.422L55.4829 132.123H55.3317L55.2044 132.011L55.2681 131.884L55.0612 131.757L54.6953 132.178ZM55.5625 131.208V131.279H55.6818V131.208L55.5784 131.12L55.5625 131.208ZM60.145 125.949H60.1927L60.2802 125.845V125.798H60.2007L60.1132 125.901L60.145 125.949ZM60.0654 126.196L59.9143 126.116L59.8506 126.196V126.291H59.9222L59.9779 126.386L59.9063 126.681L59.9938 126.896H60.0416L60.0654 126.196ZM59.5483 126.991V126.92H59.4767L59.3812 126.975V127.023L59.4847 127.11H59.5324L59.5483 126.991ZM53.7883 133.658H53.9077L54.0668 133.475H54.019L53.9713 133.531L53.8042 133.571L53.7883 133.658ZM57.6071 129.139L57.5196 129.29L57.6071 129.139ZM61.3384 124.811V124.891L61.3861 124.931H61.4816V124.835H61.4338L61.3384 124.811ZM61.6089 124.549H61.8316L61.943 124.469V124.421L61.8873 124.374L61.6089 124.549ZM55.5784 131.709L55.6739 131.757V131.709L55.5943 131.59L55.5466 131.645L55.5784 131.709ZM62.0385 124.095V124.223H62.1021V124.095H62.0385ZM53.8122 134.024V133.952H53.7565L53.6451 134.032L53.7167 134.096H53.8122V134.024ZM61.3622 125.137H61.219L61.1315 125.241L61.4259 125.901L61.4895 125.241L61.3622 125.137ZM54.9419 132.759V132.687H54.8385V132.735L54.9419 132.759ZM57.9731 129.37L57.7821 129.481L57.9492 129.712L58.0367 129.609V128.98L57.8537 129.139L57.9731 129.37ZM60.4394 126.259L60.328 126.347L60.4553 126.41L60.5666 126.323L60.4394 126.259ZM61.0201 125.901H60.7814L60.9565 126.013L61.1713 125.655H61.0042L61.0201 125.901ZM61.0201 127.381H60.9246L60.6701 127.206V126.943L60.503 126.76V126.466L60.1927 126.562L60.2405 126.872H60.3837L60.4712 126.983L60.2643 127.222L60.3121 127.484L60.4394 127.548L60.503 127.468L60.4473 127.373L60.5189 127.293H60.6144L60.9962 127.524L61.1076 127.445L61.3622 127.572L61.5691 127.071L61.0201 127.381ZM54.8067 133.181L54.9976 133.117L55.0374 133.014L54.8862 132.934H54.8146L54.751 133.061L54.8067 133.181ZM61.6248 125.145V125.241H61.6725V125.193L61.6248 125.145ZM59.1823 129.266L59.3812 129.354L59.5165 129.513H59.7154L59.8268 129.426L59.8904 129.617H59.9381V129.521L59.8586 129.41L59.6358 129.354L59.5801 129.259H59.4847L59.2301 129.187L59.1267 129.052V128.757L58.9198 128.582L58.8562 128.71L58.8005 128.662H58.7527V128.781H58.6573V129.076L58.8323 129.131L58.9437 129.052V128.98L59.0073 128.901L59.2301 129.274H59.0312L59.1744 129.481L59.2619 129.426L59.1823 129.266ZM54.6953 133.578V133.531H54.6157L54.5521 133.61V133.658L54.6953 133.578ZM61.219 126.148L61.0917 126.084L60.7257 126.41L60.9803 126.53L61.2111 126.371V126.323L61.219 126.148ZM56.2626 132.067L56.0955 131.884L55.7852 132.194L55.8887 132.242L56.0875 132.051L56.2626 132.067ZM56.7161 132.003L56.6445 131.717H56.3262L56.6683 132.059L56.7161 132.003ZM58.0128 130.006V129.839H57.9651L57.9094 129.967L58.0128 130.006ZM61.585 125.726V125.798V125.869H61.6566L61.7998 125.766V125.702H61.6805L61.585 125.726ZM57.6071 130.5H57.806L57.9731 130.778H58.0447L58.0924 130.722L58.172 130.834H58.2436L58.3629 131.112L58.6811 131.16L57.9969 130.436L58.1561 130.356L58.53 130.181L58.4743 130.404L58.7925 130.142V130.094L58.9596 130.006L58.164 129.895L58.0128 129.76L58.0526 129.975L58.0049 130.03V130.15L57.6071 130.5ZM55.3556 133.077L55.459 133.117L55.6659 132.982V132.791L55.5386 132.99H55.4431L55.3556 133.077ZM59.3335 128.519L59.3892 128.614L59.4449 128.654L59.5563 128.527L59.5006 128.439H59.3733L59.3335 128.519ZM61.5054 126.243L61.3781 126.18H61.3304L61.2906 126.235V126.593H61.3384L61.5054 126.243ZM54.4805 134.454V134.374H54.3611V134.454H54.4805ZM61.3861 126.896V126.752L61.1951 126.713L60.8371 126.864L60.9008 127.007L61.1474 127.087L61.3861 126.896ZM58.3947 129.871H58.514L58.5777 129.792L58.4981 129.728L58.3868 129.807L58.3947 129.871ZM56.358 132.409V132.361H56.2387L56.175 132.433L56.2705 132.473L56.358 132.409ZM61.9987 125.806L61.9589 125.909L62.0623 125.997L62.1101 125.941V125.774L61.9987 125.806ZM60.0495 128.145V128.097V128.145ZM60.6621 127.636H60.5905L60.4791 127.771L60.6462 127.731L60.6621 127.636ZM56.1512 132.862L56.0398 132.942L56.1432 133.038H56.3421L56.5172 132.878L56.183 132.95L56.1512 132.862ZM55.4352 134.231V134.088L55.3477 133.968H55.2044L55.1408 134.096L55.2204 134.159H55.3158L55.4352 134.231ZM57.1536 132.059L57.0502 131.971H56.9547L56.8911 132.043L57.1536 132.059ZM56.6763 132.409L56.5569 132.489V132.592H56.6047L56.6683 132.52L56.6763 132.409ZM59.0312 130.913L59.1823 130.683L58.7766 130.428V130.619H58.9914L59.0312 130.913ZM55.284 135.042V134.971L55.2283 134.875V134.804V134.859V135.05L55.284 135.042ZM59.5403 129.998H59.4687L59.3733 130.054V130.126L59.429 130.269H59.9143V130.221L59.5403 129.998ZM59.6199 130.969L59.7631 130.643L59.5403 130.317H59.3494L59.2619 130.468L59.5483 130.714L59.6199 130.969ZM58.6334 131.701L58.5697 131.558L58.4424 131.446L58.3311 131.526L58.6334 131.701ZM58.8243 132.314L58.7209 132.178L58.8959 131.971V131.773L58.4265 131.908V132.003L58.5379 132.091L58.6016 132.282L58.8243 132.314ZM59.0551 131.518L58.9516 131.43L58.8323 131.51L58.9675 131.621H59.063L59.0551 131.518ZM60.0893 130.15L60.2086 130.802L60.3757 130.762L60.511 130.476L60.2882 130.205L60.0893 130.15ZM60.9485 131.518V131.367L60.8928 131.279H60.7735H60.678L60.9485 130.699L60.8849 130.555L61.0599 130.253L60.4553 129.959L60.5189 130.197L60.6462 130.309L60.8053 130.754L60.0097 131.279L59.7154 131.271L59.8268 131.677L60.2086 131.598L60.1689 131.43L60.3518 131.319L60.5985 131.613L60.9485 131.518ZM59.596 131.311V131.192H59.5006L59.4608 131.335L59.5403 131.454L59.596 131.311ZM60.1927 131.82V131.725L60.0018 131.685L59.8108 131.804L59.3415 131.717L59.2778 131.796L59.3415 131.979H59.4369L59.6199 131.812L59.7233 131.908L60.1927 131.82ZM59.4687 132.457L59.3971 132.17L59.246 132.091H59.1028L59.063 132.242L58.9278 132.393L58.8084 132.433L58.7686 132.528L58.8482 132.6L59.429 132.552L59.4687 132.457ZM59.9859 132.274V132.027H59.9381L59.8188 132.107V132.234V132.282V132.329L59.6835 132.393V132.536H59.8029L59.8665 132.409H59.9143L59.9859 132.274ZM61.2429 131.271L61.2031 131.104L61.1076 131.064V131.144V131.216L61.2429 131.271ZM60.2405 132.449V132.52L60.2962 132.616H60.3678L60.4791 132.481V132.417H60.3757L60.2405 132.449ZM60.5666 133.435L60.6064 133.34L60.495 133.205L60.7337 132.767L60.2007 132.815L60.145 132.719H60.0495L60.0097 132.823L60.1291 132.886L60.1689 132.998L60.2723 133.093L60.1848 133.244L60.2643 133.356L60.5666 133.435ZM61.1156 131.526V131.598H61.219H61.3304L61.402 131.518L61.219 131.415L61.1156 131.526ZM61.1156 133.228V133.149V133.085L61.0201 133.038L60.8769 133.149V133.22L60.9803 133.26L61.1156 133.228ZM62.1339 132.974L61.9748 132.791L61.7839 132.855L61.227 133.459V133.602L61.2986 133.674L61.8316 132.998L61.9828 133.038L62.1339 132.974ZM62.5635 132.528V132.409L62.4044 132.274H62.2851V132.401L62.3726 132.512H62.4681L62.5635 132.528ZM62.3726 133.857L62.2055 133.578V133.284L62.0146 133.618L62.309 133.913L62.3726 133.857ZM61.752 134.271V134.223L61.6964 134.175L61.585 134.255V134.326H61.6645L61.752 134.271ZM62.8897 133.308H62.9613V133.26H62.8897L62.7943 133.316L62.8897 133.308ZM62.0385 134.828L61.9828 134.684L61.8077 134.629L61.9668 134.859H62.0146L62.0385 134.828ZM63.6296 132.759V132.862L63.6933 133.006H63.7569V132.934V132.831L63.7012 132.791L63.6296 132.759ZM62.6033 134.454L62.667 134.326V134.255H62.6192L62.5635 134.382V134.454H62.6033Z" fill="#FF0000"/>
<path d="M93.2892 139.648L97.5535 137.889C102.629 135.781 102.653 129.416 101.675 124.197C101.234 121.877 100.247 119.695 98.7946 117.833L90.2183 106.766C86.9644 102.51 81.093 100.553 75.2773 101.786" stroke="#39B54A" stroke-width="3.44092" stroke-miterlimit="10" stroke-dasharray="1.38 1.38"/>
<path d="M44.0664 137.914C44.1698 138.065 44.2733 138.216 44.3847 138.36" stroke="#FF0000" stroke-width="3.44092" stroke-miterlimit="10"/>
<path d="M45.0928 139.227C46.1835 140.456 47.5122 141.452 48.9986 142.153C50.485 142.855 52.0982 143.248 53.7407 143.308L59.087 143.531" stroke="#FF0000" stroke-width="3.44092" stroke-miterlimit="10" stroke-dasharray="1.41 1.41"/>
<path d="M59.6514 143.562L60.1924 143.578" stroke="#FF0000" stroke-width="3.44092" stroke-miterlimit="10"/>
<path d="M95.5084 163.523L68.4031 168.018L67.2973 167.939L65.8652 163.659" stroke="black" stroke-width="3.44092" stroke-miterlimit="10"/>
<g filter="url(#filter1_f)">
<path d="M24.3286 80.3069C18.7596 84.5314 13.9861 107.126 13.9861 107.126L22.3954 101.127L14.726 119.147L25.3867 114.103L2.60938 136.379C2.60938 136.379 10.4378 136.626 16.2217 132.568C22.0055 128.511 5.79964 152.641 5.79964 152.641L17.7333 150.819L10.5572 165.481C10.5572 165.481 30.4466 157.589 33.5096 152.092C43.136 134.86 42.1416 94.2931 53.4467 90.0368C62.2697 86.6874 84.3549 86.401 84.3549 86.401C84.3549 86.401 45.3239 64.4431 24.3286 80.3069Z" fill="#00E59D"/>
</g>
<g filter="url(#filter2_f)">
<path d="M56.9794 90.2607C45.4356 89.7516 34.0509 72.3921 41.9112 62.2007C49.7715 52.0094 56.1759 48.5725 56.1759 48.5725C53.4391 51.6832 50.8376 61.3574 53.9244 63.7601L54.9746 64.5556C54.9746 64.5556 63.8055 53.3062 65.0943 48.1031C66.0331 44.2923 64.7761 58.4456 64.7761 58.4456L78.3009 46.2812L74.4742 54.8973L86.3044 47.7372L85.0554 55.3826L97.9039 49.5352L95.4774 59.7583L111.468 54.1018L101.882 61.5325C101.882 61.5325 107.236 57.6341 116.584 61.9939C125.932 66.3536 133.721 80.491 136.656 87.9058C141.43 99.9747 162.672 123.301 162.672 123.301L146.514 120.119L152.457 138.648L140.141 128.886L144.564 148.847L131.39 135.091L128.414 154.726L120.411 143.835L117.547 160.844L104.459 120.739L98.5722 100.563C94.7932 90.7938 91.6507 90.6585 79.3113 90.2209C79.3113 90.205 63.4475 90.5392 56.9794 90.2607Z" fill="#00E59D"/>
</g>
</g>
<path d="M276.75 123.35C276.75 125.975 278.775 128 281.4 128H309.75C312.075 128 313.95 126.125 313.95 123.8C313.95 121.475 312.075 119.6 309.75 119.6H285.975V79.7C285.975 77.15 283.95 75.125 281.4 75.125C278.775 75.125 276.75 77.15 276.75 79.7V123.35ZM353.561 92.525C353.561 89.975 351.461 87.95 348.986 87.95C346.436 87.95 344.411 89.975 344.411 92.525V110.75C344.411 116.9 340.736 120.5 335.486 120.5C330.086 120.5 327.011 117.05 327.011 110.9V92.525C327.011 89.975 324.986 87.95 322.436 87.95C319.961 87.95 317.936 89.975 317.936 92.525V113.6C317.936 122.825 323.111 128.825 332.036 128.825C338.186 128.825 341.861 125.6 344.411 121.85V123.875C344.411 126.425 346.511 128.375 348.986 128.375C351.536 128.375 353.561 126.35 353.561 123.875V92.525ZM400.069 77.375C400.069 74.825 398.044 72.875 395.494 72.875C393.019 72.875 390.994 74.825 390.994 77.375V94.55C388.144 90.8 384.019 87.575 377.494 87.575C368.044 87.575 359.119 95 359.119 108.125V108.275C359.119 121.4 368.194 128.825 377.494 128.825C383.944 128.825 388.069 125.525 390.994 121.4V123.875C390.994 126.425 393.019 128.375 395.569 128.375C398.044 128.375 400.069 126.425 400.069 123.875V77.375ZM379.669 95.45C385.744 95.45 391.144 100.475 391.144 108.125V108.275C391.144 115.85 385.744 120.95 379.669 120.95C373.519 120.95 368.269 115.925 368.269 108.275V108.125C368.269 100.25 373.444 95.45 379.669 95.45ZM420.987 128.675H421.287C423.462 128.675 425.337 127.4 426.162 124.775L433.962 101.225L441.687 124.775C442.512 127.4 444.387 128.675 446.637 128.675H446.937C449.112 128.675 450.987 127.4 451.962 124.625L462.762 94.175C462.912 93.725 463.137 92.825 463.137 92.15C463.137 89.9 461.337 87.95 458.862 87.95C456.462 87.95 455.037 89.525 454.437 91.475L446.712 115.55L438.912 91.55C438.237 89.45 436.587 87.95 434.262 87.95H433.737C431.412 87.95 429.762 89.45 429.087 91.55L421.362 115.55L413.712 91.55C413.037 89.45 411.537 87.95 409.287 87.95C406.587 87.95 404.862 89.975 404.862 92.15C404.862 92.9 405.087 93.875 405.312 94.475L415.962 124.625C416.862 127.4 418.737 128.675 420.987 128.675ZM467.752 78.2C467.752 80.9 470.002 82.7 472.927 82.7C475.852 82.7 478.102 80.9 478.102 78.2V77.75C478.102 75.05 475.852 73.325 472.927 73.325C470.002 73.325 467.752 75.05 467.752 77.75V78.2ZM468.427 123.875C468.427 126.425 470.452 128.375 472.927 128.375C475.477 128.375 477.502 126.425 477.502 123.875V92.525C477.502 89.975 475.477 87.95 472.927 87.95C470.377 87.95 468.427 89.975 468.427 92.525V123.875ZM503.237 140.15C510.362 140.15 515.912 138.425 519.512 134.825C522.812 131.525 524.537 126.575 524.537 119.9V92.525C524.537 89.975 522.512 87.95 519.962 87.95C517.487 87.95 515.462 89.975 515.462 92.45V94.325C512.387 90.65 508.262 87.575 501.587 87.575C492.362 87.575 483.587 94.475 483.587 106.175V106.325C483.587 117.95 492.287 124.85 501.587 124.85C508.112 124.85 512.237 121.85 515.537 117.575V120.65C515.537 128.6 511.112 132.8 503.012 132.8C498.437 132.8 494.462 131.675 490.862 129.65C490.412 129.425 489.887 129.275 489.212 129.275C487.112 129.275 485.387 131 485.387 133.025C485.387 134.75 486.362 136.025 487.937 136.625C492.737 138.95 497.687 140.15 503.237 140.15ZM503.987 117.125C497.762 117.125 492.737 112.7 492.737 106.25V106.1C492.737 99.575 497.687 95.225 503.987 95.225C510.287 95.225 515.612 99.65 515.612 106.1V106.25C515.612 112.7 510.287 117.125 503.987 117.125ZM564.49 128.75C572.74 128.75 579.19 124.625 579.19 116.3V116.15C579.19 109.025 572.665 106.4 566.89 104.6C562.24 103.1 557.965 101.9 557.965 98.975V98.825C557.965 96.575 559.99 94.925 563.515 94.925C566.29 94.925 569.59 95.975 572.815 97.625C573.415 97.925 573.865 98.075 574.615 98.075C576.715 98.075 578.365 96.5 578.365 94.4C578.365 92.825 577.465 91.625 576.19 90.95C572.365 88.925 567.94 87.725 563.74 87.725C555.865 87.725 549.64 92.3 549.64 99.8V99.95C549.64 107.525 556.165 109.925 562.015 111.575C566.665 113 570.865 114.05 570.865 117.125V117.275C570.865 119.9 568.615 121.55 564.715 121.55C561.115 121.55 557.14 120.275 553.315 117.725C552.79 117.425 552.115 117.2 551.365 117.2C549.265 117.2 547.69 118.85 547.69 120.875C547.69 122.375 548.44 123.5 549.415 124.025C553.99 127.175 559.465 128.75 564.49 128.75ZM596.138 128.825C602.213 128.825 606.338 126.275 609.038 123.05V124.55C609.038 126.575 610.838 128.375 613.463 128.375C615.938 128.375 617.888 126.5 617.888 124.025V104.525C617.888 99.35 616.538 95.15 613.613 92.3C610.838 89.45 606.413 87.875 600.488 87.875C595.313 87.875 591.488 88.775 587.738 90.2C586.388 90.725 585.263 92.15 585.263 93.8C585.263 95.9 586.988 97.55 589.088 97.55C589.538 97.55 589.988 97.475 590.513 97.325C592.988 96.35 595.838 95.75 599.288 95.75C605.663 95.75 609.113 98.75 609.113 104.375V105.35C606.038 104.375 602.888 103.7 598.463 103.7C588.788 103.7 582.113 107.9 582.113 116.45V116.6C582.113 124.55 588.713 128.825 596.138 128.825ZM598.688 122.225C594.338 122.225 590.963 120.05 590.963 116.225V116.075C590.963 111.95 594.413 109.475 600.263 109.475C603.863 109.475 606.938 110.15 609.263 111.05V113.75C609.263 118.775 604.688 122.225 598.688 122.225ZM631.254 140.225C637.629 140.225 641.229 137.225 644.604 129.125L659.079 94.4C659.229 93.95 659.454 92.975 659.454 92.225C659.454 89.825 657.504 87.95 655.104 87.95C652.779 87.95 651.504 89.525 650.754 91.4L640.854 117.725L630.204 91.4C629.379 89.3 628.104 87.95 625.779 87.95C623.229 87.95 621.279 89.825 621.279 92.375C621.279 92.975 621.504 93.875 621.804 94.55L636.504 127.4L636.204 128.225C634.704 131.3 633.279 132.425 630.579 132.425C629.304 132.425 628.479 132.2 627.429 131.9C626.979 131.75 626.529 131.6 625.779 131.6C623.829 131.6 622.104 133.1 622.104 135.35C622.104 137.525 623.604 138.65 624.954 139.1C626.829 139.85 628.704 140.225 631.254 140.225ZM676.946 128.75C685.196 128.75 691.646 124.625 691.646 116.3V116.15C691.646 109.025 685.121 106.4 679.346 104.6C674.696 103.1 670.421 101.9 670.421 98.975V98.825C670.421 96.575 672.446 94.925 675.971 94.925C678.746 94.925 682.046 95.975 685.271 97.625C685.871 97.925 686.321 98.075 687.071 98.075C689.171 98.075 690.821 96.5 690.821 94.4C690.821 92.825 689.921 91.625 688.646 90.95C684.821 88.925 680.396 87.725 676.196 87.725C668.321 87.725 662.096 92.3 662.096 99.8V99.95C662.096 107.525 668.621 109.925 674.471 111.575C679.121 113 683.321 114.05 683.321 117.125V117.275C683.321 119.9 681.071 121.55 677.171 121.55C673.571 121.55 669.596 120.275 665.771 117.725C665.246 117.425 664.571 117.2 663.821 117.2C661.721 117.2 660.146 118.85 660.146 120.875C660.146 122.375 660.896 123.5 661.871 124.025C666.446 127.175 671.921 128.75 676.946 128.75ZM696.294 122.45V123.2C696.294 126.125 698.544 128.375 701.619 128.375C704.619 128.375 706.869 126.125 706.869 123.2V122.45C706.869 119.525 704.619 117.275 701.619 117.275C698.544 117.275 696.294 119.525 696.294 122.45ZM712.686 122.45V123.2C712.686 126.125 714.936 128.375 718.011 128.375C721.011 128.375 723.261 126.125 723.261 123.2V122.45C723.261 119.525 721.011 117.275 718.011 117.275C714.936 117.275 712.686 119.525 712.686 122.45ZM729.077 122.45V123.2C729.077 126.125 731.327 128.375 734.402 128.375C737.402 128.375 739.652 126.125 739.652 123.2V122.45C739.652 119.525 737.402 117.275 734.402 117.275C731.327 117.275 729.077 119.525 729.077 122.45Z" fill="black"/>
<path d="M276.75 118.35C276.75 120.975 278.775 123 281.4 123H309.75C312.075 123 313.95 121.125 313.95 118.8C313.95 116.475 312.075 114.6 309.75 114.6H285.975V74.7C285.975 72.15 283.95 70.125 281.4 70.125C278.775 70.125 276.75 72.15 276.75 74.7V118.35ZM353.561 87.525C353.561 84.975 351.461 82.95 348.986 82.95C346.436 82.95 344.411 84.975 344.411 87.525V105.75C344.411 111.9 340.736 115.5 335.486 115.5C330.086 115.5 327.011 112.05 327.011 105.9V87.525C327.011 84.975 324.986 82.95 322.436 82.95C319.961 82.95 317.936 84.975 317.936 87.525V108.6C317.936 117.825 323.111 123.825 332.036 123.825C338.186 123.825 341.861 120.6 344.411 116.85V118.875C344.411 121.425 346.511 123.375 348.986 123.375C351.536 123.375 353.561 121.35 353.561 118.875V87.525ZM400.069 72.375C400.069 69.825 398.044 67.875 395.494 67.875C393.019 67.875 390.994 69.825 390.994 72.375V89.55C388.144 85.8 384.019 82.575 377.494 82.575C368.044 82.575 359.119 90 359.119 103.125V103.275C359.119 116.4 368.194 123.825 377.494 123.825C383.944 123.825 388.069 120.525 390.994 116.4V118.875C390.994 121.425 393.019 123.375 395.569 123.375C398.044 123.375 400.069 121.425 400.069 118.875V72.375ZM379.669 90.45C385.744 90.45 391.144 95.475 391.144 103.125V103.275C391.144 110.85 385.744 115.95 379.669 115.95C373.519 115.95 368.269 110.925 368.269 103.275V103.125C368.269 95.25 373.444 90.45 379.669 90.45ZM420.987 123.675H421.287C423.462 123.675 425.337 122.4 426.162 119.775L433.962 96.225L441.687 119.775C442.512 122.4 444.387 123.675 446.637 123.675H446.937C449.112 123.675 450.987 122.4 451.962 119.625L462.762 89.175C462.912 88.725 463.137 87.825 463.137 87.15C463.137 84.9 461.337 82.95 458.862 82.95C456.462 82.95 455.037 84.525 454.437 86.475L446.712 110.55L438.912 86.55C438.237 84.45 436.587 82.95 434.262 82.95H433.737C431.412 82.95 429.762 84.45 429.087 86.55L421.362 110.55L413.712 86.55C413.037 84.45 411.537 82.95 409.287 82.95C406.587 82.95 404.862 84.975 404.862 87.15C404.862 87.9 405.087 88.875 405.312 89.475L415.962 119.625C416.862 122.4 418.737 123.675 420.987 123.675ZM467.752 73.2C467.752 75.9 470.002 77.7 472.927 77.7C475.852 77.7 478.102 75.9 478.102 73.2V72.75C478.102 70.05 475.852 68.325 472.927 68.325C470.002 68.325 467.752 70.05 467.752 72.75V73.2ZM468.427 118.875C468.427 121.425 470.452 123.375 472.927 123.375C475.477 123.375 477.502 121.425 477.502 118.875V87.525C477.502 84.975 475.477 82.95 472.927 82.95C470.377 82.95 468.427 84.975 468.427 87.525V118.875ZM503.237 135.15C510.362 135.15 515.912 133.425 519.512 129.825C522.812 126.525 524.537 121.575 524.537 114.9V87.525C524.537 84.975 522.512 82.95 519.962 82.95C517.487 82.95 515.462 84.975 515.462 87.45V89.325C512.387 85.65 508.262 82.575 501.587 82.575C492.362 82.575 483.587 89.475 483.587 101.175V101.325C483.587 112.95 492.287 119.85 501.587 119.85C508.112 119.85 512.237 116.85 515.537 112.575V115.65C515.537 123.6 511.112 127.8 503.012 127.8C498.437 127.8 494.462 126.675 490.862 124.65C490.412 124.425 489.887 124.275 489.212 124.275C487.112 124.275 485.387 126 485.387 128.025C485.387 129.75 486.362 131.025 487.937 131.625C492.737 133.95 497.687 135.15 503.237 135.15ZM503.987 112.125C497.762 112.125 492.737 107.7 492.737 101.25V101.1C492.737 94.575 497.687 90.225 503.987 90.225C510.287 90.225 515.612 94.65 515.612 101.1V101.25C515.612 107.7 510.287 112.125 503.987 112.125ZM564.49 123.75C572.74 123.75 579.19 119.625 579.19 111.3V111.15C579.19 104.025 572.665 101.4 566.89 99.6C562.24 98.1 557.965 96.9 557.965 93.975V93.825C557.965 91.575 559.99 89.925 563.515 89.925C566.29 89.925 569.59 90.975 572.815 92.625C573.415 92.925 573.865 93.075 574.615 93.075C576.715 93.075 578.365 91.5 578.365 89.4C578.365 87.825 577.465 86.625 576.19 85.95C572.365 83.925 567.94 82.725 563.74 82.725C555.865 82.725 549.64 87.3 549.64 94.8V94.95C549.64 102.525 556.165 104.925 562.015 106.575C566.665 108 570.865 109.05 570.865 112.125V112.275C570.865 114.9 568.615 116.55 564.715 116.55C561.115 116.55 557.14 115.275 553.315 112.725C552.79 112.425 552.115 112.2 551.365 112.2C549.265 112.2 547.69 113.85 547.69 115.875C547.69 117.375 548.44 118.5 549.415 119.025C553.99 122.175 559.465 123.75 564.49 123.75ZM596.138 123.825C602.213 123.825 606.338 121.275 609.038 118.05V119.55C609.038 121.575 610.838 123.375 613.463 123.375C615.938 123.375 617.888 121.5 617.888 119.025V99.525C617.888 94.35 616.538 90.15 613.613 87.3C610.838 84.45 606.413 82.875 600.488 82.875C595.313 82.875 591.488 83.775 587.738 85.2C586.388 85.725 585.263 87.15 585.263 88.8C585.263 90.9 586.988 92.55 589.088 92.55C589.538 92.55 589.988 92.475 590.513 92.325C592.988 91.35 595.838 90.75 599.288 90.75C605.663 90.75 609.113 93.75 609.113 99.375V100.35C606.038 99.375 602.888 98.7 598.463 98.7C588.788 98.7 582.113 102.9 582.113 111.45V111.6C582.113 119.55 588.713 123.825 596.138 123.825ZM598.688 117.225C594.338 117.225 590.963 115.05 590.963 111.225V111.075C590.963 106.95 594.413 104.475 600.263 104.475C603.863 104.475 606.938 105.15 609.263 106.05V108.75C609.263 113.775 604.688 117.225 598.688 117.225ZM631.254 135.225C637.629 135.225 641.229 132.225 644.604 124.125L659.079 89.4C659.229 88.95 659.454 87.975 659.454 87.225C659.454 84.825 657.504 82.95 655.104 82.95C652.779 82.95 651.504 84.525 650.754 86.4L640.854 112.725L630.204 86.4C629.379 84.3 628.104 82.95 625.779 82.95C623.229 82.95 621.279 84.825 621.279 87.375C621.279 87.975 621.504 88.875 621.804 89.55L636.504 122.4L636.204 123.225C634.704 126.3 633.279 127.425 630.579 127.425C629.304 127.425 628.479 127.2 627.429 126.9C626.979 126.75 626.529 126.6 625.779 126.6C623.829 126.6 622.104 128.1 622.104 130.35C622.104 132.525 623.604 133.65 624.954 134.1C626.829 134.85 628.704 135.225 631.254 135.225ZM676.946 123.75C685.196 123.75 691.646 119.625 691.646 111.3V111.15C691.646 104.025 685.121 101.4 679.346 99.6C674.696 98.1 670.421 96.9 670.421 93.975V93.825C670.421 91.575 672.446 89.925 675.971 89.925C678.746 89.925 682.046 90.975 685.271 92.625C685.871 92.925 686.321 93.075 687.071 93.075C689.171 93.075 690.821 91.5 690.821 89.4C690.821 87.825 689.921 86.625 688.646 85.95C684.821 83.925 680.396 82.725 676.196 82.725C668.321 82.725 662.096 87.3 662.096 94.8V94.95C662.096 102.525 668.621 104.925 674.471 106.575C679.121 108 683.321 109.05 683.321 112.125V112.275C683.321 114.9 681.071 116.55 677.171 116.55C673.571 116.55 669.596 115.275 665.771 112.725C665.246 112.425 664.571 112.2 663.821 112.2C661.721 112.2 660.146 113.85 660.146 115.875C660.146 117.375 660.896 118.5 661.871 119.025C666.446 122.175 671.921 123.75 676.946 123.75ZM696.294 117.45V118.2C696.294 121.125 698.544 123.375 701.619 123.375C704.619 123.375 706.869 121.125 706.869 118.2V117.45C706.869 114.525 704.619 112.275 701.619 112.275C698.544 112.275 696.294 114.525 696.294 117.45ZM712.686 117.45V118.2C712.686 121.125 714.936 123.375 718.011 123.375C721.011 123.375 723.261 121.125 723.261 118.2V117.45C723.261 114.525 721.011 112.275 718.011 112.275C714.936 112.275 712.686 114.525 712.686 117.45ZM729.077 117.45V118.2C729.077 121.125 731.327 123.375 734.402 123.375C737.402 123.375 739.652 121.125 739.652 118.2V117.45C739.652 114.525 737.402 112.275 734.402 112.275C731.327 112.275 729.077 114.525 729.077 117.45Z" fill="#FF0000"/>
<g filter="url(#filter3_f)">
<path d="M276.75 118.35C276.75 120.975 278.775 123 281.4 123H309.75C312.075 123 313.95 121.125 313.95 118.8C313.95 116.475 312.075 114.6 309.75 114.6H285.975V74.7C285.975 72.15 283.95 70.125 281.4 70.125C278.775 70.125 276.75 72.15 276.75 74.7V118.35ZM353.561 87.525C353.561 84.975 351.461 82.95 348.986 82.95C346.436 82.95 344.411 84.975 344.411 87.525V105.75C344.411 111.9 340.736 115.5 335.486 115.5C330.086 115.5 327.011 112.05 327.011 105.9V87.525C327.011 84.975 324.986 82.95 322.436 82.95C319.961 82.95 317.936 84.975 317.936 87.525V108.6C317.936 117.825 323.111 123.825 332.036 123.825C338.186 123.825 341.861 120.6 344.411 116.85V118.875C344.411 121.425 346.511 123.375 348.986 123.375C351.536 123.375 353.561 121.35 353.561 118.875V87.525ZM400.069 72.375C400.069 69.825 398.044 67.875 395.494 67.875C393.019 67.875 390.994 69.825 390.994 72.375V89.55C388.144 85.8 384.019 82.575 377.494 82.575C368.044 82.575 359.119 90 359.119 103.125V103.275C359.119 116.4 368.194 123.825 377.494 123.825C383.944 123.825 388.069 120.525 390.994 116.4V118.875C390.994 121.425 393.019 123.375 395.569 123.375C398.044 123.375 400.069 121.425 400.069 118.875V72.375ZM379.669 90.45C385.744 90.45 391.144 95.475 391.144 103.125V103.275C391.144 110.85 385.744 115.95 379.669 115.95C373.519 115.95 368.269 110.925 368.269 103.275V103.125C368.269 95.25 373.444 90.45 379.669 90.45ZM420.987 123.675H421.287C423.462 123.675 425.337 122.4 426.162 119.775L433.962 96.225L441.687 119.775C442.512 122.4 444.387 123.675 446.637 123.675H446.937C449.112 123.675 450.987 122.4 451.962 119.625L462.762 89.175C462.912 88.725 463.137 87.825 463.137 87.15C463.137 84.9 461.337 82.95 458.862 82.95C456.462 82.95 455.037 84.525 454.437 86.475L446.712 110.55L438.912 86.55C438.237 84.45 436.587 82.95 434.262 82.95H433.737C431.412 82.95 429.762 84.45 429.087 86.55L421.362 110.55L413.712 86.55C413.037 84.45 411.537 82.95 409.287 82.95C406.587 82.95 404.862 84.975 404.862 87.15C404.862 87.9 405.087 88.875 405.312 89.475L415.962 119.625C416.862 122.4 418.737 123.675 420.987 123.675ZM467.752 73.2C467.752 75.9 470.002 77.7 472.927 77.7C475.852 77.7 478.102 75.9 478.102 73.2V72.75C478.102 70.05 475.852 68.325 472.927 68.325C470.002 68.325 467.752 70.05 467.752 72.75V73.2ZM468.427 118.875C468.427 121.425 470.452 123.375 472.927 123.375C475.477 123.375 477.502 121.425 477.502 118.875V87.525C477.502 84.975 475.477 82.95 472.927 82.95C470.377 82.95 468.427 84.975 468.427 87.525V118.875ZM503.237 135.15C510.362 135.15 515.912 133.425 519.512 129.825C522.812 126.525 524.537 121.575 524.537 114.9V87.525C524.537 84.975 522.512 82.95 519.962 82.95C517.487 82.95 515.462 84.975 515.462 87.45V89.325C512.387 85.65 508.262 82.575 501.587 82.575C492.362 82.575 483.587 89.475 483.587 101.175V101.325C483.587 112.95 492.287 119.85 501.587 119.85C508.112 119.85 512.237 116.85 515.537 112.575V115.65C515.537 123.6 511.112 127.8 503.012 127.8C498.437 127.8 494.462 126.675 490.862 124.65C490.412 124.425 489.887 124.275 489.212 124.275C487.112 124.275 485.387 126 485.387 128.025C485.387 129.75 486.362 131.025 487.937 131.625C492.737 133.95 497.687 135.15 503.237 135.15ZM503.987 112.125C497.762 112.125 492.737 107.7 492.737 101.25V101.1C492.737 94.575 497.687 90.225 503.987 90.225C510.287 90.225 515.612 94.65 515.612 101.1V101.25C515.612 107.7 510.287 112.125 503.987 112.125ZM564.49 123.75C572.74 123.75 579.19 119.625 579.19 111.3V111.15C579.19 104.025 572.665 101.4 566.89 99.6C562.24 98.1 557.965 96.9 557.965 93.975V93.825C557.965 91.575 559.99 89.925 563.515 89.925C566.29 89.925 569.59 90.975 572.815 92.625C573.415 92.925 573.865 93.075 574.615 93.075C576.715 93.075 578.365 91.5 578.365 89.4C578.365 87.825 577.465 86.625 576.19 85.95C572.365 83.925 567.94 82.725 563.74 82.725C555.865 82.725 549.64 87.3 549.64 94.8V94.95C549.64 102.525 556.165 104.925 562.015 106.575C566.665 108 570.865 109.05 570.865 112.125V112.275C570.865 114.9 568.615 116.55 564.715 116.55C561.115 116.55 557.14 115.275 553.315 112.725C552.79 112.425 552.115 112.2 551.365 112.2C549.265 112.2 547.69 113.85 547.69 115.875C547.69 117.375 548.44 118.5 549.415 119.025C553.99 122.175 559.465 123.75 564.49 123.75ZM596.138 123.825C602.213 123.825 606.338 121.275 609.038 118.05V119.55C609.038 121.575 610.838 123.375 613.463 123.375C615.938 123.375 617.888 121.5 617.888 119.025V99.525C617.888 94.35 616.538 90.15 613.613 87.3C610.838 84.45 606.413 82.875 600.488 82.875C595.313 82.875 591.488 83.775 587.738 85.2C586.388 85.725 585.263 87.15 585.263 88.8C585.263 90.9 586.988 92.55 589.088 92.55C589.538 92.55 589.988 92.475 590.513 92.325C592.988 91.35 595.838 90.75 599.288 90.75C605.663 90.75 609.113 93.75 609.113 99.375V100.35C606.038 99.375 602.888 98.7 598.463 98.7C588.788 98.7 582.113 102.9 582.113 111.45V111.6C582.113 119.55 588.713 123.825 596.138 123.825ZM598.688 117.225C594.338 117.225 590.963 115.05 590.963 111.225V111.075C590.963 106.95 594.413 104.475 600.263 104.475C603.863 104.475 606.938 105.15 609.263 106.05V108.75C609.263 113.775 604.688 117.225 598.688 117.225ZM631.254 135.225C637.629 135.225 641.229 132.225 644.604 124.125L659.079 89.4C659.229 88.95 659.454 87.975 659.454 87.225C659.454 84.825 657.504 82.95 655.104 82.95C652.779 82.95 651.504 84.525 650.754 86.4L640.854 112.725L630.204 86.4C629.379 84.3 628.104 82.95 625.779 82.95C623.229 82.95 621.279 84.825 621.279 87.375C621.279 87.975 621.504 88.875 621.804 89.55L636.504 122.4L636.204 123.225C634.704 126.3 633.279 127.425 630.579 127.425C629.304 127.425 628.479 127.2 627.429 126.9C626.979 126.75 626.529 126.6 625.779 126.6C623.829 126.6 622.104 128.1 622.104 130.35C622.104 132.525 623.604 133.65 624.954 134.1C626.829 134.85 628.704 135.225 631.254 135.225ZM676.946 123.75C685.196 123.75 691.646 119.625 691.646 111.3V111.15C691.646 104.025 685.121 101.4 679.346 99.6C674.696 98.1 670.421 96.9 670.421 93.975V93.825C670.421 91.575 672.446 89.925 675.971 89.925C678.746 89.925 682.046 90.975 685.271 92.625C685.871 92.925 686.321 93.075 687.071 93.075C689.171 93.075 690.821 91.5 690.821 89.4C690.821 87.825 689.921 86.625 688.646 85.95C684.821 83.925 680.396 82.725 676.196 82.725C668.321 82.725 662.096 87.3 662.096 94.8V94.95C662.096 102.525 668.621 104.925 674.471 106.575C679.121 108 683.321 109.05 683.321 112.125V112.275C683.321 114.9 681.071 116.55 677.171 116.55C673.571 116.55 669.596 115.275 665.771 112.725C665.246 112.425 664.571 112.2 663.821 112.2C661.721 112.2 660.146 113.85 660.146 115.875C660.146 117.375 660.896 118.5 661.871 119.025C666.446 122.175 671.921 123.75 676.946 123.75ZM696.294 117.45V118.2C696.294 121.125 698.544 123.375 701.619 123.375C704.619 123.375 706.869 121.125 706.869 118.2V117.45C706.869 114.525 704.619 112.275 701.619 112.275C698.544 112.275 696.294 114.525 696.294 117.45ZM712.686 117.45V118.2C712.686 121.125 714.936 123.375 718.011 123.375C721.011 123.375 723.261 121.125 723.261 118.2V117.45C723.261 114.525 721.011 112.275 718.011 112.275C714.936 112.275 712.686 114.525 712.686 117.45ZM729.077 117.45V118.2C729.077 121.125 731.327 123.375 734.402 123.375C737.402 123.375 739.652 121.125 739.652 118.2V117.45C739.652 114.525 737.402 112.275 734.402 112.275C731.327 112.275 729.077 114.525 729.077 117.45ZM745.469 117.45V118.2C745.469 121.125 747.719 123.375 750.794 123.375C753.794 123.375 756.044 121.125 756.044 118.2V117.45C756.044 114.525 753.794 112.275 750.794 112.275C747.719 112.275 745.469 114.525 745.469 117.45Z" fill="#FF0000"/>
</g>
<path d="M315.48 203.76C315.48 205.12 316.6 206.2 317.96 206.2C319.32 206.2 320.44 205.12 320.44 203.76V182.56H327.28C328.52 182.56 329.52 181.52 329.52 180.28C329.52 179.04 328.52 178 327.28 178H308.68C307.4 178 306.4 179.04 306.4 180.28C306.4 181.52 307.4 182.56 308.68 182.56H315.48V203.76ZM335.487 206.44C338.727 206.44 340.927 205.08 342.367 203.36V204.16C342.367 205.24 343.327 206.2 344.727 206.2C346.047 206.2 347.087 205.2 347.087 203.88V193.48C347.087 190.72 346.367 188.48 344.807 186.96C343.327 185.44 340.967 184.6 337.807 184.6C335.047 184.6 333.007 185.08 331.007 185.84C330.287 186.12 329.687 186.88 329.687 187.76C329.687 188.88 330.607 189.76 331.727 189.76C331.967 189.76 332.207 189.72 332.487 189.64C333.807 189.12 335.327 188.8 337.167 188.8C340.567 188.8 342.407 190.4 342.407 193.4V193.92C340.767 193.4 339.087 193.04 336.727 193.04C331.567 193.04 328.007 195.28 328.007 199.84V199.92C328.007 204.16 331.527 206.44 335.487 206.44ZM336.847 202.92C334.527 202.92 332.727 201.76 332.727 199.72V199.64C332.727 197.44 334.567 196.12 337.687 196.12C339.607 196.12 341.247 196.48 342.487 196.96V198.4C342.487 201.08 340.047 202.92 336.847 202.92ZM352.884 203.8C352.884 205.16 353.964 206.2 355.284 206.2C356.644 206.2 357.724 205.16 357.724 203.8V200.12L360.924 197.08L366.964 205.12C367.564 205.88 368.124 206.2 369.084 206.2C370.324 206.2 371.364 205.32 371.364 204C371.364 203.44 371.164 203 370.724 202.4L364.324 194.04L369.924 188.88C370.604 188.24 371.004 187.64 371.004 186.84C371.004 185.68 370.164 184.64 368.884 184.64C368.044 184.64 367.444 185.04 366.804 185.68L357.724 194.6V179C357.724 177.68 356.644 176.6 355.284 176.6C353.924 176.6 352.884 177.68 352.884 179V203.8ZM379.141 193.96C379.581 190.68 381.661 188.4 384.621 188.4C387.821 188.4 389.661 190.84 389.981 193.96H379.141ZM392.781 203.68C393.141 203.32 393.421 202.8 393.421 202.2C393.421 201.08 392.581 200.24 391.501 200.24C390.941 200.24 390.621 200.4 390.261 200.68C388.901 201.8 387.301 202.52 385.261 202.52C382.141 202.52 379.701 200.6 379.181 197.16H392.421C393.661 197.16 394.701 196.2 394.701 194.84C394.701 189.96 391.381 184.44 384.661 184.44C378.621 184.44 374.341 189.4 374.341 195.44V195.52C374.341 202.04 379.061 206.48 385.181 206.48C388.461 206.48 390.861 205.4 392.781 203.68ZM415.474 212.52C418.874 212.52 420.794 210.92 422.594 206.6L430.314 188.08C430.394 187.84 430.514 187.32 430.514 186.92C430.514 185.64 429.474 184.64 428.194 184.64C426.954 184.64 426.274 185.48 425.874 186.48L420.594 200.52L414.914 186.48C414.474 185.36 413.794 184.64 412.554 184.64C411.194 184.64 410.154 185.64 410.154 187C410.154 187.32 410.274 187.8 410.434 188.16L418.274 205.68L418.114 206.12C417.314 207.76 416.554 208.36 415.114 208.36C414.434 208.36 413.994 208.24 413.434 208.08C413.194 208 412.954 207.92 412.554 207.92C411.514 207.92 410.594 208.72 410.594 209.92C410.594 211.08 411.394 211.68 412.114 211.92C413.114 212.32 414.114 212.52 415.474 212.52ZM444.369 206.48C450.889 206.48 455.689 201.48 455.689 195.48V195.4C455.689 189.36 450.929 184.44 444.449 184.44C437.969 184.44 433.169 189.44 433.169 195.48V195.56C433.169 201.56 437.929 206.48 444.369 206.48ZM444.449 202.24C440.689 202.24 438.009 199.16 438.009 195.48V195.4C438.009 191.72 440.489 188.68 444.369 188.68C448.169 188.68 450.849 191.76 450.849 195.48V195.56C450.849 199.2 448.369 202.24 444.449 202.24ZM479.378 187.08C479.378 185.72 478.258 184.64 476.938 184.64C475.578 184.64 474.498 185.72 474.498 187.08V196.8C474.498 200.08 472.538 202 469.738 202C466.858 202 465.218 200.16 465.218 196.88V187.08C465.218 185.72 464.138 184.64 462.778 184.64C461.458 184.64 460.378 185.72 460.378 187.08V198.32C460.378 203.24 463.138 206.44 467.898 206.44C471.178 206.44 473.138 204.72 474.498 202.72V203.8C474.498 205.16 475.618 206.2 476.938 206.2C478.298 206.2 479.378 205.12 479.378 203.8V187.08ZM485.423 203.8C485.423 205.16 486.503 206.2 487.823 206.2C489.183 206.2 490.263 205.12 490.263 203.8V197.56C490.263 192.56 492.623 189.92 496.063 189.32C497.143 189.12 497.983 188.28 497.983 187C497.983 185.6 497.103 184.6 495.583 184.6C493.463 184.6 491.383 186.6 490.263 189.24V187.08C490.263 185.72 489.183 184.64 487.823 184.64C486.463 184.64 485.423 185.72 485.423 187.08V203.8ZM521.018 206.36C522.298 206.36 523.298 206.16 524.338 205.8C525.018 205.52 525.618 204.8 525.618 203.92C525.618 202.8 524.658 201.92 523.578 201.92C523.418 201.92 522.938 202.04 522.378 202.04C520.738 202.04 519.778 201.28 519.778 199.4V189.04H523.578C524.738 189.04 525.698 188.12 525.698 186.96C525.698 185.8 524.738 184.88 523.578 184.88H519.778V181.28C519.778 179.96 518.698 178.88 517.378 178.88C516.018 178.88 514.938 179.96 514.938 181.28V184.88H514.138C512.978 184.88 512.058 185.8 512.058 186.96C512.058 188.12 512.978 189.04 514.138 189.04H514.938V200.16C514.938 204.8 517.458 206.36 521.018 206.36ZM530.304 179.44C530.304 180.88 531.504 181.84 533.064 181.84C534.624 181.84 535.824 180.88 535.824 179.44V179.2C535.824 177.76 534.624 176.84 533.064 176.84C531.504 176.84 530.304 177.76 530.304 179.2V179.44ZM530.664 203.8C530.664 205.16 531.744 206.2 533.064 206.2C534.424 206.2 535.504 205.16 535.504 203.8V187.08C535.504 185.72 534.424 184.64 533.064 184.64C531.704 184.64 530.664 185.72 530.664 187.08V203.8ZM541.829 203.8C541.829 205.16 542.909 206.2 544.229 206.2C545.589 206.2 546.669 205.16 546.669 203.8V194.08C546.669 190.84 548.509 188.84 551.189 188.84C553.869 188.84 555.469 190.68 555.469 193.96V203.8C555.469 205.16 556.549 206.2 557.909 206.2C559.229 206.2 560.309 205.16 560.309 203.8V194.08C560.309 190.68 562.189 188.84 564.829 188.84C567.549 188.84 569.109 190.64 569.109 194V203.8C569.109 205.16 570.189 206.2 571.549 206.2C572.909 206.2 573.949 205.16 573.949 203.8V192.52C573.949 187.36 571.149 184.44 566.549 184.44C563.349 184.44 561.109 185.92 559.429 188.16C558.309 185.92 556.149 184.44 553.109 184.44C549.869 184.44 548.029 186.2 546.669 188.08V187.08C546.669 185.72 545.589 184.64 544.229 184.64C542.869 184.64 541.829 185.72 541.829 187.08V203.8ZM583.477 193.96C583.917 190.68 585.997 188.4 588.957 188.4C592.157 188.4 593.997 190.84 594.317 193.96H583.477ZM597.117 203.68C597.477 203.32 597.757 202.8 597.757 202.2C597.757 201.08 596.917 200.24 595.837 200.24C595.277 200.24 594.957 200.4 594.597 200.68C593.237 201.8 591.637 202.52 589.597 202.52C586.477 202.52 584.037 200.6 583.517 197.16H596.757C597.997 197.16 599.037 196.2 599.037 194.84C599.037 189.96 595.717 184.44 588.997 184.44C582.957 184.44 578.677 189.4 578.677 195.44V195.52C578.677 202.04 583.397 206.48 589.517 206.48C592.797 206.48 595.197 205.4 597.117 203.68Z" fill="#00E59D"/>
<path d="M315.48 285.76C315.48 287.12 316.6 288.2 317.96 288.2C319.32 288.2 320.44 287.12 320.44 285.76V264.56H327.28C328.52 264.56 329.52 263.52 329.52 262.28C329.52 261.04 328.52 260 327.28 260H308.68C307.4 260 306.4 261.04 306.4 262.28C306.4 263.52 307.4 264.56 308.68 264.56H315.48V285.76ZM333.743 285.8C333.743 287.16 334.823 288.2 336.143 288.2C337.503 288.2 338.583 287.16 338.583 285.8V276.08C338.583 272.8 340.543 270.84 343.343 270.84C346.223 270.84 347.863 272.72 347.863 276V285.8C347.863 287.16 348.943 288.2 350.303 288.2C351.663 288.2 352.703 287.16 352.703 285.8V274.52C352.703 269.64 349.943 266.44 345.183 266.44C341.903 266.44 339.943 268.16 338.583 270.12V261C338.583 259.68 337.503 258.6 336.143 258.6C334.783 258.6 333.743 259.68 333.743 261V285.8ZM362.188 275.96C362.628 272.68 364.708 270.4 367.668 270.4C370.868 270.4 372.708 272.84 373.028 275.96H362.188ZM375.828 285.68C376.188 285.32 376.468 284.8 376.468 284.2C376.468 283.08 375.628 282.24 374.548 282.24C373.988 282.24 373.668 282.4 373.308 282.68C371.948 283.8 370.348 284.52 368.308 284.52C365.188 284.52 362.748 282.6 362.228 279.16H375.468C376.708 279.16 377.748 278.2 377.748 276.84C377.748 271.96 374.428 266.44 367.708 266.44C361.668 266.44 357.388 271.4 357.388 277.44V277.52C357.388 284.04 362.108 288.48 368.228 288.48C371.508 288.48 373.908 287.4 375.828 285.68ZM394.681 292.2C394.681 293.56 395.761 294.6 397.081 294.6C398.441 294.6 399.521 293.56 399.521 292.2V284.72C401.001 286.68 403.201 288.44 406.721 288.44C411.721 288.44 416.521 284.48 416.521 277.48V277.4C416.521 270.36 411.681 266.44 406.721 266.44C403.281 266.44 401.081 268.2 399.521 270.4V269.08C399.521 267.72 398.441 266.64 397.081 266.64C395.721 266.64 394.681 267.72 394.681 269.08V292.2ZM405.561 284.24C402.281 284.24 399.401 281.52 399.401 277.48V277.4C399.401 273.36 402.281 270.64 405.561 270.64C408.841 270.64 411.601 273.32 411.601 277.4V277.48C411.601 281.64 408.881 284.24 405.561 284.24ZM421.517 285.8C421.517 287.16 422.597 288.2 423.917 288.2C425.277 288.2 426.357 287.12 426.357 285.8V279.56C426.357 274.56 428.717 271.92 432.157 271.32C433.237 271.12 434.077 270.28 434.077 269C434.077 267.6 433.197 266.6 431.677 266.6C429.557 266.6 427.477 268.6 426.357 271.24V269.08C426.357 267.72 425.277 266.64 423.917 266.64C422.557 266.64 421.517 267.72 421.517 269.08V285.8ZM437.96 261.44C437.96 262.88 439.16 263.84 440.72 263.84C442.28 263.84 443.48 262.88 443.48 261.44V261.2C443.48 259.76 442.28 258.84 440.72 258.84C439.16 258.84 437.96 259.76 437.96 261.2V261.44ZM438.32 285.8C438.32 287.16 439.4 288.2 440.72 288.2C442.08 288.2 443.16 287.16 443.16 285.8V269.08C443.16 267.72 442.08 266.64 440.72 266.64C439.36 266.64 438.32 267.72 438.32 269.08V285.8ZM459.245 288.48C462.765 288.48 465.045 287.28 466.925 285.48C467.365 285.12 467.605 284.6 467.605 283.96C467.605 282.8 466.685 281.84 465.525 281.84C464.965 281.84 464.485 282.12 464.205 282.36C462.885 283.48 461.405 284.24 459.485 284.24C455.765 284.24 453.165 281.24 453.165 277.48V277.4C453.165 273.72 455.765 270.68 459.285 270.68C461.205 270.68 462.565 271.44 463.805 272.48C464.125 272.72 464.645 272.96 465.245 272.96C466.485 272.96 467.485 272 467.485 270.76C467.485 269.96 467.045 269.36 466.725 269.08C464.925 267.52 462.645 266.44 459.325 266.44C452.965 266.44 448.325 271.48 448.325 277.48V277.56C448.325 283.56 452.965 288.48 459.245 288.48ZM475.391 275.96C475.831 272.68 477.911 270.4 480.871 270.4C484.071 270.4 485.911 272.84 486.231 275.96H475.391ZM489.031 285.68C489.391 285.32 489.671 284.8 489.671 284.2C489.671 283.08 488.831 282.24 487.751 282.24C487.191 282.24 486.871 282.4 486.511 282.68C485.151 283.8 483.551 284.52 481.511 284.52C478.391 284.52 475.951 282.6 475.431 279.16H488.671C489.911 279.16 490.951 278.2 490.951 276.84C490.951 271.96 487.631 266.44 480.911 266.44C474.871 266.44 470.591 271.4 470.591 277.44V277.52C470.591 284.04 475.311 288.48 481.431 288.48C484.711 288.48 487.111 287.4 489.031 285.68ZM507.804 261.44C507.804 262.88 509.004 263.84 510.564 263.84C512.124 263.84 513.324 262.88 513.324 261.44V261.2C513.324 259.76 512.124 258.84 510.564 258.84C509.004 258.84 507.804 259.76 507.804 261.2V261.44ZM508.164 285.8C508.164 287.16 509.244 288.2 510.564 288.2C511.924 288.2 513.004 287.16 513.004 285.8V269.08C513.004 267.72 511.924 266.64 510.564 266.64C509.204 266.64 508.164 267.72 508.164 269.08V285.8ZM526.569 288.4C530.969 288.4 534.409 286.2 534.409 281.76V281.68C534.409 277.88 530.929 276.48 527.849 275.52C525.369 274.72 523.089 274.08 523.089 272.52V272.44C523.089 271.24 524.169 270.36 526.049 270.36C527.529 270.36 529.289 270.92 531.009 271.8C531.329 271.96 531.569 272.04 531.969 272.04C533.089 272.04 533.969 271.2 533.969 270.08C533.969 269.24 533.489 268.6 532.809 268.24C530.769 267.16 528.409 266.52 526.169 266.52C521.969 266.52 518.649 268.96 518.649 272.96V273.04C518.649 277.08 522.129 278.36 525.249 279.24C527.729 280 529.969 280.56 529.969 282.2V282.28C529.969 283.68 528.769 284.56 526.689 284.56C524.769 284.56 522.649 283.88 520.609 282.52C520.329 282.36 519.969 282.24 519.569 282.24C518.449 282.24 517.609 283.12 517.609 284.2C517.609 285 518.009 285.6 518.529 285.88C520.969 287.56 523.889 288.4 526.569 288.4ZM572.12 261C572.12 259.64 571.04 258.6 569.68 258.6C568.36 258.6 567.28 259.64 567.28 261V270.16C565.76 268.16 563.56 266.44 560.08 266.44C555.04 266.44 550.28 270.4 550.28 277.4V277.48C550.28 284.48 555.12 288.44 560.08 288.44C563.52 288.44 565.72 286.68 567.28 284.48V285.8C567.28 287.16 568.36 288.2 569.72 288.2C571.04 288.2 572.12 287.16 572.12 285.8V261ZM561.24 270.64C564.48 270.64 567.36 273.32 567.36 277.4V277.48C567.36 281.52 564.48 284.24 561.24 284.24C557.96 284.24 555.16 281.56 555.16 277.48V277.4C555.16 273.2 557.92 270.64 561.24 270.64ZM581.836 275.96C582.276 272.68 584.356 270.4 587.316 270.4C590.516 270.4 592.356 272.84 592.676 275.96H581.836ZM595.476 285.68C595.836 285.32 596.116 284.8 596.116 284.2C596.116 283.08 595.276 282.24 594.196 282.24C593.636 282.24 593.316 282.4 592.956 282.68C591.596 283.8 589.996 284.52 587.956 284.52C584.836 284.52 582.396 282.6 581.876 279.16H595.116C596.356 279.16 597.396 278.2 597.396 276.84C597.396 271.96 594.076 266.44 587.356 266.44C581.316 266.44 577.036 271.4 577.036 277.44V277.52C577.036 284.04 581.756 288.48 587.876 288.48C591.156 288.48 593.556 287.4 595.476 285.68ZM609.577 288.4C613.977 288.4 617.417 286.2 617.417 281.76V281.68C617.417 277.88 613.937 276.48 610.857 275.52C608.377 274.72 606.097 274.08 606.097 272.52V272.44C606.097 271.24 607.177 270.36 609.057 270.36C610.537 270.36 612.297 270.92 614.017 271.8C614.337 271.96 614.577 272.04 614.977 272.04C616.097 272.04 616.977 271.2 616.977 270.08C616.977 269.24 616.497 268.6 615.817 268.24C613.777 267.16 611.417 266.52 609.177 266.52C604.977 266.52 601.657 268.96 601.657 272.96V273.04C601.657 277.08 605.137 278.36 608.257 279.24C610.737 280 612.977 280.56 612.977 282.2V282.28C612.977 283.68 611.777 284.56 609.697 284.56C607.777 284.56 605.657 283.88 603.617 282.52C603.337 282.36 602.977 282.24 602.577 282.24C601.457 282.24 600.617 283.12 600.617 284.2C600.617 285 601.017 285.6 601.537 285.88C603.977 287.56 606.897 288.4 609.577 288.4ZM622.296 261.44C622.296 262.88 623.496 263.84 625.056 263.84C626.616 263.84 627.816 262.88 627.816 261.44V261.2C627.816 259.76 626.616 258.84 625.056 258.84C623.496 258.84 622.296 259.76 622.296 261.2V261.44ZM622.656 285.8C622.656 287.16 623.736 288.2 625.056 288.2C626.416 288.2 627.496 287.16 627.496 285.8V269.08C627.496 267.72 626.416 266.64 625.056 266.64C623.696 266.64 622.656 267.72 622.656 269.08V285.8ZM643.221 294.48C647.021 294.48 649.981 293.56 651.901 291.64C653.661 289.88 654.581 287.24 654.581 283.68V269.08C654.581 267.72 653.501 266.64 652.141 266.64C650.821 266.64 649.741 267.72 649.741 269.04V270.04C648.101 268.08 645.901 266.44 642.341 266.44C637.421 266.44 632.741 270.12 632.741 276.36V276.44C632.741 282.64 637.381 286.32 642.341 286.32C645.821 286.32 648.021 284.72 649.781 282.44V284.08C649.781 288.32 647.421 290.56 643.101 290.56C640.661 290.56 638.541 289.96 636.621 288.88C636.381 288.76 636.101 288.68 635.741 288.68C634.621 288.68 633.701 289.6 633.701 290.68C633.701 291.6 634.221 292.28 635.061 292.6C637.621 293.84 640.261 294.48 643.221 294.48ZM643.621 282.2C640.301 282.2 637.621 279.84 637.621 276.4V276.32C637.621 272.84 640.261 270.52 643.621 270.52C646.981 270.52 649.821 272.88 649.821 276.32V276.4C649.821 279.84 646.981 282.2 643.621 282.2ZM660.657 285.8C660.657 287.16 661.737 288.2 663.057 288.2C664.417 288.2 665.497 287.16 665.497 285.8V276.08C665.497 272.8 667.457 270.84 670.257 270.84C673.137 270.84 674.777 272.72 674.777 276V285.8C674.777 287.16 675.857 288.2 677.217 288.2C678.577 288.2 679.617 287.16 679.617 285.8V274.52C679.617 269.64 676.857 266.44 672.097 266.44C668.817 266.44 666.857 268.16 665.497 270.12V269.08C665.497 267.72 664.417 266.64 663.057 266.64C661.697 266.64 660.657 267.72 660.657 269.08V285.8ZM689.102 275.96C689.542 272.68 691.622 270.4 694.582 270.4C697.782 270.4 699.622 272.84 699.942 275.96H689.102ZM702.742 285.68C703.102 285.32 703.382 284.8 703.382 284.2C703.382 283.08 702.542 282.24 701.462 282.24C700.902 282.24 700.582 282.4 700.222 282.68C698.862 283.8 697.262 284.52 695.222 284.52C692.102 284.52 689.662 282.6 689.142 279.16H702.382C703.622 279.16 704.662 278.2 704.662 276.84C704.662 271.96 701.342 266.44 694.622 266.44C688.582 266.44 684.302 271.4 684.302 277.44V277.52C684.302 284.04 689.022 288.48 695.142 288.48C698.422 288.48 700.822 287.4 702.742 285.68ZM730.363 261C730.363 259.64 729.283 258.6 727.923 258.6C726.603 258.6 725.523 259.64 725.523 261V270.16C724.003 268.16 721.803 266.44 718.322 266.44C713.283 266.44 708.523 270.4 708.523 277.4V277.48C708.523 284.48 713.363 288.44 718.322 288.44C721.763 288.44 723.963 286.68 725.523 284.48V285.8C725.523 287.16 726.603 288.2 727.963 288.2C729.283 288.2 730.363 287.16 730.363 285.8V261ZM719.483 270.64C722.723 270.64 725.603 273.32 725.603 277.4V277.48C725.603 281.52 722.723 284.24 719.483 284.24C716.203 284.24 713.403 281.56 713.403 277.48V277.4C713.403 273.2 716.163 270.64 719.483 270.64Z" fill="#00E59D"/>
<path d="M320.12 336.36C321.4 336.36 322.4 336.16 323.44 335.8C324.12 335.52 324.72 334.8 324.72 333.92C324.72 332.8 323.76 331.92 322.68 331.92C322.52 331.92 322.04 332.04 321.48 332.04C319.84 332.04 318.88 331.28 318.88 329.4V319.04H322.68C323.84 319.04 324.8 318.12 324.8 316.96C324.8 315.8 323.84 314.88 322.68 314.88H318.88V311.28C318.88 309.96 317.8 308.88 316.48 308.88C315.12 308.88 314.04 309.96 314.04 311.28V314.88H313.24C312.08 314.88 311.16 315.8 311.16 316.96C311.16 318.12 312.08 319.04 313.24 319.04H314.04V330.16C314.04 334.8 316.56 336.36 320.12 336.36ZM338.939 336.48C345.459 336.48 350.259 331.48 350.259 325.48V325.4C350.259 319.36 345.499 314.44 339.019 314.44C332.539 314.44 327.739 319.44 327.739 325.48V325.56C327.739 331.56 332.499 336.48 338.939 336.48ZM339.019 332.24C335.259 332.24 332.579 329.16 332.579 325.48V325.4C332.579 321.72 335.059 318.68 338.939 318.68C342.739 318.68 345.419 321.76 345.419 325.48V325.56C345.419 329.2 342.939 332.24 339.019 332.24ZM376.581 342.48C380.381 342.48 383.341 341.56 385.261 339.64C387.021 337.88 387.941 335.24 387.941 331.68V317.08C387.941 315.72 386.861 314.64 385.501 314.64C384.181 314.64 383.101 315.72 383.101 317.04V318.04C381.461 316.08 379.261 314.44 375.701 314.44C370.781 314.44 366.101 318.12 366.101 324.36V324.44C366.101 330.64 370.741 334.32 375.701 334.32C379.181 334.32 381.381 332.72 383.141 330.44V332.08C383.141 336.32 380.781 338.56 376.461 338.56C374.021 338.56 371.901 337.96 369.981 336.88C369.741 336.76 369.461 336.68 369.101 336.68C367.981 336.68 367.061 337.6 367.061 338.68C367.061 339.6 367.581 340.28 368.421 340.6C370.981 341.84 373.621 342.48 376.581 342.48ZM376.981 330.2C373.661 330.2 370.981 327.84 370.981 324.4V324.32C370.981 320.84 373.621 318.52 376.981 318.52C380.341 318.52 383.181 320.88 383.181 324.32V324.4C383.181 327.84 380.341 330.2 376.981 330.2ZM404.057 336.48C410.577 336.48 415.377 331.48 415.377 325.48V325.4C415.377 319.36 410.617 314.44 404.137 314.44C397.657 314.44 392.857 319.44 392.857 325.48V325.56C392.857 331.56 397.617 336.48 404.057 336.48ZM404.137 332.24C400.377 332.24 397.697 329.16 397.697 325.48V325.4C397.697 321.72 400.177 318.68 404.057 318.68C407.857 318.68 410.537 321.76 410.537 325.48V325.56C410.537 329.2 408.057 332.24 404.137 332.24ZM453.058 309C453.058 307.64 451.978 306.6 450.618 306.6C449.298 306.6 448.218 307.64 448.218 309V318.16C446.698 316.16 444.498 314.44 441.018 314.44C435.978 314.44 431.218 318.4 431.218 325.4V325.48C431.218 332.48 436.058 336.44 441.018 336.44C444.458 336.44 446.658 334.68 448.218 332.48V333.8C448.218 335.16 449.298 336.2 450.658 336.2C451.978 336.2 453.058 335.16 453.058 333.8V309ZM442.178 318.64C445.418 318.64 448.298 321.32 448.298 325.4V325.48C448.298 329.52 445.418 332.24 442.178 332.24C438.898 332.24 436.098 329.56 436.098 325.48V325.4C436.098 321.2 438.858 318.64 442.178 318.64ZM469.174 336.48C475.694 336.48 480.494 331.48 480.494 325.48V325.4C480.494 319.36 475.734 314.44 469.254 314.44C462.774 314.44 457.974 319.44 457.974 325.48V325.56C457.974 331.56 462.734 336.48 469.174 336.48ZM469.254 332.24C465.494 332.24 462.814 329.16 462.814 325.48V325.4C462.814 321.72 465.294 318.68 469.174 318.68C472.974 318.68 475.654 321.76 475.654 325.48V325.56C475.654 329.2 473.174 332.24 469.254 332.24ZM491.917 336.36H492.077C493.237 336.36 494.237 335.68 494.677 334.28L498.837 321.72L502.957 334.28C503.397 335.68 504.397 336.36 505.597 336.36H505.757C506.917 336.36 507.917 335.68 508.437 334.2L514.197 317.96C514.277 317.72 514.397 317.24 514.397 316.88C514.397 315.68 513.437 314.64 512.117 314.64C510.837 314.64 510.077 315.48 509.757 316.52L505.637 329.36L501.477 316.56C501.117 315.44 500.237 314.64 498.997 314.64H498.717C497.477 314.64 496.597 315.44 496.237 316.56L492.117 329.36L488.037 316.56C487.677 315.44 486.877 314.64 485.677 314.64C484.237 314.64 483.317 315.72 483.317 316.88C483.317 317.28 483.437 317.8 483.557 318.12L489.237 334.2C489.717 335.68 490.717 336.36 491.917 336.36ZM518.938 333.8C518.938 335.16 520.018 336.2 521.338 336.2C522.698 336.2 523.778 335.16 523.778 333.8V324.08C523.778 320.8 525.738 318.84 528.538 318.84C531.418 318.84 533.058 320.72 533.058 324V333.8C533.058 335.16 534.138 336.2 535.498 336.2C536.858 336.2 537.898 335.16 537.898 333.8V322.52C537.898 317.64 535.138 314.44 530.378 314.44C527.098 314.44 525.138 316.16 523.778 318.12V317.08C523.778 315.72 522.698 314.64 521.338 314.64C519.978 314.64 518.938 315.72 518.938 317.08V333.8Z" fill="#00E59D"/>
<path d="M308.6 415.76C308.6 417.12 309.68 418.2 311.08 418.2C312.44 418.2 313.52 417.12 313.52 415.76V409H319.08C325.24 409 330.28 405.72 330.28 399.44V399.36C330.28 393.72 326.2 390 319.64 390H311.08C309.68 390 308.6 391.08 308.6 392.48V415.76ZM313.52 404.56V394.48H319.24C322.92 394.48 325.28 396.2 325.28 399.48V399.56C325.28 402.48 322.96 404.56 319.24 404.56H313.52ZM335.039 415.8C335.039 417.16 336.119 418.2 337.439 418.2C338.799 418.2 339.879 417.16 339.879 415.8V391C339.879 389.68 338.799 388.6 337.439 388.6C336.079 388.6 335.039 389.68 335.039 391V415.8ZM349.844 405.96C350.284 402.68 352.364 400.4 355.324 400.4C358.524 400.4 360.364 402.84 360.684 405.96H349.844ZM363.484 415.68C363.844 415.32 364.124 414.8 364.124 414.2C364.124 413.08 363.284 412.24 362.204 412.24C361.644 412.24 361.324 412.4 360.964 412.68C359.604 413.8 358.004 414.52 355.964 414.52C352.844 414.52 350.404 412.6 349.884 409.16H363.124C364.364 409.16 365.404 408.2 365.404 406.84C365.404 401.96 362.084 396.44 355.364 396.44C349.324 396.44 345.044 401.4 345.044 407.44V407.52C345.044 414.04 349.764 418.48 355.884 418.48C359.164 418.48 361.564 417.4 363.484 415.68ZM376.425 418.44C379.665 418.44 381.865 417.08 383.305 415.36V416.16C383.305 417.24 384.265 418.2 385.665 418.2C386.985 418.2 388.025 417.2 388.025 415.88V405.48C388.025 402.72 387.305 400.48 385.745 398.96C384.265 397.44 381.905 396.6 378.745 396.6C375.985 396.6 373.945 397.08 371.945 397.84C371.225 398.12 370.625 398.88 370.625 399.76C370.625 400.88 371.545 401.76 372.665 401.76C372.905 401.76 373.145 401.72 373.425 401.64C374.745 401.12 376.265 400.8 378.105 400.8C381.505 400.8 383.345 402.4 383.345 405.4V405.92C381.705 405.4 380.025 405.04 377.665 405.04C372.505 405.04 368.945 407.28 368.945 411.84V411.92C368.945 416.16 372.465 418.44 376.425 418.44ZM377.785 414.92C375.465 414.92 373.665 413.76 373.665 411.72V411.64C373.665 409.44 375.505 408.12 378.625 408.12C380.545 408.12 382.185 408.48 383.425 408.96V410.4C383.425 413.08 380.985 414.92 377.785 414.92ZM401.061 418.4C405.461 418.4 408.901 416.2 408.901 411.76V411.68C408.901 407.88 405.421 406.48 402.341 405.52C399.861 404.72 397.581 404.08 397.581 402.52V402.44C397.581 401.24 398.661 400.36 400.541 400.36C402.021 400.36 403.781 400.92 405.501 401.8C405.821 401.96 406.061 402.04 406.461 402.04C407.581 402.04 408.461 401.2 408.461 400.08C408.461 399.24 407.981 398.6 407.301 398.24C405.261 397.16 402.901 396.52 400.661 396.52C396.461 396.52 393.141 398.96 393.141 402.96V403.04C393.141 407.08 396.621 408.36 399.741 409.24C402.221 410 404.461 410.56 404.461 412.2V412.28C404.461 413.68 403.261 414.56 401.181 414.56C399.261 414.56 397.141 413.88 395.101 412.52C394.821 412.36 394.461 412.24 394.061 412.24C392.941 412.24 392.101 413.12 392.101 414.2C392.101 415 392.501 415.6 393.021 415.88C395.461 417.56 398.381 418.4 401.061 418.4ZM417.5 405.96C417.94 402.68 420.02 400.4 422.98 400.4C426.18 400.4 428.02 402.84 428.34 405.96H417.5ZM431.14 415.68C431.5 415.32 431.78 414.8 431.78 414.2C431.78 413.08 430.94 412.24 429.86 412.24C429.3 412.24 428.98 412.4 428.62 412.68C427.26 413.8 425.66 414.52 423.62 414.52C420.5 414.52 418.06 412.6 417.54 409.16H430.78C432.02 409.16 433.06 408.2 433.06 406.84C433.06 401.96 429.74 396.44 423.02 396.44C416.98 396.44 412.7 401.4 412.7 407.44V407.52C412.7 414.04 417.42 418.48 423.54 418.48C426.82 418.48 429.22 417.4 431.14 415.68ZM470.753 391C470.753 389.64 469.673 388.6 468.313 388.6C466.993 388.6 465.913 389.64 465.913 391V400.16C464.393 398.16 462.193 396.44 458.713 396.44C453.673 396.44 448.913 400.4 448.913 407.4V407.48C448.913 414.48 453.753 418.44 458.713 418.44C462.153 418.44 464.353 416.68 465.913 414.48V415.8C465.913 417.16 466.993 418.2 468.353 418.2C469.673 418.2 470.753 417.16 470.753 415.8V391ZM459.873 400.64C463.113 400.64 465.993 403.32 465.993 407.4V407.48C465.993 411.52 463.113 414.24 459.873 414.24C456.593 414.24 453.793 411.56 453.793 407.48V407.4C453.793 403.2 456.553 400.64 459.873 400.64ZM486.869 418.48C493.389 418.48 498.189 413.48 498.189 407.48V407.4C498.189 401.36 493.429 396.44 486.949 396.44C480.469 396.44 475.669 401.44 475.669 407.48V407.56C475.669 413.56 480.429 418.48 486.869 418.48ZM486.949 414.24C483.189 414.24 480.509 411.16 480.509 407.48V407.4C480.509 403.72 482.989 400.68 486.869 400.68C490.669 400.68 493.349 403.76 493.349 407.48V407.56C493.349 411.2 490.869 414.24 486.949 414.24ZM503.118 415.8C503.118 417.16 504.198 418.2 505.518 418.2C506.878 418.2 507.958 417.16 507.958 415.8V406.08C507.958 402.8 509.918 400.84 512.718 400.84C515.598 400.84 517.238 402.72 517.238 406V415.8C517.238 417.16 518.318 418.2 519.678 418.2C521.038 418.2 522.078 417.16 522.078 415.8V404.52C522.078 399.64 519.318 396.44 514.558 396.44C511.278 396.44 509.318 398.16 507.958 400.12V399.08C507.958 397.72 506.878 396.64 505.518 396.64C504.158 396.64 503.118 397.72 503.118 399.08V415.8ZM526.283 400.16C526.283 400.8 526.683 401.28 527.523 401.28C528.643 401.28 530.203 400.64 531.283 399.56C532.523 398.32 533.243 396.44 533.243 393.72V393.32C533.243 391.16 532.123 389.8 530.363 389.8C528.723 389.8 527.643 390.96 527.643 392.48V392.8C527.643 394.24 528.763 395.2 529.923 395.48C530.003 397.28 529.043 398.52 527.203 399.08C526.683 399.24 526.283 399.6 526.283 400.16ZM545.745 418.36C547.025 418.36 548.025 418.16 549.065 417.8C549.745 417.52 550.345 416.8 550.345 415.92C550.345 414.8 549.385 413.92 548.305 413.92C548.145 413.92 547.665 414.04 547.105 414.04C545.465 414.04 544.505 413.28 544.505 411.4V401.04H548.305C549.465 401.04 550.425 400.12 550.425 398.96C550.425 397.8 549.465 396.88 548.305 396.88H544.505V393.28C544.505 391.96 543.425 390.88 542.105 390.88C540.745 390.88 539.665 391.96 539.665 393.28V396.88H538.865C537.705 396.88 536.785 397.8 536.785 398.96C536.785 400.12 537.705 401.04 538.865 401.04H539.665V412.16C539.665 416.8 542.185 418.36 545.745 418.36ZM576.503 424.48C580.303 424.48 583.263 423.56 585.182 421.64C586.943 419.88 587.863 417.24 587.863 413.68V399.08C587.863 397.72 586.783 396.64 585.423 396.64C584.103 396.64 583.023 397.72 583.023 399.04V400.04C581.383 398.08 579.183 396.44 575.623 396.44C570.703 396.44 566.023 400.12 566.023 406.36V406.44C566.023 412.64 570.663 416.32 575.623 416.32C579.103 416.32 581.303 414.72 583.063 412.44V414.08C583.063 418.32 580.703 420.56 576.383 420.56C573.943 420.56 571.823 419.96 569.903 418.88C569.663 418.76 569.383 418.68 569.023 418.68C567.903 418.68 566.983 419.6 566.983 420.68C566.983 421.6 567.503 422.28 568.343 422.6C570.903 423.84 573.543 424.48 576.503 424.48ZM576.903 412.2C573.583 412.2 570.903 409.84 570.903 406.4V406.32C570.903 402.84 573.543 400.52 576.903 400.52C580.263 400.52 583.103 402.88 583.103 406.32V406.4C583.103 409.84 580.263 412.2 576.903 412.2ZM597.578 405.96C598.018 402.68 600.098 400.4 603.058 400.4C606.258 400.4 608.098 402.84 608.418 405.96H597.578ZM611.218 415.68C611.578 415.32 611.858 414.8 611.858 414.2C611.858 413.08 611.018 412.24 609.938 412.24C609.378 412.24 609.058 412.4 608.698 412.68C607.338 413.8 605.738 414.52 603.698 414.52C600.578 414.52 598.138 412.6 597.618 409.16H610.858C612.098 409.16 613.138 408.2 613.138 406.84C613.138 401.96 609.818 396.44 603.098 396.44C597.058 396.44 592.778 401.4 592.778 407.44V407.52C592.778 414.04 597.498 418.48 603.618 418.48C606.898 418.48 609.298 417.4 611.218 415.68ZM625.159 418.36C626.439 418.36 627.439 418.16 628.479 417.8C629.159 417.52 629.759 416.8 629.759 415.92C629.759 414.8 628.799 413.92 627.719 413.92C627.559 413.92 627.079 414.04 626.519 414.04C624.879 414.04 623.919 413.28 623.919 411.4V401.04H627.719C628.879 401.04 629.839 400.12 629.839 398.96C629.839 397.8 628.879 396.88 627.719 396.88H623.919V393.28C623.919 391.96 622.839 390.88 621.519 390.88C620.159 390.88 619.079 391.96 619.079 393.28V396.88H618.279C617.119 396.88 616.199 397.8 616.199 398.96C616.199 400.12 617.119 401.04 618.279 401.04H619.079V412.16C619.079 416.8 621.599 418.36 625.159 418.36ZM646.517 415.8C646.517 417.16 647.597 418.2 648.917 418.2C650.277 418.2 651.357 417.12 651.357 415.8V409.56C651.357 404.56 653.717 401.92 657.157 401.32C658.237 401.12 659.077 400.28 659.077 399C659.077 397.6 658.197 396.6 656.677 396.6C654.557 396.6 652.477 398.6 651.357 401.24V399.08C651.357 397.72 650.277 396.64 648.917 396.64C647.557 396.64 646.517 397.72 646.517 399.08V415.8ZM665.977 405.96C666.417 402.68 668.497 400.4 671.457 400.4C674.657 400.4 676.497 402.84 676.817 405.96H665.977ZM679.617 415.68C679.977 415.32 680.257 414.8 680.257 414.2C680.257 413.08 679.417 412.24 678.337 412.24C677.777 412.24 677.457 412.4 677.097 412.68C675.737 413.8 674.137 414.52 672.097 414.52C668.977 414.52 666.537 412.6 666.017 409.16H679.257C680.497 409.16 681.537 408.2 681.537 406.84C681.537 401.96 678.217 396.44 671.497 396.44C665.457 396.44 661.177 401.4 661.177 407.44V407.52C661.177 414.04 665.897 418.48 672.017 418.48C675.297 418.48 677.697 417.4 679.617 415.68ZM686.478 415.8C686.478 417.16 687.558 418.2 688.878 418.2C690.238 418.2 691.318 417.16 691.318 415.8V412.12L694.518 409.08L700.558 417.12C701.158 417.88 701.718 418.2 702.678 418.2C703.918 418.2 704.958 417.32 704.958 416C704.958 415.44 704.758 415 704.318 414.4L697.918 406.04L703.518 400.88C704.198 400.24 704.598 399.64 704.598 398.84C704.598 397.68 703.758 396.64 702.478 396.64C701.638 396.64 701.038 397.04 700.398 397.68L691.318 406.6V391C691.318 389.68 690.238 388.6 688.878 388.6C687.518 388.6 686.478 389.68 686.478 391V415.8ZM716.487 418.36C717.767 418.36 718.767 418.16 719.807 417.8C720.487 417.52 721.087 416.8 721.087 415.92C721.087 414.8 720.127 413.92 719.047 413.92C718.887 413.92 718.407 414.04 717.847 414.04C716.207 414.04 715.247 413.28 715.247 411.4V401.04H719.047C720.207 401.04 721.167 400.12 721.167 398.96C721.167 397.8 720.207 396.88 719.047 396.88H715.247V393.28C715.247 391.96 714.167 390.88 712.847 390.88C711.487 390.88 710.407 391.96 710.407 393.28V396.88H709.607C708.447 396.88 707.527 397.8 707.527 398.96C707.527 400.12 708.447 401.04 709.607 401.04H710.407V412.16C710.407 416.8 712.927 418.36 716.487 418.36Z" fill="#00E59D"/>
<rect x="277" y="185" width="12" height="12" rx="6" fill="#00E59D"/>
<rect x="277" y="270" width="12" height="12" rx="6" fill="#00E59D"/>
<rect x="277" y="400" width="12" height="12" rx="6" fill="#00E59D"/>
<defs>
<filter id="filter0_d" x="199" y="0" width="727" height="497" filterUnits="userSpaceOnUse" color-interpolation-filters="sRGB">
<feFlood flood-opacity="0" result="BackgroundImageFix"/>
<feColorMatrix in="SourceAlpha" type="matrix" values="0 0 0 0 0 0 0 0 0 0 0 0 0 0 0 0 0 0 127 0" result="hardAlpha"/>
<feOffset/>
<feGaussianBlur stdDeviation="15"/>
<feComposite in2="hardAlpha" operator="out"/>
<feColorMatrix type="matrix" values="0 0 0 0 0 0 0 0 0 0 0 0 0 0 0 0 0 0 0.5 0"/>
<feBlend mode="normal" in2="BackgroundImageFix" result="effect1_dropShadow"/>
<feBlend mode="normal" in="SourceGraphic" in2="effect1_dropShadow" result="shape"/>
</filter>
<filter id="filter1_f" x="-8.39062" y="63.5508" width="103.745" height="112.93" filterUnits="userSpaceOnUse" color-interpolation-filters="sRGB">
<feFlood flood-opacity="0" result="BackgroundImageFix"/>
<feBlend mode="normal" in="SourceGraphic" in2="BackgroundImageFix" result="shape"/>
<feGaussianBlur stdDeviation="5.5" result="effect1_foregroundBlur"/>
</filter>
<filter id="filter2_f" x="28.3096" y="35.2812" width="145.362" height="136.562" filterUnits="userSpaceOnUse" color-interpolation-filters="sRGB">
<feFlood flood-opacity="0" result="BackgroundImageFix"/>
<feBlend mode="normal" in="SourceGraphic" in2="BackgroundImageFix" result="shape"/>
<feGaussianBlur stdDeviation="5.5" result="effect1_foregroundBlur"/>
</filter>
<filter id="filter3_f" x="256.75" y="47.875" width="519.294" height="107.35" filterUnits="userSpaceOnUse" color-interpolation-filters="sRGB">
<feFlood flood-opacity="0" result="BackgroundImageFix"/>
<feBlend mode="normal" in="SourceGraphic" in2="BackgroundImageFix" result="shape"/>
<feGaussianBlur stdDeviation="10" result="effect1_foregroundBlur"/>
</filter>
<clipPath id="clip0">
<rect width="200" height="413.668" fill="white" transform="translate(0 42)"/>
</clipPath>
</defs>
</svg>
