<svg width="24" height="24" fill="none" xmlns="http://www.w3.org/2000/svg"><g clip-path="url(#a)"><path d="M13.54 12a6.8 6.8 0 0 1-6.77 6.82A6.8 6.8 0 0 1 0 12a6.8 6.8 0 0 1 6.77-6.82A6.8 6.8 0 0 1 13.54 12Zm7.42 0c0 3.54-1.51 6.42-3.38 6.42-1.87 0-3.39-2.88-3.39-6.42s1.52-6.42 3.39-6.42 3.38 2.88 3.38 6.42ZM24 12c0 3.17-.53 5.75-1.19 5.75-.66 0-1.19-2.58-1.19-5.75s.53-5.75 1.19-5.75C23.47 6.25 24 8.83 24 12Z" fill="#fff"/></g><defs><clipPath id="a"><path fill="#fff" d="M0 0h24v24H0z"/></clipPath></defs></svg>