<svg width="247" height="67" viewBox="0 0 247 67" fill="none" xmlns="http://www.w3.org/2000/svg">
<path d="M33.264 51.432C41.004 51.432 46.476 45.492 46.476 38.4V38.328C46.476 31.236 41.076 25.368 33.336 25.368C25.596 25.368 20.124 31.308 20.124 38.4V38.472C20.124 45.564 25.524 51.432 33.264 51.432ZM33.336 47.328C28.332 47.328 24.768 43.296 24.768 38.4V38.328C24.768 33.432 28.26 29.436 33.264 29.436C38.268 29.436 41.832 33.504 41.832 38.4V38.472C41.832 43.368 38.34 47.328 33.336 47.328ZM66.4059 33.972C66.4059 32.748 65.3979 31.776 64.2099 31.776C62.9859 31.776 62.0139 32.748 62.0139 33.972V42.72C62.0139 45.672 60.2499 47.4 57.7299 47.4C55.1379 47.4 53.6619 45.744 53.6619 42.792V33.972C53.6619 32.748 52.6899 31.776 51.4659 31.776C50.2779 31.776 49.3059 32.748 49.3059 33.972V44.088C49.3059 48.516 51.7899 51.396 56.0739 51.396C59.0259 51.396 60.7899 49.848 62.0139 48.048V49.02C62.0139 50.244 63.0219 51.18 64.2099 51.18C65.4339 51.18 66.4059 50.208 66.4059 49.02V33.972ZM70.0462 49.02C70.0462 50.244 71.0182 51.18 72.2062 51.18C73.4302 51.18 74.4022 50.208 74.4022 49.02V43.404C74.4022 38.904 76.5262 36.528 79.6222 35.988C80.5942 35.808 81.3502 35.052 81.3502 33.9C81.3502 32.64 80.5582 31.74 79.1902 31.74C77.2822 31.74 75.4102 33.54 74.4022 35.916V33.972C74.4022 32.748 73.4302 31.776 72.2062 31.776C70.9822 31.776 70.0462 32.748 70.0462 33.972V49.02ZM92.6142 48.984C92.6142 50.208 93.5862 51.18 94.8462 51.18C96.0702 51.18 97.0422 50.208 97.0422 48.984V42.9H102.046C107.59 42.9 112.126 39.948 112.126 34.296V34.224C112.126 29.148 108.454 25.8 102.55 25.8H94.8462C93.5862 25.8 92.6142 26.772 92.6142 28.032V48.984ZM97.0422 38.904V29.832H102.19C105.502 29.832 107.626 31.38 107.626 34.332V34.404C107.626 37.032 105.538 38.904 102.19 38.904H97.0422ZM119.478 51.396C122.394 51.396 124.374 50.172 125.67 48.624V49.344C125.67 50.316 126.534 51.18 127.794 51.18C128.982 51.18 129.918 50.28 129.918 49.092V39.732C129.918 37.248 129.27 35.232 127.866 33.864C126.534 32.496 124.41 31.74 121.566 31.74C119.082 31.74 117.246 32.172 115.446 32.856C114.798 33.108 114.258 33.792 114.258 34.584C114.258 35.592 115.086 36.384 116.094 36.384C116.31 36.384 116.526 36.348 116.778 36.276C117.966 35.808 119.334 35.52 120.99 35.52C124.05 35.52 125.706 36.96 125.706 39.66V40.128C124.23 39.66 122.718 39.336 120.594 39.336C115.95 39.336 112.746 41.352 112.746 45.456V45.528C112.746 49.344 115.914 51.396 119.478 51.396ZM120.702 48.228C118.614 48.228 116.994 47.184 116.994 45.348V45.276C116.994 43.296 118.65 42.108 121.458 42.108C123.186 42.108 124.662 42.432 125.778 42.864V44.16C125.778 46.572 123.582 48.228 120.702 48.228ZM133.334 49.02C133.334 50.244 134.306 51.18 135.494 51.18C136.718 51.18 137.69 50.208 137.69 49.02V43.404C137.69 38.904 139.814 36.528 142.91 35.988C143.882 35.808 144.638 35.052 144.638 33.9C144.638 32.64 143.846 31.74 142.478 31.74C140.57 31.74 138.698 33.54 137.69 35.916V33.972C137.69 32.748 136.718 31.776 135.494 31.776C134.27 31.776 133.334 32.748 133.334 33.972V49.02ZM152.778 51.324C153.93 51.324 154.83 51.144 155.766 50.82C156.378 50.568 156.918 49.92 156.918 49.128C156.918 48.12 156.054 47.328 155.082 47.328C154.938 47.328 154.506 47.436 154.002 47.436C152.526 47.436 151.662 46.752 151.662 45.06V35.736H155.082C156.126 35.736 156.99 34.908 156.99 33.864C156.99 32.82 156.126 31.992 155.082 31.992H151.662V28.752C151.662 27.564 150.69 26.592 149.502 26.592C148.278 26.592 147.306 27.564 147.306 28.752V31.992H146.586C145.542 31.992 144.714 32.82 144.714 33.864C144.714 34.908 145.542 35.736 146.586 35.736H147.306V45.744C147.306 49.92 149.574 51.324 152.778 51.324ZM159.406 49.02C159.406 50.244 160.378 51.18 161.566 51.18C162.79 51.18 163.762 50.244 163.762 49.02V40.272C163.762 37.32 165.526 35.556 168.046 35.556C170.638 35.556 172.114 37.248 172.114 40.2V49.02C172.114 50.244 173.086 51.18 174.31 51.18C175.534 51.18 176.47 50.244 176.47 49.02V38.868C176.47 34.476 173.986 31.596 169.702 31.596C166.75 31.596 164.986 33.144 163.762 34.908V33.972C163.762 32.748 162.79 31.776 161.566 31.776C160.342 31.776 159.406 32.748 159.406 33.972V49.02ZM183.207 40.164C183.603 37.212 185.475 35.16 188.139 35.16C191.019 35.16 192.675 37.356 192.963 40.164H183.207ZM195.483 48.912C195.807 48.588 196.059 48.12 196.059 47.58C196.059 46.572 195.303 45.816 194.331 45.816C193.827 45.816 193.539 45.96 193.215 46.212C191.991 47.22 190.551 47.868 188.715 47.868C185.907 47.868 183.711 46.14 183.243 43.044H195.159C196.275 43.044 197.211 42.18 197.211 40.956C197.211 36.564 194.223 31.596 188.175 31.596C182.739 31.596 178.887 36.06 178.887 41.496V41.568C178.887 47.436 183.135 51.432 188.643 51.432C191.595 51.432 193.755 50.46 195.483 48.912ZM199.857 49.02C199.857 50.244 200.829 51.18 202.017 51.18C203.241 51.18 204.213 50.208 204.213 49.02V43.404C204.213 38.904 206.337 36.528 209.433 35.988C210.405 35.808 211.161 35.052 211.161 33.9C211.161 32.64 210.369 31.74 209.001 31.74C207.093 31.74 205.221 33.54 204.213 35.916V33.972C204.213 32.748 203.241 31.776 202.017 31.776C200.793 31.776 199.857 32.748 199.857 33.972V49.02ZM219.444 51.36C223.404 51.36 226.5 49.38 226.5 45.384V45.312C226.5 41.892 223.368 40.632 220.596 39.768C218.364 39.048 216.312 38.472 216.312 37.068V36.996C216.312 35.916 217.284 35.124 218.976 35.124C220.308 35.124 221.892 35.628 223.44 36.42C223.728 36.564 223.944 36.636 224.304 36.636C225.312 36.636 226.104 35.88 226.104 34.872C226.104 34.116 225.672 33.54 225.06 33.216C223.224 32.244 221.1 31.668 219.084 31.668C215.304 31.668 212.316 33.864 212.316 37.464V37.536C212.316 41.172 215.448 42.324 218.256 43.116C220.488 43.8 222.504 44.304 222.504 45.78V45.852C222.504 47.112 221.424 47.904 219.552 47.904C217.824 47.904 215.916 47.292 214.08 46.068C213.828 45.924 213.504 45.816 213.144 45.816C212.136 45.816 211.38 46.608 211.38 47.58C211.38 48.3 211.74 48.84 212.208 49.092C214.404 50.604 217.032 51.36 219.444 51.36Z" fill="black"/>
<path d="M33.264 46.432C41.004 46.432 46.476 40.492 46.476 33.4V33.328C46.476 26.236 41.076 20.368 33.336 20.368C25.596 20.368 20.124 26.308 20.124 33.4V33.472C20.124 40.564 25.524 46.432 33.264 46.432ZM33.336 42.328C28.332 42.328 24.768 38.296 24.768 33.4V33.328C24.768 28.432 28.26 24.436 33.264 24.436C38.268 24.436 41.832 28.504 41.832 33.4V33.472C41.832 38.368 38.34 42.328 33.336 42.328ZM66.4059 28.972C66.4059 27.748 65.3979 26.776 64.2099 26.776C62.9859 26.776 62.0139 27.748 62.0139 28.972V37.72C62.0139 40.672 60.2499 42.4 57.7299 42.4C55.1379 42.4 53.6619 40.744 53.6619 37.792V28.972C53.6619 27.748 52.6899 26.776 51.4659 26.776C50.2779 26.776 49.3059 27.748 49.3059 28.972V39.088C49.3059 43.516 51.7899 46.396 56.0739 46.396C59.0259 46.396 60.7899 44.848 62.0139 43.048V44.02C62.0139 45.244 63.0219 46.18 64.2099 46.18C65.4339 46.18 66.4059 45.208 66.4059 44.02V28.972ZM70.0462 44.02C70.0462 45.244 71.0182 46.18 72.2062 46.18C73.4302 46.18 74.4022 45.208 74.4022 44.02V38.404C74.4022 33.904 76.5262 31.528 79.6222 30.988C80.5942 30.808 81.3502 30.052 81.3502 28.9C81.3502 27.64 80.5582 26.74 79.1902 26.74C77.2822 26.74 75.4102 28.54 74.4022 30.916V28.972C74.4022 27.748 73.4302 26.776 72.2062 26.776C70.9822 26.776 70.0462 27.748 70.0462 28.972V44.02Z" fill="#00E59D"/>
<path d="M92.6142 43.984C92.6142 45.208 93.5862 46.18 94.8462 46.18C96.0702 46.18 97.0422 45.208 97.0422 43.984V37.9H102.046C107.59 37.9 112.126 34.948 112.126 29.296V29.224C112.126 24.148 108.454 20.8 102.55 20.8H94.8462C93.5862 20.8 92.6142 21.772 92.6142 23.032V43.984ZM97.0422 33.904V24.832H102.19C105.502 24.832 107.626 26.38 107.626 29.332V29.404C107.626 32.032 105.538 33.904 102.19 33.904H97.0422ZM119.478 46.396C122.394 46.396 124.374 45.172 125.67 43.624V44.344C125.67 45.316 126.534 46.18 127.794 46.18C128.982 46.18 129.918 45.28 129.918 44.092V34.732C129.918 32.248 129.27 30.232 127.866 28.864C126.534 27.496 124.41 26.74 121.566 26.74C119.082 26.74 117.246 27.172 115.446 27.856C114.798 28.108 114.258 28.792 114.258 29.584C114.258 30.592 115.086 31.384 116.094 31.384C116.31 31.384 116.526 31.348 116.778 31.276C117.966 30.808 119.334 30.52 120.99 30.52C124.05 30.52 125.706 31.96 125.706 34.66V35.128C124.23 34.66 122.718 34.336 120.594 34.336C115.95 34.336 112.746 36.352 112.746 40.456V40.528C112.746 44.344 115.914 46.396 119.478 46.396ZM120.702 43.228C118.614 43.228 116.994 42.184 116.994 40.348V40.276C116.994 38.296 118.65 37.108 121.458 37.108C123.186 37.108 124.662 37.432 125.778 37.864V39.16C125.778 41.572 123.582 43.228 120.702 43.228ZM133.334 44.02C133.334 45.244 134.306 46.18 135.494 46.18C136.718 46.18 137.69 45.208 137.69 44.02V38.404C137.69 33.904 139.814 31.528 142.91 30.988C143.882 30.808 144.638 30.052 144.638 28.9C144.638 27.64 143.846 26.74 142.478 26.74C140.57 26.74 138.698 28.54 137.69 30.916V28.972C137.69 27.748 136.718 26.776 135.494 26.776C134.27 26.776 133.334 27.748 133.334 28.972V44.02ZM152.778 46.324C153.93 46.324 154.83 46.144 155.766 45.82C156.378 45.568 156.918 44.92 156.918 44.128C156.918 43.12 156.054 42.328 155.082 42.328C154.938 42.328 154.506 42.436 154.002 42.436C152.526 42.436 151.662 41.752 151.662 40.06V30.736H155.082C156.126 30.736 156.99 29.908 156.99 28.864C156.99 27.82 156.126 26.992 155.082 26.992H151.662V23.752C151.662 22.564 150.69 21.592 149.502 21.592C148.278 21.592 147.306 22.564 147.306 23.752V26.992H146.586C145.542 26.992 144.714 27.82 144.714 28.864C144.714 29.908 145.542 30.736 146.586 30.736H147.306V40.744C147.306 44.92 149.574 46.324 152.778 46.324ZM159.406 44.02C159.406 45.244 160.378 46.18 161.566 46.18C162.79 46.18 163.762 45.244 163.762 44.02V35.272C163.762 32.32 165.526 30.556 168.046 30.556C170.638 30.556 172.114 32.248 172.114 35.2V44.02C172.114 45.244 173.086 46.18 174.31 46.18C175.534 46.18 176.47 45.244 176.47 44.02V33.868C176.47 29.476 173.986 26.596 169.702 26.596C166.75 26.596 164.986 28.144 163.762 29.908V28.972C163.762 27.748 162.79 26.776 161.566 26.776C160.342 26.776 159.406 27.748 159.406 28.972V44.02ZM183.207 35.164C183.603 32.212 185.475 30.16 188.139 30.16C191.019 30.16 192.675 32.356 192.963 35.164H183.207ZM195.483 43.912C195.807 43.588 196.059 43.12 196.059 42.58C196.059 41.572 195.303 40.816 194.331 40.816C193.827 40.816 193.539 40.96 193.215 41.212C191.991 42.22 190.551 42.868 188.715 42.868C185.907 42.868 183.711 41.14 183.243 38.044H195.159C196.275 38.044 197.211 37.18 197.211 35.956C197.211 31.564 194.223 26.596 188.175 26.596C182.739 26.596 178.887 31.06 178.887 36.496V36.568C178.887 42.436 183.135 46.432 188.643 46.432C191.595 46.432 193.755 45.46 195.483 43.912ZM199.857 44.02C199.857 45.244 200.829 46.18 202.017 46.18C203.241 46.18 204.213 45.208 204.213 44.02V38.404C204.213 33.904 206.337 31.528 209.433 30.988C210.405 30.808 211.161 30.052 211.161 28.9C211.161 27.64 210.369 26.74 209.001 26.74C207.093 26.74 205.221 28.54 204.213 30.916V28.972C204.213 27.748 203.241 26.776 202.017 26.776C200.793 26.776 199.857 27.748 199.857 28.972V44.02ZM219.444 46.36C223.404 46.36 226.5 44.38 226.5 40.384V40.312C226.5 36.892 223.368 35.632 220.596 34.768C218.364 34.048 216.312 33.472 216.312 32.068V31.996C216.312 30.916 217.284 30.124 218.976 30.124C220.308 30.124 221.892 30.628 223.44 31.42C223.728 31.564 223.944 31.636 224.304 31.636C225.312 31.636 226.104 30.88 226.104 29.872C226.104 29.116 225.672 28.54 225.06 28.216C223.224 27.244 221.1 26.668 219.084 26.668C215.304 26.668 212.316 28.864 212.316 32.464V32.536C212.316 36.172 215.448 37.324 218.256 38.116C220.488 38.8 222.504 39.304 222.504 40.78V40.852C222.504 42.112 221.424 42.904 219.552 42.904C217.824 42.904 215.916 42.292 214.08 41.068C213.828 40.924 213.504 40.816 213.144 40.816C212.136 40.816 211.38 41.608 211.38 42.58C211.38 43.3 211.74 43.84 212.208 44.092C214.404 45.604 217.032 46.36 219.444 46.36Z" fill="#FF0000"/>
<g filter="url(#filter0)">
<path d="M33.264 46.432C41.004 46.432 46.476 40.492 46.476 33.4V33.328C46.476 26.236 41.076 20.368 33.336 20.368C25.596 20.368 20.124 26.308 20.124 33.4V33.472C20.124 40.564 25.524 46.432 33.264 46.432ZM33.336 42.328C28.332 42.328 24.768 38.296 24.768 33.4V33.328C24.768 28.432 28.26 24.436 33.264 24.436C38.268 24.436 41.832 28.504 41.832 33.4V33.472C41.832 38.368 38.34 42.328 33.336 42.328ZM66.4059 28.972C66.4059 27.748 65.3979 26.776 64.2099 26.776C62.9859 26.776 62.0139 27.748 62.0139 28.972V37.72C62.0139 40.672 60.2499 42.4 57.7299 42.4C55.1379 42.4 53.6619 40.744 53.6619 37.792V28.972C53.6619 27.748 52.6899 26.776 51.4659 26.776C50.2779 26.776 49.3059 27.748 49.3059 28.972V39.088C49.3059 43.516 51.7899 46.396 56.0739 46.396C59.0259 46.396 60.7899 44.848 62.0139 43.048V44.02C62.0139 45.244 63.0219 46.18 64.2099 46.18C65.4339 46.18 66.4059 45.208 66.4059 44.02V28.972ZM70.0462 44.02C70.0462 45.244 71.0182 46.18 72.2062 46.18C73.4302 46.18 74.4022 45.208 74.4022 44.02V38.404C74.4022 33.904 76.5262 31.528 79.6222 30.988C80.5942 30.808 81.3502 30.052 81.3502 28.9C81.3502 27.64 80.5582 26.74 79.1902 26.74C77.2822 26.74 75.4102 28.54 74.4022 30.916V28.972C74.4022 27.748 73.4302 26.776 72.2062 26.776C70.9822 26.776 70.0462 27.748 70.0462 28.972V44.02Z" fill="#00E59D"/>
<path d="M92.6142 43.984C92.6142 45.208 93.5862 46.18 94.8462 46.18C96.0702 46.18 97.0422 45.208 97.0422 43.984V37.9H102.046C107.59 37.9 112.126 34.948 112.126 29.296V29.224C112.126 24.148 108.454 20.8 102.55 20.8H94.8462C93.5862 20.8 92.6142 21.772 92.6142 23.032V43.984ZM97.0422 33.904V24.832H102.19C105.502 24.832 107.626 26.38 107.626 29.332V29.404C107.626 32.032 105.538 33.904 102.19 33.904H97.0422ZM119.478 46.396C122.394 46.396 124.374 45.172 125.67 43.624V44.344C125.67 45.316 126.534 46.18 127.794 46.18C128.982 46.18 129.918 45.28 129.918 44.092V34.732C129.918 32.248 129.27 30.232 127.866 28.864C126.534 27.496 124.41 26.74 121.566 26.74C119.082 26.74 117.246 27.172 115.446 27.856C114.798 28.108 114.258 28.792 114.258 29.584C114.258 30.592 115.086 31.384 116.094 31.384C116.31 31.384 116.526 31.348 116.778 31.276C117.966 30.808 119.334 30.52 120.99 30.52C124.05 30.52 125.706 31.96 125.706 34.66V35.128C124.23 34.66 122.718 34.336 120.594 34.336C115.95 34.336 112.746 36.352 112.746 40.456V40.528C112.746 44.344 115.914 46.396 119.478 46.396ZM120.702 43.228C118.614 43.228 116.994 42.184 116.994 40.348V40.276C116.994 38.296 118.65 37.108 121.458 37.108C123.186 37.108 124.662 37.432 125.778 37.864V39.16C125.778 41.572 123.582 43.228 120.702 43.228ZM133.334 44.02C133.334 45.244 134.306 46.18 135.494 46.18C136.718 46.18 137.69 45.208 137.69 44.02V38.404C137.69 33.904 139.814 31.528 142.91 30.988C143.882 30.808 144.638 30.052 144.638 28.9C144.638 27.64 143.846 26.74 142.478 26.74C140.57 26.74 138.698 28.54 137.69 30.916V28.972C137.69 27.748 136.718 26.776 135.494 26.776C134.27 26.776 133.334 27.748 133.334 28.972V44.02ZM152.778 46.324C153.93 46.324 154.83 46.144 155.766 45.82C156.378 45.568 156.918 44.92 156.918 44.128C156.918 43.12 156.054 42.328 155.082 42.328C154.938 42.328 154.506 42.436 154.002 42.436C152.526 42.436 151.662 41.752 151.662 40.06V30.736H155.082C156.126 30.736 156.99 29.908 156.99 28.864C156.99 27.82 156.126 26.992 155.082 26.992H151.662V23.752C151.662 22.564 150.69 21.592 149.502 21.592C148.278 21.592 147.306 22.564 147.306 23.752V26.992H146.586C145.542 26.992 144.714 27.82 144.714 28.864C144.714 29.908 145.542 30.736 146.586 30.736H147.306V40.744C147.306 44.92 149.574 46.324 152.778 46.324ZM159.406 44.02C159.406 45.244 160.378 46.18 161.566 46.18C162.79 46.18 163.762 45.244 163.762 44.02V35.272C163.762 32.32 165.526 30.556 168.046 30.556C170.638 30.556 172.114 32.248 172.114 35.2V44.02C172.114 45.244 173.086 46.18 174.31 46.18C175.534 46.18 176.47 45.244 176.47 44.02V33.868C176.47 29.476 173.986 26.596 169.702 26.596C166.75 26.596 164.986 28.144 163.762 29.908V28.972C163.762 27.748 162.79 26.776 161.566 26.776C160.342 26.776 159.406 27.748 159.406 28.972V44.02ZM183.207 35.164C183.603 32.212 185.475 30.16 188.139 30.16C191.019 30.16 192.675 32.356 192.963 35.164H183.207ZM195.483 43.912C195.807 43.588 196.059 43.12 196.059 42.58C196.059 41.572 195.303 40.816 194.331 40.816C193.827 40.816 193.539 40.96 193.215 41.212C191.991 42.22 190.551 42.868 188.715 42.868C185.907 42.868 183.711 41.14 183.243 38.044H195.159C196.275 38.044 197.211 37.18 197.211 35.956C197.211 31.564 194.223 26.596 188.175 26.596C182.739 26.596 178.887 31.06 178.887 36.496V36.568C178.887 42.436 183.135 46.432 188.643 46.432C191.595 46.432 193.755 45.46 195.483 43.912ZM199.857 44.02C199.857 45.244 200.829 46.18 202.017 46.18C203.241 46.18 204.213 45.208 204.213 44.02V38.404C204.213 33.904 206.337 31.528 209.433 30.988C210.405 30.808 211.161 30.052 211.161 28.9C211.161 27.64 210.369 26.74 209.001 26.74C207.093 26.74 205.221 28.54 204.213 30.916V28.972C204.213 27.748 203.241 26.776 202.017 26.776C200.793 26.776 199.857 27.748 199.857 28.972V44.02ZM219.444 46.36C223.404 46.36 226.5 44.38 226.5 40.384V40.312C226.5 36.892 223.368 35.632 220.596 34.768C218.364 34.048 216.312 33.472 216.312 32.068V31.996C216.312 30.916 217.284 30.124 218.976 30.124C220.308 30.124 221.892 30.628 223.44 31.42C223.728 31.564 223.944 31.636 224.304 31.636C225.312 31.636 226.104 30.88 226.104 29.872C226.104 29.116 225.672 28.54 225.06 28.216C223.224 27.244 221.1 26.668 219.084 26.668C215.304 26.668 212.316 28.864 212.316 32.464V32.536C212.316 36.172 215.448 37.324 218.256 38.116C220.488 38.8 222.504 39.304 222.504 40.78V40.852C222.504 42.112 221.424 42.904 219.552 42.904C217.824 42.904 215.916 42.292 214.08 41.068C213.828 40.924 213.504 40.816 213.144 40.816C212.136 40.816 211.38 41.608 211.38 42.58C211.38 43.3 211.74 43.84 212.208 44.092C214.404 45.604 217.032 46.36 219.444 46.36Z" fill="#FF0000"/>
</g>
<defs>
<filter id="filter0" x="0.124023" y="0.368164" width="246.376" height="66.0635" filterUnits="userSpaceOnUse" color-interpolation-filters="sRGB">
<feFlood flood-opacity="0" result="BackgroundImageFix"/>
<feBlend mode="normal" in="SourceGraphic" in2="BackgroundImageFix" result="shape"/>
<feGaussianBlur stdDeviation="10" result="effect1_foregroundBlur_929_129"/>
</filter>
</defs>
</svg>
