<svg width="294" height="73" viewBox="0 0 294 73" fill="none" xmlns="http://www.w3.org/2000/svg">
<path d="M20.24 49.984C20.24 51.208 21.212 52.18 22.472 52.18C23.696 52.18 24.668 51.208 24.668 49.984V43.9H29.672C35.216 43.9 39.752 40.948 39.752 35.296V35.224C39.752 30.148 36.08 26.8 30.176 26.8H22.472C21.212 26.8 20.24 27.772 20.24 29.032V49.984ZM24.668 39.904V30.832H29.816C33.128 30.832 35.252 32.38 35.252 35.332V35.404C35.252 38.032 33.164 39.904 29.816 39.904H24.668ZM50.8431 52.432C56.7111 52.432 61.0311 47.932 61.0311 42.532V42.46C61.0311 37.024 56.7471 32.596 50.9151 32.596C45.0831 32.596 40.7631 37.096 40.7631 42.532V42.604C40.7631 48.004 45.0471 52.432 50.8431 52.432ZM50.9151 48.616C47.5311 48.616 45.1191 45.844 45.1191 42.532V42.46C45.1191 39.148 47.3511 36.412 50.8431 36.412C54.2631 36.412 56.6751 39.184 56.6751 42.532V42.604C56.6751 45.88 54.4431 48.616 50.9151 48.616ZM72.7033 52.432C78.5713 52.432 82.8913 47.932 82.8913 42.532V42.46C82.8913 37.024 78.6073 32.596 72.7753 32.596C66.9433 32.596 62.6233 37.096 62.6233 42.532V42.604C62.6233 48.004 66.9073 52.432 72.7033 52.432ZM72.7753 48.616C69.3913 48.616 66.9793 45.844 66.9793 42.532V42.46C66.9793 39.148 69.2113 36.412 72.7033 36.412C76.1233 36.412 78.5353 39.184 78.5353 42.532V42.604C78.5353 45.88 76.3033 48.616 72.7753 48.616ZM85.7794 50.02C85.7794 51.244 86.7514 52.18 87.9394 52.18C89.1634 52.18 90.1354 51.244 90.1354 50.02V27.7C90.1354 26.512 89.1634 25.54 87.9394 25.54C86.7154 25.54 85.7794 26.512 85.7794 27.7V50.02ZM115.225 52.432C119.293 52.432 121.993 51.136 124.369 49.048C124.765 48.688 125.089 48.148 125.089 47.464C125.089 46.348 124.117 45.412 123.001 45.412C122.461 45.412 121.993 45.628 121.669 45.916C119.833 47.464 118.033 48.328 115.369 48.328C110.545 48.328 107.053 44.332 107.053 39.4V39.328C107.053 34.396 110.581 30.436 115.369 30.436C117.781 30.436 119.653 31.3 121.381 32.704C121.669 32.92 122.101 33.136 122.713 33.136C123.937 33.136 124.909 32.2 124.909 30.976C124.909 30.184 124.513 29.572 124.045 29.212C121.849 27.52 119.293 26.368 115.405 26.368C107.773 26.368 102.409 32.236 102.409 39.4V39.472C102.409 46.708 107.881 52.432 115.225 52.432ZM136.484 52.432C142.352 52.432 146.672 47.932 146.672 42.532V42.46C146.672 37.024 142.388 32.596 136.556 32.596C130.724 32.596 126.404 37.096 126.404 42.532V42.604C126.404 48.004 130.688 52.432 136.484 52.432ZM136.556 48.616C133.172 48.616 130.76 45.844 130.76 42.532V42.46C130.76 39.148 132.992 36.412 136.484 36.412C139.904 36.412 142.316 39.184 142.316 42.532V42.604C142.316 45.88 140.084 48.616 136.556 48.616ZM149.308 50.02C149.308 51.244 150.28 52.18 151.468 52.18C152.692 52.18 153.664 51.244 153.664 50.02V41.272C153.664 38.356 155.32 36.556 157.732 36.556C160.144 36.556 161.584 38.212 161.584 41.164V50.02C161.584 51.244 162.556 52.18 163.78 52.18C164.968 52.18 165.94 51.244 165.94 50.02V41.272C165.94 38.212 167.632 36.556 170.008 36.556C172.456 36.556 173.86 38.176 173.86 41.2V50.02C173.86 51.244 174.832 52.18 176.056 52.18C177.28 52.18 178.216 51.244 178.216 50.02V39.868C178.216 35.224 175.696 32.596 171.556 32.596C168.676 32.596 166.66 33.928 165.148 35.944C164.14 33.928 162.196 32.596 159.46 32.596C156.544 32.596 154.888 34.18 153.664 35.872V34.972C153.664 33.748 152.692 32.776 151.468 32.776C150.244 32.776 149.308 33.748 149.308 34.972V50.02ZM181.715 55.78C181.715 57.004 182.687 57.94 183.875 57.94C185.099 57.94 186.071 57.004 186.071 55.78V49.048C187.403 50.812 189.383 52.396 192.551 52.396C197.051 52.396 201.371 48.832 201.371 42.532V42.46C201.371 36.124 197.015 32.596 192.551 32.596C189.455 32.596 187.475 34.18 186.071 36.16V34.972C186.071 33.748 185.099 32.776 183.875 32.776C182.651 32.776 181.715 33.748 181.715 34.972V55.78ZM191.507 48.616C188.555 48.616 185.963 46.168 185.963 42.532V42.46C185.963 38.824 188.555 36.376 191.507 36.376C194.459 36.376 196.943 38.788 196.943 42.46V42.532C196.943 46.276 194.495 48.616 191.507 48.616ZM213.103 52.432C218.971 52.432 223.291 47.932 223.291 42.532V42.46C223.291 37.024 219.007 32.596 213.175 32.596C207.343 32.596 203.023 37.096 203.023 42.532V42.604C203.023 48.004 207.307 52.432 213.103 52.432ZM213.175 48.616C209.791 48.616 207.379 45.844 207.379 42.532V42.46C207.379 39.148 209.611 36.412 213.103 36.412C216.523 36.412 218.935 39.184 218.935 42.532V42.604C218.935 45.88 216.703 48.616 213.175 48.616ZM232.443 52.36C236.403 52.36 239.499 50.38 239.499 46.384V46.312C239.499 42.892 236.367 41.632 233.595 40.768C231.363 40.048 229.311 39.472 229.311 38.068V37.996C229.311 36.916 230.283 36.124 231.975 36.124C233.307 36.124 234.891 36.628 236.439 37.42C236.727 37.564 236.943 37.636 237.303 37.636C238.311 37.636 239.103 36.88 239.103 35.872C239.103 35.116 238.671 34.54 238.059 34.216C236.223 33.244 234.099 32.668 232.083 32.668C228.303 32.668 225.315 34.864 225.315 38.464V38.536C225.315 42.172 228.447 43.324 231.255 44.116C233.487 44.8 235.503 45.304 235.503 46.78V46.852C235.503 48.112 234.423 48.904 232.551 48.904C230.823 48.904 228.915 48.292 227.079 47.068C226.827 46.924 226.503 46.816 226.143 46.816C225.135 46.816 224.379 47.608 224.379 48.58C224.379 49.3 224.739 49.84 225.207 50.092C227.403 51.604 230.031 52.36 232.443 52.36ZM245.439 41.164C245.835 38.212 247.707 36.16 250.371 36.16C253.251 36.16 254.907 38.356 255.195 41.164H245.439ZM257.715 49.912C258.039 49.588 258.291 49.12 258.291 48.58C258.291 47.572 257.535 46.816 256.563 46.816C256.059 46.816 255.771 46.96 255.447 47.212C254.223 48.22 252.783 48.868 250.947 48.868C248.139 48.868 245.943 47.14 245.475 44.044H257.391C258.507 44.044 259.443 43.18 259.443 41.956C259.443 37.564 256.455 32.596 250.407 32.596C244.971 32.596 241.119 37.06 241.119 42.496V42.568C241.119 48.436 245.367 52.432 250.875 52.432C253.827 52.432 255.987 51.46 257.715 49.912ZM262.089 50.02C262.089 51.244 263.061 52.18 264.249 52.18C265.473 52.18 266.445 51.208 266.445 50.02V44.404C266.445 39.904 268.569 37.528 271.665 36.988C272.637 36.808 273.393 36.052 273.393 34.9C273.393 33.64 272.601 32.74 271.233 32.74C269.325 32.74 267.453 34.54 266.445 36.916V34.972C266.445 33.748 265.473 32.776 264.249 32.776C263.025 32.776 262.089 33.748 262.089 34.972V50.02Z" fill="black"/>
<path d="M20.24 44.984C20.24 46.208 21.212 47.18 22.472 47.18C23.696 47.18 24.668 46.208 24.668 44.984V38.9H29.672C35.216 38.9 39.752 35.948 39.752 30.296V30.224C39.752 25.148 36.08 21.8 30.176 21.8H22.472C21.212 21.8 20.24 22.772 20.24 24.032V44.984ZM24.668 34.904V25.832H29.816C33.128 25.832 35.252 27.38 35.252 30.332V30.404C35.252 33.032 33.164 34.904 29.816 34.904H24.668ZM50.8431 47.432C56.7111 47.432 61.0311 42.932 61.0311 37.532V37.46C61.0311 32.024 56.7471 27.596 50.9151 27.596C45.0831 27.596 40.7631 32.096 40.7631 37.532V37.604C40.7631 43.004 45.0471 47.432 50.8431 47.432ZM50.9151 43.616C47.5311 43.616 45.1191 40.844 45.1191 37.532V37.46C45.1191 34.148 47.3511 31.412 50.8431 31.412C54.2631 31.412 56.6751 34.184 56.6751 37.532V37.604C56.6751 40.88 54.4431 43.616 50.9151 43.616ZM72.7033 47.432C78.5713 47.432 82.8913 42.932 82.8913 37.532V37.46C82.8913 32.024 78.6073 27.596 72.7753 27.596C66.9433 27.596 62.6233 32.096 62.6233 37.532V37.604C62.6233 43.004 66.9073 47.432 72.7033 47.432ZM72.7753 43.616C69.3913 43.616 66.9793 40.844 66.9793 37.532V37.46C66.9793 34.148 69.2113 31.412 72.7033 31.412C76.1233 31.412 78.5353 34.184 78.5353 37.532V37.604C78.5353 40.88 76.3033 43.616 72.7753 43.616ZM85.7794 45.02C85.7794 46.244 86.7514 47.18 87.9394 47.18C89.1634 47.18 90.1354 46.244 90.1354 45.02V22.7C90.1354 21.512 89.1634 20.54 87.9394 20.54C86.7154 20.54 85.7794 21.512 85.7794 22.7V45.02Z" fill="#00E59D"/>
<path d="M115.225 47.432C119.293 47.432 121.993 46.136 124.369 44.048C124.765 43.688 125.089 43.148 125.089 42.464C125.089 41.348 124.117 40.412 123.001 40.412C122.461 40.412 121.993 40.628 121.669 40.916C119.833 42.464 118.033 43.328 115.369 43.328C110.545 43.328 107.053 39.332 107.053 34.4V34.328C107.053 29.396 110.581 25.436 115.369 25.436C117.781 25.436 119.653 26.3 121.381 27.704C121.669 27.92 122.101 28.136 122.713 28.136C123.937 28.136 124.909 27.2 124.909 25.976C124.909 25.184 124.513 24.572 124.045 24.212C121.849 22.52 119.293 21.368 115.405 21.368C107.773 21.368 102.409 27.236 102.409 34.4V34.472C102.409 41.708 107.881 47.432 115.225 47.432ZM136.484 47.432C142.352 47.432 146.672 42.932 146.672 37.532V37.46C146.672 32.024 142.388 27.596 136.556 27.596C130.724 27.596 126.404 32.096 126.404 37.532V37.604C126.404 43.004 130.688 47.432 136.484 47.432ZM136.556 43.616C133.172 43.616 130.76 40.844 130.76 37.532V37.46C130.76 34.148 132.992 31.412 136.484 31.412C139.904 31.412 142.316 34.184 142.316 37.532V37.604C142.316 40.88 140.084 43.616 136.556 43.616ZM149.308 45.02C149.308 46.244 150.28 47.18 151.468 47.18C152.692 47.18 153.664 46.244 153.664 45.02V36.272C153.664 33.356 155.32 31.556 157.732 31.556C160.144 31.556 161.584 33.212 161.584 36.164V45.02C161.584 46.244 162.556 47.18 163.78 47.18C164.968 47.18 165.94 46.244 165.94 45.02V36.272C165.94 33.212 167.632 31.556 170.008 31.556C172.456 31.556 173.86 33.176 173.86 36.2V45.02C173.86 46.244 174.832 47.18 176.056 47.18C177.28 47.18 178.216 46.244 178.216 45.02V34.868C178.216 30.224 175.696 27.596 171.556 27.596C168.676 27.596 166.66 28.928 165.148 30.944C164.14 28.928 162.196 27.596 159.46 27.596C156.544 27.596 154.888 29.18 153.664 30.872V29.972C153.664 28.748 152.692 27.776 151.468 27.776C150.244 27.776 149.308 28.748 149.308 29.972V45.02ZM181.715 50.78C181.715 52.004 182.687 52.94 183.875 52.94C185.099 52.94 186.071 52.004 186.071 50.78V44.048C187.403 45.812 189.383 47.396 192.551 47.396C197.051 47.396 201.371 43.832 201.371 37.532V37.46C201.371 31.124 197.015 27.596 192.551 27.596C189.455 27.596 187.475 29.18 186.071 31.16V29.972C186.071 28.748 185.099 27.776 183.875 27.776C182.651 27.776 181.715 28.748 181.715 29.972V50.78ZM191.507 43.616C188.555 43.616 185.963 41.168 185.963 37.532V37.46C185.963 33.824 188.555 31.376 191.507 31.376C194.459 31.376 196.943 33.788 196.943 37.46V37.532C196.943 41.276 194.495 43.616 191.507 43.616ZM213.103 47.432C218.971 47.432 223.291 42.932 223.291 37.532V37.46C223.291 32.024 219.007 27.596 213.175 27.596C207.343 27.596 203.023 32.096 203.023 37.532V37.604C203.023 43.004 207.307 47.432 213.103 47.432ZM213.175 43.616C209.791 43.616 207.379 40.844 207.379 37.532V37.46C207.379 34.148 209.611 31.412 213.103 31.412C216.523 31.412 218.935 34.184 218.935 37.532V37.604C218.935 40.88 216.703 43.616 213.175 43.616ZM232.443 47.36C236.403 47.36 239.499 45.38 239.499 41.384V41.312C239.499 37.892 236.367 36.632 233.595 35.768C231.363 35.048 229.311 34.472 229.311 33.068V32.996C229.311 31.916 230.283 31.124 231.975 31.124C233.307 31.124 234.891 31.628 236.439 32.42C236.727 32.564 236.943 32.636 237.303 32.636C238.311 32.636 239.103 31.88 239.103 30.872C239.103 30.116 238.671 29.54 238.059 29.216C236.223 28.244 234.099 27.668 232.083 27.668C228.303 27.668 225.315 29.864 225.315 33.464V33.536C225.315 37.172 228.447 38.324 231.255 39.116C233.487 39.8 235.503 40.304 235.503 41.78V41.852C235.503 43.112 234.423 43.904 232.551 43.904C230.823 43.904 228.915 43.292 227.079 42.068C226.827 41.924 226.503 41.816 226.143 41.816C225.135 41.816 224.379 42.608 224.379 43.58C224.379 44.3 224.739 44.84 225.207 45.092C227.403 46.604 230.031 47.36 232.443 47.36ZM245.439 36.164C245.835 33.212 247.707 31.16 250.371 31.16C253.251 31.16 254.907 33.356 255.195 36.164H245.439ZM257.715 44.912C258.039 44.588 258.291 44.12 258.291 43.58C258.291 42.572 257.535 41.816 256.563 41.816C256.059 41.816 255.771 41.96 255.447 42.212C254.223 43.22 252.783 43.868 250.947 43.868C248.139 43.868 245.943 42.14 245.475 39.044H257.391C258.507 39.044 259.443 38.18 259.443 36.956C259.443 32.564 256.455 27.596 250.407 27.596C244.971 27.596 241.119 32.06 241.119 37.496V37.568C241.119 43.436 245.367 47.432 250.875 47.432C253.827 47.432 255.987 46.46 257.715 44.912ZM262.089 45.02C262.089 46.244 263.061 47.18 264.249 47.18C265.473 47.18 266.445 46.208 266.445 45.02V39.404C266.445 34.904 268.569 32.528 271.665 31.988C272.637 31.808 273.393 31.052 273.393 29.9C273.393 28.64 272.601 27.74 271.233 27.74C269.325 27.74 267.453 29.54 266.445 31.916V29.972C266.445 28.748 265.473 27.776 264.249 27.776C263.025 27.776 262.089 28.748 262.089 29.972V45.02Z" fill="#FF0000"/>
<g filter="url(#filter0_f)">
<path d="M20.24 44.984C20.24 46.208 21.212 47.18 22.472 47.18C23.696 47.18 24.668 46.208 24.668 44.984V38.9H29.672C35.216 38.9 39.752 35.948 39.752 30.296V30.224C39.752 25.148 36.08 21.8 30.176 21.8H22.472C21.212 21.8 20.24 22.772 20.24 24.032V44.984ZM24.668 34.904V25.832H29.816C33.128 25.832 35.252 27.38 35.252 30.332V30.404C35.252 33.032 33.164 34.904 29.816 34.904H24.668ZM50.8431 47.432C56.7111 47.432 61.0311 42.932 61.0311 37.532V37.46C61.0311 32.024 56.7471 27.596 50.9151 27.596C45.0831 27.596 40.7631 32.096 40.7631 37.532V37.604C40.7631 43.004 45.0471 47.432 50.8431 47.432ZM50.9151 43.616C47.5311 43.616 45.1191 40.844 45.1191 37.532V37.46C45.1191 34.148 47.3511 31.412 50.8431 31.412C54.2631 31.412 56.6751 34.184 56.6751 37.532V37.604C56.6751 40.88 54.4431 43.616 50.9151 43.616ZM72.7033 47.432C78.5713 47.432 82.8913 42.932 82.8913 37.532V37.46C82.8913 32.024 78.6073 27.596 72.7753 27.596C66.9433 27.596 62.6233 32.096 62.6233 37.532V37.604C62.6233 43.004 66.9073 47.432 72.7033 47.432ZM72.7753 43.616C69.3913 43.616 66.9793 40.844 66.9793 37.532V37.46C66.9793 34.148 69.2113 31.412 72.7033 31.412C76.1233 31.412 78.5353 34.184 78.5353 37.532V37.604C78.5353 40.88 76.3033 43.616 72.7753 43.616ZM85.7794 45.02C85.7794 46.244 86.7514 47.18 87.9394 47.18C89.1634 47.18 90.1354 46.244 90.1354 45.02V22.7C90.1354 21.512 89.1634 20.54 87.9394 20.54C86.7154 20.54 85.7794 21.512 85.7794 22.7V45.02Z" fill="#00E59D"/>
<path d="M115.225 47.432C119.293 47.432 121.993 46.136 124.369 44.048C124.765 43.688 125.089 43.148 125.089 42.464C125.089 41.348 124.117 40.412 123.001 40.412C122.461 40.412 121.993 40.628 121.669 40.916C119.833 42.464 118.033 43.328 115.369 43.328C110.545 43.328 107.053 39.332 107.053 34.4V34.328C107.053 29.396 110.581 25.436 115.369 25.436C117.781 25.436 119.653 26.3 121.381 27.704C121.669 27.92 122.101 28.136 122.713 28.136C123.937 28.136 124.909 27.2 124.909 25.976C124.909 25.184 124.513 24.572 124.045 24.212C121.849 22.52 119.293 21.368 115.405 21.368C107.773 21.368 102.409 27.236 102.409 34.4V34.472C102.409 41.708 107.881 47.432 115.225 47.432ZM136.484 47.432C142.352 47.432 146.672 42.932 146.672 37.532V37.46C146.672 32.024 142.388 27.596 136.556 27.596C130.724 27.596 126.404 32.096 126.404 37.532V37.604C126.404 43.004 130.688 47.432 136.484 47.432ZM136.556 43.616C133.172 43.616 130.76 40.844 130.76 37.532V37.46C130.76 34.148 132.992 31.412 136.484 31.412C139.904 31.412 142.316 34.184 142.316 37.532V37.604C142.316 40.88 140.084 43.616 136.556 43.616ZM149.308 45.02C149.308 46.244 150.28 47.18 151.468 47.18C152.692 47.18 153.664 46.244 153.664 45.02V36.272C153.664 33.356 155.32 31.556 157.732 31.556C160.144 31.556 161.584 33.212 161.584 36.164V45.02C161.584 46.244 162.556 47.18 163.78 47.18C164.968 47.18 165.94 46.244 165.94 45.02V36.272C165.94 33.212 167.632 31.556 170.008 31.556C172.456 31.556 173.86 33.176 173.86 36.2V45.02C173.86 46.244 174.832 47.18 176.056 47.18C177.28 47.18 178.216 46.244 178.216 45.02V34.868C178.216 30.224 175.696 27.596 171.556 27.596C168.676 27.596 166.66 28.928 165.148 30.944C164.14 28.928 162.196 27.596 159.46 27.596C156.544 27.596 154.888 29.18 153.664 30.872V29.972C153.664 28.748 152.692 27.776 151.468 27.776C150.244 27.776 149.308 28.748 149.308 29.972V45.02ZM181.715 50.78C181.715 52.004 182.687 52.94 183.875 52.94C185.099 52.94 186.071 52.004 186.071 50.78V44.048C187.403 45.812 189.383 47.396 192.551 47.396C197.051 47.396 201.371 43.832 201.371 37.532V37.46C201.371 31.124 197.015 27.596 192.551 27.596C189.455 27.596 187.475 29.18 186.071 31.16V29.972C186.071 28.748 185.099 27.776 183.875 27.776C182.651 27.776 181.715 28.748 181.715 29.972V50.78ZM191.507 43.616C188.555 43.616 185.963 41.168 185.963 37.532V37.46C185.963 33.824 188.555 31.376 191.507 31.376C194.459 31.376 196.943 33.788 196.943 37.46V37.532C196.943 41.276 194.495 43.616 191.507 43.616ZM213.103 47.432C218.971 47.432 223.291 42.932 223.291 37.532V37.46C223.291 32.024 219.007 27.596 213.175 27.596C207.343 27.596 203.023 32.096 203.023 37.532V37.604C203.023 43.004 207.307 47.432 213.103 47.432ZM213.175 43.616C209.791 43.616 207.379 40.844 207.379 37.532V37.46C207.379 34.148 209.611 31.412 213.103 31.412C216.523 31.412 218.935 34.184 218.935 37.532V37.604C218.935 40.88 216.703 43.616 213.175 43.616ZM232.443 47.36C236.403 47.36 239.499 45.38 239.499 41.384V41.312C239.499 37.892 236.367 36.632 233.595 35.768C231.363 35.048 229.311 34.472 229.311 33.068V32.996C229.311 31.916 230.283 31.124 231.975 31.124C233.307 31.124 234.891 31.628 236.439 32.42C236.727 32.564 236.943 32.636 237.303 32.636C238.311 32.636 239.103 31.88 239.103 30.872C239.103 30.116 238.671 29.54 238.059 29.216C236.223 28.244 234.099 27.668 232.083 27.668C228.303 27.668 225.315 29.864 225.315 33.464V33.536C225.315 37.172 228.447 38.324 231.255 39.116C233.487 39.8 235.503 40.304 235.503 41.78V41.852C235.503 43.112 234.423 43.904 232.551 43.904C230.823 43.904 228.915 43.292 227.079 42.068C226.827 41.924 226.503 41.816 226.143 41.816C225.135 41.816 224.379 42.608 224.379 43.58C224.379 44.3 224.739 44.84 225.207 45.092C227.403 46.604 230.031 47.36 232.443 47.36ZM245.439 36.164C245.835 33.212 247.707 31.16 250.371 31.16C253.251 31.16 254.907 33.356 255.195 36.164H245.439ZM257.715 44.912C258.039 44.588 258.291 44.12 258.291 43.58C258.291 42.572 257.535 41.816 256.563 41.816C256.059 41.816 255.771 41.96 255.447 42.212C254.223 43.22 252.783 43.868 250.947 43.868C248.139 43.868 245.943 42.14 245.475 39.044H257.391C258.507 39.044 259.443 38.18 259.443 36.956C259.443 32.564 256.455 27.596 250.407 27.596C244.971 27.596 241.119 32.06 241.119 37.496V37.568C241.119 43.436 245.367 47.432 250.875 47.432C253.827 47.432 255.987 46.46 257.715 44.912ZM262.089 45.02C262.089 46.244 263.061 47.18 264.249 47.18C265.473 47.18 266.445 46.208 266.445 45.02V39.404C266.445 34.904 268.569 32.528 271.665 31.988C272.637 31.808 273.393 31.052 273.393 29.9C273.393 28.64 272.601 27.74 271.233 27.74C269.325 27.74 267.453 29.54 266.445 31.916V29.972C266.445 28.748 265.473 27.776 264.249 27.776C263.025 27.776 262.089 28.748 262.089 29.972V45.02Z" fill="#FF0000"/>
</g>
<defs>
<filter id="filter0_f" x="0.240234" y="0.540039" width="293.153" height="72.4004" filterUnits="userSpaceOnUse" color-interpolation-filters="sRGB">
<feFlood flood-opacity="0" result="BackgroundImageFix"/>
<feBlend mode="normal" in="SourceGraphic" in2="BackgroundImageFix" result="shape"/>
<feGaussianBlur stdDeviation="10" result="effect1_foregroundBlur"/>
</filter>
</defs>
</svg>
