<svg width="294" height="73" fill="none" xmlns="http://www.w3.org/2000/svg"><path d="M20.24 49.984c0 1.224.972 2.196 2.232 2.196a2.182 2.182 0 0 0 2.196-2.196V43.9h5.004c5.544 0 10.08-2.952 10.08-8.604v-.072c0-5.076-3.672-8.424-9.576-8.424h-7.704c-1.26 0-2.232.972-2.232 2.232v20.952Zm4.428-10.08v-9.072h5.148c3.312 0 5.436 1.548 5.436 4.5v.072c0 2.628-2.088 4.5-5.436 4.5h-5.148Zm26.175 12.528c5.868 0 10.188-4.5 10.188-9.9v-.072c0-5.436-4.284-9.864-10.116-9.864s-10.152 4.5-10.152 9.936v.072c0 5.4 4.284 9.828 10.08 9.828Zm.072-3.816c-3.384 0-5.796-2.772-5.796-6.084v-.072c0-3.312 2.232-6.048 5.724-6.048 3.42 0 5.832 2.772 5.832 6.12v.072c0 3.276-2.232 6.012-5.76 6.012Zm21.788 3.816c5.868 0 10.188-4.5 10.188-9.9v-.072c0-5.436-4.284-9.864-10.116-9.864s-10.152 4.5-10.152 9.936v.072c0 5.4 4.284 9.828 10.08 9.828Zm.072-3.816c-3.384 0-5.796-2.772-5.796-6.084v-.072c0-3.312 2.232-6.048 5.724-6.048 3.42 0 5.832 2.772 5.832 6.12v.072c0 3.276-2.232 6.012-5.76 6.012ZM85.78 50.02c0 1.224.972 2.16 2.16 2.16 1.224 0 2.196-.936 2.196-2.16V27.7c0-1.188-.972-2.16-2.196-2.16-1.224 0-2.16.972-2.16 2.16v22.32Zm29.446 2.412c4.068 0 6.768-1.296 9.144-3.384.396-.36.72-.9.72-1.584 0-1.116-.972-2.052-2.088-2.052-.54 0-1.008.216-1.332.504-1.836 1.548-3.636 2.412-6.3 2.412-4.824 0-8.316-3.996-8.316-8.928v-.072c0-4.932 3.528-8.892 8.316-8.892 2.412 0 4.284.864 6.012 2.268.288.216.72.432 1.332.432 1.224 0 2.196-.936 2.196-2.16 0-.792-.396-1.404-.864-1.764-2.196-1.692-4.752-2.844-8.64-2.844-7.632 0-12.996 5.868-12.996 13.032v.072c0 7.236 5.472 12.96 12.816 12.96Zm21.259 0c5.868 0 10.188-4.5 10.188-9.9v-.072c0-5.436-4.284-9.864-10.116-9.864s-10.152 4.5-10.152 9.936v.072c0 5.4 4.284 9.828 10.08 9.828Zm.072-3.816c-3.384 0-5.796-2.772-5.796-6.084v-.072c0-3.312 2.232-6.048 5.724-6.048 3.42 0 5.832 2.772 5.832 6.12v.072c0 3.276-2.232 6.012-5.76 6.012Zm12.752 1.404c0 1.224.972 2.16 2.16 2.16 1.224 0 2.196-.936 2.196-2.16v-8.748c0-2.916 1.656-4.716 4.068-4.716s3.852 1.656 3.852 4.608v8.856c0 1.224.972 2.16 2.196 2.16 1.188 0 2.16-.936 2.16-2.16v-8.748c0-3.06 1.692-4.716 4.068-4.716 2.448 0 3.852 1.62 3.852 4.644v8.82c0 1.224.972 2.16 2.196 2.16 1.224 0 2.16-.936 2.16-2.16V39.868c0-4.644-2.52-7.272-6.66-7.272-2.88 0-4.896 1.332-6.408 3.348-1.008-2.016-2.952-3.348-5.688-3.348-2.916 0-4.572 1.584-5.796 3.276v-.9a2.182 2.182 0 0 0-2.196-2.196c-1.224 0-2.16.972-2.16 2.196V50.02Zm32.407 5.76c0 1.224.972 2.16 2.16 2.16 1.224 0 2.196-.936 2.196-2.16v-6.732c1.332 1.764 3.312 3.348 6.48 3.348 4.5 0 8.82-3.564 8.82-9.864v-.072c0-6.336-4.356-9.864-8.82-9.864-3.096 0-5.076 1.584-6.48 3.564v-1.188a2.182 2.182 0 0 0-2.196-2.196c-1.224 0-2.16.972-2.16 2.196V55.78Zm9.792-7.164c-2.952 0-5.544-2.448-5.544-6.084v-.072c0-3.636 2.592-6.084 5.544-6.084 2.952 0 5.436 2.412 5.436 6.084v.072c0 3.744-2.448 6.084-5.436 6.084Zm21.596 3.816c5.868 0 10.188-4.5 10.188-9.9v-.072c0-5.436-4.284-9.864-10.116-9.864s-10.152 4.5-10.152 9.936v.072c0 5.4 4.284 9.828 10.08 9.828Zm.072-3.816c-3.384 0-5.796-2.772-5.796-6.084v-.072c0-3.312 2.232-6.048 5.724-6.048 3.42 0 5.832 2.772 5.832 6.12v.072c0 3.276-2.232 6.012-5.76 6.012Zm19.268 3.744c3.96 0 7.056-1.98 7.056-5.976v-.072c0-3.42-3.132-4.68-5.904-5.544-2.232-.72-4.284-1.296-4.284-2.7v-.072c0-1.08.972-1.872 2.664-1.872 1.332 0 2.916.504 4.464 1.296.288.144.504.216.864.216 1.008 0 1.8-.756 1.8-1.764 0-.756-.432-1.332-1.044-1.656-1.836-.972-3.96-1.548-5.976-1.548-3.78 0-6.768 2.196-6.768 5.796v.072c0 3.636 3.132 4.788 5.94 5.58 2.232.684 4.248 1.188 4.248 2.664v.072c0 1.26-1.08 2.052-2.952 2.052-1.728 0-3.636-.612-5.472-1.836a1.9 1.9 0 0 0-.936-.252 1.744 1.744 0 0 0-1.764 1.764c0 .72.36 1.26.828 1.512 2.196 1.512 4.824 2.268 7.236 2.268Zm12.996-11.196c.396-2.952 2.268-5.004 4.932-5.004 2.88 0 4.536 2.196 4.824 5.004h-9.756Zm12.276 8.748c.324-.324.576-.792.576-1.332 0-1.008-.756-1.764-1.728-1.764-.504 0-.792.144-1.116.396-1.224 1.008-2.664 1.656-4.5 1.656-2.808 0-5.004-1.728-5.472-4.824h11.916c1.116 0 2.052-.864 2.052-2.088 0-4.392-2.988-9.36-9.036-9.36-5.436 0-9.288 4.464-9.288 9.9v.072c0 5.868 4.248 9.864 9.756 9.864 2.952 0 5.112-.972 6.84-2.52Zm4.374.108c0 1.224.972 2.16 2.16 2.16 1.224 0 2.196-.972 2.196-2.16v-5.616c0-4.5 2.124-6.876 5.22-7.416.972-.18 1.728-.936 1.728-2.088 0-1.26-.792-2.16-2.16-2.16-1.908 0-3.78 1.8-4.788 4.176v-1.944a2.182 2.182 0 0 0-2.196-2.196c-1.224 0-2.16.972-2.16 2.196V50.02Z" fill="#000"/><path d="M20.24 44.984c0 1.224.972 2.196 2.232 2.196a2.182 2.182 0 0 0 2.196-2.196V38.9h5.004c5.544 0 10.08-2.952 10.08-8.604v-.072c0-5.076-3.672-8.424-9.576-8.424h-7.704c-1.26 0-2.232.972-2.232 2.232v20.952Zm4.428-10.08v-9.072h5.148c3.312 0 5.436 1.548 5.436 4.5v.072c0 2.628-2.088 4.5-5.436 4.5h-5.148Zm26.175 12.528c5.868 0 10.188-4.5 10.188-9.9v-.072c0-5.436-4.284-9.864-10.116-9.864s-10.152 4.5-10.152 9.936v.072c0 5.4 4.284 9.828 10.08 9.828Zm.072-3.816c-3.384 0-5.796-2.772-5.796-6.084v-.072c0-3.312 2.232-6.048 5.724-6.048 3.42 0 5.832 2.772 5.832 6.12v.072c0 3.276-2.232 6.012-5.76 6.012Zm21.788 3.816c5.868 0 10.188-4.5 10.188-9.9v-.072c0-5.436-4.284-9.864-10.116-9.864s-10.152 4.5-10.152 9.936v.072c0 5.4 4.284 9.828 10.08 9.828Zm.072-3.816c-3.384 0-5.796-2.772-5.796-6.084v-.072c0-3.312 2.232-6.048 5.724-6.048 3.42 0 5.832 2.772 5.832 6.12v.072c0 3.276-2.232 6.012-5.76 6.012ZM85.78 45.02c0 1.224.972 2.16 2.16 2.16 1.224 0 2.196-.936 2.196-2.16V22.7c0-1.188-.972-2.16-2.196-2.16-1.224 0-2.16.972-2.16 2.16v22.32Z" fill="#00E59D"/><path d="M115.225 47.432c4.068 0 6.768-1.296 9.144-3.384.396-.36.72-.9.72-1.584 0-1.116-.972-2.052-2.088-2.052-.54 0-1.008.216-1.332.504-1.836 1.548-3.636 2.412-6.3 2.412-4.824 0-8.316-3.996-8.316-8.928v-.072c0-4.932 3.528-8.892 8.316-8.892 2.412 0 4.284.864 6.012 2.268.288.216.72.432 1.332.432 1.224 0 2.196-.936 2.196-2.16 0-.792-.396-1.404-.864-1.764-2.196-1.692-4.752-2.844-8.64-2.844-7.632 0-12.996 5.868-12.996 13.032v.072c0 7.236 5.472 12.96 12.816 12.96Zm21.259 0c5.868 0 10.188-4.5 10.188-9.9v-.072c0-5.436-4.284-9.864-10.116-9.864s-10.152 4.5-10.152 9.936v.072c0 5.4 4.284 9.828 10.08 9.828Zm.072-3.816c-3.384 0-5.796-2.772-5.796-6.084v-.072c0-3.312 2.232-6.048 5.724-6.048 3.42 0 5.832 2.772 5.832 6.12v.072c0 3.276-2.232 6.012-5.76 6.012Zm12.752 1.404c0 1.224.972 2.16 2.16 2.16 1.224 0 2.196-.936 2.196-2.16v-8.748c0-2.916 1.656-4.716 4.068-4.716s3.852 1.656 3.852 4.608v8.856c0 1.224.972 2.16 2.196 2.16 1.188 0 2.16-.936 2.16-2.16v-8.748c0-3.06 1.692-4.716 4.068-4.716 2.448 0 3.852 1.62 3.852 4.644v8.82c0 1.224.972 2.16 2.196 2.16 1.224 0 2.16-.936 2.16-2.16V34.868c0-4.644-2.52-7.272-6.66-7.272-2.88 0-4.896 1.332-6.408 3.348-1.008-2.016-2.952-3.348-5.688-3.348-2.916 0-4.572 1.584-5.796 3.276v-.9a2.182 2.182 0 0 0-2.196-2.196c-1.224 0-2.16.972-2.16 2.196V45.02Zm32.407 5.76c0 1.224.972 2.16 2.16 2.16 1.224 0 2.196-.936 2.196-2.16v-6.732c1.332 1.764 3.312 3.348 6.48 3.348 4.5 0 8.82-3.564 8.82-9.864v-.072c0-6.336-4.356-9.864-8.82-9.864-3.096 0-5.076 1.584-6.48 3.564v-1.188a2.182 2.182 0 0 0-2.196-2.196c-1.224 0-2.16.972-2.16 2.196V50.78Zm9.792-7.164c-2.952 0-5.544-2.448-5.544-6.084v-.072c0-3.636 2.592-6.084 5.544-6.084 2.952 0 5.436 2.412 5.436 6.084v.072c0 3.744-2.448 6.084-5.436 6.084Zm21.596 3.816c5.868 0 10.188-4.5 10.188-9.9v-.072c0-5.436-4.284-9.864-10.116-9.864s-10.152 4.5-10.152 9.936v.072c0 5.4 4.284 9.828 10.08 9.828Zm.072-3.816c-3.384 0-5.796-2.772-5.796-6.084v-.072c0-3.312 2.232-6.048 5.724-6.048 3.42 0 5.832 2.772 5.832 6.12v.072c0 3.276-2.232 6.012-5.76 6.012Zm19.268 3.744c3.96 0 7.056-1.98 7.056-5.976v-.072c0-3.42-3.132-4.68-5.904-5.544-2.232-.72-4.284-1.296-4.284-2.7v-.072c0-1.08.972-1.872 2.664-1.872 1.332 0 2.916.504 4.464 1.296.288.144.504.216.864.216 1.008 0 1.8-.756 1.8-1.764 0-.756-.432-1.332-1.044-1.656-1.836-.972-3.96-1.548-5.976-1.548-3.78 0-6.768 2.196-6.768 5.796v.072c0 3.636 3.132 4.788 5.94 5.58 2.232.684 4.248 1.188 4.248 2.664v.072c0 1.26-1.08 2.052-2.952 2.052-1.728 0-3.636-.612-5.472-1.836a1.9 1.9 0 0 0-.936-.252 1.744 1.744 0 0 0-1.764 1.764c0 .72.36 1.26.828 1.512 2.196 1.512 4.824 2.268 7.236 2.268Zm12.996-11.196c.396-2.952 2.268-5.004 4.932-5.004 2.88 0 4.536 2.196 4.824 5.004h-9.756Zm12.276 8.748c.324-.324.576-.792.576-1.332 0-1.008-.756-1.764-1.728-1.764-.504 0-.792.144-1.116.396-1.224 1.008-2.664 1.656-4.5 1.656-2.808 0-5.004-1.728-5.472-4.824h11.916c1.116 0 2.052-.864 2.052-2.088 0-4.392-2.988-9.36-9.036-9.36-5.436 0-9.288 4.464-9.288 9.9v.072c0 5.868 4.248 9.864 9.756 9.864 2.952 0 5.112-.972 6.84-2.52Zm4.374.108c0 1.224.972 2.16 2.16 2.16 1.224 0 2.196-.972 2.196-2.16v-5.616c0-4.5 2.124-6.876 5.22-7.416.972-.18 1.728-.936 1.728-2.088 0-1.26-.792-2.16-2.16-2.16-1.908 0-3.78 1.8-4.788 4.176v-1.944a2.182 2.182 0 0 0-2.196-2.196c-1.224 0-2.16.972-2.16 2.196V45.02Z" fill="red"/><g filter="url(#a)"><path d="M20.24 44.984c0 1.224.972 2.196 2.232 2.196a2.182 2.182 0 0 0 2.196-2.196V38.9h5.004c5.544 0 10.08-2.952 10.08-8.604v-.072c0-5.076-3.672-8.424-9.576-8.424h-7.704c-1.26 0-2.232.972-2.232 2.232v20.952Zm4.428-10.08v-9.072h5.148c3.312 0 5.436 1.548 5.436 4.5v.072c0 2.628-2.088 4.5-5.436 4.5h-5.148Zm26.175 12.528c5.868 0 10.188-4.5 10.188-9.9v-.072c0-5.436-4.284-9.864-10.116-9.864s-10.152 4.5-10.152 9.936v.072c0 5.4 4.284 9.828 10.08 9.828Zm.072-3.816c-3.384 0-5.796-2.772-5.796-6.084v-.072c0-3.312 2.232-6.048 5.724-6.048 3.42 0 5.832 2.772 5.832 6.12v.072c0 3.276-2.232 6.012-5.76 6.012Zm21.788 3.816c5.868 0 10.188-4.5 10.188-9.9v-.072c0-5.436-4.284-9.864-10.116-9.864s-10.152 4.5-10.152 9.936v.072c0 5.4 4.284 9.828 10.08 9.828Zm.072-3.816c-3.384 0-5.796-2.772-5.796-6.084v-.072c0-3.312 2.232-6.048 5.724-6.048 3.42 0 5.832 2.772 5.832 6.12v.072c0 3.276-2.232 6.012-5.76 6.012ZM85.78 45.02c0 1.224.972 2.16 2.16 2.16 1.224 0 2.196-.936 2.196-2.16V22.7c0-1.188-.972-2.16-2.196-2.16-1.224 0-2.16.972-2.16 2.16v22.32Z" fill="#00E59D"/><path d="M115.225 47.432c4.068 0 6.768-1.296 9.144-3.384.396-.36.72-.9.72-1.584 0-1.116-.972-2.052-2.088-2.052-.54 0-1.008.216-1.332.504-1.836 1.548-3.636 2.412-6.3 2.412-4.824 0-8.316-3.996-8.316-8.928v-.072c0-4.932 3.528-8.892 8.316-8.892 2.412 0 4.284.864 6.012 2.268.288.216.72.432 1.332.432 1.224 0 2.196-.936 2.196-2.16 0-.792-.396-1.404-.864-1.764-2.196-1.692-4.752-2.844-8.64-2.844-7.632 0-12.996 5.868-12.996 13.032v.072c0 7.236 5.472 12.96 12.816 12.96Zm21.259 0c5.868 0 10.188-4.5 10.188-9.9v-.072c0-5.436-4.284-9.864-10.116-9.864s-10.152 4.5-10.152 9.936v.072c0 5.4 4.284 9.828 10.08 9.828Zm.072-3.816c-3.384 0-5.796-2.772-5.796-6.084v-.072c0-3.312 2.232-6.048 5.724-6.048 3.42 0 5.832 2.772 5.832 6.12v.072c0 3.276-2.232 6.012-5.76 6.012Zm12.752 1.404c0 1.224.972 2.16 2.16 2.16 1.224 0 2.196-.936 2.196-2.16v-8.748c0-2.916 1.656-4.716 4.068-4.716s3.852 1.656 3.852 4.608v8.856c0 1.224.972 2.16 2.196 2.16 1.188 0 2.16-.936 2.16-2.16v-8.748c0-3.06 1.692-4.716 4.068-4.716 2.448 0 3.852 1.62 3.852 4.644v8.82c0 1.224.972 2.16 2.196 2.16 1.224 0 2.16-.936 2.16-2.16V34.868c0-4.644-2.52-7.272-6.66-7.272-2.88 0-4.896 1.332-6.408 3.348-1.008-2.016-2.952-3.348-5.688-3.348-2.916 0-4.572 1.584-5.796 3.276v-.9a2.182 2.182 0 0 0-2.196-2.196c-1.224 0-2.16.972-2.16 2.196V45.02Zm32.407 5.76c0 1.224.972 2.16 2.16 2.16 1.224 0 2.196-.936 2.196-2.16v-6.732c1.332 1.764 3.312 3.348 6.48 3.348 4.5 0 8.82-3.564 8.82-9.864v-.072c0-6.336-4.356-9.864-8.82-9.864-3.096 0-5.076 1.584-6.48 3.564v-1.188a2.182 2.182 0 0 0-2.196-2.196c-1.224 0-2.16.972-2.16 2.196V50.78Zm9.792-7.164c-2.952 0-5.544-2.448-5.544-6.084v-.072c0-3.636 2.592-6.084 5.544-6.084 2.952 0 5.436 2.412 5.436 6.084v.072c0 3.744-2.448 6.084-5.436 6.084Zm21.596 3.816c5.868 0 10.188-4.5 10.188-9.9v-.072c0-5.436-4.284-9.864-10.116-9.864s-10.152 4.5-10.152 9.936v.072c0 5.4 4.284 9.828 10.08 9.828Zm.072-3.816c-3.384 0-5.796-2.772-5.796-6.084v-.072c0-3.312 2.232-6.048 5.724-6.048 3.42 0 5.832 2.772 5.832 6.12v.072c0 3.276-2.232 6.012-5.76 6.012Zm19.268 3.744c3.96 0 7.056-1.98 7.056-5.976v-.072c0-3.42-3.132-4.68-5.904-5.544-2.232-.72-4.284-1.296-4.284-2.7v-.072c0-1.08.972-1.872 2.664-1.872 1.332 0 2.916.504 4.464 1.296.288.144.504.216.864.216 1.008 0 1.8-.756 1.8-1.764 0-.756-.432-1.332-1.044-1.656-1.836-.972-3.96-1.548-5.976-1.548-3.78 0-6.768 2.196-6.768 5.796v.072c0 3.636 3.132 4.788 5.94 5.58 2.232.684 4.248 1.188 4.248 2.664v.072c0 1.26-1.08 2.052-2.952 2.052-1.728 0-3.636-.612-5.472-1.836a1.9 1.9 0 0 0-.936-.252 1.744 1.744 0 0 0-1.764 1.764c0 .72.36 1.26.828 1.512 2.196 1.512 4.824 2.268 7.236 2.268Zm12.996-11.196c.396-2.952 2.268-5.004 4.932-5.004 2.88 0 4.536 2.196 4.824 5.004h-9.756Zm12.276 8.748c.324-.324.576-.792.576-1.332 0-1.008-.756-1.764-1.728-1.764-.504 0-.792.144-1.116.396-1.224 1.008-2.664 1.656-4.5 1.656-2.808 0-5.004-1.728-5.472-4.824h11.916c1.116 0 2.052-.864 2.052-2.088 0-4.392-2.988-9.36-9.036-9.36-5.436 0-9.288 4.464-9.288 9.9v.072c0 5.868 4.248 9.864 9.756 9.864 2.952 0 5.112-.972 6.84-2.52Zm4.374.108c0 1.224.972 2.16 2.16 2.16 1.224 0 2.196-.972 2.196-2.16v-5.616c0-4.5 2.124-6.876 5.22-7.416.972-.18 1.728-.936 1.728-2.088 0-1.26-.792-2.16-2.16-2.16-1.908 0-3.78 1.8-4.788 4.176v-1.944a2.182 2.182 0 0 0-2.196-2.196c-1.224 0-2.16.972-2.16 2.196V45.02Z" fill="red"/></g><defs><filter id="a" x=".24" y=".54" width="293.153" height="72.4" filterUnits="userSpaceOnUse" color-interpolation-filters="sRGB"><feFlood flood-opacity="0" result="BackgroundImageFix"/><feBlend in="SourceGraphic" in2="BackgroundImageFix" result="shape"/><feGaussianBlur stdDeviation="10" result="effect1_foregroundBlur"/></filter></defs></svg>