<svg width="329" height="68" viewBox="0 0 329 68" fill="none" xmlns="http://www.w3.org/2000/svg">
<path d="M20.24 49.984C20.24 51.208 21.212 52.18 22.472 52.18C23.696 52.18 24.668 51.208 24.668 49.984V43.9H29.672C35.216 43.9 39.752 40.948 39.752 35.296V35.224C39.752 30.148 36.08 26.8 30.176 26.8H22.472C21.212 26.8 20.24 27.772 20.24 29.032V49.984ZM24.668 39.904V30.832H29.816C33.128 30.832 35.252 32.38 35.252 35.332V35.404C35.252 38.032 33.164 39.904 29.816 39.904H24.668ZM41.9829 50.02C41.9829 51.244 42.9549 52.18 44.1429 52.18C45.3669 52.18 46.3389 51.208 46.3389 50.02V44.404C46.3389 39.904 48.4629 37.528 51.5589 36.988C52.5309 36.808 53.2869 36.052 53.2869 34.9C53.2869 33.64 52.4949 32.74 51.1269 32.74C49.2189 32.74 47.3469 34.54 46.3389 36.916V34.972C46.3389 33.748 45.3669 32.776 44.1429 32.776C42.9189 32.776 41.9829 33.748 41.9829 34.972V50.02ZM63.4572 52.432C69.3252 52.432 73.6452 47.932 73.6452 42.532V42.46C73.6452 37.024 69.3612 32.596 63.5292 32.596C57.6972 32.596 53.3772 37.096 53.3772 42.532V42.604C53.3772 48.004 57.6612 52.432 63.4572 52.432ZM63.5292 48.616C60.1452 48.616 57.7332 45.844 57.7332 42.532V42.46C57.7332 39.148 59.9652 36.412 63.4572 36.412C66.8772 36.412 69.2892 39.184 69.2892 42.532V42.604C69.2892 45.88 67.0572 48.616 63.5292 48.616ZM82.6533 52.324C83.8053 52.324 84.7053 52.144 85.6413 51.82C86.2533 51.568 86.7933 50.92 86.7933 50.128C86.7933 49.12 85.9293 48.328 84.9573 48.328C84.8133 48.328 84.3813 48.436 83.8773 48.436C82.4013 48.436 81.5373 47.752 81.5373 46.06V36.736H84.9573C86.0013 36.736 86.8653 35.908 86.8653 34.864C86.8653 33.82 86.0013 32.992 84.9573 32.992H81.5373V29.752C81.5373 28.564 80.5653 27.592 79.3773 27.592C78.1533 27.592 77.1813 28.564 77.1813 29.752V32.992H76.4613C75.4173 32.992 74.5893 33.82 74.5893 34.864C74.5893 35.908 75.4173 36.736 76.4613 36.736H77.1813V46.744C77.1813 50.92 79.4493 52.324 82.6533 52.324ZM97.7908 52.432C103.659 52.432 107.979 47.932 107.979 42.532V42.46C107.979 37.024 103.695 32.596 97.8628 32.596C92.0308 32.596 87.7108 37.096 87.7108 42.532V42.604C87.7108 48.004 91.9948 52.432 97.7908 52.432ZM97.8628 48.616C94.4788 48.616 92.0668 45.844 92.0668 42.532V42.46C92.0668 39.148 94.2988 36.412 97.7908 36.412C101.211 36.412 103.623 39.184 103.623 42.532V42.604C103.623 45.88 101.391 48.616 97.8628 48.616ZM119.399 52.432C122.567 52.432 124.619 51.352 126.311 49.732C126.707 49.408 126.923 48.94 126.923 48.364C126.923 47.32 126.095 46.456 125.051 46.456C124.547 46.456 124.115 46.708 123.863 46.924C122.675 47.932 121.343 48.616 119.615 48.616C116.267 48.616 113.927 45.916 113.927 42.532V42.46C113.927 39.148 116.267 36.412 119.435 36.412C121.163 36.412 122.387 37.096 123.503 38.032C123.791 38.248 124.259 38.464 124.799 38.464C125.915 38.464 126.815 37.6 126.815 36.484C126.815 35.764 126.419 35.224 126.131 34.972C124.511 33.568 122.459 32.596 119.471 32.596C113.747 32.596 109.571 37.132 109.571 42.532V42.604C109.571 48.004 113.747 52.432 119.399 52.432ZM137.89 52.432C143.758 52.432 148.078 47.932 148.078 42.532V42.46C148.078 37.024 143.794 32.596 137.962 32.596C132.13 32.596 127.81 37.096 127.81 42.532V42.604C127.81 48.004 132.094 52.432 137.89 52.432ZM137.962 48.616C134.578 48.616 132.166 45.844 132.166 42.532V42.46C132.166 39.148 134.398 36.412 137.89 36.412C141.31 36.412 143.722 39.184 143.722 42.532V42.604C143.722 45.88 141.49 48.616 137.962 48.616ZM150.966 50.02C150.966 51.244 151.938 52.18 153.126 52.18C154.35 52.18 155.322 51.244 155.322 50.02V27.7C155.322 26.512 154.35 25.54 153.126 25.54C151.902 25.54 150.966 26.512 150.966 27.7V50.02ZM168.712 49.984C168.712 51.208 169.684 52.18 170.944 52.18C172.168 52.18 173.14 51.208 173.14 49.984V41.74H184.012C185.128 41.74 186.028 40.84 186.028 39.724C186.028 38.608 185.128 37.708 184.012 37.708H173.14V30.832H185.632C186.748 30.832 187.648 29.932 187.648 28.816C187.648 27.7 186.748 26.8 185.632 26.8H170.944C169.684 26.8 168.712 27.772 168.712 29.032V49.984ZM192.782 41.164C193.178 38.212 195.05 36.16 197.714 36.16C200.594 36.16 202.25 38.356 202.538 41.164H192.782ZM205.058 49.912C205.382 49.588 205.634 49.12 205.634 48.58C205.634 47.572 204.878 46.816 203.906 46.816C203.402 46.816 203.114 46.96 202.79 47.212C201.566 48.22 200.126 48.868 198.29 48.868C195.482 48.868 193.286 47.14 192.818 44.044H204.734C205.85 44.044 206.786 43.18 206.786 41.956C206.786 37.564 203.798 32.596 197.75 32.596C192.314 32.596 188.462 37.06 188.462 42.496V42.568C188.462 48.436 192.71 52.432 198.218 52.432C201.17 52.432 203.33 51.46 205.058 49.912ZM214.904 52.396C217.82 52.396 219.8 51.172 221.096 49.624V50.344C221.096 51.316 221.96 52.18 223.22 52.18C224.408 52.18 225.344 51.28 225.344 50.092V40.732C225.344 38.248 224.696 36.232 223.292 34.864C221.96 33.496 219.836 32.74 216.992 32.74C214.508 32.74 212.672 33.172 210.872 33.856C210.224 34.108 209.684 34.792 209.684 35.584C209.684 36.592 210.512 37.384 211.52 37.384C211.736 37.384 211.952 37.348 212.204 37.276C213.392 36.808 214.76 36.52 216.416 36.52C219.476 36.52 221.132 37.96 221.132 40.66V41.128C219.656 40.66 218.144 40.336 216.02 40.336C211.376 40.336 208.172 42.352 208.172 46.456V46.528C208.172 50.344 211.34 52.396 214.904 52.396ZM216.128 49.228C214.04 49.228 212.42 48.184 212.42 46.348V46.276C212.42 44.296 214.076 43.108 216.884 43.108C218.612 43.108 220.088 43.432 221.204 43.864V45.16C221.204 47.572 219.008 49.228 216.128 49.228ZM234.957 52.324C236.109 52.324 237.009 52.144 237.945 51.82C238.557 51.568 239.097 50.92 239.097 50.128C239.097 49.12 238.233 48.328 237.261 48.328C237.117 48.328 236.685 48.436 236.181 48.436C234.705 48.436 233.841 47.752 233.841 46.06V36.736H237.261C238.305 36.736 239.169 35.908 239.169 34.864C239.169 33.82 238.305 32.992 237.261 32.992H233.841V29.752C233.841 28.564 232.869 27.592 231.681 27.592C230.457 27.592 229.485 28.564 229.485 29.752V32.992H228.765C227.721 32.992 226.893 33.82 226.893 34.864C226.893 35.908 227.721 36.736 228.765 36.736H229.485V46.744C229.485 50.92 231.753 52.324 234.957 52.324ZM258.47 34.972C258.47 33.748 257.462 32.776 256.274 32.776C255.05 32.776 254.078 33.748 254.078 34.972V43.72C254.078 46.672 252.314 48.4 249.794 48.4C247.202 48.4 245.726 46.744 245.726 43.792V34.972C245.726 33.748 244.754 32.776 243.53 32.776C242.342 32.776 241.37 33.748 241.37 34.972V45.088C241.37 49.516 243.854 52.396 248.138 52.396C251.09 52.396 252.854 50.848 254.078 49.048V50.02C254.078 51.244 255.086 52.18 256.274 52.18C257.498 52.18 258.47 51.208 258.47 50.02V34.972ZM262.11 50.02C262.11 51.244 263.082 52.18 264.27 52.18C265.494 52.18 266.466 51.208 266.466 50.02V44.404C266.466 39.904 268.59 37.528 271.686 36.988C272.658 36.808 273.414 36.052 273.414 34.9C273.414 33.64 272.622 32.74 271.254 32.74C269.346 32.74 267.474 34.54 266.466 36.916V34.972C266.466 33.748 265.494 32.776 264.27 32.776C263.046 32.776 262.11 33.748 262.11 34.972V50.02ZM277.825 41.164C278.221 38.212 280.093 36.16 282.757 36.16C285.637 36.16 287.293 38.356 287.581 41.164H277.825ZM290.101 49.912C290.425 49.588 290.677 49.12 290.677 48.58C290.677 47.572 289.921 46.816 288.949 46.816C288.445 46.816 288.157 46.96 287.833 47.212C286.609 48.22 285.169 48.868 283.333 48.868C280.525 48.868 278.329 47.14 277.861 44.044H289.777C290.893 44.044 291.829 43.18 291.829 41.956C291.829 37.564 288.841 32.596 282.793 32.596C277.357 32.596 273.505 37.06 273.505 42.496V42.568C273.505 48.436 277.753 52.432 283.261 52.432C286.213 52.432 288.373 51.46 290.101 49.912ZM300.991 52.36C304.951 52.36 308.047 50.38 308.047 46.384V46.312C308.047 42.892 304.915 41.632 302.143 40.768C299.911 40.048 297.859 39.472 297.859 38.068V37.996C297.859 36.916 298.831 36.124 300.523 36.124C301.855 36.124 303.439 36.628 304.987 37.42C305.275 37.564 305.491 37.636 305.851 37.636C306.859 37.636 307.651 36.88 307.651 35.872C307.651 35.116 307.219 34.54 306.607 34.216C304.771 33.244 302.647 32.668 300.631 32.668C296.851 32.668 293.863 34.864 293.863 38.464V38.536C293.863 42.172 296.995 43.324 299.803 44.116C302.035 44.8 304.051 45.304 304.051 46.78V46.852C304.051 48.112 302.971 48.904 301.099 48.904C299.371 48.904 297.463 48.292 295.627 47.068C295.375 46.924 295.051 46.816 294.691 46.816C293.683 46.816 292.927 47.608 292.927 48.58C292.927 49.3 293.287 49.84 293.755 50.092C295.951 51.604 298.579 52.36 300.991 52.36Z" fill="black"/>
<path d="M20.24 44.984C20.24 46.208 21.212 47.18 22.472 47.18C23.696 47.18 24.668 46.208 24.668 44.984V38.9H29.672C35.216 38.9 39.752 35.948 39.752 30.296V30.224C39.752 25.148 36.08 21.8 30.176 21.8H22.472C21.212 21.8 20.24 22.772 20.24 24.032V44.984ZM24.668 34.904V25.832H29.816C33.128 25.832 35.252 27.38 35.252 30.332V30.404C35.252 33.032 33.164 34.904 29.816 34.904H24.668ZM41.9829 45.02C41.9829 46.244 42.9549 47.18 44.1429 47.18C45.3669 47.18 46.3389 46.208 46.3389 45.02V39.404C46.3389 34.904 48.4629 32.528 51.5589 31.988C52.5309 31.808 53.2869 31.052 53.2869 29.9C53.2869 28.64 52.4949 27.74 51.1269 27.74C49.2189 27.74 47.3469 29.54 46.3389 31.916V29.972C46.3389 28.748 45.3669 27.776 44.1429 27.776C42.9189 27.776 41.9829 28.748 41.9829 29.972V45.02ZM63.4572 47.432C69.3252 47.432 73.6452 42.932 73.6452 37.532V37.46C73.6452 32.024 69.3612 27.596 63.5292 27.596C57.6972 27.596 53.3772 32.096 53.3772 37.532V37.604C53.3772 43.004 57.6612 47.432 63.4572 47.432ZM63.5292 43.616C60.1452 43.616 57.7332 40.844 57.7332 37.532V37.46C57.7332 34.148 59.9652 31.412 63.4572 31.412C66.8772 31.412 69.2892 34.184 69.2892 37.532V37.604C69.2892 40.88 67.0572 43.616 63.5292 43.616ZM82.6533 47.324C83.8053 47.324 84.7053 47.144 85.6413 46.82C86.2533 46.568 86.7933 45.92 86.7933 45.128C86.7933 44.12 85.9293 43.328 84.9573 43.328C84.8133 43.328 84.3813 43.436 83.8773 43.436C82.4013 43.436 81.5373 42.752 81.5373 41.06V31.736H84.9573C86.0013 31.736 86.8653 30.908 86.8653 29.864C86.8653 28.82 86.0013 27.992 84.9573 27.992H81.5373V24.752C81.5373 23.564 80.5653 22.592 79.3773 22.592C78.1533 22.592 77.1813 23.564 77.1813 24.752V27.992H76.4613C75.4173 27.992 74.5893 28.82 74.5893 29.864C74.5893 30.908 75.4173 31.736 76.4613 31.736H77.1813V41.744C77.1813 45.92 79.4493 47.324 82.6533 47.324ZM97.7908 47.432C103.659 47.432 107.979 42.932 107.979 37.532V37.46C107.979 32.024 103.695 27.596 97.8628 27.596C92.0308 27.596 87.7108 32.096 87.7108 37.532V37.604C87.7108 43.004 91.9948 47.432 97.7908 47.432ZM97.8628 43.616C94.4788 43.616 92.0668 40.844 92.0668 37.532V37.46C92.0668 34.148 94.2988 31.412 97.7908 31.412C101.211 31.412 103.623 34.184 103.623 37.532V37.604C103.623 40.88 101.391 43.616 97.8628 43.616ZM119.399 47.432C122.567 47.432 124.619 46.352 126.311 44.732C126.707 44.408 126.923 43.94 126.923 43.364C126.923 42.32 126.095 41.456 125.051 41.456C124.547 41.456 124.115 41.708 123.863 41.924C122.675 42.932 121.343 43.616 119.615 43.616C116.267 43.616 113.927 40.916 113.927 37.532V37.46C113.927 34.148 116.267 31.412 119.435 31.412C121.163 31.412 122.387 32.096 123.503 33.032C123.791 33.248 124.259 33.464 124.799 33.464C125.915 33.464 126.815 32.6 126.815 31.484C126.815 30.764 126.419 30.224 126.131 29.972C124.511 28.568 122.459 27.596 119.471 27.596C113.747 27.596 109.571 32.132 109.571 37.532V37.604C109.571 43.004 113.747 47.432 119.399 47.432ZM137.89 47.432C143.758 47.432 148.078 42.932 148.078 37.532V37.46C148.078 32.024 143.794 27.596 137.962 27.596C132.13 27.596 127.81 32.096 127.81 37.532V37.604C127.81 43.004 132.094 47.432 137.89 47.432ZM137.962 43.616C134.578 43.616 132.166 40.844 132.166 37.532V37.46C132.166 34.148 134.398 31.412 137.89 31.412C141.31 31.412 143.722 34.184 143.722 37.532V37.604C143.722 40.88 141.49 43.616 137.962 43.616ZM150.966 45.02C150.966 46.244 151.938 47.18 153.126 47.18C154.35 47.18 155.322 46.244 155.322 45.02V22.7C155.322 21.512 154.35 20.54 153.126 20.54C151.902 20.54 150.966 21.512 150.966 22.7V45.02Z" fill="#00E59D"/>
<path d="M168.712 44.984C168.712 46.208 169.684 47.18 170.944 47.18C172.168 47.18 173.14 46.208 173.14 44.984V36.74H184.012C185.128 36.74 186.028 35.84 186.028 34.724C186.028 33.608 185.128 32.708 184.012 32.708H173.14V25.832H185.632C186.748 25.832 187.648 24.932 187.648 23.816C187.648 22.7 186.748 21.8 185.632 21.8H170.944C169.684 21.8 168.712 22.772 168.712 24.032V44.984ZM192.782 36.164C193.178 33.212 195.05 31.16 197.714 31.16C200.594 31.16 202.25 33.356 202.538 36.164H192.782ZM205.058 44.912C205.382 44.588 205.634 44.12 205.634 43.58C205.634 42.572 204.878 41.816 203.906 41.816C203.402 41.816 203.114 41.96 202.79 42.212C201.566 43.22 200.126 43.868 198.29 43.868C195.482 43.868 193.286 42.14 192.818 39.044H204.734C205.85 39.044 206.786 38.18 206.786 36.956C206.786 32.564 203.798 27.596 197.75 27.596C192.314 27.596 188.462 32.06 188.462 37.496V37.568C188.462 43.436 192.71 47.432 198.218 47.432C201.17 47.432 203.33 46.46 205.058 44.912ZM214.904 47.396C217.82 47.396 219.8 46.172 221.096 44.624V45.344C221.096 46.316 221.96 47.18 223.22 47.18C224.408 47.18 225.344 46.28 225.344 45.092V35.732C225.344 33.248 224.696 31.232 223.292 29.864C221.96 28.496 219.836 27.74 216.992 27.74C214.508 27.74 212.672 28.172 210.872 28.856C210.224 29.108 209.684 29.792 209.684 30.584C209.684 31.592 210.512 32.384 211.52 32.384C211.736 32.384 211.952 32.348 212.204 32.276C213.392 31.808 214.76 31.52 216.416 31.52C219.476 31.52 221.132 32.96 221.132 35.66V36.128C219.656 35.66 218.144 35.336 216.02 35.336C211.376 35.336 208.172 37.352 208.172 41.456V41.528C208.172 45.344 211.34 47.396 214.904 47.396ZM216.128 44.228C214.04 44.228 212.42 43.184 212.42 41.348V41.276C212.42 39.296 214.076 38.108 216.884 38.108C218.612 38.108 220.088 38.432 221.204 38.864V40.16C221.204 42.572 219.008 44.228 216.128 44.228ZM234.957 47.324C236.109 47.324 237.009 47.144 237.945 46.82C238.557 46.568 239.097 45.92 239.097 45.128C239.097 44.12 238.233 43.328 237.261 43.328C237.117 43.328 236.685 43.436 236.181 43.436C234.705 43.436 233.841 42.752 233.841 41.06V31.736H237.261C238.305 31.736 239.169 30.908 239.169 29.864C239.169 28.82 238.305 27.992 237.261 27.992H233.841V24.752C233.841 23.564 232.869 22.592 231.681 22.592C230.457 22.592 229.485 23.564 229.485 24.752V27.992H228.765C227.721 27.992 226.893 28.82 226.893 29.864C226.893 30.908 227.721 31.736 228.765 31.736H229.485V41.744C229.485 45.92 231.753 47.324 234.957 47.324ZM258.47 29.972C258.47 28.748 257.462 27.776 256.274 27.776C255.05 27.776 254.078 28.748 254.078 29.972V38.72C254.078 41.672 252.314 43.4 249.794 43.4C247.202 43.4 245.726 41.744 245.726 38.792V29.972C245.726 28.748 244.754 27.776 243.53 27.776C242.342 27.776 241.37 28.748 241.37 29.972V40.088C241.37 44.516 243.854 47.396 248.138 47.396C251.09 47.396 252.854 45.848 254.078 44.048V45.02C254.078 46.244 255.086 47.18 256.274 47.18C257.498 47.18 258.47 46.208 258.47 45.02V29.972ZM262.11 45.02C262.11 46.244 263.082 47.18 264.27 47.18C265.494 47.18 266.466 46.208 266.466 45.02V39.404C266.466 34.904 268.59 32.528 271.686 31.988C272.658 31.808 273.414 31.052 273.414 29.9C273.414 28.64 272.622 27.74 271.254 27.74C269.346 27.74 267.474 29.54 266.466 31.916V29.972C266.466 28.748 265.494 27.776 264.27 27.776C263.046 27.776 262.11 28.748 262.11 29.972V45.02ZM277.825 36.164C278.221 33.212 280.093 31.16 282.757 31.16C285.637 31.16 287.293 33.356 287.581 36.164H277.825ZM290.101 44.912C290.425 44.588 290.677 44.12 290.677 43.58C290.677 42.572 289.921 41.816 288.949 41.816C288.445 41.816 288.157 41.96 287.833 42.212C286.609 43.22 285.169 43.868 283.333 43.868C280.525 43.868 278.329 42.14 277.861 39.044H289.777C290.893 39.044 291.829 38.18 291.829 36.956C291.829 32.564 288.841 27.596 282.793 27.596C277.357 27.596 273.505 32.06 273.505 37.496V37.568C273.505 43.436 277.753 47.432 283.261 47.432C286.213 47.432 288.373 46.46 290.101 44.912ZM300.991 47.36C304.951 47.36 308.047 45.38 308.047 41.384V41.312C308.047 37.892 304.915 36.632 302.143 35.768C299.911 35.048 297.859 34.472 297.859 33.068V32.996C297.859 31.916 298.831 31.124 300.523 31.124C301.855 31.124 303.439 31.628 304.987 32.42C305.275 32.564 305.491 32.636 305.851 32.636C306.859 32.636 307.651 31.88 307.651 30.872C307.651 30.116 307.219 29.54 306.607 29.216C304.771 28.244 302.647 27.668 300.631 27.668C296.851 27.668 293.863 29.864 293.863 33.464V33.536C293.863 37.172 296.995 38.324 299.803 39.116C302.035 39.8 304.051 40.304 304.051 41.78V41.852C304.051 43.112 302.971 43.904 301.099 43.904C299.371 43.904 297.463 43.292 295.627 42.068C295.375 41.924 295.051 41.816 294.691 41.816C293.683 41.816 292.927 42.608 292.927 43.58C292.927 44.3 293.287 44.84 293.755 45.092C295.951 46.604 298.579 47.36 300.991 47.36Z" fill="#FF0000"/>
<g filter="url(#filter0)">
<path d="M20.24 44.984C20.24 46.208 21.212 47.18 22.472 47.18C23.696 47.18 24.668 46.208 24.668 44.984V38.9H29.672C35.216 38.9 39.752 35.948 39.752 30.296V30.224C39.752 25.148 36.08 21.8 30.176 21.8H22.472C21.212 21.8 20.24 22.772 20.24 24.032V44.984ZM24.668 34.904V25.832H29.816C33.128 25.832 35.252 27.38 35.252 30.332V30.404C35.252 33.032 33.164 34.904 29.816 34.904H24.668ZM41.9829 45.02C41.9829 46.244 42.9549 47.18 44.1429 47.18C45.3669 47.18 46.3389 46.208 46.3389 45.02V39.404C46.3389 34.904 48.4629 32.528 51.5589 31.988C52.5309 31.808 53.2869 31.052 53.2869 29.9C53.2869 28.64 52.4949 27.74 51.1269 27.74C49.2189 27.74 47.3469 29.54 46.3389 31.916V29.972C46.3389 28.748 45.3669 27.776 44.1429 27.776C42.9189 27.776 41.9829 28.748 41.9829 29.972V45.02ZM63.4572 47.432C69.3252 47.432 73.6452 42.932 73.6452 37.532V37.46C73.6452 32.024 69.3612 27.596 63.5292 27.596C57.6972 27.596 53.3772 32.096 53.3772 37.532V37.604C53.3772 43.004 57.6612 47.432 63.4572 47.432ZM63.5292 43.616C60.1452 43.616 57.7332 40.844 57.7332 37.532V37.46C57.7332 34.148 59.9652 31.412 63.4572 31.412C66.8772 31.412 69.2892 34.184 69.2892 37.532V37.604C69.2892 40.88 67.0572 43.616 63.5292 43.616ZM82.6533 47.324C83.8053 47.324 84.7053 47.144 85.6413 46.82C86.2533 46.568 86.7933 45.92 86.7933 45.128C86.7933 44.12 85.9293 43.328 84.9573 43.328C84.8133 43.328 84.3813 43.436 83.8773 43.436C82.4013 43.436 81.5373 42.752 81.5373 41.06V31.736H84.9573C86.0013 31.736 86.8653 30.908 86.8653 29.864C86.8653 28.82 86.0013 27.992 84.9573 27.992H81.5373V24.752C81.5373 23.564 80.5653 22.592 79.3773 22.592C78.1533 22.592 77.1813 23.564 77.1813 24.752V27.992H76.4613C75.4173 27.992 74.5893 28.82 74.5893 29.864C74.5893 30.908 75.4173 31.736 76.4613 31.736H77.1813V41.744C77.1813 45.92 79.4493 47.324 82.6533 47.324ZM97.7908 47.432C103.659 47.432 107.979 42.932 107.979 37.532V37.46C107.979 32.024 103.695 27.596 97.8628 27.596C92.0308 27.596 87.7108 32.096 87.7108 37.532V37.604C87.7108 43.004 91.9948 47.432 97.7908 47.432ZM97.8628 43.616C94.4788 43.616 92.0668 40.844 92.0668 37.532V37.46C92.0668 34.148 94.2988 31.412 97.7908 31.412C101.211 31.412 103.623 34.184 103.623 37.532V37.604C103.623 40.88 101.391 43.616 97.8628 43.616ZM119.399 47.432C122.567 47.432 124.619 46.352 126.311 44.732C126.707 44.408 126.923 43.94 126.923 43.364C126.923 42.32 126.095 41.456 125.051 41.456C124.547 41.456 124.115 41.708 123.863 41.924C122.675 42.932 121.343 43.616 119.615 43.616C116.267 43.616 113.927 40.916 113.927 37.532V37.46C113.927 34.148 116.267 31.412 119.435 31.412C121.163 31.412 122.387 32.096 123.503 33.032C123.791 33.248 124.259 33.464 124.799 33.464C125.915 33.464 126.815 32.6 126.815 31.484C126.815 30.764 126.419 30.224 126.131 29.972C124.511 28.568 122.459 27.596 119.471 27.596C113.747 27.596 109.571 32.132 109.571 37.532V37.604C109.571 43.004 113.747 47.432 119.399 47.432ZM137.89 47.432C143.758 47.432 148.078 42.932 148.078 37.532V37.46C148.078 32.024 143.794 27.596 137.962 27.596C132.13 27.596 127.81 32.096 127.81 37.532V37.604C127.81 43.004 132.094 47.432 137.89 47.432ZM137.962 43.616C134.578 43.616 132.166 40.844 132.166 37.532V37.46C132.166 34.148 134.398 31.412 137.89 31.412C141.31 31.412 143.722 34.184 143.722 37.532V37.604C143.722 40.88 141.49 43.616 137.962 43.616ZM150.966 45.02C150.966 46.244 151.938 47.18 153.126 47.18C154.35 47.18 155.322 46.244 155.322 45.02V22.7C155.322 21.512 154.35 20.54 153.126 20.54C151.902 20.54 150.966 21.512 150.966 22.7V45.02Z" fill="#00E59D"/>
<path d="M168.712 44.984C168.712 46.208 169.684 47.18 170.944 47.18C172.168 47.18 173.14 46.208 173.14 44.984V36.74H184.012C185.128 36.74 186.028 35.84 186.028 34.724C186.028 33.608 185.128 32.708 184.012 32.708H173.14V25.832H185.632C186.748 25.832 187.648 24.932 187.648 23.816C187.648 22.7 186.748 21.8 185.632 21.8H170.944C169.684 21.8 168.712 22.772 168.712 24.032V44.984ZM192.782 36.164C193.178 33.212 195.05 31.16 197.714 31.16C200.594 31.16 202.25 33.356 202.538 36.164H192.782ZM205.058 44.912C205.382 44.588 205.634 44.12 205.634 43.58C205.634 42.572 204.878 41.816 203.906 41.816C203.402 41.816 203.114 41.96 202.79 42.212C201.566 43.22 200.126 43.868 198.29 43.868C195.482 43.868 193.286 42.14 192.818 39.044H204.734C205.85 39.044 206.786 38.18 206.786 36.956C206.786 32.564 203.798 27.596 197.75 27.596C192.314 27.596 188.462 32.06 188.462 37.496V37.568C188.462 43.436 192.71 47.432 198.218 47.432C201.17 47.432 203.33 46.46 205.058 44.912ZM214.904 47.396C217.82 47.396 219.8 46.172 221.096 44.624V45.344C221.096 46.316 221.96 47.18 223.22 47.18C224.408 47.18 225.344 46.28 225.344 45.092V35.732C225.344 33.248 224.696 31.232 223.292 29.864C221.96 28.496 219.836 27.74 216.992 27.74C214.508 27.74 212.672 28.172 210.872 28.856C210.224 29.108 209.684 29.792 209.684 30.584C209.684 31.592 210.512 32.384 211.52 32.384C211.736 32.384 211.952 32.348 212.204 32.276C213.392 31.808 214.76 31.52 216.416 31.52C219.476 31.52 221.132 32.96 221.132 35.66V36.128C219.656 35.66 218.144 35.336 216.02 35.336C211.376 35.336 208.172 37.352 208.172 41.456V41.528C208.172 45.344 211.34 47.396 214.904 47.396ZM216.128 44.228C214.04 44.228 212.42 43.184 212.42 41.348V41.276C212.42 39.296 214.076 38.108 216.884 38.108C218.612 38.108 220.088 38.432 221.204 38.864V40.16C221.204 42.572 219.008 44.228 216.128 44.228ZM234.957 47.324C236.109 47.324 237.009 47.144 237.945 46.82C238.557 46.568 239.097 45.92 239.097 45.128C239.097 44.12 238.233 43.328 237.261 43.328C237.117 43.328 236.685 43.436 236.181 43.436C234.705 43.436 233.841 42.752 233.841 41.06V31.736H237.261C238.305 31.736 239.169 30.908 239.169 29.864C239.169 28.82 238.305 27.992 237.261 27.992H233.841V24.752C233.841 23.564 232.869 22.592 231.681 22.592C230.457 22.592 229.485 23.564 229.485 24.752V27.992H228.765C227.721 27.992 226.893 28.82 226.893 29.864C226.893 30.908 227.721 31.736 228.765 31.736H229.485V41.744C229.485 45.92 231.753 47.324 234.957 47.324ZM258.47 29.972C258.47 28.748 257.462 27.776 256.274 27.776C255.05 27.776 254.078 28.748 254.078 29.972V38.72C254.078 41.672 252.314 43.4 249.794 43.4C247.202 43.4 245.726 41.744 245.726 38.792V29.972C245.726 28.748 244.754 27.776 243.53 27.776C242.342 27.776 241.37 28.748 241.37 29.972V40.088C241.37 44.516 243.854 47.396 248.138 47.396C251.09 47.396 252.854 45.848 254.078 44.048V45.02C254.078 46.244 255.086 47.18 256.274 47.18C257.498 47.18 258.47 46.208 258.47 45.02V29.972ZM262.11 45.02C262.11 46.244 263.082 47.18 264.27 47.18C265.494 47.18 266.466 46.208 266.466 45.02V39.404C266.466 34.904 268.59 32.528 271.686 31.988C272.658 31.808 273.414 31.052 273.414 29.9C273.414 28.64 272.622 27.74 271.254 27.74C269.346 27.74 267.474 29.54 266.466 31.916V29.972C266.466 28.748 265.494 27.776 264.27 27.776C263.046 27.776 262.11 28.748 262.11 29.972V45.02ZM277.825 36.164C278.221 33.212 280.093 31.16 282.757 31.16C285.637 31.16 287.293 33.356 287.581 36.164H277.825ZM290.101 44.912C290.425 44.588 290.677 44.12 290.677 43.58C290.677 42.572 289.921 41.816 288.949 41.816C288.445 41.816 288.157 41.96 287.833 42.212C286.609 43.22 285.169 43.868 283.333 43.868C280.525 43.868 278.329 42.14 277.861 39.044H289.777C290.893 39.044 291.829 38.18 291.829 36.956C291.829 32.564 288.841 27.596 282.793 27.596C277.357 27.596 273.505 32.06 273.505 37.496V37.568C273.505 43.436 277.753 47.432 283.261 47.432C286.213 47.432 288.373 46.46 290.101 44.912ZM300.991 47.36C304.951 47.36 308.047 45.38 308.047 41.384V41.312C308.047 37.892 304.915 36.632 302.143 35.768C299.911 35.048 297.859 34.472 297.859 33.068V32.996C297.859 31.916 298.831 31.124 300.523 31.124C301.855 31.124 303.439 31.628 304.987 32.42C305.275 32.564 305.491 32.636 305.851 32.636C306.859 32.636 307.651 31.88 307.651 30.872C307.651 30.116 307.219 29.54 306.607 29.216C304.771 28.244 302.647 27.668 300.631 27.668C296.851 27.668 293.863 29.864 293.863 33.464V33.536C293.863 37.172 296.995 38.324 299.803 39.116C302.035 39.8 304.051 40.304 304.051 41.78V41.852C304.051 43.112 302.971 43.904 301.099 43.904C299.371 43.904 297.463 43.292 295.627 42.068C295.375 41.924 295.051 41.816 294.691 41.816C293.683 41.816 292.927 42.608 292.927 43.58C292.927 44.3 293.287 44.84 293.755 45.092C295.951 46.604 298.579 47.36 300.991 47.36Z" fill="#FF0000"/>
</g>
<defs>
<filter id="filter0" x="0.240234" y="0.540039" width="327.807" height="66.8916" filterUnits="userSpaceOnUse" color-interpolation-filters="sRGB">
<feFlood flood-opacity="0" result="BackgroundImageFix"/>
<feBlend mode="normal" in="SourceGraphic" in2="BackgroundImageFix" result="shape"/>
<feGaussianBlur stdDeviation="10" result="effect1_foregroundBlur_929_121"/>
</filter>
</defs>
</svg>
