<svg width="473" height="260" fill="none" xmlns="http://www.w3.org/2000/svg"><path d="M29.332 49.984c0 1.224.972 2.196 2.196 2.196 1.26 0 2.232-.972 2.232-2.196V42.1l8.604-11.772c.324-.432.612-.972.612-1.584 0-1.188-.864-2.16-2.16-2.16-.936 0-1.584.54-2.124 1.332l-7.128 10.152-7.02-10.116c-.54-.792-1.188-1.332-2.16-1.332-1.26 0-2.232.936-2.232 2.124 0 .612.216 1.116.504 1.548l8.676 11.916v7.776Zm21.859 2.448c5.868 0 10.188-4.5 10.188-9.9v-.072c0-5.436-4.284-9.864-10.116-9.864s-10.152 4.5-10.152 9.936v.072c0 5.4 4.284 9.828 10.08 9.828Zm.072-3.816c-3.384 0-5.796-2.772-5.796-6.084v-.072c0-3.312 2.232-6.048 5.724-6.048 3.42 0 5.832 2.772 5.832 6.12v.072c0 3.276-2.232 6.012-5.76 6.012Zm29.636-13.644a2.205 2.205 0 0 0-2.196-2.196 2.182 2.182 0 0 0-2.196 2.196v8.748c0 2.952-1.764 4.68-4.284 4.68-2.592 0-4.068-1.656-4.068-4.608v-8.82a2.182 2.182 0 0 0-2.196-2.196c-1.188 0-2.16.972-2.16 2.196v10.116c0 4.428 2.484 7.308 6.768 7.308 2.952 0 4.716-1.548 5.94-3.348v.972c0 1.224 1.008 2.16 2.196 2.16 1.224 0 2.196-.972 2.196-2.16V34.972Zm3.64 15.048c0 1.224.972 2.16 2.16 2.16 1.224 0 2.196-.972 2.196-2.16v-5.616c0-4.5 2.124-6.876 5.22-7.416.972-.18 1.728-.936 1.728-2.088 0-1.26-.792-2.16-2.16-2.16-1.908 0-3.78 1.8-4.788 4.176v-1.944a2.182 2.182 0 0 0-2.196-2.196c-1.224 0-2.16.972-2.16 2.196V50.02Zm28.58 2.34c3.96 0 7.056-1.98 7.056-5.976v-.072c0-3.42-3.132-4.68-5.904-5.544-2.232-.72-4.284-1.296-4.284-2.7v-.072c0-1.08.972-1.872 2.664-1.872 1.332 0 2.916.504 4.464 1.296.288.144.504.216.864.216 1.008 0 1.8-.756 1.8-1.764 0-.756-.432-1.332-1.044-1.656-1.836-.972-3.96-1.548-5.976-1.548-3.78 0-6.768 2.196-6.768 5.796v.072c0 3.636 3.132 4.788 5.94 5.58 2.232.684 4.248 1.188 4.248 2.664v.072c0 1.26-1.08 2.052-2.952 2.052-1.728 0-3.636-.612-5.472-1.836a1.9 1.9 0 0 0-.936-.252 1.744 1.744 0 0 0-1.764 1.764c0 .72.36 1.26.828 1.512 2.196 1.512 4.824 2.268 7.236 2.268Zm9.719 3.42c0 1.224.972 2.16 2.16 2.16 1.224 0 2.196-.936 2.196-2.16v-6.732c1.332 1.764 3.312 3.348 6.48 3.348 4.5 0 8.82-3.564 8.82-9.864v-.072c0-6.336-4.356-9.864-8.82-9.864-3.096 0-5.076 1.584-6.48 3.564v-1.188a2.182 2.182 0 0 0-2.196-2.196c-1.224 0-2.16.972-2.16 2.196V55.78Zm9.792-7.164c-2.952 0-5.544-2.448-5.544-6.084v-.072c0-3.636 2.592-6.084 5.544-6.084 2.952 0 5.436 2.412 5.436 6.084v.072c0 3.744-2.448 6.084-5.436 6.084Zm12.489-20.52c0 1.296 1.08 2.16 2.484 2.16s2.484-.864 2.484-2.16v-.216c0-1.296-1.08-2.124-2.484-2.124s-2.484.828-2.484 2.124v.216Zm.324 21.924c0 1.224.972 2.16 2.16 2.16 1.224 0 2.196-.936 2.196-2.16V34.972a2.182 2.182 0 0 0-2.196-2.196c-1.224 0-2.16.972-2.16 2.196V50.02Zm8.248 0c0 1.224.972 2.16 2.16 2.16 1.224 0 2.196-.972 2.196-2.16v-5.616c0-4.5 2.124-6.876 5.22-7.416.972-.18 1.728-.936 1.728-2.088 0-1.26-.792-2.16-2.16-2.16-1.908 0-3.78 1.8-4.788 4.176v-1.944a2.182 2.182 0 0 0-2.196-2.196c-1.224 0-2.16.972-2.16 2.196V50.02Zm13-21.924c0 1.296 1.08 2.16 2.484 2.16s2.484-.864 2.484-2.16v-.216c0-1.296-1.08-2.124-2.484-2.124s-2.484.828-2.484 2.124v.216Zm.324 21.924c0 1.224.972 2.16 2.16 2.16 1.224 0 2.196-.936 2.196-2.16V34.972a2.182 2.182 0 0 0-2.196-2.196c-1.224 0-2.16.972-2.16 2.196V50.02Zm14.62 2.304c1.152 0 2.052-.18 2.988-.504.612-.252 1.152-.9 1.152-1.692 0-1.008-.864-1.8-1.836-1.8-.144 0-.576.108-1.08.108-1.476 0-2.34-.684-2.34-2.376v-9.324h3.42c1.044 0 1.908-.828 1.908-1.872s-.864-1.872-1.908-1.872h-3.42v-3.24c0-1.188-.972-2.16-2.16-2.16-1.224 0-2.196.972-2.196 2.16v3.24h-.72a1.86 1.86 0 0 0-1.872 1.872 1.86 1.86 0 0 0 1.872 1.872h.72v10.008c0 4.176 2.268 5.58 5.472 5.58Zm23.513-17.352a2.205 2.205 0 0 0-2.196-2.196 2.182 2.182 0 0 0-2.196 2.196v8.748c0 2.952-1.764 4.68-4.284 4.68-2.592 0-4.068-1.656-4.068-4.608v-8.82a2.182 2.182 0 0 0-2.196-2.196c-1.188 0-2.16.972-2.16 2.196v10.116c0 4.428 2.484 7.308 6.768 7.308 2.952 0 4.716-1.548 5.94-3.348v.972c0 1.224 1.008 2.16 2.196 2.16 1.224 0 2.196-.972 2.196-2.16V34.972Zm9.112 17.424c2.916 0 4.896-1.224 6.192-2.772v.72c0 .972.864 1.836 2.124 1.836 1.188 0 2.124-.9 2.124-2.088v-9.36c0-2.484-.648-4.5-2.052-5.868-1.332-1.368-3.456-2.124-6.3-2.124-2.484 0-4.32.432-6.12 1.116-.648.252-1.188.936-1.188 1.728 0 1.008.828 1.8 1.836 1.8.216 0 .432-.036.684-.108 1.188-.468 2.556-.756 4.212-.756 3.06 0 4.716 1.44 4.716 4.14v.468c-1.476-.468-2.988-.792-5.112-.792-4.644 0-7.848 2.016-7.848 6.12v.072c0 3.816 3.168 5.868 6.732 5.868Zm1.224-3.168c-2.088 0-3.708-1.044-3.708-2.88v-.072c0-1.98 1.656-3.168 4.464-3.168 1.728 0 3.204.324 4.32.756v1.296c0 2.412-2.196 4.068-5.076 4.068Zm12.885.792c0 1.224.972 2.16 2.16 2.16 1.224 0 2.196-.936 2.196-2.16V27.7c0-1.188-.972-2.16-2.196-2.16-1.224 0-2.16.972-2.16 2.16v22.32Zm8.501 0c0 1.224.972 2.16 2.16 2.16 1.224 0 2.196-.936 2.196-2.16V27.7c0-1.188-.972-2.16-2.196-2.16-1.224 0-2.16.972-2.16 2.16v22.32Zm11.705 7.848c3.06 0 4.788-1.44 6.408-5.328l6.948-16.668c.072-.216.18-.684.18-1.044 0-1.152-.936-2.052-2.088-2.052-1.116 0-1.728.756-2.088 1.656l-4.752 12.636-5.112-12.636c-.396-1.008-1.008-1.656-2.124-1.656-1.224 0-2.16.9-2.16 2.124 0 .288.108.72.252 1.044l7.056 15.768-.144.396c-.72 1.476-1.404 2.016-2.7 2.016-.612 0-1.008-.108-1.512-.252a2.223 2.223 0 0 0-.792-.144c-.936 0-1.764.72-1.764 1.8 0 1.044.72 1.584 1.368 1.8.9.36 1.8.54 3.024.54Z" fill="#000"/><path d="M29.332 44.984c0 1.224.972 2.196 2.196 2.196 1.26 0 2.232-.972 2.232-2.196V37.1l8.604-11.772c.324-.432.612-.972.612-1.584 0-1.188-.864-2.16-2.16-2.16-.936 0-1.584.54-2.124 1.332l-7.128 10.152-7.02-10.116c-.54-.792-1.188-1.332-2.16-1.332-1.26 0-2.232.936-2.232 2.124 0 .612.216 1.116.504 1.548l8.676 11.916v7.776Zm21.859 2.448c5.868 0 10.188-4.5 10.188-9.9v-.072c0-5.436-4.284-9.864-10.116-9.864s-10.152 4.5-10.152 9.936v.072c0 5.4 4.284 9.828 10.08 9.828Zm.072-3.816c-3.384 0-5.796-2.772-5.796-6.084v-.072c0-3.312 2.232-6.048 5.724-6.048 3.42 0 5.832 2.772 5.832 6.12v.072c0 3.276-2.232 6.012-5.76 6.012Zm29.636-13.644a2.205 2.205 0 0 0-2.196-2.196 2.182 2.182 0 0 0-2.196 2.196v8.748c0 2.952-1.764 4.68-4.284 4.68-2.592 0-4.068-1.656-4.068-4.608v-8.82a2.182 2.182 0 0 0-2.196-2.196c-1.188 0-2.16.972-2.16 2.196v10.116c0 4.428 2.484 7.308 6.768 7.308 2.952 0 4.716-1.548 5.94-3.348v.972c0 1.224 1.008 2.16 2.196 2.16 1.224 0 2.196-.972 2.196-2.16V29.972Zm3.64 15.048c0 1.224.972 2.16 2.16 2.16 1.224 0 2.196-.972 2.196-2.16v-5.616c0-4.5 2.124-6.876 5.22-7.416.972-.18 1.728-.936 1.728-2.088 0-1.26-.792-2.16-2.16-2.16-1.908 0-3.78 1.8-4.788 4.176v-1.944a2.182 2.182 0 0 0-2.196-2.196c-1.224 0-2.16.972-2.16 2.196V45.02Zm28.58 2.34c3.96 0 7.056-1.98 7.056-5.976v-.072c0-3.42-3.132-4.68-5.904-5.544-2.232-.72-4.284-1.296-4.284-2.7v-.072c0-1.08.972-1.872 2.664-1.872 1.332 0 2.916.504 4.464 1.296.288.144.504.216.864.216 1.008 0 1.8-.756 1.8-1.764 0-.756-.432-1.332-1.044-1.656-1.836-.972-3.96-1.548-5.976-1.548-3.78 0-6.768 2.196-6.768 5.796v.072c0 3.636 3.132 4.788 5.94 5.58 2.232.684 4.248 1.188 4.248 2.664v.072c0 1.26-1.08 2.052-2.952 2.052-1.728 0-3.636-.612-5.472-1.836a1.9 1.9 0 0 0-.936-.252 1.744 1.744 0 0 0-1.764 1.764c0 .72.36 1.26.828 1.512 2.196 1.512 4.824 2.268 7.236 2.268Zm9.719 3.42c0 1.224.972 2.16 2.16 2.16 1.224 0 2.196-.936 2.196-2.16v-6.732c1.332 1.764 3.312 3.348 6.48 3.348 4.5 0 8.82-3.564 8.82-9.864v-.072c0-6.336-4.356-9.864-8.82-9.864-3.096 0-5.076 1.584-6.48 3.564v-1.188a2.182 2.182 0 0 0-2.196-2.196c-1.224 0-2.16.972-2.16 2.196V50.78Zm9.792-7.164c-2.952 0-5.544-2.448-5.544-6.084v-.072c0-3.636 2.592-6.084 5.544-6.084 2.952 0 5.436 2.412 5.436 6.084v.072c0 3.744-2.448 6.084-5.436 6.084Zm12.489-20.52c0 1.296 1.08 2.16 2.484 2.16s2.484-.864 2.484-2.16v-.216c0-1.296-1.08-2.124-2.484-2.124s-2.484.828-2.484 2.124v.216Zm.324 21.924c0 1.224.972 2.16 2.16 2.16 1.224 0 2.196-.936 2.196-2.16V29.972a2.182 2.182 0 0 0-2.196-2.196c-1.224 0-2.16.972-2.16 2.196V45.02Zm8.248 0c0 1.224.972 2.16 2.16 2.16 1.224 0 2.196-.972 2.196-2.16v-5.616c0-4.5 2.124-6.876 5.22-7.416.972-.18 1.728-.936 1.728-2.088 0-1.26-.792-2.16-2.16-2.16-1.908 0-3.78 1.8-4.788 4.176v-1.944a2.182 2.182 0 0 0-2.196-2.196c-1.224 0-2.16.972-2.16 2.196V45.02Zm13-21.924c0 1.296 1.08 2.16 2.484 2.16s2.484-.864 2.484-2.16v-.216c0-1.296-1.08-2.124-2.484-2.124s-2.484.828-2.484 2.124v.216Zm.324 21.924c0 1.224.972 2.16 2.16 2.16 1.224 0 2.196-.936 2.196-2.16V29.972a2.182 2.182 0 0 0-2.196-2.196c-1.224 0-2.16.972-2.16 2.196V45.02Zm14.62 2.304c1.152 0 2.052-.18 2.988-.504.612-.252 1.152-.9 1.152-1.692 0-1.008-.864-1.8-1.836-1.8-.144 0-.576.108-1.08.108-1.476 0-2.34-.684-2.34-2.376v-9.324h3.42c1.044 0 1.908-.828 1.908-1.872s-.864-1.872-1.908-1.872h-3.42v-3.24c0-1.188-.972-2.16-2.16-2.16-1.224 0-2.196.972-2.196 2.16v3.24h-.72a1.86 1.86 0 0 0-1.872 1.872 1.86 1.86 0 0 0 1.872 1.872h.72v10.008c0 4.176 2.268 5.58 5.472 5.58Zm23.513-17.352a2.205 2.205 0 0 0-2.196-2.196 2.182 2.182 0 0 0-2.196 2.196v8.748c0 2.952-1.764 4.68-4.284 4.68-2.592 0-4.068-1.656-4.068-4.608v-8.82a2.182 2.182 0 0 0-2.196-2.196c-1.188 0-2.16.972-2.16 2.196v10.116c0 4.428 2.484 7.308 6.768 7.308 2.952 0 4.716-1.548 5.94-3.348v.972c0 1.224 1.008 2.16 2.196 2.16 1.224 0 2.196-.972 2.196-2.16V29.972Zm9.112 17.424c2.916 0 4.896-1.224 6.192-2.772v.72c0 .972.864 1.836 2.124 1.836 1.188 0 2.124-.9 2.124-2.088v-9.36c0-2.484-.648-4.5-2.052-5.868-1.332-1.368-3.456-2.124-6.3-2.124-2.484 0-4.32.432-6.12 1.116-.648.252-1.188.936-1.188 1.728 0 1.008.828 1.8 1.836 1.8.216 0 .432-.036.684-.108 1.188-.468 2.556-.756 4.212-.756 3.06 0 4.716 1.44 4.716 4.14v.468c-1.476-.468-2.988-.792-5.112-.792-4.644 0-7.848 2.016-7.848 6.12v.072c0 3.816 3.168 5.868 6.732 5.868Zm1.224-3.168c-2.088 0-3.708-1.044-3.708-2.88v-.072c0-1.98 1.656-3.168 4.464-3.168 1.728 0 3.204.324 4.32.756v1.296c0 2.412-2.196 4.068-5.076 4.068Zm12.885.792c0 1.224.972 2.16 2.16 2.16 1.224 0 2.196-.936 2.196-2.16V22.7c0-1.188-.972-2.16-2.196-2.16-1.224 0-2.16.972-2.16 2.16v22.32Zm8.501 0c0 1.224.972 2.16 2.16 2.16 1.224 0 2.196-.936 2.196-2.16V22.7c0-1.188-.972-2.16-2.196-2.16-1.224 0-2.16.972-2.16 2.16v22.32Zm11.705 7.848c3.06 0 4.788-1.44 6.408-5.328l6.948-16.668c.072-.216.18-.684.18-1.044 0-1.152-.936-2.052-2.088-2.052-1.116 0-1.728.756-2.088 1.656l-4.752 12.636-5.112-12.636c-.396-1.008-1.008-1.656-2.124-1.656-1.224 0-2.16.9-2.16 2.124 0 .288.108.72.252 1.044l7.056 15.768-.144.396c-.72 1.476-1.404 2.016-2.7 2.016-.612 0-1.008-.108-1.512-.252a2.223 2.223 0 0 0-.792-.144c-.936 0-1.764.72-1.764 1.8 0 1.044.72 1.584 1.368 1.8.9.36 1.8.54 3.024.54Z" fill="#00E59D"/><g filter="url(#a)"><path d="M29.332 44.984c0 1.224.972 2.196 2.196 2.196 1.26 0 2.232-.972 2.232-2.196V37.1l8.604-11.772c.324-.432.612-.972.612-1.584 0-1.188-.864-2.16-2.16-2.16-.936 0-1.584.54-2.124 1.332l-7.128 10.152-7.02-10.116c-.54-.792-1.188-1.332-2.16-1.332-1.26 0-2.232.936-2.232 2.124 0 .612.216 1.116.504 1.548l8.676 11.916v7.776Zm21.859 2.448c5.868 0 10.188-4.5 10.188-9.9v-.072c0-5.436-4.284-9.864-10.116-9.864s-10.152 4.5-10.152 9.936v.072c0 5.4 4.284 9.828 10.08 9.828Zm.072-3.816c-3.384 0-5.796-2.772-5.796-6.084v-.072c0-3.312 2.232-6.048 5.724-6.048 3.42 0 5.832 2.772 5.832 6.12v.072c0 3.276-2.232 6.012-5.76 6.012Zm29.636-13.644a2.205 2.205 0 0 0-2.196-2.196 2.182 2.182 0 0 0-2.196 2.196v8.748c0 2.952-1.764 4.68-4.284 4.68-2.592 0-4.068-1.656-4.068-4.608v-8.82a2.182 2.182 0 0 0-2.196-2.196c-1.188 0-2.16.972-2.16 2.196v10.116c0 4.428 2.484 7.308 6.768 7.308 2.952 0 4.716-1.548 5.94-3.348v.972c0 1.224 1.008 2.16 2.196 2.16 1.224 0 2.196-.972 2.196-2.16V29.972Zm3.64 15.048c0 1.224.972 2.16 2.16 2.16 1.224 0 2.196-.972 2.196-2.16v-5.616c0-4.5 2.124-6.876 5.22-7.416.972-.18 1.728-.936 1.728-2.088 0-1.26-.792-2.16-2.16-2.16-1.908 0-3.78 1.8-4.788 4.176v-1.944a2.182 2.182 0 0 0-2.196-2.196c-1.224 0-2.16.972-2.16 2.196V45.02Zm28.58 2.34c3.96 0 7.056-1.98 7.056-5.976v-.072c0-3.42-3.132-4.68-5.904-5.544-2.232-.72-4.284-1.296-4.284-2.7v-.072c0-1.08.972-1.872 2.664-1.872 1.332 0 2.916.504 4.464 1.296.288.144.504.216.864.216 1.008 0 1.8-.756 1.8-1.764 0-.756-.432-1.332-1.044-1.656-1.836-.972-3.96-1.548-5.976-1.548-3.78 0-6.768 2.196-6.768 5.796v.072c0 3.636 3.132 4.788 5.94 5.58 2.232.684 4.248 1.188 4.248 2.664v.072c0 1.26-1.08 2.052-2.952 2.052-1.728 0-3.636-.612-5.472-1.836a1.9 1.9 0 0 0-.936-.252 1.744 1.744 0 0 0-1.764 1.764c0 .72.36 1.26.828 1.512 2.196 1.512 4.824 2.268 7.236 2.268Zm9.719 3.42c0 1.224.972 2.16 2.16 2.16 1.224 0 2.196-.936 2.196-2.16v-6.732c1.332 1.764 3.312 3.348 6.48 3.348 4.5 0 8.82-3.564 8.82-9.864v-.072c0-6.336-4.356-9.864-8.82-9.864-3.096 0-5.076 1.584-6.48 3.564v-1.188a2.182 2.182 0 0 0-2.196-2.196c-1.224 0-2.16.972-2.16 2.196V50.78Zm9.792-7.164c-2.952 0-5.544-2.448-5.544-6.084v-.072c0-3.636 2.592-6.084 5.544-6.084 2.952 0 5.436 2.412 5.436 6.084v.072c0 3.744-2.448 6.084-5.436 6.084Zm12.489-20.52c0 1.296 1.08 2.16 2.484 2.16s2.484-.864 2.484-2.16v-.216c0-1.296-1.08-2.124-2.484-2.124s-2.484.828-2.484 2.124v.216Zm.324 21.924c0 1.224.972 2.16 2.16 2.16 1.224 0 2.196-.936 2.196-2.16V29.972a2.182 2.182 0 0 0-2.196-2.196c-1.224 0-2.16.972-2.16 2.196V45.02Zm8.248 0c0 1.224.972 2.16 2.16 2.16 1.224 0 2.196-.972 2.196-2.16v-5.616c0-4.5 2.124-6.876 5.22-7.416.972-.18 1.728-.936 1.728-2.088 0-1.26-.792-2.16-2.16-2.16-1.908 0-3.78 1.8-4.788 4.176v-1.944a2.182 2.182 0 0 0-2.196-2.196c-1.224 0-2.16.972-2.16 2.196V45.02Zm13-21.924c0 1.296 1.08 2.16 2.484 2.16s2.484-.864 2.484-2.16v-.216c0-1.296-1.08-2.124-2.484-2.124s-2.484.828-2.484 2.124v.216Zm.324 21.924c0 1.224.972 2.16 2.16 2.16 1.224 0 2.196-.936 2.196-2.16V29.972a2.182 2.182 0 0 0-2.196-2.196c-1.224 0-2.16.972-2.16 2.196V45.02Zm14.62 2.304c1.152 0 2.052-.18 2.988-.504.612-.252 1.152-.9 1.152-1.692 0-1.008-.864-1.8-1.836-1.8-.144 0-.576.108-1.08.108-1.476 0-2.34-.684-2.34-2.376v-9.324h3.42c1.044 0 1.908-.828 1.908-1.872s-.864-1.872-1.908-1.872h-3.42v-3.24c0-1.188-.972-2.16-2.16-2.16-1.224 0-2.196.972-2.196 2.16v3.24h-.72a1.86 1.86 0 0 0-1.872 1.872 1.86 1.86 0 0 0 1.872 1.872h.72v10.008c0 4.176 2.268 5.58 5.472 5.58Zm23.513-17.352a2.205 2.205 0 0 0-2.196-2.196 2.182 2.182 0 0 0-2.196 2.196v8.748c0 2.952-1.764 4.68-4.284 4.68-2.592 0-4.068-1.656-4.068-4.608v-8.82a2.182 2.182 0 0 0-2.196-2.196c-1.188 0-2.16.972-2.16 2.196v10.116c0 4.428 2.484 7.308 6.768 7.308 2.952 0 4.716-1.548 5.94-3.348v.972c0 1.224 1.008 2.16 2.196 2.16 1.224 0 2.196-.972 2.196-2.16V29.972Zm9.112 17.424c2.916 0 4.896-1.224 6.192-2.772v.72c0 .972.864 1.836 2.124 1.836 1.188 0 2.124-.9 2.124-2.088v-9.36c0-2.484-.648-4.5-2.052-5.868-1.332-1.368-3.456-2.124-6.3-2.124-2.484 0-4.32.432-6.12 1.116-.648.252-1.188.936-1.188 1.728 0 1.008.828 1.8 1.836 1.8.216 0 .432-.036.684-.108 1.188-.468 2.556-.756 4.212-.756 3.06 0 4.716 1.44 4.716 4.14v.468c-1.476-.468-2.988-.792-5.112-.792-4.644 0-7.848 2.016-7.848 6.12v.072c0 3.816 3.168 5.868 6.732 5.868Zm1.224-3.168c-2.088 0-3.708-1.044-3.708-2.88v-.072c0-1.98 1.656-3.168 4.464-3.168 1.728 0 3.204.324 4.32.756v1.296c0 2.412-2.196 4.068-5.076 4.068Zm12.885.792c0 1.224.972 2.16 2.16 2.16 1.224 0 2.196-.936 2.196-2.16V22.7c0-1.188-.972-2.16-2.196-2.16-1.224 0-2.16.972-2.16 2.16v22.32Zm8.501 0c0 1.224.972 2.16 2.16 2.16 1.224 0 2.196-.936 2.196-2.16V22.7c0-1.188-.972-2.16-2.196-2.16-1.224 0-2.16.972-2.16 2.16v22.32Zm11.705 7.848c3.06 0 4.788-1.44 6.408-5.328l6.948-16.668c.072-.216.18-.684.18-1.044 0-1.152-.936-2.052-2.088-2.052-1.116 0-1.728.756-2.088 1.656l-4.752 12.636-5.112-12.636c-.396-1.008-1.008-1.656-2.124-1.656-1.224 0-2.16.9-2.16 2.124 0 .288.108.72.252 1.044l7.056 15.768-.144.396c-.72 1.476-1.404 2.016-2.7 2.016-.612 0-1.008-.108-1.512-.252a2.223 2.223 0 0 0-.792-.144c-.936 0-1.764.72-1.764 1.8 0 1.044.72 1.584 1.368 1.8.9.36 1.8.54 3.024.54Z" fill="#00E59D"/></g><path d="M42.45 127.7c10.29 0 17.5-5.46 17.5-14.63v-.14c0-8.12-5.32-11.83-15.68-14.35-9.45-2.24-11.69-3.92-11.69-7.7v-.14c0-3.22 2.94-5.81 7.98-5.81 3.85 0 7.49 1.26 11.27 3.71.7.42 1.4.63 2.24.63 2.24 0 4.06-1.75 4.06-3.99 0-1.68-.91-2.87-1.89-3.43-4.41-2.94-9.38-4.55-15.54-4.55-9.73 0-16.73 5.81-16.73 14.21v.14c0 9.03 5.88 12.11 16.31 14.63 9.1 2.1 11.06 3.99 11.06 7.49v.14c0 3.64-3.36 6.16-8.68 6.16s-9.66-1.82-13.72-5.04c-.56-.42-1.33-.77-2.52-.77-2.24 0-4.06 1.75-4.06 3.99 0 1.4.7 2.59 1.68 3.29 5.46 4.06 11.76 6.16 18.41 6.16Zm36.275-4.62c0 2.38 1.89 4.27 4.27 4.27 2.45 0 4.34-1.89 4.34-4.27v-15.33l16.73-22.89c.63-.84 1.19-1.89 1.19-3.08 0-2.31-1.68-4.2-4.2-4.2-1.82 0-3.08 1.05-4.13 2.59l-13.86 19.74-13.65-19.67c-1.05-1.54-2.31-2.59-4.2-2.59-2.45 0-4.34 1.82-4.34 4.13 0 1.19.42 2.17.98 3.01l16.87 23.17v15.12Zm31.45.07c0 2.38 1.82 4.2 4.2 4.2s4.27-1.82 4.27-4.2V93.82l11.9 17.85c.91 1.4 2.03 2.24 3.57 2.24 1.61 0 2.73-.84 3.64-2.24l11.97-17.99v29.4c0 2.31 1.96 4.27 4.27 4.27 2.45 0 4.34-1.89 4.34-4.27V82.06c0-2.38-1.89-4.34-4.34-4.34h-.91c-1.75 0-3.01.77-3.92 2.24l-14.91 23.31-14.84-23.24c-.84-1.33-2.1-2.31-3.99-2.31h-.91c-2.45 0-4.34 1.96-4.34 4.34v41.09Zm57.271-.07c0 2.38 1.89 4.27 4.34 4.27 2.38 0 4.27-1.89 4.27-4.27v-11.83h9.73c10.78 0 19.6-5.74 19.6-16.73v-.14c0-9.87-7.14-16.38-18.62-16.38h-14.98c-2.45 0-4.34 1.89-4.34 4.34v40.74Zm8.61-19.6V85.84h10.01c6.44 0 10.57 3.01 10.57 8.75v.14c0 5.11-4.06 8.75-10.57 8.75h-10.01Zm34.648 19.6c0 2.38 1.89 4.27 4.34 4.27 2.38 0 4.27-1.89 4.27-4.27v-16.73h23.38v16.73c0 2.38 1.89 4.27 4.27 4.27 2.45 0 4.34-1.89 4.34-4.27V81.92c0-2.38-1.89-4.27-4.34-4.27-2.38 0-4.27 1.89-4.27 4.27v16.45h-23.38V81.92c0-2.38-1.89-4.27-4.27-4.27-2.45 0-4.34 1.89-4.34 4.27v41.16Zm73.064 4.76c15.05 0 25.69-11.55 25.69-25.34v-.14c0-13.79-10.5-25.2-25.55-25.2s-25.69 11.55-25.69 25.34v.14c0 13.79 10.5 25.2 25.55 25.2Zm.14-7.98c-9.73 0-16.66-7.84-16.66-17.36v-.14c0-9.52 6.79-17.29 16.52-17.29s16.66 7.91 16.66 17.43v.14c0 9.52-6.79 17.22-16.52 17.22Zm32.453 3.29c0 2.31 1.89 4.2 4.27 4.2 2.31 0 4.2-1.89 4.2-4.2V92.07l25.2 32.62c1.19 1.54 2.45 2.59 4.48 2.59h.35c2.38 0 4.2-1.89 4.2-4.27V81.85c0-2.31-1.89-4.2-4.27-4.2-2.31 0-4.2 1.89-4.2 4.2v30.1l-24.5-31.71c-1.19-1.47-2.38-2.52-4.48-2.52h-.91c-2.45 0-4.34 1.96-4.34 4.34v41.09Zm52.292-.07c0 2.38 1.89 4.27 4.34 4.27 2.38 0 4.27-1.89 4.27-4.27V81.92c0-2.38-1.89-4.27-4.27-4.27-2.45 0-4.34 1.89-4.34 4.27v41.16Zm40.977 4.76c7.91 0 13.16-2.52 17.78-6.58.77-.7 1.4-1.75 1.4-3.08 0-2.17-1.89-3.99-4.06-3.99-1.05 0-1.96.42-2.59.98-3.57 3.01-7.07 4.69-12.25 4.69-9.38 0-16.17-7.77-16.17-17.36v-.14c0-9.59 6.86-17.29 16.17-17.29 4.69 0 8.33 1.68 11.69 4.41.56.42 1.4.84 2.59.84 2.38 0 4.27-1.82 4.27-4.2 0-1.54-.77-2.73-1.68-3.43-4.27-3.29-9.24-5.53-16.8-5.53-14.84 0-25.27 11.41-25.27 25.34v.14c0 14.07 10.64 25.2 24.92 25.2Z" fill="#000"/><path d="M42.45 122.7c10.29 0 17.5-5.46 17.5-14.63v-.14c0-8.12-5.32-11.83-15.68-14.35-9.45-2.24-11.69-3.92-11.69-7.7v-.14c0-3.22 2.94-5.81 7.98-5.81 3.85 0 7.49 1.26 11.27 3.71.7.42 1.4.63 2.24.63 2.24 0 4.06-1.75 4.06-3.99 0-1.68-.91-2.87-1.89-3.43-4.41-2.94-9.38-4.55-15.54-4.55-9.73 0-16.73 5.81-16.73 14.21v.14c0 9.03 5.88 12.11 16.31 14.63 9.1 2.1 11.06 3.99 11.06 7.49v.14c0 3.64-3.36 6.16-8.68 6.16s-9.66-1.82-13.72-5.04c-.56-.42-1.33-.77-2.52-.77-2.24 0-4.06 1.75-4.06 3.99 0 1.4.7 2.59 1.68 3.29 5.46 4.06 11.76 6.16 18.41 6.16Zm36.275-4.62c0 2.38 1.89 4.27 4.27 4.27 2.45 0 4.34-1.89 4.34-4.27v-15.33l16.73-22.89c.63-.84 1.19-1.89 1.19-3.08 0-2.31-1.68-4.2-4.2-4.2-1.82 0-3.08 1.05-4.13 2.59l-13.86 19.74-13.65-19.67c-1.05-1.54-2.31-2.59-4.2-2.59-2.45 0-4.34 1.82-4.34 4.13 0 1.19.42 2.17.98 3.01l16.87 23.17v15.12Zm31.45.07c0 2.38 1.82 4.2 4.2 4.2s4.27-1.82 4.27-4.2V88.82l11.9 17.85c.91 1.4 2.03 2.24 3.57 2.24 1.61 0 2.73-.84 3.64-2.24l11.97-17.99v29.4c0 2.31 1.96 4.27 4.27 4.27 2.45 0 4.34-1.89 4.34-4.27V77.06c0-2.38-1.89-4.34-4.34-4.34h-.91c-1.75 0-3.01.77-3.92 2.24l-14.91 23.31-14.84-23.24c-.84-1.33-2.1-2.31-3.99-2.31h-.91c-2.45 0-4.34 1.96-4.34 4.34v41.09Zm57.271-.07c0 2.38 1.89 4.27 4.34 4.27 2.38 0 4.27-1.89 4.27-4.27v-11.83h9.73c10.78 0 19.6-5.74 19.6-16.73v-.14c0-9.87-7.14-16.38-18.62-16.38h-14.98c-2.45 0-4.34 1.89-4.34 4.34v40.74Zm8.61-19.6V80.84h10.01c6.44 0 10.57 3.01 10.57 8.75v.14c0 5.11-4.06 8.75-10.57 8.75h-10.01Zm34.648 19.6c0 2.38 1.89 4.27 4.34 4.27 2.38 0 4.27-1.89 4.27-4.27v-16.73h23.38v16.73c0 2.38 1.89 4.27 4.27 4.27 2.45 0 4.34-1.89 4.34-4.27V76.92c0-2.38-1.89-4.27-4.34-4.27-2.38 0-4.27 1.89-4.27 4.27v16.45h-23.38V76.92c0-2.38-1.89-4.27-4.27-4.27-2.45 0-4.34 1.89-4.34 4.27v41.16Zm73.064 4.76c15.05 0 25.69-11.55 25.69-25.34v-.14c0-13.79-10.5-25.2-25.55-25.2s-25.69 11.55-25.69 25.34v.14c0 13.79 10.5 25.2 25.55 25.2Zm.14-7.98c-9.73 0-16.66-7.84-16.66-17.36v-.14c0-9.52 6.79-17.29 16.52-17.29s16.66 7.91 16.66 17.43v.14c0 9.52-6.79 17.22-16.52 17.22Zm32.453 3.29c0 2.31 1.89 4.2 4.27 4.2 2.31 0 4.2-1.89 4.2-4.2V87.07l25.2 32.62c1.19 1.54 2.45 2.59 4.48 2.59h.35c2.38 0 4.2-1.89 4.2-4.27V76.85c0-2.31-1.89-4.2-4.27-4.2-2.31 0-4.2 1.89-4.2 4.2v30.1l-24.5-31.71c-1.19-1.47-2.38-2.52-4.48-2.52h-.91c-2.45 0-4.34 1.96-4.34 4.34v41.09Zm52.292-.07c0 2.38 1.89 4.27 4.34 4.27 2.38 0 4.27-1.89 4.27-4.27V76.92c0-2.38-1.89-4.27-4.27-4.27-2.45 0-4.34 1.89-4.34 4.27v41.16Zm40.977 4.76c7.91 0 13.16-2.52 17.78-6.58.77-.7 1.4-1.75 1.4-3.08 0-2.17-1.89-3.99-4.06-3.99-1.05 0-1.96.42-2.59.98-3.57 3.01-7.07 4.69-12.25 4.69-9.38 0-16.17-7.77-16.17-17.36v-.14c0-9.59 6.86-17.29 16.17-17.29 4.69 0 8.33 1.68 11.69 4.41.56.42 1.4.84 2.59.84 2.38 0 4.27-1.82 4.27-4.2 0-1.54-.77-2.73-1.68-3.43-4.27-3.29-9.24-5.53-16.8-5.53-14.84 0-25.27 11.41-25.27 25.34v.14c0 14.07 10.64 25.2 24.92 25.2Z" fill="red"/><g filter="url(#b)"><path d="M42.45 122.7c10.29 0 17.5-5.46 17.5-14.63v-.14c0-8.12-5.32-11.83-15.68-14.35-9.45-2.24-11.69-3.92-11.69-7.7v-.14c0-3.22 2.94-5.81 7.98-5.81 3.85 0 7.49 1.26 11.27 3.71.7.42 1.4.63 2.24.63 2.24 0 4.06-1.75 4.06-3.99 0-1.68-.91-2.87-1.89-3.43-4.41-2.94-9.38-4.55-15.54-4.55-9.73 0-16.73 5.81-16.73 14.21v.14c0 9.03 5.88 12.11 16.31 14.63 9.1 2.1 11.06 3.99 11.06 7.49v.14c0 3.64-3.36 6.16-8.68 6.16s-9.66-1.82-13.72-5.04c-.56-.42-1.33-.77-2.52-.77-2.24 0-4.06 1.75-4.06 3.99 0 1.4.7 2.59 1.68 3.29 5.46 4.06 11.76 6.16 18.41 6.16Zm36.275-4.62c0 2.38 1.89 4.27 4.27 4.27 2.45 0 4.34-1.89 4.34-4.27v-15.33l16.73-22.89c.63-.84 1.19-1.89 1.19-3.08 0-2.31-1.68-4.2-4.2-4.2-1.82 0-3.08 1.05-4.13 2.59l-13.86 19.74-13.65-19.67c-1.05-1.54-2.31-2.59-4.2-2.59-2.45 0-4.34 1.82-4.34 4.13 0 1.19.42 2.17.98 3.01l16.87 23.17v15.12Zm31.45.07c0 2.38 1.82 4.2 4.2 4.2s4.27-1.82 4.27-4.2V88.82l11.9 17.85c.91 1.4 2.03 2.24 3.57 2.24 1.61 0 2.73-.84 3.64-2.24l11.97-17.99v29.4c0 2.31 1.96 4.27 4.27 4.27 2.45 0 4.34-1.89 4.34-4.27V77.06c0-2.38-1.89-4.34-4.34-4.34h-.91c-1.75 0-3.01.77-3.92 2.24l-14.91 23.31-14.84-23.24c-.84-1.33-2.1-2.31-3.99-2.31h-.91c-2.45 0-4.34 1.96-4.34 4.34v41.09Zm57.271-.07c0 2.38 1.89 4.27 4.34 4.27 2.38 0 4.27-1.89 4.27-4.27v-11.83h9.73c10.78 0 19.6-5.74 19.6-16.73v-.14c0-9.87-7.14-16.38-18.62-16.38h-14.98c-2.45 0-4.34 1.89-4.34 4.34v40.74Zm8.61-19.6V80.84h10.01c6.44 0 10.57 3.01 10.57 8.75v.14c0 5.11-4.06 8.75-10.57 8.75h-10.01Zm34.648 19.6c0 2.38 1.89 4.27 4.34 4.27 2.38 0 4.27-1.89 4.27-4.27v-16.73h23.38v16.73c0 2.38 1.89 4.27 4.27 4.27 2.45 0 4.34-1.89 4.34-4.27V76.92c0-2.38-1.89-4.27-4.34-4.27-2.38 0-4.27 1.89-4.27 4.27v16.45h-23.38V76.92c0-2.38-1.89-4.27-4.27-4.27-2.45 0-4.34 1.89-4.34 4.27v41.16Zm73.064 4.76c15.05 0 25.69-11.55 25.69-25.34v-.14c0-13.79-10.5-25.2-25.55-25.2s-25.69 11.55-25.69 25.34v.14c0 13.79 10.5 25.2 25.55 25.2Zm.14-7.98c-9.73 0-16.66-7.84-16.66-17.36v-.14c0-9.52 6.79-17.29 16.52-17.29s16.66 7.91 16.66 17.43v.14c0 9.52-6.79 17.22-16.52 17.22Zm32.453 3.29c0 2.31 1.89 4.2 4.27 4.2 2.31 0 4.2-1.89 4.2-4.2V87.07l25.2 32.62c1.19 1.54 2.45 2.59 4.48 2.59h.35c2.38 0 4.2-1.89 4.2-4.27V76.85c0-2.31-1.89-4.2-4.27-4.2-2.31 0-4.2 1.89-4.2 4.2v30.1l-24.5-31.71c-1.19-1.47-2.38-2.52-4.48-2.52h-.91c-2.45 0-4.34 1.96-4.34 4.34v41.09Zm52.292-.07c0 2.38 1.89 4.27 4.34 4.27 2.38 0 4.27-1.89 4.27-4.27V76.92c0-2.38-1.89-4.27-4.27-4.27-2.45 0-4.34 1.89-4.34 4.27v41.16Zm40.977 4.76c7.91 0 13.16-2.52 17.78-6.58.77-.7 1.4-1.75 1.4-3.08 0-2.17-1.89-3.99-4.06-3.99-1.05 0-1.96.42-2.59.98-3.57 3.01-7.07 4.69-12.25 4.69-9.38 0-16.17-7.77-16.17-17.36v-.14c0-9.59 6.86-17.29 16.17-17.29 4.69 0 8.33 1.68 11.69 4.41.56.42 1.4.84 2.59.84 2.38 0 4.27-1.82 4.27-4.2 0-1.54-.77-2.73-1.68-3.43-4.27-3.29-9.24-5.53-16.8-5.53-14.84 0-25.27 11.41-25.27 25.34v.14c0 14.07 10.64 25.2 24.92 25.2Z" fill="red"/></g><path d="M20.3 190.66c0 2.45 1.89 4.34 4.34 4.34h13.93c15.4 0 26.04-10.71 26.04-24.5v-.14c0-13.79-10.64-24.36-26.04-24.36H24.64c-2.45 0-4.34 1.89-4.34 4.34v40.32Zm8.61-3.5v-33.32h9.66c10.29 0 17.01 7.07 17.01 16.66v.14c0 9.59-6.72 16.52-17.01 16.52h-9.66Zm48.036-13.23c.77-5.74 4.41-9.73 9.59-9.73 5.6 0 8.82 4.27 9.38 9.73h-18.97Zm23.87 17.01c.63-.63 1.12-1.54 1.12-2.59 0-1.96-1.47-3.43-3.36-3.43-.98 0-1.54.28-2.17.77-2.38 1.96-5.18 3.22-8.75 3.22-5.46 0-9.73-3.36-10.64-9.38h23.17c2.17 0 3.99-1.68 3.99-4.06 0-8.54-5.81-18.2-17.57-18.2-10.57 0-18.06 8.68-18.06 19.25v.14c0 11.41 8.26 19.18 18.97 19.18 5.74 0 9.94-1.89 13.3-4.9Zm25.586 4.9c6.16 0 10.15-2.1 13.44-5.25.77-.63 1.19-1.54 1.19-2.66 0-2.03-1.61-3.71-3.64-3.71-.98 0-1.82.49-2.31.91-2.31 1.96-4.9 3.29-8.26 3.29-6.51 0-11.06-5.25-11.06-11.83v-.14c0-6.44 4.55-11.76 10.71-11.76 3.36 0 5.74 1.33 7.91 3.15.56.42 1.47.84 2.52.84 2.17 0 3.92-1.68 3.92-3.85 0-1.4-.77-2.45-1.33-2.94-3.15-2.73-7.14-4.62-12.95-4.62-11.13 0-19.25 8.82-19.25 19.32v.14c0 10.5 8.12 19.11 19.11 19.11Zm24.755-21.91c.77-5.74 4.41-9.73 9.59-9.73 5.6 0 8.82 4.27 9.38 9.73h-18.97Zm23.87 17.01c.63-.63 1.12-1.54 1.12-2.59 0-1.96-1.47-3.43-3.36-3.43-.98 0-1.54.28-2.17.77-2.38 1.96-5.18 3.22-8.75 3.22-5.46 0-9.73-3.36-10.64-9.38h23.17c2.17 0 3.99-1.68 3.99-4.06 0-8.54-5.81-18.2-17.57-18.2-10.57 0-18.06 8.68-18.06 19.25v.14c0 11.41 8.26 19.18 18.97 19.18 5.74 0 9.94-1.89 13.3-4.9Zm8.506.21c0 2.38 1.89 4.2 4.2 4.2 2.38 0 4.27-1.82 4.27-4.2v-17.01c0-5.74 3.43-9.17 8.33-9.17 5.04 0 7.91 3.29 7.91 9.03v17.15c0 2.38 1.89 4.2 4.27 4.2s4.2-1.82 4.2-4.2v-19.74c0-8.54-4.83-14.14-13.16-14.14-5.74 0-9.17 3.01-11.55 6.44v-1.82c0-2.38-1.89-4.27-4.27-4.27s-4.2 1.89-4.2 4.27v29.26Zm52.298 4.48c2.24 0 3.99-.35 5.81-.98 1.19-.49 2.24-1.75 2.24-3.29 0-1.96-1.68-3.5-3.57-3.5-.28 0-1.12.21-2.1.21-2.87 0-4.55-1.33-4.55-4.62v-18.13h6.65c2.03 0 3.71-1.61 3.71-3.64 0-2.03-1.68-3.64-3.71-3.64h-6.65v-6.3c0-2.31-1.89-4.2-4.2-4.2-2.38 0-4.27 1.89-4.27 4.2v6.3h-1.4c-2.03 0-3.64 1.61-3.64 3.64 0 2.03 1.61 3.64 3.64 3.64h1.4v19.46c0 8.12 4.41 10.85 10.64 10.85Zm12.889-4.48c0 2.38 1.89 4.2 4.2 4.2 2.38 0 4.27-1.89 4.27-4.2v-10.92c0-8.75 4.13-13.37 10.15-14.42 1.89-.35 3.36-1.82 3.36-4.06 0-2.45-1.54-4.2-4.2-4.2-3.71 0-7.35 3.5-9.31 8.12v-3.78c0-2.38-1.89-4.27-4.27-4.27s-4.2 1.89-4.2 4.27v29.26Zm34.279 4.62c5.67 0 9.52-2.38 12.04-5.39v1.4c0 1.89 1.68 3.57 4.13 3.57 2.31 0 4.13-1.75 4.13-4.06v-18.2c0-4.83-1.26-8.75-3.99-11.41-2.59-2.66-6.72-4.13-12.25-4.13-4.83 0-8.4.84-11.9 2.17-1.26.49-2.31 1.82-2.31 3.36 0 1.96 1.61 3.5 3.57 3.5.42 0 .84-.07 1.33-.21 2.31-.91 4.97-1.47 8.19-1.47 5.95 0 9.17 2.8 9.17 8.05v.91c-2.87-.91-5.81-1.54-9.94-1.54-9.03 0-15.26 3.92-15.26 11.9v.14c0 7.42 6.16 11.41 13.09 11.41Zm2.38-6.16c-4.06 0-7.21-2.03-7.21-5.6v-.14c0-3.85 3.22-6.16 8.68-6.16 3.36 0 6.23.63 8.4 1.47v2.52c0 4.69-4.27 7.91-9.87 7.91Zm25.054 1.54c0 2.38 1.89 4.2 4.2 4.2 2.38 0 4.27-1.82 4.27-4.2v-43.4c0-2.31-1.89-4.2-4.27-4.2s-4.2 1.89-4.2 4.2v43.4Zm15.899-42.63c0 2.52 2.1 4.2 4.83 4.2s4.83-1.68 4.83-4.2v-.42c0-2.52-2.1-4.13-4.83-4.13s-4.83 1.61-4.83 4.13v.42Zm.63 42.63c0 2.38 1.89 4.2 4.2 4.2 2.38 0 4.27-1.82 4.27-4.2v-29.26c0-2.38-1.89-4.27-4.27-4.27s-4.2 1.89-4.2 4.27v29.26Zm18.28 3.85h25.06c1.96 0 3.5-1.54 3.5-3.43 0-1.96-1.54-3.5-3.5-3.5h-18.2l19.74-22.4c1.26-1.4 1.82-2.45 1.82-4.06v-.21c0-1.96-1.75-3.36-4.06-3.36h-24.36c-1.96 0-3.5 1.54-3.5 3.5 0 1.89 1.54 3.43 3.5 3.43h17.43l-19.67 22.4c-1.33 1.4-1.89 2.45-1.89 4.06v.14c0 1.96 1.75 3.43 4.13 3.43Zm38.774-21.07c.77-5.74 4.41-9.73 9.59-9.73 5.6 0 8.82 4.27 9.38 9.73h-18.97Zm23.87 17.01c.63-.63 1.12-1.54 1.12-2.59 0-1.96-1.47-3.43-3.36-3.43-.98 0-1.54.28-2.17.77-2.38 1.96-5.18 3.22-8.75 3.22-5.46 0-9.73-3.36-10.64-9.38h23.17c2.17 0 3.99-1.68 3.99-4.06 0-8.54-5.81-18.2-17.57-18.2-10.57 0-18.06 8.68-18.06 19.25v.14c0 11.41 8.26 19.18 18.97 19.18 5.74 0 9.94-1.89 13.3-4.9Zm44.836-43.19c0-2.38-1.89-4.2-4.27-4.2-2.31 0-4.2 1.82-4.2 4.2v16.03c-2.66-3.5-6.51-6.51-12.6-6.51-8.82 0-17.15 6.93-17.15 19.18v.14c0 12.25 8.47 19.18 17.15 19.18 6.02 0 9.87-3.08 12.6-6.93v2.31c0 2.38 1.89 4.2 4.27 4.2 2.31 0 4.2-1.82 4.2-4.2v-43.4Zm-19.04 16.87c5.67 0 10.71 4.69 10.71 11.83v.14c0 7.07-5.04 11.83-10.71 11.83-5.74 0-10.64-4.69-10.64-11.83v-.14c0-7.35 4.83-11.83 10.64-11.83Z" fill="#000"/><path d="M20.3 185.66c0 2.45 1.89 4.34 4.34 4.34h13.93c15.4 0 26.04-10.71 26.04-24.5v-.14c0-13.79-10.64-24.36-26.04-24.36H24.64c-2.45 0-4.34 1.89-4.34 4.34v40.32Zm8.61-3.5v-33.32h9.66c10.29 0 17.01 7.07 17.01 16.66v.14c0 9.59-6.72 16.52-17.01 16.52h-9.66Zm48.036-13.23c.77-5.74 4.41-9.73 9.59-9.73 5.6 0 8.82 4.27 9.38 9.73h-18.97Zm23.87 17.01c.63-.63 1.12-1.54 1.12-2.59 0-1.96-1.47-3.43-3.36-3.43-.98 0-1.54.28-2.17.77-2.38 1.96-5.18 3.22-8.75 3.22-5.46 0-9.73-3.36-10.64-9.38h23.17c2.17 0 3.99-1.68 3.99-4.06 0-8.54-5.81-18.2-17.57-18.2-10.57 0-18.06 8.68-18.06 19.25v.14c0 11.41 8.26 19.18 18.97 19.18 5.74 0 9.94-1.89 13.3-4.9Zm25.586 4.9c6.16 0 10.15-2.1 13.44-5.25.77-.63 1.19-1.54 1.19-2.66 0-2.03-1.61-3.71-3.64-3.71-.98 0-1.82.49-2.31.91-2.31 1.96-4.9 3.29-8.26 3.29-6.51 0-11.06-5.25-11.06-11.83v-.14c0-6.44 4.55-11.76 10.71-11.76 3.36 0 5.74 1.33 7.91 3.15.56.42 1.47.84 2.52.84 2.17 0 3.92-1.68 3.92-3.85 0-1.4-.77-2.45-1.33-2.94-3.15-2.73-7.14-4.62-12.95-4.62-11.13 0-19.25 8.82-19.25 19.32v.14c0 10.5 8.12 19.11 19.11 19.11Zm24.755-21.91c.77-5.74 4.41-9.73 9.59-9.73 5.6 0 8.82 4.27 9.38 9.73h-18.97Zm23.87 17.01c.63-.63 1.12-1.54 1.12-2.59 0-1.96-1.47-3.43-3.36-3.43-.98 0-1.54.28-2.17.77-2.38 1.96-5.18 3.22-8.75 3.22-5.46 0-9.73-3.36-10.64-9.38h23.17c2.17 0 3.99-1.68 3.99-4.06 0-8.54-5.81-18.2-17.57-18.2-10.57 0-18.06 8.68-18.06 19.25v.14c0 11.41 8.26 19.18 18.97 19.18 5.74 0 9.94-1.89 13.3-4.9Zm8.506.21c0 2.38 1.89 4.2 4.2 4.2 2.38 0 4.27-1.82 4.27-4.2v-17.01c0-5.74 3.43-9.17 8.33-9.17 5.04 0 7.91 3.29 7.91 9.03v17.15c0 2.38 1.89 4.2 4.27 4.2s4.2-1.82 4.2-4.2v-19.74c0-8.54-4.83-14.14-13.16-14.14-5.74 0-9.17 3.01-11.55 6.44v-1.82c0-2.38-1.89-4.27-4.27-4.27s-4.2 1.89-4.2 4.27v29.26Zm52.298 4.48c2.24 0 3.99-.35 5.81-.98 1.19-.49 2.24-1.75 2.24-3.29 0-1.96-1.68-3.5-3.57-3.5-.28 0-1.12.21-2.1.21-2.87 0-4.55-1.33-4.55-4.62v-18.13h6.65c2.03 0 3.71-1.61 3.71-3.64 0-2.03-1.68-3.64-3.71-3.64h-6.65v-6.3c0-2.31-1.89-4.2-4.2-4.2-2.38 0-4.27 1.89-4.27 4.2v6.3h-1.4c-2.03 0-3.64 1.61-3.64 3.64 0 2.03 1.61 3.64 3.64 3.64h1.4v19.46c0 8.12 4.41 10.85 10.64 10.85Zm12.889-4.48c0 2.38 1.89 4.2 4.2 4.2 2.38 0 4.27-1.89 4.27-4.2v-10.92c0-8.75 4.13-13.37 10.15-14.42 1.89-.35 3.36-1.82 3.36-4.06 0-2.45-1.54-4.2-4.2-4.2-3.71 0-7.35 3.5-9.31 8.12v-3.78c0-2.38-1.89-4.27-4.27-4.27s-4.2 1.89-4.2 4.27v29.26Zm34.279 4.62c5.67 0 9.52-2.38 12.04-5.39v1.4c0 1.89 1.68 3.57 4.13 3.57 2.31 0 4.13-1.75 4.13-4.06v-18.2c0-4.83-1.26-8.75-3.99-11.41-2.59-2.66-6.72-4.13-12.25-4.13-4.83 0-8.4.84-11.9 2.17-1.26.49-2.31 1.82-2.31 3.36 0 1.96 1.61 3.5 3.57 3.5.42 0 .84-.07 1.33-.21 2.31-.91 4.97-1.47 8.19-1.47 5.95 0 9.17 2.8 9.17 8.05v.91c-2.87-.91-5.81-1.54-9.94-1.54-9.03 0-15.26 3.92-15.26 11.9v.14c0 7.42 6.16 11.41 13.09 11.41Zm2.38-6.16c-4.06 0-7.21-2.03-7.21-5.6v-.14c0-3.85 3.22-6.16 8.68-6.16 3.36 0 6.23.63 8.4 1.47v2.52c0 4.69-4.27 7.91-9.87 7.91Zm25.054 1.54c0 2.38 1.89 4.2 4.2 4.2 2.38 0 4.27-1.82 4.27-4.2v-43.4c0-2.31-1.89-4.2-4.27-4.2s-4.2 1.89-4.2 4.2v43.4Zm15.899-42.63c0 2.52 2.1 4.2 4.83 4.2s4.83-1.68 4.83-4.2v-.42c0-2.52-2.1-4.13-4.83-4.13s-4.83 1.61-4.83 4.13v.42Zm.63 42.63c0 2.38 1.89 4.2 4.2 4.2 2.38 0 4.27-1.82 4.27-4.2v-29.26c0-2.38-1.89-4.27-4.27-4.27s-4.2 1.89-4.2 4.27v29.26Zm18.28 3.85h25.06c1.96 0 3.5-1.54 3.5-3.43 0-1.96-1.54-3.5-3.5-3.5h-18.2l19.74-22.4c1.26-1.4 1.82-2.45 1.82-4.06v-.21c0-1.96-1.75-3.36-4.06-3.36h-24.36c-1.96 0-3.5 1.54-3.5 3.5 0 1.89 1.54 3.43 3.5 3.43h17.43l-19.67 22.4c-1.33 1.4-1.89 2.45-1.89 4.06v.14c0 1.96 1.75 3.43 4.13 3.43Zm38.774-21.07c.77-5.74 4.41-9.73 9.59-9.73 5.6 0 8.82 4.27 9.38 9.73h-18.97Zm23.87 17.01c.63-.63 1.12-1.54 1.12-2.59 0-1.96-1.47-3.43-3.36-3.43-.98 0-1.54.28-2.17.77-2.38 1.96-5.18 3.22-8.75 3.22-5.46 0-9.73-3.36-10.64-9.38h23.17c2.17 0 3.99-1.68 3.99-4.06 0-8.54-5.81-18.2-17.57-18.2-10.57 0-18.06 8.68-18.06 19.25v.14c0 11.41 8.26 19.18 18.97 19.18 5.74 0 9.94-1.89 13.3-4.9Zm44.836-43.19c0-2.38-1.89-4.2-4.27-4.2-2.31 0-4.2 1.82-4.2 4.2v16.03c-2.66-3.5-6.51-6.51-12.6-6.51-8.82 0-17.15 6.93-17.15 19.18v.14c0 12.25 8.47 19.18 17.15 19.18 6.02 0 9.87-3.08 12.6-6.93v2.31c0 2.38 1.89 4.2 4.27 4.2 2.31 0 4.2-1.82 4.2-4.2v-43.4Zm-19.04 16.87c5.67 0 10.71 4.69 10.71 11.83v.14c0 7.07-5.04 11.83-10.71 11.83-5.74 0-10.64-4.69-10.64-11.83v-.14c0-7.35 4.83-11.83 10.64-11.83Z" fill="#00E59D"/><g filter="url(#c)"><path d="M20.3 185.66c0 2.45 1.89 4.34 4.34 4.34h13.93c15.4 0 26.04-10.71 26.04-24.5v-.14c0-13.79-10.64-24.36-26.04-24.36H24.64c-2.45 0-4.34 1.89-4.34 4.34v40.32Zm8.61-3.5v-33.32h9.66c10.29 0 17.01 7.07 17.01 16.66v.14c0 9.59-6.72 16.52-17.01 16.52h-9.66Zm48.036-13.23c.77-5.74 4.41-9.73 9.59-9.73 5.6 0 8.82 4.27 9.38 9.73h-18.97Zm23.87 17.01c.63-.63 1.12-1.54 1.12-2.59 0-1.96-1.47-3.43-3.36-3.43-.98 0-1.54.28-2.17.77-2.38 1.96-5.18 3.22-8.75 3.22-5.46 0-9.73-3.36-10.64-9.38h23.17c2.17 0 3.99-1.68 3.99-4.06 0-8.54-5.81-18.2-17.57-18.2-10.57 0-18.06 8.68-18.06 19.25v.14c0 11.41 8.26 19.18 18.97 19.18 5.74 0 9.94-1.89 13.3-4.9Zm25.586 4.9c6.16 0 10.15-2.1 13.44-5.25.77-.63 1.19-1.54 1.19-2.66 0-2.03-1.61-3.71-3.64-3.71-.98 0-1.82.49-2.31.91-2.31 1.96-4.9 3.29-8.26 3.29-6.51 0-11.06-5.25-11.06-11.83v-.14c0-6.44 4.55-11.76 10.71-11.76 3.36 0 5.74 1.33 7.91 3.15.56.42 1.47.84 2.52.84 2.17 0 3.92-1.68 3.92-3.85 0-1.4-.77-2.45-1.33-2.94-3.15-2.73-7.14-4.62-12.95-4.62-11.13 0-19.25 8.82-19.25 19.32v.14c0 10.5 8.12 19.11 19.11 19.11Zm24.755-21.91c.77-5.74 4.41-9.73 9.59-9.73 5.6 0 8.82 4.27 9.38 9.73h-18.97Zm23.87 17.01c.63-.63 1.12-1.54 1.12-2.59 0-1.96-1.47-3.43-3.36-3.43-.98 0-1.54.28-2.17.77-2.38 1.96-5.18 3.22-8.75 3.22-5.46 0-9.73-3.36-10.64-9.38h23.17c2.17 0 3.99-1.68 3.99-4.06 0-8.54-5.81-18.2-17.57-18.2-10.57 0-18.06 8.68-18.06 19.25v.14c0 11.41 8.26 19.18 18.97 19.18 5.74 0 9.94-1.89 13.3-4.9Zm8.506.21c0 2.38 1.89 4.2 4.2 4.2 2.38 0 4.27-1.82 4.27-4.2v-17.01c0-5.74 3.43-9.17 8.33-9.17 5.04 0 7.91 3.29 7.91 9.03v17.15c0 2.38 1.89 4.2 4.27 4.2s4.2-1.82 4.2-4.2v-19.74c0-8.54-4.83-14.14-13.16-14.14-5.74 0-9.17 3.01-11.55 6.44v-1.82c0-2.38-1.89-4.27-4.27-4.27s-4.2 1.89-4.2 4.27v29.26Zm52.298 4.48c2.24 0 3.99-.35 5.81-.98 1.19-.49 2.24-1.75 2.24-3.29 0-1.96-1.68-3.5-3.57-3.5-.28 0-1.12.21-2.1.21-2.87 0-4.55-1.33-4.55-4.62v-18.13h6.65c2.03 0 3.71-1.61 3.71-3.64 0-2.03-1.68-3.64-3.71-3.64h-6.65v-6.3c0-2.31-1.89-4.2-4.2-4.2-2.38 0-4.27 1.89-4.27 4.2v6.3h-1.4c-2.03 0-3.64 1.61-3.64 3.64 0 2.03 1.61 3.64 3.64 3.64h1.4v19.46c0 8.12 4.41 10.85 10.64 10.85Zm12.889-4.48c0 2.38 1.89 4.2 4.2 4.2 2.38 0 4.27-1.89 4.27-4.2v-10.92c0-8.75 4.13-13.37 10.15-14.42 1.89-.35 3.36-1.82 3.36-4.06 0-2.45-1.54-4.2-4.2-4.2-3.71 0-7.35 3.5-9.31 8.12v-3.78c0-2.38-1.89-4.27-4.27-4.27s-4.2 1.89-4.2 4.27v29.26Zm34.279 4.62c5.67 0 9.52-2.38 12.04-5.39v1.4c0 1.89 1.68 3.57 4.13 3.57 2.31 0 4.13-1.75 4.13-4.06v-18.2c0-4.83-1.26-8.75-3.99-11.41-2.59-2.66-6.72-4.13-12.25-4.13-4.83 0-8.4.84-11.9 2.17-1.26.49-2.31 1.82-2.31 3.36 0 1.96 1.61 3.5 3.57 3.5.42 0 .84-.07 1.33-.21 2.31-.91 4.97-1.47 8.19-1.47 5.95 0 9.17 2.8 9.17 8.05v.91c-2.87-.91-5.81-1.54-9.94-1.54-9.03 0-15.26 3.92-15.26 11.9v.14c0 7.42 6.16 11.41 13.09 11.41Zm2.38-6.16c-4.06 0-7.21-2.03-7.21-5.6v-.14c0-3.85 3.22-6.16 8.68-6.16 3.36 0 6.23.63 8.4 1.47v2.52c0 4.69-4.27 7.91-9.87 7.91Zm25.054 1.54c0 2.38 1.89 4.2 4.2 4.2 2.38 0 4.27-1.82 4.27-4.2v-43.4c0-2.31-1.89-4.2-4.27-4.2s-4.2 1.89-4.2 4.2v43.4Zm15.899-42.63c0 2.52 2.1 4.2 4.83 4.2s4.83-1.68 4.83-4.2v-.42c0-2.52-2.1-4.13-4.83-4.13s-4.83 1.61-4.83 4.13v.42Zm.63 42.63c0 2.38 1.89 4.2 4.2 4.2 2.38 0 4.27-1.82 4.27-4.2v-29.26c0-2.38-1.89-4.27-4.27-4.27s-4.2 1.89-4.2 4.27v29.26Zm18.28 3.85h25.06c1.96 0 3.5-1.54 3.5-3.43 0-1.96-1.54-3.5-3.5-3.5h-18.2l19.74-22.4c1.26-1.4 1.82-2.45 1.82-4.06v-.21c0-1.96-1.75-3.36-4.06-3.36h-24.36c-1.96 0-3.5 1.54-3.5 3.5 0 1.89 1.54 3.43 3.5 3.43h17.43l-19.67 22.4c-1.33 1.4-1.89 2.45-1.89 4.06v.14c0 1.96 1.75 3.43 4.13 3.43Zm38.774-21.07c.77-5.74 4.41-9.73 9.59-9.73 5.6 0 8.82 4.27 9.38 9.73h-18.97Zm23.87 17.01c.63-.63 1.12-1.54 1.12-2.59 0-1.96-1.47-3.43-3.36-3.43-.98 0-1.54.28-2.17.77-2.38 1.96-5.18 3.22-8.75 3.22-5.46 0-9.73-3.36-10.64-9.38h23.17c2.17 0 3.99-1.68 3.99-4.06 0-8.54-5.81-18.2-17.57-18.2-10.57 0-18.06 8.68-18.06 19.25v.14c0 11.41 8.26 19.18 18.97 19.18 5.74 0 9.94-1.89 13.3-4.9Zm44.836-43.19c0-2.38-1.89-4.2-4.27-4.2-2.31 0-4.2 1.82-4.2 4.2v16.03c-2.66-3.5-6.51-6.51-12.6-6.51-8.82 0-17.15 6.93-17.15 19.18v.14c0 12.25 8.47 19.18 17.15 19.18 6.02 0 9.87-3.08 12.6-6.93v2.31c0 2.38 1.89 4.2 4.27 4.2 2.31 0 4.2-1.82 4.2-4.2v-43.4Zm-19.04 16.87c5.67 0 10.71 4.69 10.71 11.83v.14c0 7.07-5.04 11.83-10.71 11.83-5.74 0-10.64-4.69-10.64-11.83v-.14c0-7.35 4.83-11.83 10.64-11.83Z" fill="#00E59D"/></g><path d="M21.492 241.984c0 1.224.972 2.196 2.232 2.196a2.182 2.182 0 0 0 2.196-2.196v-21.168a2.182 2.182 0 0 0-2.196-2.196c-1.26 0-2.232.972-2.232 2.196v21.168Zm8.87.036c0 1.224.972 2.16 2.16 2.16 1.224 0 2.196-.936 2.196-2.16v-8.748c0-2.952 1.764-4.716 4.284-4.716 2.592 0 4.068 1.692 4.068 4.644v8.82c0 1.224.972 2.16 2.196 2.16 1.224 0 2.16-.936 2.16-2.16v-10.152c0-4.392-2.484-7.272-6.768-7.272-2.952 0-4.716 1.548-5.94 3.312v-.936a2.182 2.182 0 0 0-2.196-2.196c-1.224 0-2.16.972-2.16 2.196v15.048Zm30.471.432 6.336-14.544c.108-.216.252-.648.252-1.044 0-1.188-.936-2.088-2.124-2.088-1.152 0-1.728.756-2.052 1.512l-4.968 12.672-4.896-12.6c-.36-.9-.972-1.584-2.16-1.584-1.188 0-2.16 1.008-2.16 2.088 0 .396.144.756.252 1.08l6.336 14.508c.504 1.152 1.296 1.908 2.484 1.908h.216c1.188 0 1.98-.792 2.484-1.908Zm11.463-9.288c.396-2.952 2.268-5.004 4.932-5.004 2.88 0 4.536 2.196 4.824 5.004h-9.756Zm12.276 8.748c.324-.324.576-.792.576-1.332 0-1.008-.756-1.764-1.728-1.764-.504 0-.792.144-1.116.396-1.224 1.008-2.664 1.656-4.5 1.656-2.808 0-5.004-1.728-5.472-4.824h11.916c1.116 0 2.052-.864 2.052-2.088 0-4.392-2.988-9.36-9.036-9.36-5.436 0-9.288 4.464-9.288 9.9v.072c0 5.868 4.248 9.864 9.756 9.864 2.952 0 5.112-.972 6.84-2.52Zm10.89 2.448c3.96 0 7.056-1.98 7.056-5.976v-.072c0-3.42-3.132-4.68-5.904-5.544-2.232-.72-4.284-1.296-4.284-2.7v-.072c0-1.08.972-1.872 2.664-1.872 1.332 0 2.916.504 4.464 1.296.288.144.504.216.864.216 1.008 0 1.8-.756 1.8-1.764 0-.756-.432-1.332-1.044-1.656-1.836-.972-3.96-1.548-5.976-1.548-3.78 0-6.768 2.196-6.768 5.796v.072c0 3.636 3.132 4.788 5.94 5.58 2.232.684 4.248 1.188 4.248 2.664v.072c0 1.26-1.08 2.052-2.952 2.052-1.728 0-3.636-.612-5.472-1.836a1.9 1.9 0 0 0-.936-.252 1.744 1.744 0 0 0-1.764 1.764c0 .72.36 1.26.828 1.512 2.196 1.512 4.824 2.268 7.236 2.268Zm15.74-.036c1.152 0 2.052-.18 2.988-.504.612-.252 1.152-.9 1.152-1.692 0-1.008-.864-1.8-1.836-1.8-.144 0-.576.108-1.08.108-1.476 0-2.34-.684-2.34-2.376v-9.324h3.42c1.044 0 1.908-.828 1.908-1.872s-.864-1.872-1.908-1.872h-3.42v-3.24c0-1.188-.972-2.16-2.16-2.16-1.224 0-2.196.972-2.196 2.16v3.24h-.72a1.86 1.86 0 0 0-1.872 1.872 1.86 1.86 0 0 0 1.872 1.872h.72v10.008c0 4.176 2.268 5.58 5.472 5.58Zm6.629-2.304c0 1.224.972 2.16 2.16 2.16 1.224 0 2.196-.936 2.196-2.16v-8.748c0-2.916 1.656-4.716 4.068-4.716s3.852 1.656 3.852 4.608v8.856c0 1.224.972 2.16 2.196 2.16 1.188 0 2.16-.936 2.16-2.16v-8.748c0-3.06 1.692-4.716 4.068-4.716 2.448 0 3.852 1.62 3.852 4.644v8.82c0 1.224.972 2.16 2.196 2.16 1.224 0 2.16-.936 2.16-2.16v-10.152c0-4.644-2.52-7.272-6.66-7.272-2.88 0-4.896 1.332-6.408 3.348-1.008-2.016-2.952-3.348-5.688-3.348-2.916 0-4.572 1.584-5.796 3.276v-.9a2.182 2.182 0 0 0-2.196-2.196c-1.224 0-2.16.972-2.16 2.196v15.048Zm35.683-8.856c.396-2.952 2.268-5.004 4.932-5.004 2.88 0 4.536 2.196 4.824 5.004h-9.756Zm12.276 8.748c.324-.324.576-.792.576-1.332 0-1.008-.756-1.764-1.728-1.764-.504 0-.792.144-1.116.396-1.224 1.008-2.664 1.656-4.5 1.656-2.808 0-5.004-1.728-5.472-4.824h11.916c1.116 0 2.052-.864 2.052-2.088 0-4.392-2.988-9.36-9.036-9.36-5.436 0-9.288 4.464-9.288 9.9v.072c0 5.868 4.248 9.864 9.756 9.864 2.952 0 5.112-.972 6.84-2.52Zm4.374.108c0 1.224.972 2.16 2.16 2.16 1.224 0 2.196-.936 2.196-2.16v-8.748c0-2.952 1.764-4.716 4.284-4.716 2.592 0 4.068 1.692 4.068 4.644v8.82c0 1.224.972 2.16 2.196 2.16 1.224 0 2.16-.936 2.16-2.16v-10.152c0-4.392-2.484-7.272-6.768-7.272-2.952 0-4.716 1.548-5.94 3.312v-.936a2.182 2.182 0 0 0-2.196-2.196c-1.224 0-2.16.972-2.16 2.196v15.048Zm26.896 2.304c1.152 0 2.052-.18 2.988-.504.612-.252 1.152-.9 1.152-1.692 0-1.008-.864-1.8-1.836-1.8-.144 0-.576.108-1.08.108-1.476 0-2.34-.684-2.34-2.376v-9.324h3.42c1.044 0 1.908-.828 1.908-1.872s-.864-1.872-1.908-1.872h-3.42v-3.24c0-1.188-.972-2.16-2.16-2.16-1.224 0-2.196.972-2.196 2.16v3.24h-.72a1.86 1.86 0 0 0-1.872 1.872 1.86 1.86 0 0 0 1.872 1.872h.72v10.008c0 4.176 2.268 5.58 5.472 5.58Zm16.126-2.34c0 1.224.972 2.196 2.232 2.196a2.182 2.182 0 0 0 2.196-2.196V235.9h5.004c5.544 0 10.08-2.952 10.08-8.604v-.072c0-5.076-3.672-8.424-9.576-8.424h-7.704c-1.26 0-2.232.972-2.232 2.232v20.952Zm4.428-10.08v-9.072h5.148c3.312 0 5.436 1.548 5.436 4.5v.072c0 2.628-2.088 4.5-5.436 4.5h-5.148Zm17.567 10.116c0 1.224.972 2.16 2.16 2.16 1.224 0 2.196-.936 2.196-2.16V219.7c0-1.188-.972-2.16-2.196-2.16-1.224 0-2.16.972-2.16 2.16v22.32Zm13.721 2.376c2.916 0 4.896-1.224 6.192-2.772v.72c0 .972.864 1.836 2.124 1.836 1.188 0 2.124-.9 2.124-2.088v-9.36c0-2.484-.648-4.5-2.052-5.868-1.332-1.368-3.456-2.124-6.3-2.124-2.484 0-4.32.432-6.12 1.116-.648.252-1.188.936-1.188 1.728 0 1.008.828 1.8 1.836 1.8.216 0 .432-.036.684-.108 1.188-.468 2.556-.756 4.212-.756 3.06 0 4.716 1.44 4.716 4.14v.468c-1.476-.468-2.988-.792-5.112-.792-4.644 0-7.848 2.016-7.848 6.12v.072c0 3.816 3.168 5.868 6.732 5.868Zm1.224-3.168c-2.088 0-3.708-1.044-3.708-2.88v-.072c0-1.98 1.656-3.168 4.464-3.168 1.728 0 3.204.324 4.32.756v1.296c0 2.412-2.196 4.068-5.076 4.068Zm18.829 3.096c1.152 0 2.052-.18 2.988-.504.612-.252 1.152-.9 1.152-1.692 0-1.008-.864-1.8-1.836-1.8-.144 0-.576.108-1.08.108-1.476 0-2.34-.684-2.34-2.376v-9.324h3.42c1.044 0 1.908-.828 1.908-1.872s-.864-1.872-1.908-1.872h-3.42v-3.24c0-1.188-.972-2.16-2.16-2.16-1.224 0-2.196.972-2.196 2.16v3.24h-.72a1.86 1.86 0 0 0-1.872 1.872 1.86 1.86 0 0 0 1.872 1.872h.72v10.008c0 4.176 2.268 5.58 5.472 5.58Zm7.601-2.304c0 1.188.972 2.16 2.16 2.16 1.224 0 2.196-.972 2.196-2.16v-13.284h3.312c1.008 0 1.836-.792 1.836-1.8s-.792-1.8-1.836-1.8h-3.384v-1.044c0-1.98.864-2.88 2.52-2.88.288 0 .648.036.9.072 1.008.036 1.836-.792 1.836-1.8 0-.972-.72-1.692-1.512-1.8a12.559 12.559 0 0 0-2.196-.18c-1.872 0-3.276.504-4.284 1.512s-1.548 2.592-1.548 4.68v1.404h-.756a1.844 1.844 0 0 0-1.836 1.836c0 1.008.828 1.8 1.836 1.8h.756v13.284Zm19.447 2.412c5.868 0 10.188-4.5 10.188-9.9v-.072c0-5.436-4.284-9.864-10.116-9.864s-10.152 4.5-10.152 9.936v.072c0 5.4 4.284 9.828 10.08 9.828Zm.072-3.816c-3.384 0-5.796-2.772-5.796-6.084v-.072c0-3.312 2.232-6.048 5.724-6.048 3.42 0 5.832 2.772 5.832 6.12v.072c0 3.276-2.232 6.012-5.76 6.012Zm12.752 1.404c0 1.224.972 2.16 2.16 2.16 1.224 0 2.196-.972 2.196-2.16v-5.616c0-4.5 2.124-6.876 5.22-7.416.972-.18 1.728-.936 1.728-2.088 0-1.26-.792-2.16-2.16-2.16-1.908 0-3.78 1.8-4.788 4.176v-1.944a2.182 2.182 0 0 0-2.196-2.196c-1.224 0-2.16.972-2.16 2.196v15.048Zm13.072 0c0 1.224.972 2.16 2.16 2.16 1.224 0 2.196-.936 2.196-2.16v-8.748c0-2.916 1.656-4.716 4.068-4.716s3.852 1.656 3.852 4.608v8.856c0 1.224.972 2.16 2.196 2.16 1.188 0 2.16-.936 2.16-2.16v-8.748c0-3.06 1.692-4.716 4.068-4.716 2.448 0 3.852 1.62 3.852 4.644v8.82c0 1.224.972 2.16 2.196 2.16 1.224 0 2.16-.936 2.16-2.16v-10.152c0-4.644-2.52-7.272-6.66-7.272-2.88 0-4.896 1.332-6.408 3.348-1.008-2.016-2.952-3.348-5.688-3.348-2.916 0-4.572 1.584-5.796 3.276v-.9a2.182 2.182 0 0 0-2.196-2.196c-1.224 0-2.16.972-2.16 2.196v15.048Z" fill="#000"/><path d="M21.492 236.984c0 1.224.972 2.196 2.232 2.196a2.182 2.182 0 0 0 2.196-2.196v-21.168a2.182 2.182 0 0 0-2.196-2.196c-1.26 0-2.232.972-2.232 2.196v21.168Zm8.87.036c0 1.224.972 2.16 2.16 2.16 1.224 0 2.196-.936 2.196-2.16v-8.748c0-2.952 1.764-4.716 4.284-4.716 2.592 0 4.068 1.692 4.068 4.644v8.82c0 1.224.972 2.16 2.196 2.16 1.224 0 2.16-.936 2.16-2.16v-10.152c0-4.392-2.484-7.272-6.768-7.272-2.952 0-4.716 1.548-5.94 3.312v-.936a2.182 2.182 0 0 0-2.196-2.196c-1.224 0-2.16.972-2.16 2.196v15.048Zm30.471.432 6.336-14.544c.108-.216.252-.648.252-1.044 0-1.188-.936-2.088-2.124-2.088-1.152 0-1.728.756-2.052 1.512l-4.968 12.672-4.896-12.6c-.36-.9-.972-1.584-2.16-1.584-1.188 0-2.16 1.008-2.16 2.088 0 .396.144.756.252 1.08l6.336 14.508c.504 1.152 1.296 1.908 2.484 1.908h.216c1.188 0 1.98-.792 2.484-1.908Zm11.463-9.288c.396-2.952 2.268-5.004 4.932-5.004 2.88 0 4.536 2.196 4.824 5.004h-9.756Zm12.276 8.748c.324-.324.576-.792.576-1.332 0-1.008-.756-1.764-1.728-1.764-.504 0-.792.144-1.116.396-1.224 1.008-2.664 1.656-4.5 1.656-2.808 0-5.004-1.728-5.472-4.824h11.916c1.116 0 2.052-.864 2.052-2.088 0-4.392-2.988-9.36-9.036-9.36-5.436 0-9.288 4.464-9.288 9.9v.072c0 5.868 4.248 9.864 9.756 9.864 2.952 0 5.112-.972 6.84-2.52Zm10.89 2.448c3.96 0 7.056-1.98 7.056-5.976v-.072c0-3.42-3.132-4.68-5.904-5.544-2.232-.72-4.284-1.296-4.284-2.7v-.072c0-1.08.972-1.872 2.664-1.872 1.332 0 2.916.504 4.464 1.296.288.144.504.216.864.216 1.008 0 1.8-.756 1.8-1.764 0-.756-.432-1.332-1.044-1.656-1.836-.972-3.96-1.548-5.976-1.548-3.78 0-6.768 2.196-6.768 5.796v.072c0 3.636 3.132 4.788 5.94 5.58 2.232.684 4.248 1.188 4.248 2.664v.072c0 1.26-1.08 2.052-2.952 2.052-1.728 0-3.636-.612-5.472-1.836a1.9 1.9 0 0 0-.936-.252 1.744 1.744 0 0 0-1.764 1.764c0 .72.36 1.26.828 1.512 2.196 1.512 4.824 2.268 7.236 2.268Zm15.74-.036c1.152 0 2.052-.18 2.988-.504.612-.252 1.152-.9 1.152-1.692 0-1.008-.864-1.8-1.836-1.8-.144 0-.576.108-1.08.108-1.476 0-2.34-.684-2.34-2.376v-9.324h3.42c1.044 0 1.908-.828 1.908-1.872s-.864-1.872-1.908-1.872h-3.42v-3.24c0-1.188-.972-2.16-2.16-2.16-1.224 0-2.196.972-2.196 2.16v3.24h-.72a1.86 1.86 0 0 0-1.872 1.872 1.86 1.86 0 0 0 1.872 1.872h.72v10.008c0 4.176 2.268 5.58 5.472 5.58Zm6.629-2.304c0 1.224.972 2.16 2.16 2.16 1.224 0 2.196-.936 2.196-2.16v-8.748c0-2.916 1.656-4.716 4.068-4.716s3.852 1.656 3.852 4.608v8.856c0 1.224.972 2.16 2.196 2.16 1.188 0 2.16-.936 2.16-2.16v-8.748c0-3.06 1.692-4.716 4.068-4.716 2.448 0 3.852 1.62 3.852 4.644v8.82c0 1.224.972 2.16 2.196 2.16 1.224 0 2.16-.936 2.16-2.16v-10.152c0-4.644-2.52-7.272-6.66-7.272-2.88 0-4.896 1.332-6.408 3.348-1.008-2.016-2.952-3.348-5.688-3.348-2.916 0-4.572 1.584-5.796 3.276v-.9a2.182 2.182 0 0 0-2.196-2.196c-1.224 0-2.16.972-2.16 2.196v15.048Zm35.683-8.856c.396-2.952 2.268-5.004 4.932-5.004 2.88 0 4.536 2.196 4.824 5.004h-9.756Zm12.276 8.748c.324-.324.576-.792.576-1.332 0-1.008-.756-1.764-1.728-1.764-.504 0-.792.144-1.116.396-1.224 1.008-2.664 1.656-4.5 1.656-2.808 0-5.004-1.728-5.472-4.824h11.916c1.116 0 2.052-.864 2.052-2.088 0-4.392-2.988-9.36-9.036-9.36-5.436 0-9.288 4.464-9.288 9.9v.072c0 5.868 4.248 9.864 9.756 9.864 2.952 0 5.112-.972 6.84-2.52Zm4.374.108c0 1.224.972 2.16 2.16 2.16 1.224 0 2.196-.936 2.196-2.16v-8.748c0-2.952 1.764-4.716 4.284-4.716 2.592 0 4.068 1.692 4.068 4.644v8.82c0 1.224.972 2.16 2.196 2.16 1.224 0 2.16-.936 2.16-2.16v-10.152c0-4.392-2.484-7.272-6.768-7.272-2.952 0-4.716 1.548-5.94 3.312v-.936a2.182 2.182 0 0 0-2.196-2.196c-1.224 0-2.16.972-2.16 2.196v15.048Zm26.896 2.304c1.152 0 2.052-.18 2.988-.504.612-.252 1.152-.9 1.152-1.692 0-1.008-.864-1.8-1.836-1.8-.144 0-.576.108-1.08.108-1.476 0-2.34-.684-2.34-2.376v-9.324h3.42c1.044 0 1.908-.828 1.908-1.872s-.864-1.872-1.908-1.872h-3.42v-3.24c0-1.188-.972-2.16-2.16-2.16-1.224 0-2.196.972-2.196 2.16v3.24h-.72a1.86 1.86 0 0 0-1.872 1.872 1.86 1.86 0 0 0 1.872 1.872h.72v10.008c0 4.176 2.268 5.58 5.472 5.58Zm16.126-2.34c0 1.224.972 2.196 2.232 2.196a2.182 2.182 0 0 0 2.196-2.196V230.9h5.004c5.544 0 10.08-2.952 10.08-8.604v-.072c0-5.076-3.672-8.424-9.576-8.424h-7.704c-1.26 0-2.232.972-2.232 2.232v20.952Zm4.428-10.08v-9.072h5.148c3.312 0 5.436 1.548 5.436 4.5v.072c0 2.628-2.088 4.5-5.436 4.5h-5.148Zm17.567 10.116c0 1.224.972 2.16 2.16 2.16 1.224 0 2.196-.936 2.196-2.16V214.7c0-1.188-.972-2.16-2.196-2.16-1.224 0-2.16.972-2.16 2.16v22.32Zm13.721 2.376c2.916 0 4.896-1.224 6.192-2.772v.72c0 .972.864 1.836 2.124 1.836 1.188 0 2.124-.9 2.124-2.088v-9.36c0-2.484-.648-4.5-2.052-5.868-1.332-1.368-3.456-2.124-6.3-2.124-2.484 0-4.32.432-6.12 1.116-.648.252-1.188.936-1.188 1.728 0 1.008.828 1.8 1.836 1.8.216 0 .432-.036.684-.108 1.188-.468 2.556-.756 4.212-.756 3.06 0 4.716 1.44 4.716 4.14v.468c-1.476-.468-2.988-.792-5.112-.792-4.644 0-7.848 2.016-7.848 6.12v.072c0 3.816 3.168 5.868 6.732 5.868Zm1.224-3.168c-2.088 0-3.708-1.044-3.708-2.88v-.072c0-1.98 1.656-3.168 4.464-3.168 1.728 0 3.204.324 4.32.756v1.296c0 2.412-2.196 4.068-5.076 4.068Zm18.829 3.096c1.152 0 2.052-.18 2.988-.504.612-.252 1.152-.9 1.152-1.692 0-1.008-.864-1.8-1.836-1.8-.144 0-.576.108-1.08.108-1.476 0-2.34-.684-2.34-2.376v-9.324h3.42c1.044 0 1.908-.828 1.908-1.872s-.864-1.872-1.908-1.872h-3.42v-3.24c0-1.188-.972-2.16-2.16-2.16-1.224 0-2.196.972-2.196 2.16v3.24h-.72a1.86 1.86 0 0 0-1.872 1.872 1.86 1.86 0 0 0 1.872 1.872h.72v10.008c0 4.176 2.268 5.58 5.472 5.58Zm7.601-2.304c0 1.188.972 2.16 2.16 2.16 1.224 0 2.196-.972 2.196-2.16v-13.284h3.312c1.008 0 1.836-.792 1.836-1.8s-.792-1.8-1.836-1.8h-3.384v-1.044c0-1.98.864-2.88 2.52-2.88.288 0 .648.036.9.072 1.008.036 1.836-.792 1.836-1.8 0-.972-.72-1.692-1.512-1.8a12.559 12.559 0 0 0-2.196-.18c-1.872 0-3.276.504-4.284 1.512s-1.548 2.592-1.548 4.68v1.404h-.756a1.844 1.844 0 0 0-1.836 1.836c0 1.008.828 1.8 1.836 1.8h.756v13.284Zm19.447 2.412c5.868 0 10.188-4.5 10.188-9.9v-.072c0-5.436-4.284-9.864-10.116-9.864s-10.152 4.5-10.152 9.936v.072c0 5.4 4.284 9.828 10.08 9.828Zm.072-3.816c-3.384 0-5.796-2.772-5.796-6.084v-.072c0-3.312 2.232-6.048 5.724-6.048 3.42 0 5.832 2.772 5.832 6.12v.072c0 3.276-2.232 6.012-5.76 6.012Zm12.752 1.404c0 1.224.972 2.16 2.16 2.16 1.224 0 2.196-.972 2.196-2.16v-5.616c0-4.5 2.124-6.876 5.22-7.416.972-.18 1.728-.936 1.728-2.088 0-1.26-.792-2.16-2.16-2.16-1.908 0-3.78 1.8-4.788 4.176v-1.944a2.182 2.182 0 0 0-2.196-2.196c-1.224 0-2.16.972-2.16 2.196v15.048Zm13.072 0c0 1.224.972 2.16 2.16 2.16 1.224 0 2.196-.936 2.196-2.16v-8.748c0-2.916 1.656-4.716 4.068-4.716s3.852 1.656 3.852 4.608v8.856c0 1.224.972 2.16 2.196 2.16 1.188 0 2.16-.936 2.16-2.16v-8.748c0-3.06 1.692-4.716 4.068-4.716 2.448 0 3.852 1.62 3.852 4.644v8.82c0 1.224.972 2.16 2.196 2.16 1.224 0 2.16-.936 2.16-2.16v-10.152c0-4.644-2.52-7.272-6.66-7.272-2.88 0-4.896 1.332-6.408 3.348-1.008-2.016-2.952-3.348-5.688-3.348-2.916 0-4.572 1.584-5.796 3.276v-.9a2.182 2.182 0 0 0-2.196-2.196c-1.224 0-2.16.972-2.16 2.196v15.048Z" fill="#00E59D"/><g filter="url(#d)"><path d="M21.492 236.984c0 1.224.972 2.196 2.232 2.196a2.182 2.182 0 0 0 2.196-2.196v-21.168a2.182 2.182 0 0 0-2.196-2.196c-1.26 0-2.232.972-2.232 2.196v21.168Zm8.87.036c0 1.224.972 2.16 2.16 2.16 1.224 0 2.196-.936 2.196-2.16v-8.748c0-2.952 1.764-4.716 4.284-4.716 2.592 0 4.068 1.692 4.068 4.644v8.82c0 1.224.972 2.16 2.196 2.16 1.224 0 2.16-.936 2.16-2.16v-10.152c0-4.392-2.484-7.272-6.768-7.272-2.952 0-4.716 1.548-5.94 3.312v-.936a2.182 2.182 0 0 0-2.196-2.196c-1.224 0-2.16.972-2.16 2.196v15.048Zm30.471.432 6.336-14.544c.108-.216.252-.648.252-1.044 0-1.188-.936-2.088-2.124-2.088-1.152 0-1.728.756-2.052 1.512l-4.968 12.672-4.896-12.6c-.36-.9-.972-1.584-2.16-1.584-1.188 0-2.16 1.008-2.16 2.088 0 .396.144.756.252 1.08l6.336 14.508c.504 1.152 1.296 1.908 2.484 1.908h.216c1.188 0 1.98-.792 2.484-1.908Zm11.463-9.288c.396-2.952 2.268-5.004 4.932-5.004 2.88 0 4.536 2.196 4.824 5.004h-9.756Zm12.276 8.748c.324-.324.576-.792.576-1.332 0-1.008-.756-1.764-1.728-1.764-.504 0-.792.144-1.116.396-1.224 1.008-2.664 1.656-4.5 1.656-2.808 0-5.004-1.728-5.472-4.824h11.916c1.116 0 2.052-.864 2.052-2.088 0-4.392-2.988-9.36-9.036-9.36-5.436 0-9.288 4.464-9.288 9.9v.072c0 5.868 4.248 9.864 9.756 9.864 2.952 0 5.112-.972 6.84-2.52Zm10.89 2.448c3.96 0 7.056-1.98 7.056-5.976v-.072c0-3.42-3.132-4.68-5.904-5.544-2.232-.72-4.284-1.296-4.284-2.7v-.072c0-1.08.972-1.872 2.664-1.872 1.332 0 2.916.504 4.464 1.296.288.144.504.216.864.216 1.008 0 1.8-.756 1.8-1.764 0-.756-.432-1.332-1.044-1.656-1.836-.972-3.96-1.548-5.976-1.548-3.78 0-6.768 2.196-6.768 5.796v.072c0 3.636 3.132 4.788 5.94 5.58 2.232.684 4.248 1.188 4.248 2.664v.072c0 1.26-1.08 2.052-2.952 2.052-1.728 0-3.636-.612-5.472-1.836a1.9 1.9 0 0 0-.936-.252 1.744 1.744 0 0 0-1.764 1.764c0 .72.36 1.26.828 1.512 2.196 1.512 4.824 2.268 7.236 2.268Zm15.74-.036c1.152 0 2.052-.18 2.988-.504.612-.252 1.152-.9 1.152-1.692 0-1.008-.864-1.8-1.836-1.8-.144 0-.576.108-1.08.108-1.476 0-2.34-.684-2.34-2.376v-9.324h3.42c1.044 0 1.908-.828 1.908-1.872s-.864-1.872-1.908-1.872h-3.42v-3.24c0-1.188-.972-2.16-2.16-2.16-1.224 0-2.196.972-2.196 2.16v3.24h-.72a1.86 1.86 0 0 0-1.872 1.872 1.86 1.86 0 0 0 1.872 1.872h.72v10.008c0 4.176 2.268 5.58 5.472 5.58Zm6.629-2.304c0 1.224.972 2.16 2.16 2.16 1.224 0 2.196-.936 2.196-2.16v-8.748c0-2.916 1.656-4.716 4.068-4.716s3.852 1.656 3.852 4.608v8.856c0 1.224.972 2.16 2.196 2.16 1.188 0 2.16-.936 2.16-2.16v-8.748c0-3.06 1.692-4.716 4.068-4.716 2.448 0 3.852 1.62 3.852 4.644v8.82c0 1.224.972 2.16 2.196 2.16 1.224 0 2.16-.936 2.16-2.16v-10.152c0-4.644-2.52-7.272-6.66-7.272-2.88 0-4.896 1.332-6.408 3.348-1.008-2.016-2.952-3.348-5.688-3.348-2.916 0-4.572 1.584-5.796 3.276v-.9a2.182 2.182 0 0 0-2.196-2.196c-1.224 0-2.16.972-2.16 2.196v15.048Zm35.683-8.856c.396-2.952 2.268-5.004 4.932-5.004 2.88 0 4.536 2.196 4.824 5.004h-9.756Zm12.276 8.748c.324-.324.576-.792.576-1.332 0-1.008-.756-1.764-1.728-1.764-.504 0-.792.144-1.116.396-1.224 1.008-2.664 1.656-4.5 1.656-2.808 0-5.004-1.728-5.472-4.824h11.916c1.116 0 2.052-.864 2.052-2.088 0-4.392-2.988-9.36-9.036-9.36-5.436 0-9.288 4.464-9.288 9.9v.072c0 5.868 4.248 9.864 9.756 9.864 2.952 0 5.112-.972 6.84-2.52Zm4.374.108c0 1.224.972 2.16 2.16 2.16 1.224 0 2.196-.936 2.196-2.16v-8.748c0-2.952 1.764-4.716 4.284-4.716 2.592 0 4.068 1.692 4.068 4.644v8.82c0 1.224.972 2.16 2.196 2.16 1.224 0 2.16-.936 2.16-2.16v-10.152c0-4.392-2.484-7.272-6.768-7.272-2.952 0-4.716 1.548-5.94 3.312v-.936a2.182 2.182 0 0 0-2.196-2.196c-1.224 0-2.16.972-2.16 2.196v15.048Zm26.896 2.304c1.152 0 2.052-.18 2.988-.504.612-.252 1.152-.9 1.152-1.692 0-1.008-.864-1.8-1.836-1.8-.144 0-.576.108-1.08.108-1.476 0-2.34-.684-2.34-2.376v-9.324h3.42c1.044 0 1.908-.828 1.908-1.872s-.864-1.872-1.908-1.872h-3.42v-3.24c0-1.188-.972-2.16-2.16-2.16-1.224 0-2.196.972-2.196 2.16v3.24h-.72a1.86 1.86 0 0 0-1.872 1.872 1.86 1.86 0 0 0 1.872 1.872h.72v10.008c0 4.176 2.268 5.58 5.472 5.58Zm16.126-2.34c0 1.224.972 2.196 2.232 2.196a2.182 2.182 0 0 0 2.196-2.196V230.9h5.004c5.544 0 10.08-2.952 10.08-8.604v-.072c0-5.076-3.672-8.424-9.576-8.424h-7.704c-1.26 0-2.232.972-2.232 2.232v20.952Zm4.428-10.08v-9.072h5.148c3.312 0 5.436 1.548 5.436 4.5v.072c0 2.628-2.088 4.5-5.436 4.5h-5.148Zm17.567 10.116c0 1.224.972 2.16 2.16 2.16 1.224 0 2.196-.936 2.196-2.16V214.7c0-1.188-.972-2.16-2.196-2.16-1.224 0-2.16.972-2.16 2.16v22.32Zm13.721 2.376c2.916 0 4.896-1.224 6.192-2.772v.72c0 .972.864 1.836 2.124 1.836 1.188 0 2.124-.9 2.124-2.088v-9.36c0-2.484-.648-4.5-2.052-5.868-1.332-1.368-3.456-2.124-6.3-2.124-2.484 0-4.32.432-6.12 1.116-.648.252-1.188.936-1.188 1.728 0 1.008.828 1.8 1.836 1.8.216 0 .432-.036.684-.108 1.188-.468 2.556-.756 4.212-.756 3.06 0 4.716 1.44 4.716 4.14v.468c-1.476-.468-2.988-.792-5.112-.792-4.644 0-7.848 2.016-7.848 6.12v.072c0 3.816 3.168 5.868 6.732 5.868Zm1.224-3.168c-2.088 0-3.708-1.044-3.708-2.88v-.072c0-1.98 1.656-3.168 4.464-3.168 1.728 0 3.204.324 4.32.756v1.296c0 2.412-2.196 4.068-5.076 4.068Zm18.829 3.096c1.152 0 2.052-.18 2.988-.504.612-.252 1.152-.9 1.152-1.692 0-1.008-.864-1.8-1.836-1.8-.144 0-.576.108-1.08.108-1.476 0-2.34-.684-2.34-2.376v-9.324h3.42c1.044 0 1.908-.828 1.908-1.872s-.864-1.872-1.908-1.872h-3.42v-3.24c0-1.188-.972-2.16-2.16-2.16-1.224 0-2.196.972-2.196 2.16v3.24h-.72a1.86 1.86 0 0 0-1.872 1.872 1.86 1.86 0 0 0 1.872 1.872h.72v10.008c0 4.176 2.268 5.58 5.472 5.58Zm7.601-2.304c0 1.188.972 2.16 2.16 2.16 1.224 0 2.196-.972 2.196-2.16v-13.284h3.312c1.008 0 1.836-.792 1.836-1.8s-.792-1.8-1.836-1.8h-3.384v-1.044c0-1.98.864-2.88 2.52-2.88.288 0 .648.036.9.072 1.008.036 1.836-.792 1.836-1.8 0-.972-.72-1.692-1.512-1.8a12.559 12.559 0 0 0-2.196-.18c-1.872 0-3.276.504-4.284 1.512s-1.548 2.592-1.548 4.68v1.404h-.756a1.844 1.844 0 0 0-1.836 1.836c0 1.008.828 1.8 1.836 1.8h.756v13.284Zm19.447 2.412c5.868 0 10.188-4.5 10.188-9.9v-.072c0-5.436-4.284-9.864-10.116-9.864s-10.152 4.5-10.152 9.936v.072c0 5.4 4.284 9.828 10.08 9.828Zm.072-3.816c-3.384 0-5.796-2.772-5.796-6.084v-.072c0-3.312 2.232-6.048 5.724-6.048 3.42 0 5.832 2.772 5.832 6.12v.072c0 3.276-2.232 6.012-5.76 6.012Zm12.752 1.404c0 1.224.972 2.16 2.16 2.16 1.224 0 2.196-.972 2.196-2.16v-5.616c0-4.5 2.124-6.876 5.22-7.416.972-.18 1.728-.936 1.728-2.088 0-1.26-.792-2.16-2.16-2.16-1.908 0-3.78 1.8-4.788 4.176v-1.944a2.182 2.182 0 0 0-2.196-2.196c-1.224 0-2.16.972-2.16 2.196v15.048Zm13.072 0c0 1.224.972 2.16 2.16 2.16 1.224 0 2.196-.936 2.196-2.16v-8.748c0-2.916 1.656-4.716 4.068-4.716s3.852 1.656 3.852 4.608v8.856c0 1.224.972 2.16 2.196 2.16 1.188 0 2.16-.936 2.16-2.16v-8.748c0-3.06 1.692-4.716 4.068-4.716 2.448 0 3.852 1.62 3.852 4.644v8.82c0 1.224.972 2.16 2.196 2.16 1.224 0 2.16-.936 2.16-2.16v-10.152c0-4.644-2.52-7.272-6.66-7.272-2.88 0-4.896 1.332-6.408 3.348-1.008-2.016-2.952-3.348-5.688-3.348-2.916 0-4.572 1.584-5.796 3.276v-.9a2.182 2.182 0 0 0-2.196-2.196c-1.224 0-2.16.972-2.16 2.196v15.048Z" fill="#00E59D"/></g><defs><filter id="a" x=".152" y=".54" width="281.959" height="72.4" filterUnits="userSpaceOnUse" color-interpolation-filters="sRGB"><feFlood flood-opacity="0" result="BackgroundImageFix"/><feBlend in="SourceGraphic" in2="BackgroundImageFix" result="shape"/><feGaussianBlur stdDeviation="10" result="effect1_foregroundBlur"/></filter><filter id="b" x="2.359" y="52.16" width="446.45" height="90.68" filterUnits="userSpaceOnUse" color-interpolation-filters="sRGB"><feFlood flood-opacity="0" result="BackgroundImageFix"/><feBlend in="SourceGraphic" in2="BackgroundImageFix" result="shape"/><feGaussianBlur stdDeviation="10" result="effect1_foregroundBlur"/></filter><filter id="c" x=".301" y="118.55" width="472.422" height="92.29" filterUnits="userSpaceOnUse" color-interpolation-filters="sRGB"><feFlood flood-opacity="0" result="BackgroundImageFix"/><feBlend in="SourceGraphic" in2="BackgroundImageFix" result="shape"/><feGaussianBlur stdDeviation="10" result="effect1_foregroundBlur"/></filter><filter id="d" x="1.492" y="192.504" width="369.315" height="66.928" filterUnits="userSpaceOnUse" color-interpolation-filters="sRGB"><feFlood flood-opacity="0" result="BackgroundImageFix"/><feBlend in="SourceGraphic" in2="BackgroundImageFix" result="shape"/><feGaussianBlur stdDeviation="10" result="effect1_foregroundBlur"/></filter></defs></svg>