<svg width="473" height="260" viewBox="0 0 473 260" fill="none" xmlns="http://www.w3.org/2000/svg">
<path d="M29.332 49.984C29.332 51.208 30.304 52.18 31.528 52.18C32.788 52.18 33.76 51.208 33.76 49.984V42.1L42.364 30.328C42.688 29.896 42.976 29.356 42.976 28.744C42.976 27.556 42.112 26.584 40.816 26.584C39.88 26.584 39.232 27.124 38.692 27.916L31.564 38.068L24.544 27.952C24.004 27.16 23.356 26.62 22.384 26.62C21.124 26.62 20.152 27.556 20.152 28.744C20.152 29.356 20.368 29.86 20.656 30.292L29.332 42.208V49.984ZM51.1908 52.432C57.0588 52.432 61.3788 47.932 61.3788 42.532V42.46C61.3788 37.024 57.0948 32.596 51.2628 32.596C45.4308 32.596 41.1108 37.096 41.1108 42.532V42.604C41.1108 48.004 45.3948 52.432 51.1908 52.432ZM51.2628 48.616C47.8788 48.616 45.4668 45.844 45.4668 42.532V42.46C45.4668 39.148 47.6988 36.412 51.1908 36.412C54.6108 36.412 57.0228 39.184 57.0228 42.532V42.604C57.0228 45.88 54.7908 48.616 51.2628 48.616ZM80.8989 34.972C80.8989 33.748 79.8909 32.776 78.7029 32.776C77.4789 32.776 76.5069 33.748 76.5069 34.972V43.72C76.5069 46.672 74.7429 48.4 72.2229 48.4C69.6309 48.4 68.1549 46.744 68.1549 43.792V34.972C68.1549 33.748 67.1829 32.776 65.9589 32.776C64.7709 32.776 63.7989 33.748 63.7989 34.972V45.088C63.7989 49.516 66.2829 52.396 70.5669 52.396C73.5189 52.396 75.2829 50.848 76.5069 49.048V50.02C76.5069 51.244 77.5149 52.18 78.7029 52.18C79.9269 52.18 80.8989 51.208 80.8989 50.02V34.972ZM84.5391 50.02C84.5391 51.244 85.5111 52.18 86.6991 52.18C87.9231 52.18 88.8951 51.208 88.8951 50.02V44.404C88.8951 39.904 91.0191 37.528 94.1151 36.988C95.0871 36.808 95.8431 36.052 95.8431 34.9C95.8431 33.64 95.0511 32.74 93.6831 32.74C91.7751 32.74 89.9031 34.54 88.8951 36.916V34.972C88.8951 33.748 87.9231 32.776 86.6991 32.776C85.4751 32.776 84.5391 33.748 84.5391 34.972V50.02ZM113.119 52.36C117.079 52.36 120.175 50.38 120.175 46.384V46.312C120.175 42.892 117.043 41.632 114.271 40.768C112.039 40.048 109.987 39.472 109.987 38.068V37.996C109.987 36.916 110.959 36.124 112.651 36.124C113.983 36.124 115.567 36.628 117.115 37.42C117.403 37.564 117.619 37.636 117.979 37.636C118.987 37.636 119.779 36.88 119.779 35.872C119.779 35.116 119.347 34.54 118.735 34.216C116.899 33.244 114.775 32.668 112.759 32.668C108.979 32.668 105.991 34.864 105.991 38.464V38.536C105.991 42.172 109.123 43.324 111.931 44.116C114.163 44.8 116.179 45.304 116.179 46.78V46.852C116.179 48.112 115.099 48.904 113.227 48.904C111.499 48.904 109.591 48.292 107.755 47.068C107.503 46.924 107.179 46.816 106.819 46.816C105.811 46.816 105.055 47.608 105.055 48.58C105.055 49.3 105.415 49.84 105.883 50.092C108.079 51.604 110.707 52.36 113.119 52.36ZM122.838 55.78C122.838 57.004 123.81 57.94 124.998 57.94C126.222 57.94 127.194 57.004 127.194 55.78V49.048C128.526 50.812 130.506 52.396 133.674 52.396C138.174 52.396 142.494 48.832 142.494 42.532V42.46C142.494 36.124 138.138 32.596 133.674 32.596C130.578 32.596 128.598 34.18 127.194 36.16V34.972C127.194 33.748 126.222 32.776 124.998 32.776C123.774 32.776 122.838 33.748 122.838 34.972V55.78ZM132.63 48.616C129.678 48.616 127.086 46.168 127.086 42.532V42.46C127.086 38.824 129.678 36.376 132.63 36.376C135.582 36.376 138.066 38.788 138.066 42.46V42.532C138.066 46.276 135.618 48.616 132.63 48.616ZM145.119 28.096C145.119 29.392 146.199 30.256 147.603 30.256C149.007 30.256 150.087 29.392 150.087 28.096V27.88C150.087 26.584 149.007 25.756 147.603 25.756C146.199 25.756 145.119 26.584 145.119 27.88V28.096ZM145.443 50.02C145.443 51.244 146.415 52.18 147.603 52.18C148.827 52.18 149.799 51.244 149.799 50.02V34.972C149.799 33.748 148.827 32.776 147.603 32.776C146.379 32.776 145.443 33.748 145.443 34.972V50.02ZM153.691 50.02C153.691 51.244 154.663 52.18 155.851 52.18C157.075 52.18 158.047 51.208 158.047 50.02V44.404C158.047 39.904 160.171 37.528 163.267 36.988C164.239 36.808 164.995 36.052 164.995 34.9C164.995 33.64 164.203 32.74 162.835 32.74C160.927 32.74 159.055 34.54 158.047 36.916V34.972C158.047 33.748 157.075 32.776 155.851 32.776C154.627 32.776 153.691 33.748 153.691 34.972V50.02ZM166.691 28.096C166.691 29.392 167.771 30.256 169.175 30.256C170.579 30.256 171.659 29.392 171.659 28.096V27.88C171.659 26.584 170.579 25.756 169.175 25.756C167.771 25.756 166.691 26.584 166.691 27.88V28.096ZM167.015 50.02C167.015 51.244 167.987 52.18 169.175 52.18C170.399 52.18 171.371 51.244 171.371 50.02V34.972C171.371 33.748 170.399 32.776 169.175 32.776C167.951 32.776 167.015 33.748 167.015 34.972V50.02ZM181.635 52.324C182.787 52.324 183.687 52.144 184.623 51.82C185.235 51.568 185.775 50.92 185.775 50.128C185.775 49.12 184.911 48.328 183.939 48.328C183.795 48.328 183.363 48.436 182.859 48.436C181.383 48.436 180.519 47.752 180.519 46.06V36.736H183.939C184.983 36.736 185.847 35.908 185.847 34.864C185.847 33.82 184.983 32.992 183.939 32.992H180.519V29.752C180.519 28.564 179.547 27.592 178.359 27.592C177.135 27.592 176.163 28.564 176.163 29.752V32.992H175.443C174.399 32.992 173.571 33.82 173.571 34.864C173.571 35.908 174.399 36.736 175.443 36.736H176.163V46.744C176.163 50.92 178.431 52.324 181.635 52.324ZM205.148 34.972C205.148 33.748 204.14 32.776 202.952 32.776C201.728 32.776 200.756 33.748 200.756 34.972V43.72C200.756 46.672 198.992 48.4 196.472 48.4C193.88 48.4 192.404 46.744 192.404 43.792V34.972C192.404 33.748 191.432 32.776 190.208 32.776C189.02 32.776 188.048 33.748 188.048 34.972V45.088C188.048 49.516 190.532 52.396 194.816 52.396C197.768 52.396 199.532 50.848 200.756 49.048V50.02C200.756 51.244 201.764 52.18 202.952 52.18C204.176 52.18 205.148 51.208 205.148 50.02V34.972ZM214.26 52.396C217.176 52.396 219.156 51.172 220.452 49.624V50.344C220.452 51.316 221.316 52.18 222.576 52.18C223.764 52.18 224.7 51.28 224.7 50.092V40.732C224.7 38.248 224.052 36.232 222.648 34.864C221.316 33.496 219.192 32.74 216.348 32.74C213.864 32.74 212.028 33.172 210.228 33.856C209.58 34.108 209.04 34.792 209.04 35.584C209.04 36.592 209.868 37.384 210.876 37.384C211.092 37.384 211.308 37.348 211.56 37.276C212.748 36.808 214.116 36.52 215.772 36.52C218.832 36.52 220.488 37.96 220.488 40.66V41.128C219.012 40.66 217.5 40.336 215.376 40.336C210.732 40.336 207.528 42.352 207.528 46.456V46.528C207.528 50.344 210.696 52.396 214.26 52.396ZM215.484 49.228C213.396 49.228 211.776 48.184 211.776 46.348V46.276C211.776 44.296 213.432 43.108 216.24 43.108C217.968 43.108 219.444 43.432 220.56 43.864V45.16C220.56 47.572 218.364 49.228 215.484 49.228ZM228.369 50.02C228.369 51.244 229.341 52.18 230.529 52.18C231.753 52.18 232.725 51.244 232.725 50.02V27.7C232.725 26.512 231.753 25.54 230.529 25.54C229.305 25.54 228.369 26.512 228.369 27.7V50.02ZM236.87 50.02C236.87 51.244 237.842 52.18 239.03 52.18C240.254 52.18 241.226 51.244 241.226 50.02V27.7C241.226 26.512 240.254 25.54 239.03 25.54C237.806 25.54 236.87 26.512 236.87 27.7V50.02ZM248.575 57.868C251.635 57.868 253.363 56.428 254.983 52.54L261.931 35.872C262.003 35.656 262.111 35.188 262.111 34.828C262.111 33.676 261.175 32.776 260.023 32.776C258.907 32.776 258.295 33.532 257.935 34.432L253.183 47.068L248.071 34.432C247.675 33.424 247.063 32.776 245.947 32.776C244.723 32.776 243.787 33.676 243.787 34.9C243.787 35.188 243.895 35.62 244.039 35.944L251.095 51.712L250.951 52.108C250.231 53.584 249.547 54.124 248.251 54.124C247.639 54.124 247.243 54.016 246.739 53.872C246.523 53.8 246.307 53.728 245.947 53.728C245.011 53.728 244.183 54.448 244.183 55.528C244.183 56.572 244.903 57.112 245.551 57.328C246.451 57.688 247.351 57.868 248.575 57.868Z" fill="black"/>
<path d="M29.332 44.984C29.332 46.208 30.304 47.18 31.528 47.18C32.788 47.18 33.76 46.208 33.76 44.984V37.1L42.364 25.328C42.688 24.896 42.976 24.356 42.976 23.744C42.976 22.556 42.112 21.584 40.816 21.584C39.88 21.584 39.232 22.124 38.692 22.916L31.564 33.068L24.544 22.952C24.004 22.16 23.356 21.62 22.384 21.62C21.124 21.62 20.152 22.556 20.152 23.744C20.152 24.356 20.368 24.86 20.656 25.292L29.332 37.208V44.984ZM51.1908 47.432C57.0588 47.432 61.3788 42.932 61.3788 37.532V37.46C61.3788 32.024 57.0948 27.596 51.2628 27.596C45.4308 27.596 41.1108 32.096 41.1108 37.532V37.604C41.1108 43.004 45.3948 47.432 51.1908 47.432ZM51.2628 43.616C47.8788 43.616 45.4668 40.844 45.4668 37.532V37.46C45.4668 34.148 47.6988 31.412 51.1908 31.412C54.6108 31.412 57.0228 34.184 57.0228 37.532V37.604C57.0228 40.88 54.7908 43.616 51.2628 43.616ZM80.8989 29.972C80.8989 28.748 79.8909 27.776 78.7029 27.776C77.4789 27.776 76.5069 28.748 76.5069 29.972V38.72C76.5069 41.672 74.7429 43.4 72.2229 43.4C69.6309 43.4 68.1549 41.744 68.1549 38.792V29.972C68.1549 28.748 67.1829 27.776 65.9589 27.776C64.7709 27.776 63.7989 28.748 63.7989 29.972V40.088C63.7989 44.516 66.2829 47.396 70.5669 47.396C73.5189 47.396 75.2829 45.848 76.5069 44.048V45.02C76.5069 46.244 77.5149 47.18 78.7029 47.18C79.9269 47.18 80.8989 46.208 80.8989 45.02V29.972ZM84.5391 45.02C84.5391 46.244 85.5111 47.18 86.6991 47.18C87.9231 47.18 88.8951 46.208 88.8951 45.02V39.404C88.8951 34.904 91.0191 32.528 94.1151 31.988C95.0871 31.808 95.8431 31.052 95.8431 29.9C95.8431 28.64 95.0511 27.74 93.6831 27.74C91.7751 27.74 89.9031 29.54 88.8951 31.916V29.972C88.8951 28.748 87.9231 27.776 86.6991 27.776C85.4751 27.776 84.5391 28.748 84.5391 29.972V45.02ZM113.119 47.36C117.079 47.36 120.175 45.38 120.175 41.384V41.312C120.175 37.892 117.043 36.632 114.271 35.768C112.039 35.048 109.987 34.472 109.987 33.068V32.996C109.987 31.916 110.959 31.124 112.651 31.124C113.983 31.124 115.567 31.628 117.115 32.42C117.403 32.564 117.619 32.636 117.979 32.636C118.987 32.636 119.779 31.88 119.779 30.872C119.779 30.116 119.347 29.54 118.735 29.216C116.899 28.244 114.775 27.668 112.759 27.668C108.979 27.668 105.991 29.864 105.991 33.464V33.536C105.991 37.172 109.123 38.324 111.931 39.116C114.163 39.8 116.179 40.304 116.179 41.78V41.852C116.179 43.112 115.099 43.904 113.227 43.904C111.499 43.904 109.591 43.292 107.755 42.068C107.503 41.924 107.179 41.816 106.819 41.816C105.811 41.816 105.055 42.608 105.055 43.58C105.055 44.3 105.415 44.84 105.883 45.092C108.079 46.604 110.707 47.36 113.119 47.36ZM122.838 50.78C122.838 52.004 123.81 52.94 124.998 52.94C126.222 52.94 127.194 52.004 127.194 50.78V44.048C128.526 45.812 130.506 47.396 133.674 47.396C138.174 47.396 142.494 43.832 142.494 37.532V37.46C142.494 31.124 138.138 27.596 133.674 27.596C130.578 27.596 128.598 29.18 127.194 31.16V29.972C127.194 28.748 126.222 27.776 124.998 27.776C123.774 27.776 122.838 28.748 122.838 29.972V50.78ZM132.63 43.616C129.678 43.616 127.086 41.168 127.086 37.532V37.46C127.086 33.824 129.678 31.376 132.63 31.376C135.582 31.376 138.066 33.788 138.066 37.46V37.532C138.066 41.276 135.618 43.616 132.63 43.616ZM145.119 23.096C145.119 24.392 146.199 25.256 147.603 25.256C149.007 25.256 150.087 24.392 150.087 23.096V22.88C150.087 21.584 149.007 20.756 147.603 20.756C146.199 20.756 145.119 21.584 145.119 22.88V23.096ZM145.443 45.02C145.443 46.244 146.415 47.18 147.603 47.18C148.827 47.18 149.799 46.244 149.799 45.02V29.972C149.799 28.748 148.827 27.776 147.603 27.776C146.379 27.776 145.443 28.748 145.443 29.972V45.02ZM153.691 45.02C153.691 46.244 154.663 47.18 155.851 47.18C157.075 47.18 158.047 46.208 158.047 45.02V39.404C158.047 34.904 160.171 32.528 163.267 31.988C164.239 31.808 164.995 31.052 164.995 29.9C164.995 28.64 164.203 27.74 162.835 27.74C160.927 27.74 159.055 29.54 158.047 31.916V29.972C158.047 28.748 157.075 27.776 155.851 27.776C154.627 27.776 153.691 28.748 153.691 29.972V45.02ZM166.691 23.096C166.691 24.392 167.771 25.256 169.175 25.256C170.579 25.256 171.659 24.392 171.659 23.096V22.88C171.659 21.584 170.579 20.756 169.175 20.756C167.771 20.756 166.691 21.584 166.691 22.88V23.096ZM167.015 45.02C167.015 46.244 167.987 47.18 169.175 47.18C170.399 47.18 171.371 46.244 171.371 45.02V29.972C171.371 28.748 170.399 27.776 169.175 27.776C167.951 27.776 167.015 28.748 167.015 29.972V45.02ZM181.635 47.324C182.787 47.324 183.687 47.144 184.623 46.82C185.235 46.568 185.775 45.92 185.775 45.128C185.775 44.12 184.911 43.328 183.939 43.328C183.795 43.328 183.363 43.436 182.859 43.436C181.383 43.436 180.519 42.752 180.519 41.06V31.736H183.939C184.983 31.736 185.847 30.908 185.847 29.864C185.847 28.82 184.983 27.992 183.939 27.992H180.519V24.752C180.519 23.564 179.547 22.592 178.359 22.592C177.135 22.592 176.163 23.564 176.163 24.752V27.992H175.443C174.399 27.992 173.571 28.82 173.571 29.864C173.571 30.908 174.399 31.736 175.443 31.736H176.163V41.744C176.163 45.92 178.431 47.324 181.635 47.324ZM205.148 29.972C205.148 28.748 204.14 27.776 202.952 27.776C201.728 27.776 200.756 28.748 200.756 29.972V38.72C200.756 41.672 198.992 43.4 196.472 43.4C193.88 43.4 192.404 41.744 192.404 38.792V29.972C192.404 28.748 191.432 27.776 190.208 27.776C189.02 27.776 188.048 28.748 188.048 29.972V40.088C188.048 44.516 190.532 47.396 194.816 47.396C197.768 47.396 199.532 45.848 200.756 44.048V45.02C200.756 46.244 201.764 47.18 202.952 47.18C204.176 47.18 205.148 46.208 205.148 45.02V29.972ZM214.26 47.396C217.176 47.396 219.156 46.172 220.452 44.624V45.344C220.452 46.316 221.316 47.18 222.576 47.18C223.764 47.18 224.7 46.28 224.7 45.092V35.732C224.7 33.248 224.052 31.232 222.648 29.864C221.316 28.496 219.192 27.74 216.348 27.74C213.864 27.74 212.028 28.172 210.228 28.856C209.58 29.108 209.04 29.792 209.04 30.584C209.04 31.592 209.868 32.384 210.876 32.384C211.092 32.384 211.308 32.348 211.56 32.276C212.748 31.808 214.116 31.52 215.772 31.52C218.832 31.52 220.488 32.96 220.488 35.66V36.128C219.012 35.66 217.5 35.336 215.376 35.336C210.732 35.336 207.528 37.352 207.528 41.456V41.528C207.528 45.344 210.696 47.396 214.26 47.396ZM215.484 44.228C213.396 44.228 211.776 43.184 211.776 41.348V41.276C211.776 39.296 213.432 38.108 216.24 38.108C217.968 38.108 219.444 38.432 220.56 38.864V40.16C220.56 42.572 218.364 44.228 215.484 44.228ZM228.369 45.02C228.369 46.244 229.341 47.18 230.529 47.18C231.753 47.18 232.725 46.244 232.725 45.02V22.7C232.725 21.512 231.753 20.54 230.529 20.54C229.305 20.54 228.369 21.512 228.369 22.7V45.02ZM236.87 45.02C236.87 46.244 237.842 47.18 239.03 47.18C240.254 47.18 241.226 46.244 241.226 45.02V22.7C241.226 21.512 240.254 20.54 239.03 20.54C237.806 20.54 236.87 21.512 236.87 22.7V45.02ZM248.575 52.868C251.635 52.868 253.363 51.428 254.983 47.54L261.931 30.872C262.003 30.656 262.111 30.188 262.111 29.828C262.111 28.676 261.175 27.776 260.023 27.776C258.907 27.776 258.295 28.532 257.935 29.432L253.183 42.068L248.071 29.432C247.675 28.424 247.063 27.776 245.947 27.776C244.723 27.776 243.787 28.676 243.787 29.9C243.787 30.188 243.895 30.62 244.039 30.944L251.095 46.712L250.951 47.108C250.231 48.584 249.547 49.124 248.251 49.124C247.639 49.124 247.243 49.016 246.739 48.872C246.523 48.8 246.307 48.728 245.947 48.728C245.011 48.728 244.183 49.448 244.183 50.528C244.183 51.572 244.903 52.112 245.551 52.328C246.451 52.688 247.351 52.868 248.575 52.868Z" fill="#00E59D"/>
<g filter="url(#filter0_f)">
<path d="M29.332 44.984C29.332 46.208 30.304 47.18 31.528 47.18C32.788 47.18 33.76 46.208 33.76 44.984V37.1L42.364 25.328C42.688 24.896 42.976 24.356 42.976 23.744C42.976 22.556 42.112 21.584 40.816 21.584C39.88 21.584 39.232 22.124 38.692 22.916L31.564 33.068L24.544 22.952C24.004 22.16 23.356 21.62 22.384 21.62C21.124 21.62 20.152 22.556 20.152 23.744C20.152 24.356 20.368 24.86 20.656 25.292L29.332 37.208V44.984ZM51.1908 47.432C57.0588 47.432 61.3788 42.932 61.3788 37.532V37.46C61.3788 32.024 57.0948 27.596 51.2628 27.596C45.4308 27.596 41.1108 32.096 41.1108 37.532V37.604C41.1108 43.004 45.3948 47.432 51.1908 47.432ZM51.2628 43.616C47.8788 43.616 45.4668 40.844 45.4668 37.532V37.46C45.4668 34.148 47.6988 31.412 51.1908 31.412C54.6108 31.412 57.0228 34.184 57.0228 37.532V37.604C57.0228 40.88 54.7908 43.616 51.2628 43.616ZM80.8989 29.972C80.8989 28.748 79.8909 27.776 78.7029 27.776C77.4789 27.776 76.5069 28.748 76.5069 29.972V38.72C76.5069 41.672 74.7429 43.4 72.2229 43.4C69.6309 43.4 68.1549 41.744 68.1549 38.792V29.972C68.1549 28.748 67.1829 27.776 65.9589 27.776C64.7709 27.776 63.7989 28.748 63.7989 29.972V40.088C63.7989 44.516 66.2829 47.396 70.5669 47.396C73.5189 47.396 75.2829 45.848 76.5069 44.048V45.02C76.5069 46.244 77.5149 47.18 78.7029 47.18C79.9269 47.18 80.8989 46.208 80.8989 45.02V29.972ZM84.5391 45.02C84.5391 46.244 85.5111 47.18 86.6991 47.18C87.9231 47.18 88.8951 46.208 88.8951 45.02V39.404C88.8951 34.904 91.0191 32.528 94.1151 31.988C95.0871 31.808 95.8431 31.052 95.8431 29.9C95.8431 28.64 95.0511 27.74 93.6831 27.74C91.7751 27.74 89.9031 29.54 88.8951 31.916V29.972C88.8951 28.748 87.9231 27.776 86.6991 27.776C85.4751 27.776 84.5391 28.748 84.5391 29.972V45.02ZM113.119 47.36C117.079 47.36 120.175 45.38 120.175 41.384V41.312C120.175 37.892 117.043 36.632 114.271 35.768C112.039 35.048 109.987 34.472 109.987 33.068V32.996C109.987 31.916 110.959 31.124 112.651 31.124C113.983 31.124 115.567 31.628 117.115 32.42C117.403 32.564 117.619 32.636 117.979 32.636C118.987 32.636 119.779 31.88 119.779 30.872C119.779 30.116 119.347 29.54 118.735 29.216C116.899 28.244 114.775 27.668 112.759 27.668C108.979 27.668 105.991 29.864 105.991 33.464V33.536C105.991 37.172 109.123 38.324 111.931 39.116C114.163 39.8 116.179 40.304 116.179 41.78V41.852C116.179 43.112 115.099 43.904 113.227 43.904C111.499 43.904 109.591 43.292 107.755 42.068C107.503 41.924 107.179 41.816 106.819 41.816C105.811 41.816 105.055 42.608 105.055 43.58C105.055 44.3 105.415 44.84 105.883 45.092C108.079 46.604 110.707 47.36 113.119 47.36ZM122.838 50.78C122.838 52.004 123.81 52.94 124.998 52.94C126.222 52.94 127.194 52.004 127.194 50.78V44.048C128.526 45.812 130.506 47.396 133.674 47.396C138.174 47.396 142.494 43.832 142.494 37.532V37.46C142.494 31.124 138.138 27.596 133.674 27.596C130.578 27.596 128.598 29.18 127.194 31.16V29.972C127.194 28.748 126.222 27.776 124.998 27.776C123.774 27.776 122.838 28.748 122.838 29.972V50.78ZM132.63 43.616C129.678 43.616 127.086 41.168 127.086 37.532V37.46C127.086 33.824 129.678 31.376 132.63 31.376C135.582 31.376 138.066 33.788 138.066 37.46V37.532C138.066 41.276 135.618 43.616 132.63 43.616ZM145.119 23.096C145.119 24.392 146.199 25.256 147.603 25.256C149.007 25.256 150.087 24.392 150.087 23.096V22.88C150.087 21.584 149.007 20.756 147.603 20.756C146.199 20.756 145.119 21.584 145.119 22.88V23.096ZM145.443 45.02C145.443 46.244 146.415 47.18 147.603 47.18C148.827 47.18 149.799 46.244 149.799 45.02V29.972C149.799 28.748 148.827 27.776 147.603 27.776C146.379 27.776 145.443 28.748 145.443 29.972V45.02ZM153.691 45.02C153.691 46.244 154.663 47.18 155.851 47.18C157.075 47.18 158.047 46.208 158.047 45.02V39.404C158.047 34.904 160.171 32.528 163.267 31.988C164.239 31.808 164.995 31.052 164.995 29.9C164.995 28.64 164.203 27.74 162.835 27.74C160.927 27.74 159.055 29.54 158.047 31.916V29.972C158.047 28.748 157.075 27.776 155.851 27.776C154.627 27.776 153.691 28.748 153.691 29.972V45.02ZM166.691 23.096C166.691 24.392 167.771 25.256 169.175 25.256C170.579 25.256 171.659 24.392 171.659 23.096V22.88C171.659 21.584 170.579 20.756 169.175 20.756C167.771 20.756 166.691 21.584 166.691 22.88V23.096ZM167.015 45.02C167.015 46.244 167.987 47.18 169.175 47.18C170.399 47.18 171.371 46.244 171.371 45.02V29.972C171.371 28.748 170.399 27.776 169.175 27.776C167.951 27.776 167.015 28.748 167.015 29.972V45.02ZM181.635 47.324C182.787 47.324 183.687 47.144 184.623 46.82C185.235 46.568 185.775 45.92 185.775 45.128C185.775 44.12 184.911 43.328 183.939 43.328C183.795 43.328 183.363 43.436 182.859 43.436C181.383 43.436 180.519 42.752 180.519 41.06V31.736H183.939C184.983 31.736 185.847 30.908 185.847 29.864C185.847 28.82 184.983 27.992 183.939 27.992H180.519V24.752C180.519 23.564 179.547 22.592 178.359 22.592C177.135 22.592 176.163 23.564 176.163 24.752V27.992H175.443C174.399 27.992 173.571 28.82 173.571 29.864C173.571 30.908 174.399 31.736 175.443 31.736H176.163V41.744C176.163 45.92 178.431 47.324 181.635 47.324ZM205.148 29.972C205.148 28.748 204.14 27.776 202.952 27.776C201.728 27.776 200.756 28.748 200.756 29.972V38.72C200.756 41.672 198.992 43.4 196.472 43.4C193.88 43.4 192.404 41.744 192.404 38.792V29.972C192.404 28.748 191.432 27.776 190.208 27.776C189.02 27.776 188.048 28.748 188.048 29.972V40.088C188.048 44.516 190.532 47.396 194.816 47.396C197.768 47.396 199.532 45.848 200.756 44.048V45.02C200.756 46.244 201.764 47.18 202.952 47.18C204.176 47.18 205.148 46.208 205.148 45.02V29.972ZM214.26 47.396C217.176 47.396 219.156 46.172 220.452 44.624V45.344C220.452 46.316 221.316 47.18 222.576 47.18C223.764 47.18 224.7 46.28 224.7 45.092V35.732C224.7 33.248 224.052 31.232 222.648 29.864C221.316 28.496 219.192 27.74 216.348 27.74C213.864 27.74 212.028 28.172 210.228 28.856C209.58 29.108 209.04 29.792 209.04 30.584C209.04 31.592 209.868 32.384 210.876 32.384C211.092 32.384 211.308 32.348 211.56 32.276C212.748 31.808 214.116 31.52 215.772 31.52C218.832 31.52 220.488 32.96 220.488 35.66V36.128C219.012 35.66 217.5 35.336 215.376 35.336C210.732 35.336 207.528 37.352 207.528 41.456V41.528C207.528 45.344 210.696 47.396 214.26 47.396ZM215.484 44.228C213.396 44.228 211.776 43.184 211.776 41.348V41.276C211.776 39.296 213.432 38.108 216.24 38.108C217.968 38.108 219.444 38.432 220.56 38.864V40.16C220.56 42.572 218.364 44.228 215.484 44.228ZM228.369 45.02C228.369 46.244 229.341 47.18 230.529 47.18C231.753 47.18 232.725 46.244 232.725 45.02V22.7C232.725 21.512 231.753 20.54 230.529 20.54C229.305 20.54 228.369 21.512 228.369 22.7V45.02ZM236.87 45.02C236.87 46.244 237.842 47.18 239.03 47.18C240.254 47.18 241.226 46.244 241.226 45.02V22.7C241.226 21.512 240.254 20.54 239.03 20.54C237.806 20.54 236.87 21.512 236.87 22.7V45.02ZM248.575 52.868C251.635 52.868 253.363 51.428 254.983 47.54L261.931 30.872C262.003 30.656 262.111 30.188 262.111 29.828C262.111 28.676 261.175 27.776 260.023 27.776C258.907 27.776 258.295 28.532 257.935 29.432L253.183 42.068L248.071 29.432C247.675 28.424 247.063 27.776 245.947 27.776C244.723 27.776 243.787 28.676 243.787 29.9C243.787 30.188 243.895 30.62 244.039 30.944L251.095 46.712L250.951 47.108C250.231 48.584 249.547 49.124 248.251 49.124C247.639 49.124 247.243 49.016 246.739 48.872C246.523 48.8 246.307 48.728 245.947 48.728C245.011 48.728 244.183 49.448 244.183 50.528C244.183 51.572 244.903 52.112 245.551 52.328C246.451 52.688 247.351 52.868 248.575 52.868Z" fill="#00E59D"/>
</g>
<path d="M42.45 127.7C52.74 127.7 59.95 122.24 59.95 113.07V112.93C59.95 104.81 54.63 101.1 44.27 98.58C34.82 96.34 32.58 94.66 32.58 90.88V90.74C32.58 87.52 35.52 84.93 40.56 84.93C44.41 84.93 48.05 86.19 51.83 88.64C52.53 89.06 53.23 89.27 54.07 89.27C56.31 89.27 58.13 87.52 58.13 85.28C58.13 83.6 57.22 82.41 56.24 81.85C51.83 78.91 46.86 77.3 40.7 77.3C30.97 77.3 23.97 83.11 23.97 91.51V91.65C23.97 100.68 29.85 103.76 40.28 106.28C49.38 108.38 51.34 110.27 51.34 113.77V113.91C51.34 117.55 47.98 120.07 42.66 120.07C37.34 120.07 33 118.25 28.94 115.03C28.38 114.61 27.61 114.26 26.42 114.26C24.18 114.26 22.36 116.01 22.36 118.25C22.36 119.65 23.06 120.84 24.04 121.54C29.5 125.6 35.8 127.7 42.45 127.7ZM78.7248 123.08C78.7248 125.46 80.6148 127.35 82.9948 127.35C85.4448 127.35 87.3348 125.46 87.3348 123.08V107.75L104.065 84.86C104.695 84.02 105.255 82.97 105.255 81.78C105.255 79.47 103.575 77.58 101.055 77.58C99.2348 77.58 97.9748 78.63 96.9248 80.17L83.0648 99.91L69.4148 80.24C68.3648 78.7 67.1048 77.65 65.2148 77.65C62.7648 77.65 60.8748 79.47 60.8748 81.78C60.8748 82.97 61.2948 83.95 61.8548 84.79L78.7248 107.96V123.08ZM110.175 123.15C110.175 125.53 111.995 127.35 114.375 127.35C116.755 127.35 118.645 125.53 118.645 123.15V93.82L130.545 111.67C131.455 113.07 132.575 113.91 134.115 113.91C135.725 113.91 136.845 113.07 137.755 111.67L149.725 93.68V123.08C149.725 125.39 151.685 127.35 153.995 127.35C156.445 127.35 158.335 125.46 158.335 123.08V82.06C158.335 79.68 156.445 77.72 153.995 77.72H153.085C151.335 77.72 150.075 78.49 149.165 79.96L134.255 103.27L119.415 80.03C118.575 78.7 117.315 77.72 115.425 77.72H114.515C112.065 77.72 110.175 79.68 110.175 82.06V123.15ZM167.446 123.08C167.446 125.46 169.336 127.35 171.786 127.35C174.166 127.35 176.056 125.46 176.056 123.08V111.25H185.786C196.566 111.25 205.386 105.51 205.386 94.52V94.38C205.386 84.51 198.246 78 186.766 78H171.786C169.336 78 167.446 79.89 167.446 82.34V123.08ZM176.056 103.48V85.84H186.066C192.506 85.84 196.636 88.85 196.636 94.59V94.73C196.636 99.84 192.576 103.48 186.066 103.48H176.056ZM210.704 123.08C210.704 125.46 212.594 127.35 215.044 127.35C217.424 127.35 219.314 125.46 219.314 123.08V106.35H242.694V123.08C242.694 125.46 244.584 127.35 246.964 127.35C249.414 127.35 251.304 125.46 251.304 123.08V81.92C251.304 79.54 249.414 77.65 246.964 77.65C244.584 77.65 242.694 79.54 242.694 81.92V98.37H219.314V81.92C219.314 79.54 217.424 77.65 215.044 77.65C212.594 77.65 210.704 79.54 210.704 81.92V123.08ZM283.768 127.84C298.818 127.84 309.458 116.29 309.458 102.5V102.36C309.458 88.57 298.958 77.16 283.908 77.16C268.858 77.16 258.218 88.71 258.218 102.5V102.64C258.218 116.43 268.718 127.84 283.768 127.84ZM283.908 119.86C274.178 119.86 267.248 112.02 267.248 102.5V102.36C267.248 92.84 274.038 85.07 283.768 85.07C293.498 85.07 300.428 92.98 300.428 102.5V102.64C300.428 112.16 293.638 119.86 283.908 119.86ZM316.361 123.15C316.361 125.46 318.251 127.35 320.631 127.35C322.941 127.35 324.831 125.46 324.831 123.15V92.07L350.031 124.69C351.221 126.23 352.481 127.28 354.511 127.28H354.861C357.241 127.28 359.061 125.39 359.061 123.01V81.85C359.061 79.54 357.171 77.65 354.791 77.65C352.481 77.65 350.591 79.54 350.591 81.85V111.95L326.091 80.24C324.901 78.77 323.711 77.72 321.611 77.72H320.701C318.251 77.72 316.361 79.68 316.361 82.06V123.15ZM368.653 123.08C368.653 125.46 370.543 127.35 372.993 127.35C375.373 127.35 377.263 125.46 377.263 123.08V81.92C377.263 79.54 375.373 77.65 372.993 77.65C370.543 77.65 368.653 79.54 368.653 81.92V123.08ZM409.63 127.84C417.54 127.84 422.79 125.32 427.41 121.26C428.18 120.56 428.81 119.51 428.81 118.18C428.81 116.01 426.92 114.19 424.75 114.19C423.7 114.19 422.79 114.61 422.16 115.17C418.59 118.18 415.09 119.86 409.91 119.86C400.53 119.86 393.74 112.09 393.74 102.5V102.36C393.74 92.77 400.6 85.07 409.91 85.07C414.6 85.07 418.24 86.75 421.6 89.48C422.16 89.9 423 90.32 424.19 90.32C426.57 90.32 428.46 88.5 428.46 86.12C428.46 84.58 427.69 83.39 426.78 82.69C422.51 79.4 417.54 77.16 409.98 77.16C395.14 77.16 384.71 88.57 384.71 102.5V102.64C384.71 116.71 395.35 127.84 409.63 127.84Z" fill="black"/>
<path d="M42.45 122.7C52.74 122.7 59.95 117.24 59.95 108.07V107.93C59.95 99.81 54.63 96.1 44.27 93.58C34.82 91.34 32.58 89.66 32.58 85.88V85.74C32.58 82.52 35.52 79.93 40.56 79.93C44.41 79.93 48.05 81.19 51.83 83.64C52.53 84.06 53.23 84.27 54.07 84.27C56.31 84.27 58.13 82.52 58.13 80.28C58.13 78.6 57.22 77.41 56.24 76.85C51.83 73.91 46.86 72.3 40.7 72.3C30.97 72.3 23.97 78.11 23.97 86.51V86.65C23.97 95.68 29.85 98.76 40.28 101.28C49.38 103.38 51.34 105.27 51.34 108.77V108.91C51.34 112.55 47.98 115.07 42.66 115.07C37.34 115.07 33 113.25 28.94 110.03C28.38 109.61 27.61 109.26 26.42 109.26C24.18 109.26 22.36 111.01 22.36 113.25C22.36 114.65 23.06 115.84 24.04 116.54C29.5 120.6 35.8 122.7 42.45 122.7ZM78.7248 118.08C78.7248 120.46 80.6148 122.35 82.9948 122.35C85.4448 122.35 87.3348 120.46 87.3348 118.08V102.75L104.065 79.86C104.695 79.02 105.255 77.97 105.255 76.78C105.255 74.47 103.575 72.58 101.055 72.58C99.2348 72.58 97.9748 73.63 96.9248 75.17L83.0648 94.91L69.4148 75.24C68.3648 73.7 67.1048 72.65 65.2148 72.65C62.7648 72.65 60.8748 74.47 60.8748 76.78C60.8748 77.97 61.2948 78.95 61.8548 79.79L78.7248 102.96V118.08ZM110.175 118.15C110.175 120.53 111.995 122.35 114.375 122.35C116.755 122.35 118.645 120.53 118.645 118.15V88.82L130.545 106.67C131.455 108.07 132.575 108.91 134.115 108.91C135.725 108.91 136.845 108.07 137.755 106.67L149.725 88.68V118.08C149.725 120.39 151.685 122.35 153.995 122.35C156.445 122.35 158.335 120.46 158.335 118.08V77.06C158.335 74.68 156.445 72.72 153.995 72.72H153.085C151.335 72.72 150.075 73.49 149.165 74.96L134.255 98.27L119.415 75.03C118.575 73.7 117.315 72.72 115.425 72.72H114.515C112.065 72.72 110.175 74.68 110.175 77.06V118.15ZM167.446 118.08C167.446 120.46 169.336 122.35 171.786 122.35C174.166 122.35 176.056 120.46 176.056 118.08V106.25H185.786C196.566 106.25 205.386 100.51 205.386 89.52V89.38C205.386 79.51 198.246 73 186.766 73H171.786C169.336 73 167.446 74.89 167.446 77.34V118.08ZM176.056 98.48V80.84H186.066C192.506 80.84 196.636 83.85 196.636 89.59V89.73C196.636 94.84 192.576 98.48 186.066 98.48H176.056ZM210.704 118.08C210.704 120.46 212.594 122.35 215.044 122.35C217.424 122.35 219.314 120.46 219.314 118.08V101.35H242.694V118.08C242.694 120.46 244.584 122.35 246.964 122.35C249.414 122.35 251.304 120.46 251.304 118.08V76.92C251.304 74.54 249.414 72.65 246.964 72.65C244.584 72.65 242.694 74.54 242.694 76.92V93.37H219.314V76.92C219.314 74.54 217.424 72.65 215.044 72.65C212.594 72.65 210.704 74.54 210.704 76.92V118.08ZM283.768 122.84C298.818 122.84 309.458 111.29 309.458 97.5V97.36C309.458 83.57 298.958 72.16 283.908 72.16C268.858 72.16 258.218 83.71 258.218 97.5V97.64C258.218 111.43 268.718 122.84 283.768 122.84ZM283.908 114.86C274.178 114.86 267.248 107.02 267.248 97.5V97.36C267.248 87.84 274.038 80.07 283.768 80.07C293.498 80.07 300.428 87.98 300.428 97.5V97.64C300.428 107.16 293.638 114.86 283.908 114.86ZM316.361 118.15C316.361 120.46 318.251 122.35 320.631 122.35C322.941 122.35 324.831 120.46 324.831 118.15V87.07L350.031 119.69C351.221 121.23 352.481 122.28 354.511 122.28H354.861C357.241 122.28 359.061 120.39 359.061 118.01V76.85C359.061 74.54 357.171 72.65 354.791 72.65C352.481 72.65 350.591 74.54 350.591 76.85V106.95L326.091 75.24C324.901 73.77 323.711 72.72 321.611 72.72H320.701C318.251 72.72 316.361 74.68 316.361 77.06V118.15ZM368.653 118.08C368.653 120.46 370.543 122.35 372.993 122.35C375.373 122.35 377.263 120.46 377.263 118.08V76.92C377.263 74.54 375.373 72.65 372.993 72.65C370.543 72.65 368.653 74.54 368.653 76.92V118.08ZM409.63 122.84C417.54 122.84 422.79 120.32 427.41 116.26C428.18 115.56 428.81 114.51 428.81 113.18C428.81 111.01 426.92 109.19 424.75 109.19C423.7 109.19 422.79 109.61 422.16 110.17C418.59 113.18 415.09 114.86 409.91 114.86C400.53 114.86 393.74 107.09 393.74 97.5V97.36C393.74 87.77 400.6 80.07 409.91 80.07C414.6 80.07 418.24 81.75 421.6 84.48C422.16 84.9 423 85.32 424.19 85.32C426.57 85.32 428.46 83.5 428.46 81.12C428.46 79.58 427.69 78.39 426.78 77.69C422.51 74.4 417.54 72.16 409.98 72.16C395.14 72.16 384.71 83.57 384.71 97.5V97.64C384.71 111.71 395.35 122.84 409.63 122.84Z" fill="#FF0000"/>
<g filter="url(#filter1_f)">
<path d="M42.45 122.7C52.74 122.7 59.95 117.24 59.95 108.07V107.93C59.95 99.81 54.63 96.1 44.27 93.58C34.82 91.34 32.58 89.66 32.58 85.88V85.74C32.58 82.52 35.52 79.93 40.56 79.93C44.41 79.93 48.05 81.19 51.83 83.64C52.53 84.06 53.23 84.27 54.07 84.27C56.31 84.27 58.13 82.52 58.13 80.28C58.13 78.6 57.22 77.41 56.24 76.85C51.83 73.91 46.86 72.3 40.7 72.3C30.97 72.3 23.97 78.11 23.97 86.51V86.65C23.97 95.68 29.85 98.76 40.28 101.28C49.38 103.38 51.34 105.27 51.34 108.77V108.91C51.34 112.55 47.98 115.07 42.66 115.07C37.34 115.07 33 113.25 28.94 110.03C28.38 109.61 27.61 109.26 26.42 109.26C24.18 109.26 22.36 111.01 22.36 113.25C22.36 114.65 23.06 115.84 24.04 116.54C29.5 120.6 35.8 122.7 42.45 122.7ZM78.7248 118.08C78.7248 120.46 80.6148 122.35 82.9948 122.35C85.4448 122.35 87.3348 120.46 87.3348 118.08V102.75L104.065 79.86C104.695 79.02 105.255 77.97 105.255 76.78C105.255 74.47 103.575 72.58 101.055 72.58C99.2348 72.58 97.9748 73.63 96.9248 75.17L83.0648 94.91L69.4148 75.24C68.3648 73.7 67.1048 72.65 65.2148 72.65C62.7648 72.65 60.8748 74.47 60.8748 76.78C60.8748 77.97 61.2948 78.95 61.8548 79.79L78.7248 102.96V118.08ZM110.175 118.15C110.175 120.53 111.995 122.35 114.375 122.35C116.755 122.35 118.645 120.53 118.645 118.15V88.82L130.545 106.67C131.455 108.07 132.575 108.91 134.115 108.91C135.725 108.91 136.845 108.07 137.755 106.67L149.725 88.68V118.08C149.725 120.39 151.685 122.35 153.995 122.35C156.445 122.35 158.335 120.46 158.335 118.08V77.06C158.335 74.68 156.445 72.72 153.995 72.72H153.085C151.335 72.72 150.075 73.49 149.165 74.96L134.255 98.27L119.415 75.03C118.575 73.7 117.315 72.72 115.425 72.72H114.515C112.065 72.72 110.175 74.68 110.175 77.06V118.15ZM167.446 118.08C167.446 120.46 169.336 122.35 171.786 122.35C174.166 122.35 176.056 120.46 176.056 118.08V106.25H185.786C196.566 106.25 205.386 100.51 205.386 89.52V89.38C205.386 79.51 198.246 73 186.766 73H171.786C169.336 73 167.446 74.89 167.446 77.34V118.08ZM176.056 98.48V80.84H186.066C192.506 80.84 196.636 83.85 196.636 89.59V89.73C196.636 94.84 192.576 98.48 186.066 98.48H176.056ZM210.704 118.08C210.704 120.46 212.594 122.35 215.044 122.35C217.424 122.35 219.314 120.46 219.314 118.08V101.35H242.694V118.08C242.694 120.46 244.584 122.35 246.964 122.35C249.414 122.35 251.304 120.46 251.304 118.08V76.92C251.304 74.54 249.414 72.65 246.964 72.65C244.584 72.65 242.694 74.54 242.694 76.92V93.37H219.314V76.92C219.314 74.54 217.424 72.65 215.044 72.65C212.594 72.65 210.704 74.54 210.704 76.92V118.08ZM283.768 122.84C298.818 122.84 309.458 111.29 309.458 97.5V97.36C309.458 83.57 298.958 72.16 283.908 72.16C268.858 72.16 258.218 83.71 258.218 97.5V97.64C258.218 111.43 268.718 122.84 283.768 122.84ZM283.908 114.86C274.178 114.86 267.248 107.02 267.248 97.5V97.36C267.248 87.84 274.038 80.07 283.768 80.07C293.498 80.07 300.428 87.98 300.428 97.5V97.64C300.428 107.16 293.638 114.86 283.908 114.86ZM316.361 118.15C316.361 120.46 318.251 122.35 320.631 122.35C322.941 122.35 324.831 120.46 324.831 118.15V87.07L350.031 119.69C351.221 121.23 352.481 122.28 354.511 122.28H354.861C357.241 122.28 359.061 120.39 359.061 118.01V76.85C359.061 74.54 357.171 72.65 354.791 72.65C352.481 72.65 350.591 74.54 350.591 76.85V106.95L326.091 75.24C324.901 73.77 323.711 72.72 321.611 72.72H320.701C318.251 72.72 316.361 74.68 316.361 77.06V118.15ZM368.653 118.08C368.653 120.46 370.543 122.35 372.993 122.35C375.373 122.35 377.263 120.46 377.263 118.08V76.92C377.263 74.54 375.373 72.65 372.993 72.65C370.543 72.65 368.653 74.54 368.653 76.92V118.08ZM409.63 122.84C417.54 122.84 422.79 120.32 427.41 116.26C428.18 115.56 428.81 114.51 428.81 113.18C428.81 111.01 426.92 109.19 424.75 109.19C423.7 109.19 422.79 109.61 422.16 110.17C418.59 113.18 415.09 114.86 409.91 114.86C400.53 114.86 393.74 107.09 393.74 97.5V97.36C393.74 87.77 400.6 80.07 409.91 80.07C414.6 80.07 418.24 81.75 421.6 84.48C422.16 84.9 423 85.32 424.19 85.32C426.57 85.32 428.46 83.5 428.46 81.12C428.46 79.58 427.69 78.39 426.78 77.69C422.51 74.4 417.54 72.16 409.98 72.16C395.14 72.16 384.71 83.57 384.71 97.5V97.64C384.71 111.71 395.35 122.84 409.63 122.84Z" fill="#FF0000"/>
</g>
<path d="M20.3 190.66C20.3 193.11 22.19 195 24.64 195H38.57C53.97 195 64.61 184.29 64.61 170.5V170.36C64.61 156.57 53.97 146 38.57 146H24.64C22.19 146 20.3 147.89 20.3 150.34V190.66ZM28.91 187.16V153.84H38.57C48.86 153.84 55.58 160.91 55.58 170.5V170.64C55.58 180.23 48.86 187.16 38.57 187.16H28.91ZM76.9459 173.93C77.7159 168.19 81.3559 164.2 86.5359 164.2C92.1359 164.2 95.3559 168.47 95.9159 173.93H76.9459ZM100.816 190.94C101.446 190.31 101.936 189.4 101.936 188.35C101.936 186.39 100.466 184.92 98.5759 184.92C97.5959 184.92 97.0359 185.2 96.4059 185.69C94.0259 187.65 91.2259 188.91 87.6559 188.91C82.1959 188.91 77.9259 185.55 77.0159 179.53H100.186C102.356 179.53 104.176 177.85 104.176 175.47C104.176 166.93 98.3659 157.27 86.6059 157.27C76.0359 157.27 68.5459 165.95 68.5459 176.52V176.66C68.5459 188.07 76.8059 195.84 87.5159 195.84C93.2559 195.84 97.4559 193.95 100.816 190.94ZM126.402 195.84C132.562 195.84 136.552 193.74 139.842 190.59C140.612 189.96 141.032 189.05 141.032 187.93C141.032 185.9 139.422 184.22 137.392 184.22C136.412 184.22 135.572 184.71 135.082 185.13C132.772 187.09 130.182 188.42 126.822 188.42C120.312 188.42 115.762 183.17 115.762 176.59V176.45C115.762 170.01 120.312 164.69 126.472 164.69C129.832 164.69 132.212 166.02 134.382 167.84C134.942 168.26 135.852 168.68 136.902 168.68C139.072 168.68 140.822 167 140.822 164.83C140.822 163.43 140.052 162.38 139.492 161.89C136.342 159.16 132.352 157.27 126.542 157.27C115.412 157.27 107.292 166.09 107.292 176.59V176.73C107.292 187.23 115.412 195.84 126.402 195.84ZM151.157 173.93C151.927 168.19 155.567 164.2 160.747 164.2C166.347 164.2 169.567 168.47 170.127 173.93H151.157ZM175.027 190.94C175.657 190.31 176.147 189.4 176.147 188.35C176.147 186.39 174.677 184.92 172.787 184.92C171.807 184.92 171.247 185.2 170.617 185.69C168.237 187.65 165.437 188.91 161.867 188.91C156.407 188.91 152.137 185.55 151.227 179.53H174.397C176.567 179.53 178.387 177.85 178.387 175.47C178.387 166.93 172.577 157.27 160.817 157.27C150.247 157.27 142.757 165.95 142.757 176.52V176.66C142.757 188.07 151.017 195.84 161.727 195.84C167.467 195.84 171.667 193.95 175.027 190.94ZM183.533 191.15C183.533 193.53 185.423 195.35 187.733 195.35C190.113 195.35 192.003 193.53 192.003 191.15V174.14C192.003 168.4 195.433 164.97 200.333 164.97C205.373 164.97 208.243 168.26 208.243 174V191.15C208.243 193.53 210.133 195.35 212.513 195.35C214.893 195.35 216.713 193.53 216.713 191.15V171.41C216.713 162.87 211.883 157.27 203.553 157.27C197.813 157.27 194.383 160.28 192.003 163.71V161.89C192.003 159.51 190.113 157.62 187.733 157.62C185.353 157.62 183.533 159.51 183.533 161.89V191.15ZM235.831 195.63C238.071 195.63 239.821 195.28 241.641 194.65C242.831 194.16 243.881 192.9 243.881 191.36C243.881 189.4 242.201 187.86 240.311 187.86C240.031 187.86 239.191 188.07 238.211 188.07C235.341 188.07 233.661 186.74 233.661 183.45V165.32H240.311C242.341 165.32 244.021 163.71 244.021 161.68C244.021 159.65 242.341 158.04 240.311 158.04H233.661V151.74C233.661 149.43 231.771 147.54 229.461 147.54C227.081 147.54 225.191 149.43 225.191 151.74V158.04H223.791C221.761 158.04 220.151 159.65 220.151 161.68C220.151 163.71 221.761 165.32 223.791 165.32H225.191V184.78C225.191 192.9 229.601 195.63 235.831 195.63ZM248.72 191.15C248.72 193.53 250.61 195.35 252.92 195.35C255.3 195.35 257.19 193.46 257.19 191.15V180.23C257.19 171.48 261.32 166.86 267.34 165.81C269.23 165.46 270.7 163.99 270.7 161.75C270.7 159.3 269.16 157.55 266.5 157.55C262.79 157.55 259.15 161.05 257.19 165.67V161.89C257.19 159.51 255.3 157.62 252.92 157.62C250.54 157.62 248.72 159.51 248.72 161.89V191.15ZM282.999 195.77C288.669 195.77 292.519 193.39 295.039 190.38V191.78C295.039 193.67 296.719 195.35 299.169 195.35C301.479 195.35 303.299 193.6 303.299 191.29V173.09C303.299 168.26 302.039 164.34 299.309 161.68C296.719 159.02 292.589 157.55 287.059 157.55C282.229 157.55 278.659 158.39 275.159 159.72C273.899 160.21 272.849 161.54 272.849 163.08C272.849 165.04 274.459 166.58 276.419 166.58C276.839 166.58 277.259 166.51 277.749 166.37C280.059 165.46 282.719 164.9 285.939 164.9C291.889 164.9 295.109 167.7 295.109 172.95V173.86C292.239 172.95 289.299 172.32 285.169 172.32C276.139 172.32 269.909 176.24 269.909 184.22V184.36C269.909 191.78 276.069 195.77 282.999 195.77ZM285.379 189.61C281.319 189.61 278.169 187.58 278.169 184.01V183.87C278.169 180.02 281.389 177.71 286.849 177.71C290.209 177.71 293.079 178.34 295.249 179.18V181.7C295.249 186.39 290.979 189.61 285.379 189.61ZM310.433 191.15C310.433 193.53 312.323 195.35 314.633 195.35C317.013 195.35 318.903 193.53 318.903 191.15V147.75C318.903 145.44 317.013 143.55 314.633 143.55C312.253 143.55 310.433 145.44 310.433 147.75V191.15ZM326.332 148.52C326.332 151.04 328.432 152.72 331.162 152.72C333.892 152.72 335.992 151.04 335.992 148.52V148.1C335.992 145.58 333.892 143.97 331.162 143.97C328.432 143.97 326.332 145.58 326.332 148.1V148.52ZM326.962 191.15C326.962 193.53 328.852 195.35 331.162 195.35C333.542 195.35 335.432 193.53 335.432 191.15V161.89C335.432 159.51 333.542 157.62 331.162 157.62C328.782 157.62 326.962 159.51 326.962 161.89V191.15ZM345.242 195H370.302C372.262 195 373.802 193.46 373.802 191.57C373.802 189.61 372.262 188.07 370.302 188.07H352.102L371.842 165.67C373.102 164.27 373.662 163.22 373.662 161.61V161.4C373.662 159.44 371.912 158.04 369.602 158.04H345.242C343.282 158.04 341.742 159.58 341.742 161.54C341.742 163.43 343.282 164.97 345.242 164.97H362.672L343.002 187.37C341.672 188.77 341.112 189.82 341.112 191.43V191.57C341.112 193.53 342.862 195 345.242 195ZM384.016 173.93C384.786 168.19 388.426 164.2 393.606 164.2C399.206 164.2 402.426 168.47 402.986 173.93H384.016ZM407.886 190.94C408.516 190.31 409.006 189.4 409.006 188.35C409.006 186.39 407.536 184.92 405.646 184.92C404.666 184.92 404.106 185.2 403.476 185.69C401.096 187.65 398.296 188.91 394.726 188.91C389.266 188.91 384.996 185.55 384.086 179.53H407.256C409.426 179.53 411.246 177.85 411.246 175.47C411.246 166.93 405.436 157.27 393.676 157.27C383.106 157.27 375.616 165.95 375.616 176.52V176.66C375.616 188.07 383.876 195.84 394.586 195.84C400.326 195.84 404.526 193.95 407.886 190.94ZM452.722 147.75C452.722 145.37 450.832 143.55 448.452 143.55C446.142 143.55 444.252 145.37 444.252 147.75V163.78C441.592 160.28 437.742 157.27 431.652 157.27C422.832 157.27 414.502 164.2 414.502 176.45V176.59C414.502 188.84 422.972 195.77 431.652 195.77C437.672 195.77 441.522 192.69 444.252 188.84V191.15C444.252 193.53 446.142 195.35 448.522 195.35C450.832 195.35 452.722 193.53 452.722 191.15V147.75ZM433.682 164.62C439.352 164.62 444.392 169.31 444.392 176.45V176.59C444.392 183.66 439.352 188.42 433.682 188.42C427.942 188.42 423.042 183.73 423.042 176.59V176.45C423.042 169.1 427.872 164.62 433.682 164.62Z" fill="black"/>
<path d="M20.3 185.66C20.3 188.11 22.19 190 24.64 190H38.57C53.97 190 64.61 179.29 64.61 165.5V165.36C64.61 151.57 53.97 141 38.57 141H24.64C22.19 141 20.3 142.89 20.3 145.34V185.66ZM28.91 182.16V148.84H38.57C48.86 148.84 55.58 155.91 55.58 165.5V165.64C55.58 175.23 48.86 182.16 38.57 182.16H28.91ZM76.9459 168.93C77.7159 163.19 81.3559 159.2 86.5359 159.2C92.1359 159.2 95.3559 163.47 95.9159 168.93H76.9459ZM100.816 185.94C101.446 185.31 101.936 184.4 101.936 183.35C101.936 181.39 100.466 179.92 98.5759 179.92C97.5959 179.92 97.0359 180.2 96.4059 180.69C94.0259 182.65 91.2259 183.91 87.6559 183.91C82.1959 183.91 77.9259 180.55 77.0159 174.53H100.186C102.356 174.53 104.176 172.85 104.176 170.47C104.176 161.93 98.3659 152.27 86.6059 152.27C76.0359 152.27 68.5459 160.95 68.5459 171.52V171.66C68.5459 183.07 76.8059 190.84 87.5159 190.84C93.2559 190.84 97.4559 188.95 100.816 185.94ZM126.402 190.84C132.562 190.84 136.552 188.74 139.842 185.59C140.612 184.96 141.032 184.05 141.032 182.93C141.032 180.9 139.422 179.22 137.392 179.22C136.412 179.22 135.572 179.71 135.082 180.13C132.772 182.09 130.182 183.42 126.822 183.42C120.312 183.42 115.762 178.17 115.762 171.59V171.45C115.762 165.01 120.312 159.69 126.472 159.69C129.832 159.69 132.212 161.02 134.382 162.84C134.942 163.26 135.852 163.68 136.902 163.68C139.072 163.68 140.822 162 140.822 159.83C140.822 158.43 140.052 157.38 139.492 156.89C136.342 154.16 132.352 152.27 126.542 152.27C115.412 152.27 107.292 161.09 107.292 171.59V171.73C107.292 182.23 115.412 190.84 126.402 190.84ZM151.157 168.93C151.927 163.19 155.567 159.2 160.747 159.2C166.347 159.2 169.567 163.47 170.127 168.93H151.157ZM175.027 185.94C175.657 185.31 176.147 184.4 176.147 183.35C176.147 181.39 174.677 179.92 172.787 179.92C171.807 179.92 171.247 180.2 170.617 180.69C168.237 182.65 165.437 183.91 161.867 183.91C156.407 183.91 152.137 180.55 151.227 174.53H174.397C176.567 174.53 178.387 172.85 178.387 170.47C178.387 161.93 172.577 152.27 160.817 152.27C150.247 152.27 142.757 160.95 142.757 171.52V171.66C142.757 183.07 151.017 190.84 161.727 190.84C167.467 190.84 171.667 188.95 175.027 185.94ZM183.533 186.15C183.533 188.53 185.423 190.35 187.733 190.35C190.113 190.35 192.003 188.53 192.003 186.15V169.14C192.003 163.4 195.433 159.97 200.333 159.97C205.373 159.97 208.243 163.26 208.243 169V186.15C208.243 188.53 210.133 190.35 212.513 190.35C214.893 190.35 216.713 188.53 216.713 186.15V166.41C216.713 157.87 211.883 152.27 203.553 152.27C197.813 152.27 194.383 155.28 192.003 158.71V156.89C192.003 154.51 190.113 152.62 187.733 152.62C185.353 152.62 183.533 154.51 183.533 156.89V186.15ZM235.831 190.63C238.071 190.63 239.821 190.28 241.641 189.65C242.831 189.16 243.881 187.9 243.881 186.36C243.881 184.4 242.201 182.86 240.311 182.86C240.031 182.86 239.191 183.07 238.211 183.07C235.341 183.07 233.661 181.74 233.661 178.45V160.32H240.311C242.341 160.32 244.021 158.71 244.021 156.68C244.021 154.65 242.341 153.04 240.311 153.04H233.661V146.74C233.661 144.43 231.771 142.54 229.461 142.54C227.081 142.54 225.191 144.43 225.191 146.74V153.04H223.791C221.761 153.04 220.151 154.65 220.151 156.68C220.151 158.71 221.761 160.32 223.791 160.32H225.191V179.78C225.191 187.9 229.601 190.63 235.831 190.63ZM248.72 186.15C248.72 188.53 250.61 190.35 252.92 190.35C255.3 190.35 257.19 188.46 257.19 186.15V175.23C257.19 166.48 261.32 161.86 267.34 160.81C269.23 160.46 270.7 158.99 270.7 156.75C270.7 154.3 269.16 152.55 266.5 152.55C262.79 152.55 259.15 156.05 257.19 160.67V156.89C257.19 154.51 255.3 152.62 252.92 152.62C250.54 152.62 248.72 154.51 248.72 156.89V186.15ZM282.999 190.77C288.669 190.77 292.519 188.39 295.039 185.38V186.78C295.039 188.67 296.719 190.35 299.169 190.35C301.479 190.35 303.299 188.6 303.299 186.29V168.09C303.299 163.26 302.039 159.34 299.309 156.68C296.719 154.02 292.589 152.55 287.059 152.55C282.229 152.55 278.659 153.39 275.159 154.72C273.899 155.21 272.849 156.54 272.849 158.08C272.849 160.04 274.459 161.58 276.419 161.58C276.839 161.58 277.259 161.51 277.749 161.37C280.059 160.46 282.719 159.9 285.939 159.9C291.889 159.9 295.109 162.7 295.109 167.95V168.86C292.239 167.95 289.299 167.32 285.169 167.32C276.139 167.32 269.909 171.24 269.909 179.22V179.36C269.909 186.78 276.069 190.77 282.999 190.77ZM285.379 184.61C281.319 184.61 278.169 182.58 278.169 179.01V178.87C278.169 175.02 281.389 172.71 286.849 172.71C290.209 172.71 293.079 173.34 295.249 174.18V176.7C295.249 181.39 290.979 184.61 285.379 184.61ZM310.433 186.15C310.433 188.53 312.323 190.35 314.633 190.35C317.013 190.35 318.903 188.53 318.903 186.15V142.75C318.903 140.44 317.013 138.55 314.633 138.55C312.253 138.55 310.433 140.44 310.433 142.75V186.15ZM326.332 143.52C326.332 146.04 328.432 147.72 331.162 147.72C333.892 147.72 335.992 146.04 335.992 143.52V143.1C335.992 140.58 333.892 138.97 331.162 138.97C328.432 138.97 326.332 140.58 326.332 143.1V143.52ZM326.962 186.15C326.962 188.53 328.852 190.35 331.162 190.35C333.542 190.35 335.432 188.53 335.432 186.15V156.89C335.432 154.51 333.542 152.62 331.162 152.62C328.782 152.62 326.962 154.51 326.962 156.89V186.15ZM345.242 190H370.302C372.262 190 373.802 188.46 373.802 186.57C373.802 184.61 372.262 183.07 370.302 183.07H352.102L371.842 160.67C373.102 159.27 373.662 158.22 373.662 156.61V156.4C373.662 154.44 371.912 153.04 369.602 153.04H345.242C343.282 153.04 341.742 154.58 341.742 156.54C341.742 158.43 343.282 159.97 345.242 159.97H362.672L343.002 182.37C341.672 183.77 341.112 184.82 341.112 186.43V186.57C341.112 188.53 342.862 190 345.242 190ZM384.016 168.93C384.786 163.19 388.426 159.2 393.606 159.2C399.206 159.2 402.426 163.47 402.986 168.93H384.016ZM407.886 185.94C408.516 185.31 409.006 184.4 409.006 183.35C409.006 181.39 407.536 179.92 405.646 179.92C404.666 179.92 404.106 180.2 403.476 180.69C401.096 182.65 398.296 183.91 394.726 183.91C389.266 183.91 384.996 180.55 384.086 174.53H407.256C409.426 174.53 411.246 172.85 411.246 170.47C411.246 161.93 405.436 152.27 393.676 152.27C383.106 152.27 375.616 160.95 375.616 171.52V171.66C375.616 183.07 383.876 190.84 394.586 190.84C400.326 190.84 404.526 188.95 407.886 185.94ZM452.722 142.75C452.722 140.37 450.832 138.55 448.452 138.55C446.142 138.55 444.252 140.37 444.252 142.75V158.78C441.592 155.28 437.742 152.27 431.652 152.27C422.832 152.27 414.502 159.2 414.502 171.45V171.59C414.502 183.84 422.972 190.77 431.652 190.77C437.672 190.77 441.522 187.69 444.252 183.84V186.15C444.252 188.53 446.142 190.35 448.522 190.35C450.832 190.35 452.722 188.53 452.722 186.15V142.75ZM433.682 159.62C439.352 159.62 444.392 164.31 444.392 171.45V171.59C444.392 178.66 439.352 183.42 433.682 183.42C427.942 183.42 423.042 178.73 423.042 171.59V171.45C423.042 164.1 427.872 159.62 433.682 159.62Z" fill="#00E59D"/>
<g filter="url(#filter2_f)">
<path d="M20.3 185.66C20.3 188.11 22.19 190 24.64 190H38.57C53.97 190 64.61 179.29 64.61 165.5V165.36C64.61 151.57 53.97 141 38.57 141H24.64C22.19 141 20.3 142.89 20.3 145.34V185.66ZM28.91 182.16V148.84H38.57C48.86 148.84 55.58 155.91 55.58 165.5V165.64C55.58 175.23 48.86 182.16 38.57 182.16H28.91ZM76.9459 168.93C77.7159 163.19 81.3559 159.2 86.5359 159.2C92.1359 159.2 95.3559 163.47 95.9159 168.93H76.9459ZM100.816 185.94C101.446 185.31 101.936 184.4 101.936 183.35C101.936 181.39 100.466 179.92 98.5759 179.92C97.5959 179.92 97.0359 180.2 96.4059 180.69C94.0259 182.65 91.2259 183.91 87.6559 183.91C82.1959 183.91 77.9259 180.55 77.0159 174.53H100.186C102.356 174.53 104.176 172.85 104.176 170.47C104.176 161.93 98.3659 152.27 86.6059 152.27C76.0359 152.27 68.5459 160.95 68.5459 171.52V171.66C68.5459 183.07 76.8059 190.84 87.5159 190.84C93.2559 190.84 97.4559 188.95 100.816 185.94ZM126.402 190.84C132.562 190.84 136.552 188.74 139.842 185.59C140.612 184.96 141.032 184.05 141.032 182.93C141.032 180.9 139.422 179.22 137.392 179.22C136.412 179.22 135.572 179.71 135.082 180.13C132.772 182.09 130.182 183.42 126.822 183.42C120.312 183.42 115.762 178.17 115.762 171.59V171.45C115.762 165.01 120.312 159.69 126.472 159.69C129.832 159.69 132.212 161.02 134.382 162.84C134.942 163.26 135.852 163.68 136.902 163.68C139.072 163.68 140.822 162 140.822 159.83C140.822 158.43 140.052 157.38 139.492 156.89C136.342 154.16 132.352 152.27 126.542 152.27C115.412 152.27 107.292 161.09 107.292 171.59V171.73C107.292 182.23 115.412 190.84 126.402 190.84ZM151.157 168.93C151.927 163.19 155.567 159.2 160.747 159.2C166.347 159.2 169.567 163.47 170.127 168.93H151.157ZM175.027 185.94C175.657 185.31 176.147 184.4 176.147 183.35C176.147 181.39 174.677 179.92 172.787 179.92C171.807 179.92 171.247 180.2 170.617 180.69C168.237 182.65 165.437 183.91 161.867 183.91C156.407 183.91 152.137 180.55 151.227 174.53H174.397C176.567 174.53 178.387 172.85 178.387 170.47C178.387 161.93 172.577 152.27 160.817 152.27C150.247 152.27 142.757 160.95 142.757 171.52V171.66C142.757 183.07 151.017 190.84 161.727 190.84C167.467 190.84 171.667 188.95 175.027 185.94ZM183.533 186.15C183.533 188.53 185.423 190.35 187.733 190.35C190.113 190.35 192.003 188.53 192.003 186.15V169.14C192.003 163.4 195.433 159.97 200.333 159.97C205.373 159.97 208.243 163.26 208.243 169V186.15C208.243 188.53 210.133 190.35 212.513 190.35C214.893 190.35 216.713 188.53 216.713 186.15V166.41C216.713 157.87 211.883 152.27 203.553 152.27C197.813 152.27 194.383 155.28 192.003 158.71V156.89C192.003 154.51 190.113 152.62 187.733 152.62C185.353 152.62 183.533 154.51 183.533 156.89V186.15ZM235.831 190.63C238.071 190.63 239.821 190.28 241.641 189.65C242.831 189.16 243.881 187.9 243.881 186.36C243.881 184.4 242.201 182.86 240.311 182.86C240.031 182.86 239.191 183.07 238.211 183.07C235.341 183.07 233.661 181.74 233.661 178.45V160.32H240.311C242.341 160.32 244.021 158.71 244.021 156.68C244.021 154.65 242.341 153.04 240.311 153.04H233.661V146.74C233.661 144.43 231.771 142.54 229.461 142.54C227.081 142.54 225.191 144.43 225.191 146.74V153.04H223.791C221.761 153.04 220.151 154.65 220.151 156.68C220.151 158.71 221.761 160.32 223.791 160.32H225.191V179.78C225.191 187.9 229.601 190.63 235.831 190.63ZM248.72 186.15C248.72 188.53 250.61 190.35 252.92 190.35C255.3 190.35 257.19 188.46 257.19 186.15V175.23C257.19 166.48 261.32 161.86 267.34 160.81C269.23 160.46 270.7 158.99 270.7 156.75C270.7 154.3 269.16 152.55 266.5 152.55C262.79 152.55 259.15 156.05 257.19 160.67V156.89C257.19 154.51 255.3 152.62 252.92 152.62C250.54 152.62 248.72 154.51 248.72 156.89V186.15ZM282.999 190.77C288.669 190.77 292.519 188.39 295.039 185.38V186.78C295.039 188.67 296.719 190.35 299.169 190.35C301.479 190.35 303.299 188.6 303.299 186.29V168.09C303.299 163.26 302.039 159.34 299.309 156.68C296.719 154.02 292.589 152.55 287.059 152.55C282.229 152.55 278.659 153.39 275.159 154.72C273.899 155.21 272.849 156.54 272.849 158.08C272.849 160.04 274.459 161.58 276.419 161.58C276.839 161.58 277.259 161.51 277.749 161.37C280.059 160.46 282.719 159.9 285.939 159.9C291.889 159.9 295.109 162.7 295.109 167.95V168.86C292.239 167.95 289.299 167.32 285.169 167.32C276.139 167.32 269.909 171.24 269.909 179.22V179.36C269.909 186.78 276.069 190.77 282.999 190.77ZM285.379 184.61C281.319 184.61 278.169 182.58 278.169 179.01V178.87C278.169 175.02 281.389 172.71 286.849 172.71C290.209 172.71 293.079 173.34 295.249 174.18V176.7C295.249 181.39 290.979 184.61 285.379 184.61ZM310.433 186.15C310.433 188.53 312.323 190.35 314.633 190.35C317.013 190.35 318.903 188.53 318.903 186.15V142.75C318.903 140.44 317.013 138.55 314.633 138.55C312.253 138.55 310.433 140.44 310.433 142.75V186.15ZM326.332 143.52C326.332 146.04 328.432 147.72 331.162 147.72C333.892 147.72 335.992 146.04 335.992 143.52V143.1C335.992 140.58 333.892 138.97 331.162 138.97C328.432 138.97 326.332 140.58 326.332 143.1V143.52ZM326.962 186.15C326.962 188.53 328.852 190.35 331.162 190.35C333.542 190.35 335.432 188.53 335.432 186.15V156.89C335.432 154.51 333.542 152.62 331.162 152.62C328.782 152.62 326.962 154.51 326.962 156.89V186.15ZM345.242 190H370.302C372.262 190 373.802 188.46 373.802 186.57C373.802 184.61 372.262 183.07 370.302 183.07H352.102L371.842 160.67C373.102 159.27 373.662 158.22 373.662 156.61V156.4C373.662 154.44 371.912 153.04 369.602 153.04H345.242C343.282 153.04 341.742 154.58 341.742 156.54C341.742 158.43 343.282 159.97 345.242 159.97H362.672L343.002 182.37C341.672 183.77 341.112 184.82 341.112 186.43V186.57C341.112 188.53 342.862 190 345.242 190ZM384.016 168.93C384.786 163.19 388.426 159.2 393.606 159.2C399.206 159.2 402.426 163.47 402.986 168.93H384.016ZM407.886 185.94C408.516 185.31 409.006 184.4 409.006 183.35C409.006 181.39 407.536 179.92 405.646 179.92C404.666 179.92 404.106 180.2 403.476 180.69C401.096 182.65 398.296 183.91 394.726 183.91C389.266 183.91 384.996 180.55 384.086 174.53H407.256C409.426 174.53 411.246 172.85 411.246 170.47C411.246 161.93 405.436 152.27 393.676 152.27C383.106 152.27 375.616 160.95 375.616 171.52V171.66C375.616 183.07 383.876 190.84 394.586 190.84C400.326 190.84 404.526 188.95 407.886 185.94ZM452.722 142.75C452.722 140.37 450.832 138.55 448.452 138.55C446.142 138.55 444.252 140.37 444.252 142.75V158.78C441.592 155.28 437.742 152.27 431.652 152.27C422.832 152.27 414.502 159.2 414.502 171.45V171.59C414.502 183.84 422.972 190.77 431.652 190.77C437.672 190.77 441.522 187.69 444.252 183.84V186.15C444.252 188.53 446.142 190.35 448.522 190.35C450.832 190.35 452.722 188.53 452.722 186.15V142.75ZM433.682 159.62C439.352 159.62 444.392 164.31 444.392 171.45V171.59C444.392 178.66 439.352 183.42 433.682 183.42C427.942 183.42 423.042 178.73 423.042 171.59V171.45C423.042 164.1 427.872 159.62 433.682 159.62Z" fill="#00E59D"/>
</g>
<path d="M21.492 241.984C21.492 243.208 22.464 244.18 23.724 244.18C24.948 244.18 25.92 243.208 25.92 241.984V220.816C25.92 219.592 24.948 218.62 23.724 218.62C22.464 218.62 21.492 219.592 21.492 220.816V241.984ZM30.3618 242.02C30.3618 243.244 31.3338 244.18 32.5218 244.18C33.7458 244.18 34.7178 243.244 34.7178 242.02V233.272C34.7178 230.32 36.4818 228.556 39.0018 228.556C41.5938 228.556 43.0698 230.248 43.0698 233.2V242.02C43.0698 243.244 44.0418 244.18 45.2658 244.18C46.4898 244.18 47.4258 243.244 47.4258 242.02V231.868C47.4258 227.476 44.9418 224.596 40.6578 224.596C37.7058 224.596 35.9418 226.144 34.7178 227.908V226.972C34.7178 225.748 33.7458 224.776 32.5218 224.776C31.2978 224.776 30.3618 225.748 30.3618 226.972V242.02ZM60.833 242.452L67.169 227.908C67.277 227.692 67.421 227.26 67.421 226.864C67.421 225.676 66.485 224.776 65.297 224.776C64.145 224.776 63.569 225.532 63.245 226.288L58.277 238.96L53.381 226.36C53.021 225.46 52.409 224.776 51.221 224.776C50.033 224.776 49.061 225.784 49.061 226.864C49.061 227.26 49.205 227.62 49.313 227.944L55.649 242.452C56.153 243.604 56.945 244.36 58.133 244.36H58.349C59.537 244.36 60.329 243.568 60.833 242.452ZM72.2956 233.164C72.6916 230.212 74.5636 228.16 77.2276 228.16C80.1076 228.16 81.7636 230.356 82.0516 233.164H72.2956ZM84.5716 241.912C84.8956 241.588 85.1476 241.12 85.1476 240.58C85.1476 239.572 84.3916 238.816 83.4196 238.816C82.9156 238.816 82.6276 238.96 82.3036 239.212C81.0796 240.22 79.6396 240.868 77.8036 240.868C74.9956 240.868 72.7996 239.14 72.3316 236.044H84.2476C85.3636 236.044 86.2996 235.18 86.2996 233.956C86.2996 229.564 83.3116 224.596 77.2636 224.596C71.8276 224.596 67.9756 229.06 67.9756 234.496V234.568C67.9756 240.436 72.2236 244.432 77.7316 244.432C80.6836 244.432 82.8436 243.46 84.5716 241.912ZM95.4622 244.36C99.4222 244.36 102.518 242.38 102.518 238.384V238.312C102.518 234.892 99.3862 233.632 96.6142 232.768C94.3822 232.048 92.3302 231.472 92.3302 230.068V229.996C92.3302 228.916 93.3022 228.124 94.9942 228.124C96.3262 228.124 97.9102 228.628 99.4582 229.42C99.7462 229.564 99.9622 229.636 100.322 229.636C101.33 229.636 102.122 228.88 102.122 227.872C102.122 227.116 101.69 226.54 101.078 226.216C99.2422 225.244 97.1182 224.668 95.1022 224.668C91.3222 224.668 88.3342 226.864 88.3342 230.464V230.536C88.3342 234.172 91.4662 235.324 94.2742 236.116C96.5062 236.8 98.5222 237.304 98.5222 238.78V238.852C98.5222 240.112 97.4422 240.904 95.5702 240.904C93.8422 240.904 91.9342 240.292 90.0982 239.068C89.8462 238.924 89.5222 238.816 89.1622 238.816C88.1542 238.816 87.3982 239.608 87.3982 240.58C87.3982 241.3 87.7582 241.84 88.2262 242.092C90.4222 243.604 93.0502 244.36 95.4622 244.36ZM111.202 244.324C112.354 244.324 113.254 244.144 114.19 243.82C114.802 243.568 115.342 242.92 115.342 242.128C115.342 241.12 114.478 240.328 113.506 240.328C113.362 240.328 112.93 240.436 112.426 240.436C110.95 240.436 110.086 239.752 110.086 238.06V228.736H113.506C114.55 228.736 115.414 227.908 115.414 226.864C115.414 225.82 114.55 224.992 113.506 224.992H110.086V221.752C110.086 220.564 109.114 219.592 107.926 219.592C106.702 219.592 105.73 220.564 105.73 221.752V224.992H105.01C103.966 224.992 103.138 225.82 103.138 226.864C103.138 227.908 103.966 228.736 105.01 228.736H105.73V238.744C105.73 242.92 107.998 244.324 111.202 244.324ZM117.831 242.02C117.831 243.244 118.803 244.18 119.991 244.18C121.215 244.18 122.187 243.244 122.187 242.02V233.272C122.187 230.356 123.843 228.556 126.255 228.556C128.667 228.556 130.107 230.212 130.107 233.164V242.02C130.107 243.244 131.079 244.18 132.303 244.18C133.491 244.18 134.463 243.244 134.463 242.02V233.272C134.463 230.212 136.155 228.556 138.531 228.556C140.979 228.556 142.383 230.176 142.383 233.2V242.02C142.383 243.244 143.355 244.18 144.579 244.18C145.803 244.18 146.739 243.244 146.739 242.02V231.868C146.739 227.224 144.219 224.596 140.079 224.596C137.199 224.596 135.183 225.928 133.671 227.944C132.663 225.928 130.719 224.596 127.983 224.596C125.067 224.596 123.411 226.18 122.187 227.872V226.972C122.187 225.748 121.215 224.776 119.991 224.776C118.767 224.776 117.831 225.748 117.831 226.972V242.02ZM153.514 233.164C153.91 230.212 155.782 228.16 158.446 228.16C161.326 228.16 162.982 230.356 163.27 233.164H153.514ZM165.79 241.912C166.114 241.588 166.366 241.12 166.366 240.58C166.366 239.572 165.61 238.816 164.638 238.816C164.134 238.816 163.846 238.96 163.522 239.212C162.298 240.22 160.858 240.868 159.022 240.868C156.214 240.868 154.018 239.14 153.55 236.044H165.466C166.582 236.044 167.518 235.18 167.518 233.956C167.518 229.564 164.53 224.596 158.482 224.596C153.046 224.596 149.194 229.06 149.194 234.496V234.568C149.194 240.436 153.442 244.432 158.95 244.432C161.902 244.432 164.062 243.46 165.79 241.912ZM170.164 242.02C170.164 243.244 171.136 244.18 172.324 244.18C173.548 244.18 174.52 243.244 174.52 242.02V233.272C174.52 230.32 176.284 228.556 178.804 228.556C181.396 228.556 182.872 230.248 182.872 233.2V242.02C182.872 243.244 183.844 244.18 185.068 244.18C186.292 244.18 187.228 243.244 187.228 242.02V231.868C187.228 227.476 184.744 224.596 180.46 224.596C177.508 224.596 175.744 226.144 174.52 227.908V226.972C174.52 225.748 173.548 224.776 172.324 224.776C171.1 224.776 170.164 225.748 170.164 226.972V242.02ZM197.06 244.324C198.212 244.324 199.112 244.144 200.048 243.82C200.66 243.568 201.2 242.92 201.2 242.128C201.2 241.12 200.336 240.328 199.364 240.328C199.22 240.328 198.788 240.436 198.284 240.436C196.808 240.436 195.944 239.752 195.944 238.06V228.736H199.364C200.408 228.736 201.272 227.908 201.272 226.864C201.272 225.82 200.408 224.992 199.364 224.992H195.944V221.752C195.944 220.564 194.972 219.592 193.784 219.592C192.56 219.592 191.588 220.564 191.588 221.752V224.992H190.868C189.824 224.992 188.996 225.82 188.996 226.864C188.996 227.908 189.824 228.736 190.868 228.736H191.588V238.744C191.588 242.92 193.856 244.324 197.06 244.324ZM213.186 241.984C213.186 243.208 214.158 244.18 215.418 244.18C216.642 244.18 217.614 243.208 217.614 241.984V235.9H222.618C228.162 235.9 232.698 232.948 232.698 227.296V227.224C232.698 222.148 229.026 218.8 223.122 218.8H215.418C214.158 218.8 213.186 219.772 213.186 221.032V241.984ZM217.614 231.904V222.832H222.762C226.074 222.832 228.198 224.38 228.198 227.332V227.404C228.198 230.032 226.11 231.904 222.762 231.904H217.614ZM235.181 242.02C235.181 243.244 236.153 244.18 237.341 244.18C238.565 244.18 239.537 243.244 239.537 242.02V219.7C239.537 218.512 238.565 217.54 237.341 217.54C236.117 217.54 235.181 218.512 235.181 219.7V242.02ZM248.902 244.396C251.818 244.396 253.798 243.172 255.094 241.624V242.344C255.094 243.316 255.958 244.18 257.218 244.18C258.406 244.18 259.342 243.28 259.342 242.092V232.732C259.342 230.248 258.694 228.232 257.29 226.864C255.958 225.496 253.834 224.74 250.99 224.74C248.506 224.74 246.67 225.172 244.87 225.856C244.222 226.108 243.682 226.792 243.682 227.584C243.682 228.592 244.51 229.384 245.518 229.384C245.734 229.384 245.95 229.348 246.202 229.276C247.39 228.808 248.758 228.52 250.414 228.52C253.474 228.52 255.13 229.96 255.13 232.66V233.128C253.654 232.66 252.142 232.336 250.018 232.336C245.374 232.336 242.17 234.352 242.17 238.456V238.528C242.17 242.344 245.338 244.396 248.902 244.396ZM250.126 241.228C248.038 241.228 246.418 240.184 246.418 238.348V238.276C246.418 236.296 248.074 235.108 250.882 235.108C252.61 235.108 254.086 235.432 255.202 235.864V237.16C255.202 239.572 253.006 241.228 250.126 241.228ZM268.955 244.324C270.107 244.324 271.007 244.144 271.943 243.82C272.555 243.568 273.095 242.92 273.095 242.128C273.095 241.12 272.231 240.328 271.259 240.328C271.115 240.328 270.683 240.436 270.179 240.436C268.703 240.436 267.839 239.752 267.839 238.06V228.736H271.259C272.303 228.736 273.167 227.908 273.167 226.864C273.167 225.82 272.303 224.992 271.259 224.992H267.839V221.752C267.839 220.564 266.867 219.592 265.679 219.592C264.455 219.592 263.483 220.564 263.483 221.752V224.992H262.763C261.719 224.992 260.891 225.82 260.891 226.864C260.891 227.908 261.719 228.736 262.763 228.736H263.483V238.744C263.483 242.92 265.751 244.324 268.955 244.324ZM276.556 242.02C276.556 243.208 277.528 244.18 278.716 244.18C279.94 244.18 280.912 243.208 280.912 242.02V228.736H284.224C285.232 228.736 286.06 227.944 286.06 226.936C286.06 225.928 285.268 225.136 284.224 225.136H280.84V224.092C280.84 222.112 281.704 221.212 283.36 221.212C283.648 221.212 284.008 221.248 284.26 221.284C285.268 221.32 286.096 220.492 286.096 219.484C286.096 218.512 285.376 217.792 284.584 217.684C283.972 217.576 283.252 217.504 282.388 217.504C280.516 217.504 279.112 218.008 278.104 219.016C277.096 220.024 276.556 221.608 276.556 223.696V225.1H275.8C274.792 225.1 273.964 225.928 273.964 226.936C273.964 227.944 274.792 228.736 275.8 228.736H276.556V242.02ZM296.003 244.432C301.871 244.432 306.191 239.932 306.191 234.532V234.46C306.191 229.024 301.907 224.596 296.075 224.596C290.243 224.596 285.923 229.096 285.923 234.532V234.604C285.923 240.004 290.207 244.432 296.003 244.432ZM296.075 240.616C292.691 240.616 290.279 237.844 290.279 234.532V234.46C290.279 231.148 292.511 228.412 296.003 228.412C299.423 228.412 301.835 231.184 301.835 234.532V234.604C301.835 237.88 299.603 240.616 296.075 240.616ZM308.827 242.02C308.827 243.244 309.799 244.18 310.987 244.18C312.211 244.18 313.183 243.208 313.183 242.02V236.404C313.183 231.904 315.307 229.528 318.403 228.988C319.375 228.808 320.131 228.052 320.131 226.9C320.131 225.64 319.339 224.74 317.971 224.74C316.063 224.74 314.191 226.54 313.183 228.916V226.972C313.183 225.748 312.211 224.776 310.987 224.776C309.763 224.776 308.827 225.748 308.827 226.972V242.02ZM321.899 242.02C321.899 243.244 322.871 244.18 324.059 244.18C325.283 244.18 326.255 243.244 326.255 242.02V233.272C326.255 230.356 327.911 228.556 330.323 228.556C332.735 228.556 334.175 230.212 334.175 233.164V242.02C334.175 243.244 335.147 244.18 336.371 244.18C337.559 244.18 338.531 243.244 338.531 242.02V233.272C338.531 230.212 340.223 228.556 342.599 228.556C345.047 228.556 346.451 230.176 346.451 233.2V242.02C346.451 243.244 347.423 244.18 348.647 244.18C349.871 244.18 350.807 243.244 350.807 242.02V231.868C350.807 227.224 348.287 224.596 344.147 224.596C341.267 224.596 339.251 225.928 337.739 227.944C336.731 225.928 334.787 224.596 332.051 224.596C329.135 224.596 327.479 226.18 326.255 227.872V226.972C326.255 225.748 325.283 224.776 324.059 224.776C322.835 224.776 321.899 225.748 321.899 226.972V242.02Z" fill="black"/>
<path d="M21.492 236.984C21.492 238.208 22.464 239.18 23.724 239.18C24.948 239.18 25.92 238.208 25.92 236.984V215.816C25.92 214.592 24.948 213.62 23.724 213.62C22.464 213.62 21.492 214.592 21.492 215.816V236.984ZM30.3618 237.02C30.3618 238.244 31.3338 239.18 32.5218 239.18C33.7458 239.18 34.7178 238.244 34.7178 237.02V228.272C34.7178 225.32 36.4818 223.556 39.0018 223.556C41.5938 223.556 43.0698 225.248 43.0698 228.2V237.02C43.0698 238.244 44.0418 239.18 45.2658 239.18C46.4898 239.18 47.4258 238.244 47.4258 237.02V226.868C47.4258 222.476 44.9418 219.596 40.6578 219.596C37.7058 219.596 35.9418 221.144 34.7178 222.908V221.972C34.7178 220.748 33.7458 219.776 32.5218 219.776C31.2978 219.776 30.3618 220.748 30.3618 221.972V237.02ZM60.833 237.452L67.169 222.908C67.277 222.692 67.421 222.26 67.421 221.864C67.421 220.676 66.485 219.776 65.297 219.776C64.145 219.776 63.569 220.532 63.245 221.288L58.277 233.96L53.381 221.36C53.021 220.46 52.409 219.776 51.221 219.776C50.033 219.776 49.061 220.784 49.061 221.864C49.061 222.26 49.205 222.62 49.313 222.944L55.649 237.452C56.153 238.604 56.945 239.36 58.133 239.36H58.349C59.537 239.36 60.329 238.568 60.833 237.452ZM72.2956 228.164C72.6916 225.212 74.5636 223.16 77.2276 223.16C80.1076 223.16 81.7636 225.356 82.0516 228.164H72.2956ZM84.5716 236.912C84.8956 236.588 85.1476 236.12 85.1476 235.58C85.1476 234.572 84.3916 233.816 83.4196 233.816C82.9156 233.816 82.6276 233.96 82.3036 234.212C81.0796 235.22 79.6396 235.868 77.8036 235.868C74.9956 235.868 72.7996 234.14 72.3316 231.044H84.2476C85.3636 231.044 86.2996 230.18 86.2996 228.956C86.2996 224.564 83.3116 219.596 77.2636 219.596C71.8276 219.596 67.9756 224.06 67.9756 229.496V229.568C67.9756 235.436 72.2236 239.432 77.7316 239.432C80.6836 239.432 82.8436 238.46 84.5716 236.912ZM95.4622 239.36C99.4222 239.36 102.518 237.38 102.518 233.384V233.312C102.518 229.892 99.3862 228.632 96.6142 227.768C94.3822 227.048 92.3302 226.472 92.3302 225.068V224.996C92.3302 223.916 93.3022 223.124 94.9942 223.124C96.3262 223.124 97.9102 223.628 99.4582 224.42C99.7462 224.564 99.9622 224.636 100.322 224.636C101.33 224.636 102.122 223.88 102.122 222.872C102.122 222.116 101.69 221.54 101.078 221.216C99.2422 220.244 97.1182 219.668 95.1022 219.668C91.3222 219.668 88.3342 221.864 88.3342 225.464V225.536C88.3342 229.172 91.4662 230.324 94.2742 231.116C96.5062 231.8 98.5222 232.304 98.5222 233.78V233.852C98.5222 235.112 97.4422 235.904 95.5702 235.904C93.8422 235.904 91.9342 235.292 90.0982 234.068C89.8462 233.924 89.5222 233.816 89.1622 233.816C88.1542 233.816 87.3982 234.608 87.3982 235.58C87.3982 236.3 87.7582 236.84 88.2262 237.092C90.4222 238.604 93.0502 239.36 95.4622 239.36ZM111.202 239.324C112.354 239.324 113.254 239.144 114.19 238.82C114.802 238.568 115.342 237.92 115.342 237.128C115.342 236.12 114.478 235.328 113.506 235.328C113.362 235.328 112.93 235.436 112.426 235.436C110.95 235.436 110.086 234.752 110.086 233.06V223.736H113.506C114.55 223.736 115.414 222.908 115.414 221.864C115.414 220.82 114.55 219.992 113.506 219.992H110.086V216.752C110.086 215.564 109.114 214.592 107.926 214.592C106.702 214.592 105.73 215.564 105.73 216.752V219.992H105.01C103.966 219.992 103.138 220.82 103.138 221.864C103.138 222.908 103.966 223.736 105.01 223.736H105.73V233.744C105.73 237.92 107.998 239.324 111.202 239.324ZM117.831 237.02C117.831 238.244 118.803 239.18 119.991 239.18C121.215 239.18 122.187 238.244 122.187 237.02V228.272C122.187 225.356 123.843 223.556 126.255 223.556C128.667 223.556 130.107 225.212 130.107 228.164V237.02C130.107 238.244 131.079 239.18 132.303 239.18C133.491 239.18 134.463 238.244 134.463 237.02V228.272C134.463 225.212 136.155 223.556 138.531 223.556C140.979 223.556 142.383 225.176 142.383 228.2V237.02C142.383 238.244 143.355 239.18 144.579 239.18C145.803 239.18 146.739 238.244 146.739 237.02V226.868C146.739 222.224 144.219 219.596 140.079 219.596C137.199 219.596 135.183 220.928 133.671 222.944C132.663 220.928 130.719 219.596 127.983 219.596C125.067 219.596 123.411 221.18 122.187 222.872V221.972C122.187 220.748 121.215 219.776 119.991 219.776C118.767 219.776 117.831 220.748 117.831 221.972V237.02ZM153.514 228.164C153.91 225.212 155.782 223.16 158.446 223.16C161.326 223.16 162.982 225.356 163.27 228.164H153.514ZM165.79 236.912C166.114 236.588 166.366 236.12 166.366 235.58C166.366 234.572 165.61 233.816 164.638 233.816C164.134 233.816 163.846 233.96 163.522 234.212C162.298 235.22 160.858 235.868 159.022 235.868C156.214 235.868 154.018 234.14 153.55 231.044H165.466C166.582 231.044 167.518 230.18 167.518 228.956C167.518 224.564 164.53 219.596 158.482 219.596C153.046 219.596 149.194 224.06 149.194 229.496V229.568C149.194 235.436 153.442 239.432 158.95 239.432C161.902 239.432 164.062 238.46 165.79 236.912ZM170.164 237.02C170.164 238.244 171.136 239.18 172.324 239.18C173.548 239.18 174.52 238.244 174.52 237.02V228.272C174.52 225.32 176.284 223.556 178.804 223.556C181.396 223.556 182.872 225.248 182.872 228.2V237.02C182.872 238.244 183.844 239.18 185.068 239.18C186.292 239.18 187.228 238.244 187.228 237.02V226.868C187.228 222.476 184.744 219.596 180.46 219.596C177.508 219.596 175.744 221.144 174.52 222.908V221.972C174.52 220.748 173.548 219.776 172.324 219.776C171.1 219.776 170.164 220.748 170.164 221.972V237.02ZM197.06 239.324C198.212 239.324 199.112 239.144 200.048 238.82C200.66 238.568 201.2 237.92 201.2 237.128C201.2 236.12 200.336 235.328 199.364 235.328C199.22 235.328 198.788 235.436 198.284 235.436C196.808 235.436 195.944 234.752 195.944 233.06V223.736H199.364C200.408 223.736 201.272 222.908 201.272 221.864C201.272 220.82 200.408 219.992 199.364 219.992H195.944V216.752C195.944 215.564 194.972 214.592 193.784 214.592C192.56 214.592 191.588 215.564 191.588 216.752V219.992H190.868C189.824 219.992 188.996 220.82 188.996 221.864C188.996 222.908 189.824 223.736 190.868 223.736H191.588V233.744C191.588 237.92 193.856 239.324 197.06 239.324ZM213.186 236.984C213.186 238.208 214.158 239.18 215.418 239.18C216.642 239.18 217.614 238.208 217.614 236.984V230.9H222.618C228.162 230.9 232.698 227.948 232.698 222.296V222.224C232.698 217.148 229.026 213.8 223.122 213.8H215.418C214.158 213.8 213.186 214.772 213.186 216.032V236.984ZM217.614 226.904V217.832H222.762C226.074 217.832 228.198 219.38 228.198 222.332V222.404C228.198 225.032 226.11 226.904 222.762 226.904H217.614ZM235.181 237.02C235.181 238.244 236.153 239.18 237.341 239.18C238.565 239.18 239.537 238.244 239.537 237.02V214.7C239.537 213.512 238.565 212.54 237.341 212.54C236.117 212.54 235.181 213.512 235.181 214.7V237.02ZM248.902 239.396C251.818 239.396 253.798 238.172 255.094 236.624V237.344C255.094 238.316 255.958 239.18 257.218 239.18C258.406 239.18 259.342 238.28 259.342 237.092V227.732C259.342 225.248 258.694 223.232 257.29 221.864C255.958 220.496 253.834 219.74 250.99 219.74C248.506 219.74 246.67 220.172 244.87 220.856C244.222 221.108 243.682 221.792 243.682 222.584C243.682 223.592 244.51 224.384 245.518 224.384C245.734 224.384 245.95 224.348 246.202 224.276C247.39 223.808 248.758 223.52 250.414 223.52C253.474 223.52 255.13 224.96 255.13 227.66V228.128C253.654 227.66 252.142 227.336 250.018 227.336C245.374 227.336 242.17 229.352 242.17 233.456V233.528C242.17 237.344 245.338 239.396 248.902 239.396ZM250.126 236.228C248.038 236.228 246.418 235.184 246.418 233.348V233.276C246.418 231.296 248.074 230.108 250.882 230.108C252.61 230.108 254.086 230.432 255.202 230.864V232.16C255.202 234.572 253.006 236.228 250.126 236.228ZM268.955 239.324C270.107 239.324 271.007 239.144 271.943 238.82C272.555 238.568 273.095 237.92 273.095 237.128C273.095 236.12 272.231 235.328 271.259 235.328C271.115 235.328 270.683 235.436 270.179 235.436C268.703 235.436 267.839 234.752 267.839 233.06V223.736H271.259C272.303 223.736 273.167 222.908 273.167 221.864C273.167 220.82 272.303 219.992 271.259 219.992H267.839V216.752C267.839 215.564 266.867 214.592 265.679 214.592C264.455 214.592 263.483 215.564 263.483 216.752V219.992H262.763C261.719 219.992 260.891 220.82 260.891 221.864C260.891 222.908 261.719 223.736 262.763 223.736H263.483V233.744C263.483 237.92 265.751 239.324 268.955 239.324ZM276.556 237.02C276.556 238.208 277.528 239.18 278.716 239.18C279.94 239.18 280.912 238.208 280.912 237.02V223.736H284.224C285.232 223.736 286.06 222.944 286.06 221.936C286.06 220.928 285.268 220.136 284.224 220.136H280.84V219.092C280.84 217.112 281.704 216.212 283.36 216.212C283.648 216.212 284.008 216.248 284.26 216.284C285.268 216.32 286.096 215.492 286.096 214.484C286.096 213.512 285.376 212.792 284.584 212.684C283.972 212.576 283.252 212.504 282.388 212.504C280.516 212.504 279.112 213.008 278.104 214.016C277.096 215.024 276.556 216.608 276.556 218.696V220.1H275.8C274.792 220.1 273.964 220.928 273.964 221.936C273.964 222.944 274.792 223.736 275.8 223.736H276.556V237.02ZM296.003 239.432C301.871 239.432 306.191 234.932 306.191 229.532V229.46C306.191 224.024 301.907 219.596 296.075 219.596C290.243 219.596 285.923 224.096 285.923 229.532V229.604C285.923 235.004 290.207 239.432 296.003 239.432ZM296.075 235.616C292.691 235.616 290.279 232.844 290.279 229.532V229.46C290.279 226.148 292.511 223.412 296.003 223.412C299.423 223.412 301.835 226.184 301.835 229.532V229.604C301.835 232.88 299.603 235.616 296.075 235.616ZM308.827 237.02C308.827 238.244 309.799 239.18 310.987 239.18C312.211 239.18 313.183 238.208 313.183 237.02V231.404C313.183 226.904 315.307 224.528 318.403 223.988C319.375 223.808 320.131 223.052 320.131 221.9C320.131 220.64 319.339 219.74 317.971 219.74C316.063 219.74 314.191 221.54 313.183 223.916V221.972C313.183 220.748 312.211 219.776 310.987 219.776C309.763 219.776 308.827 220.748 308.827 221.972V237.02ZM321.899 237.02C321.899 238.244 322.871 239.18 324.059 239.18C325.283 239.18 326.255 238.244 326.255 237.02V228.272C326.255 225.356 327.911 223.556 330.323 223.556C332.735 223.556 334.175 225.212 334.175 228.164V237.02C334.175 238.244 335.147 239.18 336.371 239.18C337.559 239.18 338.531 238.244 338.531 237.02V228.272C338.531 225.212 340.223 223.556 342.599 223.556C345.047 223.556 346.451 225.176 346.451 228.2V237.02C346.451 238.244 347.423 239.18 348.647 239.18C349.871 239.18 350.807 238.244 350.807 237.02V226.868C350.807 222.224 348.287 219.596 344.147 219.596C341.267 219.596 339.251 220.928 337.739 222.944C336.731 220.928 334.787 219.596 332.051 219.596C329.135 219.596 327.479 221.18 326.255 222.872V221.972C326.255 220.748 325.283 219.776 324.059 219.776C322.835 219.776 321.899 220.748 321.899 221.972V237.02Z" fill="#00E59D"/>
<g filter="url(#filter3_f)">
<path d="M21.492 236.984C21.492 238.208 22.464 239.18 23.724 239.18C24.948 239.18 25.92 238.208 25.92 236.984V215.816C25.92 214.592 24.948 213.62 23.724 213.62C22.464 213.62 21.492 214.592 21.492 215.816V236.984ZM30.3618 237.02C30.3618 238.244 31.3338 239.18 32.5218 239.18C33.7458 239.18 34.7178 238.244 34.7178 237.02V228.272C34.7178 225.32 36.4818 223.556 39.0018 223.556C41.5938 223.556 43.0698 225.248 43.0698 228.2V237.02C43.0698 238.244 44.0418 239.18 45.2658 239.18C46.4898 239.18 47.4258 238.244 47.4258 237.02V226.868C47.4258 222.476 44.9418 219.596 40.6578 219.596C37.7058 219.596 35.9418 221.144 34.7178 222.908V221.972C34.7178 220.748 33.7458 219.776 32.5218 219.776C31.2978 219.776 30.3618 220.748 30.3618 221.972V237.02ZM60.833 237.452L67.169 222.908C67.277 222.692 67.421 222.26 67.421 221.864C67.421 220.676 66.485 219.776 65.297 219.776C64.145 219.776 63.569 220.532 63.245 221.288L58.277 233.96L53.381 221.36C53.021 220.46 52.409 219.776 51.221 219.776C50.033 219.776 49.061 220.784 49.061 221.864C49.061 222.26 49.205 222.62 49.313 222.944L55.649 237.452C56.153 238.604 56.945 239.36 58.133 239.36H58.349C59.537 239.36 60.329 238.568 60.833 237.452ZM72.2956 228.164C72.6916 225.212 74.5636 223.16 77.2276 223.16C80.1076 223.16 81.7636 225.356 82.0516 228.164H72.2956ZM84.5716 236.912C84.8956 236.588 85.1476 236.12 85.1476 235.58C85.1476 234.572 84.3916 233.816 83.4196 233.816C82.9156 233.816 82.6276 233.96 82.3036 234.212C81.0796 235.22 79.6396 235.868 77.8036 235.868C74.9956 235.868 72.7996 234.14 72.3316 231.044H84.2476C85.3636 231.044 86.2996 230.18 86.2996 228.956C86.2996 224.564 83.3116 219.596 77.2636 219.596C71.8276 219.596 67.9756 224.06 67.9756 229.496V229.568C67.9756 235.436 72.2236 239.432 77.7316 239.432C80.6836 239.432 82.8436 238.46 84.5716 236.912ZM95.4622 239.36C99.4222 239.36 102.518 237.38 102.518 233.384V233.312C102.518 229.892 99.3862 228.632 96.6142 227.768C94.3822 227.048 92.3302 226.472 92.3302 225.068V224.996C92.3302 223.916 93.3022 223.124 94.9942 223.124C96.3262 223.124 97.9102 223.628 99.4582 224.42C99.7462 224.564 99.9622 224.636 100.322 224.636C101.33 224.636 102.122 223.88 102.122 222.872C102.122 222.116 101.69 221.54 101.078 221.216C99.2422 220.244 97.1182 219.668 95.1022 219.668C91.3222 219.668 88.3342 221.864 88.3342 225.464V225.536C88.3342 229.172 91.4662 230.324 94.2742 231.116C96.5062 231.8 98.5222 232.304 98.5222 233.78V233.852C98.5222 235.112 97.4422 235.904 95.5702 235.904C93.8422 235.904 91.9342 235.292 90.0982 234.068C89.8462 233.924 89.5222 233.816 89.1622 233.816C88.1542 233.816 87.3982 234.608 87.3982 235.58C87.3982 236.3 87.7582 236.84 88.2262 237.092C90.4222 238.604 93.0502 239.36 95.4622 239.36ZM111.202 239.324C112.354 239.324 113.254 239.144 114.19 238.82C114.802 238.568 115.342 237.92 115.342 237.128C115.342 236.12 114.478 235.328 113.506 235.328C113.362 235.328 112.93 235.436 112.426 235.436C110.95 235.436 110.086 234.752 110.086 233.06V223.736H113.506C114.55 223.736 115.414 222.908 115.414 221.864C115.414 220.82 114.55 219.992 113.506 219.992H110.086V216.752C110.086 215.564 109.114 214.592 107.926 214.592C106.702 214.592 105.73 215.564 105.73 216.752V219.992H105.01C103.966 219.992 103.138 220.82 103.138 221.864C103.138 222.908 103.966 223.736 105.01 223.736H105.73V233.744C105.73 237.92 107.998 239.324 111.202 239.324ZM117.831 237.02C117.831 238.244 118.803 239.18 119.991 239.18C121.215 239.18 122.187 238.244 122.187 237.02V228.272C122.187 225.356 123.843 223.556 126.255 223.556C128.667 223.556 130.107 225.212 130.107 228.164V237.02C130.107 238.244 131.079 239.18 132.303 239.18C133.491 239.18 134.463 238.244 134.463 237.02V228.272C134.463 225.212 136.155 223.556 138.531 223.556C140.979 223.556 142.383 225.176 142.383 228.2V237.02C142.383 238.244 143.355 239.18 144.579 239.18C145.803 239.18 146.739 238.244 146.739 237.02V226.868C146.739 222.224 144.219 219.596 140.079 219.596C137.199 219.596 135.183 220.928 133.671 222.944C132.663 220.928 130.719 219.596 127.983 219.596C125.067 219.596 123.411 221.18 122.187 222.872V221.972C122.187 220.748 121.215 219.776 119.991 219.776C118.767 219.776 117.831 220.748 117.831 221.972V237.02ZM153.514 228.164C153.91 225.212 155.782 223.16 158.446 223.16C161.326 223.16 162.982 225.356 163.27 228.164H153.514ZM165.79 236.912C166.114 236.588 166.366 236.12 166.366 235.58C166.366 234.572 165.61 233.816 164.638 233.816C164.134 233.816 163.846 233.96 163.522 234.212C162.298 235.22 160.858 235.868 159.022 235.868C156.214 235.868 154.018 234.14 153.55 231.044H165.466C166.582 231.044 167.518 230.18 167.518 228.956C167.518 224.564 164.53 219.596 158.482 219.596C153.046 219.596 149.194 224.06 149.194 229.496V229.568C149.194 235.436 153.442 239.432 158.95 239.432C161.902 239.432 164.062 238.46 165.79 236.912ZM170.164 237.02C170.164 238.244 171.136 239.18 172.324 239.18C173.548 239.18 174.52 238.244 174.52 237.02V228.272C174.52 225.32 176.284 223.556 178.804 223.556C181.396 223.556 182.872 225.248 182.872 228.2V237.02C182.872 238.244 183.844 239.18 185.068 239.18C186.292 239.18 187.228 238.244 187.228 237.02V226.868C187.228 222.476 184.744 219.596 180.46 219.596C177.508 219.596 175.744 221.144 174.52 222.908V221.972C174.52 220.748 173.548 219.776 172.324 219.776C171.1 219.776 170.164 220.748 170.164 221.972V237.02ZM197.06 239.324C198.212 239.324 199.112 239.144 200.048 238.82C200.66 238.568 201.2 237.92 201.2 237.128C201.2 236.12 200.336 235.328 199.364 235.328C199.22 235.328 198.788 235.436 198.284 235.436C196.808 235.436 195.944 234.752 195.944 233.06V223.736H199.364C200.408 223.736 201.272 222.908 201.272 221.864C201.272 220.82 200.408 219.992 199.364 219.992H195.944V216.752C195.944 215.564 194.972 214.592 193.784 214.592C192.56 214.592 191.588 215.564 191.588 216.752V219.992H190.868C189.824 219.992 188.996 220.82 188.996 221.864C188.996 222.908 189.824 223.736 190.868 223.736H191.588V233.744C191.588 237.92 193.856 239.324 197.06 239.324ZM213.186 236.984C213.186 238.208 214.158 239.18 215.418 239.18C216.642 239.18 217.614 238.208 217.614 236.984V230.9H222.618C228.162 230.9 232.698 227.948 232.698 222.296V222.224C232.698 217.148 229.026 213.8 223.122 213.8H215.418C214.158 213.8 213.186 214.772 213.186 216.032V236.984ZM217.614 226.904V217.832H222.762C226.074 217.832 228.198 219.38 228.198 222.332V222.404C228.198 225.032 226.11 226.904 222.762 226.904H217.614ZM235.181 237.02C235.181 238.244 236.153 239.18 237.341 239.18C238.565 239.18 239.537 238.244 239.537 237.02V214.7C239.537 213.512 238.565 212.54 237.341 212.54C236.117 212.54 235.181 213.512 235.181 214.7V237.02ZM248.902 239.396C251.818 239.396 253.798 238.172 255.094 236.624V237.344C255.094 238.316 255.958 239.18 257.218 239.18C258.406 239.18 259.342 238.28 259.342 237.092V227.732C259.342 225.248 258.694 223.232 257.29 221.864C255.958 220.496 253.834 219.74 250.99 219.74C248.506 219.74 246.67 220.172 244.87 220.856C244.222 221.108 243.682 221.792 243.682 222.584C243.682 223.592 244.51 224.384 245.518 224.384C245.734 224.384 245.95 224.348 246.202 224.276C247.39 223.808 248.758 223.52 250.414 223.52C253.474 223.52 255.13 224.96 255.13 227.66V228.128C253.654 227.66 252.142 227.336 250.018 227.336C245.374 227.336 242.17 229.352 242.17 233.456V233.528C242.17 237.344 245.338 239.396 248.902 239.396ZM250.126 236.228C248.038 236.228 246.418 235.184 246.418 233.348V233.276C246.418 231.296 248.074 230.108 250.882 230.108C252.61 230.108 254.086 230.432 255.202 230.864V232.16C255.202 234.572 253.006 236.228 250.126 236.228ZM268.955 239.324C270.107 239.324 271.007 239.144 271.943 238.82C272.555 238.568 273.095 237.92 273.095 237.128C273.095 236.12 272.231 235.328 271.259 235.328C271.115 235.328 270.683 235.436 270.179 235.436C268.703 235.436 267.839 234.752 267.839 233.06V223.736H271.259C272.303 223.736 273.167 222.908 273.167 221.864C273.167 220.82 272.303 219.992 271.259 219.992H267.839V216.752C267.839 215.564 266.867 214.592 265.679 214.592C264.455 214.592 263.483 215.564 263.483 216.752V219.992H262.763C261.719 219.992 260.891 220.82 260.891 221.864C260.891 222.908 261.719 223.736 262.763 223.736H263.483V233.744C263.483 237.92 265.751 239.324 268.955 239.324ZM276.556 237.02C276.556 238.208 277.528 239.18 278.716 239.18C279.94 239.18 280.912 238.208 280.912 237.02V223.736H284.224C285.232 223.736 286.06 222.944 286.06 221.936C286.06 220.928 285.268 220.136 284.224 220.136H280.84V219.092C280.84 217.112 281.704 216.212 283.36 216.212C283.648 216.212 284.008 216.248 284.26 216.284C285.268 216.32 286.096 215.492 286.096 214.484C286.096 213.512 285.376 212.792 284.584 212.684C283.972 212.576 283.252 212.504 282.388 212.504C280.516 212.504 279.112 213.008 278.104 214.016C277.096 215.024 276.556 216.608 276.556 218.696V220.1H275.8C274.792 220.1 273.964 220.928 273.964 221.936C273.964 222.944 274.792 223.736 275.8 223.736H276.556V237.02ZM296.003 239.432C301.871 239.432 306.191 234.932 306.191 229.532V229.46C306.191 224.024 301.907 219.596 296.075 219.596C290.243 219.596 285.923 224.096 285.923 229.532V229.604C285.923 235.004 290.207 239.432 296.003 239.432ZM296.075 235.616C292.691 235.616 290.279 232.844 290.279 229.532V229.46C290.279 226.148 292.511 223.412 296.003 223.412C299.423 223.412 301.835 226.184 301.835 229.532V229.604C301.835 232.88 299.603 235.616 296.075 235.616ZM308.827 237.02C308.827 238.244 309.799 239.18 310.987 239.18C312.211 239.18 313.183 238.208 313.183 237.02V231.404C313.183 226.904 315.307 224.528 318.403 223.988C319.375 223.808 320.131 223.052 320.131 221.9C320.131 220.64 319.339 219.74 317.971 219.74C316.063 219.74 314.191 221.54 313.183 223.916V221.972C313.183 220.748 312.211 219.776 310.987 219.776C309.763 219.776 308.827 220.748 308.827 221.972V237.02ZM321.899 237.02C321.899 238.244 322.871 239.18 324.059 239.18C325.283 239.18 326.255 238.244 326.255 237.02V228.272C326.255 225.356 327.911 223.556 330.323 223.556C332.735 223.556 334.175 225.212 334.175 228.164V237.02C334.175 238.244 335.147 239.18 336.371 239.18C337.559 239.18 338.531 238.244 338.531 237.02V228.272C338.531 225.212 340.223 223.556 342.599 223.556C345.047 223.556 346.451 225.176 346.451 228.2V237.02C346.451 238.244 347.423 239.18 348.647 239.18C349.871 239.18 350.807 238.244 350.807 237.02V226.868C350.807 222.224 348.287 219.596 344.147 219.596C341.267 219.596 339.251 220.928 337.739 222.944C336.731 220.928 334.787 219.596 332.051 219.596C329.135 219.596 327.479 221.18 326.255 222.872V221.972C326.255 220.748 325.283 219.776 324.059 219.776C322.835 219.776 321.899 220.748 321.899 221.972V237.02Z" fill="#00E59D"/>
</g>
<defs>
<filter id="filter0_f" x="0.152344" y="0.540039" width="281.959" height="72.4" filterUnits="userSpaceOnUse" color-interpolation-filters="sRGB">
<feFlood flood-opacity="0" result="BackgroundImageFix"/>
<feBlend mode="normal" in="SourceGraphic" in2="BackgroundImageFix" result="shape"/>
<feGaussianBlur stdDeviation="10" result="effect1_foregroundBlur"/>
</filter>
<filter id="filter1_f" x="2.35938" y="52.1602" width="446.45" height="90.68" filterUnits="userSpaceOnUse" color-interpolation-filters="sRGB">
<feFlood flood-opacity="0" result="BackgroundImageFix"/>
<feBlend mode="normal" in="SourceGraphic" in2="BackgroundImageFix" result="shape"/>
<feGaussianBlur stdDeviation="10" result="effect1_foregroundBlur"/>
</filter>
<filter id="filter2_f" x="0.300781" y="118.55" width="472.422" height="92.29" filterUnits="userSpaceOnUse" color-interpolation-filters="sRGB">
<feFlood flood-opacity="0" result="BackgroundImageFix"/>
<feBlend mode="normal" in="SourceGraphic" in2="BackgroundImageFix" result="shape"/>
<feGaussianBlur stdDeviation="10" result="effect1_foregroundBlur"/>
</filter>
<filter id="filter3_f" x="1.49219" y="192.504" width="369.315" height="66.928" filterUnits="userSpaceOnUse" color-interpolation-filters="sRGB">
<feFlood flood-opacity="0" result="BackgroundImageFix"/>
<feBlend mode="normal" in="SourceGraphic" in2="BackgroundImageFix" result="shape"/>
<feGaussianBlur stdDeviation="10" result="effect1_foregroundBlur"/>
</filter>
</defs>
</svg>
