<svg width="24" height="24" viewBox="0 0 24 24" fill="none" xmlns="http://www.w3.org/2000/svg">
<path d="M23.953 4.5696C23.0545 4.9652 22.1026 5.22634 21.128 5.3446C22.1541 4.72785 22.9224 3.76064 23.291 2.6216C22.34 3.1766 21.286 3.5806 20.164 3.8056C19.4238 3.01403 18.4429 2.48902 17.3736 2.3121C16.3044 2.13518 15.2067 2.31625 14.2509 2.82719C13.2952 3.33813 12.5349 4.15035 12.0881 5.13772C11.6412 6.1251 11.533 7.23237 11.78 8.2876C7.69 8.0946 4.067 6.1296 1.64 3.1616C1.19879 3.91141 0.968664 4.76662 0.974 5.6366C0.974 7.3466 1.844 8.8496 3.162 9.7326C2.38086 9.70773 1.61697 9.49653 0.934 9.1166V9.1766C0.933557 10.313 1.32627 11.4145 2.04551 12.2944C2.76474 13.1742 3.76621 13.7781 4.88 14.0036C4.1583 14.197 3.40241 14.226 2.668 14.0886C2.98412 15.0666 3.59766 15.9215 4.42301 16.5341C5.24837 17.1467 6.24435 17.4863 7.272 17.5056C5.53153 18.8715 3.38248 19.6129 1.17 19.6106C0.78 19.6106 0.391 19.5876 0 19.5436C2.25571 20.9879 4.87851 21.7546 7.557 21.7526C16.61 21.7526 21.555 14.2566 21.555 7.7676C21.555 7.5576 21.555 7.3476 21.54 7.1376C22.506 6.44246 23.3392 5.57942 24 4.5896L23.953 4.5696Z" fill="white"/>
</svg>
