<svg width="559" height="73" fill="none" xmlns="http://www.w3.org/2000/svg"><path d="M28.144 50.524c.432 1.152 1.224 1.836 2.304 1.836h.432c1.08 0 1.908-.684 2.304-1.836L38.8 34.072l5.616 16.452c.396 1.152 1.188 1.836 2.268 1.836h.432c1.08 0 1.908-.72 2.304-1.836l7.452-20.88c.108-.252.216-.612.216-.9 0-1.188-1.008-2.124-2.196-2.124-1.08 0-1.836.684-2.16 1.584l-5.796 17.352-5.688-17.244c-.324-1.044-1.116-1.764-2.232-1.764h-.324c-1.116 0-1.872.72-2.232 1.764l-5.688 17.244-5.796-17.316a2.258 2.258 0 0 0-2.196-1.62c-1.224 0-2.268.936-2.268 2.16 0 .288.072.612.18.864l7.452 20.88Zm30.991-.504c0 1.224.972 2.16 2.16 2.16 1.224 0 2.196-.936 2.196-2.16v-8.748c0-2.952 1.764-4.716 4.284-4.716 2.592 0 4.068 1.692 4.068 4.644v8.82c0 1.224.972 2.16 2.196 2.16 1.224 0 2.16-.936 2.16-2.16V39.868c0-4.392-2.484-7.272-6.768-7.272-2.952 0-4.716 1.548-5.94 3.312V27.7c0-1.188-.972-2.16-2.196-2.16-1.224 0-2.16.972-2.16 2.16v22.32Zm23.7 7.848c3.06 0 4.787-1.44 6.407-5.328l6.948-16.668c.072-.216.18-.684.18-1.044 0-1.152-.936-2.052-2.088-2.052-1.116 0-1.728.756-2.088 1.656l-4.752 12.636-5.112-12.636c-.396-1.008-1.008-1.656-2.124-1.656-1.224 0-2.16.9-2.16 2.124 0 .288.108.72.252 1.044l7.056 15.768-.144.396c-.72 1.476-1.404 2.016-2.7 2.016-.612 0-1.008-.108-1.512-.252a2.223 2.223 0 0 0-.792-.144c-.936 0-1.764.72-1.764 1.8 0 1.044.72 1.584 1.368 1.8.9.36 1.8.54 3.024.54Zm24.793-29.772c0 1.296 1.08 2.16 2.484 2.16s2.484-.864 2.484-2.16v-.216c0-1.296-1.08-2.124-2.484-2.124s-2.484.828-2.484 2.124v.216Zm.324 21.924c0 1.224.972 2.16 2.16 2.16 1.224 0 2.196-.936 2.196-2.16V34.972a2.182 2.182 0 0 0-2.196-2.196c-1.224 0-2.16.972-2.16 2.196V50.02Zm14.765 2.34c3.96 0 7.056-1.98 7.056-5.976v-.072c0-3.42-3.132-4.68-5.904-5.544-2.232-.72-4.284-1.296-4.284-2.7v-.072c0-1.08.972-1.872 2.664-1.872 1.332 0 2.916.504 4.464 1.296.288.144.504.216.864.216 1.008 0 1.8-.756 1.8-1.764 0-.756-.432-1.332-1.044-1.656-1.836-.972-3.96-1.548-5.976-1.548-3.78 0-6.768 2.196-6.768 5.796v.072c0 3.636 3.132 4.788 5.94 5.58 2.232.684 4.248 1.188 4.248 2.664v.072c0 1.26-1.08 2.052-2.952 2.052-1.728 0-3.636-.612-5.472-1.836a1.9 1.9 0 0 0-.936-.252 1.744 1.744 0 0 0-1.764 1.764c0 .72.36 1.26.828 1.512 2.196 1.512 4.824 2.268 7.236 2.268Zm19.216-2.592c0 1.26.972 2.232 2.232 2.232h9.432c5.616 0 9.324-2.412 9.324-6.912v-.072c0-3.42-2.052-5.112-5.004-6.12 1.872-.972 3.6-2.592 3.6-5.616v-.072c0-1.692-.576-3.06-1.692-4.176-1.44-1.44-3.708-2.232-6.588-2.232h-9.072c-1.26 0-2.232.972-2.232 2.232v20.736Zm4.356-12.348v-6.696h6.372c2.844 0 4.428 1.224 4.428 3.204V34c0 2.304-1.908 3.42-4.752 3.42h-6.048Zm0 10.656v-6.912h7.02c3.492 0 5.184 1.26 5.184 3.384v.072c0 2.268-1.836 3.456-4.86 3.456h-7.344Zm22.596-6.912c.396-2.952 2.268-5.004 4.932-5.004 2.88 0 4.536 2.196 4.824 5.004h-9.756Zm12.276 8.748c.324-.324.576-.792.576-1.332 0-1.008-.756-1.764-1.728-1.764-.504 0-.792.144-1.116.396-1.224 1.008-2.664 1.656-4.5 1.656-2.808 0-5.004-1.728-5.472-4.824h11.916c1.116 0 2.052-.864 2.052-2.088 0-4.392-2.988-9.36-9.036-9.36-5.436 0-9.288 4.464-9.288 9.9v.072c0 5.868 4.248 9.864 9.756 9.864 2.952 0 5.112-.972 6.84-2.52Zm7.651-8.748c.396-2.952 2.268-5.004 4.932-5.004 2.88 0 4.536 2.196 4.824 5.004h-9.756Zm12.276 8.748c.324-.324.576-.792.576-1.332 0-1.008-.756-1.764-1.728-1.764-.504 0-.792.144-1.116.396-1.224 1.008-2.664 1.656-4.5 1.656-2.808 0-5.004-1.728-5.472-4.824h11.916c1.116 0 2.052-.864 2.052-2.088 0-4.392-2.988-9.36-9.036-9.36-5.436 0-9.288 4.464-9.288 9.9v.072c0 5.868 4.248 9.864 9.756 9.864 2.952 0 5.112-.972 6.84-2.52Zm10.747 2.412c1.152 0 2.052-.18 2.988-.504.612-.252 1.152-.9 1.152-1.692 0-1.008-.864-1.8-1.836-1.8-.144 0-.576.108-1.08.108-1.476 0-2.34-.684-2.34-2.376v-9.324h3.42c1.044 0 1.908-.828 1.908-1.872s-.864-1.872-1.908-1.872h-3.42v-3.24c0-1.188-.972-2.16-2.16-2.16-1.224 0-2.196.972-2.196 2.16v3.24h-.72a1.86 1.86 0 0 0-1.872 1.872 1.86 1.86 0 0 0 1.872 1.872h.72v10.008c0 4.176 2.268 5.58 5.472 5.58Zm6.628-2.304c0 1.224.972 2.16 2.16 2.16 1.224 0 2.196-.936 2.196-2.16v-8.748c0-2.952 1.764-4.716 4.284-4.716 2.592 0 4.068 1.692 4.068 4.644v8.82c0 1.224.972 2.16 2.196 2.16 1.224 0 2.16-.936 2.16-2.16V39.868c0-4.392-2.484-7.272-6.768-7.272-2.952 0-4.716 1.548-5.94 3.312V27.7c0-1.188-.972-2.16-2.196-2.16-1.224 0-2.16.972-2.16 2.16v22.32Zm29.561 2.412c5.868 0 10.188-4.5 10.188-9.9v-.072c0-5.436-4.284-9.864-10.116-9.864s-10.152 4.5-10.152 9.936v.072c0 5.4 4.284 9.828 10.08 9.828Zm.072-3.816c-3.384 0-5.796-2.772-5.796-6.084v-.072c0-3.312 2.232-6.048 5.724-6.048 3.42 0 5.832 2.772 5.832 6.12v.072c0 3.276-2.232 6.012-5.76 6.012Zm22.347 1.836 6.336-14.544c.108-.216.252-.648.252-1.044 0-1.188-.936-2.088-2.124-2.088-1.152 0-1.728.756-2.052 1.512l-4.968 12.672-4.896-12.6c-.36-.9-.972-1.584-2.16-1.584-1.188 0-2.16 1.008-2.16 2.088 0 .396.144.756.252 1.08l6.336 14.508c.504 1.152 1.296 1.908 2.484 1.908h.216c1.188 0 1.98-.792 2.484-1.908Zm11.357-9.288c.396-2.952 2.268-5.004 4.932-5.004 2.88 0 4.536 2.196 4.824 5.004H281.8Zm12.276 8.748c.324-.324.576-.792.576-1.332 0-1.008-.756-1.764-1.728-1.764-.504 0-.792.144-1.116.396-1.224 1.008-2.664 1.656-4.5 1.656-2.808 0-5.004-1.728-5.472-4.824h11.916c1.116 0 2.052-.864 2.052-2.088 0-4.392-2.988-9.36-9.036-9.36-5.436 0-9.288 4.464-9.288 9.9v.072c0 5.868 4.248 9.864 9.756 9.864 2.952 0 5.112-.972 6.84-2.52Zm4.375.108c0 1.224.972 2.16 2.16 2.16 1.224 0 2.196-.936 2.196-2.16v-8.748c0-2.952 1.764-4.716 4.284-4.716 2.592 0 4.068 1.692 4.068 4.644v8.82c0 1.224.972 2.16 2.196 2.16 1.224 0 2.16-.936 2.16-2.16V39.868c0-4.392-2.484-7.272-6.768-7.272-2.952 0-4.716 1.548-5.94 3.312v-.936a2.182 2.182 0 0 0-2.196-2.196c-1.224 0-2.16.972-2.16 2.196V50.02Zm28.725.108a2.02 2.02 0 0 0 2.016 2.052c.972 0 1.548-.432 2.16-1.224l6.66-8.676 6.768 8.82c.54.72 1.08 1.08 2.016 1.08 1.26 0 2.196-.936 2.196-2.16 0-.648-.324-1.188-.684-1.656l-7.416-9.252 7.056-8.784c.432-.54.684-1.044.684-1.692 0-1.224-1.044-2.016-2.016-2.016s-1.584.432-2.16 1.224l-6.3 8.244-6.372-8.388c-.54-.72-1.08-1.08-2.016-1.08-1.26 0-2.196.936-2.196 2.16 0 .612.324 1.188.684 1.656l7.056 8.748-7.488 9.288c-.396.54-.648 1.044-.648 1.656Zm32.46 0c0 1.152.9 2.052 2.052 2.052.936 0 1.692-.504 2.052-1.404l2.124-4.86h12.24l2.052 4.716c.396.936 1.116 1.548 2.16 1.548 1.188 0 2.088-.936 2.088-2.124 0-.288-.072-.612-.252-.936l-9.36-20.88c-.504-1.116-1.368-1.8-2.628-1.8h-.216c-1.26 0-2.16.684-2.664 1.8l-9.36 20.88c-.18.36-.288.684-.288 1.008Zm7.92-8.136 4.428-10.188 4.428 10.188h-8.856Zm24.454 10.332h.144c1.044 0 1.944-.612 2.34-1.872l3.744-11.304 3.708 11.304c.396 1.26 1.296 1.872 2.376 1.872h.144c1.044 0 1.944-.612 2.412-1.944l5.184-14.616c.072-.216.18-.648.18-.972a2.02 2.02 0 0 0-2.052-2.016c-1.152 0-1.836.756-2.124 1.692l-3.708 11.556-3.744-11.52c-.324-1.008-1.116-1.728-2.232-1.728h-.252c-1.116 0-1.908.72-2.232 1.728l-3.708 11.52-3.672-11.52c-.324-1.008-1.044-1.728-2.124-1.728-1.296 0-2.124.972-2.124 2.016 0 .36.108.828.216 1.116l5.112 14.472c.432 1.332 1.332 1.944 2.412 1.944Zm25.198-11.16c.396-2.952 2.268-5.004 4.932-5.004 2.88 0 4.536 2.196 4.824 5.004h-9.756Zm12.276 8.748c.324-.324.576-.792.576-1.332 0-1.008-.756-1.764-1.728-1.764-.504 0-.792.144-1.116.396-1.224 1.008-2.664 1.656-4.5 1.656-2.808 0-5.004-1.728-5.472-4.824h11.916c1.116 0 2.052-.864 2.052-2.088 0-4.392-2.988-9.36-9.036-9.36-5.436 0-9.288 4.464-9.288 9.9v.072c0 5.868 4.248 9.864 9.756 9.864 2.952 0 5.112-.972 6.84-2.52Zm10.891 2.448c3.96 0 7.056-1.98 7.056-5.976v-.072c0-3.42-3.132-4.68-5.904-5.544-2.232-.72-4.284-1.296-4.284-2.7v-.072c0-1.08.972-1.872 2.664-1.872 1.332 0 2.916.504 4.464 1.296.288.144.504.216.864.216 1.008 0 1.8-.756 1.8-1.764 0-.756-.432-1.332-1.044-1.656-1.836-.972-3.96-1.548-5.976-1.548-3.78 0-6.768 2.196-6.768 5.796v.072c0 3.636 3.132 4.788 5.94 5.58 2.232.684 4.248 1.188 4.248 2.664v.072c0 1.26-1.08 2.052-2.952 2.052-1.728 0-3.636-.612-5.472-1.836a1.9 1.9 0 0 0-.936-.252 1.744 1.744 0 0 0-1.764 1.764c0 .72.36 1.26.828 1.512 2.196 1.512 4.824 2.268 7.236 2.268Zm18.755.072c5.868 0 10.188-4.5 10.188-9.9v-.072c0-5.436-4.284-9.864-10.116-9.864s-10.152 4.5-10.152 9.936v.072c0 5.4 4.284 9.828 10.08 9.828Zm.072-3.816c-3.384 0-5.796-2.772-5.796-6.084v-.072c0-3.312 2.232-6.048 5.724-6.048 3.42 0 5.832 2.772 5.832 6.12v.072c0 3.276-2.232 6.012-5.76 6.012Zm12.752 1.404c0 1.224.972 2.16 2.16 2.16 1.224 0 2.196-.936 2.196-2.16v-8.748c0-2.916 1.656-4.716 4.068-4.716s3.852 1.656 3.852 4.608v8.856c0 1.224.972 2.16 2.196 2.16 1.188 0 2.16-.936 2.16-2.16v-8.748c0-3.06 1.692-4.716 4.068-4.716 2.448 0 3.852 1.62 3.852 4.644v8.82c0 1.224.972 2.16 2.196 2.16 1.224 0 2.16-.936 2.16-2.16V39.868c0-4.644-2.52-7.272-6.66-7.272-2.88 0-4.896 1.332-6.408 3.348-1.008-2.016-2.952-3.348-5.688-3.348-2.916 0-4.572 1.584-5.796 3.276v-.9a2.182 2.182 0 0 0-2.196-2.196c-1.224 0-2.16.972-2.16 2.196V50.02Zm35.683-8.856c.396-2.952 2.268-5.004 4.932-5.004 2.88 0 4.536 2.196 4.824 5.004h-9.756Zm12.276 8.748c.324-.324.576-.792.576-1.332 0-1.008-.756-1.764-1.728-1.764-.504 0-.792.144-1.116.396-1.224 1.008-2.664 1.656-4.5 1.656-2.808 0-5.004-1.728-5.472-4.824h11.916c1.116 0 2.052-.864 2.052-2.088 0-4.392-2.988-9.36-9.036-9.36-5.436 0-9.288 4.464-9.288 9.9v.072c0 5.868 4.248 9.864 9.756 9.864 2.952 0 5.112-.972 6.84-2.52Zm9.233-5.688c.828 0 1.404-.648 1.548-1.44l.144-1.656c3.996-.684 7.272-2.736 7.272-7.272v-.072c0-4.5-3.42-7.308-8.46-7.308-3.312 0-5.724 1.188-7.632 2.988a2.023 2.023 0 0 0-.72 1.548c0 1.08.9 1.98 2.016 1.98.504 0 .972-.216 1.332-.504 1.44-1.296 2.988-1.98 4.896-1.98 2.592 0 4.14 1.404 4.14 3.42V34c0 2.268-1.872 3.564-5.256 3.888-.972.108-1.548.828-1.404 1.8l.36 3.096c.108.828.72 1.44 1.548 1.44h.216Zm-2.772 5.112v.36c0 1.404 1.08 2.484 2.556 2.484s2.556-1.08 2.556-2.484v-.36c0-1.404-1.08-2.484-2.556-2.484s-2.556 1.08-2.556 2.484Z" fill="#000"/><path d="M28.144 45.524c.432 1.152 1.224 1.836 2.304 1.836h.432c1.08 0 1.908-.684 2.304-1.836L38.8 29.072l5.616 16.452c.396 1.152 1.188 1.836 2.268 1.836h.432c1.08 0 1.908-.72 2.304-1.836l7.452-20.88c.108-.252.216-.612.216-.9 0-1.188-1.008-2.124-2.196-2.124-1.08 0-1.836.684-2.16 1.584l-5.796 17.352-5.688-17.244c-.324-1.044-1.116-1.764-2.232-1.764h-.324c-1.116 0-1.872.72-2.232 1.764l-5.688 17.244-5.796-17.316a2.258 2.258 0 0 0-2.196-1.62c-1.224 0-2.268.936-2.268 2.16 0 .288.072.612.18.864l7.452 20.88Zm30.991-.504c0 1.224.972 2.16 2.16 2.16 1.224 0 2.196-.936 2.196-2.16v-8.748c0-2.952 1.764-4.716 4.284-4.716 2.592 0 4.068 1.692 4.068 4.644v8.82c0 1.224.972 2.16 2.196 2.16 1.224 0 2.16-.936 2.16-2.16V34.868c0-4.392-2.484-7.272-6.768-7.272-2.952 0-4.716 1.548-5.94 3.312V22.7c0-1.188-.972-2.16-2.196-2.16-1.224 0-2.16.972-2.16 2.16v22.32Zm23.7 7.848c3.06 0 4.787-1.44 6.407-5.328l6.948-16.668c.072-.216.18-.684.18-1.044 0-1.152-.936-2.052-2.088-2.052-1.116 0-1.728.756-2.088 1.656l-4.752 12.636-5.112-12.636c-.396-1.008-1.008-1.656-2.124-1.656-1.224 0-2.16.9-2.16 2.124 0 .288.108.72.252 1.044l7.056 15.768-.144.396c-.72 1.476-1.404 2.016-2.7 2.016-.612 0-1.008-.108-1.512-.252a2.223 2.223 0 0 0-.792-.144c-.936 0-1.764.72-1.764 1.8 0 1.044.72 1.584 1.368 1.8.9.36 1.8.54 3.024.54Zm24.793-29.772c0 1.296 1.08 2.16 2.484 2.16s2.484-.864 2.484-2.16v-.216c0-1.296-1.08-2.124-2.484-2.124s-2.484.828-2.484 2.124v.216Zm.324 21.924c0 1.224.972 2.16 2.16 2.16 1.224 0 2.196-.936 2.196-2.16V29.972a2.182 2.182 0 0 0-2.196-2.196c-1.224 0-2.16.972-2.16 2.196V45.02Zm14.765 2.34c3.96 0 7.056-1.98 7.056-5.976v-.072c0-3.42-3.132-4.68-5.904-5.544-2.232-.72-4.284-1.296-4.284-2.7v-.072c0-1.08.972-1.872 2.664-1.872 1.332 0 2.916.504 4.464 1.296.288.144.504.216.864.216 1.008 0 1.8-.756 1.8-1.764 0-.756-.432-1.332-1.044-1.656-1.836-.972-3.96-1.548-5.976-1.548-3.78 0-6.768 2.196-6.768 5.796v.072c0 3.636 3.132 4.788 5.94 5.58 2.232.684 4.248 1.188 4.248 2.664v.072c0 1.26-1.08 2.052-2.952 2.052-1.728 0-3.636-.612-5.472-1.836a1.9 1.9 0 0 0-.936-.252 1.744 1.744 0 0 0-1.764 1.764c0 .72.36 1.26.828 1.512 2.196 1.512 4.824 2.268 7.236 2.268Zm19.216-2.592c0 1.26.972 2.232 2.232 2.232h9.432c5.616 0 9.324-2.412 9.324-6.912v-.072c0-3.42-2.052-5.112-5.004-6.12 1.872-.972 3.6-2.592 3.6-5.616v-.072c0-1.692-.576-3.06-1.692-4.176-1.44-1.44-3.708-2.232-6.588-2.232h-9.072c-1.26 0-2.232.972-2.232 2.232v20.736Zm4.356-12.348v-6.696h6.372c2.844 0 4.428 1.224 4.428 3.204V29c0 2.304-1.908 3.42-4.752 3.42h-6.048Zm0 10.656v-6.912h7.02c3.492 0 5.184 1.26 5.184 3.384v.072c0 2.268-1.836 3.456-4.86 3.456h-7.344Zm22.596-6.912c.396-2.952 2.268-5.004 4.932-5.004 2.88 0 4.536 2.196 4.824 5.004h-9.756Zm12.276 8.748c.324-.324.576-.792.576-1.332 0-1.008-.756-1.764-1.728-1.764-.504 0-.792.144-1.116.396-1.224 1.008-2.664 1.656-4.5 1.656-2.808 0-5.004-1.728-5.472-4.824h11.916c1.116 0 2.052-.864 2.052-2.088 0-4.392-2.988-9.36-9.036-9.36-5.436 0-9.288 4.464-9.288 9.9v.072c0 5.868 4.248 9.864 9.756 9.864 2.952 0 5.112-.972 6.84-2.52Zm7.651-8.748c.396-2.952 2.268-5.004 4.932-5.004 2.88 0 4.536 2.196 4.824 5.004h-9.756Zm12.276 8.748c.324-.324.576-.792.576-1.332 0-1.008-.756-1.764-1.728-1.764-.504 0-.792.144-1.116.396-1.224 1.008-2.664 1.656-4.5 1.656-2.808 0-5.004-1.728-5.472-4.824h11.916c1.116 0 2.052-.864 2.052-2.088 0-4.392-2.988-9.36-9.036-9.36-5.436 0-9.288 4.464-9.288 9.9v.072c0 5.868 4.248 9.864 9.756 9.864 2.952 0 5.112-.972 6.84-2.52Zm10.747 2.412c1.152 0 2.052-.18 2.988-.504.612-.252 1.152-.9 1.152-1.692 0-1.008-.864-1.8-1.836-1.8-.144 0-.576.108-1.08.108-1.476 0-2.34-.684-2.34-2.376v-9.324h3.42c1.044 0 1.908-.828 1.908-1.872s-.864-1.872-1.908-1.872h-3.42v-3.24c0-1.188-.972-2.16-2.16-2.16-1.224 0-2.196.972-2.196 2.16v3.24h-.72a1.86 1.86 0 0 0-1.872 1.872 1.86 1.86 0 0 0 1.872 1.872h.72v10.008c0 4.176 2.268 5.58 5.472 5.58Zm6.628-2.304c0 1.224.972 2.16 2.16 2.16 1.224 0 2.196-.936 2.196-2.16v-8.748c0-2.952 1.764-4.716 4.284-4.716 2.592 0 4.068 1.692 4.068 4.644v8.82c0 1.224.972 2.16 2.196 2.16 1.224 0 2.16-.936 2.16-2.16V34.868c0-4.392-2.484-7.272-6.768-7.272-2.952 0-4.716 1.548-5.94 3.312V22.7c0-1.188-.972-2.16-2.196-2.16-1.224 0-2.16.972-2.16 2.16v22.32Zm29.561 2.412c5.868 0 10.188-4.5 10.188-9.9v-.072c0-5.436-4.284-9.864-10.116-9.864s-10.152 4.5-10.152 9.936v.072c0 5.4 4.284 9.828 10.08 9.828Zm.072-3.816c-3.384 0-5.796-2.772-5.796-6.084v-.072c0-3.312 2.232-6.048 5.724-6.048 3.42 0 5.832 2.772 5.832 6.12v.072c0 3.276-2.232 6.012-5.76 6.012Zm22.347 1.836 6.336-14.544c.108-.216.252-.648.252-1.044 0-1.188-.936-2.088-2.124-2.088-1.152 0-1.728.756-2.052 1.512l-4.968 12.672-4.896-12.6c-.36-.9-.972-1.584-2.16-1.584-1.188 0-2.16 1.008-2.16 2.088 0 .396.144.756.252 1.08l6.336 14.508c.504 1.152 1.296 1.908 2.484 1.908h.216c1.188 0 1.98-.792 2.484-1.908Zm11.357-9.288c.396-2.952 2.268-5.004 4.932-5.004 2.88 0 4.536 2.196 4.824 5.004H281.8Zm12.276 8.748c.324-.324.576-.792.576-1.332 0-1.008-.756-1.764-1.728-1.764-.504 0-.792.144-1.116.396-1.224 1.008-2.664 1.656-4.5 1.656-2.808 0-5.004-1.728-5.472-4.824h11.916c1.116 0 2.052-.864 2.052-2.088 0-4.392-2.988-9.36-9.036-9.36-5.436 0-9.288 4.464-9.288 9.9v.072c0 5.868 4.248 9.864 9.756 9.864 2.952 0 5.112-.972 6.84-2.52Zm4.375.108c0 1.224.972 2.16 2.16 2.16 1.224 0 2.196-.936 2.196-2.16v-8.748c0-2.952 1.764-4.716 4.284-4.716 2.592 0 4.068 1.692 4.068 4.644v8.82c0 1.224.972 2.16 2.196 2.16 1.224 0 2.16-.936 2.16-2.16V34.868c0-4.392-2.484-7.272-6.768-7.272-2.952 0-4.716 1.548-5.94 3.312v-.936a2.182 2.182 0 0 0-2.196-2.196c-1.224 0-2.16.972-2.16 2.196V45.02Z" fill="#00E59D"/><path d="M327.176 45.128a2.02 2.02 0 0 0 2.016 2.052c.972 0 1.548-.432 2.16-1.224l6.66-8.676 6.768 8.82c.54.72 1.08 1.08 2.016 1.08 1.26 0 2.196-.936 2.196-2.16 0-.648-.324-1.188-.684-1.656l-7.416-9.252 7.056-8.784c.432-.54.684-1.044.684-1.692 0-1.224-1.044-2.016-2.016-2.016s-1.584.432-2.16 1.224l-6.3 8.244-6.372-8.388c-.54-.72-1.08-1.08-2.016-1.08-1.26 0-2.196.936-2.196 2.16 0 .612.324 1.188.684 1.656l7.056 8.748-7.488 9.288c-.396.54-.648 1.044-.648 1.656Zm32.46 0c0 1.152.9 2.052 2.052 2.052.936 0 1.692-.504 2.052-1.404l2.124-4.86h12.24l2.052 4.716c.396.936 1.116 1.548 2.16 1.548 1.188 0 2.088-.936 2.088-2.124 0-.288-.072-.612-.252-.936l-9.36-20.88c-.504-1.116-1.368-1.8-2.628-1.8h-.216c-1.26 0-2.16.684-2.664 1.8l-9.36 20.88c-.18.36-.288.684-.288 1.008Zm7.92-8.136 4.428-10.188 4.428 10.188h-8.856Zm24.454 10.332h.144c1.044 0 1.944-.612 2.34-1.872l3.744-11.304 3.708 11.304c.396 1.26 1.296 1.872 2.376 1.872h.144c1.044 0 1.944-.612 2.412-1.944l5.184-14.616c.072-.216.18-.648.18-.972a2.02 2.02 0 0 0-2.052-2.016c-1.152 0-1.836.756-2.124 1.692l-3.708 11.556-3.744-11.52c-.324-1.008-1.116-1.728-2.232-1.728h-.252c-1.116 0-1.908.72-2.232 1.728l-3.708 11.52-3.672-11.52c-.324-1.008-1.044-1.728-2.124-1.728-1.296 0-2.124.972-2.124 2.016 0 .36.108.828.216 1.116l5.112 14.472c.432 1.332 1.332 1.944 2.412 1.944Zm25.198-11.16c.396-2.952 2.268-5.004 4.932-5.004 2.88 0 4.536 2.196 4.824 5.004h-9.756Zm12.276 8.748c.324-.324.576-.792.576-1.332 0-1.008-.756-1.764-1.728-1.764-.504 0-.792.144-1.116.396-1.224 1.008-2.664 1.656-4.5 1.656-2.808 0-5.004-1.728-5.472-4.824h11.916c1.116 0 2.052-.864 2.052-2.088 0-4.392-2.988-9.36-9.036-9.36-5.436 0-9.288 4.464-9.288 9.9v.072c0 5.868 4.248 9.864 9.756 9.864 2.952 0 5.112-.972 6.84-2.52Zm10.891 2.448c3.96 0 7.056-1.98 7.056-5.976v-.072c0-3.42-3.132-4.68-5.904-5.544-2.232-.72-4.284-1.296-4.284-2.7v-.072c0-1.08.972-1.872 2.664-1.872 1.332 0 2.916.504 4.464 1.296.288.144.504.216.864.216 1.008 0 1.8-.756 1.8-1.764 0-.756-.432-1.332-1.044-1.656-1.836-.972-3.96-1.548-5.976-1.548-3.78 0-6.768 2.196-6.768 5.796v.072c0 3.636 3.132 4.788 5.94 5.58 2.232.684 4.248 1.188 4.248 2.664v.072c0 1.26-1.08 2.052-2.952 2.052-1.728 0-3.636-.612-5.472-1.836a1.9 1.9 0 0 0-.936-.252 1.744 1.744 0 0 0-1.764 1.764c0 .72.36 1.26.828 1.512 2.196 1.512 4.824 2.268 7.236 2.268Zm18.755.072c5.868 0 10.188-4.5 10.188-9.9v-.072c0-5.436-4.284-9.864-10.116-9.864s-10.152 4.5-10.152 9.936v.072c0 5.4 4.284 9.828 10.08 9.828Zm.072-3.816c-3.384 0-5.796-2.772-5.796-6.084v-.072c0-3.312 2.232-6.048 5.724-6.048 3.42 0 5.832 2.772 5.832 6.12v.072c0 3.276-2.232 6.012-5.76 6.012Zm12.752 1.404c0 1.224.972 2.16 2.16 2.16 1.224 0 2.196-.936 2.196-2.16v-8.748c0-2.916 1.656-4.716 4.068-4.716s3.852 1.656 3.852 4.608v8.856c0 1.224.972 2.16 2.196 2.16 1.188 0 2.16-.936 2.16-2.16v-8.748c0-3.06 1.692-4.716 4.068-4.716 2.448 0 3.852 1.62 3.852 4.644v8.82c0 1.224.972 2.16 2.196 2.16 1.224 0 2.16-.936 2.16-2.16V34.868c0-4.644-2.52-7.272-6.66-7.272-2.88 0-4.896 1.332-6.408 3.348-1.008-2.016-2.952-3.348-5.688-3.348-2.916 0-4.572 1.584-5.796 3.276v-.9a2.182 2.182 0 0 0-2.196-2.196c-1.224 0-2.16.972-2.16 2.196V45.02Zm35.683-8.856c.396-2.952 2.268-5.004 4.932-5.004 2.88 0 4.536 2.196 4.824 5.004h-9.756Zm12.276 8.748c.324-.324.576-.792.576-1.332 0-1.008-.756-1.764-1.728-1.764-.504 0-.792.144-1.116.396-1.224 1.008-2.664 1.656-4.5 1.656-2.808 0-5.004-1.728-5.472-4.824h11.916c1.116 0 2.052-.864 2.052-2.088 0-4.392-2.988-9.36-9.036-9.36-5.436 0-9.288 4.464-9.288 9.9v.072c0 5.868 4.248 9.864 9.756 9.864 2.952 0 5.112-.972 6.84-2.52Zm9.233-5.688c.828 0 1.404-.648 1.548-1.44l.144-1.656c3.996-.684 7.272-2.736 7.272-7.272v-.072c0-4.5-3.42-7.308-8.46-7.308-3.312 0-5.724 1.188-7.632 2.988a2.023 2.023 0 0 0-.72 1.548c0 1.08.9 1.98 2.016 1.98.504 0 .972-.216 1.332-.504 1.44-1.296 2.988-1.98 4.896-1.98 2.592 0 4.14 1.404 4.14 3.42V29c0 2.268-1.872 3.564-5.256 3.888-.972.108-1.548.828-1.404 1.8l.36 3.096c.108.828.72 1.44 1.548 1.44h.216Zm-2.772 5.112v.36c0 1.404 1.08 2.484 2.556 2.484s2.556-1.08 2.556-2.484v-.36c0-1.404-1.08-2.484-2.556-2.484s-2.556 1.08-2.556 2.484Z" fill="red"/><g filter="url(#a)"><path d="M28.144 45.524c.432 1.152 1.224 1.836 2.304 1.836h.432c1.08 0 1.908-.684 2.304-1.836L38.8 29.072l5.616 16.452c.396 1.152 1.188 1.836 2.268 1.836h.432c1.08 0 1.908-.72 2.304-1.836l7.452-20.88c.108-.252.216-.612.216-.9 0-1.188-1.008-2.124-2.196-2.124-1.08 0-1.836.684-2.16 1.584l-5.796 17.352-5.688-17.244c-.324-1.044-1.116-1.764-2.232-1.764h-.324c-1.116 0-1.872.72-2.232 1.764l-5.688 17.244-5.796-17.316a2.258 2.258 0 0 0-2.196-1.62c-1.224 0-2.268.936-2.268 2.16 0 .288.072.612.18.864l7.452 20.88Zm30.991-.504c0 1.224.972 2.16 2.16 2.16 1.224 0 2.196-.936 2.196-2.16v-8.748c0-2.952 1.764-4.716 4.284-4.716 2.592 0 4.068 1.692 4.068 4.644v8.82c0 1.224.972 2.16 2.196 2.16 1.224 0 2.16-.936 2.16-2.16V34.868c0-4.392-2.484-7.272-6.768-7.272-2.952 0-4.716 1.548-5.94 3.312V22.7c0-1.188-.972-2.16-2.196-2.16-1.224 0-2.16.972-2.16 2.16v22.32Zm23.7 7.848c3.06 0 4.787-1.44 6.407-5.328l6.948-16.668c.072-.216.18-.684.18-1.044 0-1.152-.936-2.052-2.088-2.052-1.116 0-1.728.756-2.088 1.656l-4.752 12.636-5.112-12.636c-.396-1.008-1.008-1.656-2.124-1.656-1.224 0-2.16.9-2.16 2.124 0 .288.108.72.252 1.044l7.056 15.768-.144.396c-.72 1.476-1.404 2.016-2.7 2.016-.612 0-1.008-.108-1.512-.252a2.223 2.223 0 0 0-.792-.144c-.936 0-1.764.72-1.764 1.8 0 1.044.72 1.584 1.368 1.8.9.36 1.8.54 3.024.54Zm24.793-29.772c0 1.296 1.08 2.16 2.484 2.16s2.484-.864 2.484-2.16v-.216c0-1.296-1.08-2.124-2.484-2.124s-2.484.828-2.484 2.124v.216Zm.324 21.924c0 1.224.972 2.16 2.16 2.16 1.224 0 2.196-.936 2.196-2.16V29.972a2.182 2.182 0 0 0-2.196-2.196c-1.224 0-2.16.972-2.16 2.196V45.02Zm14.765 2.34c3.96 0 7.056-1.98 7.056-5.976v-.072c0-3.42-3.132-4.68-5.904-5.544-2.232-.72-4.284-1.296-4.284-2.7v-.072c0-1.08.972-1.872 2.664-1.872 1.332 0 2.916.504 4.464 1.296.288.144.504.216.864.216 1.008 0 1.8-.756 1.8-1.764 0-.756-.432-1.332-1.044-1.656-1.836-.972-3.96-1.548-5.976-1.548-3.78 0-6.768 2.196-6.768 5.796v.072c0 3.636 3.132 4.788 5.94 5.58 2.232.684 4.248 1.188 4.248 2.664v.072c0 1.26-1.08 2.052-2.952 2.052-1.728 0-3.636-.612-5.472-1.836a1.9 1.9 0 0 0-.936-.252 1.744 1.744 0 0 0-1.764 1.764c0 .72.36 1.26.828 1.512 2.196 1.512 4.824 2.268 7.236 2.268Zm19.216-2.592c0 1.26.972 2.232 2.232 2.232h9.432c5.616 0 9.324-2.412 9.324-6.912v-.072c0-3.42-2.052-5.112-5.004-6.12 1.872-.972 3.6-2.592 3.6-5.616v-.072c0-1.692-.576-3.06-1.692-4.176-1.44-1.44-3.708-2.232-6.588-2.232h-9.072c-1.26 0-2.232.972-2.232 2.232v20.736Zm4.356-12.348v-6.696h6.372c2.844 0 4.428 1.224 4.428 3.204V29c0 2.304-1.908 3.42-4.752 3.42h-6.048Zm0 10.656v-6.912h7.02c3.492 0 5.184 1.26 5.184 3.384v.072c0 2.268-1.836 3.456-4.86 3.456h-7.344Zm22.596-6.912c.396-2.952 2.268-5.004 4.932-5.004 2.88 0 4.536 2.196 4.824 5.004h-9.756Zm12.276 8.748c.324-.324.576-.792.576-1.332 0-1.008-.756-1.764-1.728-1.764-.504 0-.792.144-1.116.396-1.224 1.008-2.664 1.656-4.5 1.656-2.808 0-5.004-1.728-5.472-4.824h11.916c1.116 0 2.052-.864 2.052-2.088 0-4.392-2.988-9.36-9.036-9.36-5.436 0-9.288 4.464-9.288 9.9v.072c0 5.868 4.248 9.864 9.756 9.864 2.952 0 5.112-.972 6.84-2.52Zm7.651-8.748c.396-2.952 2.268-5.004 4.932-5.004 2.88 0 4.536 2.196 4.824 5.004h-9.756Zm12.276 8.748c.324-.324.576-.792.576-1.332 0-1.008-.756-1.764-1.728-1.764-.504 0-.792.144-1.116.396-1.224 1.008-2.664 1.656-4.5 1.656-2.808 0-5.004-1.728-5.472-4.824h11.916c1.116 0 2.052-.864 2.052-2.088 0-4.392-2.988-9.36-9.036-9.36-5.436 0-9.288 4.464-9.288 9.9v.072c0 5.868 4.248 9.864 9.756 9.864 2.952 0 5.112-.972 6.84-2.52Zm10.747 2.412c1.152 0 2.052-.18 2.988-.504.612-.252 1.152-.9 1.152-1.692 0-1.008-.864-1.8-1.836-1.8-.144 0-.576.108-1.08.108-1.476 0-2.34-.684-2.34-2.376v-9.324h3.42c1.044 0 1.908-.828 1.908-1.872s-.864-1.872-1.908-1.872h-3.42v-3.24c0-1.188-.972-2.16-2.16-2.16-1.224 0-2.196.972-2.196 2.16v3.24h-.72a1.86 1.86 0 0 0-1.872 1.872 1.86 1.86 0 0 0 1.872 1.872h.72v10.008c0 4.176 2.268 5.58 5.472 5.58Zm6.628-2.304c0 1.224.972 2.16 2.16 2.16 1.224 0 2.196-.936 2.196-2.16v-8.748c0-2.952 1.764-4.716 4.284-4.716 2.592 0 4.068 1.692 4.068 4.644v8.82c0 1.224.972 2.16 2.196 2.16 1.224 0 2.16-.936 2.16-2.16V34.868c0-4.392-2.484-7.272-6.768-7.272-2.952 0-4.716 1.548-5.94 3.312V22.7c0-1.188-.972-2.16-2.196-2.16-1.224 0-2.16.972-2.16 2.16v22.32Zm29.561 2.412c5.868 0 10.188-4.5 10.188-9.9v-.072c0-5.436-4.284-9.864-10.116-9.864s-10.152 4.5-10.152 9.936v.072c0 5.4 4.284 9.828 10.08 9.828Zm.072-3.816c-3.384 0-5.796-2.772-5.796-6.084v-.072c0-3.312 2.232-6.048 5.724-6.048 3.42 0 5.832 2.772 5.832 6.12v.072c0 3.276-2.232 6.012-5.76 6.012Zm22.347 1.836 6.336-14.544c.108-.216.252-.648.252-1.044 0-1.188-.936-2.088-2.124-2.088-1.152 0-1.728.756-2.052 1.512l-4.968 12.672-4.896-12.6c-.36-.9-.972-1.584-2.16-1.584-1.188 0-2.16 1.008-2.16 2.088 0 .396.144.756.252 1.08l6.336 14.508c.504 1.152 1.296 1.908 2.484 1.908h.216c1.188 0 1.98-.792 2.484-1.908Zm11.357-9.288c.396-2.952 2.268-5.004 4.932-5.004 2.88 0 4.536 2.196 4.824 5.004H281.8Zm12.276 8.748c.324-.324.576-.792.576-1.332 0-1.008-.756-1.764-1.728-1.764-.504 0-.792.144-1.116.396-1.224 1.008-2.664 1.656-4.5 1.656-2.808 0-5.004-1.728-5.472-4.824h11.916c1.116 0 2.052-.864 2.052-2.088 0-4.392-2.988-9.36-9.036-9.36-5.436 0-9.288 4.464-9.288 9.9v.072c0 5.868 4.248 9.864 9.756 9.864 2.952 0 5.112-.972 6.84-2.52Zm4.375.108c0 1.224.972 2.16 2.16 2.16 1.224 0 2.196-.936 2.196-2.16v-8.748c0-2.952 1.764-4.716 4.284-4.716 2.592 0 4.068 1.692 4.068 4.644v8.82c0 1.224.972 2.16 2.196 2.16 1.224 0 2.16-.936 2.16-2.16V34.868c0-4.392-2.484-7.272-6.768-7.272-2.952 0-4.716 1.548-5.94 3.312v-.936a2.182 2.182 0 0 0-2.196-2.196c-1.224 0-2.16.972-2.16 2.196V45.02Z" fill="#00E59D"/><path d="M327.176 45.128a2.02 2.02 0 0 0 2.016 2.052c.972 0 1.548-.432 2.16-1.224l6.66-8.676 6.768 8.82c.54.72 1.08 1.08 2.016 1.08 1.26 0 2.196-.936 2.196-2.16 0-.648-.324-1.188-.684-1.656l-7.416-9.252 7.056-8.784c.432-.54.684-1.044.684-1.692 0-1.224-1.044-2.016-2.016-2.016s-1.584.432-2.16 1.224l-6.3 8.244-6.372-8.388c-.54-.72-1.08-1.08-2.016-1.08-1.26 0-2.196.936-2.196 2.16 0 .612.324 1.188.684 1.656l7.056 8.748-7.488 9.288c-.396.54-.648 1.044-.648 1.656Zm32.46 0c0 1.152.9 2.052 2.052 2.052.936 0 1.692-.504 2.052-1.404l2.124-4.86h12.24l2.052 4.716c.396.936 1.116 1.548 2.16 1.548 1.188 0 2.088-.936 2.088-2.124 0-.288-.072-.612-.252-.936l-9.36-20.88c-.504-1.116-1.368-1.8-2.628-1.8h-.216c-1.26 0-2.16.684-2.664 1.8l-9.36 20.88c-.18.36-.288.684-.288 1.008Zm7.92-8.136 4.428-10.188 4.428 10.188h-8.856Zm24.454 10.332h.144c1.044 0 1.944-.612 2.34-1.872l3.744-11.304 3.708 11.304c.396 1.26 1.296 1.872 2.376 1.872h.144c1.044 0 1.944-.612 2.412-1.944l5.184-14.616c.072-.216.18-.648.18-.972a2.02 2.02 0 0 0-2.052-2.016c-1.152 0-1.836.756-2.124 1.692l-3.708 11.556-3.744-11.52c-.324-1.008-1.116-1.728-2.232-1.728h-.252c-1.116 0-1.908.72-2.232 1.728l-3.708 11.52-3.672-11.52c-.324-1.008-1.044-1.728-2.124-1.728-1.296 0-2.124.972-2.124 2.016 0 .36.108.828.216 1.116l5.112 14.472c.432 1.332 1.332 1.944 2.412 1.944Zm25.198-11.16c.396-2.952 2.268-5.004 4.932-5.004 2.88 0 4.536 2.196 4.824 5.004h-9.756Zm12.276 8.748c.324-.324.576-.792.576-1.332 0-1.008-.756-1.764-1.728-1.764-.504 0-.792.144-1.116.396-1.224 1.008-2.664 1.656-4.5 1.656-2.808 0-5.004-1.728-5.472-4.824h11.916c1.116 0 2.052-.864 2.052-2.088 0-4.392-2.988-9.36-9.036-9.36-5.436 0-9.288 4.464-9.288 9.9v.072c0 5.868 4.248 9.864 9.756 9.864 2.952 0 5.112-.972 6.84-2.52Zm10.891 2.448c3.96 0 7.056-1.98 7.056-5.976v-.072c0-3.42-3.132-4.68-5.904-5.544-2.232-.72-4.284-1.296-4.284-2.7v-.072c0-1.08.972-1.872 2.664-1.872 1.332 0 2.916.504 4.464 1.296.288.144.504.216.864.216 1.008 0 1.8-.756 1.8-1.764 0-.756-.432-1.332-1.044-1.656-1.836-.972-3.96-1.548-5.976-1.548-3.78 0-6.768 2.196-6.768 5.796v.072c0 3.636 3.132 4.788 5.94 5.58 2.232.684 4.248 1.188 4.248 2.664v.072c0 1.26-1.08 2.052-2.952 2.052-1.728 0-3.636-.612-5.472-1.836a1.9 1.9 0 0 0-.936-.252 1.744 1.744 0 0 0-1.764 1.764c0 .72.36 1.26.828 1.512 2.196 1.512 4.824 2.268 7.236 2.268Zm18.755.072c5.868 0 10.188-4.5 10.188-9.9v-.072c0-5.436-4.284-9.864-10.116-9.864s-10.152 4.5-10.152 9.936v.072c0 5.4 4.284 9.828 10.08 9.828Zm.072-3.816c-3.384 0-5.796-2.772-5.796-6.084v-.072c0-3.312 2.232-6.048 5.724-6.048 3.42 0 5.832 2.772 5.832 6.12v.072c0 3.276-2.232 6.012-5.76 6.012Zm12.752 1.404c0 1.224.972 2.16 2.16 2.16 1.224 0 2.196-.936 2.196-2.16v-8.748c0-2.916 1.656-4.716 4.068-4.716s3.852 1.656 3.852 4.608v8.856c0 1.224.972 2.16 2.196 2.16 1.188 0 2.16-.936 2.16-2.16v-8.748c0-3.06 1.692-4.716 4.068-4.716 2.448 0 3.852 1.62 3.852 4.644v8.82c0 1.224.972 2.16 2.196 2.16 1.224 0 2.16-.936 2.16-2.16V34.868c0-4.644-2.52-7.272-6.66-7.272-2.88 0-4.896 1.332-6.408 3.348-1.008-2.016-2.952-3.348-5.688-3.348-2.916 0-4.572 1.584-5.796 3.276v-.9a2.182 2.182 0 0 0-2.196-2.196c-1.224 0-2.16.972-2.16 2.196V45.02Zm35.683-8.856c.396-2.952 2.268-5.004 4.932-5.004 2.88 0 4.536 2.196 4.824 5.004h-9.756Zm12.276 8.748c.324-.324.576-.792.576-1.332 0-1.008-.756-1.764-1.728-1.764-.504 0-.792.144-1.116.396-1.224 1.008-2.664 1.656-4.5 1.656-2.808 0-5.004-1.728-5.472-4.824h11.916c1.116 0 2.052-.864 2.052-2.088 0-4.392-2.988-9.36-9.036-9.36-5.436 0-9.288 4.464-9.288 9.9v.072c0 5.868 4.248 9.864 9.756 9.864 2.952 0 5.112-.972 6.84-2.52Zm9.233-5.688c.828 0 1.404-.648 1.548-1.44l.144-1.656c3.996-.684 7.272-2.736 7.272-7.272v-.072c0-4.5-3.42-7.308-8.46-7.308-3.312 0-5.724 1.188-7.632 2.988a2.023 2.023 0 0 0-.72 1.548c0 1.08.9 1.98 2.016 1.98.504 0 .972-.216 1.332-.504 1.44-1.296 2.988-1.98 4.896-1.98 2.592 0 4.14 1.404 4.14 3.42V29c0 2.268-1.872 3.564-5.256 3.888-.972.108-1.548.828-1.404 1.8l.36 3.096c.108.828.72 1.44 1.548 1.44h.216Zm-2.772 5.112v.36c0 1.404 1.08 2.484 2.556 2.484s2.556-1.08 2.556-2.484v-.36c0-1.404-1.08-2.484-2.556-2.484s-2.556 1.08-2.556 2.484Z" fill="red"/></g><defs><filter id="a" x=".512" y=".54" width="557.599" height="72.328" filterUnits="userSpaceOnUse" color-interpolation-filters="sRGB"><feFlood flood-opacity="0" result="BackgroundImageFix"/><feBlend in="SourceGraphic" in2="BackgroundImageFix" result="shape"/><feGaussianBlur stdDeviation="10" result="effect1_foregroundBlur_944_101"/></filter></defs></svg>