<svg width="559" height="73" viewBox="0 0 559 73" fill="none" xmlns="http://www.w3.org/2000/svg">
<path d="M28.144 50.524C28.576 51.676 29.368 52.36 30.448 52.36H30.88C31.96 52.36 32.788 51.676 33.184 50.524L38.8 34.072L44.416 50.524C44.812 51.676 45.604 52.36 46.684 52.36H47.116C48.196 52.36 49.024 51.64 49.42 50.524L56.872 29.644C56.98 29.392 57.088 29.032 57.088 28.744C57.088 27.556 56.08 26.62 54.892 26.62C53.812 26.62 53.056 27.304 52.732 28.204L46.936 45.556L41.248 28.312C40.924 27.268 40.132 26.548 39.016 26.548H38.692C37.576 26.548 36.82 27.268 36.46 28.312L30.772 45.556L24.976 28.24C24.688 27.304 23.86 26.62 22.78 26.62C21.556 26.62 20.512 27.556 20.512 28.78C20.512 29.068 20.584 29.392 20.692 29.644L28.144 50.524ZM59.1352 50.02C59.1352 51.244 60.1072 52.18 61.2952 52.18C62.5192 52.18 63.4912 51.244 63.4912 50.02V41.272C63.4912 38.32 65.2552 36.556 67.7752 36.556C70.3672 36.556 71.8432 38.248 71.8432 41.2V50.02C71.8432 51.244 72.8152 52.18 74.0392 52.18C75.2632 52.18 76.1992 51.244 76.1992 50.02V39.868C76.1992 35.476 73.7152 32.596 69.4312 32.596C66.4792 32.596 64.7152 34.144 63.4912 35.908V27.7C63.4912 26.512 62.5192 25.54 61.2952 25.54C60.0712 25.54 59.1352 26.512 59.1352 27.7V50.02ZM82.8342 57.868C85.8942 57.868 87.6222 56.428 89.2422 52.54L96.1902 35.872C96.2622 35.656 96.3702 35.188 96.3702 34.828C96.3702 33.676 95.4342 32.776 94.2822 32.776C93.1662 32.776 92.5542 33.532 92.1942 34.432L87.4422 47.068L82.3302 34.432C81.9342 33.424 81.3222 32.776 80.2062 32.776C78.9822 32.776 78.0462 33.676 78.0462 34.9C78.0462 35.188 78.1542 35.62 78.2982 35.944L85.3542 51.712L85.2102 52.108C84.4902 53.584 83.8062 54.124 82.5102 54.124C81.8982 54.124 81.5022 54.016 80.9982 53.872C80.7822 53.8 80.5662 53.728 80.2062 53.728C79.2702 53.728 78.4422 54.448 78.4422 55.528C78.4422 56.572 79.1622 57.112 79.8102 57.328C80.7102 57.688 81.6102 57.868 82.8342 57.868ZM107.628 28.096C107.628 29.392 108.708 30.256 110.112 30.256C111.516 30.256 112.596 29.392 112.596 28.096V27.88C112.596 26.584 111.516 25.756 110.112 25.756C108.708 25.756 107.628 26.584 107.628 27.88V28.096ZM107.952 50.02C107.952 51.244 108.924 52.18 110.112 52.18C111.336 52.18 112.308 51.244 112.308 50.02V34.972C112.308 33.748 111.336 32.776 110.112 32.776C108.888 32.776 107.952 33.748 107.952 34.972V50.02ZM122.717 52.36C126.677 52.36 129.773 50.38 129.773 46.384V46.312C129.773 42.892 126.641 41.632 123.869 40.768C121.637 40.048 119.585 39.472 119.585 38.068V37.996C119.585 36.916 120.557 36.124 122.249 36.124C123.581 36.124 125.165 36.628 126.713 37.42C127.001 37.564 127.217 37.636 127.577 37.636C128.585 37.636 129.377 36.88 129.377 35.872C129.377 35.116 128.945 34.54 128.333 34.216C126.497 33.244 124.373 32.668 122.357 32.668C118.577 32.668 115.589 34.864 115.589 38.464V38.536C115.589 42.172 118.721 43.324 121.529 44.116C123.761 44.8 125.777 45.304 125.777 46.78V46.852C125.777 48.112 124.697 48.904 122.825 48.904C121.097 48.904 119.189 48.292 117.353 47.068C117.101 46.924 116.777 46.816 116.417 46.816C115.409 46.816 114.653 47.608 114.653 48.58C114.653 49.3 115.013 49.84 115.481 50.092C117.677 51.604 120.305 52.36 122.717 52.36ZM141.933 49.768C141.933 51.028 142.905 52 144.165 52H153.597C159.213 52 162.921 49.588 162.921 45.088V45.016C162.921 41.596 160.869 39.904 157.917 38.896C159.789 37.924 161.517 36.304 161.517 33.28V33.208C161.517 31.516 160.941 30.148 159.825 29.032C158.385 27.592 156.117 26.8 153.237 26.8H144.165C142.905 26.8 141.933 27.772 141.933 29.032V49.768ZM146.289 37.42V30.724H152.661C155.505 30.724 157.089 31.948 157.089 33.928V34C157.089 36.304 155.181 37.42 152.337 37.42H146.289ZM146.289 48.076V41.164H153.309C156.801 41.164 158.493 42.424 158.493 44.548V44.62C158.493 46.888 156.657 48.076 153.633 48.076H146.289ZM168.885 41.164C169.281 38.212 171.153 36.16 173.817 36.16C176.697 36.16 178.353 38.356 178.641 41.164H168.885ZM181.161 49.912C181.485 49.588 181.737 49.12 181.737 48.58C181.737 47.572 180.981 46.816 180.009 46.816C179.505 46.816 179.217 46.96 178.893 47.212C177.669 48.22 176.229 48.868 174.393 48.868C171.585 48.868 169.389 47.14 168.921 44.044H180.837C181.953 44.044 182.889 43.18 182.889 41.956C182.889 37.564 179.901 32.596 173.853 32.596C168.417 32.596 164.565 37.06 164.565 42.496V42.568C164.565 48.436 168.813 52.432 174.321 52.432C177.273 52.432 179.433 51.46 181.161 49.912ZM188.812 41.164C189.208 38.212 191.08 36.16 193.744 36.16C196.624 36.16 198.28 38.356 198.568 41.164H188.812ZM201.088 49.912C201.412 49.588 201.664 49.12 201.664 48.58C201.664 47.572 200.908 46.816 199.936 46.816C199.432 46.816 199.144 46.96 198.82 47.212C197.596 48.22 196.156 48.868 194.32 48.868C191.512 48.868 189.316 47.14 188.848 44.044H200.764C201.88 44.044 202.816 43.18 202.816 41.956C202.816 37.564 199.828 32.596 193.78 32.596C188.344 32.596 184.492 37.06 184.492 42.496V42.568C184.492 48.436 188.74 52.432 194.248 52.432C197.2 52.432 199.36 51.46 201.088 49.912ZM211.835 52.324C212.987 52.324 213.887 52.144 214.823 51.82C215.435 51.568 215.975 50.92 215.975 50.128C215.975 49.12 215.111 48.328 214.139 48.328C213.995 48.328 213.563 48.436 213.059 48.436C211.583 48.436 210.719 47.752 210.719 46.06V36.736H214.139C215.183 36.736 216.047 35.908 216.047 34.864C216.047 33.82 215.183 32.992 214.139 32.992H210.719V29.752C210.719 28.564 209.747 27.592 208.559 27.592C207.335 27.592 206.363 28.564 206.363 29.752V32.992H205.643C204.599 32.992 203.771 33.82 203.771 34.864C203.771 35.908 204.599 36.736 205.643 36.736H206.363V46.744C206.363 50.92 208.631 52.324 211.835 52.324ZM218.463 50.02C218.463 51.244 219.435 52.18 220.623 52.18C221.847 52.18 222.819 51.244 222.819 50.02V41.272C222.819 38.32 224.583 36.556 227.103 36.556C229.695 36.556 231.171 38.248 231.171 41.2V50.02C231.171 51.244 232.143 52.18 233.367 52.18C234.591 52.18 235.527 51.244 235.527 50.02V39.868C235.527 35.476 233.043 32.596 228.759 32.596C225.807 32.596 224.043 34.144 222.819 35.908V27.7C222.819 26.512 221.847 25.54 220.623 25.54C219.399 25.54 218.463 26.512 218.463 27.7V50.02ZM248.024 52.432C253.892 52.432 258.212 47.932 258.212 42.532V42.46C258.212 37.024 253.928 32.596 248.096 32.596C242.264 32.596 237.944 37.096 237.944 42.532V42.604C237.944 48.004 242.228 52.432 248.024 52.432ZM248.096 48.616C244.712 48.616 242.3 45.844 242.3 42.532V42.46C242.3 39.148 244.532 36.412 248.024 36.412C251.444 36.412 253.856 39.184 253.856 42.532V42.604C253.856 45.88 251.624 48.616 248.096 48.616ZM270.443 50.452L276.779 35.908C276.887 35.692 277.031 35.26 277.031 34.864C277.031 33.676 276.095 32.776 274.907 32.776C273.755 32.776 273.179 33.532 272.855 34.288L267.887 46.96L262.991 34.36C262.631 33.46 262.019 32.776 260.831 32.776C259.643 32.776 258.671 33.784 258.671 34.864C258.671 35.26 258.815 35.62 258.923 35.944L265.259 50.452C265.763 51.604 266.555 52.36 267.743 52.36H267.959C269.147 52.36 269.939 51.568 270.443 50.452ZM281.8 41.164C282.196 38.212 284.068 36.16 286.732 36.16C289.612 36.16 291.268 38.356 291.556 41.164H281.8ZM294.076 49.912C294.4 49.588 294.652 49.12 294.652 48.58C294.652 47.572 293.896 46.816 292.924 46.816C292.42 46.816 292.132 46.96 291.808 47.212C290.584 48.22 289.144 48.868 287.308 48.868C284.5 48.868 282.304 47.14 281.836 44.044H293.752C294.868 44.044 295.804 43.18 295.804 41.956C295.804 37.564 292.816 32.596 286.768 32.596C281.332 32.596 277.48 37.06 277.48 42.496V42.568C277.48 48.436 281.728 52.432 287.236 52.432C290.188 52.432 292.348 51.46 294.076 49.912ZM298.451 50.02C298.451 51.244 299.423 52.18 300.611 52.18C301.835 52.18 302.807 51.244 302.807 50.02V41.272C302.807 38.32 304.571 36.556 307.091 36.556C309.683 36.556 311.159 38.248 311.159 41.2V50.02C311.159 51.244 312.131 52.18 313.355 52.18C314.579 52.18 315.515 51.244 315.515 50.02V39.868C315.515 35.476 313.031 32.596 308.747 32.596C305.795 32.596 304.031 34.144 302.807 35.908V34.972C302.807 33.748 301.835 32.776 300.611 32.776C299.387 32.776 298.451 33.748 298.451 34.972V50.02ZM327.176 50.128C327.176 51.388 328.184 52.18 329.192 52.18C330.164 52.18 330.74 51.748 331.352 50.956L338.012 42.28L344.78 51.1C345.32 51.82 345.86 52.18 346.796 52.18C348.056 52.18 348.992 51.244 348.992 50.02C348.992 49.372 348.668 48.832 348.308 48.364L340.892 39.112L347.948 30.328C348.38 29.788 348.632 29.284 348.632 28.636C348.632 27.412 347.588 26.62 346.616 26.62C345.644 26.62 345.032 27.052 344.456 27.844L338.156 36.088L331.784 27.7C331.244 26.98 330.704 26.62 329.768 26.62C328.508 26.62 327.572 27.556 327.572 28.78C327.572 29.392 327.896 29.968 328.256 30.436L335.312 39.184L327.824 48.472C327.428 49.012 327.176 49.516 327.176 50.128ZM359.636 50.128C359.636 51.28 360.536 52.18 361.688 52.18C362.624 52.18 363.38 51.676 363.74 50.776L365.864 45.916H378.104L380.156 50.632C380.552 51.568 381.272 52.18 382.316 52.18C383.504 52.18 384.404 51.244 384.404 50.056C384.404 49.768 384.332 49.444 384.152 49.12L374.792 28.24C374.288 27.124 373.424 26.44 372.164 26.44H371.948C370.688 26.44 369.788 27.124 369.284 28.24L359.924 49.12C359.744 49.48 359.636 49.804 359.636 50.128ZM367.556 41.992L371.984 31.804L376.412 41.992H367.556ZM392.01 52.324H392.154C393.198 52.324 394.098 51.712 394.494 50.452L398.238 39.148L401.946 50.452C402.342 51.712 403.242 52.324 404.322 52.324H404.466C405.51 52.324 406.41 51.712 406.878 50.38L412.062 35.764C412.134 35.548 412.242 35.116 412.242 34.792C412.242 33.712 411.378 32.776 410.19 32.776C409.038 32.776 408.354 33.532 408.066 34.468L404.358 46.024L400.614 34.504C400.29 33.496 399.498 32.776 398.382 32.776H398.13C397.014 32.776 396.222 33.496 395.898 34.504L392.19 46.024L388.518 34.504C388.194 33.496 387.474 32.776 386.394 32.776C385.098 32.776 384.27 33.748 384.27 34.792C384.27 35.152 384.378 35.62 384.486 35.908L389.598 50.38C390.03 51.712 390.93 52.324 392.01 52.324ZM417.208 41.164C417.604 38.212 419.476 36.16 422.14 36.16C425.02 36.16 426.676 38.356 426.964 41.164H417.208ZM429.484 49.912C429.808 49.588 430.06 49.12 430.06 48.58C430.06 47.572 429.304 46.816 428.332 46.816C427.828 46.816 427.54 46.96 427.216 47.212C425.992 48.22 424.552 48.868 422.716 48.868C419.908 48.868 417.712 47.14 417.244 44.044H429.16C430.276 44.044 431.212 43.18 431.212 41.956C431.212 37.564 428.224 32.596 422.176 32.596C416.74 32.596 412.888 37.06 412.888 42.496V42.568C412.888 48.436 417.136 52.432 422.644 52.432C425.596 52.432 427.756 51.46 429.484 49.912ZM440.375 52.36C444.335 52.36 447.431 50.38 447.431 46.384V46.312C447.431 42.892 444.299 41.632 441.527 40.768C439.295 40.048 437.243 39.472 437.243 38.068V37.996C437.243 36.916 438.215 36.124 439.907 36.124C441.239 36.124 442.823 36.628 444.371 37.42C444.659 37.564 444.875 37.636 445.235 37.636C446.243 37.636 447.035 36.88 447.035 35.872C447.035 35.116 446.603 34.54 445.991 34.216C444.155 33.244 442.031 32.668 440.015 32.668C436.235 32.668 433.247 34.864 433.247 38.464V38.536C433.247 42.172 436.379 43.324 439.187 44.116C441.419 44.8 443.435 45.304 443.435 46.78V46.852C443.435 48.112 442.355 48.904 440.483 48.904C438.755 48.904 436.847 48.292 435.011 47.068C434.759 46.924 434.435 46.816 434.075 46.816C433.067 46.816 432.311 47.608 432.311 48.58C432.311 49.3 432.671 49.84 433.139 50.092C435.335 51.604 437.963 52.36 440.375 52.36ZM459.13 52.432C464.998 52.432 469.318 47.932 469.318 42.532V42.46C469.318 37.024 465.034 32.596 459.202 32.596C453.37 32.596 449.05 37.096 449.05 42.532V42.604C449.05 48.004 453.334 52.432 459.13 52.432ZM459.202 48.616C455.818 48.616 453.406 45.844 453.406 42.532V42.46C453.406 39.148 455.638 36.412 459.13 36.412C462.55 36.412 464.962 39.184 464.962 42.532V42.604C464.962 45.88 462.73 48.616 459.202 48.616ZM471.954 50.02C471.954 51.244 472.926 52.18 474.114 52.18C475.338 52.18 476.31 51.244 476.31 50.02V41.272C476.31 38.356 477.966 36.556 480.378 36.556C482.79 36.556 484.23 38.212 484.23 41.164V50.02C484.23 51.244 485.202 52.18 486.426 52.18C487.614 52.18 488.586 51.244 488.586 50.02V41.272C488.586 38.212 490.278 36.556 492.654 36.556C495.102 36.556 496.506 38.176 496.506 41.2V50.02C496.506 51.244 497.478 52.18 498.702 52.18C499.926 52.18 500.862 51.244 500.862 50.02V39.868C500.862 35.224 498.342 32.596 494.202 32.596C491.322 32.596 489.306 33.928 487.794 35.944C486.786 33.928 484.842 32.596 482.106 32.596C479.19 32.596 477.534 34.18 476.31 35.872V34.972C476.31 33.748 475.338 32.776 474.114 32.776C472.89 32.776 471.954 33.748 471.954 34.972V50.02ZM507.637 41.164C508.033 38.212 509.905 36.16 512.569 36.16C515.449 36.16 517.105 38.356 517.393 41.164H507.637ZM519.913 49.912C520.237 49.588 520.489 49.12 520.489 48.58C520.489 47.572 519.733 46.816 518.761 46.816C518.257 46.816 517.969 46.96 517.645 47.212C516.421 48.22 514.981 48.868 513.145 48.868C510.337 48.868 508.141 47.14 507.673 44.044H519.589C520.705 44.044 521.641 43.18 521.641 41.956C521.641 37.564 518.653 32.596 512.605 32.596C507.169 32.596 503.317 37.06 503.317 42.496V42.568C503.317 48.436 507.565 52.432 513.073 52.432C516.025 52.432 518.185 51.46 519.913 49.912ZM529.146 44.224C529.974 44.224 530.55 43.576 530.694 42.784L530.838 41.128C534.834 40.444 538.11 38.392 538.11 33.856V33.784C538.11 29.284 534.69 26.476 529.65 26.476C526.338 26.476 523.926 27.664 522.018 29.464C521.514 29.896 521.298 30.472 521.298 31.012C521.298 32.092 522.198 32.992 523.314 32.992C523.818 32.992 524.286 32.776 524.646 32.488C526.086 31.192 527.634 30.508 529.542 30.508C532.134 30.508 533.682 31.912 533.682 33.928V34C533.682 36.268 531.81 37.564 528.426 37.888C527.454 37.996 526.878 38.716 527.022 39.688L527.382 42.784C527.49 43.612 528.102 44.224 528.93 44.224H529.146ZM526.374 49.336V49.696C526.374 51.1 527.454 52.18 528.93 52.18C530.406 52.18 531.486 51.1 531.486 49.696V49.336C531.486 47.932 530.406 46.852 528.93 46.852C527.454 46.852 526.374 47.932 526.374 49.336Z" fill="black"/>
<path d="M28.144 45.524C28.576 46.676 29.368 47.36 30.448 47.36H30.88C31.96 47.36 32.788 46.676 33.184 45.524L38.8 29.072L44.416 45.524C44.812 46.676 45.604 47.36 46.684 47.36H47.116C48.196 47.36 49.024 46.64 49.42 45.524L56.872 24.644C56.98 24.392 57.088 24.032 57.088 23.744C57.088 22.556 56.08 21.62 54.892 21.62C53.812 21.62 53.056 22.304 52.732 23.204L46.936 40.556L41.248 23.312C40.924 22.268 40.132 21.548 39.016 21.548H38.692C37.576 21.548 36.82 22.268 36.46 23.312L30.772 40.556L24.976 23.24C24.688 22.304 23.86 21.62 22.78 21.62C21.556 21.62 20.512 22.556 20.512 23.78C20.512 24.068 20.584 24.392 20.692 24.644L28.144 45.524ZM59.1352 45.02C59.1352 46.244 60.1072 47.18 61.2952 47.18C62.5192 47.18 63.4912 46.244 63.4912 45.02V36.272C63.4912 33.32 65.2552 31.556 67.7752 31.556C70.3672 31.556 71.8432 33.248 71.8432 36.2V45.02C71.8432 46.244 72.8152 47.18 74.0392 47.18C75.2632 47.18 76.1992 46.244 76.1992 45.02V34.868C76.1992 30.476 73.7152 27.596 69.4312 27.596C66.4792 27.596 64.7152 29.144 63.4912 30.908V22.7C63.4912 21.512 62.5192 20.54 61.2952 20.54C60.0712 20.54 59.1352 21.512 59.1352 22.7V45.02ZM82.8342 52.868C85.8942 52.868 87.6222 51.428 89.2422 47.54L96.1902 30.872C96.2622 30.656 96.3702 30.188 96.3702 29.828C96.3702 28.676 95.4342 27.776 94.2822 27.776C93.1662 27.776 92.5542 28.532 92.1942 29.432L87.4422 42.068L82.3302 29.432C81.9342 28.424 81.3222 27.776 80.2062 27.776C78.9822 27.776 78.0462 28.676 78.0462 29.9C78.0462 30.188 78.1542 30.62 78.2982 30.944L85.3542 46.712L85.2102 47.108C84.4902 48.584 83.8062 49.124 82.5102 49.124C81.8982 49.124 81.5022 49.016 80.9982 48.872C80.7822 48.8 80.5662 48.728 80.2062 48.728C79.2702 48.728 78.4422 49.448 78.4422 50.528C78.4422 51.572 79.1622 52.112 79.8102 52.328C80.7102 52.688 81.6102 52.868 82.8342 52.868ZM107.628 23.096C107.628 24.392 108.708 25.256 110.112 25.256C111.516 25.256 112.596 24.392 112.596 23.096V22.88C112.596 21.584 111.516 20.756 110.112 20.756C108.708 20.756 107.628 21.584 107.628 22.88V23.096ZM107.952 45.02C107.952 46.244 108.924 47.18 110.112 47.18C111.336 47.18 112.308 46.244 112.308 45.02V29.972C112.308 28.748 111.336 27.776 110.112 27.776C108.888 27.776 107.952 28.748 107.952 29.972V45.02ZM122.717 47.36C126.677 47.36 129.773 45.38 129.773 41.384V41.312C129.773 37.892 126.641 36.632 123.869 35.768C121.637 35.048 119.585 34.472 119.585 33.068V32.996C119.585 31.916 120.557 31.124 122.249 31.124C123.581 31.124 125.165 31.628 126.713 32.42C127.001 32.564 127.217 32.636 127.577 32.636C128.585 32.636 129.377 31.88 129.377 30.872C129.377 30.116 128.945 29.54 128.333 29.216C126.497 28.244 124.373 27.668 122.357 27.668C118.577 27.668 115.589 29.864 115.589 33.464V33.536C115.589 37.172 118.721 38.324 121.529 39.116C123.761 39.8 125.777 40.304 125.777 41.78V41.852C125.777 43.112 124.697 43.904 122.825 43.904C121.097 43.904 119.189 43.292 117.353 42.068C117.101 41.924 116.777 41.816 116.417 41.816C115.409 41.816 114.653 42.608 114.653 43.58C114.653 44.3 115.013 44.84 115.481 45.092C117.677 46.604 120.305 47.36 122.717 47.36ZM141.933 44.768C141.933 46.028 142.905 47 144.165 47H153.597C159.213 47 162.921 44.588 162.921 40.088V40.016C162.921 36.596 160.869 34.904 157.917 33.896C159.789 32.924 161.517 31.304 161.517 28.28V28.208C161.517 26.516 160.941 25.148 159.825 24.032C158.385 22.592 156.117 21.8 153.237 21.8H144.165C142.905 21.8 141.933 22.772 141.933 24.032V44.768ZM146.289 32.42V25.724H152.661C155.505 25.724 157.089 26.948 157.089 28.928V29C157.089 31.304 155.181 32.42 152.337 32.42H146.289ZM146.289 43.076V36.164H153.309C156.801 36.164 158.493 37.424 158.493 39.548V39.62C158.493 41.888 156.657 43.076 153.633 43.076H146.289ZM168.885 36.164C169.281 33.212 171.153 31.16 173.817 31.16C176.697 31.16 178.353 33.356 178.641 36.164H168.885ZM181.161 44.912C181.485 44.588 181.737 44.12 181.737 43.58C181.737 42.572 180.981 41.816 180.009 41.816C179.505 41.816 179.217 41.96 178.893 42.212C177.669 43.22 176.229 43.868 174.393 43.868C171.585 43.868 169.389 42.14 168.921 39.044H180.837C181.953 39.044 182.889 38.18 182.889 36.956C182.889 32.564 179.901 27.596 173.853 27.596C168.417 27.596 164.565 32.06 164.565 37.496V37.568C164.565 43.436 168.813 47.432 174.321 47.432C177.273 47.432 179.433 46.46 181.161 44.912ZM188.812 36.164C189.208 33.212 191.08 31.16 193.744 31.16C196.624 31.16 198.28 33.356 198.568 36.164H188.812ZM201.088 44.912C201.412 44.588 201.664 44.12 201.664 43.58C201.664 42.572 200.908 41.816 199.936 41.816C199.432 41.816 199.144 41.96 198.82 42.212C197.596 43.22 196.156 43.868 194.32 43.868C191.512 43.868 189.316 42.14 188.848 39.044H200.764C201.88 39.044 202.816 38.18 202.816 36.956C202.816 32.564 199.828 27.596 193.78 27.596C188.344 27.596 184.492 32.06 184.492 37.496V37.568C184.492 43.436 188.74 47.432 194.248 47.432C197.2 47.432 199.36 46.46 201.088 44.912ZM211.835 47.324C212.987 47.324 213.887 47.144 214.823 46.82C215.435 46.568 215.975 45.92 215.975 45.128C215.975 44.12 215.111 43.328 214.139 43.328C213.995 43.328 213.563 43.436 213.059 43.436C211.583 43.436 210.719 42.752 210.719 41.06V31.736H214.139C215.183 31.736 216.047 30.908 216.047 29.864C216.047 28.82 215.183 27.992 214.139 27.992H210.719V24.752C210.719 23.564 209.747 22.592 208.559 22.592C207.335 22.592 206.363 23.564 206.363 24.752V27.992H205.643C204.599 27.992 203.771 28.82 203.771 29.864C203.771 30.908 204.599 31.736 205.643 31.736H206.363V41.744C206.363 45.92 208.631 47.324 211.835 47.324ZM218.463 45.02C218.463 46.244 219.435 47.18 220.623 47.18C221.847 47.18 222.819 46.244 222.819 45.02V36.272C222.819 33.32 224.583 31.556 227.103 31.556C229.695 31.556 231.171 33.248 231.171 36.2V45.02C231.171 46.244 232.143 47.18 233.367 47.18C234.591 47.18 235.527 46.244 235.527 45.02V34.868C235.527 30.476 233.043 27.596 228.759 27.596C225.807 27.596 224.043 29.144 222.819 30.908V22.7C222.819 21.512 221.847 20.54 220.623 20.54C219.399 20.54 218.463 21.512 218.463 22.7V45.02ZM248.024 47.432C253.892 47.432 258.212 42.932 258.212 37.532V37.46C258.212 32.024 253.928 27.596 248.096 27.596C242.264 27.596 237.944 32.096 237.944 37.532V37.604C237.944 43.004 242.228 47.432 248.024 47.432ZM248.096 43.616C244.712 43.616 242.3 40.844 242.3 37.532V37.46C242.3 34.148 244.532 31.412 248.024 31.412C251.444 31.412 253.856 34.184 253.856 37.532V37.604C253.856 40.88 251.624 43.616 248.096 43.616ZM270.443 45.452L276.779 30.908C276.887 30.692 277.031 30.26 277.031 29.864C277.031 28.676 276.095 27.776 274.907 27.776C273.755 27.776 273.179 28.532 272.855 29.288L267.887 41.96L262.991 29.36C262.631 28.46 262.019 27.776 260.831 27.776C259.643 27.776 258.671 28.784 258.671 29.864C258.671 30.26 258.815 30.62 258.923 30.944L265.259 45.452C265.763 46.604 266.555 47.36 267.743 47.36H267.959C269.147 47.36 269.939 46.568 270.443 45.452ZM281.8 36.164C282.196 33.212 284.068 31.16 286.732 31.16C289.612 31.16 291.268 33.356 291.556 36.164H281.8ZM294.076 44.912C294.4 44.588 294.652 44.12 294.652 43.58C294.652 42.572 293.896 41.816 292.924 41.816C292.42 41.816 292.132 41.96 291.808 42.212C290.584 43.22 289.144 43.868 287.308 43.868C284.5 43.868 282.304 42.14 281.836 39.044H293.752C294.868 39.044 295.804 38.18 295.804 36.956C295.804 32.564 292.816 27.596 286.768 27.596C281.332 27.596 277.48 32.06 277.48 37.496V37.568C277.48 43.436 281.728 47.432 287.236 47.432C290.188 47.432 292.348 46.46 294.076 44.912ZM298.451 45.02C298.451 46.244 299.423 47.18 300.611 47.18C301.835 47.18 302.807 46.244 302.807 45.02V36.272C302.807 33.32 304.571 31.556 307.091 31.556C309.683 31.556 311.159 33.248 311.159 36.2V45.02C311.159 46.244 312.131 47.18 313.355 47.18C314.579 47.18 315.515 46.244 315.515 45.02V34.868C315.515 30.476 313.031 27.596 308.747 27.596C305.795 27.596 304.031 29.144 302.807 30.908V29.972C302.807 28.748 301.835 27.776 300.611 27.776C299.387 27.776 298.451 28.748 298.451 29.972V45.02Z" fill="#00E59D"/>
<path d="M327.176 45.128C327.176 46.388 328.184 47.18 329.192 47.18C330.164 47.18 330.74 46.748 331.352 45.956L338.012 37.28L344.78 46.1C345.32 46.82 345.86 47.18 346.796 47.18C348.056 47.18 348.992 46.244 348.992 45.02C348.992 44.372 348.668 43.832 348.308 43.364L340.892 34.112L347.948 25.328C348.38 24.788 348.632 24.284 348.632 23.636C348.632 22.412 347.588 21.62 346.616 21.62C345.644 21.62 345.032 22.052 344.456 22.844L338.156 31.088L331.784 22.7C331.244 21.98 330.704 21.62 329.768 21.62C328.508 21.62 327.572 22.556 327.572 23.78C327.572 24.392 327.896 24.968 328.256 25.436L335.312 34.184L327.824 43.472C327.428 44.012 327.176 44.516 327.176 45.128ZM359.636 45.128C359.636 46.28 360.536 47.18 361.688 47.18C362.624 47.18 363.38 46.676 363.74 45.776L365.864 40.916H378.104L380.156 45.632C380.552 46.568 381.272 47.18 382.316 47.18C383.504 47.18 384.404 46.244 384.404 45.056C384.404 44.768 384.332 44.444 384.152 44.12L374.792 23.24C374.288 22.124 373.424 21.44 372.164 21.44H371.948C370.688 21.44 369.788 22.124 369.284 23.24L359.924 44.12C359.744 44.48 359.636 44.804 359.636 45.128ZM367.556 36.992L371.984 26.804L376.412 36.992H367.556ZM392.01 47.324H392.154C393.198 47.324 394.098 46.712 394.494 45.452L398.238 34.148L401.946 45.452C402.342 46.712 403.242 47.324 404.322 47.324H404.466C405.51 47.324 406.41 46.712 406.878 45.38L412.062 30.764C412.134 30.548 412.242 30.116 412.242 29.792C412.242 28.712 411.378 27.776 410.19 27.776C409.038 27.776 408.354 28.532 408.066 29.468L404.358 41.024L400.614 29.504C400.29 28.496 399.498 27.776 398.382 27.776H398.13C397.014 27.776 396.222 28.496 395.898 29.504L392.19 41.024L388.518 29.504C388.194 28.496 387.474 27.776 386.394 27.776C385.098 27.776 384.27 28.748 384.27 29.792C384.27 30.152 384.378 30.62 384.486 30.908L389.598 45.38C390.03 46.712 390.93 47.324 392.01 47.324ZM417.208 36.164C417.604 33.212 419.476 31.16 422.14 31.16C425.02 31.16 426.676 33.356 426.964 36.164H417.208ZM429.484 44.912C429.808 44.588 430.06 44.12 430.06 43.58C430.06 42.572 429.304 41.816 428.332 41.816C427.828 41.816 427.54 41.96 427.216 42.212C425.992 43.22 424.552 43.868 422.716 43.868C419.908 43.868 417.712 42.14 417.244 39.044H429.16C430.276 39.044 431.212 38.18 431.212 36.956C431.212 32.564 428.224 27.596 422.176 27.596C416.74 27.596 412.888 32.06 412.888 37.496V37.568C412.888 43.436 417.136 47.432 422.644 47.432C425.596 47.432 427.756 46.46 429.484 44.912ZM440.375 47.36C444.335 47.36 447.431 45.38 447.431 41.384V41.312C447.431 37.892 444.299 36.632 441.527 35.768C439.295 35.048 437.243 34.472 437.243 33.068V32.996C437.243 31.916 438.215 31.124 439.907 31.124C441.239 31.124 442.823 31.628 444.371 32.42C444.659 32.564 444.875 32.636 445.235 32.636C446.243 32.636 447.035 31.88 447.035 30.872C447.035 30.116 446.603 29.54 445.991 29.216C444.155 28.244 442.031 27.668 440.015 27.668C436.235 27.668 433.247 29.864 433.247 33.464V33.536C433.247 37.172 436.379 38.324 439.187 39.116C441.419 39.8 443.435 40.304 443.435 41.78V41.852C443.435 43.112 442.355 43.904 440.483 43.904C438.755 43.904 436.847 43.292 435.011 42.068C434.759 41.924 434.435 41.816 434.075 41.816C433.067 41.816 432.311 42.608 432.311 43.58C432.311 44.3 432.671 44.84 433.139 45.092C435.335 46.604 437.963 47.36 440.375 47.36ZM459.13 47.432C464.998 47.432 469.318 42.932 469.318 37.532V37.46C469.318 32.024 465.034 27.596 459.202 27.596C453.37 27.596 449.05 32.096 449.05 37.532V37.604C449.05 43.004 453.334 47.432 459.13 47.432ZM459.202 43.616C455.818 43.616 453.406 40.844 453.406 37.532V37.46C453.406 34.148 455.638 31.412 459.13 31.412C462.55 31.412 464.962 34.184 464.962 37.532V37.604C464.962 40.88 462.73 43.616 459.202 43.616ZM471.954 45.02C471.954 46.244 472.926 47.18 474.114 47.18C475.338 47.18 476.31 46.244 476.31 45.02V36.272C476.31 33.356 477.966 31.556 480.378 31.556C482.79 31.556 484.23 33.212 484.23 36.164V45.02C484.23 46.244 485.202 47.18 486.426 47.18C487.614 47.18 488.586 46.244 488.586 45.02V36.272C488.586 33.212 490.278 31.556 492.654 31.556C495.102 31.556 496.506 33.176 496.506 36.2V45.02C496.506 46.244 497.478 47.18 498.702 47.18C499.926 47.18 500.862 46.244 500.862 45.02V34.868C500.862 30.224 498.342 27.596 494.202 27.596C491.322 27.596 489.306 28.928 487.794 30.944C486.786 28.928 484.842 27.596 482.106 27.596C479.19 27.596 477.534 29.18 476.31 30.872V29.972C476.31 28.748 475.338 27.776 474.114 27.776C472.89 27.776 471.954 28.748 471.954 29.972V45.02ZM507.637 36.164C508.033 33.212 509.905 31.16 512.569 31.16C515.449 31.16 517.105 33.356 517.393 36.164H507.637ZM519.913 44.912C520.237 44.588 520.489 44.12 520.489 43.58C520.489 42.572 519.733 41.816 518.761 41.816C518.257 41.816 517.969 41.96 517.645 42.212C516.421 43.22 514.981 43.868 513.145 43.868C510.337 43.868 508.141 42.14 507.673 39.044H519.589C520.705 39.044 521.641 38.18 521.641 36.956C521.641 32.564 518.653 27.596 512.605 27.596C507.169 27.596 503.317 32.06 503.317 37.496V37.568C503.317 43.436 507.565 47.432 513.073 47.432C516.025 47.432 518.185 46.46 519.913 44.912ZM529.146 39.224C529.974 39.224 530.55 38.576 530.694 37.784L530.838 36.128C534.834 35.444 538.11 33.392 538.11 28.856V28.784C538.11 24.284 534.69 21.476 529.65 21.476C526.338 21.476 523.926 22.664 522.018 24.464C521.514 24.896 521.298 25.472 521.298 26.012C521.298 27.092 522.198 27.992 523.314 27.992C523.818 27.992 524.286 27.776 524.646 27.488C526.086 26.192 527.634 25.508 529.542 25.508C532.134 25.508 533.682 26.912 533.682 28.928V29C533.682 31.268 531.81 32.564 528.426 32.888C527.454 32.996 526.878 33.716 527.022 34.688L527.382 37.784C527.49 38.612 528.102 39.224 528.93 39.224H529.146ZM526.374 44.336V44.696C526.374 46.1 527.454 47.18 528.93 47.18C530.406 47.18 531.486 46.1 531.486 44.696V44.336C531.486 42.932 530.406 41.852 528.93 41.852C527.454 41.852 526.374 42.932 526.374 44.336Z" fill="#FF0000"/>
<g filter="url(#filter0)">
<path d="M28.144 45.524C28.576 46.676 29.368 47.36 30.448 47.36H30.88C31.96 47.36 32.788 46.676 33.184 45.524L38.8 29.072L44.416 45.524C44.812 46.676 45.604 47.36 46.684 47.36H47.116C48.196 47.36 49.024 46.64 49.42 45.524L56.872 24.644C56.98 24.392 57.088 24.032 57.088 23.744C57.088 22.556 56.08 21.62 54.892 21.62C53.812 21.62 53.056 22.304 52.732 23.204L46.936 40.556L41.248 23.312C40.924 22.268 40.132 21.548 39.016 21.548H38.692C37.576 21.548 36.82 22.268 36.46 23.312L30.772 40.556L24.976 23.24C24.688 22.304 23.86 21.62 22.78 21.62C21.556 21.62 20.512 22.556 20.512 23.78C20.512 24.068 20.584 24.392 20.692 24.644L28.144 45.524ZM59.1352 45.02C59.1352 46.244 60.1072 47.18 61.2952 47.18C62.5192 47.18 63.4912 46.244 63.4912 45.02V36.272C63.4912 33.32 65.2552 31.556 67.7752 31.556C70.3672 31.556 71.8432 33.248 71.8432 36.2V45.02C71.8432 46.244 72.8152 47.18 74.0392 47.18C75.2632 47.18 76.1992 46.244 76.1992 45.02V34.868C76.1992 30.476 73.7152 27.596 69.4312 27.596C66.4792 27.596 64.7152 29.144 63.4912 30.908V22.7C63.4912 21.512 62.5192 20.54 61.2952 20.54C60.0712 20.54 59.1352 21.512 59.1352 22.7V45.02ZM82.8342 52.868C85.8942 52.868 87.6222 51.428 89.2422 47.54L96.1902 30.872C96.2622 30.656 96.3702 30.188 96.3702 29.828C96.3702 28.676 95.4342 27.776 94.2822 27.776C93.1662 27.776 92.5542 28.532 92.1942 29.432L87.4422 42.068L82.3302 29.432C81.9342 28.424 81.3222 27.776 80.2062 27.776C78.9822 27.776 78.0462 28.676 78.0462 29.9C78.0462 30.188 78.1542 30.62 78.2982 30.944L85.3542 46.712L85.2102 47.108C84.4902 48.584 83.8062 49.124 82.5102 49.124C81.8982 49.124 81.5022 49.016 80.9982 48.872C80.7822 48.8 80.5662 48.728 80.2062 48.728C79.2702 48.728 78.4422 49.448 78.4422 50.528C78.4422 51.572 79.1622 52.112 79.8102 52.328C80.7102 52.688 81.6102 52.868 82.8342 52.868ZM107.628 23.096C107.628 24.392 108.708 25.256 110.112 25.256C111.516 25.256 112.596 24.392 112.596 23.096V22.88C112.596 21.584 111.516 20.756 110.112 20.756C108.708 20.756 107.628 21.584 107.628 22.88V23.096ZM107.952 45.02C107.952 46.244 108.924 47.18 110.112 47.18C111.336 47.18 112.308 46.244 112.308 45.02V29.972C112.308 28.748 111.336 27.776 110.112 27.776C108.888 27.776 107.952 28.748 107.952 29.972V45.02ZM122.717 47.36C126.677 47.36 129.773 45.38 129.773 41.384V41.312C129.773 37.892 126.641 36.632 123.869 35.768C121.637 35.048 119.585 34.472 119.585 33.068V32.996C119.585 31.916 120.557 31.124 122.249 31.124C123.581 31.124 125.165 31.628 126.713 32.42C127.001 32.564 127.217 32.636 127.577 32.636C128.585 32.636 129.377 31.88 129.377 30.872C129.377 30.116 128.945 29.54 128.333 29.216C126.497 28.244 124.373 27.668 122.357 27.668C118.577 27.668 115.589 29.864 115.589 33.464V33.536C115.589 37.172 118.721 38.324 121.529 39.116C123.761 39.8 125.777 40.304 125.777 41.78V41.852C125.777 43.112 124.697 43.904 122.825 43.904C121.097 43.904 119.189 43.292 117.353 42.068C117.101 41.924 116.777 41.816 116.417 41.816C115.409 41.816 114.653 42.608 114.653 43.58C114.653 44.3 115.013 44.84 115.481 45.092C117.677 46.604 120.305 47.36 122.717 47.36ZM141.933 44.768C141.933 46.028 142.905 47 144.165 47H153.597C159.213 47 162.921 44.588 162.921 40.088V40.016C162.921 36.596 160.869 34.904 157.917 33.896C159.789 32.924 161.517 31.304 161.517 28.28V28.208C161.517 26.516 160.941 25.148 159.825 24.032C158.385 22.592 156.117 21.8 153.237 21.8H144.165C142.905 21.8 141.933 22.772 141.933 24.032V44.768ZM146.289 32.42V25.724H152.661C155.505 25.724 157.089 26.948 157.089 28.928V29C157.089 31.304 155.181 32.42 152.337 32.42H146.289ZM146.289 43.076V36.164H153.309C156.801 36.164 158.493 37.424 158.493 39.548V39.62C158.493 41.888 156.657 43.076 153.633 43.076H146.289ZM168.885 36.164C169.281 33.212 171.153 31.16 173.817 31.16C176.697 31.16 178.353 33.356 178.641 36.164H168.885ZM181.161 44.912C181.485 44.588 181.737 44.12 181.737 43.58C181.737 42.572 180.981 41.816 180.009 41.816C179.505 41.816 179.217 41.96 178.893 42.212C177.669 43.22 176.229 43.868 174.393 43.868C171.585 43.868 169.389 42.14 168.921 39.044H180.837C181.953 39.044 182.889 38.18 182.889 36.956C182.889 32.564 179.901 27.596 173.853 27.596C168.417 27.596 164.565 32.06 164.565 37.496V37.568C164.565 43.436 168.813 47.432 174.321 47.432C177.273 47.432 179.433 46.46 181.161 44.912ZM188.812 36.164C189.208 33.212 191.08 31.16 193.744 31.16C196.624 31.16 198.28 33.356 198.568 36.164H188.812ZM201.088 44.912C201.412 44.588 201.664 44.12 201.664 43.58C201.664 42.572 200.908 41.816 199.936 41.816C199.432 41.816 199.144 41.96 198.82 42.212C197.596 43.22 196.156 43.868 194.32 43.868C191.512 43.868 189.316 42.14 188.848 39.044H200.764C201.88 39.044 202.816 38.18 202.816 36.956C202.816 32.564 199.828 27.596 193.78 27.596C188.344 27.596 184.492 32.06 184.492 37.496V37.568C184.492 43.436 188.74 47.432 194.248 47.432C197.2 47.432 199.36 46.46 201.088 44.912ZM211.835 47.324C212.987 47.324 213.887 47.144 214.823 46.82C215.435 46.568 215.975 45.92 215.975 45.128C215.975 44.12 215.111 43.328 214.139 43.328C213.995 43.328 213.563 43.436 213.059 43.436C211.583 43.436 210.719 42.752 210.719 41.06V31.736H214.139C215.183 31.736 216.047 30.908 216.047 29.864C216.047 28.82 215.183 27.992 214.139 27.992H210.719V24.752C210.719 23.564 209.747 22.592 208.559 22.592C207.335 22.592 206.363 23.564 206.363 24.752V27.992H205.643C204.599 27.992 203.771 28.82 203.771 29.864C203.771 30.908 204.599 31.736 205.643 31.736H206.363V41.744C206.363 45.92 208.631 47.324 211.835 47.324ZM218.463 45.02C218.463 46.244 219.435 47.18 220.623 47.18C221.847 47.18 222.819 46.244 222.819 45.02V36.272C222.819 33.32 224.583 31.556 227.103 31.556C229.695 31.556 231.171 33.248 231.171 36.2V45.02C231.171 46.244 232.143 47.18 233.367 47.18C234.591 47.18 235.527 46.244 235.527 45.02V34.868C235.527 30.476 233.043 27.596 228.759 27.596C225.807 27.596 224.043 29.144 222.819 30.908V22.7C222.819 21.512 221.847 20.54 220.623 20.54C219.399 20.54 218.463 21.512 218.463 22.7V45.02ZM248.024 47.432C253.892 47.432 258.212 42.932 258.212 37.532V37.46C258.212 32.024 253.928 27.596 248.096 27.596C242.264 27.596 237.944 32.096 237.944 37.532V37.604C237.944 43.004 242.228 47.432 248.024 47.432ZM248.096 43.616C244.712 43.616 242.3 40.844 242.3 37.532V37.46C242.3 34.148 244.532 31.412 248.024 31.412C251.444 31.412 253.856 34.184 253.856 37.532V37.604C253.856 40.88 251.624 43.616 248.096 43.616ZM270.443 45.452L276.779 30.908C276.887 30.692 277.031 30.26 277.031 29.864C277.031 28.676 276.095 27.776 274.907 27.776C273.755 27.776 273.179 28.532 272.855 29.288L267.887 41.96L262.991 29.36C262.631 28.46 262.019 27.776 260.831 27.776C259.643 27.776 258.671 28.784 258.671 29.864C258.671 30.26 258.815 30.62 258.923 30.944L265.259 45.452C265.763 46.604 266.555 47.36 267.743 47.36H267.959C269.147 47.36 269.939 46.568 270.443 45.452ZM281.8 36.164C282.196 33.212 284.068 31.16 286.732 31.16C289.612 31.16 291.268 33.356 291.556 36.164H281.8ZM294.076 44.912C294.4 44.588 294.652 44.12 294.652 43.58C294.652 42.572 293.896 41.816 292.924 41.816C292.42 41.816 292.132 41.96 291.808 42.212C290.584 43.22 289.144 43.868 287.308 43.868C284.5 43.868 282.304 42.14 281.836 39.044H293.752C294.868 39.044 295.804 38.18 295.804 36.956C295.804 32.564 292.816 27.596 286.768 27.596C281.332 27.596 277.48 32.06 277.48 37.496V37.568C277.48 43.436 281.728 47.432 287.236 47.432C290.188 47.432 292.348 46.46 294.076 44.912ZM298.451 45.02C298.451 46.244 299.423 47.18 300.611 47.18C301.835 47.18 302.807 46.244 302.807 45.02V36.272C302.807 33.32 304.571 31.556 307.091 31.556C309.683 31.556 311.159 33.248 311.159 36.2V45.02C311.159 46.244 312.131 47.18 313.355 47.18C314.579 47.18 315.515 46.244 315.515 45.02V34.868C315.515 30.476 313.031 27.596 308.747 27.596C305.795 27.596 304.031 29.144 302.807 30.908V29.972C302.807 28.748 301.835 27.776 300.611 27.776C299.387 27.776 298.451 28.748 298.451 29.972V45.02Z" fill="#00E59D"/>
<path d="M327.176 45.128C327.176 46.388 328.184 47.18 329.192 47.18C330.164 47.18 330.74 46.748 331.352 45.956L338.012 37.28L344.78 46.1C345.32 46.82 345.86 47.18 346.796 47.18C348.056 47.18 348.992 46.244 348.992 45.02C348.992 44.372 348.668 43.832 348.308 43.364L340.892 34.112L347.948 25.328C348.38 24.788 348.632 24.284 348.632 23.636C348.632 22.412 347.588 21.62 346.616 21.62C345.644 21.62 345.032 22.052 344.456 22.844L338.156 31.088L331.784 22.7C331.244 21.98 330.704 21.62 329.768 21.62C328.508 21.62 327.572 22.556 327.572 23.78C327.572 24.392 327.896 24.968 328.256 25.436L335.312 34.184L327.824 43.472C327.428 44.012 327.176 44.516 327.176 45.128ZM359.636 45.128C359.636 46.28 360.536 47.18 361.688 47.18C362.624 47.18 363.38 46.676 363.74 45.776L365.864 40.916H378.104L380.156 45.632C380.552 46.568 381.272 47.18 382.316 47.18C383.504 47.18 384.404 46.244 384.404 45.056C384.404 44.768 384.332 44.444 384.152 44.12L374.792 23.24C374.288 22.124 373.424 21.44 372.164 21.44H371.948C370.688 21.44 369.788 22.124 369.284 23.24L359.924 44.12C359.744 44.48 359.636 44.804 359.636 45.128ZM367.556 36.992L371.984 26.804L376.412 36.992H367.556ZM392.01 47.324H392.154C393.198 47.324 394.098 46.712 394.494 45.452L398.238 34.148L401.946 45.452C402.342 46.712 403.242 47.324 404.322 47.324H404.466C405.51 47.324 406.41 46.712 406.878 45.38L412.062 30.764C412.134 30.548 412.242 30.116 412.242 29.792C412.242 28.712 411.378 27.776 410.19 27.776C409.038 27.776 408.354 28.532 408.066 29.468L404.358 41.024L400.614 29.504C400.29 28.496 399.498 27.776 398.382 27.776H398.13C397.014 27.776 396.222 28.496 395.898 29.504L392.19 41.024L388.518 29.504C388.194 28.496 387.474 27.776 386.394 27.776C385.098 27.776 384.27 28.748 384.27 29.792C384.27 30.152 384.378 30.62 384.486 30.908L389.598 45.38C390.03 46.712 390.93 47.324 392.01 47.324ZM417.208 36.164C417.604 33.212 419.476 31.16 422.14 31.16C425.02 31.16 426.676 33.356 426.964 36.164H417.208ZM429.484 44.912C429.808 44.588 430.06 44.12 430.06 43.58C430.06 42.572 429.304 41.816 428.332 41.816C427.828 41.816 427.54 41.96 427.216 42.212C425.992 43.22 424.552 43.868 422.716 43.868C419.908 43.868 417.712 42.14 417.244 39.044H429.16C430.276 39.044 431.212 38.18 431.212 36.956C431.212 32.564 428.224 27.596 422.176 27.596C416.74 27.596 412.888 32.06 412.888 37.496V37.568C412.888 43.436 417.136 47.432 422.644 47.432C425.596 47.432 427.756 46.46 429.484 44.912ZM440.375 47.36C444.335 47.36 447.431 45.38 447.431 41.384V41.312C447.431 37.892 444.299 36.632 441.527 35.768C439.295 35.048 437.243 34.472 437.243 33.068V32.996C437.243 31.916 438.215 31.124 439.907 31.124C441.239 31.124 442.823 31.628 444.371 32.42C444.659 32.564 444.875 32.636 445.235 32.636C446.243 32.636 447.035 31.88 447.035 30.872C447.035 30.116 446.603 29.54 445.991 29.216C444.155 28.244 442.031 27.668 440.015 27.668C436.235 27.668 433.247 29.864 433.247 33.464V33.536C433.247 37.172 436.379 38.324 439.187 39.116C441.419 39.8 443.435 40.304 443.435 41.78V41.852C443.435 43.112 442.355 43.904 440.483 43.904C438.755 43.904 436.847 43.292 435.011 42.068C434.759 41.924 434.435 41.816 434.075 41.816C433.067 41.816 432.311 42.608 432.311 43.58C432.311 44.3 432.671 44.84 433.139 45.092C435.335 46.604 437.963 47.36 440.375 47.36ZM459.13 47.432C464.998 47.432 469.318 42.932 469.318 37.532V37.46C469.318 32.024 465.034 27.596 459.202 27.596C453.37 27.596 449.05 32.096 449.05 37.532V37.604C449.05 43.004 453.334 47.432 459.13 47.432ZM459.202 43.616C455.818 43.616 453.406 40.844 453.406 37.532V37.46C453.406 34.148 455.638 31.412 459.13 31.412C462.55 31.412 464.962 34.184 464.962 37.532V37.604C464.962 40.88 462.73 43.616 459.202 43.616ZM471.954 45.02C471.954 46.244 472.926 47.18 474.114 47.18C475.338 47.18 476.31 46.244 476.31 45.02V36.272C476.31 33.356 477.966 31.556 480.378 31.556C482.79 31.556 484.23 33.212 484.23 36.164V45.02C484.23 46.244 485.202 47.18 486.426 47.18C487.614 47.18 488.586 46.244 488.586 45.02V36.272C488.586 33.212 490.278 31.556 492.654 31.556C495.102 31.556 496.506 33.176 496.506 36.2V45.02C496.506 46.244 497.478 47.18 498.702 47.18C499.926 47.18 500.862 46.244 500.862 45.02V34.868C500.862 30.224 498.342 27.596 494.202 27.596C491.322 27.596 489.306 28.928 487.794 30.944C486.786 28.928 484.842 27.596 482.106 27.596C479.19 27.596 477.534 29.18 476.31 30.872V29.972C476.31 28.748 475.338 27.776 474.114 27.776C472.89 27.776 471.954 28.748 471.954 29.972V45.02ZM507.637 36.164C508.033 33.212 509.905 31.16 512.569 31.16C515.449 31.16 517.105 33.356 517.393 36.164H507.637ZM519.913 44.912C520.237 44.588 520.489 44.12 520.489 43.58C520.489 42.572 519.733 41.816 518.761 41.816C518.257 41.816 517.969 41.96 517.645 42.212C516.421 43.22 514.981 43.868 513.145 43.868C510.337 43.868 508.141 42.14 507.673 39.044H519.589C520.705 39.044 521.641 38.18 521.641 36.956C521.641 32.564 518.653 27.596 512.605 27.596C507.169 27.596 503.317 32.06 503.317 37.496V37.568C503.317 43.436 507.565 47.432 513.073 47.432C516.025 47.432 518.185 46.46 519.913 44.912ZM529.146 39.224C529.974 39.224 530.55 38.576 530.694 37.784L530.838 36.128C534.834 35.444 538.11 33.392 538.11 28.856V28.784C538.11 24.284 534.69 21.476 529.65 21.476C526.338 21.476 523.926 22.664 522.018 24.464C521.514 24.896 521.298 25.472 521.298 26.012C521.298 27.092 522.198 27.992 523.314 27.992C523.818 27.992 524.286 27.776 524.646 27.488C526.086 26.192 527.634 25.508 529.542 25.508C532.134 25.508 533.682 26.912 533.682 28.928V29C533.682 31.268 531.81 32.564 528.426 32.888C527.454 32.996 526.878 33.716 527.022 34.688L527.382 37.784C527.49 38.612 528.102 39.224 528.93 39.224H529.146ZM526.374 44.336V44.696C526.374 46.1 527.454 47.18 528.93 47.18C530.406 47.18 531.486 46.1 531.486 44.696V44.336C531.486 42.932 530.406 41.852 528.93 41.852C527.454 41.852 526.374 42.932 526.374 44.336Z" fill="#FF0000"/>
</g>
<defs>
<filter id="filter0" x="0.511719" y="0.540039" width="557.599" height="72.3281" filterUnits="userSpaceOnUse" color-interpolation-filters="sRGB">
<feFlood flood-opacity="0" result="BackgroundImageFix"/>
<feBlend mode="normal" in="SourceGraphic" in2="BackgroundImageFix" result="shape"/>
<feGaussianBlur stdDeviation="10" result="effect1_foregroundBlur_944_101"/>
</filter>
</defs>
</svg>
