<svg width="50" height="50" viewBox="0 0 50 50" fill="none" xmlns="http://www.w3.org/2000/svg">
<path d="M29.553 23.5189L32.5213 18.4823L40.5219 30.9433L40.5256 33.3348L40.4995 16.8787C40.4806 16.4763 40.2669 16.1082 39.9262 15.8911L25.5222 7.60599C25.1854 7.44036 24.7579 7.44235 24.4217 7.61122C24.3762 7.6341 24.3336 7.65872 24.2928 7.68583L24.2426 7.71741L10.2611 15.8195L10.2068 15.8444C10.137 15.8762 10.0666 15.9172 10.0002 15.9645C9.73506 16.1545 9.55898 16.4358 9.50203 16.7509C9.49358 16.7986 9.48711 16.8474 9.48438 16.8966L9.50626 30.3066L16.9585 18.7564C17.8966 17.2249 19.9409 16.7312 21.8387 16.7583L24.0658 16.817L10.9427 37.8626L12.4896 38.7532L25.7699 16.8384L31.6399 16.817L18.394 39.2849L23.9138 42.46L24.5734 42.839C24.8524 42.9524 25.1812 42.9581 25.4625 42.8564L40.069 34.3917L37.2764 36.01L29.553 23.5189ZM30.6854 39.8298L25.1103 31.0793L28.5137 25.3041L35.8356 36.8449L30.6854 39.8298Z" fill="#2D374B"/>
<path d="M25.1108 31.0798L30.6861 39.83L35.8362 36.8454L28.5143 25.3045L25.1108 31.0798Z" fill="#28A0F0"/>
<path d="M40.5265 33.3351L40.5228 30.9437L32.5222 18.4827L29.554 23.5193L37.2775 36.0104L40.0701 34.3921C40.344 34.1698 40.5098 33.8432 40.5272 33.4911L40.5265 33.3351Z" fill="#28A0F0"/>
<path d="M7 35.5905L10.9436 37.8628L24.0666 16.8173L21.8395 16.7586C19.942 16.7317 17.8977 17.2251 16.9594 18.7566L9.50712 30.3069L7 34.159V35.5905V35.5905Z" fill="white"/>
<path d="M31.6412 16.8171L25.7712 16.8385L12.491 38.7532L17.1329 41.4257L18.3951 39.2849L31.6412 16.8171Z" fill="white"/>
<path d="M43 16.7868C42.951 15.5592 42.2862 14.4356 41.2452 13.7813L26.6523 5.38921C25.6225 4.87068 24.336 4.86993 23.3041 5.38896C23.1823 5.45039 9.11294 13.6102 9.11294 13.6102C8.91821 13.7034 8.73069 13.8146 8.55436 13.9409C7.62498 14.6072 7.05844 15.6423 7 16.7793V34.1591L9.50712 30.307L9.48524 16.8967C9.48822 16.8477 9.49444 16.7992 9.50289 16.7517C9.5596 16.4361 9.73592 16.1548 10.001 15.9646C10.0674 15.9173 24.3768 7.63421 24.4223 7.61133C24.7588 7.44246 25.186 7.44047 25.5228 7.6061L39.9268 15.8912C40.2676 16.1083 40.4812 16.4764 40.5001 16.8788V33.4906C40.4827 33.8427 40.3434 34.1693 40.0696 34.3916L37.277 36.0099L35.836 36.845L30.686 39.8296L25.4631 42.8563C25.1818 42.958 24.8528 42.9523 24.574 42.8389L18.3946 39.2847L17.1322 41.4255L22.6856 44.6228C22.8692 44.7272 23.0328 44.8197 23.1671 44.8954C23.375 45.012 23.5168 45.0898 23.5668 45.1142C23.9614 45.3059 24.5292 45.4174 25.041 45.4174C25.5101 45.4174 25.9677 45.3313 26.4007 45.1617L41.571 36.3765C42.4417 35.7017 42.954 34.6843 43 33.5823V16.7868Z" fill="#96BEDC"/>
</svg>
