<svg width="29" height="29" viewBox="0 0 29 29" fill="none" xmlns="http://www.w3.org/2000/svg">
<path d="M23.683 4.25989H5.80078V21.7891H23.683V4.25989Z" fill="#E84142"/>
<path fill-rule="evenodd" clip-rule="evenodd" d="M28.7148 14.25C28.7148 21.982 22.4468 28.25 14.7149 28.25C6.98287 28.25 0.714844 21.982 0.714844 14.25C0.714844 6.51801 6.98287 0.25 14.7149 0.25C22.4468 0.25 28.7148 6.51801 28.7148 14.25ZM10.7477 19.821H8.03069C7.45978 19.821 7.17775 19.821 7.00577 19.711C6.82007 19.5906 6.70655 19.3911 6.69279 19.171C6.68249 18.9681 6.82349 18.7204 7.10552 18.2252L13.8141 6.4003C14.0996 5.89816 14.244 5.64711 14.4263 5.55424C14.6224 5.45453 14.8562 5.45453 15.0523 5.55424C15.2346 5.64711 15.379 5.89816 15.6645 6.4003L17.0436 8.80778L17.0507 8.82007C17.359 9.35878 17.5153 9.63194 17.5836 9.91865C17.6592 10.2316 17.6592 10.5618 17.5836 10.8748C17.5148 11.1637 17.36 11.4388 17.047 11.9857L13.5232 18.2149L13.5141 18.2308C13.2037 18.774 13.0464 19.0492 12.8284 19.257C12.5911 19.484 12.3057 19.649 11.9927 19.7419C11.7073 19.821 11.3874 19.821 10.7477 19.821ZM17.609 19.8213H21.5023C22.0766 19.8213 22.3655 19.8213 22.5375 19.7078C22.7232 19.5874 22.8401 19.3845 22.8505 19.1644C22.8604 18.9682 22.7225 18.7301 22.4521 18.2637C22.4429 18.2478 22.4335 18.2316 22.424 18.2152L20.4739 14.8791L20.4517 14.8416C20.1777 14.3781 20.0393 14.1441 19.8617 14.0537C19.6657 13.9539 19.4353 13.9539 19.2393 14.0537C19.0604 14.1465 18.9159 14.3907 18.6305 14.8825L16.6873 18.2186L16.6807 18.2301C16.3962 18.7211 16.254 18.9665 16.2643 19.1679C16.278 19.388 16.3915 19.5909 16.5773 19.7113C16.7458 19.8213 17.0347 19.8213 17.609 19.8213Z" fill="white"/>
</svg>
