<svg width="60" height="60" fill="none" xmlns="http://www.w3.org/2000/svg"><g clip-path="url(#a)"><path d="M30 59.845c16.483 0 29.845-13.362 29.845-29.845C59.845 13.517 46.483.154 30 .154 13.517.154.154 13.517.154 30S13.517 59.845 30 59.845Z" fill="#fff"/><path d="M30 57.305c15.08 0 27.305-12.225 27.305-27.305S45.08 2.694 30 2.694 2.694 14.92 2.694 30C2.694 45.08 14.92 57.305 30 57.305Z" fill="#000"/><path d="M49.72 20.534h-5.438a7.698 7.698 0 0 0-1.912-3.162 7.672 7.672 0 0 0-3.162-1.916v-5.433h-3.863v5.264a7.278 7.278 0 0 0-3.615 1.977l-2.574 2.574a1.934 1.934 0 0 0 0 2.732 1.934 1.934 0 0 0 2.732 0l2.574-2.574a3.504 3.504 0 0 1 2.54-1.018 3.784 3.784 0 0 1 2.638 1.126c1.456 1.457 1.505 3.78.108 5.178l-5.413 5.412c-1.397 1.397-3.721 1.348-5.177-.108a1.934 1.934 0 0 0-2.733 0 1.934 1.934 0 0 0 0 2.733 7.657 7.657 0 0 0 5.42 2.254c1.902 0 3.79-.713 5.223-2.146l5.412-5.413a7.306 7.306 0 0 0 1.973-3.615h5.27v-3.863l-.004-.002Z" fill="#fff"/><path d="m27.81 37.22-2.575 2.574c-1.397 1.397-3.719 1.348-5.177-.108-1.456-1.456-1.505-3.78-.108-5.177l5.412-5.413c1.397-1.397 3.722-1.348 5.178.108a1.934 1.934 0 0 0 2.733 0 1.934 1.934 0 0 0 0-2.733c-2.964-2.963-7.737-3.012-10.641-.108l-5.413 5.413a7.306 7.306 0 0 0-1.972 3.615h-5.27v3.863h5.437a7.698 7.698 0 0 0 1.911 3.163 7.672 7.672 0 0 0 3.163 1.911v5.44h3.863v-5.27a7.272 7.272 0 0 0 3.615-1.973l2.574-2.574a1.934 1.934 0 0 0 0-2.733 1.934 1.934 0 0 0-2.733 0l.002.002Z" fill="#fff"/></g><defs><clipPath id="a"><path fill="#fff" d="M0 0h60v60H0z"/></clipPath></defs></svg>