<svg width="50" height="50" viewBox="0 0 50 50" fill="none" xmlns="http://www.w3.org/2000/svg">
<path d="M25 45C36.0457 45 45 36.0457 45 25C45 13.9543 36.0457 5 25 5C13.9543 5 5 13.9543 5 25C5 36.0457 13.9543 45 25 45Z" fill="#FF0420"/>
<path d="M19.1706 30.3157C17.9798 30.3157 17.0041 30.0354 16.2435 29.475C15.493 28.9046 15.1177 28.0941 15.1177 27.0433C15.1177 26.8231 15.1427 26.5529 15.1927 26.2326C15.3229 25.5122 15.508 24.6465 15.7482 23.6358C16.4286 20.8838 18.185 19.5078 21.017 19.5078C21.7876 19.5078 22.4781 19.6378 23.0886 19.898C23.699 20.1482 24.1794 20.5285 24.5296 21.0389C24.8798 21.5392 25.055 22.1397 25.055 22.8402C25.055 23.0503 25.03 23.3155 24.9799 23.6358C24.8298 24.5264 24.6497 25.3921 24.4395 26.2326C24.0893 27.6037 23.4838 28.6294 22.6232 29.3099C21.7626 29.9804 20.6118 30.3157 19.1706 30.3157ZM19.3808 28.1541C19.9413 28.1541 20.4166 27.989 20.8069 27.6587C21.2072 27.3285 21.4924 26.8231 21.6625 26.1426C21.8926 25.2019 22.0678 24.3813 22.1879 23.6808C22.2279 23.4706 22.2479 23.2555 22.2479 23.0353C22.2479 22.1246 21.7726 21.6693 20.8219 21.6693C20.2614 21.6693 19.7811 21.8344 19.3808 22.1646C18.9906 22.495 18.7103 23.0003 18.5402 23.6808C18.3601 24.3513 18.1799 25.1719 17.9998 26.1426C17.9598 26.3427 17.9398 26.5529 17.9398 26.773C17.9398 27.6938 18.4202 28.1541 19.3808 28.1541Z" fill="white"/>
<path d="M25.7442 30.1656C25.6342 30.1656 25.549 30.1306 25.489 30.0605C25.439 29.9804 25.424 29.8904 25.444 29.7903L27.5155 20.0331C27.5355 19.923 27.5906 19.833 27.6806 19.7629C27.7707 19.6929 27.8658 19.6578 27.9658 19.6578H31.9588C33.0696 19.6578 33.9602 19.888 34.6307 20.3483C35.3113 20.8087 35.6515 21.4742 35.6515 22.3448C35.6515 22.595 35.6215 22.8552 35.5614 23.1254C35.3113 24.2762 34.8059 25.1269 34.0454 25.6773C33.2948 26.2277 32.264 26.5029 30.953 26.5029H28.9266L28.2361 29.7903C28.216 29.9004 28.161 29.9904 28.071 30.0605C27.9809 30.1306 27.8858 30.1656 27.7858 30.1656H25.7442ZM31.0582 24.4314C31.4784 24.4314 31.8437 24.3162 32.1539 24.0861C32.4742 23.8559 32.6843 23.5257 32.7844 23.0954C32.8144 22.9252 32.8294 22.7751 32.8294 22.645C32.8294 22.3548 32.7444 22.1346 32.5742 21.9846C32.4041 21.8244 32.1139 21.7444 31.7036 21.7444H29.9022L29.3318 24.4314H31.0582Z" fill="white"/>
</svg>
