<svg width="200" height="200" viewBox="0 0 200 200" fill="none" xmlns="http://www.w3.org/2000/svg"><g clip-path="url(#clip0_1936_20612)" fill="#8247E5"><path d="M172.28 42.051 113.432 8.058a27.692 27.692 0 0 0-27.693 0L26.89 42.05a27.693 27.693 0 0 0-13.847 23.99v67.918a27.694 27.694 0 0 0 13.847 23.989l58.848 33.994a27.7 27.7 0 0 0 27.693 0l58.848-33.994a27.697 27.697 0 0 0 13.847-23.989V66.041a27.697 27.697 0 0 0-13.847-23.99Zm0 91.908a13.836 13.836 0 0 1-6.923 11.994l-58.848 33.959a13.669 13.669 0 0 1-13.847 0l-58.848-33.959a13.846 13.846 0 0 1-6.923-11.994V66.041a13.968 13.968 0 0 1 6.923-12.03l58.848-33.958a13.847 13.847 0 0 1 13.847 0l58.848 33.959a13.96 13.96 0 0 1 6.923 12.029v67.918Z"/><path d="M153.241 92.68 130.74 79.697a10.484 10.484 0 0 0-10.385 0l-46.732 27.018-19.039-11.008V73.71l19.04-11.008L92.661 73.71v11.84l13.847-8.05v-5.798a10.39 10.39 0 0 0-5.193-9l-22.5-12.895a10.488 10.488 0 0 0-10.385 0L45.93 62.788a10.506 10.506 0 0 0-5.193 9V97.75a10.522 10.522 0 0 0 5.193 9.017l22.5 12.981a10.579 10.579 0 0 0 10.386 0l46.732-27.07 19.039 11.025v21.965l-19.039 11.008-19.039-11.008v-11.977l-13.847 7.996v6.006a10.388 10.388 0 0 0 5.193 8.948l22.5 13.016a10.27 10.27 0 0 0 5.193 1.402 10.081 10.081 0 0 0 5.192-1.402l22.501-12.981a10.39 10.39 0 0 0 5.193-8.983v-25.962a10.381 10.381 0 0 0-5.193-9.053Z"/></g><defs><clipPath id="clip0_1936_20612"><path fill="#fff" d="M0 0h200v200H0z"/></clipPath></defs></svg>