<svg width="200" height="200" viewBox="0 0 200 200" fill="none" xmlns="http://www.w3.org/2000/svg"><g clip-path="url(#clip0_1936_20615)"><path d="M171.034 42.032 112.179 8.034a27.856 27.856 0 0 0-27.698 0L25.626 42.032a27.697 27.697 0 0 0-13.849 23.993v68.134a27.695 27.695 0 0 0 13.849 23.784l58.855 33.999a27.706 27.706 0 0 0 27.698 0l58.855-33.999a27.702 27.702 0 0 0 13.849-23.992V65.817a27.698 27.698 0 0 0-13.849-23.785ZM25.626 66.025A13.847 13.847 0 0 1 32.55 54.01l58.855-33.963a13.763 13.763 0 0 1 13.849 0L164.11 54.01a13.851 13.851 0 0 1 6.924 11.806v6.924a20.39 20.39 0 0 1-20.357 20.322H45.983a33.825 33.825 0 0 0-20.357 6.752v-33.79Zm145.408 67.926a13.842 13.842 0 0 1-6.924 12.014l-58.856 33.962a13.845 13.845 0 0 1-13.849 0L32.55 145.965a13.85 13.85 0 0 1-6.924-11.806v-6.924a20.394 20.394 0 0 1 20.357-20.323h104.694a33.823 33.823 0 0 0 20.357-6.751v33.79Z" fill="url(#paint0_linear_1936_20615)"/><path d="M66.135 62.563h13.433v20.114h13.849V62.562a13.846 13.846 0 0 0-13.849-13.848H66.135a13.848 13.848 0 0 0-13.848 13.849v20.114h13.848V62.562Z" fill="url(#paint1_linear_1936_20615)"/><path d="M79.568 137.412H66.135v-20.115H52.287v20.115a13.847 13.847 0 0 0 13.848 13.849h13.433a13.845 13.845 0 0 0 13.848-13.849v-20.115H79.569v20.115Z" fill="url(#paint2_linear_1936_20615)"/><path d="M120.694 62.563h13.468v20.114h13.849V62.562a13.847 13.847 0 0 0-13.849-13.848h-13.468a13.849 13.849 0 0 0-13.848 13.849v20.114h13.848V62.562Z" fill="url(#paint3_linear_1936_20615)"/><path d="M134.162 137.413h-13.468v-20.115h-13.848v20.115a13.846 13.846 0 0 0 13.848 13.848h13.468c3.673 0 7.195-1.459 9.792-4.057a13.842 13.842 0 0 0 4.057-9.791v-20.115h-13.849v20.115Z" fill="url(#paint4_linear_1936_20615)"/></g><defs><linearGradient id="paint0_linear_1936_20615" x1="98.33" y1="4.348" x2="98.33" y2="195.652" gradientUnits="userSpaceOnUse"><stop stop-color="#A727C1"/><stop offset="1" stop-color="#7C40E4"/></linearGradient><linearGradient id="paint1_linear_1936_20615" x1="72.852" y1="48.714" x2="72.852" y2="82.677" gradientUnits="userSpaceOnUse"><stop stop-color="#A727C1"/><stop offset="1" stop-color="#7C40E4"/></linearGradient><linearGradient id="paint2_linear_1936_20615" x1="72.852" y1="117.297" x2="72.852" y2="151.261" gradientUnits="userSpaceOnUse"><stop stop-color="#A727C1"/><stop offset="1" stop-color="#7C40E4"/></linearGradient><linearGradient id="paint3_linear_1936_20615" x1="127.428" y1="48.714" x2="127.428" y2="82.677" gradientUnits="userSpaceOnUse"><stop stop-color="#A727C1"/><stop offset="1" stop-color="#7C40E4"/></linearGradient><linearGradient id="paint4_linear_1936_20615" x1="127.428" y1="117.298" x2="127.428" y2="151.261" gradientUnits="userSpaceOnUse"><stop stop-color="#A727C1"/><stop offset="1" stop-color="#7C40E4"/></linearGradient><clipPath id="clip0_1936_20615"><path fill="#fff" d="M0 0h200v200H0z"/></clipPath></defs></svg>