<svg xmlns="http://www.w3.org/2000/svg" width="1121" height="108" fill="none"><g stroke-miterlimit="10" opacity=".15"><path stroke="url(#a)" d="M540.723 108.717c-52.193-1.839-94.812 5.485-95.195 16.358-.383 10.874 41.617 21.18 93.807 23.019 52.191 1.839 94.812-5.485 95.195-16.36.383-10.874-41.617-21.178-93.807-23.017Z"/><path stroke="url(#b)" d="M540.324 107.989c-56.389-.876-102.242 7.528-102.417 18.77-.175 11.242 45.396 21.065 101.784 21.941 56.388.875 102.242-7.528 102.415-18.77.175-11.241-45.394-21.065-101.782-21.941Z"/><path stroke="url(#c)" d="M539.675 107.27c-60.931.217-110.291 9.801-110.251 21.407.041 11.607 49.469 20.841 110.4 20.625 60.931-.216 110.291-9.8 110.249-21.407-.041-11.606-49.468-20.841-110.398-20.625Z"/><path stroke="url(#d)" d="M539.829 106.681c-65.624 1.443-118.61 12.312-118.348 24.277.264 11.966 53.676 20.495 119.3 19.052 65.624-1.442 118.609-12.313 118.347-24.278-.264-11.966-53.675-20.495-119.299-19.051Z"/><path stroke="url(#e)" d="M539.084 105.889c-70.485 2.817-127.224 15.089-126.733 27.41.493 12.322 58.031 20.028 128.514 17.211 70.485-2.816 127.224-15.089 126.732-27.41-.492-12.323-58.03-20.027-128.513-17.211Z"/><path stroke="url(#f)" d="M538.69 105.476c-75.672 4.352-136.427 18.153-135.697 30.826.728 12.673 62.663 19.418 138.335 15.066 75.672-4.352 136.427-18.153 135.697-30.826-.728-12.672-62.663-19.418-138.335-15.066Z"/><path stroke="url(#g)" d="M538.607 104.484c-81.008 6.042-145.879 21.641-144.895 34.841.986 13.201 67.452 19.004 148.46 12.962 81.008-6.041 145.88-21.64 144.895-34.843-.984-13.2-67.452-19.002-148.46-12.96Z"/><path stroke="url(#h)" d="M538.071 103.607c-86.674 7.918-155.922 25.464-154.668 39.188 1.255 13.725 72.535 18.43 159.209 10.509 86.674-7.918 155.921-25.464 154.667-39.189-1.254-13.724-72.534-18.429-159.208-10.508Z"/><path stroke="url(#i)" d="M537.278 102.698c-92.305 9.958-165.889 29.576-164.352 43.819 1.537 14.244 77.611 17.718 169.916 7.759 92.306-9.958 165.889-29.577 164.354-43.82-1.537-14.243-77.611-17.716-169.918-7.758Z"/><path stroke="url(#j)" d="M536.898 101.335c-98.254 12.188-176.422 34.031-174.591 48.787 1.829 14.757 82.964 16.841 181.218 4.653 98.256-12.187 176.422-34.031 174.593-48.787-1.831-14.757-82.966-16.84-181.22-4.653Z"/><path stroke="url(#k)" d="M535.809 100.318c-104.521 14.649-187.497 39.045-185.332 54.492 2.165 15.444 88.65 16.09 193.171 1.441 104.519-14.65 187.496-39.046 185.332-54.491-2.165-15.445-88.65-16.09-193.171-1.442Z"/><path stroke="url(#l)" d="M535.683 99.03c-110.723 17.275-198.442 44.35-195.927 60.475 2.516 16.125 94.312 15.195 205.035-2.079 110.722-17.273 198.441-44.348 195.925-60.473-2.514-16.125-94.312-15.195-205.033 2.078Z"/><path stroke="url(#m)" d="M535.159 98.096c-117.228 20.143-209.921 50.092-207.035 66.891 2.887 16.799 100.259 14.087 217.489-6.057 117.228-20.144 209.919-50.092 207.033-66.892-2.886-16.799-100.258-14.087-217.487 6.058Z"/><path stroke="url(#n)" d="M534.085 96.866c-123.866 23.236-221.623 56.232-218.347 73.698 3.277 17.467 106.346 12.791 230.212-10.446 123.865-23.236 221.622-56.233 218.346-73.7-3.277-17.466-106.346-12.789-230.211 10.448Z"/><path stroke="url(#o)" d="M533.255 95.082c-130.789 26.586-233.798 62.976-230.079 81.281 3.72 18.304 112.762 11.59 243.551-14.995 130.789-26.586 233.798-62.975 230.079-81.279-3.721-18.304-112.762-11.592-243.551 14.993Z"/><path stroke="url(#p)" d="M532.493 93.34c-137.631 30.146-245.776 70.236-241.547 89.543 4.228 19.309 119.228 10.524 256.861-19.62 137.631-30.145 245.776-70.234 241.547-89.543-4.228-19.309-119.23-10.524-256.861 19.62Z"/><path stroke="url(#q)" d="M531.189 91.563c-144.583 33.959-257.927 77.948-253.159 98.25 4.768 20.304 125.843 9.233 270.426-24.727 144.583-33.959 257.927-77.948 253.159-98.25-4.768-20.302-125.843-9.231-270.426 24.727Z"/><path stroke="url(#r)" d="M530.161 89.82c-151.619 38.029-270.203 86.114-264.865 107.398 5.339 21.283 132.577 7.707 284.195-30.322 151.62-38.031 270.204-86.116 264.865-107.398-5.337-21.285-132.577-7.71-284.195 30.322Z"/><path stroke="url(#s)" d="M529.372 87.615c-158.905 42.412-282.869 94.974-276.885 117.399 5.986 22.426 139.655 6.225 298.558-36.187 158.905-42.412 282.869-94.972 276.885-117.4-5.985-22.425-139.654-6.224-298.558 36.188Z"/><path stroke="url(#t)" d="M527.941 85.603c-165.923 46.999-295.022 104.194-288.35 127.748 6.671 23.554 146.586 4.549 312.508-42.448 165.923-46.999 295.022-104.194 288.35-127.748-6.671-23.555-146.586-4.551-312.508 42.448Z"/><path stroke="url(#u)" d="M526.465 83.219C353.296 135.153 218.996 197.53 226.497 222.543c7.502 25.013 153.962 3.188 327.13-48.747C726.796 121.862 861.095 59.483 853.595 34.47c-7.5-25.012-153.962-3.187-327.13 48.749Z"/><path stroke="url(#v)" d="M524.988 80.726c-180.3 57.119-319.715 124.726-311.39 151.003 8.324 26.277 161.234 1.274 341.534-55.845 180.3-57.12 319.714-124.726 311.391-151.003-8.324-26.278-161.234-1.275-341.535 55.845Z"/><path stroke="url(#w)" d="M523.199 78.218c-187.288 62.59-331.566 135.915-322.257 163.778 9.311 27.862 168.686-.29 355.973-62.879 187.288-62.59 331.568-135.916 322.258-163.778-9.311-27.863-168.685.29-355.974 62.88Z"/><path stroke="url(#x)" d="M521.191 74.593c-194.318 68.37-343.406 147.788-332.994 177.382 10.412 29.594 176.379-1.842 370.699-70.213C753.214 113.39 902.302 33.972 891.89 4.378 881.478-25.216 715.511 6.22 521.191 74.593Z"/><path stroke="url(#y)" d="M519.31 71.676c-201.002 74.4-354.555 160.08-342.975 191.37 11.582 31.292 183.912-3.656 384.914-78.056 201-74.401 354.555-160.08 342.975-191.371-11.582-31.29-183.914 3.656-384.914 78.057Z"/><path stroke="url(#z)" d="M516.52 68.403c-207.693 80.812-365.561 173.312-352.609 206.605 12.954 33.295 191.822-5.228 399.514-86.039C771.118 108.157 928.987 15.657 916.034-17.636 903.08-50.93 724.213-12.408 516.52 68.404Z"/><path stroke="url(#A)" d="M513.85 64.347C299.824 151.79 138.053 251.393 152.523 286.815c14.471 35.421 199.705-6.754 413.73-94.198C780.278 105.172 942.05 5.57 927.579-29.851c-14.47-35.421-199.703 6.753-413.729 94.198Z"/><path stroke="url(#B)" d="M510.862 59.725c-220.151 94.398-385.469 201.591-369.248 239.424 16.22 37.832 207.836-8.022 427.988-102.42C789.753 102.33 955.071-4.863 938.852-42.697 922.63-80.53 731.014-34.673 510.862 59.725Z"/><path stroke="url(#C)" d="M507.451 55.657C281.733 157.221 113.409 272.13 131.488 312.314c18.081 40.185 215.718-9.571 441.435-111.135C798.641 99.615 966.966-15.293 948.886-55.478c-18.08-40.185-215.717 9.572-441.435 111.135Z"/><path stroke="url(#D)" d="M503.604 50.749c-231.037 109.064-401.893 232.307-381.613 275.27 20.279 42.963 224.012-10.623 455.051-119.685C808.08 97.269 978.934-25.973 958.655-68.936c-20.279-42.963-224.013 10.622-455.051 119.685Z"/><path stroke="url(#E)" d="M498.768 45.308c-235.949 116.85-408.765 248.858-385.99 294.847 22.772 45.99 232.509-11.453 468.46-128.303C817.188 95.002 990.002-37.005 967.23-82.995 944.455-128.984 734.718-71.54 498.768 45.308Z"/><path stroke="url(#F)" d="M493.663 39.618C253.253 164.529 79.033 305.58 104.532 354.661c25.5 49.083 241.062-12.388 481.473-137.3C826.415 92.451 1000.64-48.601 975.136-97.683c-25.499-49.081-241.062 12.39-481.473 137.301Z"/><path stroke="url(#G)" d="M487.864 33.055C243.796 166.143 69.236 316.752 97.97 369.454c28.733 52.7 249.883-12.466 493.949-145.552C835.987 90.815 1010.55-59.797 981.815-112.497c-28.735-52.7-249.884 12.465-493.951 145.552Z"/><path stroke="url(#H)" d="M481.56 26.249C234.324 167.784 60.047 328.198 92.298 384.541c32.252 56.344 258.821-12.72 506.056-154.257C845.589 88.747 1019.87-71.666 987.617-128.008c-32.252-56.344-258.822 12.72-506.057 154.257Z"/><path stroke="url(#I)" d="M474.499 19.12C224.797 169.315 51.846 340.073 88.202 400.52c36.355 60.448 268.25-12.307 517.95-162.502C855.853 87.825 1028.8-82.934 992.449-143.382c-36.355-60.447-268.25 12.307-517.95 162.502Z"/><path stroke="url(#J)" d="M465.784 10.464C214.273 169.485 43.691 351.08 84.776 416.067c41.086 64.988 278.281-11.239 529.792-170.259C866.077 86.787 1036.66-94.808 995.575-159.796c-41.085-64.987-278.282 11.241-529.791 170.26Z"/><path stroke="url(#K)" d="M455.957 1.903C203.525 169.85 36.504 362.543 82.908 432.298c46.404 69.754 288.659-9.845 541.092-177.791 252.434-167.946 419.45-360.64 373.049-430.395-46.403-69.754-288.659 9.845-541.092 177.791Z"/><path stroke="url(#L)" d="M444.722-7.486C192.115 169.54 29.939 373.846 82.493 448.845c52.553 74.999 299.935-7.709 552.542-184.736 252.608-177.025 414.785-381.331 362.231-456.33-52.555-74.999-299.936 7.71-552.544 184.735Z"/><path stroke="url(#M)" d="M432.499-17.239C180.656 168.888 24.722 385.032 84.209 465.532c59.489 80.502 311.874-5.126 563.717-191.252 251.845-186.126 407.784-402.271 348.29-482.771-59.487-80.502-311.872 5.126-563.717 191.252Z"/><path stroke="url(#N)" d="M417.933-28.607C167.755 166.6 19.741 395.079 87.334 481.716c67.593 86.637 325.198-1.375 575.375-196.58C912.886 89.929 1060.9-138.548 993.308-225.187c-67.594-86.637-325.198 1.375-575.375 196.58Z"/><path stroke="url(#O)" d="M401.294-39.928C153.73 164.335 15.248 405.33 91.987 498.345c76.74 93.017 339.64 2.833 587.206-201.431C926.757 92.649 1065.24-148.344 988.5-241.361c-76.74-93.017-339.64-2.833-587.206 201.433Z"/><path stroke="url(#P)" d="M382.122-52.697C138.106 160.505 11.085 414.375 98.414 514.336c87.327 99.96 355.936 8.161 599.955-205.042C942.386 96.09 1069.41-157.779 982.079-257.739c-87.329-99.961-355.938-8.16-599.957 205.042Z"/><path stroke="url(#Q)" d="M360.014-65.97C120.489 156.034 6.954 423.01 106.424 530.344c99.472 107.332 374.282 14.374 613.805-207.628 239.525-222.002 353.061-488.981 253.59-596.313C874.347-380.93 599.538-287.972 360.014-65.97Z"/><path stroke="url(#R)" d="M335.111-79.862C100.907 150.84 2.955 431.171 116.327 546.277c113.373 115.104 395.14 21.396 629.344-209.305 234.204-230.703 332.159-511.035 218.784-626.141-113.374-115.104-395.14-21.396-629.344 209.307Z"/><path stroke="url(#S)" d="M306.059-94.832C78.056 144.281-1.988 438.05 127.273 561.317c129.262 123.267 418.881 29.355 646.883-209.757C1002.16 112.446 1082.2-181.321 952.942-304.588 823.68-427.856 534.061-333.944 306.059-94.831Z"/><path stroke="url(#T)" d="M273.328-110.068C52.44 137.092-7.158 444.232 140.212 575.949c147.368 131.718 445.899 38.133 666.785-209.027 220.893-247.16 280.483-554.3 133.118-686.017-147.37-131.718-445.901-38.132-666.787 209.027Z"/><path stroke="url(#U)" d="M235.724-126.247C22.557 128.774-13.896 449.495 154.3 590.1c168.198 140.606 477.354 47.854 690.521-207.167 213.169-255.023 249.619-575.742 81.423-716.349-168.197-140.606-477.355-47.853-690.52 207.169Z"/><path stroke="url(#V)" d="M192.866-142.229c-204.767 262.528-215.33 596.597-23.591 746.166 191.739 149.568 513.171 57.996 717.938-204.531 204.767-262.529 215.327-596.598 23.592-746.166-191.739-149.569-513.17-57.996-717.939 204.531Z"/><path stroke="url(#W)" d="M144.863-158.771C-50.862 110.761-32.43 457.876 186.031 616.531c218.463 158.654 554.229 68.77 749.954-200.763 195.725-269.533 177.295-616.649-41.17-775.303-218.463-158.655-554.227-68.769-749.952 200.764Z"/><path stroke="url(#X)" d="M89.717-175.176C-96.661 101.156-46.174 461.136 202.482 628.864c248.655 167.728 601.32 79.688 787.698-196.644 186.38-276.331 135.89-636.313-112.765-804.041-248.656-167.728-601.32-79.686-787.698 196.645Z"/><path stroke="url(#Y)" d="M841.826-394.282C553.19-560.934 184.116-462.036 17.472-173.386s-67.75 657.744 220.885 824.395c288.634 166.652 657.712 67.754 824.353-220.896 166.64-288.649 67.75-657.744-220.884-824.395Z"/></g><defs><linearGradient id="a" x1="658.459" x2="575.765" y1="112.152" y2="236.91" gradientUnits="userSpaceOnUse"><stop stop-color="#EF4444"/><stop offset="1" stop-color="#FFBCBC"/></linearGradient><linearGradient id="b" x1="667.957" x2="585.317" y1="111.727" y2="243.479" gradientUnits="userSpaceOnUse"><stop stop-color="#EF4444"/><stop offset="1" stop-color="#FFBCBC"/></linearGradient><linearGradient id="c" x1="678.006" x2="594.785" y1="111.179" y2="250.444" gradientUnits="userSpaceOnUse"><stop stop-color="#EF4444"/><stop offset="1" stop-color="#FFBCBC"/></linearGradient><linearGradient id="d" x1="689.213" x2="604.341" y1="110.584" y2="257.917" gradientUnits="userSpaceOnUse"><stop stop-color="#EF4444"/><stop offset="1" stop-color="#FFBCBC"/></linearGradient><linearGradient id="e" x1="699.912" x2="611.961" y1="109.57" y2="265.913" gradientUnits="userSpaceOnUse"><stop stop-color="#EF4444"/><stop offset="1" stop-color="#FFBCBC"/></linearGradient><linearGradient id="f" x1="711.723" x2="619.095" y1="108.671" y2="275.42" gradientUnits="userSpaceOnUse"><stop stop-color="#EF4444"/><stop offset="1" stop-color="#FFBCBC"/></linearGradient><linearGradient id="g" x1="724.216" x2="623.23" y1="106.987" y2="286.62" gradientUnits="userSpaceOnUse"><stop stop-color="#EF4444"/><stop offset="1" stop-color="#FFBCBC"/></linearGradient><linearGradient id="h" x1="737.033" x2="625.696" y1="105.102" y2="299.266" gradientUnits="userSpaceOnUse"><stop stop-color="#EF4444"/><stop offset="1" stop-color="#FFBCBC"/></linearGradient><linearGradient id="i" x1="749.541" x2="625.653" y1="102.875" y2="312.681" gradientUnits="userSpaceOnUse"><stop stop-color="#EF4444"/><stop offset="1" stop-color="#FFBCBC"/></linearGradient><linearGradient id="j" x1="763.2" x2="624.582" y1="99.851" y2="326.772" gradientUnits="userSpaceOnUse"><stop stop-color="#EF4444"/><stop offset="1" stop-color="#FFBCBC"/></linearGradient><linearGradient id="k" x1="776.946" x2="619.734" y1="96.915" y2="343.077" gradientUnits="userSpaceOnUse"><stop stop-color="#EF4444"/><stop offset="1" stop-color="#FFBCBC"/></linearGradient><linearGradient id="l" x1="791.54" x2="613.723" y1="93.407" y2="359.12" gradientUnits="userSpaceOnUse"><stop stop-color="#EF4444"/><stop offset="1" stop-color="#FFBCBC"/></linearGradient><linearGradient id="m" x1="806.468" x2="605.693" y1="89.859" y2="376.037" gradientUnits="userSpaceOnUse"><stop stop-color="#EF4444"/><stop offset="1" stop-color="#FFBCBC"/></linearGradient><linearGradient id="n" x1="821.179" x2="595.251" y1="85.653" y2="392.684" gradientUnits="userSpaceOnUse"><stop stop-color="#EF4444"/><stop offset="1" stop-color="#FFBCBC"/></linearGradient><linearGradient id="o" x1="836.886" x2="582.53" y1="80.657" y2="409.371" gradientUnits="userSpaceOnUse"><stop stop-color="#EF4444"/><stop offset="1" stop-color="#FFBCBC"/></linearGradient><linearGradient id="p" x1="852.597" x2="567.117" y1="75.542" y2="425.608" gradientUnits="userSpaceOnUse"><stop stop-color="#EF4444"/><stop offset="1" stop-color="#FFBCBC"/></linearGradient><linearGradient id="q" x1="868.077" x2="549.703" y1="70.012" y2="441.1" gradientUnits="userSpaceOnUse"><stop stop-color="#EF4444"/><stop offset="1" stop-color="#FFBCBC"/></linearGradient><linearGradient id="r" x1="884.079" x2="531.172" y1="64.124" y2="455.75" gradientUnits="userSpaceOnUse"><stop stop-color="#EF4444"/><stop offset="1" stop-color="#FFBCBC"/></linearGradient><linearGradient id="s" x1="901.037" x2="511.019" y1="57.509" y2="469.593" gradientUnits="userSpaceOnUse"><stop stop-color="#EF4444"/><stop offset="1" stop-color="#FFBCBC"/></linearGradient><linearGradient id="t" x1="916.822" x2="488.806" y1="50.767" y2="481.735" gradientUnits="userSpaceOnUse"><stop stop-color="#EF4444"/><stop offset="1" stop-color="#FFBCBC"/></linearGradient><linearGradient id="u" x1="933.355" x2="464.436" y1="43.542" y2="492.997" gradientUnits="userSpaceOnUse"><stop stop-color="#EF4444"/><stop offset="1" stop-color="#FFBCBC"/></linearGradient><linearGradient id="v" x1="949.62" x2="439.704" y1="35.631" y2="502.238" gradientUnits="userSpaceOnUse"><stop stop-color="#EF4444"/><stop offset="1" stop-color="#FFBCBC"/></linearGradient><linearGradient id="w" x1="965.564" x2="412.886" y1="27.683" y2="509.875" gradientUnits="userSpaceOnUse"><stop stop-color="#EF4444"/><stop offset="1" stop-color="#FFBCBC"/></linearGradient><linearGradient id="x" x1="981.614" x2="385.044" y1="18.362" y2="515.062" gradientUnits="userSpaceOnUse"><stop stop-color="#EF4444"/><stop offset="1" stop-color="#FFBCBC"/></linearGradient><linearGradient id="y" x1="997.138" x2="356.855" y1="9.363" y2="518.472" gradientUnits="userSpaceOnUse"><stop stop-color="#EF4444"/><stop offset="1" stop-color="#FFBCBC"/></linearGradient><linearGradient id="z" x1="1012.18" x2="326.772" y1="-.142" y2="520.042" gradientUnits="userSpaceOnUse"><stop stop-color="#EF4444"/><stop offset="1" stop-color="#FFBCBC"/></linearGradient><linearGradient id="A" x1="1026.82" x2="296.78" y1="-10.585" y2="518.521" gradientUnits="userSpaceOnUse"><stop stop-color="#EF4444"/><stop offset="1" stop-color="#FFBCBC"/></linearGradient><linearGradient id="B" x1="1041.15" x2="266.252" y1="-21.676" y2="514.489" gradientUnits="userSpaceOnUse"><stop stop-color="#EF4444"/><stop offset="1" stop-color="#FFBCBC"/></linearGradient><linearGradient id="C" x1="1054.03" x2="235.889" y1="-32.578" y2="508.091" gradientUnits="userSpaceOnUse"><stop stop-color="#EF4444"/><stop offset="1" stop-color="#FFBCBC"/></linearGradient><linearGradient id="D" x1="1066.62" x2="205.298" y1="-44.242" y2="498.984" gradientUnits="userSpaceOnUse"><stop stop-color="#EF4444"/><stop offset="1" stop-color="#FFBCBC"/></linearGradient><linearGradient id="E" x1="1077.92" x2="174.518" y1="-56.517" y2="487.098" gradientUnits="userSpaceOnUse"><stop stop-color="#EF4444"/><stop offset="1" stop-color="#FFBCBC"/></linearGradient><linearGradient id="F" x1="1088.45" x2="144.66" y1="-69.334" y2="472.616" gradientUnits="userSpaceOnUse"><stop stop-color="#EF4444"/><stop offset="1" stop-color="#FFBCBC"/></linearGradient><linearGradient id="G" x1="1097.58" x2="115.883" y1="-82.512" y2="454.763" gradientUnits="userSpaceOnUse"><stop stop-color="#EF4444"/><stop offset="1" stop-color="#FFBCBC"/></linearGradient><linearGradient id="H" x1="1105.77" x2="88.387" y1="-96.281" y2="434.533" gradientUnits="userSpaceOnUse"><stop stop-color="#EF4444"/><stop offset="1" stop-color="#FFBCBC"/></linearGradient><linearGradient id="I" x1="1112.97" x2="62.367" y1="-110.074" y2="411.918" gradientUnits="userSpaceOnUse"><stop stop-color="#EF4444"/><stop offset="1" stop-color="#FFBCBC"/></linearGradient><linearGradient id="J" x1="1118.53" x2="37.337" y1="-125.078" y2="386.249" gradientUnits="userSpaceOnUse"><stop stop-color="#EF4444"/><stop offset="1" stop-color="#FFBCBC"/></linearGradient><linearGradient id="K" x1="1122.47" x2="14.33" y1="-139.849" y2="358.755" gradientUnits="userSpaceOnUse"><stop stop-color="#EF4444"/><stop offset="1" stop-color="#FFBCBC"/></linearGradient><linearGradient id="L" x1="1125.46" x2="-6.811" y1="-155.073" y2="329.379" gradientUnits="userSpaceOnUse"><stop stop-color="#EF4444"/><stop offset="1" stop-color="#FFBCBC"/></linearGradient><linearGradient id="M" x1="1127.53" x2="-25.191" y1="-170.387" y2="298.586" gradientUnits="userSpaceOnUse"><stop stop-color="#EF4444"/><stop offset="1" stop-color="#FFBCBC"/></linearGradient><linearGradient id="N" x1="1128.5" x2="-41.824" y1="-186.53" y2="266.241" gradientUnits="userSpaceOnUse"><stop stop-color="#EF4444"/><stop offset="1" stop-color="#FFBCBC"/></linearGradient><linearGradient id="O" x1="1128.52" x2="-56.542" y1="-202.334" y2="233.991" gradientUnits="userSpaceOnUse"><stop stop-color="#EF4444"/><stop offset="1" stop-color="#FFBCBC"/></linearGradient><linearGradient id="P" x1="1128.49" x2="-69.604" y1="-218.779" y2="201.675" gradientUnits="userSpaceOnUse"><stop stop-color="#EF4444"/><stop offset="1" stop-color="#FFBCBC"/></linearGradient><linearGradient id="Q" x1="1128.78" x2="-81.68" y1="-235.083" y2="170.849" gradientUnits="userSpaceOnUse"><stop stop-color="#EF4444"/><stop offset="1" stop-color="#FFBCBC"/></linearGradient><linearGradient id="R" x1="1130.95" x2="-93.232" y1="-251.459" y2="142.453" gradientUnits="userSpaceOnUse"><stop stop-color="#EF4444"/><stop offset="1" stop-color="#FFBCBC"/></linearGradient><linearGradient id="S" x1="1134.93" x2="-106.026" y1="-268.144" y2="117.317" gradientUnits="userSpaceOnUse"><stop stop-color="#EF4444"/><stop offset="1" stop-color="#FFBCBC"/></linearGradient><linearGradient id="T" x1="1142.75" x2="-120.307" y1="-284.363" y2="97.409" gradientUnits="userSpaceOnUse"><stop stop-color="#EF4444"/><stop offset="1" stop-color="#FFBCBC"/></linearGradient><linearGradient id="U" x1="1156.43" x2="-138.645" y1="-300.874" y2="84.075" gradientUnits="userSpaceOnUse"><stop stop-color="#EF4444"/><stop offset="1" stop-color="#FFBCBC"/></linearGradient><linearGradient id="V" x1="1176.57" x2="-162.259" y1="-316.731" y2="79.518" gradientUnits="userSpaceOnUse"><stop stop-color="#EF4444"/><stop offset="1" stop-color="#FFBCBC"/></linearGradient><linearGradient id="W" x1="1205.99" x2="-191.613" y1="-332.462" y2="85.37" gradientUnits="userSpaceOnUse"><stop stop-color="#EF4444"/><stop offset="1" stop-color="#FFBCBC"/></linearGradient><linearGradient id="X" x1="1245.11" x2="-229.486" y1="-347.895" y2="104.033" gradientUnits="userSpaceOnUse"><stop stop-color="#EF4444"/><stop offset="1" stop-color="#FFBCBC"/></linearGradient><linearGradient id="Y" x1="1296.47" x2="-274.152" y1="-362.877" y2="137.864" gradientUnits="userSpaceOnUse"><stop stop-color="#EF4444"/><stop offset="1" stop-color="#FFBCBC"/></linearGradient></defs></svg>