<svg width="1500" height="500" viewBox="0 0 1500 500" fill="none" xmlns="http://www.w3.org/2000/svg">
<g clip-path="url(#clip0)">
<path opacity="0.3" d="M967 216.468C967.003 220.996 966.675 225.519 966.019 230H522C523.818 217.866 528.315 206.29 535.166 196.114C542.016 185.939 551.047 177.421 561.601 171.18C572.155 164.938 583.967 161.131 596.176 160.035C608.386 158.939 620.686 160.582 632.181 164.844C637.468 145.279 648.351 127.687 663.492 114.231C678.634 100.774 697.373 92.0393 717.407 89.0997C737.442 86.1602 757.897 89.1441 776.26 97.6848C794.623 106.225 810.092 119.951 820.767 137.173C835.042 127.856 851.567 122.572 868.594 121.881C885.622 121.19 902.52 125.118 917.501 133.248C932.483 141.378 944.991 153.409 953.704 168.069C962.417 182.728 967.011 199.472 967 216.53V216.468Z" fill="#1B1464"/>
<path opacity="0.3" d="M1524 104.468C1524 108.996 1523.68 113.519 1523.02 118H1079C1080.82 105.866 1085.32 94.2895 1092.17 84.1143C1099.02 73.9391 1108.05 65.4209 1118.6 59.1797C1129.16 52.9384 1140.97 49.1312 1153.18 48.0352C1165.39 46.9391 1177.69 48.5818 1189.18 52.8436C1194.47 33.2792 1205.35 15.6874 1220.49 2.23083C1235.63 -11.2258 1254.37 -19.9607 1274.41 -22.9003C1294.44 -25.8398 1314.9 -22.8559 1333.26 -14.3152C1351.62 -5.77453 1367.09 7.95061 1377.77 25.173C1392.04 15.8557 1408.57 10.5723 1425.59 9.88135C1442.62 9.19038 1459.52 13.1175 1474.5 21.2476C1489.48 29.3777 1501.99 41.4087 1510.7 56.0685C1519.42 70.7283 1524.01 87.4723 1524 104.53V104.468Z" fill="#1B1464"/>
<path opacity="0.3" d="M1389 457.137C1389 460.103 1388.79 463.065 1388.36 466H1097C1098.19 458.053 1101.14 450.471 1105.64 443.807C1110.13 437.143 1116.06 431.564 1122.99 427.477C1129.91 423.389 1137.66 420.896 1145.67 420.178C1153.68 419.46 1161.76 420.536 1169.3 423.327C1172.77 410.514 1179.91 398.992 1189.84 390.179C1199.78 381.366 1212.08 375.645 1225.22 373.72C1238.37 371.795 1251.79 373.749 1263.84 379.343C1275.89 384.936 1286.04 393.925 1293.04 405.205C1302.41 399.103 1313.25 395.642 1324.43 395.19C1335.6 394.737 1346.69 397.309 1356.52 402.634C1366.35 407.959 1374.56 415.838 1380.28 425.439C1385.99 435.04 1389.01 446.006 1389 457.178V457.137Z" fill="#03020E"/>
<path opacity="0.3" d="M1215 419.996C1215 422.005 1214.86 424.012 1214.56 426H1017C1017.81 420.616 1019.81 415.481 1022.86 410.966C1025.91 406.452 1029.92 402.673 1034.62 399.904C1039.32 397.135 1044.57 395.446 1050 394.959C1055.44 394.473 1060.91 395.202 1066.02 397.093C1068.38 388.413 1073.22 380.608 1079.96 374.638C1086.69 368.667 1095.03 364.792 1103.95 363.488C1112.86 362.184 1121.96 363.508 1130.13 367.297C1138.3 371.086 1145.18 377.175 1149.93 384.816C1156.29 380.682 1163.64 378.338 1171.21 378.032C1178.79 377.725 1186.31 379.468 1192.98 383.075C1199.64 386.682 1205.21 392.019 1209.08 398.523C1212.96 405.027 1215 412.456 1215 420.024V419.996Z" fill="#03020E"/>
<path opacity="0.5" d="M1116 245.996C1116 248.005 1115.86 250.012 1115.56 252H918C918.809 246.616 920.81 241.481 923.858 236.966C926.906 232.452 930.924 228.673 935.62 225.904C940.316 223.135 945.572 221.446 951.004 220.959C956.437 220.473 961.91 221.202 967.024 223.093C969.377 214.413 974.219 206.608 980.956 200.638C987.693 194.667 996.031 190.792 1004.95 189.488C1013.86 188.184 1022.96 189.508 1031.13 193.297C1039.3 197.086 1046.18 203.175 1050.93 210.816C1057.29 206.682 1064.64 204.338 1072.21 204.032C1079.79 203.725 1087.31 205.468 1093.98 209.075C1100.64 212.682 1106.21 218.019 1110.08 224.523C1113.96 231.027 1116 238.456 1116 246.024V245.996Z" fill="#1B1464"/>
<path opacity="0.5" d="M1401 152.996C1401 155.005 1400.86 157.012 1400.56 159H1203C1203.81 153.616 1205.81 148.481 1208.86 143.966C1211.91 139.452 1215.92 135.673 1220.62 132.904C1225.32 130.135 1230.57 128.446 1236 127.959C1241.44 127.473 1246.91 128.202 1252.02 130.093C1254.38 121.413 1259.22 113.608 1265.96 107.638C1272.69 101.667 1281.03 97.7921 1289.95 96.4879C1298.86 95.1837 1307.96 96.5076 1316.13 100.297C1324.3 104.086 1331.18 110.175 1335.93 117.816C1342.29 113.682 1349.64 111.338 1357.21 111.032C1364.79 110.725 1372.31 112.468 1378.98 116.075C1385.64 119.682 1391.21 125.019 1395.08 131.523C1398.96 138.027 1401 145.456 1401 153.024V152.996Z" fill="#1B1464"/>
<path opacity="0.5" d="M231 103.996C231.001 106.005 230.855 108.012 230.564 110H33C33.8087 104.616 35.8099 99.4806 38.858 94.9662C41.9061 90.4519 45.9244 86.6727 50.6204 83.9037C55.3163 81.1347 60.5718 79.4455 66.0043 78.9593C71.4368 78.473 76.9095 79.2018 82.0242 81.0926C84.3767 72.4126 89.2191 64.6078 95.9562 58.6376C102.693 52.6674 111.031 48.7921 119.945 47.4879C128.859 46.1837 137.961 47.5076 146.132 51.2968C154.302 55.0859 161.185 61.1753 165.934 68.8162C172.286 64.6825 179.639 62.3384 187.215 62.0319C194.791 61.7253 202.31 63.4676 208.976 67.0747C215.642 70.6817 221.207 76.0193 225.084 82.5233C228.961 89.0274 231.005 96.456 231 104.024V103.996Z" fill="#1B1464"/>
<path opacity="0.5" d="M330 144.996C330.001 147.005 329.855 149.012 329.564 151H132C132.809 145.616 134.81 140.481 137.858 135.966C140.906 131.452 144.924 127.673 149.62 124.904C154.316 122.135 159.572 120.446 165.004 119.959C170.437 119.473 175.91 120.202 181.024 122.093C183.377 113.413 188.219 105.608 194.956 99.6376C201.693 93.6674 210.031 89.7921 218.945 88.4879C227.859 87.1837 236.961 88.5076 245.132 92.2968C253.302 96.0859 260.185 102.175 264.934 109.816C271.286 105.682 278.639 103.338 286.215 103.032C293.791 102.725 301.31 104.468 307.976 108.075C314.642 111.682 320.207 117.019 324.084 123.523C327.961 130.027 330.005 137.456 330 145.024V144.996Z" fill="#1B1464"/>
<path opacity="0.5" d="M478 113.996C478.001 116.005 477.855 118.012 477.564 120H280C280.809 114.616 282.81 109.481 285.858 104.966C288.906 100.452 292.924 96.6727 297.62 93.9037C302.316 91.1347 307.572 89.4455 313.004 88.9593C318.437 88.473 323.91 89.2018 329.024 91.0926C331.377 82.4126 336.219 74.6078 342.956 68.6376C349.693 62.6674 358.031 58.7921 366.945 57.4879C375.859 56.1837 384.961 57.5076 393.132 61.2968C401.302 65.0859 408.185 71.1753 412.934 78.8162C419.286 74.6825 426.639 72.3384 434.215 72.0319C441.791 71.7253 449.31 73.4676 455.976 77.0747C462.642 80.6817 468.207 86.0193 472.084 92.5233C475.961 99.0274 478.005 106.456 478 114.024V113.996Z" fill="#1B1464"/>
<path opacity="0.3" d="M478 349.468C478.003 353.996 477.675 358.519 477.019 363H33C34.8175 350.866 39.3152 339.29 46.1657 329.114C53.0163 318.939 62.0472 310.421 72.6013 304.18C83.1554 297.938 94.967 294.131 107.176 293.035C119.386 291.939 131.686 293.582 143.181 297.844C148.468 278.279 159.351 260.687 174.492 247.231C189.634 233.774 208.373 225.039 228.407 222.1C248.442 219.16 268.897 222.144 287.26 230.685C305.623 239.225 321.092 252.951 331.767 270.173C346.042 260.856 362.567 255.572 379.594 254.881C396.622 254.19 413.52 258.118 428.501 266.248C443.483 274.378 455.991 286.409 464.704 301.069C473.417 315.728 478.011 332.472 478 349.53V349.468Z" fill="#03020E"/>
<path opacity="0.3" d="M599 387.996C599.001 390.005 598.855 392.012 598.564 394H401C401.809 388.616 403.81 383.481 406.858 378.966C409.906 374.452 413.924 370.673 418.62 367.904C423.316 365.135 428.572 363.446 434.004 362.959C439.437 362.473 444.91 363.202 450.024 365.093C452.377 356.413 457.219 348.608 463.956 342.638C470.693 336.667 479.031 332.792 487.945 331.488C496.859 330.184 505.961 331.508 514.132 335.297C522.302 339.086 529.185 345.175 533.934 352.816C540.286 348.682 547.639 346.338 555.215 346.032C562.791 345.725 570.31 347.468 576.976 351.075C583.642 354.682 589.207 360.019 593.084 366.523C596.961 373.027 599.005 380.456 599 388.024V387.996Z" fill="#03020E"/>
<path opacity="0.3" d="M132 387.996C132.001 390.005 131.855 392.012 131.564 394H-66C-65.1913 388.616 -63.1901 383.481 -60.142 378.966C-57.0939 374.452 -53.0756 370.673 -48.3796 367.904C-43.6837 365.135 -38.4282 363.446 -32.9957 362.959C-27.5632 362.473 -22.0905 363.202 -16.9758 365.093C-14.6233 356.413 -9.78087 348.608 -3.04384 342.638C3.69319 336.667 12.0312 332.792 20.9453 331.488C29.8594 330.184 38.9611 331.508 47.1315 335.297C55.3019 339.086 62.1849 345.175 66.9345 352.816C73.286 348.682 80.6386 346.338 88.215 346.032C95.7914 345.725 103.31 347.468 109.976 351.075C116.642 354.682 122.207 360.019 126.084 366.523C129.961 373.027 132.005 380.456 132 388.024V387.996Z" fill="#03020E"/>
</g>
<defs>
<clipPath id="clip0">
<rect width="1500" height="500" fill="white"/>
</clipPath>
</defs>
</svg>
