<?xml version="1.0" encoding="UTF-8"?>
<svg width="1440px" height="240px" viewBox="0 0 1440 240" version="1.1" xmlns="http://www.w3.org/2000/svg" xmlns:xlink="http://www.w3.org/1999/xlink">
    <title>bg-connect-wallet</title>
    <defs>
        <rect id="path-1" x="0" y="0" width="1440" height="240"></rect>
    </defs>
    <g id="Protocol" stroke="none" stroke-width="1" fill="none" fill-rule="evenodd">
        <g id="bg-connect-wallet">
            <mask id="mask-2" fill="white">
                <use xlink:href="#path-1"></use>
            </mask>
            <use id="Mask" fill="#EF2B55" xlink:href="#path-1"></use>
            <g id="Asset-126" mask="url(#mask-2)">
                <g transform="translate(-143.000000, -1225.000000)" id="Path">
                    <path d="M1745,885 L1745,885.649524 C1745,886.338412 1745,887.027301 1745,887.735872 L1745,888.34603 C1745,888.838094 1745,889.310474 1745,889.802538 C1742.40183,1093.04436 1576.82734,1257 1372.98884,1257 C1333.94647,1257.0351 1295.1419,1250.92433 1258,1238.89192 C1390.32199,1021.51629 1390.32199,748.483706 1258,531.108081 C1295.1419,519.075672 1333.94647,512.964903 1372.98884,513 C1576.82734,513 1742.40183,676.935958 1745,880.197462 C1745,880.610795 1745,881.024129 1745,881.437462 L1745,882.04762 C1745,883.031747 1745,884.015873 1745,885 Z" fill="#FED533" fill-rule="nonzero"></path>
                    <path d="M1747,879.53087 C1741.84851,1357.27413 1352.95061,1743 874,1743 C395.049392,1743 5.85655405,1356.99886 1,879 C5.85655405,1250.01882 308.142635,1549.33093 680.327703,1549.33093 C722.850691,1549.36174 765.283213,1545.41214 807.07,1537.53383 C881.995544,1563.66303 960.794245,1576.95768 1040.14527,1576.8575 C1427.37189,1576.8575 1741.84851,1265.51235 1747,879.53087 Z" fill="#001E3C" fill-rule="nonzero"></path>
                    <path d="M1745.98502,876.5106 C1745.98502,877.001562 1745.98502,877.472885 1745.98502,877.944209 L1745.98502,878.729747 C1745.98502,878.94577 1745.98502,879.181432 1745.98502,879.417094 L1745.98502,879.417094 C1746,879.49438 1746,879.575469 1745.98502,879.652755 C1741.7785,1169.94862 1504.91621,1404 1213.29057,1404 C1179.29746,1404.02027 1145.38004,1400.79803 1112,1394.37705 C1170.3178,1346.24152 1220.21272,1288.74711 1259.64089,1224.24899 C1296.72956,1236.27445 1335.48194,1242.39144 1374.47487,1242.3753 C1578.03884,1242.3753 1743.39035,1078.78684 1745.98502,876 C1745.97521,876.170059 1745.97521,876.340541 1745.98502,876.5106 Z" fill="none"></path>
                    <path d="M1746,874 L1746,875.965583 C1746,876.456979 1746,876.928719 1746,877.400459 L1746,878.186693 C1746,878.402907 1746,878.638777 1746,878.874647 L1746,879.18914 C1741.79338,1169.74168 1504.9255,1404 1213.29296,1404 C1179.29905,1404.02029 1145.38083,1400.7952 1112,1394.36855 C1170.31918,1346.19045 1220.21528,1288.6452 1259.64437,1224.09006 C1296.7382,1236.09947 1335.4914,1242.19532 1374.48107,1242.15377 C1578.04986,1242.15377 1743.40526,1078.42067 1746,875.454532 C1746,874.963136 1746,874.589675 1746,874 Z" fill="none"></path>
                    <path d="M1747,879 L1747,879.982655 C1741.84813,1265.79263 1427.34809,1577 1040.09263,1577 C960.735694,1577.09958 881.931124,1563.81084 807,1537.69324 C919.442096,1516.45806 1024.65465,1467.05471 1112.78906,1394.10771 C1146.18099,1400.53347 1180.11049,1403.7581 1214.11572,1403.73772 C1505.78629,1403.71807 1742.73299,1169.5121 1747,879 Z" fill="#EF2B55" fill-rule="nonzero"></path>
                    <path d="M1745.18575,876 C1745.18575,876.629598 1745.18575,877.298546 1745.18575,877.967493 L1745.18575,878.754491 C1745.18575,878.970915 1745.18575,879.207014 1745.18575,879.443113 L1745.18575,879.443113 C1745.20076,879.520543 1745.20076,879.601782 1745.18575,879.679212 C1740.97126,1170.51406 1503.66037,1405 1211.48241,1405 C1177.42491,1405.02031 1143.44326,1401.79209 1110,1395.35919 C1168.42825,1347.13428 1218.41767,1289.53312 1257.92051,1224.91525 C1295.0805,1236.95636 1333.90625,1243.07806 1372.97198,1243.05554 C1576.92149,1243.05554 1742.58616,1079.16335 1745.18575,876 Z" fill="#3A6EFF" fill-rule="nonzero"></path>
                    <path d="M680.01207,871.67946 C679.847779,976.181834 710.433767,1078.41239 767.9432,1165.58031 C694.747078,1247.56254 593.565452,1299.08799 484.3432,1310 C444.548412,1259.62209 411.798557,1204.03696 387,1144.78293 C502.586716,1103.58271 579.794112,993.930257 579.794112,870.970458 C579.794112,748.010659 502.586716,638.358202 387,597.157982 C411.803325,537.924612 444.553018,482.359629 484.3432,432 C593.830457,442.956143 695.220512,494.72338 768.434436,577.049909 C710.597189,664.361797 679.831386,766.875621 680.01207,871.67946 Z" fill="#EF2B55" fill-rule="nonzero"></path>
                    <path d="M1259.53461,1225.45121 C1220.15034,1290.10883 1170.31098,1347.74542 1112.05811,1396 C971.505708,1368.66822 847.852346,1285.73632 769,1165.91761 C918.660495,998.59348 918.871932,745.184874 769.490868,577.609904 C848.60517,457.783861 972.56606,375.005945 1113.33436,348 C1171.03992,396.048857 1221.37197,450.691438 1260.46896,514.876004 C1107.58332,564.758575 1003.16027,710.273526 1003.16027,871.478294 C1003.16027,1032.68306 1106.64897,1175.56863 1259.53461,1225.45121 Z" fill="#000814" fill-rule="nonzero"></path>
                    <path d="M807,1539.19563 C765.220918,1547.07868 722.796221,1551.03065 680.281073,1551 C308.086,1551.01949 5.85565854,1251.52741 1,880.285501 C1,879.183776 1,878.082051 1,877 C4.08639024,1117.76622 200.062341,1311.98456 441.35122,1311.98456 C456.226179,1311.98456 470.917659,1311.25663 485.425659,1309.80078 C568.7098,1415.23864 680.239539,1494.79831 807,1539.19563 L807,1539.19563 Z" fill="#FED533" fill-rule="nonzero"></path>
                    <path d="M485,1310.81853 C470.530936,1312.27284 455.852366,1313 440.964289,1313 C199.887428,1313 4.08367827,1118.98639 1,878.473969 C1,877.982646 1,877.491323 1,877 C2.44717988,970.401728 48.7560288,1057.39143 125.413801,1110.70736 C202.071572,1164.0233 299.697732,1177.14126 387.697184,1145.95019 C412.485453,1205.07915 445.221721,1260.54695 485,1310.81853 L485,1310.81853 Z" fill="#3A6EFF" fill-rule="nonzero"></path>
                    <path d="M1112,1395.13415 C1023.92868,1468.21161 918.79313,1517.71072 806.430613,1539 C679.724431,1494.54934 568.246004,1414.91871 485,1309.39751 C594.250833,1298.48718 695.458936,1246.96964 768.674211,1165 C847.587909,1284.82821 971.334563,1367.77663 1112,1395.13415 L1112,1395.13415 Z" fill="#001E3C" fill-rule="nonzero"></path>
                </g>
            </g>
        </g>
    </g>
</svg>