<svg width="997" height="997" viewBox="0 0 997 997" fill="none" xmlns="http://www.w3.org/2000/svg">
<path d="M996 498.5L995.936 493.338L995.681 488.177L995.266 483.015L994.692 477.885L993.99 472.755L993.097 467.625L992.045 462.527L990.833 457.461L989.429 452.395L987.898 447.361L986.207 442.39L984.357 437.42L982.348 432.481L980.178 427.606L977.882 422.763L975.394 417.952L972.778 413.204L970.003 408.489L967.068 403.837L963.974 399.249L960.753 394.724L957.371 390.263L953.831 385.834L950.162 381.501L946.366 377.232L942.411 373.026L938.328 368.915L934.086 364.869L929.716 360.886L925.218 356.999L920.593 353.207L915.808 349.479L910.928 345.879L905.92 342.342L900.784 338.901L895.521 335.555L890.13 332.306L884.643 329.183L879.029 326.124L873.288 323.193L867.482 320.357L861.517 317.649L855.489 315.036L849.332 312.551L843.08 310.161L836.732 307.899L830.289 305.732L823.75 303.693L817.147 301.781L810.448 299.997L803.654 298.34L796.764 296.779L789.842 295.377L782.824 294.102L775.711 292.924L768.566 291.904L761.325 290.98L754.052 290.215L746.684 289.578L739.284 289.068L731.851 288.718L724.323 288.463L716.763 288.367L709.172 288.399L701.548 288.59L693.86 288.877L686.173 289.323L678.422 289.928L670.67 290.629L662.855 291.49L655.072 292.477L647.225 293.625L639.378 294.899L631.531 296.301L623.684 297.862L615.806 299.551L607.927 301.367L600.08 303.311L592.201 305.414L584.354 307.644L576.507 310.034L568.692 312.519L560.877 315.164L553.094 317.936L545.342 320.835L537.623 323.862L529.904 327.016L522.248 330.33L514.593 333.739L507.033 337.308L499.473 340.972L491.977 344.764L484.513 348.715L477.112 352.761L469.776 356.903L462.503 361.205L455.262 365.602L448.117 370.126L441.004 374.746L433.986 379.494L427.032 384.369L420.142 389.339L413.348 394.405L406.649 399.567L400.014 404.856L393.475 410.241L387 415.721L380.62 421.297L374.368 426.969L368.18 432.736L362.087 438.599L356.122 444.525L350.221 450.547L344.448 456.665L338.802 462.846L333.219 469.091L327.797 475.432L322.438 481.836L317.239 488.304L312.135 494.868L307.159 501.463L302.278 508.154L297.525 514.877L292.932 521.664L288.434 528.483L284.064 535.365L279.822 542.311L275.707 549.257L271.752 556.298L267.892 563.34L264.192 570.413L260.619 577.551L257.174 584.688L253.857 591.857L250.699 599.058L247.669 606.259L244.798 613.491L242.023 620.724L239.439 627.989L236.951 635.222L234.654 642.486L232.453 649.751L230.412 657.016L228.53 664.248L226.775 671.481L225.148 678.714L223.713 685.947L222.373 693.116L221.193 700.285L220.172 707.422L219.279 714.559L218.546 721.633L217.94 728.674L217.461 735.684L217.142 742.63L216.982 749.576L216.951 756.426L217.046 763.245L217.302 770.032L217.684 776.723L218.195 783.382L218.865 789.977L219.662 796.477L220.587 802.945L221.672 809.318L222.852 815.627L224.191 821.84L225.659 827.989L227.254 834.043L228.976 840.033L230.826 845.928L232.804 851.695L234.909 857.398L237.142 863.006L239.471 868.518L241.927 873.903L244.511 879.192L247.19 884.386L249.997 889.452L252.932 894.423L255.962 899.266L259.088 904.013L262.31 908.601L265.659 913.094L269.104 917.459L272.645 921.697L276.281 925.807L280.013 929.79L283.841 933.645L287.765 937.373L291.752 940.942L295.835 944.383L300.014 947.696L304.256 950.851L308.594 953.878L312.964 956.745L317.43 959.486L321.991 962.066L326.585 964.52L331.242 966.814L335.963 968.949L340.748 970.924L345.596 972.772L350.476 974.429L355.421 975.958L360.397 977.328L365.437 978.539L370.508 979.623L375.612 980.515L380.748 981.248L385.915 981.821L391.115 982.235L396.346 982.49L401.577 982.618L406.841 982.554L412.136 982.331L417.399 981.949L422.726 981.407L428.021 980.706L433.348 979.814L438.643 978.794L443.97 977.615L449.265 976.277L454.56 974.748L459.855 973.091L465.119 971.275L470.382 969.299L475.613 967.132L480.844 964.838L486.012 962.385L491.179 959.772L496.283 957L501.387 954.101L506.427 951.01L511.435 947.792L516.411 944.415L521.323 940.91L526.172 937.214L530.988 933.39L535.741 929.439L540.462 925.329L545.087 921.091L549.681 916.694L554.178 912.17L558.612 907.486L562.982 902.707L567.288 897.768L571.499 892.702L575.646 887.508L579.729 882.187L583.684 876.739L587.576 871.163L591.371 865.46L595.104 859.661L598.708 853.734L602.249 847.68L605.662 841.531L609.011 835.254L612.233 828.882L615.359 822.413L618.389 815.85L621.292 809.159L624.099 802.404L626.779 795.522L629.362 788.576L631.85 781.502L634.211 774.397L636.444 767.164L638.549 759.867L640.559 752.507L642.44 745.051L644.195 737.532L645.822 729.949L647.321 722.302L648.725 714.591L649.969 706.817L651.117 698.978L652.106 691.108L652.967 683.175L653.733 675.209L654.339 667.18L654.817 659.118L655.168 651.025L655.391 642.9L655.455 634.744L655.423 626.555L655.232 618.334L654.913 610.114L654.466 601.862L653.86 593.577L653.158 585.325L652.297 577.041L651.308 568.757L650.192 560.472L648.916 552.188L647.544 543.904L646.013 535.652L644.354 527.399L642.568 519.147L640.654 510.926L638.613 502.738L636.412 494.581L634.115 486.424L631.659 478.331L629.107 470.238L626.428 462.209L623.589 454.211L620.654 446.277L617.592 438.376L614.402 430.506L611.085 422.699L607.672 414.957L604.131 407.278L600.463 399.663L596.667 392.111L592.775 384.624L588.788 377.232L584.673 369.903L580.43 362.639L576.124 355.438L571.69 348.364L567.129 341.354L562.504 334.408L557.783 327.59L552.934 320.835L548.022 314.208L542.982 307.644L537.878 301.208L532.679 294.867L527.384 288.622L522.025 282.505L516.57 276.483L511.052 270.588L505.438 264.789L499.76 259.118L494.018 253.542L488.213 248.125L482.343 242.804L476.379 237.61L470.382 232.544L464.321 227.606L458.197 222.794L452.04 218.111L445.82 213.586L439.568 209.157L433.252 204.888L426.904 200.746L420.525 196.731L414.113 192.876L407.67 189.148L401.194 185.579L394.687 182.138L388.18 178.856L381.641 175.702L375.07 172.675L368.499 169.839L361.928 167.099L355.357 164.55L348.754 162.128L342.183 159.866L335.58 157.731L329.009 155.756L322.438 153.94L315.867 152.283L309.328 150.753L302.821 149.383L296.313 148.141L289.838 147.089L283.395 146.133L276.983 145.369L270.572 144.763L264.256 144.285L257.94 143.935L251.688 143.776L245.468 143.744L239.311 143.839L233.187 144.094L227.126 144.508L221.129 145.05L215.196 145.751L209.327 146.579L203.522 147.567L197.812 148.682L192.166 149.957L186.584 151.359L181.065 152.888L175.643 154.545L170.315 156.361L165.084 158.305L159.917 160.376L154.845 162.574L149.901 164.9L145.02 167.354L140.267 169.935L135.578 172.643L131.017 175.479L126.583 178.41L122.245 181.501L118.003 184.655L113.888 187.969L109.9 191.378L106.041 194.883L102.277 198.515L98.6403 202.211L95.1316 206.067L91.7504 209.986L88.4967 214L85.4025 218.142L82.404 222.348L79.5652 226.65L76.8538 231.047L74.27 235.539L71.8457 240.096L69.5492 244.748L67.3801 249.463L65.3705 254.274L63.5204 259.118L61.7979 264.056L60.235 269.059L58.7995 274.157L57.5235 279.286L56.4071 284.448L55.4502 289.705L54.6528 294.995L53.9828 300.348L53.4726 305.732L53.1215 311.149L52.9301 316.629L52.8665 322.141L52.994 327.685L53.2812 333.261L53.6957 338.869L54.3017 344.477L55.0355 350.148L55.9286 355.82L56.9813 361.492L58.2253 367.195L59.5969 372.898L61.128 378.602L62.8187 384.337L64.6687 390.04L66.6463 395.775L68.8156 401.479L71.1441 407.182L73.6003 412.854L76.2158 418.525L78.9911 424.197L81.9257 429.805L85.0197 435.412L88.2415 441.02L91.6227 446.564L95.1633 452.076L98.8317 457.557L102.659 463.005L106.647 468.422L110.762 473.775L115.004 479.096L119.406 484.353L123.936 489.547L128.625 494.708L133.441 499.806L138.386 504.841L143.457 509.811L148.689 514.686L154.015 519.529L159.502 524.309L165.084 528.992L170.794 533.58L176.663 538.137L182.596 542.566L188.689 546.931L194.877 551.232L201.161 555.406L207.604 559.516L214.112 563.531L220.747 567.45L227.477 571.242L234.303 574.97L241.225 578.602L248.243 582.107L255.356 585.516L262.565 588.83L269.838 592.016L277.206 595.107L284.671 598.07L292.198 600.938L299.822 603.678L307.478 606.322L315.229 608.808L323.044 611.197L330.923 613.491L338.866 615.626L346.872 617.665L354.942 619.577L363.044 621.361L371.178 623.018L379.376 624.548L387.606 625.95L395.899 627.224L404.193 628.371L412.55 629.391L420.908 630.251L429.297 631.016L437.718 631.653L446.171 632.131L454.624 632.481L463.077 632.736L471.562 632.832L480.015 632.8L488.5 632.609L496.985 632.322L505.47 631.876L513.923 631.334L522.376 630.633L530.829 629.805L539.25 628.849L547.639 627.766L556.028 626.523L564.386 625.185L572.679 623.719L580.973 622.094L589.234 620.374L597.432 618.526L605.598 616.518L613.732 614.415L621.771 612.185L629.809 609.827L637.752 607.342L645.662 604.761L653.477 602.021L661.26 599.185L668.948 596.254L676.603 593.195L684.163 590.009L691.628 586.695L699.028 583.318L706.333 579.781L713.574 576.181L720.719 572.453L727.768 568.629L734.722 564.71L741.58 560.664L748.342 556.553L755.009 552.347L761.58 548.014L768.024 543.617L774.372 539.125L780.591 534.568L786.716 529.884L792.713 525.137L798.614 520.326L804.356 515.419L810.002 510.448L815.52 505.414L820.911 500.284L826.174 495.091L831.31 489.865L836.318 484.544L841.198 479.191L845.919 473.743L850.512 468.294L854.978 462.75L859.284 457.174L863.463 451.567L867.514 445.895L871.406 440.192L875.138 434.456L878.742 428.689L882.219 422.89L885.505 417.06L888.663 411.197L891.661 405.334L894.532 399.44L897.243 393.513L899.795 387.587L902.187 381.66L904.42 375.734L906.526 369.808L908.439 363.849L910.226 357.923L911.853 351.997L913.32 346.07L914.628 340.176L915.808 334.281L916.797 328.418L917.658 322.556L918.328 316.725L918.87 310.926L919.253 305.159L919.476 299.424L919.54 293.72L919.476 288.08L919.221 282.473L918.838 276.897L918.296 271.385L917.626 265.936L916.765 260.519L915.776 255.167L914.628 249.877L913.352 244.652L911.916 239.49L910.322 234.392L908.599 229.39L906.749 224.451L904.739 219.576L902.57 214.797L900.305 210.081L897.881 205.493L895.297 200.969L892.618 196.54L889.779 192.175L886.813 187.937L883.75 183.795L880.529 179.748L877.179 175.829L873.702 171.974L870.13 168.246L866.43 164.645L862.602 161.141L858.678 157.763L854.627 154.481L850.481 151.327L846.206 148.3L841.836 145.369L837.338 142.597L832.777 139.952L828.088 137.403L823.335 135.013L818.455 132.751L813.51 130.584L808.471 128.609L803.335 126.729L798.135 125.009L792.84 123.415L787.482 121.982L782.027 120.643L776.541 119.496L770.958 118.477L765.312 117.585L759.603 116.852L753.829 116.278L747.992 115.832L742.122 115.545L736.189 115.418H730.224L724.196 115.577L718.135 115.896L712.01 116.342L705.886 116.979L699.73 117.744L693.509 118.636L687.289 119.719L681.037 120.93L674.785 122.3L668.501 123.83L662.185 125.518L655.87 127.335L649.554 129.31L643.238 131.445L636.922 133.739L630.606 136.16L624.29 138.741L617.975 141.481L611.691 144.381L605.407 147.408L599.155 150.562L592.903 153.908L586.683 157.381L580.494 160.981L574.338 164.741L568.214 168.628L562.121 172.675L556.06 176.849L550.063 181.182L544.099 185.643L538.165 190.231L532.296 194.947L526.491 199.79L520.717 204.792L515.039 209.922L509.393 215.147L503.811 220.532L498.293 226.012L492.87 231.62L487.479 237.355L482.184 243.218L476.985 249.176L471.849 255.262L466.777 261.475L461.801 267.784L456.921 274.188L452.136 280.688L447.415 287.316L442.822 294.039L438.292 300.857L433.89 307.74L429.552 314.749L425.341 321.855L421.227 329.024L417.207 336.288L413.316 343.617L409.52 351.041L405.852 358.528L402.279 366.112L398.802 373.759L395.485 381.437L392.231 389.212L389.137 397.05L386.139 404.952L383.3 412.886L380.556 420.883L377.909 428.912L375.421 437.005L373.06 445.13L370.796 453.319L368.69 461.508L366.713 469.76L364.831 478.012L363.108 486.328L361.513 494.645L360.046 502.993L358.706 511.341L357.494 519.72L356.441 528.1L355.485 536.48L354.687 544.86L354.017 553.24L353.475 561.651L353.06 570.031L352.773 578.379L352.646 586.759L352.614 595.075L352.741 603.391L352.996 611.707L353.379 619.991L353.922 628.212L354.559 636.432L355.325 644.589L356.25 652.746L357.303 660.839L358.451 668.868L359.759 676.866L361.162 684.831L362.725 692.701L364.384 700.54L366.202 708.314L368.116 716.025L370.158 723.672L372.327 731.223L374.592 738.711L376.984 746.135L379.504 753.463L382.119 760.728L384.863 767.897L387.734 775.002L390.7 781.98L393.762 788.894L396.92 795.681L400.206 802.404L403.587 808.999L407.064 815.499L410.668 821.904L414.337 828.18L418.101 834.362L421.96 840.416L425.916 846.374L429.967 852.205L434.082 857.908L438.292 863.484L442.598 868.933L446.969 874.285L451.402 879.479L455.932 884.545L460.525 889.484L465.182 894.295L469.903 898.979L474.688 903.503L479.505 907.9L484.417 912.138L489.393 916.248L494.401 920.231L499.441 924.023L504.545 927.719L509.712 931.224L514.912 934.601L520.111 937.819L525.374 940.91L530.669 943.809L535.996 946.581L541.355 949.194L546.746 951.647L552.137 953.942L557.528 956.076L562.95 958.084L568.405 959.9L573.827 961.557L579.282 963.086L584.737 964.424L590.191 965.603L595.614 966.655L601.069 967.515L606.491 968.216L611.914 968.789L617.305 969.172L622.664 969.395L628.023 969.49L633.35 969.395L638.645 969.14L643.94 968.726L649.171 968.184L654.339 967.451L659.506 966.591L664.61 965.539L669.682 964.36L674.69 963.022L679.666 961.525L684.578 959.868L689.427 958.084L694.211 956.14L698.932 954.037L703.589 951.775L708.151 949.385L712.68 946.868L717.114 944.16L721.484 941.356L725.759 938.393L729.969 935.27L734.084 932.052L738.103 928.643L742.027 925.138L745.886 921.506L749.618 917.714L753.255 913.827L756.828 909.78L760.272 905.638L763.622 901.369L766.843 896.972L769.97 892.447L773 887.827L775.903 883.08L778.678 878.205L781.357 873.266L783.909 868.2L786.333 863.006L788.662 857.749L790.863 852.364L792.904 846.884L794.85 841.34L796.668 835.668L798.327 829.933L799.89 824.102L801.294 818.207L802.569 812.217L803.718 806.164L804.707 800.014L805.6 793.801L806.333 787.524L806.907 781.183L807.354 774.779L807.673 768.311L807.833 761.779L807.865 755.216L807.737 748.588L807.482 741.929L807.067 735.206L806.525 728.451L805.823 721.664L804.962 714.846L803.973 707.995L802.857 701.113L801.581 694.199L800.145 687.285L798.55 680.339L796.86 673.361L794.978 666.383L792.968 659.405L790.799 652.427L788.502 645.418L786.046 638.44L783.462 631.43L780.719 624.452L777.848 617.506L774.818 610.528L771.66 603.614L768.375 596.668L764.93 589.786L761.325 582.903L757.625 576.085L753.765 569.266L749.778 562.48L745.663 555.757L741.389 549.066L737.019 542.406L732.489 535.811L727.832 529.247L723.079 522.747L718.167 516.311L713.127 509.907L707.991 503.598L702.728 497.321L697.337 491.14L691.851 484.99L686.237 478.936L680.495 472.978L674.658 467.084L668.725 461.253L662.664 455.518L656.508 449.846L650.256 444.27L643.908 438.79L637.464 433.405L630.925 428.116L624.259 422.922L617.56 417.824L610.734 412.822L603.844 407.915L596.858 403.136L589.808 398.452L582.663 393.864L575.454 389.403L568.182 385.038L560.813 380.8L553.413 376.69L545.948 372.675L538.421 368.788L530.829 364.996L523.173 361.364L515.486 357.827L507.735 354.418L499.983 351.136L492.136 347.982L484.289 344.987L476.379 342.087L468.468 339.315L460.525 336.671L452.519 334.154L444.544 331.796L436.506 329.565L428.468 327.462L420.429 325.487L412.359 323.639L404.321 321.918L396.25 320.357L388.18 318.923L380.142 317.649L372.071 316.47L364.033 315.45L356.027 314.558L348.02 313.793L340.014 313.188L332.071 312.71L324.129 312.36L316.218 312.168L308.339 312.073L300.524 312.137L292.709 312.328L284.957 312.678L277.27 313.124L269.614 313.73L262.023 314.463L254.463 315.291L246.967 316.279L239.566 317.394L232.198 318.637L224.925 320.007L217.684 321.504L210.539 323.129L203.49 324.882L196.504 326.73L189.582 328.737L182.788 330.84L176.057 333.038L169.422 335.396L162.851 337.818L156.408 340.399L150.06 343.075L143.84 345.847L137.684 348.747L131.655 351.742L125.754 354.832L119.948 358.05L114.239 361.332L108.656 364.741L103.202 368.246L97.8748 371.815L92.6434 375.511L87.5717 379.271L82.6273 383.126L77.779 387.045L73.0898 391.06L68.5284 395.17L64.0945 399.344L59.8203 403.582L55.6735 407.883L51.6543 412.28L47.7946 416.741L44.0625 421.234L40.49 425.822L37.0768 430.442L33.7912 435.157L30.6653 439.873L27.6988 444.684L24.8598 449.527L22.1804 454.402L19.6604 459.309L17.2999 464.28L15.0989 469.282L13.0574 474.316L11.1755 479.351L9.4529 484.449L7.85799 489.547L6.45446 494.676L5.21058 499.838L4.12596 505L3.20098 510.162L2.43546 515.323L1.82938 520.517L1.38276 525.71L1.09559 530.904L1 536.066L1.03193 541.259L1.25505 546.421L1.60607 551.551L2.14829 556.713L2.84995 561.811L3.67934 566.909L4.7001 571.975L5.88032 577.009L7.22018 582.043L8.71931 587.014L10.3461 591.952L12.1644 596.859L14.1101 601.702L16.2472 606.514L18.5121 611.293L20.9364 615.977L23.5201 620.66L26.2633 625.249L29.1342 629.773L32.1644 634.266L35.3225 638.663L38.6398 643.028L42.1168 647.298L45.7211 651.472L49.4533 655.614L53.3448 659.66L57.364 663.611L61.5427 667.498L65.8171 671.29L70.2508 674.986L74.8124 678.618L79.5014 682.123L84.2861 685.564L89.2303 688.91L94.2703 692.128L99.4377 695.25L104.733 698.277L110.124 701.209L115.642 704.013L121.256 706.721L126.998 709.302L132.835 711.755L138.768 714.145L144.797 716.375L150.921 718.51L157.142 720.517L163.457 722.397L169.869 724.15L176.376 725.775L182.947 727.272L189.582 728.674L196.313 729.917L203.107 731.032L209.997 732.02L216.919 732.88L223.936 733.613L231.018 734.218L238.131 734.664L245.308 734.983L252.549 735.174L259.854 735.206L267.158 735.11L274.559 734.887L281.959 734.537L289.423 734.027L296.888 733.358L304.416 732.593L311.943 731.669L319.535 730.586L327.127 729.375L334.719 728.037L342.342 726.571L349.966 724.914L357.59 723.162L365.245 721.25L372.901 719.211L380.525 717.044L388.18 714.718L395.804 712.265L403.427 709.652L411.019 706.912L418.611 704.045L426.171 701.049L433.699 697.895L441.195 694.645L448.691 691.236L456.123 687.699L463.524 684.035L470.892 680.243L478.229 676.324L485.502 672.278L492.742 668.104L499.919 663.802L507.033 659.405L514.114 654.881L521.1 650.197L528.054 645.449L534.912 640.543L541.738 635.54L548.469 630.442L555.135 625.217L561.706 619.896L568.214 614.447L574.625 608.935L580.941 603.296L587.193 597.56L593.349 591.729L599.41 585.803L605.375 579.781L611.244 573.663L617.018 567.45L622.695 561.173L628.278 554.801L633.732 548.365L639.091 541.833L644.323 535.237L649.458 528.578L654.466 521.823L659.378 515.037L664.163 508.154L668.82 501.24L673.382 494.23L677.784 487.189L682.09 480.115L686.269 472.978L690.32 465.777L694.211 458.544L698.007 451.248L701.675 443.951L705.184 436.591L708.597 429.231L711.851 421.839L714.977 414.383L717.975 406.959L720.814 399.472L723.526 391.984L726.11 384.496L728.534 376.977L730.83 369.489L732.999 361.969L735.009 354.45L736.891 346.93L738.646 339.443L740.24 331.955L741.676 324.467L742.984 317.012L744.164 309.556L745.185 302.132L746.078 294.74L746.843 287.38L747.449 280.051L747.896 272.787L748.247 265.522L748.406 258.321L748.47 251.152L748.374 244.015L748.151 236.973L747.768 229.963L747.258 223.017L746.62 216.103L745.855 209.285L744.961 202.53L743.909 195.839L742.728 189.243L741.453 182.68L740.017 176.243L738.454 169.839L736.763 163.562L734.945 157.349L732.999 151.231L730.958 145.209L728.789 139.283L726.492 133.452L724.068 127.749L721.548 122.109L718.901 116.597L716.125 111.18L713.286 105.891L710.288 100.698L707.226 95.6314L704.036 90.6927L700.75 85.8496L697.369 81.1659L693.892 76.5777L690.32 72.1169L686.652 67.7836L682.887 63.6097L679.028 59.5313L675.104 55.6122L671.085 51.8206L666.97 48.1564L662.792 44.6515L658.549 41.2741L654.243 38.056L649.841 34.9653L645.375 32.034L640.846 29.262L636.252 26.6174L631.595 24.1321L626.906 21.7743L622.153 19.6076L617.337 17.5685L612.488 15.6886L607.576 13.968L602.632 12.4068L597.655 11.0048L592.616 9.76217L587.576 8.67883L582.472 7.72297L577.368 6.95828L572.233 6.35289L567.097 5.90682L561.898 5.62004L556.73 5.49259L551.499 5.52446L546.299 5.71563L541.068 6.09798L535.869 6.60779L530.637 7.2769L525.438 8.13718L520.207 9.12493L515.007 10.3038L509.808 11.642L504.64 13.1077L499.473 14.7646L494.337 16.5807L489.234 18.5243L484.162 20.6591L479.09 22.9532L474.082 25.3748L469.074 27.9556L464.13 30.7277L459.249 33.6271L454.369 36.6541L449.552 39.8722L444.799 43.2177L440.078 46.7226L435.421 50.3549L430.828 54.1465L426.298 58.0975L421.833 62.1759L417.431 66.4136L413.093 70.7469L408.85 75.2713L404.671 79.8914L400.557 84.6707L396.506 89.5776L392.582 94.58L388.722 99.7417L384.926 105.031L381.258 110.447L377.654 115.96L374.145 121.631L370.732 127.398L367.414 133.261L364.225 139.251L361.099 145.369L358.1 151.582L355.197 157.891L352.422 164.327L349.743 170.827L347.159 177.454L344.703 184.145L342.374 190.964L340.142 197.846L338.036 204.824L336.027 211.897L334.177 219.035L332.422 226.236L330.795 233.532L329.296 240.892L327.924 248.316L326.68 255.836L325.564 263.387L324.543 271.002L323.682 278.681L322.948 286.392L322.374 294.198L321.896 302.004L321.545 309.874L321.353 317.776L321.29 325.742L321.353 333.707L321.545 341.737L321.896 349.766L322.374 357.827L322.948 365.92L323.714 374.013L324.575 382.138L325.596 390.263L326.744 398.388L328.02 406.513L329.456 414.67L330.987 422.795L332.677 430.92L334.495 439.045L336.473 447.17L338.547 455.263L340.779 463.356L343.108 471.385L345.596 479.414L348.212 487.444L350.955 495.409L353.826 503.343L356.824 511.245L359.95 519.115L363.204 526.921L366.585 534.696L370.062 542.406L373.698 550.085L377.43 557.669L381.29 565.22L385.245 572.708L389.328 580.131L393.539 587.492L397.845 594.788L402.279 601.989L406.809 609.126L411.434 616.2L416.187 623.178L421.035 630.06L425.979 636.847L431.019 643.57L436.155 650.197L441.386 656.729L446.713 663.165L452.136 669.474L457.654 675.719L463.236 681.836L468.914 687.858L474.656 693.785L480.494 699.584L486.395 705.255L492.391 710.831L498.42 716.28L504.545 721.633L510.733 726.858L516.953 731.924L523.269 736.895L529.617 741.738L536.028 746.485L542.504 751.073L549.011 755.502L555.55 759.836L562.153 764.041L568.788 768.088L575.454 772.007L582.153 775.799L588.915 779.431L595.646 782.936L602.44 786.313L609.235 789.531L616.061 792.622L622.919 795.553L629.745 798.357L636.603 801.002L643.461 803.519L650.351 805.877L657.209 808.075L664.068 810.146L670.894 812.09L677.752 813.842L684.578 815.467L691.372 816.965L698.167 818.303L704.929 819.482L711.66 820.502L718.358 821.394L725.025 822.158L731.66 822.732L738.263 823.21L744.834 823.497L751.341 823.656L757.784 823.688L764.196 823.56L770.544 823.274L776.859 822.859L783.08 822.318L789.268 821.617L795.36 820.757L801.389 819.801L807.354 818.686L813.223 817.411L819.029 816.041L824.771 814.511L830.416 812.855L835.967 811.07L841.421 809.159L846.812 807.119L852.075 804.921L857.275 802.627L862.347 800.205L867.323 797.688L872.203 795.012L876.956 792.24L881.613 789.34L886.143 786.313L890.577 783.191L894.883 779.941L899.061 776.595L903.144 773.154L907.1 769.617L910.896 765.953L914.596 762.193L918.168 758.338L921.613 754.387L924.899 750.341L928.057 746.23L931.087 742.024L933.99 737.723L936.733 733.326L939.317 728.865L941.805 724.309L944.102 719.721L946.303 715.037L948.312 710.258L950.194 705.446L951.917 700.572L953.512 695.633L954.915 690.63L956.191 685.564L957.308 680.466L958.296 675.305L959.094 670.111L959.732 664.854L960.242 659.564L960.593 654.244L960.753 648.891L960.784 643.506L960.657 638.089L960.37 632.673L959.891 627.192L959.285 621.712L958.52 616.232L957.595 610.719L956.51 605.207L955.266 599.695L953.831 594.151L952.268 588.639L950.545 583.095L948.663 577.583L946.622 572.07L944.421 566.59L942.092 561.11L939.572 555.629L936.893 550.213L934.086 544.796L931.119 539.379L927.993 534.027L924.707 528.706L921.295 523.416L917.722 518.159L913.99 512.934L910.098 507.772L906.111 502.674L901.932 497.576L897.626 492.574L893.192 487.603L888.599 482.728L883.878 477.885L879.029 473.106L874.053 468.39L868.918 463.738L863.654 459.182L858.296 454.689L852.777 450.26L847.131 445.927L841.389 441.657L835.52 437.483L829.523 433.405L823.399 429.39L817.179 425.503L810.831 421.68L804.388 417.952L797.849 414.319L791.182 410.815L784.451 407.373L777.593 404.06L770.639 400.842L763.59 397.719L756.476 394.724L749.236 391.825L741.931 389.052L734.562 386.376L727.066 383.827L719.539 381.374L711.915 379.08L704.227 376.881L696.476 374.778L688.661 372.835L680.782 370.987L672.84 369.266L664.865 367.705L656.795 366.239L648.725 364.901L640.559 363.69L632.393 362.607L624.163 361.651L615.901 360.854L607.608 360.153L599.314 359.58L590.957 359.166L582.599 358.879L574.21 358.719L565.789 358.688L557.368 358.783L548.947 359.006L540.526 359.389L532.073 359.867L523.652 360.504L515.199 361.268L506.778 362.161L498.356 363.18L489.967 364.359L481.578 365.634L473.221 367.067L464.863 368.629L456.57 370.286L448.276 372.102L440.015 374.045L431.817 376.116L423.619 378.283L415.485 380.609L407.415 383.062L399.376 385.611L391.37 388.32L383.459 391.124L375.58 394.055L367.765 397.082L360.014 400.236L352.327 403.518L344.735 406.927L337.175 410.432L329.711 414.033L322.342 417.761L315.038 421.584L307.829 425.535L300.683 429.582L293.666 433.724L286.712 437.961L279.854 442.295L273.091 446.755L266.457 451.28L259.886 455.9L253.442 460.616L247.094 465.427L240.874 470.302L234.75 475.272L228.753 480.306L222.884 485.436L217.11 490.662L211.464 495.919L205.914 501.272L200.523 506.689L195.26 512.169L190.092 517.713L185.084 523.289L180.204 528.96L175.451 534.664L170.826 540.431L166.36 546.23L162.022 552.093L157.811 557.987L153.76 563.945L149.837 569.904L146.073 575.926L142.436 581.948L138.928 588.033L135.61 594.119L132.421 600.237L129.358 606.386L126.455 612.536L123.712 618.685L121.128 624.866L118.672 631.048L116.408 637.229L114.239 643.41L112.261 649.592L110.443 655.773L108.752 661.922L107.221 668.104L105.849 674.221L104.637 680.339L103.553 686.456L102.659 692.542L101.894 698.564L101.288 704.586L100.809 710.576L100.522 716.535L100.363 722.429V728.292L100.522 734.123L100.841 739.89L101.288 745.593L101.894 751.265L102.628 756.84L103.521 762.385L104.573 767.865L105.754 773.282L107.093 778.634L108.561 783.892L110.187 789.085L111.942 794.215L113.856 799.249L115.865 804.188L118.066 809.063L120.363 813.842L122.787 818.526L125.371 823.114L128.082 827.607L130.889 832.004L133.856 836.305L136.918 840.479L140.14 844.558L143.457 848.541L146.902 852.396L150.443 856.156L154.111 859.788L157.907 863.293L161.799 866.702L165.818 869.984L169.901 873.138L174.111 876.165L178.418 879.065L182.852 881.837L187.349 884.482L191.942 886.967L196.631 889.356L201.384 891.587L206.265 893.69L211.209 895.633L216.217 897.481L221.321 899.138L226.488 900.667L231.751 902.069L237.047 903.312L242.437 904.427L247.892 905.383L253.378 906.18L258.961 906.849L264.575 907.359L270.221 907.709L275.93 907.9L281.704 907.964L287.51 907.868L293.347 907.613L299.216 907.199L305.117 906.658L311.05 905.925L317.015 905.065L323.012 904.045L329.009 902.866L335.038 901.528L341.098 900.03L347.127 898.405L353.188 896.621L359.248 894.645L365.341 892.574L371.402 890.312L377.462 887.891L383.491 885.342L389.552 882.633L395.581 879.766L401.577 876.739L407.574 873.584L413.539 870.271L419.504 866.83L425.405 863.229L431.275 859.469L437.144 855.582L442.949 851.536L448.723 847.362L454.433 843.06L460.111 838.6L465.757 834.011L471.339 829.264L476.857 824.421L482.312 819.418L487.702 814.288L493.061 809.031L498.324 803.646L503.556 798.134L508.691 792.526L513.731 786.759L518.739 780.897L523.652 774.907L528.468 768.789L533.221 762.576L537.878 756.267L542.44 749.831L546.906 743.267L551.307 736.64L555.614 729.885L559.792 723.034L563.907 716.089L567.894 709.079L571.786 701.942L575.582 694.741L579.282 687.444L582.855 680.052L586.332 672.596L589.681 665.045L592.935 657.43L596.061 649.751L599.059 642.008L601.962 634.202L604.737 626.332L607.416 618.398L609.936 610.401L612.361 602.34L614.657 594.247L616.794 586.122L618.836 577.933L620.75 569.712L622.536 561.428L624.195 553.144L625.726 544.828L627.129 536.48L628.405 528.1L629.554 519.688L630.543 511.277L631.436 502.833L632.169 494.39L632.775 485.946L633.286 477.503L633.605 469.059L633.828 460.584L633.924 452.14L633.86 443.728L633.7 435.285L633.381 426.873L632.935 418.493L632.361 410.114L631.627 401.766L630.798 393.45L629.841 385.165L628.724 376.913L627.512 368.724L626.141 360.536L624.673 352.443L623.047 344.35L621.324 336.32L619.474 328.355L617.496 320.453L615.391 312.583L613.158 304.808L610.798 297.098L608.341 289.419L605.758 281.867L603.078 274.348L600.271 266.924L597.337 259.564L594.306 252.331L591.148 245.13L587.895 238.056L584.545 231.079L581.1 224.164L577.528 217.378L573.859 210.687L570.095 204.091L566.236 197.591L562.28 191.219L558.261 184.942L554.114 178.76L549.904 172.738L545.598 166.812L541.196 160.981L536.73 155.31L532.168 149.734L527.543 144.317L522.854 138.996L518.101 133.803L513.253 128.768L508.373 123.862L503.396 119.082L498.356 114.43L493.285 109.938L488.149 105.572L482.981 101.335L477.718 97.2564L472.455 93.3055L467.128 89.5138L461.737 85.8815L456.347 82.3766L450.924 79.0311L445.437 75.8448L439.951 72.8179L434.401 69.9184L428.85 67.1783L423.3 64.5974L417.718 62.1759L412.104 59.8818L406.49 57.7788L400.876 55.8034L395.261 54.0191L389.647 52.3622L384.002 50.8647L378.387 49.5583L372.773 48.3794L367.191 47.3598L361.609 46.4995L356.027 45.7986L350.476 45.2569L344.958 44.8746L339.472 44.6515L333.985 44.5878L328.562 44.6834L323.14 44.9383L317.781 45.3525L312.454 45.8941L307.191 46.627L301.959 47.4873L296.76 48.5069L291.656 49.6858L286.584 51.024L281.545 52.4897L276.6 54.1147L271.72 55.899L266.903 57.8426L262.15 59.9136L257.461 62.1121L252.868 64.47L248.338 66.9871L243.905 69.6317L239.566 72.4037L235.292 75.3032L231.114 78.362L226.999 81.5482L223.011 84.8938L219.12 88.3349L215.324 91.9035L211.624 95.6314L208.019 99.4549L204.51 103.406L201.129 107.484L197.844 111.658L194.686 115.991L191.655 120.389L188.721 124.945L185.914 129.597L183.202 134.344L180.619 139.187L178.194 144.158L175.866 149.192L173.665 154.354L171.591 159.611L169.646 164.932L167.859 170.349L166.169 175.893L164.638 181.469L163.234 187.14L161.958 192.907L160.842 198.738L159.853 204.633L158.992 210.623L158.29 216.645L157.748 222.763L157.301 228.912L157.046 235.125L156.918 241.402V247.711L157.078 254.083L157.397 260.519L157.843 266.956L158.449 273.456L159.183 279.987L160.108 286.583L161.129 293.178L162.341 299.774L163.681 306.433L165.18 313.092L166.807 319.784L168.625 326.475L170.539 333.166L172.644 339.889L174.877 346.612L177.269 353.335L179.789 360.058L182.469 366.749L185.276 373.44L188.242 380.131L191.368 386.822L194.622 393.481L198.003 400.109L201.544 406.736L205.244 413.332L209.04 419.864L212.995 426.395L217.11 432.895L221.321 439.331L225.691 445.736L230.188 452.108L234.814 458.417L239.598 464.662L244.479 470.875L249.487 477.025L254.622 483.11L259.886 489.164L265.276 495.123L270.795 501.017L276.409 506.848L282.151 512.615L288.02 518.287L293.985 523.894L300.045 529.406L306.234 534.855L312.518 540.208L318.897 545.465L325.405 550.659L331.976 555.757L338.674 560.727L345.437 565.634L352.327 570.445L359.28 575.129L366.298 579.717L373.443 584.21L380.652 588.607L387.925 592.876L395.261 597.05L402.694 601.097L410.19 605.048L417.75 608.871L425.373 612.567L433.061 616.168L440.812 619.641L448.595 622.986L456.442 626.236L464.321 629.327L472.264 632.322L480.238 635.158L488.245 637.898L496.315 640.511L504.385 642.964L512.519 645.322L520.653 647.552L528.819 649.623L536.985 651.567L545.183 653.383L553.381 655.072L561.611 656.633L569.84 658.035L578.038 659.342L586.268 660.489L594.498 661.508L602.727 662.4L610.925 663.133L619.091 663.738L627.289 664.216L635.423 664.567L643.557 664.79L651.659 664.854L659.729 664.79L667.768 664.599L675.774 664.28L683.749 663.834L691.659 663.229L699.538 662.528L707.353 661.667L715.105 660.68L722.824 659.596L730.48 658.354L738.071 656.984L745.599 655.486L753.063 653.893L760.464 652.172L767.769 650.293L775.009 648.317L782.155 646.214L789.236 644.016L796.222 641.69L803.144 639.236L809.938 636.687L816.668 634.011L823.271 631.239L829.81 628.339L836.222 625.344L842.538 622.254L848.726 619.067L854.819 615.754L860.816 612.344L866.685 608.84L872.426 605.271L878.072 601.575L883.591 597.815L888.982 593.96L894.245 590.009L899.349 585.994L904.357 581.884L909.237 577.678L913.99 573.409L918.583 569.075L923.049 564.678L927.387 560.217L931.566 555.661L935.617 551.073L939.508 546.421L943.272 541.705L946.877 536.926L950.322 532.083L953.639 527.208L956.797 522.301L959.795 517.331L962.666 512.328L965.378 507.294L967.898 502.228L970.29 497.13L972.523 491.968L974.596 486.806L976.51 481.645L978.265 476.451L979.86 471.226L981.295 466L982.571 460.743L983.687 455.486L984.644 450.228L985.442 444.971L986.08 439.714L986.558 434.488L986.845 429.231L987.005 424.006V418.78L986.813 413.587L986.462 408.393L985.984 403.231L985.314 398.101L984.517 393.003L983.528 387.937L982.379 382.903L981.104 377.901L979.636 372.93L978.041 368.023L976.287 363.148L974.341 358.337L972.268 353.59L970.067 348.874L967.674 344.222L965.155 339.634L962.475 335.078L959.668 330.617L956.701 326.252L953.575 321.918L950.322 317.681L946.941 313.507L943.4 309.428L939.7 305.414L935.904 301.495L931.948 297.639L927.866 293.911L923.655 290.247L919.317 286.679L914.851 283.237L910.258 279.86L905.569 276.61L900.72 273.424L895.776 270.365L890.704 267.434L885.537 264.598L880.242 261.858L874.819 259.245L869.332 256.76L863.718 254.37L858.008 252.108L852.203 249.973L846.302 247.934L840.305 246.054L834.212 244.27L828.024 242.613L821.772 241.115L815.424 239.713L809.013 238.471L802.506 237.324L795.935 236.336L789.3 235.476L782.601 234.743L775.807 234.169L768.981 233.723L762.091 233.405L755.137 233.213L748.151 233.181L741.102 233.277L734.02 233.532L726.875 233.914L719.698 234.424L712.489 235.093L705.248 235.922L697.975 236.846L690.671 237.961L683.334 239.172L675.997 240.574L668.629 242.071L661.26 243.76L653.892 245.544L646.492 247.488L639.091 249.591L631.691 251.821L624.29 254.179L616.922 256.696L609.522 259.341L602.153 262.144L594.817 265.076L587.48 268.135L580.175 271.321L572.871 274.666L565.63 278.139L558.389 281.74L551.18 285.468L544.035 289.355L536.921 293.338L529.84 297.48L522.822 301.749L515.837 306.115L508.883 310.639L502.025 315.259L495.199 320.007L488.468 324.882L481.769 329.884L475.135 334.982L468.595 340.207L462.088 345.528L455.677 350.977L449.361 356.521L443.109 362.192L436.92 367.928L430.828 373.822L424.831 379.781L418.93 385.834L413.125 391.984L407.383 398.229L401.769 404.57L396.218 411.006L390.796 417.538L385.469 424.133L380.269 430.792L375.134 437.547L370.126 444.398L365.245 451.28L360.461 458.258L355.803 465.299L351.242 472.405L346.808 479.574L342.502 486.806L338.323 494.071L334.24 501.399L330.285 508.792L326.489 516.215L322.789 523.671L319.216 531.191L315.771 538.742L312.486 546.325L309.296 553.941L306.266 561.588L303.363 569.235L300.588 576.945L297.94 584.656L295.452 592.367L293.06 600.109L290.859 607.852L288.753 615.594L286.808 623.337L284.989 631.079L283.299 638.822L281.768 646.565L280.364 654.307L279.12 662.018L277.972 669.697L277.015 677.376L276.154 685.023L275.452 692.638L274.878 700.253L274.463 707.804L274.176 715.324L274.016 722.811V730.267L274.144 737.659L274.399 744.988L274.782 752.284L275.324 759.517L275.994 766.718L276.792 773.823L277.717 780.865L278.769 787.875L279.95 794.789L281.257 801.607L282.725 808.362L284.288 815.053L285.978 821.649L287.796 828.18L289.742 834.617L291.816 840.925L293.985 847.171L296.282 853.32L298.706 859.374L301.226 865.332L303.873 871.163L306.616 876.898L309.487 882.538L312.454 888.05L315.516 893.435L318.706 898.724L321.96 903.886L325.341 908.92L328.818 913.859L332.39 918.638L336.027 923.322L339.759 927.846L343.586 932.243L347.51 936.513L351.529 940.655L355.58 944.669L359.727 948.525L363.969 952.253L368.276 955.821L372.646 959.263L377.079 962.544L381.577 965.667L386.139 968.662L390.764 971.529L395.421 974.206L400.142 976.755L404.927 979.145L409.743 981.375L414.624 983.446L419.536 985.358L424.48 987.142L429.456 988.735L434.464 990.201L439.536 991.475L444.608 992.591L449.68 993.578L454.815 994.375L459.951 995.012L465.087 995.522L470.254 995.841L475.422 996H480.589L485.757 995.841L490.924 995.49L496.092 995.012L501.259 994.375L506.427 993.547L511.562 992.591L516.666 991.444L521.77 990.137L526.873 988.703L531.913 987.078L536.953 985.294L541.961 983.382L546.906 981.279L551.85 979.049L556.73 976.628L561.579 974.079L566.395 971.37L571.148 968.503L575.837 965.508L580.494 962.321L585.088 959.008L589.617 955.567L594.083 951.966L598.485 948.206L602.823 944.319L607.065 940.272L611.276 936.098L615.391 931.797L619.41 927.368L623.397 922.78L627.257 918.064L631.053 913.221L634.753 908.251L638.358 903.153L641.898 897.927L645.311 892.574L648.629 887.126L651.882 881.55L655.008 875.847L658.039 870.048L660.942 864.121L663.748 858.099L666.46 851.95L669.076 845.737L671.532 839.396L673.924 832.96L676.157 826.46L678.294 819.833L680.336 813.11L682.218 806.323L684.004 799.472L685.663 792.495L687.162 785.485L688.565 778.348L689.841 771.179L690.99 763.946L692.01 756.618L692.903 749.257L693.669 741.801L694.275 734.314L694.785 726.762L695.136 719.179L695.36 711.532L695.455 703.853L695.392 696.143L695.232 688.368L694.913 680.562L694.466 672.724L693.86 664.886L693.127 657.016L692.265 649.114L691.277 641.18L690.128 633.246L688.852 625.312L687.449 617.347L685.886 609.381L684.195 601.416L682.377 593.482L680.399 585.516L678.326 577.583L676.093 569.649L673.733 561.715L671.213 553.813L668.597 545.943L665.822 538.073L662.951 530.267L659.921 522.461L656.763 514.686L653.477 506.975L650.064 499.265L646.524 491.65L642.887 484.034L639.091 476.483L635.2 468.995L631.149 461.571L627.034 454.179L622.759 446.851L618.389 439.586L613.892 432.417L609.298 425.28L604.577 418.238L599.761 411.261L594.817 404.378L589.777 397.56L584.641 390.837L579.41 384.178L574.083 377.646L568.628 371.178L563.11 364.805L557.496 358.528L551.786 352.347L545.98 346.261L540.079 340.303L534.114 334.44L528.086 328.673L521.961 323.002L515.773 317.458L509.489 312.041L503.173 306.72L496.762 301.526L490.286 296.46L483.747 291.49L477.176 286.679L470.509 281.963L463.811 277.375L457.08 272.914L450.286 268.613L443.428 264.407L436.538 260.328L429.648 256.409L422.694 252.618L415.708 248.953L408.691 245.417L401.641 242.039L394.56 238.789L387.478 235.667L380.397 232.704L373.284 229.868L366.17 227.191L359.025 224.642L351.88 222.221L344.767 219.959L337.621 217.856L330.508 215.88L323.395 214.064L316.282 212.375L309.2 210.846L302.119 209.444L295.069 208.201L288.052 207.086L281.034 206.13L274.08 205.334L267.158 204.665L260.268 204.123L253.41 203.741L246.616 203.486L239.854 203.39L233.123 203.454L226.488 203.645L219.885 203.964L213.346 204.442L206.839 205.047L200.427 205.78L194.112 206.672L187.828 207.692L181.639 208.839L175.515 210.113L169.454 211.547L163.489 213.076L157.62 214.765L151.846 216.581L146.137 218.525L140.555 220.564L135.036 222.763L129.645 225.057L124.35 227.478L119.151 230.027L114.047 232.704L109.071 235.476L104.222 238.375L99.4377 241.37L94.8125 244.493L90.283 247.711L85.881 251.024L81.6066 254.466L77.4599 257.97L73.4407 261.603L69.5492 265.331L65.7852 269.122L62.1488 273.041L58.64 277.024L55.2906 281.103L52.069 285.277L49.0067 289.514L46.0402 293.848L43.2651 298.245L40.6175 302.737L38.0976 307.262L35.7372 311.882L33.5362 316.565L31.4627 321.313L29.5489 326.092L27.7944 330.967L26.1994 335.874L24.7642 340.813L23.4563 345.847L22.3399 350.881L21.3511 355.979L20.5217 361.109L19.8517 366.303L19.3415 371.496L18.9906 376.722L18.799 381.979V387.268L18.9268 392.589L19.2137 397.91L19.6604 403.263L20.2664 408.616L21.0639 413.969L21.9889 419.322L23.0735 424.707L24.3495 430.059L25.753 435.444L27.3479 440.797L29.0704 446.15L30.9524 451.503L33.0257 456.824L35.2267 462.113L37.5871 467.402L40.1072 472.66L42.7865 477.885L45.6255 483.11L48.624 488.272L51.7499 493.402L55.0355 498.5L58.4804 503.534L62.0849 508.537L65.8171 513.507L69.7086 518.414L73.7278 523.257L77.9065 528.068L82.2127 532.816L86.6785 537.5L91.2718 542.088L95.9927 546.644L100.841 551.137L105.849 555.534L110.985 559.867L116.248 564.105L121.639 568.279L127.157 572.389L132.771 576.404L138.545 580.323L144.414 584.146L150.411 587.906L156.536 591.538L162.756 595.107L169.072 598.548L175.515 601.925L182.054 605.175L188.689 608.33L195.451 611.389L202.277 614.32L209.199 617.156L216.249 619.864L223.362 622.477L230.539 624.994L237.844 627.352L245.181 629.614L252.645 631.78L260.141 633.788L267.733 635.7L275.388 637.484L283.108 639.141L290.891 640.702L298.738 642.104L306.616 643.378L314.559 644.557L322.566 645.577L330.604 646.469L338.706 647.234L346.808 647.871L354.974 648.381L363.172 648.763L371.402 649.018L379.663 649.146L387.925 649.114L396.25 648.954L404.544 648.668L412.869 648.253L421.227 647.712L429.552 647.011L437.909 646.182L446.267 645.226L454.624 644.143L462.95 642.932L471.307 641.594L479.6 640.097L487.926 638.472L496.219 636.751L504.481 634.871L512.711 632.864L520.908 630.729L529.074 628.467L537.24 626.077L545.342 623.56L553.381 620.915L561.419 618.143L569.362 615.244L577.304 612.249L585.151 609.094L592.966 605.844L600.718 602.467L608.373 598.994L615.997 595.394L623.557 591.666L631.021 587.842L638.421 583.891L645.758 579.845L652.999 575.703L660.144 571.433L667.225 567.068L674.211 562.607L681.101 558.051L687.895 553.399L694.594 548.651L701.197 543.776L707.704 538.838L714.116 533.835L720.4 528.706L726.588 523.512L732.649 518.223L738.614 512.87L744.483 507.453L750.193 501.941L755.807 496.333L761.293 490.694L766.652 484.99L771.915 479.191L777.019 473.36L781.995 467.466L786.876 461.508L791.596 455.518L796.19 449.464L800.656 443.346L804.962 437.197L809.14 431.015L813.192 424.802L817.083 418.525L820.847 412.248L824.483 405.908L827.96 399.567L831.278 393.195L834.468 386.79L837.53 380.386L840.401 373.982L843.176 367.545L845.759 361.109L848.216 354.641L850.512 348.205L852.65 341.769L854.659 335.332L856.509 328.896L858.2 322.46L859.763 316.056L861.134 309.683L862.378 303.311L863.495 296.97L864.42 290.629L865.217 284.353L865.855 278.108L866.334 271.894L866.685 265.713L866.876 259.564L866.908 253.478L866.812 247.424L866.557 241.434L866.142 235.507L865.6 229.613L864.898 223.814L864.069 218.047L863.08 212.343L861.964 206.736L860.688 201.192L859.284 195.711L857.753 190.327L856.063 185.006L854.244 179.78L852.299 174.618L850.193 169.584L847.992 164.614L845.632 159.739L843.144 154.959L840.56 150.307L837.817 145.719L834.978 141.258L831.98 136.893L828.885 132.624L825.696 128.482L822.346 124.467L818.901 120.548L815.361 116.756L811.692 113.092L807.928 109.523L804.037 106.114L800.081 102.8L795.998 99.6142L791.82 96.5873L787.545 93.6559L783.207 90.8839L778.742 88.2393L774.212 85.7222L769.587 83.3644L764.866 81.134L760.081 79.0311L755.233 77.0875L750.288 75.3032L745.28 73.6463L740.208 72.1169L735.073 70.7469L729.842 69.5361L724.578 68.4846L719.283 67.5606L713.892 66.7959L708.47 66.1905L702.983 65.7445L697.465 65.4258L691.915 65.2665H686.3L680.655 65.4258L675.009 65.7445L669.299 66.2224L663.557 66.8596L657.815 67.6243L652.042 68.5802L646.268 69.6635L640.463 70.9062L634.626 72.34L628.82 73.9012L622.983 75.6218L617.145 77.5017L611.308 79.5409L605.503 81.7075L599.665 84.0653L593.86 86.5506L588.086 89.1952L582.281 91.9991L576.539 94.9623L570.797 98.053L565.087 101.303L559.41 104.712L553.732 108.281L548.118 111.977L542.535 115.832L537.017 119.815L531.499 123.925L526.044 128.227L520.653 132.624L515.294 137.18L509.999 141.864L504.768 146.707L499.569 151.677L494.465 156.744L489.425 161.969L484.417 167.322L479.505 172.802L474.656 178.41L469.903 184.145L465.214 190.008L460.621 195.966L456.091 202.052L451.626 208.233L447.287 214.542L443.013 220.978L438.835 227.51L434.783 234.137L430.796 240.86L426.904 247.679L423.109 254.625L419.44 261.635L415.868 268.772L412.391 275.973L409.01 283.269L405.756 290.629L402.598 298.085L399.568 305.637L396.665 313.22L393.858 320.899L391.179 328.673L388.595 336.479L386.139 344.35L383.81 352.283L381.609 360.281L379.536 368.342L377.558 376.435L375.74 384.592L374.017 392.78L372.454 401.033L370.987 409.285L369.647 417.601L368.467 425.949L367.414 434.297L366.458 442.709L365.66 451.121L364.99 459.564L364.448 468.008L364.033 476.451L363.746 484.927L363.619 493.402L363.587 501.877L363.714 510.353L363.969 518.828L364.352 527.272L364.863 535.747L365.5 544.159L366.298 552.602L367.191 560.982L368.244 569.362L369.424 577.71L370.7 586.026L372.135 594.31L373.698 602.531L375.389 610.751L377.175 618.908L379.121 627.001L381.163 635.062L383.364 643.092L385.66 651.025L388.084 658.927L390.636 666.765L393.284 674.508L396.091 682.219L398.962 689.834L401.992 697.385L405.118 704.873L408.34 712.265L411.689 719.561L415.134 726.794L418.707 733.9L422.375 740.973L426.139 747.919L429.999 754.769L433.954 761.524L438.005 768.152L442.152 774.715L446.426 781.152L450.732 787.492L455.166 793.705L459.696 799.823L464.257 805.813L468.946 811.676L473.699 817.411L478.516 823.051L483.428 828.563L488.404 833.948L493.444 839.205L498.548 844.303L503.715 849.305L508.947 854.148L514.21 858.864L519.569 863.452L524.96 867.913L530.382 872.214L535.901 876.356L541.419 880.371L547.001 884.258L552.615 887.986L558.261 891.555L563.939 894.996L569.617 898.278L575.359 901.432L581.132 904.396L586.906 907.231L592.679 909.908L598.485 912.457L604.322 914.814L610.128 917.045L615.965 919.116L621.802 921.028L627.64 922.78L633.445 924.373L639.283 925.807L645.088 927.082L650.862 928.229L656.635 929.184L662.409 930.013L668.15 930.65L673.828 931.16L679.506 931.51L685.152 931.701L690.766 931.733L696.348 931.606L701.867 931.351L707.353 930.905L712.808 930.331L718.167 929.599L723.526 928.706L728.789 927.687L734.02 926.508L739.156 925.17L744.26 923.672L749.267 922.047L754.212 920.295L759.092 918.351L763.909 916.312L768.63 914.114L773.255 911.756L777.816 909.27L782.282 906.658L786.684 903.918L790.958 901.018L795.169 897.991L799.252 894.868L803.239 891.587L807.131 888.177L810.927 884.641L814.627 881.008L818.2 877.217L821.676 873.33L825.026 869.315L828.247 865.205L831.374 860.967L834.372 856.634L837.243 852.205L840.018 847.648L842.634 842.997L845.154 838.249L847.514 833.374L849.779 828.435L851.884 823.401L853.862 818.271L855.712 813.046L857.434 807.757L858.997 802.372L860.433 796.923L861.709 791.411L862.889 785.804L863.878 780.1L864.771 774.365L865.473 768.566L866.047 762.703L866.493 756.777L866.78 750.787L866.908 744.765V738.679L866.749 732.561L866.43 726.38L865.983 720.167L865.345 713.922L864.611 707.645L863.686 701.336L862.634 694.996L861.422 688.623L860.05 682.251L858.519 675.846L856.86 669.41L855.042 662.974L853.064 656.538L850.959 650.101L848.694 643.665L846.27 637.197L843.718 630.761L840.975 624.325L838.136 617.92L835.106 611.484L831.948 605.112L828.662 598.739L825.185 592.367L821.613 586.058L817.88 579.749L813.989 573.472L809.97 567.259L805.823 561.046L801.517 554.896L797.115 548.779L792.522 542.725L787.832 536.703L783.016 530.745L778.04 524.818L772.968 518.987L767.737 513.189L762.41 507.453L756.923 501.782L751.341 496.206L745.631 490.662L739.826 485.213L733.893 479.86L727.832 474.571L721.676 469.346L715.392 464.216L709.012 459.15L702.537 454.211L695.966 449.336L689.267 444.557L682.473 439.873L675.615 435.317L668.661 430.824L661.579 426.427L654.466 422.158L647.225 417.984L639.921 413.905L632.52 409.954L625.088 406.099L617.528 402.371L609.936 398.739L602.281 395.234L594.53 391.825L586.746 388.543L578.899 385.388L570.989 382.361L563.046 379.43L555.04 376.658L546.969 373.982L538.867 371.433L530.733 369.011L522.567 366.717L514.369 364.55L506.14 362.543L497.878 360.631L489.616 358.847L481.291 357.222L472.997 355.693L464.64 354.322L456.315 353.08L447.957 351.965L439.6 350.977L431.275 350.148L422.917 349.416L414.56 348.842L406.234 348.396L397.909 348.077L389.615 347.918L381.354 347.854L373.092 347.95L364.863 348.173L356.633 348.523L348.467 349.001L340.333 349.607L332.231 350.372L324.192 351.232L316.186 352.22L308.211 353.367L300.332 354.641L292.486 356.011L284.671 357.509L276.951 359.166L269.296 360.918L261.672 362.798L254.144 364.805L246.712 366.94L239.311 369.17L232.039 371.528L224.798 373.982L217.684 376.594L210.635 379.271L203.681 382.107L196.823 385.006L190.06 388.033L183.394 391.187L176.823 394.405L170.379 397.751L164.032 401.192L157.779 404.729L151.655 408.361L145.626 412.089L139.725 415.881L133.952 419.8L128.274 423.783L122.755 427.861L117.333 432.035L112.038 436.273L106.902 440.574L101.862 444.971L96.9815 449.432L92.1968 453.956L87.5717 458.576L83.1059 463.228L78.7678 467.976L74.5572 472.755L70.5061 477.598L66.5827 482.505L62.8187 487.444L59.2142 492.446L55.7372 497.48L52.4199 502.546L49.23 507.676L46.2316 512.838L43.3607 518.032L40.6494 523.257L38.0976 528.514L35.7052 533.804L33.4404 539.093L31.3669 544.414L29.4531 549.767L27.6668 555.12L26.0719 560.472L24.6045 565.825L23.3287 571.21L22.2122 576.563L21.2233 581.948L20.4259 587.301L19.7881 592.653L19.2776 598.006L18.9587 603.327L18.799 608.648V613.938L18.9587 619.195L19.2776 624.452L19.7242 629.646L20.3622 634.839L21.1597 639.969L22.1166 645.099L23.2329 650.133L24.477 655.168L25.9125 660.138L27.4755 665.045L29.1979 669.92L31.08 674.731L33.0896 679.479L35.2905 684.162L37.6191 688.814L40.0753 693.371L42.6909 697.831L45.4661 702.26L48.3687 706.593L51.431 710.863L54.6208 715.037L57.9701 719.147L61.4152 723.162L65.0197 727.081L68.7836 730.905L72.6432 734.664L76.6305 738.297L80.7774 741.833L85.0197 745.274L89.3897 748.62L93.8875 751.87L98.5128 754.992L103.234 758.019L108.082 760.951L113.026 763.755L118.098 766.431L123.298 769.012L128.561 771.465L133.952 773.791L139.438 775.99L145.02 778.093L150.666 780.036L156.44 781.884L162.309 783.573L168.242 785.166L174.271 786.6L180.363 787.906L186.552 789.085L192.804 790.137L199.152 791.061L205.531 791.825L212.006 792.463L218.546 792.941L225.117 793.323L231.783 793.514L238.482 793.61L245.212 793.514L252.039 793.323L258.865 792.973L265.755 792.463L272.677 791.825L279.631 791.029L286.616 790.105L293.634 789.053L300.683 787.811L307.765 786.473L314.846 784.943L321.928 783.286L329.041 781.502L336.186 779.558L343.299 777.455L350.445 775.225L357.59 772.867L364.703 770.35L371.848 767.674L378.962 764.87L386.043 761.938L393.124 758.848L400.206 755.63L407.255 752.284L414.273 748.779L421.259 745.147L428.212 741.387L435.166 737.468L442.024 733.422L448.882 729.279L455.677 724.978L462.439 720.549L469.17 715.993L475.804 711.309L482.407 706.498L488.946 701.559L495.454 696.493L501.865 691.331L508.213 686.042L514.497 680.657L520.717 675.113L526.841 669.506L532.902 663.738L538.899 657.908L544.8 651.949L550.606 645.896L556.347 639.746L561.961 633.501L567.512 627.129L572.966 620.692L578.325 614.161L583.588 607.533L588.756 600.81L593.796 594.024L598.74 587.141L603.589 580.195L608.341 573.154L612.967 566.048L617.464 558.879L621.866 551.615L626.172 544.318L630.319 536.958L634.37 529.534L638.294 522.046L642.122 514.495L645.79 506.912L649.363 499.265L652.807 491.586L656.093 483.875L659.283 476.133L662.345 468.326L665.248 460.52L668.055 452.65L670.702 444.78L673.222 436.878L675.615 428.976L677.879 421.042L679.985 413.109L681.994 405.143L683.844 397.177L685.567 389.244L687.13 381.278L688.565 373.312L689.873 365.379L691.053 357.445L692.074 349.511L692.967 341.609L693.733 333.707L694.339 325.869L694.817 318.031L695.168 310.225L695.392 302.45L695.455 294.708L695.392 287.029L695.2 279.35L694.849 271.767L694.403 264.216L693.797 256.696L693.063 249.272L692.202 241.88L691.213 234.552L690.096 227.287L688.852 220.086L687.481 212.981L685.982 205.907L684.355 198.961L682.6 192.047L680.718 185.26L678.741 178.537L676.603 171.878L674.371 165.346L672.042 158.91L669.586 152.538L667.002 146.293L664.323 140.143L661.516 134.089L658.613 128.163L655.614 122.332L652.52 116.597L649.299 111.021L645.981 105.509L642.6 100.156L639.091 94.8986L635.487 89.7687L631.819 84.7982L628.023 79.9232L624.163 75.1757L620.239 70.5557L616.22 66.0949L612.105 61.7616L607.927 57.5558L603.684 53.4774L599.346 49.5583L594.976 45.7986L590.51 42.1663L586.013 38.6614L581.419 35.3158L576.794 32.1296L572.105 29.1027L567.352 26.2032L562.567 23.463L557.719 20.8821L552.839 18.4288L547.926 16.1665L542.982 14.0317L537.974 12.0881L532.934 10.272L527.894 8.61512L522.822 7.11758L517.719 5.81123L512.583 4.63231L507.447 3.64459L502.312 2.78429L497.144 2.11518L491.977 1.57352L486.809 1.22304L481.642 1.03187L476.474 1L471.275 1.12745L466.139 1.4142L460.972 1.86027L455.836 2.46567L450.732 3.26223L445.629 4.18624L440.557 5.26955L435.485 6.54406L430.477 7.94601L425.501 9.53913L420.525 11.2597L415.613 13.1396L410.732 15.2106L405.916 17.4092L401.131 19.767L396.378 22.2522L391.689 24.9287L387.064 27.7326L382.502 30.6958L377.973 33.8183L373.539 37.0683L369.137 40.4775L364.831 44.0143L360.588 47.7103L356.441 51.5338L352.327 55.5166L348.307 59.6269L344.384 63.8646L340.556 68.2616L336.792 72.7542L333.124 77.4061L329.519 82.1855L326.042 87.0604L322.661 92.0947L319.344 97.2245L316.154 102.482L313.06 107.867L310.093 113.347L307.191 118.955L304.416 124.658L301.768 130.489L299.216 136.415L296.76 142.437L294.463 148.555L292.23 154.768L290.157 161.109L288.179 167.513L286.329 174.013L284.639 180.577L283.012 187.268L281.545 193.991L280.205 200.841L278.993 207.723L277.908 214.701L276.951 221.743L276.122 228.848L275.452 236.017L274.878 243.25L274.463 250.515L274.176 257.843L274.016 265.235V272.659L274.144 280.147L274.399 287.666L274.782 295.218L275.324 302.801L275.994 310.416L276.824 318.063L277.78 325.742L278.865 333.421L280.109 341.131L281.481 348.874L282.98 356.585L284.639 364.327L286.425 372.102L288.339 379.844L290.412 387.587L292.613 395.329L294.942 403.072L297.43 410.783L300.045 418.493L302.789 426.204L305.66 433.851L308.69 441.498L311.816 449.113L315.101 456.728L318.514 464.28L322.055 471.799L325.723 479.287L329.519 486.711L333.443 494.103L337.462 501.431L341.641 508.728L345.915 515.961L350.349 523.13L354.847 530.267L359.504 537.308L364.257 544.286L369.137 551.2L374.113 558.051L379.217 564.838L384.416 571.529L389.711 578.156L395.102 584.688L400.62 591.124L406.234 597.465L411.944 603.742L417.75 609.923L423.619 616.009L429.616 621.999L435.676 627.861L441.833 633.66L448.085 639.332L454.401 644.908L460.78 650.388L467.256 655.741L473.795 660.966L480.398 666.096L487.096 671.131L493.827 676.006L500.621 680.785L507.511 685.437L514.401 689.961L521.387 694.39L528.404 698.66L535.486 702.834L542.567 706.848L549.744 710.736L556.921 714.495L564.13 718.128L571.403 721.633L578.676 725.01L585.981 728.228L593.317 731.319L600.654 734.282L608.022 737.086L615.423 739.762L622.791 742.311L630.192 744.701L637.592 746.963L644.992 749.098L652.393 751.073L659.761 752.89L667.13 754.578L674.498 756.139L681.867 757.541L689.171 758.816L696.476 759.931L703.781 760.919L711.022 761.747L718.231 762.448L725.408 762.99L732.553 763.404L739.666 763.691L746.716 763.818L753.733 763.787L760.687 763.659L767.577 763.372L774.435 762.926L781.229 762.385L787.928 761.684L794.595 760.855L801.166 759.867L807.705 758.784L814.117 757.541L820.496 756.171L826.78 754.706L832.968 753.081L839.061 751.328L845.09 749.448L850.991 747.441L856.828 745.338L862.57 743.108L868.184 740.75L873.734 738.265L879.157 735.684L884.452 732.976L889.651 730.14L894.755 727.24L899.731 724.181L904.58 721.059L909.333 717.809L913.926 714.463L918.424 711.022L922.794 707.486L927.036 703.853L931.151 700.125L935.106 696.302L938.934 692.383L942.666 688.4L946.207 684.322L949.652 680.179L952.937 675.942L956.063 671.64L959.062 667.275L961.933 662.815L964.612 658.29L967.196 653.734L969.588 649.082L971.853 644.398L973.958 639.619L975.904 634.839L977.69 629.964L979.317 625.058L980.816 620.119L982.124 615.116L983.305 610.082L984.325 605.016L985.155 599.918L985.856 594.788L986.399 589.658L986.749 584.465L986.973 579.271L987.005 574.046L986.909 568.82L986.622 563.595L986.175 558.338L985.601 553.08L984.836 547.823L983.911 542.566L982.826 537.308L981.582 532.083L980.178 526.857L978.615 521.632L976.893 516.407L975.011 511.213L972.969 506.051L970.768 500.921L968.408 495.824L965.888 490.726L963.209 485.691L960.402 480.689L957.435 475.686L954.309 470.78L951.023 465.905L947.579 461.062L944.006 456.282L940.274 451.535L936.414 446.883L932.395 442.263L928.248 437.706L923.942 433.214L919.508 428.817L914.915 424.452L910.226 420.182L905.377 415.976L900.401 411.834L895.297 407.819L890.034 403.837L884.675 399.981L879.189 396.19L873.575 392.462L867.865 388.861L862.028 385.356L856.063 381.947L849.97 378.602L843.782 375.384L837.498 372.261L831.118 369.266L824.611 366.335L818.008 363.531L811.309 360.854L804.515 358.273L797.657 355.788L790.671 353.462L783.622 351.2L776.477 349.097L769.236 347.09L761.963 345.21L754.563 343.457L747.13 341.801L739.602 340.303L732.043 338.901L724.387 337.658L716.7 336.511L708.916 335.524L701.133 334.632L693.254 333.899L685.344 333.293L677.401 332.815L669.394 332.465L661.356 332.242L653.318 332.146L645.216 332.21L637.082 332.369L628.948 332.688L620.782 333.134L612.584 333.739L604.386 334.44L596.156 335.301L587.959 336.288L579.729 337.404L571.499 338.678L563.269 340.08L555.071 341.609L546.842 343.266L538.644 345.05L530.478 346.962L522.312 349.033L514.146 351.2L506.044 353.526L497.942 355.979L489.903 358.56L481.865 361.268L473.891 364.104L465.948 367.036L458.037 370.126L450.19 373.344L442.375 376.658L434.624 380.099L426.936 383.668L419.281 387.364L411.721 391.187L404.225 395.106L396.761 399.121L389.392 403.263L382.119 407.533L374.878 411.898L367.765 416.359L360.684 420.915L353.73 425.599L346.84 430.378L340.046 435.253L333.347 440.224L326.712 445.29L320.205 450.451L313.794 455.709L307.51 461.062L301.29 466.478L295.197 471.99L289.2 477.566L283.331 483.238L277.557 488.973L271.911 494.804L266.393 500.667L260.97 506.625L255.675 512.647L250.539 518.733L245.468 524.882L240.555 531.063L235.771 537.308L231.114 543.617L226.584 549.958L222.214 556.362L217.94 562.798L213.825 569.298L209.837 575.798L205.978 582.362L202.277 588.926L198.705 595.553L195.292 602.18L192.006 608.84L188.88 615.499L185.882 622.19L183.011 628.881L180.3 635.604L177.748 642.295L175.355 649.018L173.091 655.741L170.953 662.464L168.976 669.155L167.158 675.878L165.499 682.537L163.968 689.228L162.596 695.856L161.384 702.483L160.3 709.079L159.374 715.674L158.577 722.206L157.939 728.706L157.461 735.174L157.142 741.61L156.95 747.983L156.886 754.323L156.982 760.6L157.237 766.845L157.62 772.995L158.162 779.112L158.832 785.166L159.662 791.156L160.618 797.083L161.735 802.914L162.979 808.681L164.35 814.384L165.85 819.992L167.509 825.536L169.263 830.952L171.177 836.337L173.218 841.595L175.387 846.756L177.716 851.823L180.14 856.825L182.66 861.7L185.34 866.447L188.147 871.131L191.049 875.687L194.08 880.116L197.206 884.45L200.459 888.687L203.809 892.766L207.286 896.748L210.858 900.604L214.558 904.332L218.322 907.964L222.214 911.437L226.201 914.783L230.252 918.001L234.431 921.06L238.673 924.023L243.012 926.827L247.445 929.503L251.943 932.02L256.536 934.41L261.194 936.672L265.914 938.775L270.731 940.719L275.611 942.535L280.556 944.192L285.532 945.689L290.604 947.059L295.739 948.27L300.907 949.321L306.106 950.214L311.401 950.946L316.696 951.552L322.055 951.998L327.446 952.285L332.869 952.38L338.355 952.348L343.842 952.157L349.36 951.807L354.91 951.329L360.461 950.66L366.043 949.831L371.657 948.843L377.271 947.696L382.885 946.39L388.499 944.956L394.113 943.331L399.727 941.579L405.373 939.635L410.955 937.564L416.569 935.302L422.152 932.912L427.734 930.363L433.284 927.655L438.803 924.787L444.321 921.792L449.807 918.606L455.262 915.292L460.653 911.851L466.044 908.219L471.37 904.459L476.666 900.572L481.897 896.494L487.096 892.32L492.264 887.986L497.336 883.494L502.376 878.874L507.352 874.126L512.264 869.251L517.113 864.217L521.897 859.055L526.618 853.798L531.243 848.381L535.805 842.837L540.303 837.166L544.705 831.399L549.011 825.472L553.253 819.45L557.4 813.333L561.483 807.088L565.438 800.715L569.33 794.247L573.094 787.683L576.794 780.992L580.367 774.206L583.844 767.355L587.225 760.377L590.51 753.304L593.668 746.135L596.731 738.902L599.665 731.574L602.504 724.181L605.215 716.694L607.831 709.111L610.319 701.464L612.68 693.753L614.944 685.978L617.05 678.14L619.059 670.238L620.941 662.305L622.727 654.275L624.354 646.214L625.854 638.089L627.225 629.932L628.501 621.744L629.618 613.491L630.606 605.239L631.467 596.923L632.201 588.575L632.807 580.227L633.286 571.815L633.637 563.436L633.828 554.992L633.924 546.548L633.86 538.105L633.668 529.661L633.35 521.218L632.903 512.774L632.329 504.299L631.595 495.855L630.734 487.444L629.777 479L628.66 470.62L627.417 462.24L626.045 453.861L624.546 445.545L622.887 437.229L621.133 428.976L619.251 420.724L617.241 412.535L615.104 404.41L612.839 396.285L610.447 388.224L607.927 380.227L605.279 372.293L602.536 364.391L599.665 356.585L596.667 348.81L593.572 341.1L590.351 333.484L587.001 325.933L583.557 318.445L580.016 311.053L576.348 303.757L572.584 296.524L568.692 289.387L564.737 282.313L560.654 275.367L556.475 268.485L552.201 261.73L547.831 255.071L543.365 248.507L538.803 242.039L534.146 235.699L529.425 229.454L524.609 223.336L519.728 217.314L514.752 211.419L509.712 205.652L504.577 199.981L499.409 194.469L494.146 189.052L488.819 183.763L483.428 178.601L477.973 173.599L472.455 168.692L466.873 163.944L461.259 159.324L455.581 154.832L449.871 150.499L444.13 146.293L438.324 142.214L432.487 138.295L426.617 134.535L420.684 130.903L414.751 127.398L408.786 124.053L402.821 120.866L396.793 117.84L390.764 114.94L384.735 112.2L378.674 109.619L372.614 107.166L366.553 104.872L360.493 102.769L354.432 100.761L348.371 98.9451L342.311 97.2883L336.282 95.7589L330.253 94.3888L324.224 93.178L318.227 92.1265L312.262 91.2344L306.329 90.5015L300.396 89.8962L294.527 89.4501L288.69 89.1633L282.884 89.0359L277.111 89.0677L271.369 89.2271L265.723 89.5776L260.077 90.0555L254.527 90.6609L249.008 91.4574L243.554 92.3814L238.163 93.4329L232.804 94.6755L227.573 96.0138L222.373 97.5432L217.27 99.1681L212.23 100.984L207.254 102.896L202.373 104.967L197.589 107.197L192.867 109.523L188.274 112.009L183.745 114.621L179.311 117.362L174.973 120.261L170.762 123.256L166.615 126.379L162.596 129.629L158.705 133.006L154.877 136.479L151.177 140.111L147.604 143.839L144.159 147.663L140.81 151.614L137.556 155.692L134.462 159.866L131.495 164.136L128.625 168.501L125.913 172.962L123.298 177.55L120.841 182.202L118.513 186.949L116.312 191.824L114.239 196.731L112.325 201.765L110.538 206.863L108.88 212.057L107.38 217.282L106.009 222.635L104.797 228.02L103.744 233.5L102.819 239.012L102.021 244.62L101.383 250.26L100.905 255.963L100.586 261.73L100.395 267.529L100.363 273.392L100.49 279.286L100.745 285.213L101.16 291.203L101.734 297.193L102.468 303.247L103.361 309.301L104.414 315.418L105.594 321.536L106.934 327.654L108.433 333.803L110.092 339.984L111.878 346.166L113.824 352.347L115.961 358.528L118.194 364.71L120.618 370.891L123.17 377.072L125.913 383.222L128.752 389.371L131.783 395.521L134.94 401.638L138.258 407.724L141.703 413.81L145.307 419.864L149.071 425.885L152.963 431.844L156.982 437.802L161.161 443.697L165.467 449.591L169.933 455.39L174.494 461.157L179.215 466.892L184.095 472.564L189.072 478.172L194.207 483.716L199.438 489.196L204.829 494.645L210.316 499.997L215.93 505.287L221.704 510.512L227.541 515.642L233.538 520.708L239.63 525.679L245.819 530.585L252.134 535.428L258.578 540.144L265.117 544.796L271.752 549.352L278.482 553.781L285.309 558.146L292.23 562.416L299.248 566.59L306.361 570.636L313.57 574.619L320.843 578.475L328.211 582.203L335.676 585.835L343.172 589.372L350.795 592.781L358.451 596.095L366.17 599.281L373.985 602.34L381.832 605.303L389.775 608.139L397.75 610.847L405.756 613.428L413.858 615.913L421.96 618.239L430.126 620.469L438.356 622.54L446.586 624.516L454.879 626.364L463.173 628.053L471.53 629.646L479.887 631.079L488.277 632.386L496.666 633.597L505.087 634.648L513.508 635.572L521.929 636.337L530.35 637.006L538.803 637.548L547.224 637.93L555.678 638.185L564.099 638.312H572.488L580.877 638.185L589.266 637.898L597.624 637.516L605.917 636.974L614.243 636.305L622.504 635.508L630.734 634.584L638.9 633.533L647.066 632.354L655.168 631.048L663.206 629.614L671.213 628.053L679.187 626.364L687.066 624.548L694.913 622.604L702.664 620.565L710.352 618.398L718.007 616.104L725.567 613.683L733.031 611.134L740.432 608.489L747.768 605.749L755.009 602.881L762.154 599.886L769.204 596.796L776.19 593.609L783.048 590.296L789.842 586.918L796.509 583.413L803.08 579.781L809.555 576.085L815.903 572.293L822.155 568.406L828.279 564.423L834.308 560.345L840.209 556.203L845.983 551.965L851.629 547.632L857.179 543.235L862.57 538.742L867.865 534.186L873.001 529.566L878.041 524.85L882.921 520.103L887.674 515.26L892.267 510.385L896.733 505.446L901.071 500.444L905.25 495.377L909.301 490.248L913.224 485.118L916.956 479.892L920.561 474.667L924.038 469.378L927.323 464.057L930.481 458.704L933.479 453.319L936.35 447.902L939.03 442.454L941.582 437.005L943.974 431.525L946.207 426.045L948.28 420.533L950.194 415.02L951.949 409.508L953.544 403.964L954.979 398.452L956.255 392.908L957.371 387.396L958.36 381.883L959.158 376.403L959.795 370.923L960.274 365.442L960.593 359.994L960.784 354.577V349.193L960.625 343.84L960.338 338.519L959.859 333.23L959.221 327.972L958.456 322.747L957.531 317.585L956.446 312.455L955.202 307.389L953.799 302.387L952.268 297.448L950.545 292.541L948.695 287.698L946.717 282.951L944.58 278.235L942.283 273.615L939.859 269.059L937.275 264.566L934.532 260.169L931.693 255.868L928.695 251.63L925.537 247.488L922.283 243.409L918.87 239.458L915.33 235.571L911.661 231.811L907.865 228.115L903.942 224.547L899.923 221.074L895.744 217.728L891.47 214.446L887.068 211.324L882.538 208.265L877.913 205.366L873.16 202.53L868.312 199.853L863.367 197.304L858.296 194.851L853.128 192.525L847.897 190.327L842.538 188.256L837.083 186.312L831.533 184.496L825.919 182.807L820.209 181.278L814.436 179.844L808.566 178.569L802.601 177.422L796.573 176.435L790.512 175.542L784.355 174.841L778.135 174.236L771.851 173.79L765.504 173.503L759.092 173.344L752.649 173.312L746.141 173.439L739.602 173.726L732.999 174.14L726.397 174.714L719.73 175.447L713.031 176.307L706.301 177.295L699.538 178.442L692.744 179.748L685.95 181.214L679.123 182.807L672.297 184.559L665.439 186.439L658.581 188.479L651.723 190.677L644.865 193.003L638.007 195.488L631.149 198.101L624.29 200.873L617.464 203.772L610.638 206.831L603.812 210.018L597.049 213.363L590.255 216.836L583.525 220.468L576.826 224.196L570.127 228.115L563.492 232.13L556.89 236.304L550.318 240.605L543.811 245.034L537.336 249.591L530.925 254.274L524.545 259.086L518.229 264.056L511.977 269.122L505.789 274.316L499.664 279.605L493.604 285.054L487.607 290.598L481.674 296.269L475.836 302.036L470.063 307.931L464.385 313.921L458.771 320.039L453.252 326.252L447.83 332.56L442.471 338.965L437.208 345.465L432.04 352.06L427 358.751L422.024 365.538L417.144 372.42L412.391 379.398L407.734 386.44L403.172 393.545L398.738 400.746L394.4 408.011L390.19 415.371L386.075 422.763L382.056 430.251L378.196 437.77L374.432 445.385L370.796 453.032L367.255 460.743L363.874 468.486L360.588 476.292L357.462 484.162L354.432 492.064L351.529 499.966L348.754 507.931L346.106 515.929L343.618 523.958L341.226 532.019L338.993 540.08L336.856 548.173L334.878 556.298L333.028 564.423L331.338 572.548L329.743 580.673L328.307 588.83L326.999 596.955L325.819 605.112L324.767 613.237L323.873 621.33L323.108 629.455L322.47 637.548L321.96 645.609L321.609 653.638L321.385 661.667L321.29 669.665L321.322 677.599L321.513 685.532L321.832 693.402L322.246 701.241L322.821 709.015L323.522 716.758L324.384 724.436L325.341 732.083L326.425 739.635L327.669 747.154L329.009 754.61L330.476 761.97L332.071 769.299L333.794 776.532L335.644 783.669L337.621 790.742L339.695 797.752L341.896 804.666L344.224 811.485L346.649 818.207L349.2 824.835L351.848 831.367L354.623 837.803L357.494 844.144L360.493 850.389L363.587 856.506L366.776 862.528L370.062 868.423L373.443 874.222L376.92 879.893L380.493 885.437L384.161 890.886L387.925 896.175L391.785 901.369L395.708 906.435L399.727 911.342L403.81 916.153L407.989 920.805L412.231 925.329L416.538 929.726L420.939 933.964L425.405 938.074L429.903 942.057L434.496 945.88L439.153 949.545L443.842 953.081L448.595 956.459L453.38 959.709L458.228 962.767L463.141 965.699L468.085 968.503L473.061 971.115L478.069 973.569L483.109 975.895L488.213 978.061L493.316 980.037L498.452 981.885L503.588 983.574L508.755 985.071L513.955 986.441L519.154 987.652L524.354 988.671L529.585 989.564L534.816 990.265L540.015 990.838L545.247 991.221L550.446 991.444L555.646 991.507L560.845 991.412L566.044 991.157L571.18 990.743L576.348 990.169L581.451 989.436L586.555 988.544L591.595 987.493L596.635 986.25L601.611 984.88L606.587 983.351L611.499 981.662L616.348 979.814L621.164 977.806L625.949 975.672L630.67 973.346L635.327 970.892L639.921 968.28L644.45 965.539L648.948 962.64L653.35 959.581L657.688 956.363L661.962 953.049L666.141 949.545L670.256 945.944L674.275 942.152L678.23 938.265L682.09 934.219L685.886 930.077L689.554 925.775L693.159 921.346L696.667 916.79L700.081 912.106L703.366 907.295L706.588 902.356L709.682 897.322L712.68 892.16L715.551 886.903L718.326 881.518L721.006 876.006L723.558 870.398L726.014 864.695L728.311 858.896L730.512 853.001L732.617 846.979L734.562 840.894L736.413 834.712L738.103 828.435L739.698 822.063L741.165 815.627L742.473 809.095L743.685 802.499L744.738 795.84L745.695 789.085L746.492 782.267L747.162 775.416L747.673 768.47L748.087 761.461L748.342 754.419L748.47 747.314L748.438 740.145L748.279 732.944L747.992 725.711L747.545 718.414L746.971 711.086L746.237 703.758L745.376 696.366L744.387 688.942L743.239 681.518L741.963 674.062L740.527 666.574L738.964 659.087L737.274 651.599L735.424 644.079L733.414 636.56L731.309 629.04L729.012 621.553L726.62 614.033L724.068 606.545L721.388 599.058L718.55 591.57L715.583 584.114L712.489 576.69L709.267 569.266L705.886 561.874L702.409 554.546L698.773 547.218L695.009 539.921L691.117 532.688L687.098 525.487L682.951 518.35L678.677 511.245L674.275 504.171L669.745 497.194L665.12 490.248L660.367 483.365L655.487 476.547L650.479 469.792L645.375 463.101L640.144 456.505L634.817 449.942L629.394 443.505L623.844 437.101L618.198 430.824L612.424 424.579L606.587 418.462L600.622 412.44L594.593 406.481L588.469 400.619L582.217 394.883L575.901 389.212L569.521 383.668L563.014 378.187L556.475 372.835L549.808 367.609L543.11 362.479L536.315 357.445L529.457 352.538L522.535 347.759L515.518 343.075L508.468 338.519L501.355 334.058L494.21 329.757L486.969 325.551L479.728 321.472L472.391 317.553L465.023 313.73L457.622 310.034L450.19 306.465L442.726 303.056L435.23 299.742L427.702 296.588L420.142 293.561L412.55 290.661L404.959 287.889L397.335 285.277L389.711 282.791L382.088 280.433L374.432 278.203L366.808 276.132L359.153 274.22L351.529 272.404L343.874 270.747L336.25 269.25L328.658 267.88L321.066 266.637L313.506 265.554L305.947 264.598L298.419 263.769L290.923 263.1L283.458 262.559L276.058 262.176L268.658 261.921L261.321 261.794L254.016 261.826L246.775 261.985L239.598 262.272L232.453 262.686L225.372 263.26L218.354 263.961L211.4 264.789L204.51 265.745L197.684 266.86L190.954 268.071L184.287 269.441L177.684 270.907L171.177 272.532L164.765 274.252L158.417 276.1L152.197 278.076L146.041 280.179L139.98 282.409L134.015 284.735L128.178 287.188L122.404 289.769L116.79 292.446L111.24 295.218L105.817 298.117L100.522 301.112L95.323 304.235L90.2511 307.453L85.2749 310.767L80.4583 314.144L75.7374 317.649L71.176 321.249L66.7102 324.945L62.404 328.737L58.2253 332.592L54.1742 336.543L50.2508 340.558L46.4868 344.668L42.8504 348.842L39.3415 353.112L35.9922 357.445L32.8024 361.842L29.7403 366.303L26.8375 370.827L24.0623 375.415L21.4467 380.067L18.9906 384.751L16.6939 389.499L14.5567 394.31L12.5471 399.153L10.697 404.06L9.03821 408.998L7.50716 413.969L6.13556 418.971L4.92341 424.006L3.87072 429.072L3.0096 434.138L2.27581 439.268L1.70167 444.398L1.3189 449.527L1.06366 454.689L1 459.883L1.06366 465.044L1.3189 470.238L1.7336 475.432L2.30774 480.625L3.04153 485.787L3.93458 490.98L4.98727 496.142L6.19942 501.272L7.57102 506.402L9.10207 511.532L10.8245 516.598L12.6746 521.664L14.6843 526.698L16.8533 531.701L19.182 536.671L21.67 541.61L24.3176 546.485L27.0927 551.328L30.0592 556.139L33.1532 560.887L36.4069 565.602L39.7881 570.254L43.3288 574.842L47.0291 579.367L50.8569 583.828L54.8441 588.225L58.9589 592.558L63.2334 596.796L67.6034 601.001L72.1648 605.112L76.8219 609.126L81.6066 613.077L86.551 616.964L91.6227 620.756L96.7901 624.452L102.117 628.053L107.54 631.557L113.09 634.967L118.768 638.28L124.542 641.53L130.443 644.621L136.471 647.648L142.564 650.579L148.784 653.383L155.132 656.06L161.543 658.641L168.083 661.126L174.686 663.484L181.416 665.746L188.21 667.849L195.1 669.856L202.054 671.768L209.104 673.52L216.249 675.177L223.426 676.675L230.699 678.077L238.067 679.351L245.468 680.498L252.932 681.518L260.46 682.378L268.052 683.143L275.707 683.748L283.395 684.258L291.146 684.608L298.929 684.831L306.744 684.927L314.623 684.863L322.502 684.672L330.444 684.353L338.387 683.907L346.393 683.334L354.4 682.601L362.406 681.741L370.445 680.753L378.483 679.606L386.553 678.332L394.623 676.93L402.662 675.4L410.732 673.711L418.802 671.895L426.841 669.952L434.879 667.881L442.917 665.682L450.892 663.324L458.898 660.839L466.841 658.226L474.784 655.486L482.695 652.619L490.541 649.623L498.388 646.501L506.172 643.251L513.923 639.874L521.61 636.369L529.266 632.736L536.858 629.008L544.417 625.121L551.913 621.138L559.314 617.028L566.682 612.822L573.987 608.489L581.196 604.028L588.341 599.472L595.423 594.82L602.408 590.041L609.33 585.166L616.156 580.195L622.919 575.129L629.586 569.936L636.125 564.678L642.6 559.293L648.98 553.845L655.264 548.301L661.42 542.661L667.513 536.926L673.478 531.127L679.347 525.233L685.088 519.274L690.702 513.22L696.253 507.135L701.643 500.953L706.939 494.676L712.106 488.368L717.146 481.995L722.09 475.559L726.875 469.091L731.564 462.527L736.094 455.932L740.527 449.304L744.802 442.613L748.949 435.89L752.968 429.104L756.859 422.317L760.591 415.466L764.196 408.616L767.673 401.734L770.99 394.82L774.212 387.874L777.242 380.928L780.145 373.95L782.92 366.972L785.536 359.994L788.024 352.984L790.352 346.006L792.553 339.028L794.595 332.019L796.477 325.041L798.231 318.095L799.826 311.149L801.294 304.203L802.601 297.289L803.782 290.406L804.802 283.556L805.664 276.706L806.397 269.919L806.971 263.164L807.418 256.441L807.705 249.75L807.865 243.123V236.527L807.705 229.995L807.45 223.527L807.003 217.123L806.461 210.75L805.759 204.473L804.898 198.228L803.941 192.079L802.825 186.025L801.549 180.003L800.177 174.077L798.646 168.246L797.019 162.479L795.233 156.807L793.319 151.231L791.278 145.751L789.108 140.334L786.844 135.045L784.419 129.852L781.899 124.754L779.252 119.783L776.477 114.908L773.606 110.129L770.607 105.477L767.481 100.952L764.292 96.5235L760.942 92.2221L757.529 88.0482L753.989 84.0016L750.384 80.0507L746.652 76.2591L742.824 72.5949L738.901 69.0581L734.882 65.6489L730.798 62.367L726.62 59.2445L722.346 56.2494L718.007 53.3818L713.574 50.6735L709.076 48.1245L704.514 45.6711L699.857 43.4089L695.168 41.2741L690.384 39.2986L685.567 37.4825L680.655 35.7938L675.71 34.2644L670.702 32.8943L665.662 31.6835L660.559 30.6002L655.391 29.7081L650.224 28.9433L644.992 28.3698L639.729 27.9237L634.434 27.637L629.107 27.5414L623.78 27.5733L618.389 27.7644L612.999 28.1149L607.576 28.6566L602.153 29.3257L596.731 30.1541L591.276 31.1737L585.853 32.3208L580.399 33.6271L574.944 35.1247L569.489 36.7496L564.067 38.5339L558.644 40.5094L553.221 42.6123L547.831 44.8746L542.44 47.2961L537.081 49.877L531.754 52.6171L526.459 55.4847L521.195 58.5435L515.964 61.7298L510.765 65.0753L505.597 68.5483L500.494 72.2125L495.422 76.0042L490.382 79.9232L485.438 84.0016L480.525 88.2393L475.645 92.6045L470.86 97.0971L466.107 101.749L461.45 106.528L456.857 111.435L452.327 116.469L447.862 121.663L443.46 126.952L439.153 132.401L434.943 137.945L430.796 143.648L426.745 149.447L422.758 155.373L418.898 161.395L415.102 167.545L411.402 173.822L407.797 180.194L404.289 186.662L400.876 193.258L397.59 199.949L394.4 206.736L391.306 213.618L388.308 220.564L385.437 227.637L382.694 234.807L380.014 242.039L377.494 249.368L375.07 256.76L372.773 264.247L370.572 271.799L368.531 279.414L366.585 287.125L364.767 294.867L363.044 302.705L361.481 310.575L360.046 318.509L358.706 326.507L357.526 334.536L356.441 342.629L355.516 350.754L354.719 358.911L354.017 367.099L353.475 375.352L353.06 383.604L352.773 391.92L352.646 400.236L352.614 408.552L352.741 416.9L352.996 425.28L353.379 433.66L353.89 442.04L354.527 450.451L355.325 458.831L356.218 467.211L357.271 475.591L358.451 483.971L359.759 492.319L361.194 500.667L362.789 508.983L364.48 517.299L366.33 525.551L368.276 533.804L370.381 542.024L372.582 550.213L374.942 558.338L377.399 566.431L380.014 574.492L382.726 582.489L385.564 590.455L388.531 598.357L391.593 606.195L394.815 613.969L398.132 621.68L401.546 629.359L405.118 636.942L408.754 644.43L412.55 651.886L416.41 659.246L420.397 666.511L424.512 673.711L428.691 680.817L432.997 687.827L437.399 694.773L441.897 701.591L446.49 708.314L451.179 714.973L455.964 721.505L460.812 727.941L465.757 734.25L470.796 740.463L475.932 746.581L481.131 752.571L486.395 758.465L491.753 764.201L497.176 769.84L502.695 775.384L508.245 780.769L513.859 786.026L519.569 791.188L525.31 796.191L531.116 801.066L536.985 805.845L542.886 810.465L548.851 814.926L554.848 819.291L560.909 823.497L566.969 827.543L573.094 831.494L579.25 835.254L585.438 838.918L591.659 842.423L597.879 845.769L604.131 848.955L610.415 852.014L616.699 854.945L623.015 857.717L629.33 860.33L635.646 862.783L641.962 865.109L648.278 867.244L654.594 869.283L660.91 871.131L667.225 872.852L673.509 874.381L679.761 875.783L686.013 877.058L692.265 878.141L698.454 879.097L704.642 879.893L710.767 880.53L716.891 881.04L722.951 881.359L728.98 881.55L734.977 881.582L740.91 881.486L746.811 881.231L752.649 880.817L758.422 880.276L764.132 879.575L769.81 878.714L775.392 877.726L780.911 876.579L786.365 875.305L791.756 873.903L797.083 872.342L802.282 870.621L807.45 868.805L812.49 866.83L817.466 864.695L822.346 862.464L827.131 860.107L831.82 857.59L836.445 854.945L840.943 852.205L845.313 849.305L849.619 846.31L853.798 843.188L857.849 839.938L861.804 836.56L865.664 833.087L869.396 829.487L873.001 825.791L876.477 821.967L879.859 818.048L883.08 814.034L886.207 809.891L889.205 805.686L892.044 801.352L894.787 796.955L897.371 792.431L899.827 787.843L902.124 783.159L904.325 778.411L906.334 773.536L908.248 768.63L910.002 763.627L911.597 758.561L913.065 753.399L914.404 748.206L915.553 742.917L916.573 737.564L917.467 732.179L918.168 726.731L918.743 721.218L919.157 715.674L919.444 710.066L919.54 704.427L919.508 698.723L919.317 693.02L918.966 687.253L918.456 681.454L917.786 675.623L916.988 669.792L915.999 663.93L914.883 658.035L913.607 652.141L912.172 646.214L910.577 640.288L908.822 634.361L906.908 628.403L904.867 622.477L902.666 616.518L900.274 610.592L897.754 604.666L895.106 598.771L892.267 592.876L889.301 586.982L886.175 581.151L882.889 575.288L879.476 569.489L875.903 563.722L872.171 557.955L868.312 552.252L864.292 546.58L860.146 540.973L855.871 535.365L851.437 529.853L846.876 524.34L842.155 518.924L837.307 513.539L832.33 508.218L827.227 502.961L821.995 497.767L816.637 492.637L811.15 487.571L805.504 482.569L799.794 477.662L793.925 472.819L787.928 468.071L781.836 463.388L775.647 458.799L769.332 454.275L762.888 449.878L756.349 445.545L749.714 441.307L742.984 437.165L736.125 433.118L729.204 429.167L722.154 425.312L715.041 421.584L707.832 417.92L700.527 414.383L693.127 410.974L685.663 407.66L678.135 404.442L670.511 401.351L662.823 398.388L655.072 395.521L647.257 392.78L639.378 390.168L631.404 387.651L623.429 385.293L615.359 383.03L607.257 380.896L599.091 378.888L590.893 377.008L582.663 375.224L574.37 373.599L566.076 372.102L557.719 370.732L549.362 369.489L540.94 368.374L532.519 367.386L524.098 366.526L515.645 365.793L507.192 365.219L498.707 364.773L490.222 364.423L481.737 364.232L473.253 364.168L464.799 364.232L456.315 364.455L447.862 364.773L439.441 365.251L431.019 365.857L422.598 366.59L414.241 367.418L405.884 368.437L397.558 369.553L389.297 370.795L381.035 372.165L372.837 373.663L364.671 375.288L356.569 377.04L348.499 378.92L340.492 380.928L332.55 383.062L324.639 385.325L316.824 387.682L309.073 390.168L301.353 392.78L293.73 395.489L286.202 398.324L278.738 401.288L271.337 404.346L264.032 407.533L256.823 410.815L249.678 414.192L242.629 417.697L235.707 421.297L228.849 424.993L222.086 428.785L215.451 432.672L208.912 436.655L202.469 440.733L196.153 444.907L189.933 449.177L183.84 453.542L177.844 457.971L171.974 462.464L166.233 467.084L160.618 471.736L155.132 476.483L149.773 481.326L144.51 486.201L139.406 491.14L134.43 496.174L129.582 501.24L124.892 506.402L120.331 511.595L115.897 516.853L111.623 522.142L107.476 527.495L103.457 532.879L99.5972 538.328L95.8971 543.808L92.3245 549.321L88.9114 554.865L85.6577 560.441L82.5318 566.048L79.5972 571.656L76.7901 577.328L74.1106 582.999L71.6226 588.671L69.262 594.374L67.0929 600.077L65.0514 605.781L63.1695 611.516L61.4471 617.219L59.8839 622.955L58.4804 628.658L57.2365 634.361L56.1519 640.033L55.195 645.704L54.4295 651.376L53.7915 656.984L53.3448 662.591L53.0259 668.199L52.8982 673.743V679.256L53.0579 684.736L53.3768 690.184L53.8553 695.569L54.4931 700.922L55.2906 706.243L56.2157 711.468L57.3002 716.694L58.5443 721.824L59.9159 726.89L61.4788 731.924L63.1376 736.863L64.9877 741.77L66.9654 746.581L69.1025 751.296L71.3674 755.948L73.7597 760.537L76.3116 765.029L78.9911 769.458L81.8299 773.791L84.7647 778.029L87.8587 782.171L91.0804 786.218L94.4297 790.169L97.9067 793.992L101.511 797.752L105.243 801.384L109.103 804.921L113.09 808.362L117.173 811.676L121.384 814.894L125.69 817.953L130.124 820.948L134.653 823.783L139.31 826.524L144.031 829.136L148.88 831.622L153.824 833.948L158.896 836.178L164.032 838.281L169.231 840.256L174.558 842.072L179.949 843.793L185.435 845.354L191.018 846.788L196.663 848.063L202.373 849.21L208.147 850.229L214.016 851.09L219.917 851.823L225.914 852.396L231.943 852.81L238.067 853.129L244.192 853.256H250.412L256.664 853.097L262.948 852.81L269.296 852.364L275.675 851.759L282.087 851.026L288.53 850.134L295.006 849.082L301.481 847.903L308.02 846.533L314.559 845.067L321.098 843.411L327.669 841.626L334.24 839.683L340.843 837.58L347.414 835.349L354.017 832.96L360.588 830.411L367.191 827.734L373.762 824.899L380.301 821.936L386.84 818.813L393.38 815.531L399.887 812.122L406.362 808.585L412.805 804.889L419.249 801.066L425.629 797.083L431.976 792.973L438.292 788.703L444.576 784.338L450.796 779.813L456.953 775.161L463.077 770.382L469.17 765.475L475.166 760.441L481.131 755.247L487.033 749.958L492.838 744.574L498.612 739.029L504.289 733.358L509.935 727.591L515.454 721.728L520.94 715.738L526.299 709.62L531.626 703.407L536.826 697.098L541.961 690.662L547.001 684.13L551.945 677.503L556.794 670.78L561.547 663.993L566.204 657.079L570.765 650.07L575.231 642.996L579.569 635.827L583.812 628.594L587.959 621.266L591.978 613.874L595.901 606.418L599.697 598.867L603.397 591.251L606.938 583.604L610.415 575.862L613.732 568.087L616.954 560.249L620.048 552.347L623.015 544.414L625.854 536.416L628.565 528.387L631.149 520.326L633.637 512.233L635.965 504.076L638.166 495.919L640.239 487.73L642.185 479.51L644.003 471.289L645.694 463.037L647.225 454.753L648.661 446.5L649.937 438.216L651.085 429.932L652.106 421.648L652.967 413.364L653.733 405.079L654.339 396.827L654.817 388.575L655.168 380.354L655.391 372.134L655.455 363.945L655.391 355.756L655.2 347.631L654.881 339.538L654.434 331.445L653.86 323.448L653.126 315.45L652.297 307.517L651.308 299.615L650.224 291.777L648.98 284.002L647.64 276.26L646.141 268.613L644.546 260.997L642.791 253.478L640.941 246.022L638.964 238.63L636.89 231.302L634.657 224.069L632.329 216.932L629.873 209.858L627.321 202.88L624.641 195.998L621.866 189.211L618.963 182.52L615.965 175.893L612.871 169.425L609.681 163.02L606.364 156.744L602.951 150.562L599.442 144.477L595.837 138.55L592.137 132.687L588.373 126.984L584.482 121.376L580.526 115.928L576.475 110.575L572.36 105.349L568.15 100.251L563.875 95.2809L559.505 90.4697L555.103 85.7541L550.606 81.1977L546.044 76.8007L541.387 72.5311L536.698 68.389L531.977 64.3744L527.161 60.5509L522.312 56.8548L517.4 53.2862L512.455 49.877L507.447 46.627L502.408 43.5363L497.336 40.5731L492.2 37.7692L487.065 35.1247L481.897 32.6394L476.666 30.3134L471.434 28.1468L466.203 26.1076L460.94 24.2596L455.645 22.5709L450.35 21.0096L445.054 19.6395L439.728 18.4288L434.433 17.3773L429.105 16.4851L423.81 15.7205L418.483 15.1469L413.188 14.7327L407.925 14.4778L402.63 14.3822L397.399 14.4459L392.167 14.7009L386.968 15.0832L381.801 15.6248L376.633 16.3258L371.529 17.1861L366.458 18.2057L361.418 19.4165L356.441 20.7547L351.497 22.2204L346.585 23.8772L341.736 25.6934L336.952 27.637L332.199 29.7399L327.51 32.0021L322.916 34.4237L318.355 36.9727L313.889 39.681L309.455 42.5167L305.117 45.5118L300.875 48.6343L296.696 51.9161L292.581 55.3573L288.562 58.894L284.639 62.5901L280.779 66.4136L277.047 70.3645L273.379 74.4429L269.838 78.6487L266.361 83.0139L262.98 87.4746L259.726 92.0628L256.568 96.7466L253.538 101.59L250.603 106.528L247.764 111.563L245.053 116.756L242.437 122.013L239.949 127.398L237.589 132.879L235.356 138.455L233.219 144.126L231.209 149.893L229.359 155.756L227.605 161.714L225.978 167.768L224.479 173.886L223.139 180.099L221.895 186.376L220.81 192.748L219.853 199.184L219.024 205.684L218.322 212.28L217.78 218.907L217.365 225.598L217.078 232.353L216.951 239.172V246.022L217.11 252.936L217.397 259.914L217.812 266.892L218.386 273.934L219.12 281.007L219.981 288.112L220.97 295.25L222.118 302.419L223.426 309.619L224.861 316.82L226.424 324.021L228.147 331.286L230.029 338.519L232.039 345.783L234.176 353.048L236.472 360.281L238.928 367.545L241.48 374.81L244.224 382.043L247.063 389.276L250.061 396.476L253.219 403.677L256.472 410.846L259.886 418.015L263.458 425.121L267.127 432.226L270.954 439.3L274.91 446.309L278.993 453.287L283.203 460.233L287.541 467.115L292.007 473.966L296.6 480.753L301.321 487.507L306.138 494.167L311.114 500.794L316.186 507.358L321.385 513.858L326.68 520.262L332.103 526.634L337.653 532.911L343.299 539.093L349.041 545.21L354.91 551.264L360.875 557.222L366.936 563.085L373.092 568.852L379.344 574.556L385.692 580.163L392.136 585.644L398.675 591.06L405.278 596.349L411.976 601.543L418.77 606.641L425.629 611.643L432.582 616.518L439.568 621.298L446.649 625.95L453.795 630.474L461.004 634.903L468.276 639.236L475.613 643.41L483.013 647.489L490.446 651.44L497.942 655.263L505.47 658.959L513.061 662.528L520.685 666.001L528.341 669.314L536.028 672.501L543.779 675.559L551.531 678.491L559.314 681.295L567.097 683.939L574.944 686.488L582.759 688.878L590.606 691.14L598.485 693.275L606.332 695.25L614.211 697.098L622.089 698.819L629.936 700.38L637.783 701.814L645.63 703.12L653.477 704.299L661.292 705.319L669.076 706.211L676.859 706.944L684.61 707.549L692.297 708.027L699.985 708.378L707.64 708.569L715.232 708.633L722.792 708.569L730.32 708.346L737.784 707.995L745.185 707.518L752.553 706.912L759.858 706.179L767.099 705.287L774.276 704.299L781.389 703.152L788.407 701.91L795.36 700.508L802.25 698.978L809.077 697.353L815.775 695.569L822.442 693.689L828.981 691.682L835.424 689.547L841.804 687.317L848.056 684.959L854.244 682.474L860.305 679.893L866.27 677.184L872.139 674.381L877.881 671.481L883.495 668.454L889.014 665.332L894.436 662.114L899.731 658.8L904.899 655.359L909.939 651.854L914.851 648.253L919.636 644.557L924.293 640.766L928.822 636.91L933.192 632.959L937.467 628.913L941.582 624.803L945.569 620.629L949.397 616.359L953.097 612.058L956.67 607.661L960.083 603.2L963.336 598.675L966.43 594.087L969.397 589.435L972.204 584.752L974.883 580.004L977.371 575.225L979.732 570.382L981.933 565.507L983.974 560.6L985.856 555.629L987.579 550.627L989.142 545.624L990.545 540.558L991.789 535.492L992.874 530.394L993.799 525.296L994.565 520.166L995.171 515.037L995.617 509.875L995.873 504.713L996 499.551" stroke="url(#paint0_linear_423_3189)" stroke-width="0.783926"/>
<defs>
<linearGradient id="paint0_linear_423_3189" x1="1055" y1="134" x2="-12" y2="671" gradientUnits="userSpaceOnUse">
<stop stop-color="#263754" stop-opacity="0.7"/>
<stop offset="1" stop-color="#263754" stop-opacity="0"/>
</linearGradient>
</defs>
</svg>
