<svg id="Icon" xmlns="http://www.w3.org/2000/svg" width="80" height="80" viewBox="0 0 4167 4167">
  <title>Symmetric Finance</title>
<metadata><?xpacket begin="﻿" id="W5M0MpCehiHzreSzNTczkc9d"?>
<x:xmpmeta xmlns:x="adobe:ns:meta/" x:xmptk="Adobe XMP Core 6.0-c006 79.dabacbb, 2021/04/14-00:39:44        ">
   <rdf:RDF xmlns:rdf="http://www.w3.org/1999/02/22-rdf-syntax-ns#">
      <rdf:Description rdf:about=""
            xmlns:dc="http://purl.org/dc/elements/1.1/"
            xmlns:xmp="http://ns.adobe.com/xap/1.0/">
         <dc:title>
            <rdf:Alt>
               <rdf:li xml:lang="x-default">Symmetric Finance</rdf:li>
            </rdf:Alt>
         </dc:title>
         <xmp:CreatorTool>Adobe Photoshop CS6 (Mac)</xmp:CreatorTool>
      </rdf:Description>
   </rdf:RDF>
</x:xmpmeta>
                                                                                                    
                                                                                                    
                                                                                                    
                                                                                                    
                                                                                                    
                                                                                                    
                                                                                                    
                                                                                                    
                                                                                                    
                                                                                                    
                                                                                                    
                                                                                                    
                                                                                                    
                                                                                                    
                                                                                                    
                                                                                                    
                                                                                                    
                                                                                                    
                                                                                                    
                                                                                                    
                           
<?xpacket end="w"?></metadata>
<defs>
    <style>
      .cls-1 {
        fill: #fb6706;
        fill-rule: evenodd;
      }
    </style>
  </defs>
  <path class="cls-1" d="M2971.17,1332.86s-14.53-18.42-90-18-918.05,0-918.05,0l189.01-351.013s294.28-.038,414.02,0c126.44,0.04,207.12,40.713,288.01,171.013C2915.55,1233.71,2932.28,1262.92,2971.17,1332.86Z"/>
  <path class="cls-1" d="M1828.12,963.847s-427.76,755.713-477.03,846.043-81.27,115.87-81,198.01,17.1,207.96,198.01,207.01c0,0,888.42.9,972.04,0,70.77-.77,91.1,12.24,90.01,36s-32.46,69.22-72,135.01c-16.49,27.42-35.62,59.34-54.01,90-25.71,42.88-45.08,81.04-99,81,0,0-1009.47.59-1116.05,0-128.04-.7-178.01-23.59-261.017-171s-97.989-162.41-99-270.02,26.713-134.7,99.005-261.01,315.307-553.07,405.017-702.03,188.85-189.054,315.02-189.013h180.01Z"/>
  <path id="Shape_7_copy" data-name="Shape 7 copy" class="cls-1" d="M1189.09,2827s14.52,18.42,90,18,918.04,0,918.04,0l-189.01,350.95s-294.28.04-414.02,0c-126.43-.04-207.11-40.71-288.01-170.98C1244.71,2926.13,1227.98,2896.93,1189.09,2827Z"/>
  <path id="Shape_8_copy" data-name="Shape 8 copy" class="cls-1" d="M2332.14,3195.95s427.76-755.57,477.02-845.89,81.27-115.85,81.01-197.97-17.1-207.92-198.01-206.97c0,0-888.43-.91-972.05,0-70.76.76-91.09-12.25-90-36s32.46-69.21,72-134.98c16.48-27.42,35.62-59.34,54-89.99,25.72-42.88,45.09-81.03,99.01-80.99,0,0,1009.47-.59,1116.05,0,128.04,0.7,178.01,23.59,261.01,170.98s97.99,162.37,99.01,269.96-26.71,134.68-99.01,260.97-315.3,552.97-405.02,701.91-188.85,189.01-315.01,188.97H2332.14Z"/>
</svg>
