<svg width="50" height="50" viewBox="0 0 50 50" fill="none" xmlns="http://www.w3.org/2000/svg">
<g clip-path="url(#clip0_932_7293)">
<path d="M33.9427 18.7433C33.2682 18.3612 32.401 18.3612 31.6302 18.7433L26.2344 21.8956L22.5729 23.9015L17.2734 27.0538C16.599 27.4359 15.7318 27.4359 14.9609 27.0538L10.8177 24.5702C10.1432 24.1881 9.66146 23.4239 9.66146 22.5642V17.7881C9.66146 17.0239 10.0469 16.2597 10.8177 15.7821L14.9609 13.3941C15.6354 13.012 16.5026 13.012 17.2734 13.3941L21.4167 15.8776C22.0911 16.2597 22.5729 17.0239 22.5729 17.8836V21.0359L26.2344 18.9344V15.6866C26.2344 14.9224 25.849 14.1582 25.0781 13.6806L17.3698 9.19108C16.6953 8.80899 15.8281 8.80899 15.0573 9.19108L7.15625 13.7762C6.38542 14.1582 6 14.9224 6 15.6866V24.6657C6 25.4299 6.38542 26.1941 7.15625 26.6717L14.9609 31.1612C15.6354 31.5433 16.5026 31.5433 17.2734 31.1612L22.5729 28.1045L26.2344 26.003L31.5339 22.9463C32.2083 22.5642 33.0755 22.5642 33.8464 22.9463L37.9896 25.3344C38.6641 25.7165 39.1458 26.4806 39.1458 27.3403V32.1165C39.1458 32.8806 38.7604 33.6448 37.9896 34.1224L33.9427 36.5105C33.2682 36.8926 32.401 36.8926 31.6302 36.5105L27.487 34.1224C26.8125 33.7403 26.3307 32.9762 26.3307 32.1165V29.0597L22.6693 31.1612V34.3135C22.6693 35.0776 23.0547 35.8418 23.8255 36.3194L31.6302 40.809C32.3047 41.1911 33.1719 41.1911 33.9427 40.809L41.7474 36.3194C42.4219 35.9373 42.9036 35.1732 42.9036 34.3135V25.2388C42.9036 24.4747 42.5182 23.7105 41.7474 23.2329L33.9427 18.7433Z" fill="#8247E5"/>
</g>
<defs>
<clipPath id="clip0_932_7293">
<rect width="37" height="32" fill="white" transform="translate(6 9)"/>
</clipPath>
</defs>
</svg>
