<svg width="100" height="100" fill="none" xmlns="http://www.w3.org/2000/svg"><g clip-path="url(#a)"><circle cx="50" cy="50" r="47" fill="#fff"/><path d="M.407 51.526v-2.243c.235-1.63.34-3.276.43-4.9 1.572-13.804 8.138-24.815 18.866-33.436A45.961 45.961 0 0 1 42.333.974c13.814-1.945 26.628.618 37.885 9.181 9.134 6.976 15.57 15.885 18.541 27.074a50.994 50.994 0 0 1 1.463 17.195c-.608 7.913-2.794 15.329-7.102 22.011-7.594 11.786-18.017 19.862-31.895 22.624-19.763 3.936-36.407-1.797-49.52-17.226a46.395 46.395 0 0 1-10.48-22.645c-.158-.912-.263-1.824-.389-2.741l-.43-4.921Zm94.464-1.31c.157-2.72-.032-5.45-.561-8.123a42.733 42.733 0 0 0-5.005-13.726 47.969 47.969 0 0 0-11.64-13.332 41.71 41.71 0 0 0-14.752-7.589 37.167 37.167 0 0 0-9.737-1.572c-.792 0-1.573-.262-2.364-.152a17.54 17.54 0 0 1-2.872.157c-1.17.015-2.338.127-3.49.335a46.015 46.015 0 0 0-12.374 3.517 44.618 44.618 0 0 0-22.99 23.95A43.773 43.773 0 0 0 5.94 47.68a45.05 45.05 0 0 0 .42 9.009 43.129 43.129 0 0 0 3.364 11.907c3.26 7.264 8.311 13.144 14.632 17.892 7.536 5.66 16.173 8.207 25.538 8.422 1.42.031 2.83-.08 4.25-.19 1.79-.123 3.57-.358 5.33-.701a41.353 41.353 0 0 0 12.43-4.56 46.83 46.83 0 0 0 15.23-13.772 40.496 40.496 0 0 0 5.687-11.284 39.403 39.403 0 0 0 2.049-14.186Z" fill="#C4BAAE"/><path d="M34.534 31.616v-3.668c.047-2.683 1.462-4.795 3.79-5.692a6.531 6.531 0 0 1 7.273 1.573 5.61 5.61 0 0 1 1.573 3.873v3.83c1.158.236 2.28.08 3.39.11 1.111.032 2.165 0 3.313 0a16.14 16.14 0 0 0 .094-3.018 9.805 9.805 0 0 1 .215-2.243 6.105 6.105 0 0 1 5.911-4.565c3.06-.047 5.571 1.693 6.29 4.382a9.74 9.74 0 0 1 .256 2.368v2.857c.288.356.65.225.964.225h7.164c.46-.02.922.015 1.373.105a2.704 2.704 0 0 1 2.18 2.3c.15.956.098 1.932-.151 2.867a13.98 13.98 0 0 1-2.956 5.765 48.012 48.012 0 0 1-4.476 4.407c-.461.42-.927.85-1.352 1.31a3.34 3.34 0 0 0-.907 2.39c.032 5.194.042 10.393 0 15.591-.044 6.513-4.599 12.186-10.947 13.637-1.101.258-2.229.386-3.36.382-2.893 0-5.765.037-8.673 0C38.605 80.376 32.69 75.3 31.62 68.49a16.174 16.174 0 0 1-.173-2.756c0-4.78-.083-9.56 0-14.334a4.567 4.567 0 0 0-1.572-3.668c-1.32-1.222-2.638-2.445-3.956-3.669a15.51 15.51 0 0 1-3.816-5.68 8.763 8.763 0 0 1-.67-3.549c.062-2.159 1.095-3.197 3.301-3.218h9.8Zm9.827 6.221a1.009 1.009 0 0 0-.813-.204H34c-1.541 0-2.149.707-1.898 2.222a6.205 6.205 0 0 0 1.704 3.433c.702.712 1.404 1.436 2.154 2.096a4.195 4.195 0 0 1 1.462 3.443c-.063 2.888 0 5.765 0 8.668v8.422a7.552 7.552 0 0 0-.002.19c0 4.45 3.608 8.136 8.057 8.232H46c2.846-.105 5.691 0 8.542-.037a8.105 8.105 0 0 0 7.39-5.13c.817-2.05.555-4.193.524-6.185C50.65 58.564 44.36 50.383 44.36 37.837Zm14.988 18.395a2.696 2.696 0 0 0 2.683-2.683 2.696 2.696 0 0 0-2.683-2.683 2.696 2.696 0 0 0-2.683 2.683 2.696 2.696 0 0 0 2.683 2.683Zm3.05-24.631c0-1.358.053-2.62 0-3.936-.052-1.017-.77-1.572-1.87-1.64-1.269-.074-2.155.43-2.265 1.477a19.836 19.836 0 0 0 0 4.099H62.4Zm-19.605 0c.063-.12.13-.189.13-.262 0-.996.048-1.997.048-2.993a4.052 4.052 0 0 0-.116-1c-.256-.955-1.084-1.442-2.242-1.348-1.049.084-1.772.682-1.814 1.688-.057 1.284 0 2.568 0 3.904l3.994.01Z" fill="#030202"/><path d="M44.36 37.837c0 12.546 6.29 20.727 18.07 25.156 0 2.012.278 4.135-.523 6.184a8.105 8.105 0 0 1-7.39 5.13c-2.85.042-5.697-.068-8.542.037-4.504.188-8.367-3.358-8.564-7.861v-8.998c0-2.888-.041-5.765 0-8.669a4.195 4.195 0 0 0-1.462-3.443c-.75-.67-1.451-1.394-2.154-2.096a6.205 6.205 0 0 1-1.703-3.433c-.252-1.514.356-2.217 1.897-2.222h9.544a.996.996 0 0 1 .828.215Zm1.049 15.754v-.057a2.691 2.691 0 0 0-2.678-2.678 2.691 2.691 0 0 0-2.678 2.678 2.69 2.69 0 0 0 2.615 2.677 2.633 2.633 0 0 0 2.73-2.505v-.115h.01Zm13.94 2.641a2.696 2.696 0 0 1-2.683-2.683 2.696 2.696 0 0 1 2.683-2.683 2.696 2.696 0 0 1 2.683 2.683 2.696 2.696 0 0 1-2.683 2.683Zm3.05-24.647h-4.14a19.836 19.836 0 0 1 0-4.098c.11-1.048.996-1.572 2.264-1.478 1.1.063 1.819.623 1.87 1.64.059 1.29.006 2.584.006 3.936Zm-19.605.005h-4.01c0-1.336-.041-2.62 0-3.904.042-1.006.745-1.604 1.814-1.688 1.158-.094 1.986.393 2.243 1.347.08.324.118.657.115.99 0 .996 0 1.997-.047 2.993.016.073-.053.142-.115.262Z" fill="#F6EEE4"/><path d="M45.398 53.59a2.69 2.69 0 0 1-2.677 2.637 2.69 2.69 0 0 1-2.678-2.678 2.69 2.69 0 0 1 2.678-2.678h.057a2.632 2.632 0 0 1 2.62 2.578v.142Z" fill="#030202"/></g><defs><clipPath id="a"><path fill="#fff" d="M0 0h100v100H0z"/></clipPath></defs></svg>