<svg xmlns="http://www.w3.org/2000/svg" width="46" height="42" fill="none"><path fill="#052B65" fill-rule="evenodd" d="M32.827 3.134c2.49-.457 11.8-2.167 12.214.747.425 2.983-3.412 7.098-7.426 8.947a3.645 3.645 0 0 0-.588.367c-.154.115-.315.22-.483.314-.632.338-1.008 1.182-.916 1.944v10.66c-3.165-2.19-7.818-3.553-13.09-3.553-5.275 0-9.927 1.363-13.093 3.553v-10.66c.093-.761-.284-1.606-.916-1.944a4.428 4.428 0 0 1-.482-.314c-.189-.135-.377-.27-.589-.367C3.444 10.98-.392 6.864.032 3.88.447.967 9.76 2.677 12.247 3.134c.198.036.353.065.456.082.072.012.14-.048.125-.12-.143-.703-.247-2.61 1.126-3.022.877-.264 1.456.223 1.8.715.153.22.613 1.173.9 1.835.153.357.512.88.906.87 1.612-.5 3.29-.756 4.977-.76 1.661 0 3.322.253 4.976.76.394.01.753-.513.907-.87.286-.662.746-1.615.9-1.835.343-.492.922-.98 1.8-.715 1.372.413 1.268 2.319 1.125 3.023-.014.07.053.13.125.12l.457-.083ZM20.56 14.936c.046-.27-.395-.954-1.772-1.883a11.477 11.477 0 0 0-3.158-1.464 2.583 2.583 0 0 0-.81-.117c-.5.019-.98.187-1.4.484-.56.383-.95.895-1.067 1.556-.12.66.068 1.273.461 1.822.292.42.684.74 1.147.925.255.102.53.147.803.164 1.166.07 2.344-.034 3.476-.314 1.617-.41 2.27-.905 2.32-1.173Zm10.552 1.323a2.54 2.54 0 0 0 1.147-.925c.394-.55.581-1.16.461-1.821-.117-.662-.505-1.174-1.066-1.557-.42-.297-.9-.466-1.4-.484a2.589 2.589 0 0 0-.81.117c-1.12.325-2.19.82-3.158 1.464-1.377.929-1.818 1.613-1.773 1.883.051.268.703.763 2.32 1.173 1.133.28 2.311.385 3.476.314.274-.017.55-.062.803-.164Z" clip-rule="evenodd"/><path fill="#052B65" fill-rule="evenodd" d="M6.94 33.167c0-4.879 6.983-8.833 15.597-8.833 8.613 0 15.596 3.954 15.596 8.833 0 4.878-6.983 8.833-15.596 8.833-8.614 0-15.597-3.955-15.597-8.833Zm5.4-.55c.238 1.453 1.48 2.093 2.815 1.453a3.834 3.834 0 0 0 2.233-3.275c-.006-.749-.409-.461-.907-.106-.665.474-1.5 1.07-1.78-.53-.49-2.797-2.623.902-2.362 2.458h.001Zm17.578 1.453c1.335.64 2.577 0 2.816-1.453.26-1.556-1.87-5.255-2.362-2.458-.28 1.6-1.115 1.004-1.78.53-.498-.355-.9-.643-.906.106a3.833 3.833 0 0 0 2.232 3.275Z" clip-rule="evenodd"/></svg>