<svg width="100" height="100" fill="none" xmlns="http://www.w3.org/2000/svg"><rect width="100" height="100" rx="50" fill="#171820"/><path fill-rule="evenodd" clip-rule="evenodd" d="M51 83.777c-10.986 0-20.346-7.208-23.914-17.308C31.057 76.094 40.836 83 51 83c10.164 0 20.017-6.829 23.913-16.531C71.346 76.569 61.986 83.777 51 83.777Zm24.54-36.329c-1.188-2.971.033-6.352 2.73-7.815a32.937 32.937 0 0 0-9.563-9.905c-1.037 2.054-3.075 3.28-5.22 3.298 4.971 4.643 11.733 12.25 11.733 23.666 0 13.858-10.844 25.092-24.22 25.092-13.377 0-24.22-11.234-24.22-25.092 0-11.415 6.763-19.023 11.733-23.666-2.146-.018-4.183-1.246-5.22-3.299-3.902 2.617-7.127 6.016-9.56 9.907 2.696 1.462 3.915 4.844 2.728 7.814-1.187 2.97-4.357 4.466-7.262 3.526a34.655 34.655 0 0 0-.004 14.008c2.906-.942 6.078.556 7.266 3.527 1.188 2.971-.033 6.351-2.731 7.814a32.93 32.93 0 0 0 9.563 9.904c1.412-2.793 4.676-4.057 7.543-2.827 2.866 1.23 4.31 4.514 3.403 7.524a31.22 31.22 0 0 0 13.522.003c-.91-3.01.536-6.296 3.404-7.527 2.868-1.23 6.131.035 7.543 2.83 3.9-2.618 7.126-6.017 9.56-9.907-2.696-1.463-3.916-4.845-2.729-7.814 1.187-2.97 4.358-4.466 7.263-3.527.935-4.533.974-9.3.003-14.008-2.907.942-6.078-.555-7.266-3.526Z" fill="#fff"/><path fill-rule="evenodd" clip-rule="evenodd" d="M41.67 23.92c-3.208 5.86-1.275 10.198-.094 14.63 4.457 16.723-13.736 20.956-6.664 3.254-2.8 4.756-5.281 8.387-5.281 16.698 0 8.42 4.28 15.758 10.617 19.615-1.429-9.228 6.494-10.723 10.21-17.712C57.2 47.72 38.4 36.687 41.67 23.92Z" fill="#F17300"/><path fill-rule="evenodd" clip-rule="evenodd" d="M55.133 30.72C49.518 24.255 44.835 17.987 50.76 6.5c-4.024 3.835-11.725 18.417-5.324 28.12C51.113 43.226 56 50.584 53.018 59.273c-2.634 7.673-12.444 11.32-9.99 19.686 13.431 4.628 27.483-5.988 27.483-21.25 0-13.8-12.57-23.756-15.378-26.99Z" fill="#E03597"/><path fill-rule="evenodd" clip-rule="evenodd" d="M58.397 12.307c-8.093 9.12-4.485 11.385 2.783 19.356.694-7.159-7.945-11.156-2.783-19.356Z" fill="#F17300"/></svg>