<svg width="256" height="256" viewBox="0 0 256 256" fill="none" xmlns="http://www.w3.org/2000/svg"><circle cx="128" cy="128" r="123" stroke="#FCBB4B" stroke-width="10"/><path d="M125.95 85.526v-.75c.1-.52-.13-.76-.65-.74-.69.02-1.37.05-2.06.07-1.02.11-1.39-.32-1.27-1.35.09-.73 0-1.48-.02-2.23-.04-.73-.57-.44-.96-.46h-.5l-1.25.02c-1.02.12-1.4-.31-1.27-1.34.08-.65-.01-1.32-.02-1.98.1-.52-.11-.77-.64-.75-.68.03-1.37.05-2.05.08-.99.1-1.36-.28-1.31-1.32.09-1.93.04-3.86.04-5.8 0-.51.04-1.05-.75-.92-.75 0-1.5.01-2.25.02-.68.03-1.03-.16-1.02-.98a932 932 0 0 0 0-13.99c0-.86.23-1.14 1.12-1.12 2.93.05 2.92.02 2.89-2.9-.01-1.42.03-2.83 0-4.25-.02-.67.25-.85.88-.85.99 0 2.24.46 2.9-.17.67-.63.21-1.9.21-2.88 0-.82.34-.95 1.05-.95.94.01 2.15.43 2.76-.19.62-.62.21-1.82.19-2.77-.02-.83.26-1.05 1.07-1.05 2.91.01 2.94-.02 2.93-2.84 0-.84.19-1.15 1.1-1.15 2.89 0 2.94-.03 2.9 2.8-.02 1.02.32 1.35 1.28 1.23.49-.06 1-.04 1.5-.05 1.62-.26 1.18.96 1.29 1.79-.16 1.18-.34 2.33 1.5 2.18.38-.03.8.07 1.2.03 1.61-.26 1.18.96 1.29 1.79-.11 2.16-.08 2.2 2.09 2.25.29 0 .58-.03.87-.04.78-.07 1.12.26 1.01 1.07-.05.4.01.82.03 1.23-.01 1.37.02 2.74-.06 4.11-.06.92.09 1.43 1.18 1.51.61.05 1.22.11 1.84.08.78-.07 1.12.26 1.01 1.07-.05.4.01.82.03 1.23-.01 3.99-.03 7.99-.04 11.98 0 1.59-.09 1.68-1.75 1.76-1.5.073-2.25.856-2.25 2.35 0 1.54-.04 3.08.02 4.62.03.84-.28 1.05-1.07 1.05-.94 0-2.14-.45-2.75.22-.59.65-.19 1.83-.18 2.78.01.76-.23 1-.99 1-.98 0-2.27-.49-2.84.25-.47.61-.21 1.84-.17 2.79.04.82-.33.95-1.04.96-.94 0-2.14-.44-2.76.2-.62.63-.22 1.83-.19 2.77.03.95-.4 1.27-1.25 1.26h-.37c-1.554.013-2.367-.737-2.44-2.25v-.5l-.01.02ZM149.95 149.256c-.09-.98.29-1.24 1.32-1.3 1.83-.12 3.65.19 5.47 0 .93.21 1.39-.08 1.26-1.12-.07-.52-.04-1.06-.05-1.59-.09-1 .3-1.3 1.34-1.28 3.23.07 6.47 0 9.7-.01 1.35-.16.91.89 1.04 1.54-.01.08-.03.16-.03.25-.08 2.45.25 2.77 2.65 2.15 1.05-.27 1.35.03 1.35 1.03-.02 3.36-.04 6.72.01 10.08.01.87-.33 1.01-1.09 1.01-2.92.02-2.93.04-2.92 3 0 1.24.03 2.49.04 3.73.08.96-.25 1.42-1.31 1.27-.68-.1-1.39 0-2.08-.02-.58-.02-.71.26-.61.75v1.75c.21 1.36-.48 1.67-1.67 1.51-.6-.08-1.22 0-1.84-.01-.34 0-.55.11-.49.5 0 .83-.18 1.71.03 2.48.24.92-.16 1.02-.82 1.03-1.58.03-3.16.04-4.74.05-.44-.02-.89 0-1.33-.07-1.02-.14-1.32.32-1.12 1.25-.01.41-.07.82-.03 1.23.14 1.53.15 1.54-1.45 1.57-1.35.02-2.71.02-4.06.02-.44-.02-.89 0-1.33-.07-1.02-.14-1.32.32-1.12 1.25-.01.41-.07.83-.03 1.23.14 1.53.15 1.55-1.47 1.56-2.51.03-5.03.02-7.54.03-.61-.03-1.22-.02-1.82-.09-1.01-.12-1.34.31-1.14 1.26v1c-.06 1.166-.67 1.75-1.83 1.75-.74 0-1.48 0-2.23-.01l.02.02c-.11-.5.21-1.07-.23-1.52.29-.5.28-.97-.01-1.48-.19-.32-.5-.7 0-1.06.14.01.21-.05.19-.19.01-7.11.04-14.23.02-21.34 0-.84-.17-1.67.28-2.45.78.01 1.57-.04 2.34.06 1.24.15 1.64-.36 1.37-1.52.01-.45.15-.95 0-1.35-.45-1.23.31-1.18 1.11-1.18 1.97 0 3.95 0 5.92-.01.53.05 1.13.19.96-.71.01-.16.03-.33.04-.49.033-1.867 1.003-2.79 2.91-2.77 1.28 0 2.56-.02 3.84-.03.93.21 1.39-.08 1.26-1.12-.07-.52-.04-1.06-.05-1.59l-.03.02ZM106.25 180.046c-1.41-.02-2.82-.04-4.23-.07l-.06-.74v-2.76c-.04-.57-.48-.48-.84-.48-.79 0-1.58.02-2.36.04-1.18 0-2.37.01-3.55 0-.43 0-.91.15-1.24-.29v-.5c.12-.36-.04-.68-.18-.99.26-.16.2-.42.22-.66.053-1.06-.44-1.59-1.48-1.59-.62 0-1.24-.03-1.86 0-.6.04-.68-.31-.7-.76v-1.5c.06-1.167-.497-1.75-1.67-1.75-1.48 0-2.26-.667-2.34-2v-5.25c.12-.64-.26-.75-.78-.75-1.06 0-2.11-.02-3.17-.03 0-3.65 0-7.3-.01-10.94 0-.55-.07-1.12.75-1.09.42 0 .83.01 1.25.02h1c.53.05 1.13.19.96-.71-.71-1.03.17-2.01.16-3.03 0-.42.78-.25 1.21-.25 3.31-.02 6.61-.02 9.92-.02.25.03.49.05.74.08 0 1.11 0 2.22.02 3.33 0 .24-.13.6.38.57 1.53-.1 3.07.24 4.61.04h.75c.5 0 1 0 1.5-.01.25.03.5.05.74.08 0 1.07 0 2.14.02 3.21 0 .29-.15.73.38.74 1.29.01 2.57 0 3.86 0H112c.33 0 .67 0 1-.01.34.13.79-.09 1.05.3-.02.45-.05.91-.05 1.36-.01 2.38-.01 2.38 2.42 2.39 1.53 0 3.05-.03 4.58-.04 1.35-.16.91.89 1.04 1.55-.087 1.673.697 2.507 2.35 2.5.29 0 .57-.03.86-.04.43.03.81.09.77.69-.03.45.02.9.03 1.35v24.74c-.02.42-.04.84-.05 1.26l.02-.02c-.46 0-.91.01-1.37.01-2.61 0-2.66 0-2.62-2.66.01-1.05-.35-1.36-1.36-1.35-3.03.05-6.07-.05-9.1.05-1.21.04-1.8-.25-1.6-1.53v-1.5c.16-.76-.15-1.04-.91-1.01-.93.05-1.87.05-2.8.07l-.01-.05ZM97.98 108.026c0 1.07 0 2.15.03 3.22 0 .29-.14.73.39.73 2.2.01 4.4.01 6.6.01.08 0 .16-.02.25-.03.25.03.49.05.74.08 0 1.07 0 2.14.02 3.22 0 .29-.13.73.4.73 2.36 0 4.73 0 7.09-.02.16.02.33.05.49.07 0 1.07.01 2.14 0 3.22 0 .53.08.67.76.69 2.17.06 4.33.09 6.49.02.25.03.49.05.74.08 0 .29.01.57.01.86-.013 2.173 1.067 3.196 3.24 3.07l.73.06.08.74c0 .33 0 .67-.01 1v20.99c0 .71 0 1.4-1.02 1.33-4.52.03-9.03.04-13.55.11-1.08.02-1.69-.24-1.51-1.44v-2.26c.03-.18-.02-.31-.2-.37l-.5-.06h-1.28c-1.52.04-3.04.02-4.55.13-1.11.08-1.63-.3-1.47-1.44v-2.26c.03-.18-.02-.31-.2-.36-.17-.02-.33-.04-.5-.07H100c-1.99-.14-3.99.41-5.98-.06l-.06-.5v-1.25c.01-.25 0-.5.05-.74.2-1.18-.25-1.68-1.47-1.52-.61.08-1.25-.02-1.87.02-.6.04-.69-.31-.71-.76v-1.5c.06-1.167-.497-1.75-1.67-1.75-1.48 0-2.26-.667-2.34-2v-3.25c.01-.46-.01-.92.05-1.37.15-1.08-.24-1.52-1.37-1.4-.86.09-1.74.01-2.61 0 0-3.69-.01-7.39-.03-11.08 0-.56.05-1 .76-.96.42 0 .83.01 1.25.02h1c.53.05 1.13.19.96-.71.16-.58-.08-1.17-.08-1.75 0-1.59.82-1.52 1.92-1.51 3.07.03 6.13-.02 9.2-.03l.98.06v-.01ZM166.03 132.756v1.5c-.06 1.167-.707 1.75-1.94 1.75-.45 0-.9.03-1.35.04-.51-.11-.78.04-.75.61.04.7.03 1.4.04 2.09-.17.45.26 1.15-.54 1.34-2.25.18-4.5-.02-6.75-.05-.56-.09-.82.13-.71.71v1.5c-.26.59.41 1.45-.54 1.84-.8.11-1.65-.14-2.4.34-.65-.55-1.36-.31-2.07-.14-.82-.39-1.68-.23-2.53-.23-.33-.03-.49.11-.46.45v1.75c-.15.76.33 1.85-1.04 1.97-.76-.19-1.5-.23-2.18.24-.02-.06-.05-.12-.07-.18l-.07.19c-.45-.41-1.01-.28-1.54-.29-3.71-.07-7.42-.13-11.14-.2 0-.08-.02-.16-.06-.23-.01-.25-.03-.5-.04-.75v-.5c.01-6.87.05-13.74.02-20.6 0-1.82-.06-1.89 1.69-1.89 1.58 0 2.37-.777 2.37-2.33 0-1.73 0-1.72 1.76-1.7 1.79.02 3.58 0 5.37.04.64.01.95-.19.87-.85v-.12c.11-.98-.46-2.31.26-2.84.66-.49 1.92-.18 2.91-.19 1.29-.01 2.58-.03 3.87.01.66.02.96-.15.98-.89.02-1.02-.5-2.4.27-2.95.7-.5 2.01-.16 3.04-.17 1.29-.01 2.58-.02 3.87 0 .59.01.82-.21.8-.8-.03-.75.04-1.5-.02-2.25-.07-.8.27-.98 1.01-.97 3.33.03 6.66.04 9.99 0 .85-.01 1.02.3 1.03 1.09 0 2.88.03 2.9 2.89 2.92.75 0 1.12.12 1.1 1.01-.06 3.66-.04 7.33-.05 10.99-.99 0-1.97.04-2.96 0-.7-.03-1.07.13-1.03.94.07 1.19.04 2.38.05 3.57v2.25c.11 1.02-.32 1.41-1.35 1.27-.65-.09-1.33 0-2-.02-.55-.02-.76.22-.65.75l.05-.02ZM145.51 112.106c-2.12.15-4.25.08-6.36-.08-.86-.06-1.16.18-1.17 1.09-.03 3.05-.06 3.05-3.1 3.07-1.25 0-2.5-.03-3.75 0-.81.01-1.18-.24-1.18-1.14.04-7.33.05-14.66.03-21.98 0-.91.33-1.1 1.17-1.08 2.81.06 2.85.03 2.83-2.81 0-.93.24-1.21 1.19-1.18 2.79.08 2.83.03 2.81-2.83 0-.95.28-1.19 1.21-1.16 2.79.08 2.85.04 2.79-2.73-.02-1.09.34-1.31 1.35-1.27 2.66.1 2.73.06 2.64-2.62-.04-1.23.42-1.45 1.49-1.4 1.87.08 3.75.03 5.62.08.71.02.92-.23.94-.93.03-1.01-.5-2.37.28-2.95.65-.48 1.92-.13 2.92-.13 2.58 0 5.16.03 7.75-.02.82-.01 1.07.24 1.06 1.06-.02.94-.45 2.14.21 2.76.64.6 1.83.2 2.78.18.74 0 1.02.19 1.01.98-.04 3.37-.04 6.74 0 10.12 0 .7-.21.98-.92.93-.7-.05-1.42.03-2.12-.02-.79-.06-.99.29-.98 1.02.04 2-.02 4 .03 6 .02.75-.19 1.01-.98 1.02-.98 0-2.23-.48-2.86.24-.56.64-.18 1.84-.15 2.79.03.81-.31.96-1.03.96-.94 0-2.14-.42-2.77.19-.63.62-.22 1.82-.2 2.76.02.83-.27 1.06-1.07 1.05-.94-.01-2.14-.46-2.75.21-.59.65-.13 1.83-.2 2.78-.03.36.12.76-.26 1.03a.282.282 0 0 0-.22.03c-2.15.16-4.3.07-6.45-.08-.82-.06-1.07.23-1.09 1.04-.03 1 .31 2.05-.24 3.01a.282.282 0 0 0-.22.03l-.04-.02ZM125.97 92.036c.03.25.05.49.08.74 0 .33 0 .67-.01 1v21.24c.1.73-.3 1.06-.94 1.21-1.81-.22-3.61.03-5.42-.02-1.66-.05-1.66-.01-1.72-1.69v-2.01c.03-.18-.02-.3-.2-.35l-.5-.07h-1.5c-.25.01-.5.03-.75.04-.25 0-.5.02-.75.03-.86.01-1.71.04-2.57.03-1.66-.02-1.66-.02-1.72-1.66.093-1.747-.643-2.557-2.21-2.43-.25.01-.5.03-.75.04l-.75.03c-.86.01-1.72.04-2.57.04-1.65 0-1.65-.02-1.72-1.67.087-1.673-.68-2.507-2.3-2.5-.21 0-.42-.02-.62.01-.81.13-1.15-.22-1.08-1.01v-1c.073-1.333-.567-2-1.92-2-.46 0-.92-.03-1.37 0-.59.05-.69-.3-.71-.76v-1.5c.06-1.167-.497-1.75-1.67-1.75-1.48 0-2.26-.667-2.34-2v-3c.02-.33.05-.66.04-.99-.02-2.28.25-1.99-1.96-2-1.95-.01-1.95 0-2.08-2.25.01-2.87.06-5.73.02-8.6-.01-.9.22-1.22 1.18-1.19 2.8.08 2.86.03 2.81-2.81-.02-1.06.4-1.22 1.31-1.21 3.24.04 6.48.02 9.72.02 1.35-.16.91.88 1.04 1.54-.087 1.667.71 2.5 2.39 2.5 1.52 0 3.04-.03 4.56-.04.34.12.78-.11 1.05.29-.02.37-.04.74-.05 1.1-.013 1.833.903 2.7 2.75 2.6.41.02.82.03 1.23.05 0 .9.08 1.81 0 2.71-.1 1.03.25 1.44 1.29 1.28.4-.06.82-.04 1.23-.05.49.02.99.03 1.48.05 0 .98.06 1.97 0 2.95-.04.81.24 1.12 1.05 1.05.65-.06 1.31-.04 1.96-.05.33.02.66.05.99.07 0 .92.07 1.84-.01 2.75-.1 1.02.31 1.35 1.27 1.24.58-.07 1.16-.04 1.75-.06l.98.06h.01Z" fill="#FCBB4B"/><path d="M127.99 187.946h1c.34.02.67.03 1.01.05l-.02-.02c.02 1 .03 2.01.05 3.01-.01 3.87-.06 7.74-.02 11.61.01 1.04-.18 1.45-1.34 1.42-2.68-.09-2.68-.02-2.68 2.65 0 1.42-.04 2.83.01 4.25.03.78-.17 1.14-1.03 1.08-.99-.07-2-.02-3-.03l.02.02-.06-4.26.03-5.71c.013-1.334.686-2.027 2.02-2.08 1.333.08 2-.537 2-1.85 0-.45-.03-.9-.05-1.35 0-2.25-.02-4.5-.03-6.75l.09-2.01-.02.02c.67-.02 1.34-.04 2.01-.05h.01Z" fill="#FCBB4B"/><path d="M121.99 211.966c0 2.36-.01 4.73.02 7.09.01.69-.2.97-.91.93-1.03-.05-2.07-.02-3.11-.02l.02.02c-.02-1.42-.04-2.84-.07-4.26.01-.7.02-1.4.04-2.1.05-1.9-.14-1.68 1.65-1.66.21 0 .41-.02.62-.02.59.02 1.17.03 1.76.05l-.02-.02v-.01Z" fill="#FCBB4B"/><path d="M116.49 219.936h.26c.42.02.84.03 1.26.05l-.02-.02c0 1.04-.03 2.08.02 3.11.04.72-.25.89-.93.92-3.21.1-3.4-.11-3.1-3.36.05-.58.33-.68.77-.71.58 0 1.16.01 1.74.02v-.01Z" fill="#FCBB4B"/></svg>