<svg width="100" height="100" fill="none" xmlns="http://www.w3.org/2000/svg"><g clip-path="url(#a)"><circle cx="50" cy="50" r="50" fill="#04081A"/><g clip-path="url(#b)"><path opacity=".9" d="M27.237 62.4v16.123c0 .992.843 1.404 1.105 1.498a1.806 1.806 0 0 0 1.929-.375l13.801-13.22c1.273-1.648 1.742-2.678 1.742-2.678.749-1.517.749-2.978.018-4.439-1.086-2.172-3.857-4.381-8.033-6.479l-7.135 3.97c-2.116 1.199-3.427 3.315-3.427 5.6Z" fill="#A9D6FF"/><path d="M20.085 26.54v16.91c0 2.116 1.424 3.989 3.446 4.588 6.891 1.985 18.895 6.255 21.797 12.528.375.824.6 1.63.674 2.472 1.93-3.502 2.81-7.528 2.397-11.61a19.922 19.922 0 0 0-8.427-14.401L22.875 25.098a1.683 1.683 0 0 0-1.01-.337 1.7 1.7 0 0 0-.843.206 1.805 1.805 0 0 0-.937 1.573Z" fill="url(#c)"/><path opacity=".9" d="M72.75 62.4v16.123c0 .992-.842 1.404-1.105 1.498a1.806 1.806 0 0 1-1.928-.375l-13.801-13.22c-1.274-1.648-1.742-2.678-1.742-2.678-.75-1.517-.75-2.978-.019-4.439 1.086-2.172 3.858-4.381 8.034-6.479l7.134 3.97c2.135 1.199 3.427 3.315 3.427 5.6Z" fill="#A9D6FF"/><path d="M79.915 26.538v16.91c0 2.116-1.424 3.99-3.446 4.588-6.891 1.985-18.895 6.255-21.798 12.528-.374.824-.599 1.63-.674 2.472-1.928-3.502-2.809-7.528-2.397-11.61a19.923 19.923 0 0 1 8.427-14.4l17.097-11.93c.3-.224.656-.337 1.012-.337.3 0 .561.057.842.206.562.319.937.9.937 1.573Z" fill="url(#d)"/></g></g><defs><linearGradient id="c" x1="49.411" y1="62.792" x2="20.085" y2="62.792" gradientUnits="userSpaceOnUse"><stop offset=".068" stop-color="#EFFDFF"/><stop offset="1" stop-color="#A9D6FF"/></linearGradient><linearGradient id="d" x1="51.58" y1="62.79" x2="79.69" y2="62.79" gradientUnits="userSpaceOnUse"><stop offset=".068" stop-color="#EFFDFF"/><stop offset="1" stop-color="#A9D6FF"/></linearGradient><clipPath id="a"><path fill="#fff" d="M0 0h100v100H0z"/></clipPath><clipPath id="b"><path fill="#fff" d="M10.737 19.15h78.526v61.7H10.737z"/></clipPath></defs></svg>