<svg xmlns="http://www.w3.org/2000/svg" fill="none" viewBox="0 0 101 101"><rect width="100" height="100" x=".5" y=".5" fill="url(#a)" rx="50"/><path fill="url(#b)" fill-rule="evenodd" d="M73.235 27.765H32.201v-9.982h41.034c5.513 0 9.981 4.469 9.981 9.982h-9.98Zm0 4.436v51.015c5.513 0 9.981-4.468 9.981-9.98V32.2h-9.98Zm-45.47 41.034h41.034v9.981H27.764c-5.512 0-9.98-4.468-9.98-9.98h9.98Zm0-55.452V68.8h-9.982V27.764c0-5.512 4.469-9.98 9.982-9.98Z" clip-rule="evenodd"/><path fill="url(#c)" fill-rule="evenodd" d="M48.871 37.746c-.632 0-1.145.512-1.145 1.145v7.727H40c-.632 0-1.145.513-1.145 1.145v4.364c0 .632.513 1.145 1.145 1.145h7.727V61c0 .633.513 1.145 1.145 1.145h4.364c.633 0 1.145-.512 1.145-1.145v-7.727h7.728c.632 0 1.145-.513 1.145-1.145v-4.364c0-.632-.513-1.145-1.145-1.145H54.38v-7.727c0-.633-.513-1.145-1.146-1.145h-4.364Z" clip-rule="evenodd"/><defs><linearGradient id="a" x1=".68" x2="97.982" y1="51.222" y2="51.222" gradientUnits="userSpaceOnUse"><stop stop-color="#082A71"/><stop offset="1" stop-color="#101B37"/></linearGradient><linearGradient id="b" x1="17.783" x2="84.62" y1="17.783" y2="19.25" gradientUnits="userSpaceOnUse"><stop stop-color="#28A0F0"/><stop offset="1" stop-color="#0678C4" stop-opacity=".992"/></linearGradient><linearGradient id="c" x1="38.854" x2="63.776" y1="37.746" y2="38.293" gradientUnits="userSpaceOnUse"><stop stop-color="#28A0F0"/><stop offset="1" stop-color="#0678C4" stop-opacity=".992"/></linearGradient></defs></svg>
