<svg width="100" height="100" fill="none" xmlns="http://www.w3.org/2000/svg"><g clip-path="url(#a)"><path d="M100 46.5v7.25c-.325 2.05-.6 4.1-1 6.125-3.65 19.075-19.075 34.85-38.025 38.9-2.375.5-4.825.825-7.225 1.225h-7.5c-2.05-.325-4.1-.6-6.125-1-19.075-3.625-34.85-19.075-38.9-38.025C.725 58.6.4 56.15 0 53.75V46.5c.35-2.175.6-4.35 1.025-6.5 3.6-18.9 19.175-34.775 38-38.725C41.575.75 44.175.425 46.75 0h6.5c2.225.35 4.45.6 6.625 1.025 19 3.6 34.85 19.075 38.875 38C99.275 41.5 99.6 44 100 46.5ZM52.075 67.675h4.65v-4.25h4.525v-4.5h8.7V41.05h-4.475v-4.6H61.2v-4.125H38.675v4.325H34.3v4.4h-4.2v17.7h4.35v8.9h4.6v-4.575h4.2v4.575h4.4v-4.4h4.425v4.425Z" fill="#000"/><path d="M52.075 67.675V63.25H47.65v4.4h-4.4v-4.575h-4.2v4.575h-4.6v-8.9H30.1v-17.7h4.2v-4.4h4.375v-4.325H61.2v4.125h4.275v4.6h4.475v17.875h-8.7v4.5h-4.525v4.25h-4.65ZM38.9 50.1h-4.575v4.275H38.9V50.1Zm8.825-.025v4.3H52.3v-4.3h-4.575Z" fill="#fff"/><path d="M38.9 50.1v4.275h-4.575V50.1H38.9ZM47.725 50.075H52.3v4.3h-4.575v-4.3Z" fill="#000"/></g><defs><clipPath id="a"><path fill="#fff" d="M0 0h100v100H0z"/></clipPath></defs></svg>