<svg width="197" height="196" viewBox="0 0 197 196" fill="none" xmlns="http://www.w3.org/2000/svg">
<path d="M80.7774 32.4102L93.1231 16.6835L107.371 30.6197L124.858 20.7782L132.61 39.1001L152.524 36.6333L152.628 56.5561L171.953 61.8241L164.363 80.3115L180.18 92.5271L166.078 106.752L175.949 124.057L157.47 131.878L159.917 151.622L139.852 151.842L134.481 171.035L115.926 163.588L103.581 179.315L89.3332 165.379L71.8881 175.209L64.094 156.898L44.2216 159.354L44.1174 139.431L24.7926 134.163L32.3406 115.687L16.5658 103.46L30.6676 89.2354L20.7964 71.9297L39.2341 64.12L36.8287 44.3656L56.8517 44.1562L62.2224 24.9633L80.7774 32.4102Z" fill="#FF0420"/>
<path d="M84.2655 44.6767L94.2878 31.9098L105.854 43.2232L120.05 35.2339L126.343 50.1076L142.51 48.1051L142.594 64.2784L158.282 68.5549L152.121 83.563L164.961 93.4796L153.513 105.027L161.526 119.076L146.524 125.425L148.511 141.453L132.222 141.632L127.863 157.212L112.8 151.167L102.777 163.934L91.2112 152.621L77.0492 160.601L70.722 145.736L54.5896 147.73L54.505 131.556L38.8171 127.28L44.9446 112.281L32.1385 102.355L43.5864 90.8074L35.573 76.7587L50.5407 70.4188L48.588 54.3821L64.8427 54.2121L69.2026 38.6313L84.2655 44.6767Z" fill="#FFF2AF"/>
<path d="M87.7642 57.1637L95.3901 47.4493L104.191 56.0577L114.993 49.9787L119.781 61.296L132.082 59.7723L132.146 72.0786L144.083 75.3326L139.395 86.7523L149.165 94.2978L140.454 103.084L146.552 113.774L135.137 118.605L136.649 130.8L124.255 130.937L120.937 142.792L109.476 138.192L101.85 147.906L93.0491 139.298L82.2733 145.37L77.4589 134.06L65.1838 135.577L65.1194 123.27L53.1825 120.016L57.8449 108.604L48.1008 101.051L56.8115 92.2645L50.7141 81.5748L62.103 76.7508L60.6172 64.5485L72.9854 64.4192L76.3028 52.5638L87.7642 57.1637Z" fill="#69D7FF"/>
</svg>
