<svg width="100" height="100" fill="none" xmlns="http://www.w3.org/2000/svg"><g clip-path="url(#a)"><g clip-path="url(#b)"><path d="M50 100c27.614 0 50-22.386 50-50S77.614 0 50 0 0 22.386 0 50s22.386 50 50 50Z" fill="#0E4DF0"/><path fill-rule="evenodd" clip-rule="evenodd" d="m29.146 19.633-3.934 4.009 9.6 9.779 9.6 9.78v18.205H55.6V43.2l9.576-9.755 9.576-9.756-3.958-4.029-3.959-4.03-8.363 8.497c-4.6 4.674-8.409 8.497-8.464 8.497-.056 0-3.87-3.825-8.476-8.5-4.607-4.674-8.393-8.499-8.414-8.499-.02 0-1.808 1.804-3.972 4.008Zm-4.435 23.494c-1.252 2.693-1.977 5.014-2.444 7.822a29.185 29.185 0 0 0 5.8 22.724c.83 1.06 3.269 3.544 4.303 4.381 4.655 3.766 9.954 5.852 15.898 6.26 3.555.243 7.11-.232 10.603-1.417 10.093-3.425 17.38-12.264 18.957-22.993.606-4.129.28-8.546-.935-12.619-.483-1.62-1.461-4.046-1.972-4.892l-.196-.323-4.256 4.332c-3.433 3.494-4.246 4.369-4.202 4.525.35 1.252.537 2.554.587 4.105.097 3.004-.37 5.432-1.531 7.968-2.257 4.93-6.661 8.448-12.046 9.624-.935.204-1.279.227-3.319.224-2.002-.003-2.395-.03-3.27-.222-5.34-1.176-9.538-4.502-11.907-9.433-1.07-2.229-1.555-4.291-1.628-6.93-.053-1.908.05-3.061.408-4.563l.23-.966-4.241-4.322c-2.334-2.378-4.268-4.323-4.3-4.323-.03 0-.273.467-.539 1.038Z" fill="#fff"/></g></g><defs><clipPath id="a"><path fill="#fff" d="M0 0h100v100H0z"/></clipPath><clipPath id="b"><path fill="#fff" d="M0 0h100v100H0z"/></clipPath></defs></svg>