<svg width="32" height="32" fill="none" xmlns="http://www.w3.org/2000/svg"><path d="M16 32c8.837 0 16-7.163 16-16S24.837 0 16 0 0 7.163 0 16s7.163 16 16 16Z" fill="url(#a)"/><path d="M16 32c8.837 0 16-7.163 16-16a15.95 15.95 0 0 0-4.697-11.324L4.676 27.303A15.95 15.95 0 0 0 16 32Z" fill="url(#b)"/><path fill-rule="evenodd" clip-rule="evenodd" d="M21.65 10.387a1.48 1.48 0 0 1 0 2.092l-9.249 9.25a1.48 1.48 0 1 1-2.092-2.092l9.25-9.25a1.48 1.48 0 0 1 2.092 0Z" fill="#fff"/><path opacity=".5" fill-rule="evenodd" clip-rule="evenodd" d="M25.29 6.65c.461.462.461 1.21 0 1.672l-.795.794a1.182 1.182 0 1 1-1.672-1.672l.794-.794a1.182 1.182 0 0 1 1.672 0Z" fill="#fff"/><path opacity=".3" fill-rule="evenodd" clip-rule="evenodd" d="M20.977 4.552c.41.41.41 1.075 0 1.486L17.514 9.5a1.05 1.05 0 0 1-1.486-1.486l3.463-3.462a1.05 1.05 0 0 1 1.486 0Z" fill="#fff"/><path fill-rule="evenodd" clip-rule="evenodd" d="M14.183 11.263c.579.579.579 1.518 0 2.097L12.4 15.143a1.483 1.483 0 1 1-2.097-2.098l1.782-1.782c.58-.58 1.518-.58 2.098 0Z" fill="#fff"/><path d="m10.272 15.11.03.032c.58.58 1.519.58 2.098 0l1.783-1.782a1.483 1.483 0 0 0-.032-2.128l-3.879 3.879Z" fill="url(#c)"/><path opacity=".3" fill-rule="evenodd" clip-rule="evenodd" d="M8.867 16.67a.988.988 0 0 1 0 1.397l-3.058 3.058a.988.988 0 1 1-1.397-1.398L7.47 16.67a.988.988 0 0 1 1.397 0Z" fill="#fff"/><path opacity=".2" fill-rule="evenodd" clip-rule="evenodd" d="M15.48 3.976a.735.735 0 0 1 0 1.04L13.014 7.48a.735.735 0 0 1-1.04-1.04l2.465-2.464a.735.735 0 0 1 1.04 0ZM10.551 8.968a.735.735 0 0 1 0 1.04l-5.728 5.728a.735.735 0 1 1-1.04-1.04l5.73-5.728a.735.735 0 0 1 1.038 0Z" fill="#fff"/><path opacity=".1" fill-rule="evenodd" clip-rule="evenodd" d="M9.24 5.485a.498.498 0 0 1 0 .704L6.782 8.645a.498.498 0 1 1-.704-.704l2.456-2.456a.498.498 0 0 1 .704 0Z" fill="#fff"/><path opacity=".5" fill-rule="evenodd" clip-rule="evenodd" d="M6.66 25.469a1.182 1.182 0 0 1 0-1.672l.795-.795a1.182 1.182 0 1 1 1.672 1.672l-.795.795a1.182 1.182 0 0 1-1.672 0Z" fill="#fff"/><path opacity=".3" fill-rule="evenodd" clip-rule="evenodd" d="M10.973 27.567a1.05 1.05 0 0 1 0-1.486l3.462-3.462a1.051 1.051 0 0 1 1.486 1.486l-3.462 3.462a1.05 1.05 0 0 1-1.486 0Z" fill="#fff"/><path fill-rule="evenodd" clip-rule="evenodd" d="M17.767 20.856a1.483 1.483 0 0 1 0-2.097l1.782-1.783a1.483 1.483 0 1 1 2.098 2.097l-1.783 1.783c-.58.58-1.518.58-2.097 0Z" fill="#fff"/><path d="m17.71 20.796.057.06c.579.58 1.518.58 2.097 0l1.783-1.783a1.483 1.483 0 0 0-.06-2.153l-3.877 3.876Z" fill="url(#d)"/><path opacity=".3" fill-rule="evenodd" clip-rule="evenodd" d="M23.083 15.449a.988.988 0 0 1 0-1.397l3.057-3.058a.988.988 0 0 1 1.397 1.398l-3.057 3.057a.988.988 0 0 1-1.397 0Z" fill="#fff"/><path opacity=".2" fill-rule="evenodd" clip-rule="evenodd" d="M16.47 28.143a.735.735 0 0 1 0-1.04l2.464-2.464a.735.735 0 0 1 1.04 1.04l-2.465 2.464a.735.735 0 0 1-1.04 0ZM21.398 23.151a.735.735 0 0 1 0-1.04l5.729-5.728a.735.735 0 1 1 1.039 1.04l-5.729 5.728a.735.735 0 0 1-1.04 0Z" fill="#fff"/><path opacity=".1" fill-rule="evenodd" clip-rule="evenodd" d="M22.71 26.633a.498.498 0 0 1 0-.704l2.456-2.456a.498.498 0 0 1 .704.704l-2.456 2.456a.498.498 0 0 1-.704 0Z" fill="#ECE8FA"/><path d="m10.28 21.698.029.03a1.48 1.48 0 0 0 2.092 0l9.25-9.25a1.48 1.48 0 0 0-.03-2.12L10.28 21.697Z" fill="url(#e)"/><defs><linearGradient id="a" x1="0" y1="0" x2="36.727" y2="6.922" gradientUnits="userSpaceOnUse"><stop stop-color="#D506D6"/><stop offset="1" stop-color="#6B57B8"/></linearGradient><linearGradient id="b" x1="17.088" y1="4.672" x2="17.088" y2="32" gradientUnits="userSpaceOnUse"><stop stop-color="#5C2F97"/><stop offset="1" stop-color="#5C2F97" stop-opacity="0"/></linearGradient><linearGradient id="c" x1="12.444" y1="11.232" x2="12.444" y2="15.598" gradientUnits="userSpaceOnUse"><stop stop-color="#E8EAEE"/><stop offset="1" stop-color="#E8EAEE" stop-opacity="0"/></linearGradient><linearGradient id="d" x1="19.896" y1="16.92" x2="19.896" y2="21.312" gradientUnits="userSpaceOnUse"><stop stop-color="#E8EAEE"/><stop offset="1" stop-color="#E8EAEE" stop-opacity="0"/></linearGradient><linearGradient id="e" x1="16.182" y1="10.357" x2="16.182" y2="23.52" gradientUnits="userSpaceOnUse"><stop stop-color="#E8EAEE"/><stop offset="1" stop-color="#E8EAEE" stop-opacity="0"/></linearGradient></defs></svg>