<svg width="21" height="21" viewBox="0 0 21 21" fill="none" xmlns="http://www.w3.org/2000/svg">
<path d="M5.71493 6.39606H14.8816" stroke="white" stroke-width="1.25" stroke-linecap="round" stroke-linejoin="round"/>
<path d="M5.29825 17.2294V15.5627C5.29825 14.2367 5.82503 12.9649 6.76271 12.0272C7.7004 11.0895 8.97217 10.5627 10.2982 10.5627C11.6243 10.5627 12.8961 11.0895 13.8338 12.0272C14.7715 12.9649 15.2982 14.2367 15.2982 15.5627V17.2294C15.2982 17.4504 15.2105 17.6624 15.0542 17.8187C14.8979 17.9749 14.6859 18.0627 14.4649 18.0627H6.13158C5.91057 18.0627 5.69861 17.9749 5.54233 17.8187C5.38605 17.6624 5.29825 17.4504 5.29825 17.2294Z" stroke="white" stroke-width="1.25" stroke-linecap="round" stroke-linejoin="round"/>
<path d="M5.29825 3.89608V5.56274C5.29825 6.88883 5.82503 8.1606 6.76271 9.09828C7.7004 10.036 8.97217 10.5627 10.2982 10.5627C11.6243 10.5627 12.8961 10.036 13.8338 9.09828C14.7715 8.1606 15.2982 6.88883 15.2982 5.56274V3.89608C15.2982 3.67506 15.2105 3.4631 15.0542 3.30682C14.8979 3.15054 14.6859 3.06274 14.4649 3.06274H6.13158C5.91057 3.06274 5.69861 3.15054 5.54233 3.30682C5.38605 3.4631 5.29825 3.67506 5.29825 3.89608Z" stroke="white" stroke-width="1.25" stroke-linecap="round" stroke-linejoin="round"/>
</svg>
