<svg width="20" height="19" viewBox="0 0 20 19" fill="none" xmlns="http://www.w3.org/2000/svg">
<path d="M15.2009 8.72217H4.26343C3.40048 8.72217 2.70093 9.42172 2.70093 10.2847V15.7534C2.70093 16.6164 3.40048 17.3159 4.26343 17.3159H15.2009C16.0639 17.3159 16.7634 16.6164 16.7634 15.7534V10.2847C16.7634 9.42172 16.0639 8.72217 15.2009 8.72217Z" stroke="black" stroke-width="1.17188" stroke-linecap="round" stroke-linejoin="round"/>
<path d="M5.82593 8.72217V5.59717C5.82593 4.56117 6.23748 3.5676 6.97004 2.83503C7.70261 2.10247 8.69618 1.69092 9.73218 1.69092C10.7682 1.69092 11.7617 2.10247 12.4943 2.83503C13.2269 3.5676 13.6384 4.56117 13.6384 5.59717V8.72217" stroke="black" stroke-width="1.17188" stroke-linecap="round" stroke-linejoin="round"/>
</svg>
