<svg width="24" height="24" fill="none" xmlns="http://www.w3.org/2000/svg"><g clip-path="url(#a)"><path d="m19.496 13.983 1.966 3.406a1 1 0 0 1-.705 1.488l-.113.01h-.112l-2.933-.19-1.303 2.636a1.001 1.001 0 0 1-1.608.26l-.082-.094-.072-.11-1.968-3.407a8.995 8.995 0 0 0 6.93-4Z" fill="url(#b)"/><path d="M11.43 17.982 9.464 21.39a1 1 0 0 1-1.622.157l-.076-.1-.064-.114-1.304-2.635-2.93.19a1.001 1.001 0 0 1-1.023-1.29l.04-.107.05-.1 1.968-3.41a8.994 8.994 0 0 0 6.927 4Z" fill="url(#c)"/><path d="m12 2 .24.004A7 7 0 0 1 19 9l-.003.193-.007.192-.018.245-.026.242-.024.178a6.982 6.982 0 0 1-.317 1.268l-.116.308-.153.348a7 7 0 0 1-12.688-.028l-.13-.297-.052-.133-.08-.217-.095-.294a6.988 6.988 0 0 1-.093-.344l-.06-.271-.049-.271-.02-.139-.039-.323-.024-.365L5 9a7 7 0 0 1 6.76-6.996L12 2Z" fill="url(#d)"/></g><defs><linearGradient id="b" x1="25.625" y1="6.375" x2="9.871" y2="20.035" gradientUnits="userSpaceOnUse"><stop stop-color="#F0F"/><stop offset="1" stop-color="#FFD500"/></linearGradient><linearGradient id="c" x1="15.625" y1="3.75" x2=".046" y2="20.005" gradientUnits="userSpaceOnUse"><stop stop-color="#F0F"/><stop offset="1" stop-color="#FFD500"/></linearGradient><linearGradient id="d" x1="30.5" y1="-14.5" x2="-2" y2="9" gradientUnits="userSpaceOnUse"><stop stop-color="#F0F"/><stop offset="1" stop-color="#FFD500"/></linearGradient><clipPath id="a"><path fill="#fff" d="M0 0h24v24H0z"/></clipPath></defs></svg>