<svg width="21" height="21" viewBox="0 0 21 21" fill="none" xmlns="http://www.w3.org/2000/svg">
<path d="M6.96493 18.0627H13.6316" stroke="white" stroke-width="1.25" stroke-linecap="round" stroke-linejoin="round"/>
<path d="M10.2982 14.7294V18.0627" stroke="white" stroke-width="1.25" stroke-linecap="round" stroke-linejoin="round"/>
<path d="M6.13157 3.89612H14.4649" stroke="white" stroke-width="1.25" stroke-linecap="round" stroke-linejoin="round"/>
<path d="M14.4649 3.89612V10.5628C14.4649 11.6679 14.0259 12.7277 13.2445 13.5091C12.4631 14.2905 11.4033 14.7295 10.2982 14.7295C9.19317 14.7295 8.13336 14.2905 7.35196 13.5091C6.57056 12.7277 6.13157 11.6679 6.13157 10.5628V3.89612" stroke="white" stroke-width="1.25" stroke-linecap="round" stroke-linejoin="round"/>
<path d="M2.79825 8.06278C2.79825 8.50481 2.97384 8.92873 3.2864 9.2413C3.59896 9.55386 4.02289 9.72945 4.46491 9.72945C4.90694 9.72945 5.33087 9.55386 5.64343 9.2413C5.95599 8.92873 6.13158 8.50481 6.13158 8.06278C6.13158 7.62076 5.95599 7.19683 5.64343 6.88427C5.33087 6.57171 4.90694 6.39612 4.46491 6.39612C4.02289 6.39612 3.59896 6.57171 3.2864 6.88427C2.97384 7.19683 2.79825 7.62076 2.79825 8.06278Z" stroke="white" stroke-width="1.25" stroke-linecap="round" stroke-linejoin="round"/>
<path d="M14.4649 8.06278C14.4649 8.50481 14.6405 8.92873 14.9531 9.2413C15.2656 9.55386 15.6896 9.72945 16.1316 9.72945C16.5736 9.72945 16.9975 9.55386 17.3101 9.2413C17.6227 8.92873 17.7983 8.50481 17.7983 8.06278C17.7983 7.62076 17.6227 7.19683 17.3101 6.88427C16.9975 6.57171 16.5736 6.39612 16.1316 6.39612C15.6896 6.39612 15.2656 6.57171 14.9531 6.88427C14.6405 7.19683 14.4649 7.62076 14.4649 8.06278Z" stroke="white" stroke-width="1.25" stroke-linecap="round" stroke-linejoin="round"/>
</svg>
