<svg width="21" height="21" viewBox="0 0 21 21" fill="none" xmlns="http://www.w3.org/2000/svg">
<path d="M8.6316 3.22942C7.32802 3.53162 6.12903 4.17708 5.159 5.09886C4.18897 6.02064 3.48322 7.18517 3.11496 8.47165C2.7467 9.75813 2.72933 11.1197 3.06467 12.4152C3.40001 13.7106 4.07584 14.8927 5.02205 15.839C5.96827 16.7852 7.15041 17.461 8.44586 17.7963C9.74131 18.1317 11.1029 18.1143 12.3894 17.7461C13.6758 17.3778 14.8404 16.672 15.7622 15.702C16.6839 14.732 17.3294 13.533 17.6316 12.2294C17.6316 12.0084 17.5438 11.7964 17.3875 11.6402C17.2312 11.4839 17.0193 11.3961 16.7983 11.3961H11.1316C10.6896 11.3961 10.2656 11.2205 9.95309 10.9079C9.64053 10.5954 9.46493 10.1714 9.46493 9.72942V3.89608C9.45458 3.79735 9.42473 3.70166 9.37711 3.61456C9.3295 3.52745 9.26506 3.45067 9.18754 3.38865C9.11003 3.32664 9.02097 3.28063 8.92553 3.2533C8.8301 3.22596 8.73019 3.21785 8.6316 3.22942Z" stroke="white" stroke-width="1.25" stroke-linecap="round" stroke-linejoin="round"/>
<path d="M12.7982 3.47943C13.8563 3.852 14.8174 4.45718 15.6106 5.2504C16.4038 6.04361 17.009 7.00466 17.3816 8.06276H13.6316C13.4106 8.06276 13.1986 7.97497 13.0423 7.81869C12.886 7.66241 12.7982 7.45044 12.7982 7.22943V3.47943Z" stroke="white" stroke-width="1.25" stroke-linecap="round" stroke-linejoin="round"/>
</svg>
