<svg width="36" height="36" fill="none" xmlns="http://www.w3.org/2000/svg"><circle cx="18" cy="18" r="18" fill="url(#a)"/><g clip-path="url(#b)" stroke="#fff" stroke-width="2" stroke-linecap="round" stroke-linejoin="round"><path d="M18 28.5c5.799 0 10.5-4.701 10.5-10.5S23.799 7.5 18 7.5 7.5 12.201 7.5 18 12.201 28.5 18 28.5Z"/><path d="M21.267 14.5a2.333 2.333 0 0 0-2.1-1.167h-2.334a2.333 2.333 0 1 0 0 4.667h2.334a2.334 2.334 0 0 1 0 4.667h-2.334a2.334 2.334 0 0 1-2.1-1.167M18 12.167v11.666"/></g><defs><linearGradient id="a" x1="27" y1="0" x2="2.5" y2="29.5" gradientUnits="userSpaceOnUse"><stop stop-color="#F0F"/><stop offset="1" stop-color="#0EA5E9"/></linearGradient><clipPath id="b"><path fill="#fff" transform="translate(4 4)" d="M0 0h28v28H0z"/></clipPath></defs></svg>