<svg width="20" height="21" viewBox="0 0 20 21" fill="none" xmlns="http://www.w3.org/2000/svg">
<path d="M10 2.34131L14.7167 7.05798C15.6495 7.99015 16.2848 9.17803 16.5424 10.4714C16.8 11.7647 16.6682 13.1053 16.1638 14.3238C15.6593 15.5422 14.8048 16.5837 13.7084 17.3164C12.612 18.0491 11.3229 18.4402 10.0042 18.4402C8.68544 18.4402 7.39633 18.0491 6.29991 17.3164C5.20349 16.5837 4.349 15.5422 3.84455 14.3238C3.34009 13.1053 3.20833 11.7647 3.46591 10.4714C3.7235 9.17803 4.35888 7.99015 5.29166 7.05798L10 2.34131Z" stroke="#9CA3AF" stroke-width="1.5" stroke-linecap="round" stroke-linejoin="round"/>
<path d="M7.50415 11.3906H12.5042" stroke="#9CA3AF" stroke-width="1.5" stroke-linecap="round" stroke-linejoin="round"/>
<path d="M10.0042 8.89062V13.8906" stroke="#9CA3AF" stroke-width="1.5" stroke-linecap="round" stroke-linejoin="round"/>
</svg>
