<svg width="19" height="19" viewBox="0 0 19 19" fill="none" xmlns="http://www.w3.org/2000/svg">
<g clip-path="url(#clip0_1135_8374)">
<path d="M1.39987 9.49862C1.39987 10.5623 1.60938 11.6156 2.01645 12.5984C2.42351 13.5811 3.02015 14.474 3.77231 15.2262C4.52446 15.9783 5.4174 16.575 6.40014 16.982C7.38287 17.3891 8.43616 17.5986 9.49987 17.5986C10.5636 17.5986 11.6169 17.3891 12.5996 16.982C13.5823 16.575 14.4753 15.9783 15.2274 15.2262C15.9796 14.474 16.5762 13.5811 16.9833 12.5984C17.3904 11.6156 17.5999 10.5623 17.5999 9.49862C17.5999 8.43491 17.3904 7.38162 16.9833 6.39888C16.5762 5.41615 15.9796 4.52321 15.2274 3.77106C14.4753 3.0189 13.5823 2.42226 12.5996 2.0152C11.6169 1.60813 10.5636 1.39862 9.49987 1.39862C8.43616 1.39862 7.38287 1.60813 6.40014 2.0152C5.4174 2.42226 4.52446 3.0189 3.77231 3.77106C3.02015 4.52321 2.42351 5.41615 2.01645 6.39888C1.60938 7.38162 1.39987 8.43491 1.39987 9.49862Z" stroke="#EF4444" stroke-width="1.35" stroke-linecap="round" stroke-linejoin="round"/>
<path d="M8.59958 9.49979C8.59958 9.73849 8.6944 9.96741 8.86318 10.1362C9.03197 10.305 9.26088 10.3998 9.49958 10.3998C9.73827 10.3998 9.96719 10.305 10.136 10.1362C10.3048 9.96741 10.3996 9.73849 10.3996 9.49979C10.3996 9.2611 10.3048 9.03218 10.136 8.8634C9.96719 8.69461 9.73827 8.59979 9.49958 8.59979C9.26088 8.59979 9.03197 8.69461 8.86318 8.8634C8.6944 9.03218 8.59958 9.2611 8.59958 9.49979Z" stroke="#EF4444" stroke-width="1.35" stroke-linecap="round" stroke-linejoin="round"/>
<path d="M10.769 8.22767L13.1 5.89667" stroke="#EF4444" stroke-width="1.35" stroke-linecap="round" stroke-linejoin="round"/>
<path d="M4.99973 9.50214C4.99973 8.30866 5.47383 7.16407 6.31774 6.32016C7.16166 5.47624 8.30625 5.00214 9.49972 5.00214" stroke="#EF4444" stroke-width="1.35" stroke-linecap="round" stroke-linejoin="round"/>
</g>
<defs>
<clipPath id="clip0_1135_8374">
<rect width="18" height="18" fill="white" transform="translate(0.5 0.5)"/>
</clipPath>
</defs>
</svg>
