<svg width="18" height="19" viewBox="0 0 18 19" fill="none" xmlns="http://www.w3.org/2000/svg">
<path fill-rule="evenodd" clip-rule="evenodd" d="M16.3356 5.52162C15.4652 5.844 14.781 6.57339 14.4787 7.50137L13.9145 9.23263C13.9064 9.25899 13.8833 9.2768 13.8572 9.2768C13.8312 9.2768 13.8081 9.25899 13.8 9.23263L13.2358 7.50137C12.9334 6.57334 12.2492 5.84394 11.3786 5.52162L9.75479 4.92025C9.73057 4.91127 9.71434 4.88693 9.71434 4.85959C9.71434 4.83226 9.73057 4.80792 9.75479 4.79893L11.3786 4.19756C12.2492 3.87524 12.9334 3.14584 13.2358 2.21781L13.8 0.486552C13.8081 0.460197 13.8312 0.442383 13.8572 0.442383C13.8833 0.442383 13.9064 0.460197 13.9145 0.486552L14.4787 2.21781C14.781 3.14579 15.4652 3.87518 16.3356 4.19756L17.9595 4.79893C17.9837 4.80792 17.9999 4.83226 17.9999 4.85959C17.9999 4.88693 17.9837 4.91127 17.9595 4.92025L16.3356 5.52162ZM9.19596 10.9229C7.98704 11.3707 7.03688 12.3838 6.61698 13.6726L5.83312 16.0771C5.82161 16.1133 5.78973 16.1377 5.75387 16.1377C5.71801 16.1377 5.68614 16.1133 5.67463 16.0771L4.89077 13.6726C4.47086 12.3838 3.5207 11.3707 2.31179 10.9229L0.056172 10.0877C0.0225394 10.0752 0 10.0414 0 10.0034C0 9.96547 0.0225394 9.93167 0.056172 9.91919L2.31179 9.08397C3.52071 8.63617 4.47087 7.62312 4.89077 6.33428L5.67463 3.92976C5.68614 3.89355 5.71801 3.86919 5.75387 3.86919C5.78973 3.86919 5.82161 3.89355 5.83312 3.92976L6.61698 6.33428C7.03688 7.62312 7.98704 8.63617 9.19596 9.08397L11.4516 9.91919C11.4852 9.93167 11.5077 9.96547 11.5077 10.0034C11.5077 10.0414 11.4852 10.0752 11.4516 10.0877L9.19596 10.9229ZM13.8019 17.0208C14.0437 16.2784 14.591 15.6949 15.2873 15.4369L16.5869 14.9558C16.6063 14.9487 16.6193 14.9292 16.6193 14.9073C16.6193 14.8854 16.6063 14.8659 16.5869 14.8588L15.2873 14.3777C14.591 14.1197 14.0437 13.5362 13.8019 12.7939L13.3504 11.4089C13.3443 11.387 13.3255 11.372 13.3042 11.372C13.2828 11.372 13.264 11.387 13.2579 11.4089L12.8076 12.7939C12.5655 13.5365 12.0178 14.12 11.3211 14.3777L10.0226 14.8588C10.0032 14.8659 9.99015 14.8854 9.99015 14.9073C9.99015 14.9292 10.0032 14.9487 10.0226 14.9558L11.3211 15.4369C12.0178 15.6946 12.5655 16.2782 12.8076 17.0208L13.2579 18.4058C13.264 18.4276 13.2828 18.4426 13.3042 18.4426C13.3255 18.4426 13.3443 18.4276 13.3504 18.4058L13.8019 17.0208Z" fill="url(#paint0_linear_1161_10689)"/>
<defs>
<linearGradient id="paint0_linear_1161_10689" x1="17.9999" y1="-8.55774" x2="2.04513" y2="12.3059" gradientUnits="userSpaceOnUse">
<stop stop-color="#F21BF6"/>
<stop offset="1" stop-color="#FBBF24"/>
</linearGradient>
</defs>
</svg>
