<svg width="20" height="19" viewBox="0 0 20 19" fill="none" xmlns="http://www.w3.org/2000/svg">
<path d="M10.196 10.488C8.98704 10.9078 8.03688 11.8575 7.61698 13.0658L6.83312 15.32C6.8216 15.354 6.78973 15.3768 6.75387 15.3768C6.71801 15.3768 6.68614 15.354 6.67463 15.32L5.89076 13.0658C5.47086 11.8575 4.5207 10.9078 3.31179 10.488L1.05617 9.70495C1.02254 9.69326 1 9.66156 1 9.62597C1 9.59038 1.02254 9.55869 1.05617 9.54699L3.31179 8.76397C4.52071 8.34417 5.47087 7.39443 5.89076 6.18614L6.67463 3.9319C6.68614 3.89796 6.71801 3.87512 6.75387 3.87512C6.78973 3.87512 6.8216 3.89796 6.83312 3.9319L7.61698 6.18614C8.03688 7.39443 8.98704 8.34417 10.196 8.76397L12.4516 9.54699C12.4852 9.55869 12.5077 9.59038 12.5077 9.62597C12.5077 9.66156 12.4852 9.69326 12.4516 9.70495L10.196 10.488Z" stroke="#9CA3AF" stroke-width="1.05882"/>
<path d="M17.3357 5.4239C16.4652 5.72612 15.7811 6.40993 15.4787 7.27991L14.9146 8.90297C14.9064 8.92768 14.8833 8.94438 14.8573 8.94438C14.8313 8.94438 14.8082 8.92768 14.8001 8.90297L14.2359 7.27991C13.9335 6.40988 13.2493 5.72607 12.3787 5.4239L10.7549 4.86011C10.7306 4.85169 10.7144 4.82887 10.7144 4.80324C10.7144 4.77762 10.7306 4.7548 10.7549 4.74638L12.3787 4.18259C13.2493 3.88042 13.9335 3.1966 14.2359 2.32658L14.8001 0.703518C14.8082 0.67881 14.8313 0.662109 14.8573 0.662109C14.8833 0.662109 14.9064 0.67881 14.9146 0.703518L15.4787 2.32658C15.7811 3.19656 16.4652 3.88036 17.3357 4.18259L18.9596 4.74638C18.9838 4.7548 19 4.77762 19 4.80324C19 4.82887 18.9838 4.85169 18.9596 4.86011L17.3357 5.4239Z" stroke="#9CA3AF" stroke-width="1.05882"/>
<path d="M16.2872 14.7193C15.5909 14.9611 15.0437 15.5082 14.8018 16.2041L14.3504 17.5026C14.3443 17.5231 14.3255 17.5371 14.3041 17.5371C14.2828 17.5371 14.2639 17.5231 14.2579 17.5026L13.8075 16.2041C13.5655 15.5079 13.0178 14.9609 12.321 14.7193L11.0225 14.2683C11.0031 14.2616 10.9901 14.2433 10.9901 14.2228C10.9901 14.2023 11.0031 14.184 11.0225 14.1773L12.321 13.7263C13.0178 13.4847 13.5655 12.9376 13.8075 12.2414L14.2579 10.943C14.2639 10.9225 14.2828 10.9084 14.3041 10.9084C14.3255 10.9084 14.3443 10.9225 14.3504 10.943L14.8018 12.2414C15.0437 12.9374 15.5909 13.4844 16.2872 13.7263L17.5868 14.1773C17.6062 14.184 17.6192 14.2023 17.6192 14.2228C17.6192 14.2433 17.6062 14.2616 17.5868 14.2683L16.2872 14.7193Z" stroke="#9CA3AF" stroke-width="1.05882"/>
</svg>
