<svg width="20" height="21" viewBox="0 0 20 21" fill="none" xmlns="http://www.w3.org/2000/svg">
<g clip-path="url(#clip0_1135_8439)">
<path d="M5.83333 9.26632V15.933C5.83333 16.154 5.74554 16.366 5.58926 16.5222C5.43298 16.6785 5.22101 16.7663 5 16.7663H3.33333C3.11232 16.7663 2.90036 16.6785 2.74408 16.5222C2.5878 16.366 2.5 16.154 2.5 15.933V10.0996C2.5 9.87864 2.5878 9.66667 2.74408 9.51039C2.90036 9.35411 3.11232 9.26632 3.33333 9.26632H5.83333ZM5.83333 9.26632C6.71739 9.26632 7.56523 8.91513 8.19036 8.29001C8.81548 7.66488 9.16667 6.81704 9.16667 5.93298V5.09965C9.16667 4.65762 9.34226 4.2337 9.65482 3.92114C9.96738 3.60858 10.3913 3.43298 10.8333 3.43298C11.2754 3.43298 11.6993 3.60858 12.0118 3.92114C12.3244 4.2337 12.5 4.65762 12.5 5.09965V9.26632H15C15.442 9.26632 15.866 9.44191 16.1785 9.75447C16.4911 10.067 16.6667 10.491 16.6667 10.933L15.8333 15.0996C15.7135 15.6109 15.4861 16.0499 15.1855 16.3505C14.8849 16.6511 14.5274 16.797 14.1667 16.7663H8.33333C7.67029 16.7663 7.03441 16.5029 6.56557 16.0341C6.09673 15.5652 5.83333 14.9294 5.83333 14.2663" stroke="#9CA3AF" stroke-width="1.25" stroke-linecap="round" stroke-linejoin="round"/>
</g>
<defs>
<clipPath id="clip0_1135_8439">
<rect width="20" height="20" fill="white" transform="translate(0 0.0996094)"/>
</clipPath>
</defs>
</svg>
