<svg width="102" height="94" viewBox="0 0 102 94" fill="none" xmlns="http://www.w3.org/2000/svg">
<path d="M96.0543 1L56.9893 29.9054L64.2537 12.8705L96.0543 1Z" fill="#E17726" stroke="#E17726" stroke-width="0.25" stroke-linecap="round" stroke-linejoin="round"/>
<path d="M5.94583 1L44.6631 30.1751L37.7466 12.8705L5.94583 1Z" fill="#E27625" stroke="#E27625" stroke-width="0.25" stroke-linecap="round" stroke-linejoin="round"/>
<path d="M81.9884 68.0216L71.5944 83.9003L93.8509 90.0283L100.227 68.3687L81.9884 68.0216Z" fill="#E27625" stroke="#E27625" stroke-width="0.25" stroke-linecap="round" stroke-linejoin="round"/>
<path d="M1.81111 68.3687L8.14802 90.0283L30.3661 83.9003L20.0105 68.0216L1.81111 68.3687Z" fill="#E27625" stroke="#E27625" stroke-width="0.25" stroke-linecap="round" stroke-linejoin="round"/>
<path d="M29.168 41.1977L22.9857 50.5245L45.0104 51.5266L44.2764 27.8242L29.168 41.1977Z" fill="#E27625" stroke="#E27625" stroke-width="0.25" stroke-linecap="round" stroke-linejoin="round"/>
<path d="M72.8308 41.198L57.491 27.5547L56.9887 51.5269L79.0132 50.5248L72.8308 41.198Z" fill="#E27625" stroke="#E27625" stroke-width="0.25" stroke-linecap="round" stroke-linejoin="round"/>
<path d="M30.3664 83.9003L43.697 77.4642L32.2212 68.5228L30.3664 83.9003Z" fill="#E27625" stroke="#E27625" stroke-width="0.25" stroke-linecap="round" stroke-linejoin="round"/>
<path d="M58.303 77.4642L71.595 83.9003L69.7788 68.5228L58.303 77.4642Z" fill="#E27625" stroke="#E27625" stroke-width="0.25" stroke-linecap="round" stroke-linejoin="round"/>
<path d="M71.595 83.9009L58.303 77.4648L59.3848 86.0977L59.2688 89.7591L71.595 83.9009Z" fill="#D5BFB2" stroke="#D5BFB2" stroke-width="0.25" stroke-linecap="round" stroke-linejoin="round"/>
<path d="M30.3664 83.9009L42.7313 89.7591L42.6539 86.0977L43.697 77.4648L30.3664 83.9009Z" fill="#D5BFB2" stroke="#D5BFB2" stroke-width="0.25" stroke-linecap="round" stroke-linejoin="round"/>
<path d="M42.9627 62.8189L31.9116 59.5816L39.7168 55.9973L42.9627 62.8189Z" fill="#233447" stroke="#233447" stroke-width="0.25" stroke-linecap="round" stroke-linejoin="round"/>
<path d="M59.037 62.8189L62.2829 55.9973L70.1268 59.5816L59.037 62.8189Z" fill="#233447" stroke="#233447" stroke-width="0.25" stroke-linecap="round" stroke-linejoin="round"/>
<path d="M30.3661 83.9003L32.2982 68.0216L20.0107 68.3687L30.3661 83.9003Z" fill="#CC6228" stroke="#CC6228" stroke-width="0.25" stroke-linecap="round" stroke-linejoin="round"/>
<path d="M69.7012 68.0216L71.5946 83.9003L81.9887 68.3687L69.7012 68.0216Z" fill="#CC6228" stroke="#CC6228" stroke-width="0.25" stroke-linecap="round" stroke-linejoin="round"/>
<path d="M79.0132 50.5243L56.9887 51.5263L59.0365 62.8189L62.2824 55.997L70.1262 59.5814L79.0132 50.5243Z" fill="#CC6228" stroke="#CC6228" stroke-width="0.25" stroke-linecap="round" stroke-linejoin="round"/>
<path d="M31.9115 59.5814L39.7167 55.997L42.9626 62.8189L45.0104 51.5263L22.9857 50.5243L31.9115 59.5814Z" fill="#CC6228" stroke="#CC6228" stroke-width="0.25" stroke-linecap="round" stroke-linejoin="round"/>
<path d="M22.9865 50.5243L32.2215 68.5228L31.9121 59.5814L22.9865 50.5243Z" fill="#E27525" stroke="#E27525" stroke-width="0.25" stroke-linecap="round" stroke-linejoin="round"/>
<path d="M70.1268 59.5814L69.7791 68.5228L79.0141 50.5243L70.1268 59.5814Z" fill="#E27525" stroke="#E27525" stroke-width="0.25" stroke-linecap="round" stroke-linejoin="round"/>
<path d="M45.0116 51.5263L42.9635 62.8189L45.5524 76.1537L46.1321 58.5793L45.0116 51.5263Z" fill="#E27525" stroke="#E27525" stroke-width="0.25" stroke-linecap="round" stroke-linejoin="round"/>
<path d="M56.9893 51.5263L55.9072 58.5409L56.4482 76.1537L59.0371 62.8189L56.9893 51.5263Z" fill="#E27525" stroke="#E27525" stroke-width="0.25" stroke-linecap="round" stroke-linejoin="round"/>
<path d="M59.0371 62.8192L56.4482 76.154L58.303 77.4645L69.7791 68.5231L70.1268 59.5817L59.0371 62.8192Z" fill="#F5841F" stroke="#F5841F" stroke-width="0.25" stroke-linecap="round" stroke-linejoin="round"/>
<path d="M31.9116 59.5817L32.2209 68.5231L43.6967 77.4645L45.5515 76.154L42.9627 62.8192L31.9116 59.5817Z" fill="#F5841F" stroke="#F5841F" stroke-width="0.25" stroke-linecap="round" stroke-linejoin="round"/>
<path d="M59.2691 89.7588L59.3848 86.0975L58.3804 85.2495H43.62L42.6539 86.0975L42.7313 89.7588L30.3664 83.9006L34.694 87.4463L43.4653 93.4973H58.496L67.306 87.4463L71.595 83.9006L59.2691 89.7588Z" fill="#C0AC9D" stroke="#C0AC9D" stroke-width="0.25" stroke-linecap="round" stroke-linejoin="round"/>
<path d="M58.3027 77.4642L56.4479 76.154H45.5515L43.697 77.4642L42.6536 86.0974L43.6196 85.2495H58.38L59.3847 86.0974L58.3027 77.4642Z" fill="#161616" stroke="#161616" stroke-width="0.25" stroke-linecap="round" stroke-linejoin="round"/>
<path d="M97.7155 31.7938L101 15.8381L96.054 1L58.303 28.942L72.8314 41.1977L93.3492 47.1716L97.8701 41.8916L95.8996 40.4654L99.0292 37.6136L96.6337 35.7636L99.7636 33.374L97.7155 31.7938Z" fill="#763E1A" stroke="#763E1A" stroke-width="0.25" stroke-linecap="round" stroke-linejoin="round"/>
<path d="M1 15.8381L4.32303 31.7938L2.19785 33.374L5.36631 35.7636L2.97064 37.6136L6.10046 40.4654L4.12982 41.8916L8.6507 47.1716L29.1686 41.1977L43.697 28.942L5.94591 1L1 15.8381Z" fill="#763E1A" stroke="#763E1A" stroke-width="0.25" stroke-linecap="round" stroke-linejoin="round"/>
<path d="M93.3494 47.1713L72.8317 41.1976L79.0141 50.5245L69.7791 68.5227L81.9893 68.3687H100.227L93.3494 47.1713Z" fill="#F5841F" stroke="#F5841F" stroke-width="0.25" stroke-linecap="round" stroke-linejoin="round"/>
<path d="M29.168 41.1976L8.65036 47.1713L1.81111 68.3687H20.0105L32.2206 68.5227L22.9858 50.5245L29.168 41.1976Z" fill="#F5841F" stroke="#F5841F" stroke-width="0.25" stroke-linecap="round" stroke-linejoin="round"/>
<path d="M56.9889 51.5266L58.3027 28.9417L64.2531 12.8704H37.7462L43.6967 28.9417L45.0104 51.5266L45.5128 58.618L45.5515 76.154H56.4479L56.4866 58.618L56.9889 51.5266Z" fill="#F5841F" stroke="#F5841F" stroke-width="0.25" stroke-linecap="round" stroke-linejoin="round"/>
</svg>
