<svg width="148" height="148" viewBox="0 0 148 148" fill="none" xmlns="http://www.w3.org/2000/svg">
<g filter="url(#filter0_dd)">
<circle cx="74" cy="58" r="50" fill="url(#paint0_linear)"/>
<path fill-rule="evenodd" clip-rule="evenodd" d="M39.2206 58.0285C39.2206 77.2525 54.8047 92.8366 74.0285 92.8366C93.2526 92.8366 108.837 77.2525 108.837 58.0285C108.837 38.8047 93.2526 23.2206 74.0285 23.2206C54.8047 23.2206 39.2206 38.8047 39.2206 58.0285ZM65.1331 46.8127C63.8515 46.8127 62.8127 47.8515 62.8127 49.1331V66.9239C62.8127 68.2055 63.8515 69.2446 65.1331 69.2446H82.9239C84.2056 69.2446 85.2444 68.2055 85.2444 66.9239V49.1331C85.2444 47.8515 84.2056 46.8127 82.9239 46.8127H65.1331Z" fill="white"/>
</g>
<defs>
<filter id="filter0_dd" x="0" y="0" width="148" height="148" filterUnits="userSpaceOnUse" color-interpolation-filters="sRGB">
<feFlood flood-opacity="0" result="BackgroundImageFix"/>
<feColorMatrix in="SourceAlpha" type="matrix" values="0 0 0 0 0 0 0 0 0 0 0 0 0 0 0 0 0 0 127 0"/>
<feOffset dy="16"/>
<feGaussianBlur stdDeviation="12"/>
<feColorMatrix type="matrix" values="0 0 0 0 0 0 0 0 0 0 0 0 0 0 0 0 0 0 0.06 0"/>
<feBlend mode="normal" in2="BackgroundImageFix" result="effect1_dropShadow"/>
<feColorMatrix in="SourceAlpha" type="matrix" values="0 0 0 0 0 0 0 0 0 0 0 0 0 0 0 0 0 0 127 0"/>
<feOffset/>
<feGaussianBlur stdDeviation="4"/>
<feColorMatrix type="matrix" values="0 0 0 0 0 0 0 0 0 0 0 0 0 0 0 0 0 0 0.04 0"/>
<feBlend mode="normal" in2="effect1_dropShadow" result="effect2_dropShadow"/>
<feBlend mode="normal" in="SourceGraphic" in2="effect2_dropShadow" result="shape"/>
</filter>
<linearGradient id="paint0_linear" x1="74" y1="8" x2="74" y2="108" gradientUnits="userSpaceOnUse">
<stop stop-color="#2E66F8"/>
<stop offset="1" stop-color="#124ADB"/>
</linearGradient>
</defs>
</svg>
