<svg id="Layer_1" data-name="Layer 1" xmlns="http://www.w3.org/2000/svg" xmlnsXlink="http://www.w3.org/1999/xlink" viewBox="0 0 800 800"><defs><style>.cls-1{fill:url(#New_Gradient_Swatch_54);}</style><radialGradient id="New_Gradient_Swatch_54" cx="254.09" cy="194.64" r="741.85" gradientUnits="userSpaceOnUse"><stop offset="0" stop-color="#fadc2f"/><stop offset="0.36" stop-color="#ef1b52"/><stop offset="0.73" stop-color="#e515af"/><stop offset="1" stop-color="#06bdef"/></radialGradient></defs><path class="cls-1" d="M900,500a397.65,397.65,0,0,0-73.24-230.38,125.11,125.11,0,0,0-8.46-11.57c-.15-.2-.32-.38-.47-.58q-1.65-2.15-3.3-4.1C738.11,155.87,623.91,100,500,100c-220.52,0-399.93,179.38-400,399.88v.24C100.07,720.62,279.48,900,500,900a397.06,397.06,0,0,0,214.45-62.44c.59-.38,1.15-.8,1.74-1.19C826.68,765.11,900,641,900,500ZM500,146.84c111.33,0,213.87,51,281.33,140l.22.28c2.24,3,4.41,6,6.57,9a85.23,85.23,0,0,1,13.5,44.95,80.4,80.4,0,0,1-80.31,80.31c-29,0-57.75-18.57-73.25-47.3C593.19,272.27,496.15,211.5,388.5,211.5a286.71,286.71,0,0,0-129.85,30.91A351.89,351.89,0,0,1,500,146.84ZM146.84,500c0-133.25,108.41-241.66,241.66-241.66,90.14,0,171.76,51.57,218.33,138C630.39,440,675.32,468.2,721.31,468.2A127.21,127.21,0,0,0,836.8,393.92a352.1,352.1,0,0,1-71,338.18c-4.77-58.89-54.13-105.37-114.22-105.37-34.42,0-65.51,22.24-80.45,32.93l-3.35,2.4c-41.57,29.77-111.16,79.6-179.31,79.6C255.25,741.66,146.84,633.25,146.84,500ZM258.65,757.59A286.71,286.71,0,0,0,388.5,788.5c83.19,0,160.44-55.31,206.59-88.36l3.32-2.38c11-7.85,33.81-24.18,53.2-24.18a67.93,67.93,0,0,1,67.85,67.85c0,23.11-10.54,43.26-28.89,55.67q-9.18,5.89-18.72,11.27l.07.07c-52.57,29.65-110.3,44.72-171.92,44.72A351.89,351.89,0,0,1,258.65,757.59Z" transform="translate(-100 -100)"/><path class="cls-1" d="M411.36,666.82c89.4,0,162.13-72.73,162.13-162.12S500.76,342.57,411.36,342.57a160.67,160.67,0,0,0-68.9,15.55,91.87,91.87,0,0,0-92.73,158.57C255.9,600.5,326,666.82,411.36,666.82ZM526.64,504.7A115.41,115.41,0,0,1,411.36,620c-54.66,0-100.46-38.28-112.22-89.42A91.84,91.84,0,0,0,378.6,394.22a115.14,115.14,0,0,1,148,110.48ZM298.14,393.53A45.12,45.12,0,1,1,253,438.65,45.17,45.17,0,0,1,298.14,393.53Z" transform="translate(-100 -100)"/></svg>
