<?xml version="1.0" encoding="utf-8"?>
<!-- Generator: Adobe Illustrator 24.0.1, SVG Export Plug-In . SVG Version: 6.00 Build 0)  -->
<svg version="1.1" id="Layer_1" xmlns="http://www.w3.org/2000/svg" xmlns:xlink="http://www.w3.org/1999/xlink" x="0px" y="0px"
	 viewBox="0 0 664.3 202.3" style="enable-background:new 0 0 664.3 202.3;" xml:space="preserve">
<style type="text/css">
	.st0{fill:#133444;}
	.st1{fill:#C42370;}
	.st2{fill:#1C4D6B;}
	.st3{fill:#1D4259;}
	.st4{fill:#4B6B9A;}
	.st5{fill:#343535;}
	.st6{fill:#3E5578;}
	.st7{fill:#6DB2D8;}
	.st8{fill:#335F8A;}
	.st9{fill:#529BBA;}
</style>
<g id="Layer_2_1_">
	<g id="Layer_1-2">
		<g id="Layer_2-2">
			<g id="Layer_1-2-2">
				<polygon class="st0" points="1.9,116.3 6.8,114.2 66.8,88.1 131.7,116.3 107.3,166.7 47.7,175.1 2.9,126.7 				"/>
				<path class="st1" d="M118.2,85.3C107.5,72.4,92.3,64,75.7,61.8c-0.4,0-0.7-0.1-1.1-0.1c-5.2-0.6-10.4-0.6-15.6,0
					c-0.4,0-0.7,0.1-1.1,0.1C41.3,64,26.1,72.4,15.4,85.3l0,0l-2.7,4.5l-4.5,7.5l-3.3,5.5l0,0c0,0.2-0.1,0.3-0.2,0.4v0.1l7.2,4.3
					l46,27.2l8.9,5.2V75l-8.9,4v-9.7l8.9-4l8.9,4l45.2,20.5L118.2,85.3z"/>
				<path class="st2" d="M133.7,132.5c-0.1,21.3-9.7,41.4-26.2,54.9c-6.3,5.1-13.4,9.1-21.1,11.7c-6.3,2.1-12.9,3.2-19.5,3.2
					c-37,0-66.9-32.9-66.9-69.8c0-5.5,0.7-10.9,2-16.2l64.9,38.4l64.9-38.4C133,121.6,133.7,127,133.7,132.5z"/>
				<polygon points="59,61.6 66.8,65.2 57.9,69.2 57.9,61.2 				"/>
				<polygon points="57.9,79 66.8,74.9 66.8,139.9 57.9,134.7 				"/>
				<polygon class="st3" points="66.8,74.9 66.8,139.9 129,103.2 				"/>
				<polygon class="st4" points="66.8,0 66.8,74.9 129,103.2 				"/>
				<path class="st5" d="M66.8,74.9v65l-8.9-5.2L4.7,103.2l0,0c0-0.2,0.1-0.3,0.2-0.4l0,0l7.8-12.9l45.2-20.5v9.8L66.8,74.9z"/>
				<polygon class="st6" points="66.8,74.9 66.8,139.9 57.9,134.7 4.7,103.2 4.6,103.2 4.7,103.1 57.9,79 				"/>
				<polygon class="st7" points="66.8,0 66.8,74.9 4.6,103.2 				"/>
				<path class="st8" d="M41.6,197c0.9,0.4,1.9,0.8,2.8,1.2C43.5,197.8,42.6,197.4,41.6,197z"/>
				<path class="st8" d="M44.4,198.1c0.9,0.4,1.9,0.7,2.9,1C46.3,198.8,45.4,198.5,44.4,198.1z"/>
				<path class="st8" d="M49.8,199.9c0.8,0.2,1.5,0.4,2.2,0.6L49.8,199.9z"/>
				<path class="st7" d="M1.9,116.3l64.9,38.4c-0.9,5.8-2.4,11.5-4.7,17c-5.2,12.6-15.7,25.8-36,15.7l0,0
					C9.6,173.9,0,153.7-0.1,132.4C-0.1,127,0.6,121.6,1.9,116.3z"/>
				<path class="st9" d="M107.3,187.5L107.3,187.5c-0.4,0.3,0,0-1.3,1.1l-0.6,0.4l-0.9,0.6l-1.1,0.8c1.1-0.8-0.9,0.6-1.3,0.9
					c-0.4,0.2-0.7,0.4-1.1,0.7l-0.7,0.5c-0.2,0.1-0.5,0.3-0.7,0.5c0,0-0.3,0.3-0.4,0.3c0.4-0.3-0.5,0.2-0.9,0.5
					c-0.5,0.2-0.9,0.4-1.3,0.7l-1.4,0.7l-0.6,0.3c-0.4,0.2-0.2,0-0.6,0.3s-0.9,0.4-1.4,0.7s0,0-1.7,0.8c1.7-0.8,0,0-0.9,0.4
					c0.9-0.4-1.6,0.6-2.7,1c-0.4,0.1-2.6,0.8-3,0.9s-0.9,0.3-1.3,0.4c-0.8,0.2-1.5,0.4-2.2,0.6c-0.3,0.1-0.6,0.1-0.8,0.2l-0.5,0.1
					l-1.2,0.3c-0.4,0.1-0.7,0.1-1.1,0.2s-0.7,0.1-1,0.2s-0.8,0.1-1.1,0.2c-0.2,0-0.4,0-0.5,0.1l-0.8,0.1h-0.4
					c-0.3,0-0.6,0.1-0.9,0.1s-0.8,0.1-1.2,0.1H61.5c-0.4,0-0.8-0.1-1.2-0.1c-0.3,0-0.6,0-0.9-0.1H59c-0.3,0-0.6-0.1-0.8-0.1
					c-0.2,0-0.4,0-0.5-0.1c-0.4,0-0.7-0.1-1.1-0.2c-0.3,0-0.7-0.1-1-0.2c-0.3-0.1-0.7-0.1-1.1-0.2l-1.2-0.3l-0.5-0.1
					c-0.3,0-0.6-0.1-0.8-0.2c-0.8-0.2-1.5-0.4-2.2-0.6l-1.3-0.4c-0.4-0.1-0.8-0.2-1.2-0.4c-1-0.3-1.9-0.7-2.9-1s-1.9-0.8-2.8-1.2
					c-0.4-0.2-0.9-0.4-1.4-0.6c-0.5-0.2-1-0.4-1.4-0.7c-0.5-0.2-0.9-0.4-1.3-0.7l0,0c-0.4-0.2-0.9-0.5-1.3-0.7
					c-0.4-0.2-0.7-0.4-1-0.6c-1-0.6-1.6-1-1-0.6l-0.6-0.4l-1.1-0.7l-0.4-0.2l-1-0.7c-0.4-0.3-0.8-0.5-1.2-0.8s-0.9-0.6-1.3-0.9
					s-0.8-0.7-1.1-0.9l-0.4-0.3c-0.4-0.2-0.7-0.5-1-0.8l0,0c20.3,10.1,30.7-3.3,35.9-15.8c2.2-5.5,3.8-11.2,4.7-17
					c0.9,5.9,2.4,11.7,4.7,17.2C76.8,184.2,87,197.5,107.3,187.5z"/>
				<path class="st8" d="M81.6,200.5c0.8-0.2,1.5-0.4,2.2-0.6L81.6,200.5z"/>
				<path class="st8" d="M86.3,199.1c1-0.3,1.9-0.6,2.9-1C88.2,198.5,87.3,198.8,86.3,199.1z"/>
				<path class="st8" d="M89,198.2c0.9-0.4,2.1-0.8,3-1.3C91,197.4,89.9,197.8,89,198.2z"/>
				<path class="st4" d="M133.7,132.5c-0.1,21.3-9.7,41.4-26.2,54.9c-20.3,10.1-30.8-3.2-36-15.7c-2.2-5.5-3.8-11.2-4.7-17
					l64.9-38.4C133,121.6,133.7,127,133.7,132.5z"/>
			</g>
		</g>
		<path class="st7" d="M205.3,200.3h-22V53.4h22v10.4c8.7-8.7,18.5-13,29.5-13c13.1,0,23.9,4.8,32.3,14.5
			c8.6,9.6,12.9,21.6,12.9,36.2c0,14.3-4.3,26.1-12.8,35.6c-8,9.2-19.8,14.4-32,14.2c-11.1,0-21.1-4.5-29.9-13.4V200.3L205.3,200.3z
			 M257.6,101.5c0-9.1-2.5-16.5-7.4-22.3c-4.6-5.6-11.6-8.8-18.9-8.7c-8.1,0-14.6,2.8-19.6,8.4s-7.5,13-7.5,22.1
			c0,8.9,2.5,16.3,7.5,22.1c5,5.8,11.5,8.5,19.5,8.5c7.3,0.2,14.2-3,18.8-8.6C255,117.3,257.6,110.1,257.6,101.5L257.6,101.5z"/>
		<path class="st7" d="M298.8,100.3c-0.2-13.2,5.1-26,14.7-35.1c9.5-9.5,22.5-14.7,35.9-14.5c14.2,0,26.2,4.9,36.1,14.6
			s14.6,21.6,14.6,35.7c0,14.3-4.9,26.2-14.7,35.8s-22,14.4-36.4,14.4s-26.2-4.9-35.8-14.6S298.8,114.8,298.8,100.3z M321.3,100.7
			c0,9.5,2.5,17,7.6,22.6c5.1,5.6,12.1,8.4,20.6,8.4s15.5-2.8,20.6-8.3c5.1-5.5,7.7-12.9,7.7-22.2s-2.6-16.6-7.7-22.2
			s-12.1-8.4-20.6-8.4s-15.2,2.8-20.4,8.4S321.3,91.8,321.3,100.7z"/>
		<path class="st7" d="M417.5,53.4h22v8.5c4-4.2,7.6-7.1,10.7-8.7c3.5-1.7,7.4-2.5,11.3-2.4c5.8,0,11.8,1.9,18.2,5.7l-10.1,20.1
			c-4.2-3-8.2-4.5-12.2-4.5c-12,0-18,9-18,27.1v49.3h-22L417.5,53.4z"/>
		<path class="st7" d="M521,73.9v74.6h-22V73.9h-9.4V53.4h9.4V18.5h22v34.9h17.1v20.5H521z"/>
		<path class="st7" d="M549.7,13.8c0-3.8,1.5-7.4,4.2-10c5.6-5.6,14.7-5.6,20.3,0c2.8,2.6,4.3,6.3,4.2,10.1
			c0.1,3.8-1.5,7.5-4.2,10.2c-2.6,2.8-6.3,4.3-10.1,4.2c-3.8,0.1-7.5-1.5-10.2-4.2C551.1,21.4,549.6,17.7,549.7,13.8z M575,53.4
			v95.1h-22V53.4H575z"/>
		<path class="st7" d="M658.1,69.6l-18.2,9.7c-2.9-5.9-6.4-8.8-10.6-8.8c-1.9,0-3.8,0.7-5.2,2s-2.2,3.2-2.1,5.1
			c0,3.6,4.2,7.3,12.7,10.8c11.7,5,19.5,9.6,23.5,13.9s6.1,9.9,6.1,17.1c0.2,8.8-3.6,17.2-10.2,23c-6.5,5.9-15,9-23.8,8.8
			c-16,0-27.2-7.8-33.9-23.3l18.8-8.7c2.6,4.6,4.6,7.5,6,8.7c2.6,2.4,6,3.8,9.6,3.7c7.4,0,11.1-3.4,11.1-10.2
			c0-3.9-2.9-7.6-8.6-10.9c-2.2-1.1-4.4-2.2-6.6-3.2s-4.5-2.1-6.7-3.2c-6.4-3.1-10.9-6.2-13.5-9.4c-3.3-4-5-9.1-5-15.3
			c0-8.3,2.8-15.1,8.5-20.5c5.7-5.4,13.3-8.3,21.1-8.1C643.1,50.7,652.1,57,658.1,69.6z"/>
	</g>
</g>
<g>
	<g>
		<g>
			<g>
				<path d="M631.2,186.9h2.9v-17.3h-2.9V186.9z"/>
			</g>
			<rect x="631.2" y="164.5" width="2.9" height="2.9"/>
			<g>
				<path d="M497.2,164.3c-3.2,0-6.5,1.2-6.5,4.3c0,2.7,3.1,3.5,6.7,4.1c5,0.8,9.9,1.8,9.9,7.4c0,5.6-5.4,7.4-10.1,7.4
					c-4.4,0-8.6-1.6-10.5-5.7l2.6-1.5c1.6,2.9,4.9,4.4,8,4.4c3,0,7-1,7-4.6c0-3.1-3.4-4-7.2-4.5c-4.8-0.7-9.4-1.8-9.4-6.9
					c-0.1-5.2,5.2-7,9.5-7c3.7,0,7.2,0.7,9.4,4.5l-2.3,1.5C502.8,165.4,500,164.4,497.2,164.3z"/>
			</g>
			<g>
				<path d="M512.5,162.2v10.2c1.5-2.3,3.8-3.1,6.1-3.1c4.9,0,7.3,3.3,7.3,8.1v9.6H523v-9.6c0-3.4-1.8-5.4-5-5.4
					c-3.2,0-5.5,2.5-5.5,5.7v9.3h-2.9v-24.8H512.5L512.5,162.2z"/>
			</g>
			<g>
				<path d="M543.9,187l-0.1-3.2c-1.4,2.4-4,3.5-6.5,3.5c-5,0-9-3.5-9-9.2s4-9.1,9-9c2.6,0,5.2,1.2,6.5,3.5v-3.2h2.8v17.5L543.9,187
					L543.9,187z M537.5,171.9c-3.5,0-6.3,2.5-6.3,6.4s2.8,6.4,6.3,6.4C545.9,184.7,545.9,171.9,537.5,171.9L537.5,171.9z"/>
			</g>
			<g>
				<path d="M549.4,169.5h2.8l0.1,3.4c1.4-2.3,4-3.7,6.7-3.7c5,0.1,8.7,3.7,8.7,9c0,5.5-3.7,9.1-8.9,9.1c-2.5,0-5.2-1.1-6.6-3.5
					v11.4h-2.8V169.5z M564.9,178.3c0-3.9-2.6-6.3-6.2-6.3c-3.7,0-6.1,2.7-6.1,6.3s2.6,6.3,6.1,6.3S564.9,182.2,564.9,178.3z"/>
			</g>
			<g>
				<path d="M586.4,184.1c-1.8,2.1-4.8,3.1-7.6,3.1c-5.4,0-9.2-3.6-9.2-9.1c0-5.3,3.8-9.1,9.1-9.1c5.4,0,9.4,3.3,8.8,10.3h-14.9
					c0.3,3.2,3,5.2,6.3,5.2c2,0,4.4-0.8,5.6-2.2L586.4,184.1L586.4,184.1z M584.7,176.9c-0.1-3.4-2.5-5.2-5.9-5.2
					c-3,0-5.7,1.8-6.2,5.2H584.7L584.7,176.9z"/>
			</g>
			<g>
				<path d="M599.7,164.3c-3.2,0-6.5,1.2-6.5,4.3c0,2.7,3.1,3.5,6.7,4.1c5,0.8,9.9,1.8,9.9,7.4c0,5.6-5.4,7.4-10.1,7.4
					c-4.4,0-8.6-1.6-10.5-5.7l2.6-1.5c1.6,2.9,4.9,4.4,8,4.4c3,0,7-1,7-4.6c0-3.1-3.4-4-7.2-4.5c-4.8-0.7-9.4-1.8-9.4-6.9
					c-0.1-5.2,5.2-7,9.5-7c3.7,0,7.2,0.7,9.4,4.5l-2.3,1.5C605.3,165.4,602.4,164.4,599.7,164.3z"/>
			</g>
			<g>
				<path d="M614.9,162.1v10.2c1.5-2.3,3.8-3.1,6.1-3.1c4.9,0,7.3,3.3,7.3,8.1v9.6h-2.9v-9.6c0-3.4-1.8-5.4-5-5.4
					c-3.2,0-5.5,2.5-5.5,5.7v9.3H612v-24.8H614.9L614.9,162.1z"/>
			</g>
			<g>
				<polygon points="639.7,187 639.7,187 639.6,187 				"/>
				<path d="M643.1,168.2c0-2.6,1.2-3.8,3.1-3.8h0.1l0.7-2.5c-0.3,0-0.6-0.1-0.8-0.1c-3.7,0-5.9,2.3-5.9,6.3v1.4h-3.4v2.6h3.4v14.8
					h2.9v-14.8h3.5v-2.5h-3.5L643.1,168.2L643.1,168.2z"/>
			</g>
			<path d="M657.9,184.5c-0.2,0-0.5,0.1-0.7,0.1c-2.1,0-2.8-1.3-2.8-3.4v-9h3.7v-2.6h-3.7v-5.3l-2.9,0.3v5H648v2.5h3.5v9
				c0,3.9,1.8,6.1,5.5,6c0.5,0,0.9-0.1,1.4-0.2L657.9,184.5z"/>
		</g>
	</g>
	<g>
		<path d="M452.9,174.2c1-0.4,1.8-1,2.5-1.8c0.9-1,1.3-2.3,1.3-3.7c0-1.3-0.3-2.4-0.8-3.3c-0.5-0.9-1.2-1.6-2-2.1s-1.7-0.9-2.7-1.1
			c-1-0.2-2-0.3-3-0.3h-7.9v26h7.8c1.5,0,2.8-0.2,4-0.5s2.2-0.8,3.1-1.5c0.8-0.6,1.5-1.4,2-2.3s0.7-1.9,0.7-3c0-1.9-0.6-3.5-1.7-4.6
			C455.2,175.1,454.1,174.5,452.9,174.2z M453.1,170.9c-0.3,0.5-0.7,1-1.2,1.3s-1.1,0.6-1.7,0.7c-0.6,0.1-1.2,0.2-1.8,0.2h-4.9v-8.4
			h4.2c0.8,0,1.6,0.1,2.3,0.2c0.7,0.1,1.3,0.4,1.8,0.7s0.9,0.8,1.2,1.3c0.3,0.5,0.4,1.2,0.4,1.9
			C453.5,169.7,453.3,170.4,453.1,170.9z M443.4,175.8h5c2,0,3.6,0.4,4.7,1.2s1.6,1.9,1.6,3.5c0,0.8-0.2,1.6-0.5,2.1
			c-0.4,0.6-0.8,1.1-1.4,1.5s-1.3,0.7-2.1,0.8c-0.8,0.2-1.7,0.3-2.6,0.3h-4.5v-9.4H443.4z"/>
		<path d="M474.2,170.6l-5.1,13.8l-5.6-13.8h-3.3l7.3,17.1l-1.3,3.4c-0.3,0.9-0.8,1.6-1.2,2.1c-0.4,0.5-1,0.7-1.8,0.7
			c-0.6,0-1.2-0.1-1.7-0.3l-0.3-0.1l-0.3,2.8h0.2c0.7,0.1,1.5,0.2,2.2,0.2c1.5,0,2.7-0.4,3.6-1.2c0.8-0.8,1.5-1.9,2-3.2l8.5-21.5
			H474.2z"/>
	</g>
</g>
</svg>
