<svg width="33" height="33" viewBox="0 0 33 33" fill="none" xmlns="http://www.w3.org/2000/svg">
<g clip-path="url(#clip0_331_10366)">
<path d="M10.1789 18.6808C11.0985 18.6808 11.9957 18.3742 12.721 17.8135L6.88919 11.9817C5.48358 13.7985 5.82003 16.4153 7.63685 17.821C8.36956 18.3742 9.25928 18.6808 10.1789 18.6808Z" fill="#1F2329"/>
<path d="M27.5271 14.514C27.5271 13.5944 27.2206 12.6972 26.6598 11.9719L20.828 17.8037C22.6449 19.2093 25.2542 18.8729 26.6598 17.0561C27.2206 16.3308 27.5271 15.4336 27.5271 14.514Z" fill="#1F2329"/>
<path d="M30.4631 8.16914L27.8836 10.7486C29.9621 13.2383 29.6332 16.9467 27.1434 19.0252C24.9603 20.8495 21.7902 20.8495 19.607 19.0252L16.7733 21.8589L13.9472 19.0327C11.4575 21.1112 7.74905 20.7822 5.67054 18.2925C3.84624 16.1093 3.84624 12.9392 5.67054 10.7561L4.34718 9.4327L3.0911 8.16914C1.57335 10.6663 0.773346 13.5374 0.773346 16.4607C0.773346 25.2981 7.93596 32.4607 16.7733 32.4607C25.6107 32.4607 32.7733 25.2981 32.7733 16.4607C32.7808 13.5374 31.9733 10.6663 30.4631 8.16914Z" fill="#1F2329"/>
<path d="M28.3472 5.41654C22.2537 -0.97598 12.1304 -1.21523 5.73785 4.87822C5.55093 5.05766 5.37149 5.2371 5.19953 5.41654C4.80327 5.83523 4.42944 6.26888 4.07803 6.72495L16.7734 19.4278L29.4687 6.72495C29.1248 6.26888 28.7435 5.83523 28.3472 5.41654ZM16.7734 2.55299C20.5117 2.55299 23.9958 3.99598 26.6126 6.62776L16.7734 16.467L6.93411 6.62776C9.55093 3.99598 13.035 2.55299 16.7734 2.55299Z" fill="#1F2329"/>
</g>
<defs>
<clipPath id="clip0_331_10366">
<rect width="32" height="32" fill="white" transform="translate(0.773438 0.460815)"/>
</clipPath>
</defs>
</svg>
