<svg width="33" height="33" viewBox="0 0 33 33" fill="none" xmlns="http://www.w3.org/2000/svg">
<g clip-path="url(#clip0_331_10361)">
<path d="M16.7734 32.4608C25.61 32.4608 32.7734 25.2974 32.7734 16.4608C32.7734 7.62426 25.61 0.460815 16.7734 0.460815C7.93688 0.460815 0.773438 7.62426 0.773438 16.4608C0.773438 25.2974 7.93688 32.4608 16.7734 32.4608Z" fill="#FF0420"/>
<path d="M12.1079 20.7104C11.1543 20.7104 10.3735 20.4864 9.76547 20.0384C9.16387 19.584 8.86307 18.9312 8.86307 18.0928C8.86307 17.9136 8.88227 17.7024 8.92067 17.4464C9.02307 16.8704 9.17027 16.1792 9.36227 15.3664C9.90627 13.1648 11.3143 12.064 13.5799 12.064C14.1943 12.064 14.7511 12.1664 15.2375 12.3776C15.7239 12.576 16.1079 12.8832 16.3895 13.2928C16.6711 13.696 16.8119 14.176 16.8119 14.7328C16.8119 14.8992 16.7927 15.1104 16.7543 15.3664C16.6327 16.0768 16.4919 16.7744 16.3191 17.4464C16.0375 18.5408 15.5575 19.3664 14.8663 19.9104C14.1815 20.448 13.2599 20.7104 12.1079 20.7104ZM12.2807 18.9824C12.7287 18.9824 13.1063 18.848 13.4199 18.5856C13.7399 18.3232 13.9703 17.92 14.1047 17.3696C14.2903 16.6144 14.4311 15.9616 14.5271 15.3984C14.5591 15.232 14.5783 15.0592 14.5783 14.88C14.5783 14.1504 14.2007 13.7856 13.4391 13.7856C12.9911 13.7856 12.6071 13.92 12.2871 14.1824C11.9735 14.4448 11.7495 14.848 11.6151 15.3984C11.4679 15.936 11.3271 16.5888 11.1799 17.3696C11.1479 17.5296 11.1287 17.696 11.1287 17.8752C11.1223 18.6176 11.5127 18.9824 12.2807 18.9824Z" fill="white"/>
<path d="M17.3691 20.5953C17.2795 20.5953 17.2155 20.5697 17.1643 20.5121C17.1259 20.4481 17.1131 20.3777 17.1259 20.2945L18.7835 12.4865C18.7963 12.3969 18.8411 12.3265 18.9179 12.2689C18.9883 12.2113 19.0651 12.1857 19.1483 12.1857H22.3419C23.2315 12.1857 23.9419 12.3713 24.4795 12.7361C25.0235 13.1073 25.2987 13.6385 25.2987 14.3361C25.2987 14.5345 25.2731 14.7457 25.2283 14.9633C25.0299 15.8849 24.6267 16.5633 24.0123 17.0049C23.4107 17.4465 22.5851 17.6641 21.5355 17.6641H19.9163L19.3659 20.2945C19.3467 20.3841 19.3083 20.4545 19.2315 20.5121C19.1611 20.5697 19.0843 20.5953 19.0011 20.5953H17.3691ZM21.6187 16.0065C21.9579 16.0065 22.2459 15.9169 22.4955 15.7313C22.7515 15.5457 22.9179 15.2833 23.0011 14.9377C23.0267 14.8033 23.0395 14.6817 23.0395 14.5793C23.0395 14.3489 22.9691 14.1697 22.8347 14.0481C22.7003 13.9201 22.4635 13.8561 22.1371 13.8561H20.6971L20.2427 16.0065H21.6187Z" fill="white"/>
</g>
<defs>
<clipPath id="clip0_331_10361">
<rect width="32" height="32" fill="white" transform="translate(0.773438 0.460815)"/>
</clipPath>
</defs>
</svg>
