<svg width="33" height="33" viewBox="0 0 33 33" fill="none" xmlns="http://www.w3.org/2000/svg">
<circle cx="16.7734" cy="16.4608" r="16" fill="#8447E5"/>
<path d="M21.6361 13.227C21.2905 13.0295 20.8462 13.0295 20.4513 13.227L17.6869 14.8561L15.811 15.8928L13.096 17.5219C12.7504 17.7194 12.3061 17.7194 11.9112 17.5219L9.78855 16.2384C9.44299 16.0409 9.19617 15.646 9.19617 15.2017V12.7333C9.19617 12.3384 9.39363 11.9435 9.78855 11.6966L11.9112 10.4625C12.2568 10.265 12.7011 10.265 13.096 10.4625L15.2187 11.746C15.5642 11.9435 15.811 12.3384 15.811 12.7827V14.4118L17.6869 13.3257V11.6473C17.6869 11.2523 17.4894 10.8574 17.0945 10.6106L13.1453 8.29034C12.7998 8.09288 12.3555 8.09288 11.9606 8.29034L7.91269 10.6599C7.51777 10.8574 7.32031 11.2523 7.32031 11.6473V16.2877C7.32031 16.6827 7.51777 17.0776 7.91269 17.3244L11.9112 19.6447C12.2568 19.8421 12.7011 19.8421 13.096 19.6447L15.811 18.0649L17.6869 16.9789L20.4019 15.3991C20.7475 15.2017 21.1918 15.2017 21.5867 15.3991L23.7094 16.6333C24.0549 16.8308 24.3018 17.2257 24.3018 17.67V20.1383C24.3018 20.5333 24.1043 20.9282 23.7094 21.175L21.6361 22.4092C21.2905 22.6067 20.8462 22.6067 20.4513 22.4092L18.3286 21.175C17.9831 20.9776 17.7363 20.5826 17.7363 20.1383V18.5586L15.8604 19.6447V21.2738C15.8604 21.6687 16.0579 22.0636 16.4528 22.3105L20.4513 24.6307C20.7969 24.8281 21.2411 24.8281 21.6361 24.6307L25.6346 22.3105C25.9802 22.113 26.227 21.7181 26.227 21.2738V16.5839C26.227 16.189 26.0295 15.7941 25.6346 15.5472L21.6361 13.227Z" fill="white"/>
</svg>
