<?xml version="1.0" ?><svg viewBox="0 0 25 25" xmlns="http://www.w3.org/2000/svg"><defs><style>.cls-1{fill:#353638;}</style></defs><title/><g id="budicon-arrow-up-down-circle"><path class="cls-1" d="M12.5,0A12.5,12.5,0,1,0,25,12.5,12.5,12.5,0,0,0,12.5,0Zm0,24A11.5,11.5,0,1,1,24,12.5,11.5129,11.5129,0,0,1,12.5,24ZM12.1465,7.8535,10,5.707V15.5a.5.5,0,0,1-1,0V5.707L6.8535,7.8535a.5.5,0,0,1-.707-.707l3-3a.5.5,0,0,1,.707,0l3,3a.5.5,0,1,1-.707.707Zm6.707,9.293a.5.5,0,0,1,0,.707l-3,3a.5.5,0,0,1-.707,0l-3-3a.5.5,0,0,1,.707-.707L15,19.293V9.5a.5.5,0,0,1,1,0v9.793l2.1465-2.1465A.5.5,0,0,1,18.8535,17.1465Z"/></g></svg>