<svg width="450" height="172" fill="none" xmlns="http://www.w3.org/2000/svg"><path d="M0 0h450v172H0V0Z" fill="url(#a)"/><g filter="url(#b)"><path d="M225 136c27.709 0 50-22.291 50-50s-22.291-50-50-50c-27.708 0-50 22.291-50 50s22.292 50 50 50Z" fill="#2775CA"/><path d="M238.75 93.916c0-7.291-4.375-9.791-13.125-10.833-6.25-.833-7.5-2.5-7.5-5.417s2.084-4.791 6.25-4.791c3.75 0 5.834 1.25 6.875 4.375.209.625.834 1.041 1.459 1.041h3.333c.833 0 1.458-.625 1.458-1.458v-.208c-.833-4.584-4.583-8.125-9.375-8.542v-5c0-.833-.625-1.458-1.666-1.667h-3.125c-.834 0-1.459.625-1.667 1.667v4.792c-6.25.833-10.208 5-10.208 10.208 0 6.875 4.166 9.583 12.916 10.625 5.834 1.042 7.709 2.292 7.709 5.625 0 3.334-2.917 5.625-6.875 5.625-5.417 0-7.292-2.292-7.917-5.417-.208-.833-.833-1.25-1.458-1.25h-3.542c-.833 0-1.458.625-1.458 1.459v.208c.833 5.208 4.166 8.958 11.041 10v5c0 .833.625 1.458 1.667 1.667h3.125c.833 0 1.458-.625 1.667-1.667v-5c6.25-1.042 10.416-5.417 10.416-11.042Z" fill="#fff"/><path d="M214.375 115.792c-16.25-5.833-24.583-23.958-18.541-40 3.125-8.75 10-15.417 18.541-18.542.834-.416 1.25-1.041 1.25-2.083V52.25c0-.833-.416-1.458-1.25-1.666-.208 0-.625 0-.833.208-19.792 6.25-30.625 27.292-24.375 47.083 3.75 11.667 12.708 20.625 24.375 24.375.833.417 1.667 0 1.875-.833.208-.208.208-.417.208-.833v-2.917c0-.625-.625-1.458-1.25-1.875Zm22.084-65c-.834-.417-1.667 0-1.875.833-.209.209-.209.417-.209.834v2.916c0 .834.625 1.667 1.25 2.084 16.25 5.833 24.584 23.958 18.542 40-3.125 8.75-10 15.416-18.542 18.541-.833.417-1.25 1.042-1.25 2.084V121c0 .834.417 1.459 1.25 1.667.209 0 .625 0 .834-.208 19.791-6.25 30.625-27.292 24.375-47.084-3.75-11.875-12.917-20.833-24.375-24.583Z" fill="#fff"/></g><defs><linearGradient id="a" x1="450" y1="0" x2="175.079" y2="325.757" gradientUnits="userSpaceOnUse"><stop stop-color="#2775CA" stop-opacity=".8"/><stop offset="1" stop-color="#2775CA"/></linearGradient><filter id="b" x="170" y="35" width="110" height="110" filterUnits="userSpaceOnUse" color-interpolation-filters="sRGB"><feFlood flood-opacity="0" result="BackgroundImageFix"/><feColorMatrix in="SourceAlpha" values="0 0 0 0 0 0 0 0 0 0 0 0 0 0 0 0 0 0 127 0" result="hardAlpha"/><feMorphology radius="1" in="SourceAlpha" result="effect1_dropShadow"/><feOffset dy="2"/><feGaussianBlur stdDeviation="2"/><feColorMatrix values="0 0 0 0 0 0 0 0 0 0 0 0 0 0 0 0 0 0 0.05 0"/><feBlend in2="BackgroundImageFix" result="effect1_dropShadow"/><feColorMatrix in="SourceAlpha" values="0 0 0 0 0 0 0 0 0 0 0 0 0 0 0 0 0 0 127 0" result="hardAlpha"/><feMorphology radius="1" in="SourceAlpha" result="effect2_dropShadow"/><feOffset dy="4"/><feGaussianBlur stdDeviation="3"/><feColorMatrix values="0 0 0 0 0 0 0 0 0 0 0 0 0 0 0 0 0 0 0.05 0"/><feBlend in2="effect1_dropShadow" result="effect2_dropShadow"/><feBlend in="SourceGraphic" in2="effect2_dropShadow" result="shape"/></filter></defs></svg>